G04 #@! TF.GenerationSoftware,KiCad,Pcbnew,7.0.1*
G04 #@! TF.CreationDate,2024-02-28T10:23:22+01:00*
G04 #@! TF.ProjectId,licznik,6c69637a-6e69-46b2-9e6b-696361645f70,rev?*
G04 #@! TF.SameCoordinates,Original*
G04 #@! TF.FileFunction,Soldermask,Bot*
G04 #@! TF.FilePolarity,Negative*
%FSLAX46Y46*%
G04 Gerber Fmt 4.6, Leading zero omitted, Abs format (unit mm)*
G04 Created by KiCad (PCBNEW 7.0.1) date 2024-02-28 10:23:22*
%MOMM*%
%LPD*%
G01*
G04 APERTURE LIST*
G04 Aperture macros list*
%AMRoundRect*
0 Rectangle with rounded corners*
0 $1 Rounding radius*
0 $2 $3 $4 $5 $6 $7 $8 $9 X,Y pos of 4 corners*
0 Add a 4 corners polygon primitive as box body*
4,1,4,$2,$3,$4,$5,$6,$7,$8,$9,$2,$3,0*
0 Add four circle primitives for the rounded corners*
1,1,$1+$1,$2,$3*
1,1,$1+$1,$4,$5*
1,1,$1+$1,$6,$7*
1,1,$1+$1,$8,$9*
0 Add four rect primitives between the rounded corners*
20,1,$1+$1,$2,$3,$4,$5,0*
20,1,$1+$1,$4,$5,$6,$7,0*
20,1,$1+$1,$6,$7,$8,$9,0*
20,1,$1+$1,$8,$9,$2,$3,0*%
G04 Aperture macros list end*
%ADD10RoundRect,0.051000X0.850000X-0.850000X0.850000X0.850000X-0.850000X0.850000X-0.850000X-0.850000X0*%
%ADD11O,1.802000X1.802000*%
%ADD12C,3.302000*%
%ADD13RoundRect,0.051000X-0.850000X-0.850000X0.850000X-0.850000X0.850000X0.850000X-0.850000X0.850000X0*%
%ADD14C,1.002000*%
%ADD15C,1.802000*%
%ADD16C,3.402000*%
%ADD17RoundRect,0.051000X-0.425000X-0.425000X0.425000X-0.425000X0.425000X0.425000X-0.425000X0.425000X0*%
%ADD18O,0.952000X0.952000*%
%ADD19C,1.302000*%
G04 APERTURE END LIST*
D10*
X163310000Y-70750000D03*
D11*
X165850000Y-70750000D03*
X168390000Y-70750000D03*
X170930000Y-70750000D03*
X173470000Y-70750000D03*
D12*
X179197000Y-70485000D03*
D13*
X122986800Y-71678800D03*
D10*
X135382000Y-103606600D03*
D11*
X135382000Y-106146600D03*
D14*
X119618400Y-105324800D03*
X124018400Y-105324800D03*
D15*
X179030000Y-104280000D03*
D11*
X179030000Y-101740000D03*
X179030000Y-99200000D03*
X179030000Y-96660000D03*
X179030000Y-94120000D03*
D12*
X111175800Y-109702600D03*
D13*
X118668800Y-71628000D03*
D15*
X160300000Y-108650000D03*
D11*
X160300000Y-106110000D03*
X160300000Y-103570000D03*
X160300000Y-101030000D03*
X160300000Y-98490000D03*
X160300000Y-95950000D03*
X160300000Y-93410000D03*
D15*
X170300000Y-106150000D03*
D11*
X170300000Y-103610000D03*
X170300000Y-101070000D03*
X170300000Y-98530000D03*
X170300000Y-95990000D03*
D15*
X111251200Y-97598000D03*
D11*
X111251200Y-95058000D03*
X111251200Y-92518000D03*
X111251200Y-89978000D03*
X111251200Y-87438000D03*
X111251200Y-84898000D03*
X111251200Y-82358000D03*
D16*
X111201200Y-70358000D03*
X111211200Y-109718000D03*
X179241200Y-70478000D03*
X179351200Y-109808000D03*
D17*
X135712200Y-99093400D03*
D18*
X135712200Y-100093400D03*
D12*
X111201200Y-70358000D03*
X179324000Y-109804200D03*
D13*
X158700000Y-70790000D03*
D11*
X156160000Y-70790000D03*
D19*
X169240200Y-77928200D03*
X169240200Y-85928200D03*
G36*
X136126540Y-99568289D02*
G01*
X136126725Y-99570165D01*
X136125267Y-99571362D01*
X136063426Y-99583661D01*
X136015266Y-99711610D01*
X136075766Y-99790454D01*
X136076042Y-99792401D01*
X136074518Y-99793643D01*
X136072667Y-99792982D01*
X136022589Y-99735189D01*
X135909097Y-99662252D01*
X135779655Y-99624245D01*
X135644745Y-99624245D01*
X135515302Y-99662252D01*
X135401807Y-99735191D01*
X135351717Y-99792998D01*
X135349867Y-99793659D01*
X135348343Y-99792417D01*
X135348619Y-99790470D01*
X135409130Y-99711611D01*
X135360973Y-99583664D01*
X135299125Y-99571362D01*
X135297667Y-99570165D01*
X135297852Y-99568289D01*
X135299515Y-99567400D01*
X136124877Y-99567400D01*
X136126540Y-99568289D01*
G37*
M02*
