M48
; DRILL file {KiCad 7.0.1} date Wed Feb 28 10:23:33 2024
; FORMAT={-:-/ absolute / inch / decimal}
; #@! TF.CreationDate,2024-02-28T10:23:33+01:00
; #@! TF.GenerationSoftware,Kicad,Pcbnew,7.0.1
; #@! TF.FileFunction,Plated,1,2,PTH
FMAT,2
INCH
; #@! TA.AperFunction,Plated,PTH,ViaDrill
T1C0.0157
; #@! TA.AperFunction,Plated,PTH,ComponentDrill
T2C0.0197
; #@! TA.AperFunction,Plated,PTH,ComponentDrill
T3C0.0394
; #@! TA.AperFunction,Plated,PTH,ComponentDrill
T4C0.1260
%
G90
G05
T1
X4.325Y-3.686
X4.634Y-3.895
X4.7475Y-3.713
X4.786Y-3.411
X4.9042Y-3.8078
X4.935Y-2.9429
X4.935Y-3.0965
X5.08Y-3.267
X5.08Y-3.3783
X5.134Y-3.901
X5.227Y-3.758
X5.257Y-3.41
X5.259Y-2.974
X5.276Y-3.844
X5.383Y-2.973
X5.436Y-3.366
X5.455Y-3.473
X5.486Y-3.351
X5.529Y-3.352
X5.571Y-3.352
X5.592Y-2.91
X5.6136Y-3.353
X5.653Y-3.353
X5.91Y-3.1555
X6.008Y-3.801
X6.008Y-3.851
X6.047Y-3.367
X6.149Y-3.299
X6.179Y-3.332
X6.207Y-3.178
X6.265Y-3.049
X6.266Y-3.1358
X6.271Y-3.295
X6.3689Y-3.8973
X6.426Y-2.95
X6.426Y-3.047
X6.426Y-3.934
X6.427Y-3.386
X6.427Y-3.475
X6.428Y-3.136
X6.428Y-3.219
X6.428Y-3.3081
X6.4545Y-3.8688
X6.47Y-2.948
X6.4752Y-3.993
X6.805Y-3.134
T2
X5.343Y-3.9013
X5.343Y-3.9407
T3
X4.38Y-3.2424
X4.38Y-3.3424
X4.38Y-3.4424
X4.38Y-3.5424
X4.38Y-3.6424
X4.38Y-3.7424
X4.38Y-3.8424
X4.672Y-2.82
X4.842Y-2.822
X5.33Y-4.079
X5.33Y-4.179
X6.148Y-2.787
X6.248Y-2.787
X6.311Y-3.6776
X6.311Y-3.7776
X6.311Y-3.8776
X6.311Y-3.9776
X6.311Y-4.0776
X6.311Y-4.1776
X6.311Y-4.2776
X6.4295Y-2.7854
X6.5295Y-2.7854
X6.6295Y-2.7854
X6.7047Y-3.7791
X6.7047Y-3.8791
X6.7047Y-3.9791
X6.7047Y-4.0791
X6.7047Y-4.1791
X6.7295Y-2.7854
X6.8295Y-2.7854
X7.0484Y-3.7055
X7.0484Y-3.8055
X7.0484Y-3.9055
X7.0484Y-4.0055
X7.0484Y-4.1055
T4
X4.378Y-2.77
X4.3784Y-4.3196
X7.0567Y-2.7747
X7.0611Y-4.3231
T0
M30
