G04 #@! TF.GenerationSoftware,KiCad,Pcbnew,7.0.1*
G04 #@! TF.CreationDate,2024-02-28T10:23:21+01:00*
G04 #@! TF.ProjectId,licznik,6c69637a-6e69-46b2-9e6b-696361645f70,rev?*
G04 #@! TF.SameCoordinates,Original*
G04 #@! TF.FileFunction,Legend,Bot*
G04 #@! TF.FilePolarity,Positive*
%FSLAX46Y46*%
G04 Gerber Fmt 4.6, Leading zero omitted, Abs format (unit mm)*
G04 Created by KiCad (PCBNEW 7.0.1) date 2024-02-28 10:23:21*
%MOMM*%
%LPD*%
G01*
G04 APERTURE LIST*
%ADD10C,0.150000*%
G04 APERTURE END LIST*
D10*
X122086857Y-74157609D02*
X122229714Y-74205228D01*
X122229714Y-74205228D02*
X122277333Y-74252847D01*
X122277333Y-74252847D02*
X122324952Y-74348085D01*
X122324952Y-74348085D02*
X122324952Y-74490942D01*
X122324952Y-74490942D02*
X122277333Y-74586180D01*
X122277333Y-74586180D02*
X122229714Y-74633800D01*
X122229714Y-74633800D02*
X122134476Y-74681419D01*
X122134476Y-74681419D02*
X121753524Y-74681419D01*
X121753524Y-74681419D02*
X121753524Y-73681419D01*
X121753524Y-73681419D02*
X122086857Y-73681419D01*
X122086857Y-73681419D02*
X122182095Y-73729038D01*
X122182095Y-73729038D02*
X122229714Y-73776657D01*
X122229714Y-73776657D02*
X122277333Y-73871895D01*
X122277333Y-73871895D02*
X122277333Y-73967133D01*
X122277333Y-73967133D02*
X122229714Y-74062371D01*
X122229714Y-74062371D02*
X122182095Y-74109990D01*
X122182095Y-74109990D02*
X122086857Y-74157609D01*
X122086857Y-74157609D02*
X121753524Y-74157609D01*
X122705905Y-74395704D02*
X123182095Y-74395704D01*
X122610667Y-74681419D02*
X122944000Y-73681419D01*
X122944000Y-73681419D02*
X123277333Y-74681419D01*
X123467810Y-73681419D02*
X124039238Y-73681419D01*
X123753524Y-74681419D02*
X123753524Y-73681419D01*
X124372572Y-74300466D02*
X125134477Y-74300466D01*
X124753524Y-74681419D02*
X124753524Y-73919514D01*
X117667257Y-74056009D02*
X117810114Y-74103628D01*
X117810114Y-74103628D02*
X117857733Y-74151247D01*
X117857733Y-74151247D02*
X117905352Y-74246485D01*
X117905352Y-74246485D02*
X117905352Y-74389342D01*
X117905352Y-74389342D02*
X117857733Y-74484580D01*
X117857733Y-74484580D02*
X117810114Y-74532200D01*
X117810114Y-74532200D02*
X117714876Y-74579819D01*
X117714876Y-74579819D02*
X117333924Y-74579819D01*
X117333924Y-74579819D02*
X117333924Y-73579819D01*
X117333924Y-73579819D02*
X117667257Y-73579819D01*
X117667257Y-73579819D02*
X117762495Y-73627438D01*
X117762495Y-73627438D02*
X117810114Y-73675057D01*
X117810114Y-73675057D02*
X117857733Y-73770295D01*
X117857733Y-73770295D02*
X117857733Y-73865533D01*
X117857733Y-73865533D02*
X117810114Y-73960771D01*
X117810114Y-73960771D02*
X117762495Y-74008390D01*
X117762495Y-74008390D02*
X117667257Y-74056009D01*
X117667257Y-74056009D02*
X117333924Y-74056009D01*
X118286305Y-74294104D02*
X118762495Y-74294104D01*
X118191067Y-74579819D02*
X118524400Y-73579819D01*
X118524400Y-73579819D02*
X118857733Y-74579819D01*
X119048210Y-73579819D02*
X119619638Y-73579819D01*
X119333924Y-74579819D02*
X119333924Y-73579819D01*
X119952972Y-74198866D02*
X120714877Y-74198866D01*
X133640771Y-97996019D02*
X133164581Y-97996019D01*
X133164581Y-97996019D02*
X133164581Y-96996019D01*
X133974105Y-97472209D02*
X134307438Y-97472209D01*
X134450295Y-97996019D02*
X133974105Y-97996019D01*
X133974105Y-97996019D02*
X133974105Y-96996019D01*
X133974105Y-96996019D02*
X134450295Y-96996019D01*
X134878867Y-97996019D02*
X134878867Y-96996019D01*
X134878867Y-96996019D02*
X135116962Y-96996019D01*
X135116962Y-96996019D02*
X135259819Y-97043638D01*
X135259819Y-97043638D02*
X135355057Y-97138876D01*
X135355057Y-97138876D02*
X135402676Y-97234114D01*
X135402676Y-97234114D02*
X135450295Y-97424590D01*
X135450295Y-97424590D02*
X135450295Y-97567447D01*
X135450295Y-97567447D02*
X135402676Y-97757923D01*
X135402676Y-97757923D02*
X135355057Y-97853161D01*
X135355057Y-97853161D02*
X135259819Y-97948400D01*
X135259819Y-97948400D02*
X135116962Y-97996019D01*
X135116962Y-97996019D02*
X134878867Y-97996019D01*
X135640772Y-98091257D02*
X136402676Y-98091257D01*
X136831248Y-96996019D02*
X137021724Y-96996019D01*
X137021724Y-96996019D02*
X137116962Y-97043638D01*
X137116962Y-97043638D02*
X137212200Y-97138876D01*
X137212200Y-97138876D02*
X137259819Y-97329352D01*
X137259819Y-97329352D02*
X137259819Y-97662685D01*
X137259819Y-97662685D02*
X137212200Y-97853161D01*
X137212200Y-97853161D02*
X137116962Y-97948400D01*
X137116962Y-97948400D02*
X137021724Y-97996019D01*
X137021724Y-97996019D02*
X136831248Y-97996019D01*
X136831248Y-97996019D02*
X136736010Y-97948400D01*
X136736010Y-97948400D02*
X136640772Y-97853161D01*
X136640772Y-97853161D02*
X136593153Y-97662685D01*
X136593153Y-97662685D02*
X136593153Y-97329352D01*
X136593153Y-97329352D02*
X136640772Y-97138876D01*
X136640772Y-97138876D02*
X136736010Y-97043638D01*
X136736010Y-97043638D02*
X136831248Y-96996019D01*
X137688391Y-97996019D02*
X137688391Y-96996019D01*
X137688391Y-96996019D02*
X138259819Y-97996019D01*
X138259819Y-97996019D02*
X138259819Y-96996019D01*
M02*
