G04 #@! TF.GenerationSoftware,KiCad,Pcbnew,7.0.1*
G04 #@! TF.CreationDate,2024-02-28T10:23:21+01:00*
G04 #@! TF.ProjectId,licznik,6c69637a-6e69-46b2-9e6b-696361645f70,rev?*
G04 #@! TF.SameCoordinates,Original*
G04 #@! TF.FileFunction,Soldermask,Top*
G04 #@! TF.FilePolarity,Negative*
%FSLAX46Y46*%
G04 Gerber Fmt 4.6, Leading zero omitted, Abs format (unit mm)*
G04 Created by KiCad (PCBNEW 7.0.1) date 2024-02-28 10:23:21*
%MOMM*%
%LPD*%
G01*
G04 APERTURE LIST*
G04 Aperture macros list*
%AMRoundRect*
0 Rectangle with rounded corners*
0 $1 Rounding radius*
0 $2 $3 $4 $5 $6 $7 $8 $9 X,Y pos of 4 corners*
0 Add a 4 corners polygon primitive as box body*
4,1,4,$2,$3,$4,$5,$6,$7,$8,$9,$2,$3,0*
0 Add four circle primitives for the rounded corners*
1,1,$1+$1,$2,$3*
1,1,$1+$1,$4,$5*
1,1,$1+$1,$6,$7*
1,1,$1+$1,$8,$9*
0 Add four rect primitives between the rounded corners*
20,1,$1+$1,$2,$3,$4,$5,0*
20,1,$1+$1,$4,$5,$6,$7,0*
20,1,$1+$1,$6,$7,$8,$9,0*
20,1,$1+$1,$8,$9,$2,$3,0*%
G04 Aperture macros list end*
%ADD10RoundRect,0.051000X0.850000X-0.850000X0.850000X0.850000X-0.850000X0.850000X-0.850000X-0.850000X0*%
%ADD11O,1.802000X1.802000*%
%ADD12RoundRect,0.276000X-0.250000X0.225000X-0.250000X-0.225000X0.250000X-0.225000X0.250000X0.225000X0*%
%ADD13RoundRect,0.251000X-0.200000X-0.275000X0.200000X-0.275000X0.200000X0.275000X-0.200000X0.275000X0*%
%ADD14RoundRect,0.276000X0.225000X0.250000X-0.225000X0.250000X-0.225000X-0.250000X0.225000X-0.250000X0*%
%ADD15RoundRect,0.276000X-0.225000X-0.250000X0.225000X-0.250000X0.225000X0.250000X-0.225000X0.250000X0*%
%ADD16RoundRect,0.251000X-0.275000X0.200000X-0.275000X-0.200000X0.275000X-0.200000X0.275000X0.200000X0*%
%ADD17C,3.302000*%
%ADD18RoundRect,0.051000X-0.850000X-0.850000X0.850000X-0.850000X0.850000X0.850000X-0.850000X0.850000X0*%
%ADD19RoundRect,0.201000X0.825000X0.150000X-0.825000X0.150000X-0.825000X-0.150000X0.825000X-0.150000X0*%
%ADD20RoundRect,0.051000X1.150000X1.150000X-1.150000X1.150000X-1.150000X-1.150000X1.150000X-1.150000X0*%
%ADD21RoundRect,0.269750X-0.256250X0.218750X-0.256250X-0.218750X0.256250X-0.218750X0.256250X0.218750X0*%
%ADD22RoundRect,0.301000X-0.450000X-0.425000X0.450000X-0.425000X0.450000X0.425000X-0.450000X0.425000X0*%
%ADD23RoundRect,0.301000X0.300000X0.300000X-0.300000X0.300000X-0.300000X-0.300000X0.300000X-0.300000X0*%
%ADD24RoundRect,0.276000X0.250000X-0.225000X0.250000X0.225000X-0.250000X0.225000X-0.250000X-0.225000X0*%
%ADD25RoundRect,0.269750X0.381250X-0.218750X0.381250X0.218750X-0.381250X0.218750X-0.381250X-0.218750X0*%
%ADD26C,1.002000*%
%ADD27RoundRect,0.051000X-0.250000X-1.250000X0.250000X-1.250000X0.250000X1.250000X-0.250000X1.250000X0*%
%ADD28RoundRect,0.051000X-1.000000X-1.250000X1.000000X-1.250000X1.000000X1.250000X-1.000000X1.250000X0*%
%ADD29RoundRect,0.138500X-0.225000X-0.087500X0.225000X-0.087500X0.225000X0.087500X-0.225000X0.087500X0*%
%ADD30RoundRect,0.138500X-0.087500X-0.225000X0.087500X-0.225000X0.087500X0.225000X-0.087500X0.225000X0*%
%ADD31C,1.802000*%
%ADD32RoundRect,0.251000X0.200000X0.275000X-0.200000X0.275000X-0.200000X-0.275000X0.200000X-0.275000X0*%
%ADD33RoundRect,0.251000X0.275000X-0.200000X0.275000X0.200000X-0.275000X0.200000X-0.275000X-0.200000X0*%
%ADD34RoundRect,0.276000X-0.225000X-0.375000X0.225000X-0.375000X0.225000X0.375000X-0.225000X0.375000X0*%
%ADD35RoundRect,0.051000X-0.750000X1.000000X-0.750000X-1.000000X0.750000X-1.000000X0.750000X1.000000X0*%
%ADD36RoundRect,0.051000X-1.900000X1.000000X-1.900000X-1.000000X1.900000X-1.000000X1.900000X1.000000X0*%
%ADD37RoundRect,0.051000X-0.375000X0.500000X-0.375000X-0.500000X0.375000X-0.500000X0.375000X0.500000X0*%
%ADD38C,3.402000*%
%ADD39RoundRect,0.301000X0.900000X-1.000000X0.900000X1.000000X-0.900000X1.000000X-0.900000X-1.000000X0*%
%ADD40RoundRect,0.051000X-0.425000X-0.425000X0.425000X-0.425000X0.425000X0.425000X-0.425000X0.425000X0*%
%ADD41O,0.952000X0.952000*%
%ADD42RoundRect,0.301000X-0.400000X-0.600000X0.400000X-0.600000X0.400000X0.600000X-0.400000X0.600000X0*%
%ADD43RoundRect,0.201000X-0.150000X0.587500X-0.150000X-0.587500X0.150000X-0.587500X0.150000X0.587500X0*%
%ADD44RoundRect,0.126000X-0.725000X-0.075000X0.725000X-0.075000X0.725000X0.075000X-0.725000X0.075000X0*%
%ADD45RoundRect,0.126000X-0.075000X-0.725000X0.075000X-0.725000X0.075000X0.725000X-0.075000X0.725000X0*%
%ADD46C,1.302000*%
%ADD47RoundRect,0.051000X-0.800000X-0.350000X0.800000X-0.350000X0.800000X0.350000X-0.800000X0.350000X0*%
%ADD48RoundRect,0.051000X-0.750000X-0.600000X0.750000X-0.600000X0.750000X0.600000X-0.750000X0.600000X0*%
%ADD49RoundRect,0.051000X-0.750000X-0.800000X0.750000X-0.800000X0.750000X0.800000X-0.750000X0.800000X0*%
%ADD50RoundRect,0.051000X-1.150000X-0.600000X1.150000X-0.600000X1.150000X0.600000X-1.150000X0.600000X0*%
%ADD51RoundRect,0.051000X-1.200000X1.000000X-1.200000X-1.000000X1.200000X-1.000000X1.200000X1.000000X0*%
G04 APERTURE END LIST*
D10*
X163310000Y-70750000D03*
D11*
X165850000Y-70750000D03*
X168390000Y-70750000D03*
X170930000Y-70750000D03*
X173470000Y-70750000D03*
D12*
X149606000Y-99301000D03*
X149606000Y-100851000D03*
D13*
X160350000Y-83769200D03*
X162000000Y-83769200D03*
X160375000Y-79527400D03*
X162025000Y-79527400D03*
X160400000Y-81750000D03*
X162050000Y-81750000D03*
D14*
X124575000Y-93450000D03*
X123025000Y-93450000D03*
D13*
X130520000Y-97200000D03*
X132170000Y-97200000D03*
D15*
X140050000Y-109700000D03*
X141600000Y-109700000D03*
D16*
X127530000Y-84885000D03*
X127530000Y-86535000D03*
D17*
X179197000Y-70485000D03*
D14*
X141427200Y-72085200D03*
X139877200Y-72085200D03*
D18*
X122986800Y-71678800D03*
D19*
X127900000Y-78580000D03*
X127900000Y-77310000D03*
X127900000Y-76040000D03*
X127900000Y-74770000D03*
X122950000Y-74770000D03*
X122950000Y-76040000D03*
X122950000Y-77310000D03*
X122950000Y-78580000D03*
D20*
X125425000Y-76675000D03*
D10*
X135382000Y-103606600D03*
D11*
X135382000Y-106146600D03*
D21*
X138353800Y-101345900D03*
X138353800Y-102920900D03*
D22*
X115968800Y-91313000D03*
X118668800Y-91313000D03*
D23*
X118773400Y-87884000D03*
X115973400Y-87884000D03*
D13*
X130500000Y-79300000D03*
X132150000Y-79300000D03*
D16*
X147574000Y-99251000D03*
X147574000Y-100901000D03*
D15*
X133975000Y-79250000D03*
X135525000Y-79250000D03*
D14*
X132100000Y-91750000D03*
X130550000Y-91750000D03*
D22*
X111117400Y-104038400D03*
X113817400Y-104038400D03*
D24*
X154406600Y-84315600D03*
X154406600Y-82765600D03*
D25*
X132156200Y-101240100D03*
X132156200Y-99115100D03*
X114700000Y-97612500D03*
X114700000Y-95487500D03*
D26*
X119618400Y-105324800D03*
X124018400Y-105324800D03*
D27*
X120218400Y-102724800D03*
X121018400Y-102724800D03*
X121818400Y-102724800D03*
X122618400Y-102724800D03*
X123418400Y-102724800D03*
D28*
X117418400Y-102724800D03*
X117418400Y-108224800D03*
X126218400Y-102724800D03*
X126218400Y-108224800D03*
D24*
X135585200Y-75552600D03*
X135585200Y-74002600D03*
D29*
X143595000Y-103720000D03*
X143595000Y-104220000D03*
X143595000Y-104720000D03*
X143595000Y-105220000D03*
D30*
X144257500Y-105382500D03*
X144757500Y-105382500D03*
X145257500Y-105382500D03*
D29*
X145920000Y-105220000D03*
X145920000Y-104720000D03*
X145920000Y-104220000D03*
X145920000Y-103720000D03*
D30*
X145257500Y-103557500D03*
X144757500Y-103557500D03*
X144257500Y-103557500D03*
D31*
X179030000Y-104280000D03*
D11*
X179030000Y-101740000D03*
X179030000Y-99200000D03*
X179030000Y-96660000D03*
X179030000Y-94120000D03*
D17*
X111175800Y-109702600D03*
D15*
X117703600Y-97620000D03*
X119253600Y-97620000D03*
X145016000Y-109688000D03*
X146566000Y-109688000D03*
D32*
X132300000Y-86950000D03*
X130650000Y-86950000D03*
D24*
X126850000Y-72075000D03*
X126850000Y-70525000D03*
D33*
X144520000Y-101085000D03*
X144520000Y-99435000D03*
D18*
X118668800Y-71628000D03*
D34*
X110796800Y-100965000D03*
X114096800Y-100965000D03*
D35*
X119150800Y-75378600D03*
X116850800Y-75378600D03*
D36*
X116850800Y-81678600D03*
D35*
X114550800Y-75378600D03*
D37*
X168245000Y-103172000D03*
X168245000Y-109172000D03*
X164495000Y-103172000D03*
X164495000Y-109172000D03*
D16*
X140614400Y-73901800D03*
X140614400Y-75551800D03*
D15*
X117703600Y-95420000D03*
X119253600Y-95420000D03*
D31*
X160300000Y-108650000D03*
D11*
X160300000Y-106110000D03*
X160300000Y-103570000D03*
X160300000Y-101030000D03*
X160300000Y-98490000D03*
X160300000Y-95950000D03*
X160300000Y-93410000D03*
D31*
X170300000Y-106150000D03*
D11*
X170300000Y-103610000D03*
X170300000Y-101070000D03*
X170300000Y-98530000D03*
X170300000Y-95990000D03*
D33*
X138023600Y-75577200D03*
X138023600Y-73927200D03*
D13*
X160450000Y-74900000D03*
X162100000Y-74900000D03*
D16*
X134650000Y-70425000D03*
X134650000Y-72075000D03*
D31*
X111251200Y-97598000D03*
D11*
X111251200Y-95058000D03*
X111251200Y-92518000D03*
X111251200Y-89978000D03*
X111251200Y-87438000D03*
X111251200Y-84898000D03*
X111251200Y-82358000D03*
D38*
X111201200Y-70358000D03*
X111211200Y-109718000D03*
X179241200Y-70478000D03*
X179351200Y-109808000D03*
D39*
X131191000Y-109134800D03*
X131191000Y-104834800D03*
D40*
X135712200Y-99093400D03*
D41*
X135712200Y-100093400D03*
D42*
X116055200Y-84886800D03*
X119555200Y-84886800D03*
D13*
X160425000Y-77400000D03*
X162075000Y-77400000D03*
D17*
X111201200Y-70358000D03*
D33*
X151892000Y-100901000D03*
X151892000Y-99251000D03*
D32*
X112356400Y-77927200D03*
X110706400Y-77927200D03*
D17*
X179324000Y-109804200D03*
D43*
X131650000Y-70162500D03*
X129750000Y-70162500D03*
X130700000Y-72037500D03*
D18*
X158700000Y-70790000D03*
D11*
X156160000Y-70790000D03*
D15*
X143450000Y-74450000D03*
X145000000Y-74450000D03*
D32*
X132175000Y-94300000D03*
X130525000Y-94300000D03*
D15*
X150550000Y-74500000D03*
X152100000Y-74500000D03*
D14*
X132200000Y-84950000D03*
X130650000Y-84950000D03*
D15*
X147025000Y-74450000D03*
X148575000Y-74450000D03*
D14*
X124550000Y-89750000D03*
X123000000Y-89750000D03*
X132250000Y-83000000D03*
X130700000Y-83000000D03*
D15*
X143433200Y-72059800D03*
X144983200Y-72059800D03*
X150609000Y-72034400D03*
X152159000Y-72034400D03*
D24*
X140770000Y-105265000D03*
X140770000Y-103715000D03*
D44*
X136425000Y-83225000D03*
X136425000Y-83725000D03*
X136425000Y-84225000D03*
X136425000Y-84725000D03*
X136425000Y-85225000D03*
X136425000Y-85725000D03*
X136425000Y-86225000D03*
X136425000Y-86725000D03*
X136425000Y-87225000D03*
X136425000Y-87725000D03*
X136425000Y-88225000D03*
X136425000Y-88725000D03*
X136425000Y-89225000D03*
X136425000Y-89725000D03*
X136425000Y-90225000D03*
X136425000Y-90725000D03*
X136425000Y-91225000D03*
X136425000Y-91725000D03*
X136425000Y-92225000D03*
X136425000Y-92725000D03*
X136425000Y-93225000D03*
X136425000Y-93725000D03*
X136425000Y-94225000D03*
X136425000Y-94725000D03*
X136425000Y-95225000D03*
D45*
X138100000Y-96900000D03*
X138600000Y-96900000D03*
X139100000Y-96900000D03*
X139600000Y-96900000D03*
X140100000Y-96900000D03*
X140600000Y-96900000D03*
X141100000Y-96900000D03*
X141600000Y-96900000D03*
X142100000Y-96900000D03*
X142600000Y-96900000D03*
X143100000Y-96900000D03*
X143600000Y-96900000D03*
X144100000Y-96900000D03*
X144600000Y-96900000D03*
X145100000Y-96900000D03*
X145600000Y-96900000D03*
X146100000Y-96900000D03*
X146600000Y-96900000D03*
X147100000Y-96900000D03*
X147600000Y-96900000D03*
X148100000Y-96900000D03*
X148600000Y-96900000D03*
X149100000Y-96900000D03*
X149600000Y-96900000D03*
X150100000Y-96900000D03*
D44*
X151775000Y-95225000D03*
X151775000Y-94725000D03*
X151775000Y-94225000D03*
X151775000Y-93725000D03*
X151775000Y-93225000D03*
X151775000Y-92725000D03*
X151775000Y-92225000D03*
X151775000Y-91725000D03*
X151775000Y-91225000D03*
X151775000Y-90725000D03*
X151775000Y-90225000D03*
X151775000Y-89725000D03*
X151775000Y-89225000D03*
X151775000Y-88725000D03*
X151775000Y-88225000D03*
X151775000Y-87725000D03*
X151775000Y-87225000D03*
X151775000Y-86725000D03*
X151775000Y-86225000D03*
X151775000Y-85725000D03*
X151775000Y-85225000D03*
X151775000Y-84725000D03*
X151775000Y-84225000D03*
X151775000Y-83725000D03*
X151775000Y-83225000D03*
D45*
X150100000Y-81550000D03*
X149600000Y-81550000D03*
X149100000Y-81550000D03*
X148600000Y-81550000D03*
X148100000Y-81550000D03*
X147600000Y-81550000D03*
X147100000Y-81550000D03*
X146600000Y-81550000D03*
X146100000Y-81550000D03*
X145600000Y-81550000D03*
X145100000Y-81550000D03*
X144600000Y-81550000D03*
X144100000Y-81550000D03*
X143600000Y-81550000D03*
X143100000Y-81550000D03*
X142600000Y-81550000D03*
X142100000Y-81550000D03*
X141600000Y-81550000D03*
X141100000Y-81550000D03*
X140600000Y-81550000D03*
X140100000Y-81550000D03*
X139600000Y-81550000D03*
X139100000Y-81550000D03*
X138600000Y-81550000D03*
X138100000Y-81550000D03*
D14*
X132150000Y-77050000D03*
X130600000Y-77050000D03*
D13*
X160325000Y-86000000D03*
X161975000Y-86000000D03*
X130525000Y-89550000D03*
X132175000Y-89550000D03*
D21*
X142110000Y-99422500D03*
X142110000Y-100997500D03*
D13*
X160402000Y-88315800D03*
X162052000Y-88315800D03*
D15*
X146950000Y-72050000D03*
X148500000Y-72050000D03*
D46*
X169240200Y-77928200D03*
X169240200Y-85928200D03*
D47*
X180240200Y-85118200D03*
X180240200Y-84018200D03*
X180240200Y-82918200D03*
X180240200Y-81818200D03*
X180240200Y-80718200D03*
X180240200Y-79618200D03*
X180240200Y-78518200D03*
X180240200Y-77418200D03*
X180240200Y-76318200D03*
D48*
X179080200Y-75118200D03*
D49*
X179080200Y-89718200D03*
D50*
X169540200Y-75118200D03*
X169530200Y-90628200D03*
D14*
X146571000Y-107188000D03*
X145021000Y-107188000D03*
D51*
X127225000Y-89750000D03*
X127225000Y-93450000D03*
D16*
X138379200Y-104649000D03*
X138379200Y-106299000D03*
G36*
X145070476Y-105064136D02*
G01*
X145070245Y-105065890D01*
X145043927Y-105105277D01*
X145033500Y-105157699D01*
X145033500Y-105607301D01*
X145043927Y-105659722D01*
X145070242Y-105699104D01*
X145070473Y-105700858D01*
X145069222Y-105702109D01*
X145067468Y-105701878D01*
X145044811Y-105686740D01*
X144970189Y-105686740D01*
X144947532Y-105701877D01*
X144945778Y-105702108D01*
X144944527Y-105700857D01*
X144944758Y-105699103D01*
X144971072Y-105659722D01*
X144981500Y-105607301D01*
X144981500Y-105157699D01*
X144971072Y-105105277D01*
X144944757Y-105065894D01*
X144944526Y-105064140D01*
X144945777Y-105062889D01*
X144947531Y-105063120D01*
X144970188Y-105078259D01*
X145044808Y-105078259D01*
X145067471Y-105063116D01*
X145069225Y-105062885D01*
X145070476Y-105064136D01*
G37*
G36*
X144570476Y-105064136D02*
G01*
X144570245Y-105065890D01*
X144543927Y-105105277D01*
X144533500Y-105157699D01*
X144533500Y-105607301D01*
X144543927Y-105659722D01*
X144570242Y-105699104D01*
X144570473Y-105700858D01*
X144569222Y-105702109D01*
X144567468Y-105701878D01*
X144544811Y-105686740D01*
X144470189Y-105686740D01*
X144447532Y-105701877D01*
X144445778Y-105702108D01*
X144444527Y-105700857D01*
X144444758Y-105699103D01*
X144471072Y-105659722D01*
X144481500Y-105607301D01*
X144481500Y-105157699D01*
X144471072Y-105105277D01*
X144444757Y-105065894D01*
X144444526Y-105064140D01*
X144445777Y-105062889D01*
X144447531Y-105063120D01*
X144470188Y-105078259D01*
X144544808Y-105078259D01*
X144567471Y-105063116D01*
X144569225Y-105062885D01*
X144570476Y-105064136D01*
G37*
G36*
X143278393Y-104907256D02*
G01*
X143317777Y-104933572D01*
X143370199Y-104944000D01*
X143819801Y-104944000D01*
X143872222Y-104933572D01*
X143911597Y-104907262D01*
X143913351Y-104907031D01*
X143914602Y-104908282D01*
X143914371Y-104910036D01*
X143893566Y-104941171D01*
X144036316Y-105083931D01*
X144067472Y-105063114D01*
X144069226Y-105062883D01*
X144070477Y-105064134D01*
X144070246Y-105065888D01*
X144043927Y-105105277D01*
X144033500Y-105157699D01*
X144033500Y-105557198D01*
X144032500Y-105558930D01*
X144030500Y-105558930D01*
X144029500Y-105557198D01*
X144029499Y-105495616D01*
X143939561Y-105421807D01*
X143878612Y-105433930D01*
X143876903Y-105433472D01*
X143876226Y-105431837D01*
X143877111Y-105430305D01*
X143916492Y-105403992D01*
X143946072Y-105359722D01*
X143956500Y-105307301D01*
X143956500Y-105132699D01*
X143946072Y-105080277D01*
X143916492Y-105036007D01*
X143872222Y-105006427D01*
X143819801Y-104996000D01*
X143370199Y-104996000D01*
X143317777Y-105006427D01*
X143278393Y-105032743D01*
X143276639Y-105032974D01*
X143275388Y-105031723D01*
X143275619Y-105029969D01*
X143290759Y-105007310D01*
X143290759Y-104932690D01*
X143275619Y-104910030D01*
X143275388Y-104908276D01*
X143276639Y-104907025D01*
X143278393Y-104907256D01*
G37*
G36*
X145603393Y-104907256D02*
G01*
X145642777Y-104933572D01*
X145695199Y-104944000D01*
X146144801Y-104944000D01*
X146197222Y-104933572D01*
X146236604Y-104907257D01*
X146238358Y-104907026D01*
X146239609Y-104908277D01*
X146239378Y-104910031D01*
X146224240Y-104932689D01*
X146224240Y-105007311D01*
X146239378Y-105029967D01*
X146239609Y-105031721D01*
X146238358Y-105032972D01*
X146236604Y-105032741D01*
X146197222Y-105006427D01*
X146144801Y-104996000D01*
X145695199Y-104996000D01*
X145642777Y-105006427D01*
X145598507Y-105036007D01*
X145568927Y-105080277D01*
X145558500Y-105132699D01*
X145558500Y-105307301D01*
X145568927Y-105359722D01*
X145598507Y-105403992D01*
X145637889Y-105430306D01*
X145638774Y-105431838D01*
X145638097Y-105433473D01*
X145636388Y-105433931D01*
X145575437Y-105421807D01*
X145484769Y-105496217D01*
X145483369Y-105496667D01*
X145482040Y-105496038D01*
X145481500Y-105494671D01*
X145481500Y-105157699D01*
X145471072Y-105105277D01*
X145444756Y-105065893D01*
X145444525Y-105064139D01*
X145445776Y-105062888D01*
X145447530Y-105063119D01*
X145478677Y-105083931D01*
X145621431Y-104941177D01*
X145600619Y-104910030D01*
X145600388Y-104908276D01*
X145601639Y-104907025D01*
X145603393Y-104907256D01*
G37*
G36*
X145603393Y-104407256D02*
G01*
X145642777Y-104433572D01*
X145695199Y-104444000D01*
X146144801Y-104444000D01*
X146197222Y-104433572D01*
X146236604Y-104407257D01*
X146238358Y-104407026D01*
X146239609Y-104408277D01*
X146239378Y-104410031D01*
X146224240Y-104432689D01*
X146224240Y-104507311D01*
X146239378Y-104529967D01*
X146239609Y-104531721D01*
X146238358Y-104532972D01*
X146236604Y-104532741D01*
X146197222Y-104506427D01*
X146144801Y-104496000D01*
X145695199Y-104496000D01*
X145642777Y-104506427D01*
X145603393Y-104532743D01*
X145601639Y-104532974D01*
X145600388Y-104531723D01*
X145600619Y-104529969D01*
X145615759Y-104507310D01*
X145615759Y-104432690D01*
X145600619Y-104410030D01*
X145600388Y-104408276D01*
X145601639Y-104407025D01*
X145603393Y-104407256D01*
G37*
G36*
X143278393Y-104407256D02*
G01*
X143317777Y-104433572D01*
X143370199Y-104444000D01*
X143819801Y-104444000D01*
X143872222Y-104433572D01*
X143911604Y-104407257D01*
X143913358Y-104407026D01*
X143914609Y-104408277D01*
X143914378Y-104410031D01*
X143899240Y-104432689D01*
X143899240Y-104507311D01*
X143914378Y-104529967D01*
X143914609Y-104531721D01*
X143913358Y-104532972D01*
X143911604Y-104532741D01*
X143872222Y-104506427D01*
X143819801Y-104496000D01*
X143370199Y-104496000D01*
X143317777Y-104506427D01*
X143278393Y-104532743D01*
X143276639Y-104532974D01*
X143275388Y-104531723D01*
X143275619Y-104529969D01*
X143290759Y-104507310D01*
X143290759Y-104432690D01*
X143275619Y-104410030D01*
X143275388Y-104408276D01*
X143276639Y-104407025D01*
X143278393Y-104407256D01*
G37*
G36*
X145484769Y-103443781D02*
G01*
X145575435Y-103518190D01*
X145636391Y-103506066D01*
X145638100Y-103506524D01*
X145638777Y-103508159D01*
X145637892Y-103509691D01*
X145598507Y-103536007D01*
X145568927Y-103580277D01*
X145558500Y-103632699D01*
X145558500Y-103807301D01*
X145568927Y-103859722D01*
X145598507Y-103903992D01*
X145642777Y-103933572D01*
X145695199Y-103944000D01*
X146144801Y-103944000D01*
X146197222Y-103933572D01*
X146236604Y-103907257D01*
X146238358Y-103907026D01*
X146239609Y-103908277D01*
X146239378Y-103910031D01*
X146224240Y-103932689D01*
X146224240Y-104007311D01*
X146239378Y-104029967D01*
X146239609Y-104031721D01*
X146238358Y-104032972D01*
X146236604Y-104032741D01*
X146197222Y-104006427D01*
X146144801Y-103996000D01*
X145695199Y-103996000D01*
X145642777Y-104006427D01*
X145603388Y-104032746D01*
X145601634Y-104032977D01*
X145600383Y-104031726D01*
X145600614Y-104029972D01*
X145621431Y-103998816D01*
X145478671Y-103856066D01*
X145447536Y-103876872D01*
X145445782Y-103877103D01*
X145444531Y-103875852D01*
X145444762Y-103874098D01*
X145471072Y-103834722D01*
X145481500Y-103782301D01*
X145481500Y-103445327D01*
X145482040Y-103443960D01*
X145483369Y-103443331D01*
X145484769Y-103443781D01*
G37*
G36*
X144032960Y-103443960D02*
G01*
X144033500Y-103445327D01*
X144033500Y-103782301D01*
X144043927Y-103834722D01*
X144070240Y-103874102D01*
X144070471Y-103875856D01*
X144069220Y-103877107D01*
X144067466Y-103876876D01*
X144036322Y-103856066D01*
X143893566Y-103998822D01*
X143914376Y-104029966D01*
X143914607Y-104031720D01*
X143913356Y-104032971D01*
X143911602Y-104032740D01*
X143872222Y-104006427D01*
X143819801Y-103996000D01*
X143370199Y-103996000D01*
X143317777Y-104006427D01*
X143278393Y-104032743D01*
X143276639Y-104032974D01*
X143275388Y-104031723D01*
X143275619Y-104029969D01*
X143290759Y-104007310D01*
X143290759Y-103932690D01*
X143275619Y-103910030D01*
X143275388Y-103908276D01*
X143276639Y-103907025D01*
X143278393Y-103907256D01*
X143317777Y-103933572D01*
X143370199Y-103944000D01*
X143819801Y-103944000D01*
X143872222Y-103933572D01*
X143916492Y-103903992D01*
X143946072Y-103859722D01*
X143956500Y-103807301D01*
X143956500Y-103632699D01*
X143946072Y-103580277D01*
X143916492Y-103536007D01*
X143877108Y-103509692D01*
X143876223Y-103508160D01*
X143876900Y-103506525D01*
X143878609Y-103506067D01*
X143939561Y-103518191D01*
X144030231Y-103443781D01*
X144031631Y-103443331D01*
X144032960Y-103443960D01*
G37*
G36*
X123121561Y-101460117D02*
G01*
X123122019Y-101461826D01*
X123119400Y-101474999D01*
X123119400Y-103974601D01*
X123122019Y-103987770D01*
X123121561Y-103989479D01*
X123119926Y-103990156D01*
X123118394Y-103989271D01*
X123084144Y-103938013D01*
X122952656Y-103938013D01*
X122918405Y-103989270D01*
X122916873Y-103990155D01*
X122915238Y-103989478D01*
X122914780Y-103987769D01*
X122917400Y-103974601D01*
X122917400Y-101474999D01*
X122914780Y-101461828D01*
X122915238Y-101460119D01*
X122916873Y-101459442D01*
X122918405Y-101460327D01*
X122952657Y-101511586D01*
X123084143Y-101511586D01*
X123118394Y-101460325D01*
X123119926Y-101459440D01*
X123121561Y-101460117D01*
G37*
G36*
X122321561Y-101460117D02*
G01*
X122322019Y-101461826D01*
X122319400Y-101474999D01*
X122319400Y-103974601D01*
X122322019Y-103987770D01*
X122321561Y-103989479D01*
X122319926Y-103990156D01*
X122318394Y-103989271D01*
X122284144Y-103938013D01*
X122152656Y-103938013D01*
X122118405Y-103989270D01*
X122116873Y-103990155D01*
X122115238Y-103989478D01*
X122114780Y-103987769D01*
X122117400Y-103974601D01*
X122117400Y-101474999D01*
X122114780Y-101461828D01*
X122115238Y-101460119D01*
X122116873Y-101459442D01*
X122118405Y-101460327D01*
X122152657Y-101511586D01*
X122284143Y-101511586D01*
X122318394Y-101460325D01*
X122319926Y-101459440D01*
X122321561Y-101460117D01*
G37*
G36*
X121521561Y-101460117D02*
G01*
X121522019Y-101461826D01*
X121519400Y-101474999D01*
X121519400Y-103974601D01*
X121522019Y-103987770D01*
X121521561Y-103989479D01*
X121519926Y-103990156D01*
X121518394Y-103989271D01*
X121484144Y-103938013D01*
X121352656Y-103938013D01*
X121318405Y-103989270D01*
X121316873Y-103990155D01*
X121315238Y-103989478D01*
X121314780Y-103987769D01*
X121317400Y-103974601D01*
X121317400Y-101474999D01*
X121314780Y-101461828D01*
X121315238Y-101460119D01*
X121316873Y-101459442D01*
X121318405Y-101460327D01*
X121352657Y-101511586D01*
X121484143Y-101511586D01*
X121518394Y-101460325D01*
X121519926Y-101459440D01*
X121521561Y-101460117D01*
G37*
G36*
X120721561Y-101460117D02*
G01*
X120722019Y-101461826D01*
X120719400Y-101474999D01*
X120719400Y-103974601D01*
X120722019Y-103987770D01*
X120721561Y-103989479D01*
X120719926Y-103990156D01*
X120718394Y-103989271D01*
X120684144Y-103938013D01*
X120552656Y-103938013D01*
X120518405Y-103989270D01*
X120516873Y-103990155D01*
X120515238Y-103989478D01*
X120514780Y-103987769D01*
X120517400Y-103974601D01*
X120517400Y-101474999D01*
X120514780Y-101461828D01*
X120515238Y-101460119D01*
X120516873Y-101459442D01*
X120518405Y-101460327D01*
X120552657Y-101511586D01*
X120684143Y-101511586D01*
X120718394Y-101460325D01*
X120719926Y-101459440D01*
X120721561Y-101460117D01*
G37*
G36*
X145070474Y-103239138D02*
G01*
X145070243Y-103240892D01*
X145043927Y-103280277D01*
X145033500Y-103332699D01*
X145033500Y-103782301D01*
X145043927Y-103834722D01*
X145070242Y-103874104D01*
X145070473Y-103875858D01*
X145069222Y-103877109D01*
X145067468Y-103876878D01*
X145044811Y-103861740D01*
X144970189Y-103861740D01*
X144947532Y-103876877D01*
X144945778Y-103877108D01*
X144944527Y-103875857D01*
X144944758Y-103874103D01*
X144971072Y-103834722D01*
X144981500Y-103782301D01*
X144981500Y-103332699D01*
X144971072Y-103280277D01*
X144944756Y-103240893D01*
X144944525Y-103239139D01*
X144945776Y-103237888D01*
X144947530Y-103238119D01*
X144970190Y-103253259D01*
X145044810Y-103253259D01*
X145067469Y-103238118D01*
X145069223Y-103237887D01*
X145070474Y-103239138D01*
G37*
G36*
X144570474Y-103239138D02*
G01*
X144570243Y-103240892D01*
X144543927Y-103280277D01*
X144533500Y-103332699D01*
X144533500Y-103782301D01*
X144543927Y-103834722D01*
X144570242Y-103874104D01*
X144570473Y-103875858D01*
X144569222Y-103877109D01*
X144567468Y-103876878D01*
X144544811Y-103861740D01*
X144470189Y-103861740D01*
X144447532Y-103876877D01*
X144445778Y-103877108D01*
X144444527Y-103875857D01*
X144444758Y-103874103D01*
X144471072Y-103834722D01*
X144481500Y-103782301D01*
X144481500Y-103332699D01*
X144471072Y-103280277D01*
X144444756Y-103240893D01*
X144444525Y-103239139D01*
X144445776Y-103237888D01*
X144447530Y-103238119D01*
X144470190Y-103253259D01*
X144544810Y-103253259D01*
X144567469Y-103238118D01*
X144569223Y-103237887D01*
X144570474Y-103239138D01*
G37*
G36*
X136126540Y-99568289D02*
G01*
X136126725Y-99570165D01*
X136125267Y-99571362D01*
X136063426Y-99583661D01*
X136015266Y-99711610D01*
X136075766Y-99790454D01*
X136076042Y-99792401D01*
X136074518Y-99793643D01*
X136072667Y-99792982D01*
X136022589Y-99735189D01*
X135909097Y-99662252D01*
X135779655Y-99624245D01*
X135644745Y-99624245D01*
X135515302Y-99662252D01*
X135401807Y-99735191D01*
X135351717Y-99792998D01*
X135349867Y-99793659D01*
X135348343Y-99792417D01*
X135348619Y-99790470D01*
X135409130Y-99711611D01*
X135360973Y-99583664D01*
X135299125Y-99571362D01*
X135297667Y-99570165D01*
X135297852Y-99568289D01*
X135299515Y-99567400D01*
X136124877Y-99567400D01*
X136126540Y-99568289D01*
G37*
G36*
X149934315Y-96090475D02*
G01*
X149934084Y-96092229D01*
X149910475Y-96127561D01*
X149901000Y-96175199D01*
X149901000Y-97624801D01*
X149910475Y-97672438D01*
X149934082Y-97707768D01*
X149934313Y-97709522D01*
X149933062Y-97710773D01*
X149931308Y-97710542D01*
X149887309Y-97681143D01*
X149812687Y-97681143D01*
X149768693Y-97710538D01*
X149766939Y-97710769D01*
X149765688Y-97709518D01*
X149765919Y-97707764D01*
X149789524Y-97672438D01*
X149799000Y-97624801D01*
X149799000Y-96175199D01*
X149789524Y-96127561D01*
X149765918Y-96092233D01*
X149765687Y-96090479D01*
X149766938Y-96089228D01*
X149768692Y-96089459D01*
X149812688Y-96118856D01*
X149887309Y-96118856D01*
X149931310Y-96089455D01*
X149933064Y-96089224D01*
X149934315Y-96090475D01*
G37*
G36*
X149434315Y-96090475D02*
G01*
X149434084Y-96092229D01*
X149410475Y-96127561D01*
X149401000Y-96175199D01*
X149401000Y-97624801D01*
X149410475Y-97672438D01*
X149434082Y-97707768D01*
X149434313Y-97709522D01*
X149433062Y-97710773D01*
X149431308Y-97710542D01*
X149387309Y-97681143D01*
X149312687Y-97681143D01*
X149268693Y-97710538D01*
X149266939Y-97710769D01*
X149265688Y-97709518D01*
X149265919Y-97707764D01*
X149289524Y-97672438D01*
X149299000Y-97624801D01*
X149299000Y-96175199D01*
X149289524Y-96127561D01*
X149265918Y-96092233D01*
X149265687Y-96090479D01*
X149266938Y-96089228D01*
X149268692Y-96089459D01*
X149312688Y-96118856D01*
X149387309Y-96118856D01*
X149431310Y-96089455D01*
X149433064Y-96089224D01*
X149434315Y-96090475D01*
G37*
G36*
X148934315Y-96090475D02*
G01*
X148934084Y-96092229D01*
X148910475Y-96127561D01*
X148901000Y-96175199D01*
X148901000Y-97624801D01*
X148910475Y-97672438D01*
X148934082Y-97707768D01*
X148934313Y-97709522D01*
X148933062Y-97710773D01*
X148931308Y-97710542D01*
X148887309Y-97681143D01*
X148812687Y-97681143D01*
X148768693Y-97710538D01*
X148766939Y-97710769D01*
X148765688Y-97709518D01*
X148765919Y-97707764D01*
X148789524Y-97672438D01*
X148799000Y-97624801D01*
X148799000Y-96175199D01*
X148789524Y-96127561D01*
X148765918Y-96092233D01*
X148765687Y-96090479D01*
X148766938Y-96089228D01*
X148768692Y-96089459D01*
X148812688Y-96118856D01*
X148887309Y-96118856D01*
X148931310Y-96089455D01*
X148933064Y-96089224D01*
X148934315Y-96090475D01*
G37*
G36*
X148434315Y-96090475D02*
G01*
X148434084Y-96092229D01*
X148410475Y-96127561D01*
X148401000Y-96175199D01*
X148401000Y-97624801D01*
X148410475Y-97672438D01*
X148434082Y-97707768D01*
X148434313Y-97709522D01*
X148433062Y-97710773D01*
X148431308Y-97710542D01*
X148387309Y-97681143D01*
X148312687Y-97681143D01*
X148268693Y-97710538D01*
X148266939Y-97710769D01*
X148265688Y-97709518D01*
X148265919Y-97707764D01*
X148289524Y-97672438D01*
X148299000Y-97624801D01*
X148299000Y-96175199D01*
X148289524Y-96127561D01*
X148265918Y-96092233D01*
X148265687Y-96090479D01*
X148266938Y-96089228D01*
X148268692Y-96089459D01*
X148312688Y-96118856D01*
X148387309Y-96118856D01*
X148431310Y-96089455D01*
X148433064Y-96089224D01*
X148434315Y-96090475D01*
G37*
G36*
X147934315Y-96090475D02*
G01*
X147934084Y-96092229D01*
X147910475Y-96127561D01*
X147901000Y-96175199D01*
X147901000Y-97624801D01*
X147910475Y-97672438D01*
X147934082Y-97707768D01*
X147934313Y-97709522D01*
X147933062Y-97710773D01*
X147931308Y-97710542D01*
X147887309Y-97681143D01*
X147812687Y-97681143D01*
X147768693Y-97710538D01*
X147766939Y-97710769D01*
X147765688Y-97709518D01*
X147765919Y-97707764D01*
X147789524Y-97672438D01*
X147799000Y-97624801D01*
X147799000Y-96175199D01*
X147789524Y-96127561D01*
X147765918Y-96092233D01*
X147765687Y-96090479D01*
X147766938Y-96089228D01*
X147768692Y-96089459D01*
X147812688Y-96118856D01*
X147887309Y-96118856D01*
X147931310Y-96089455D01*
X147933064Y-96089224D01*
X147934315Y-96090475D01*
G37*
G36*
X147434315Y-96090475D02*
G01*
X147434084Y-96092229D01*
X147410475Y-96127561D01*
X147401000Y-96175199D01*
X147401000Y-97624801D01*
X147410475Y-97672438D01*
X147434082Y-97707768D01*
X147434313Y-97709522D01*
X147433062Y-97710773D01*
X147431308Y-97710542D01*
X147387309Y-97681143D01*
X147312687Y-97681143D01*
X147268693Y-97710538D01*
X147266939Y-97710769D01*
X147265688Y-97709518D01*
X147265919Y-97707764D01*
X147289524Y-97672438D01*
X147299000Y-97624801D01*
X147299000Y-96175199D01*
X147289524Y-96127561D01*
X147265918Y-96092233D01*
X147265687Y-96090479D01*
X147266938Y-96089228D01*
X147268692Y-96089459D01*
X147312688Y-96118856D01*
X147387309Y-96118856D01*
X147431310Y-96089455D01*
X147433064Y-96089224D01*
X147434315Y-96090475D01*
G37*
G36*
X146934315Y-96090475D02*
G01*
X146934084Y-96092229D01*
X146910475Y-96127561D01*
X146901000Y-96175199D01*
X146901000Y-97624801D01*
X146910475Y-97672438D01*
X146934082Y-97707768D01*
X146934313Y-97709522D01*
X146933062Y-97710773D01*
X146931308Y-97710542D01*
X146887309Y-97681143D01*
X146812687Y-97681143D01*
X146768693Y-97710538D01*
X146766939Y-97710769D01*
X146765688Y-97709518D01*
X146765919Y-97707764D01*
X146789524Y-97672438D01*
X146799000Y-97624801D01*
X146799000Y-96175199D01*
X146789524Y-96127561D01*
X146765918Y-96092233D01*
X146765687Y-96090479D01*
X146766938Y-96089228D01*
X146768692Y-96089459D01*
X146812688Y-96118856D01*
X146887309Y-96118856D01*
X146931310Y-96089455D01*
X146933064Y-96089224D01*
X146934315Y-96090475D01*
G37*
G36*
X146434315Y-96090475D02*
G01*
X146434084Y-96092229D01*
X146410475Y-96127561D01*
X146401000Y-96175199D01*
X146401000Y-97624801D01*
X146410475Y-97672438D01*
X146434082Y-97707768D01*
X146434313Y-97709522D01*
X146433062Y-97710773D01*
X146431308Y-97710542D01*
X146387309Y-97681143D01*
X146312687Y-97681143D01*
X146268693Y-97710538D01*
X146266939Y-97710769D01*
X146265688Y-97709518D01*
X146265919Y-97707764D01*
X146289524Y-97672438D01*
X146299000Y-97624801D01*
X146299000Y-96175199D01*
X146289524Y-96127561D01*
X146265918Y-96092233D01*
X146265687Y-96090479D01*
X146266938Y-96089228D01*
X146268692Y-96089459D01*
X146312688Y-96118856D01*
X146387309Y-96118856D01*
X146431310Y-96089455D01*
X146433064Y-96089224D01*
X146434315Y-96090475D01*
G37*
G36*
X145934315Y-96090475D02*
G01*
X145934084Y-96092229D01*
X145910475Y-96127561D01*
X145901000Y-96175199D01*
X145901000Y-97624801D01*
X145910475Y-97672438D01*
X145934082Y-97707768D01*
X145934313Y-97709522D01*
X145933062Y-97710773D01*
X145931308Y-97710542D01*
X145887309Y-97681143D01*
X145812687Y-97681143D01*
X145768693Y-97710538D01*
X145766939Y-97710769D01*
X145765688Y-97709518D01*
X145765919Y-97707764D01*
X145789524Y-97672438D01*
X145799000Y-97624801D01*
X145799000Y-96175199D01*
X145789524Y-96127561D01*
X145765918Y-96092233D01*
X145765687Y-96090479D01*
X145766938Y-96089228D01*
X145768692Y-96089459D01*
X145812688Y-96118856D01*
X145887309Y-96118856D01*
X145931310Y-96089455D01*
X145933064Y-96089224D01*
X145934315Y-96090475D01*
G37*
G36*
X145434315Y-96090475D02*
G01*
X145434084Y-96092229D01*
X145410475Y-96127561D01*
X145401000Y-96175199D01*
X145401000Y-97624801D01*
X145410475Y-97672438D01*
X145434082Y-97707768D01*
X145434313Y-97709522D01*
X145433062Y-97710773D01*
X145431308Y-97710542D01*
X145387309Y-97681143D01*
X145312687Y-97681143D01*
X145268693Y-97710538D01*
X145266939Y-97710769D01*
X145265688Y-97709518D01*
X145265919Y-97707764D01*
X145289524Y-97672438D01*
X145299000Y-97624801D01*
X145299000Y-96175199D01*
X145289524Y-96127561D01*
X145265918Y-96092233D01*
X145265687Y-96090479D01*
X145266938Y-96089228D01*
X145268692Y-96089459D01*
X145312688Y-96118856D01*
X145387309Y-96118856D01*
X145431310Y-96089455D01*
X145433064Y-96089224D01*
X145434315Y-96090475D01*
G37*
G36*
X144934315Y-96090475D02*
G01*
X144934084Y-96092229D01*
X144910475Y-96127561D01*
X144901000Y-96175199D01*
X144901000Y-97624801D01*
X144910475Y-97672438D01*
X144934082Y-97707768D01*
X144934313Y-97709522D01*
X144933062Y-97710773D01*
X144931308Y-97710542D01*
X144887309Y-97681143D01*
X144812687Y-97681143D01*
X144768693Y-97710538D01*
X144766939Y-97710769D01*
X144765688Y-97709518D01*
X144765919Y-97707764D01*
X144789524Y-97672438D01*
X144799000Y-97624801D01*
X144799000Y-96175199D01*
X144789524Y-96127561D01*
X144765918Y-96092233D01*
X144765687Y-96090479D01*
X144766938Y-96089228D01*
X144768692Y-96089459D01*
X144812688Y-96118856D01*
X144887309Y-96118856D01*
X144931310Y-96089455D01*
X144933064Y-96089224D01*
X144934315Y-96090475D01*
G37*
G36*
X144434315Y-96090475D02*
G01*
X144434084Y-96092229D01*
X144410475Y-96127561D01*
X144401000Y-96175199D01*
X144401000Y-97624801D01*
X144410475Y-97672438D01*
X144434082Y-97707768D01*
X144434313Y-97709522D01*
X144433062Y-97710773D01*
X144431308Y-97710542D01*
X144387309Y-97681143D01*
X144312687Y-97681143D01*
X144268693Y-97710538D01*
X144266939Y-97710769D01*
X144265688Y-97709518D01*
X144265919Y-97707764D01*
X144289524Y-97672438D01*
X144299000Y-97624801D01*
X144299000Y-96175199D01*
X144289524Y-96127561D01*
X144265918Y-96092233D01*
X144265687Y-96090479D01*
X144266938Y-96089228D01*
X144268692Y-96089459D01*
X144312688Y-96118856D01*
X144387309Y-96118856D01*
X144431310Y-96089455D01*
X144433064Y-96089224D01*
X144434315Y-96090475D01*
G37*
G36*
X143934315Y-96090475D02*
G01*
X143934084Y-96092229D01*
X143910475Y-96127561D01*
X143901000Y-96175199D01*
X143901000Y-97624801D01*
X143910475Y-97672438D01*
X143934082Y-97707768D01*
X143934313Y-97709522D01*
X143933062Y-97710773D01*
X143931308Y-97710542D01*
X143887309Y-97681143D01*
X143812687Y-97681143D01*
X143768693Y-97710538D01*
X143766939Y-97710769D01*
X143765688Y-97709518D01*
X143765919Y-97707764D01*
X143789524Y-97672438D01*
X143799000Y-97624801D01*
X143799000Y-96175199D01*
X143789524Y-96127561D01*
X143765918Y-96092233D01*
X143765687Y-96090479D01*
X143766938Y-96089228D01*
X143768692Y-96089459D01*
X143812688Y-96118856D01*
X143887309Y-96118856D01*
X143931310Y-96089455D01*
X143933064Y-96089224D01*
X143934315Y-96090475D01*
G37*
G36*
X143434315Y-96090475D02*
G01*
X143434084Y-96092229D01*
X143410475Y-96127561D01*
X143401000Y-96175199D01*
X143401000Y-97624801D01*
X143410475Y-97672438D01*
X143434082Y-97707768D01*
X143434313Y-97709522D01*
X143433062Y-97710773D01*
X143431308Y-97710542D01*
X143387309Y-97681143D01*
X143312687Y-97681143D01*
X143268693Y-97710538D01*
X143266939Y-97710769D01*
X143265688Y-97709518D01*
X143265919Y-97707764D01*
X143289524Y-97672438D01*
X143299000Y-97624801D01*
X143299000Y-96175199D01*
X143289524Y-96127561D01*
X143265918Y-96092233D01*
X143265687Y-96090479D01*
X143266938Y-96089228D01*
X143268692Y-96089459D01*
X143312688Y-96118856D01*
X143387309Y-96118856D01*
X143431310Y-96089455D01*
X143433064Y-96089224D01*
X143434315Y-96090475D01*
G37*
G36*
X142934315Y-96090475D02*
G01*
X142934084Y-96092229D01*
X142910475Y-96127561D01*
X142901000Y-96175199D01*
X142901000Y-97624801D01*
X142910475Y-97672438D01*
X142934082Y-97707768D01*
X142934313Y-97709522D01*
X142933062Y-97710773D01*
X142931308Y-97710542D01*
X142887309Y-97681143D01*
X142812687Y-97681143D01*
X142768693Y-97710538D01*
X142766939Y-97710769D01*
X142765688Y-97709518D01*
X142765919Y-97707764D01*
X142789524Y-97672438D01*
X142799000Y-97624801D01*
X142799000Y-96175199D01*
X142789524Y-96127561D01*
X142765918Y-96092233D01*
X142765687Y-96090479D01*
X142766938Y-96089228D01*
X142768692Y-96089459D01*
X142812688Y-96118856D01*
X142887309Y-96118856D01*
X142931310Y-96089455D01*
X142933064Y-96089224D01*
X142934315Y-96090475D01*
G37*
G36*
X142434315Y-96090475D02*
G01*
X142434084Y-96092229D01*
X142410475Y-96127561D01*
X142401000Y-96175199D01*
X142401000Y-97624801D01*
X142410475Y-97672438D01*
X142434082Y-97707768D01*
X142434313Y-97709522D01*
X142433062Y-97710773D01*
X142431308Y-97710542D01*
X142387309Y-97681143D01*
X142312687Y-97681143D01*
X142268693Y-97710538D01*
X142266939Y-97710769D01*
X142265688Y-97709518D01*
X142265919Y-97707764D01*
X142289524Y-97672438D01*
X142299000Y-97624801D01*
X142299000Y-96175199D01*
X142289524Y-96127561D01*
X142265918Y-96092233D01*
X142265687Y-96090479D01*
X142266938Y-96089228D01*
X142268692Y-96089459D01*
X142312688Y-96118856D01*
X142387309Y-96118856D01*
X142431310Y-96089455D01*
X142433064Y-96089224D01*
X142434315Y-96090475D01*
G37*
G36*
X141934315Y-96090475D02*
G01*
X141934084Y-96092229D01*
X141910475Y-96127561D01*
X141901000Y-96175199D01*
X141901000Y-97624801D01*
X141910475Y-97672438D01*
X141934082Y-97707768D01*
X141934313Y-97709522D01*
X141933062Y-97710773D01*
X141931308Y-97710542D01*
X141887309Y-97681143D01*
X141812687Y-97681143D01*
X141768693Y-97710538D01*
X141766939Y-97710769D01*
X141765688Y-97709518D01*
X141765919Y-97707764D01*
X141789524Y-97672438D01*
X141799000Y-97624801D01*
X141799000Y-96175199D01*
X141789524Y-96127561D01*
X141765918Y-96092233D01*
X141765687Y-96090479D01*
X141766938Y-96089228D01*
X141768692Y-96089459D01*
X141812688Y-96118856D01*
X141887309Y-96118856D01*
X141931310Y-96089455D01*
X141933064Y-96089224D01*
X141934315Y-96090475D01*
G37*
G36*
X141434315Y-96090475D02*
G01*
X141434084Y-96092229D01*
X141410475Y-96127561D01*
X141401000Y-96175199D01*
X141401000Y-97624801D01*
X141410475Y-97672438D01*
X141434082Y-97707768D01*
X141434313Y-97709522D01*
X141433062Y-97710773D01*
X141431308Y-97710542D01*
X141387309Y-97681143D01*
X141312687Y-97681143D01*
X141268693Y-97710538D01*
X141266939Y-97710769D01*
X141265688Y-97709518D01*
X141265919Y-97707764D01*
X141289524Y-97672438D01*
X141299000Y-97624801D01*
X141299000Y-96175199D01*
X141289524Y-96127561D01*
X141265918Y-96092233D01*
X141265687Y-96090479D01*
X141266938Y-96089228D01*
X141268692Y-96089459D01*
X141312688Y-96118856D01*
X141387309Y-96118856D01*
X141431310Y-96089455D01*
X141433064Y-96089224D01*
X141434315Y-96090475D01*
G37*
G36*
X140934315Y-96090475D02*
G01*
X140934084Y-96092229D01*
X140910475Y-96127561D01*
X140901000Y-96175199D01*
X140901000Y-97624801D01*
X140910475Y-97672438D01*
X140934082Y-97707768D01*
X140934313Y-97709522D01*
X140933062Y-97710773D01*
X140931308Y-97710542D01*
X140887309Y-97681143D01*
X140812687Y-97681143D01*
X140768693Y-97710538D01*
X140766939Y-97710769D01*
X140765688Y-97709518D01*
X140765919Y-97707764D01*
X140789524Y-97672438D01*
X140799000Y-97624801D01*
X140799000Y-96175199D01*
X140789524Y-96127561D01*
X140765918Y-96092233D01*
X140765687Y-96090479D01*
X140766938Y-96089228D01*
X140768692Y-96089459D01*
X140812688Y-96118856D01*
X140887309Y-96118856D01*
X140931310Y-96089455D01*
X140933064Y-96089224D01*
X140934315Y-96090475D01*
G37*
G36*
X140434315Y-96090475D02*
G01*
X140434084Y-96092229D01*
X140410475Y-96127561D01*
X140401000Y-96175199D01*
X140401000Y-97624801D01*
X140410475Y-97672438D01*
X140434082Y-97707768D01*
X140434313Y-97709522D01*
X140433062Y-97710773D01*
X140431308Y-97710542D01*
X140387309Y-97681143D01*
X140312687Y-97681143D01*
X140268693Y-97710538D01*
X140266939Y-97710769D01*
X140265688Y-97709518D01*
X140265919Y-97707764D01*
X140289524Y-97672438D01*
X140299000Y-97624801D01*
X140299000Y-96175199D01*
X140289524Y-96127561D01*
X140265918Y-96092233D01*
X140265687Y-96090479D01*
X140266938Y-96089228D01*
X140268692Y-96089459D01*
X140312688Y-96118856D01*
X140387309Y-96118856D01*
X140431310Y-96089455D01*
X140433064Y-96089224D01*
X140434315Y-96090475D01*
G37*
G36*
X139934315Y-96090475D02*
G01*
X139934084Y-96092229D01*
X139910475Y-96127561D01*
X139901000Y-96175199D01*
X139901000Y-97624801D01*
X139910475Y-97672438D01*
X139934082Y-97707768D01*
X139934313Y-97709522D01*
X139933062Y-97710773D01*
X139931308Y-97710542D01*
X139887309Y-97681143D01*
X139812687Y-97681143D01*
X139768693Y-97710538D01*
X139766939Y-97710769D01*
X139765688Y-97709518D01*
X139765919Y-97707764D01*
X139789524Y-97672438D01*
X139799000Y-97624801D01*
X139799000Y-96175199D01*
X139789524Y-96127561D01*
X139765918Y-96092233D01*
X139765687Y-96090479D01*
X139766938Y-96089228D01*
X139768692Y-96089459D01*
X139812688Y-96118856D01*
X139887309Y-96118856D01*
X139931310Y-96089455D01*
X139933064Y-96089224D01*
X139934315Y-96090475D01*
G37*
G36*
X139434315Y-96090475D02*
G01*
X139434084Y-96092229D01*
X139410475Y-96127561D01*
X139401000Y-96175199D01*
X139401000Y-97624801D01*
X139410475Y-97672438D01*
X139434082Y-97707768D01*
X139434313Y-97709522D01*
X139433062Y-97710773D01*
X139431308Y-97710542D01*
X139387309Y-97681143D01*
X139312687Y-97681143D01*
X139268693Y-97710538D01*
X139266939Y-97710769D01*
X139265688Y-97709518D01*
X139265919Y-97707764D01*
X139289524Y-97672438D01*
X139299000Y-97624801D01*
X139299000Y-96175199D01*
X139289524Y-96127561D01*
X139265918Y-96092233D01*
X139265687Y-96090479D01*
X139266938Y-96089228D01*
X139268692Y-96089459D01*
X139312688Y-96118856D01*
X139387309Y-96118856D01*
X139431310Y-96089455D01*
X139433064Y-96089224D01*
X139434315Y-96090475D01*
G37*
G36*
X138934315Y-96090475D02*
G01*
X138934084Y-96092229D01*
X138910475Y-96127561D01*
X138901000Y-96175199D01*
X138901000Y-97624801D01*
X138910475Y-97672438D01*
X138934082Y-97707768D01*
X138934313Y-97709522D01*
X138933062Y-97710773D01*
X138931308Y-97710542D01*
X138887309Y-97681143D01*
X138812687Y-97681143D01*
X138768693Y-97710538D01*
X138766939Y-97710769D01*
X138765688Y-97709518D01*
X138765919Y-97707764D01*
X138789524Y-97672438D01*
X138799000Y-97624801D01*
X138799000Y-96175199D01*
X138789524Y-96127561D01*
X138765918Y-96092233D01*
X138765687Y-96090479D01*
X138766938Y-96089228D01*
X138768692Y-96089459D01*
X138812688Y-96118856D01*
X138887309Y-96118856D01*
X138931310Y-96089455D01*
X138933064Y-96089224D01*
X138934315Y-96090475D01*
G37*
G36*
X138434315Y-96090475D02*
G01*
X138434084Y-96092229D01*
X138410475Y-96127561D01*
X138401000Y-96175199D01*
X138401000Y-97624801D01*
X138410475Y-97672438D01*
X138434082Y-97707768D01*
X138434313Y-97709522D01*
X138433062Y-97710773D01*
X138431308Y-97710542D01*
X138387309Y-97681143D01*
X138312687Y-97681143D01*
X138268693Y-97710538D01*
X138266939Y-97710769D01*
X138265688Y-97709518D01*
X138265919Y-97707764D01*
X138289524Y-97672438D01*
X138299000Y-97624801D01*
X138299000Y-96175199D01*
X138289524Y-96127561D01*
X138265918Y-96092233D01*
X138265687Y-96090479D01*
X138266938Y-96089228D01*
X138268692Y-96089459D01*
X138312688Y-96118856D01*
X138387309Y-96118856D01*
X138431310Y-96089455D01*
X138433064Y-96089224D01*
X138434315Y-96090475D01*
G37*
G36*
X150967233Y-94890918D02*
G01*
X151002561Y-94914524D01*
X151050199Y-94924000D01*
X152499801Y-94924000D01*
X152547438Y-94914524D01*
X152582763Y-94890920D01*
X152584517Y-94890689D01*
X152585768Y-94891940D01*
X152585537Y-94893694D01*
X152556143Y-94937687D01*
X152556143Y-95012309D01*
X152585542Y-95056308D01*
X152585773Y-95058062D01*
X152584522Y-95059313D01*
X152582768Y-95059082D01*
X152547438Y-95035475D01*
X152499801Y-95026000D01*
X151050199Y-95026000D01*
X151002561Y-95035475D01*
X150967230Y-95059083D01*
X150965476Y-95059314D01*
X150964225Y-95058063D01*
X150964456Y-95056309D01*
X150993856Y-95012309D01*
X150993856Y-94937688D01*
X150964459Y-94893692D01*
X150964228Y-94891938D01*
X150965479Y-94890687D01*
X150967233Y-94890918D01*
G37*
G36*
X135617233Y-94890918D02*
G01*
X135652561Y-94914524D01*
X135700199Y-94924000D01*
X137149801Y-94924000D01*
X137197438Y-94914524D01*
X137232763Y-94890920D01*
X137234517Y-94890689D01*
X137235768Y-94891940D01*
X137235537Y-94893694D01*
X137206143Y-94937687D01*
X137206143Y-95012309D01*
X137235542Y-95056308D01*
X137235773Y-95058062D01*
X137234522Y-95059313D01*
X137232768Y-95059082D01*
X137197438Y-95035475D01*
X137149801Y-95026000D01*
X135700199Y-95026000D01*
X135652561Y-95035475D01*
X135617230Y-95059083D01*
X135615476Y-95059314D01*
X135614225Y-95058063D01*
X135614456Y-95056309D01*
X135643856Y-95012309D01*
X135643856Y-94937688D01*
X135614459Y-94893692D01*
X135614228Y-94891938D01*
X135615479Y-94890687D01*
X135617233Y-94890918D01*
G37*
G36*
X150967231Y-94390917D02*
G01*
X151002561Y-94414524D01*
X151050199Y-94424000D01*
X152499801Y-94424000D01*
X152547438Y-94414524D01*
X152582765Y-94390919D01*
X152584519Y-94390688D01*
X152585770Y-94391939D01*
X152585539Y-94393693D01*
X152556143Y-94437689D01*
X152556143Y-94512311D01*
X152585539Y-94556307D01*
X152585770Y-94558061D01*
X152584519Y-94559312D01*
X152582765Y-94559081D01*
X152547438Y-94535475D01*
X152499801Y-94526000D01*
X151050199Y-94526000D01*
X151002561Y-94535475D01*
X150967231Y-94559083D01*
X150965477Y-94559314D01*
X150964226Y-94558063D01*
X150964457Y-94556309D01*
X150993856Y-94512311D01*
X150993856Y-94437689D01*
X150964457Y-94393691D01*
X150964226Y-94391937D01*
X150965477Y-94390686D01*
X150967231Y-94390917D01*
G37*
G36*
X135617231Y-94390917D02*
G01*
X135652561Y-94414524D01*
X135700199Y-94424000D01*
X137149801Y-94424000D01*
X137197438Y-94414524D01*
X137232765Y-94390919D01*
X137234519Y-94390688D01*
X137235770Y-94391939D01*
X137235539Y-94393693D01*
X137206143Y-94437689D01*
X137206143Y-94512311D01*
X137235539Y-94556307D01*
X137235770Y-94558061D01*
X137234519Y-94559312D01*
X137232765Y-94559081D01*
X137197438Y-94535475D01*
X137149801Y-94526000D01*
X135700199Y-94526000D01*
X135652561Y-94535475D01*
X135617231Y-94559083D01*
X135615477Y-94559314D01*
X135614226Y-94558063D01*
X135614457Y-94556309D01*
X135643856Y-94512311D01*
X135643856Y-94437689D01*
X135614457Y-94393691D01*
X135614226Y-94391937D01*
X135615477Y-94390686D01*
X135617231Y-94390917D01*
G37*
G36*
X150967231Y-93890917D02*
G01*
X151002561Y-93914524D01*
X151050199Y-93924000D01*
X152499801Y-93924000D01*
X152547438Y-93914524D01*
X152582765Y-93890919D01*
X152584519Y-93890688D01*
X152585770Y-93891939D01*
X152585539Y-93893693D01*
X152556143Y-93937689D01*
X152556143Y-94012311D01*
X152585539Y-94056307D01*
X152585770Y-94058061D01*
X152584519Y-94059312D01*
X152582765Y-94059081D01*
X152547438Y-94035475D01*
X152499801Y-94026000D01*
X151050199Y-94026000D01*
X151002561Y-94035475D01*
X150967231Y-94059083D01*
X150965477Y-94059314D01*
X150964226Y-94058063D01*
X150964457Y-94056309D01*
X150993856Y-94012311D01*
X150993856Y-93937689D01*
X150964457Y-93893691D01*
X150964226Y-93891937D01*
X150965477Y-93890686D01*
X150967231Y-93890917D01*
G37*
G36*
X135617231Y-93890917D02*
G01*
X135652561Y-93914524D01*
X135700199Y-93924000D01*
X137149801Y-93924000D01*
X137197438Y-93914524D01*
X137232765Y-93890919D01*
X137234519Y-93890688D01*
X137235770Y-93891939D01*
X137235539Y-93893693D01*
X137206143Y-93937689D01*
X137206143Y-94012311D01*
X137235539Y-94056307D01*
X137235770Y-94058061D01*
X137234519Y-94059312D01*
X137232765Y-94059081D01*
X137197438Y-94035475D01*
X137149801Y-94026000D01*
X135700199Y-94026000D01*
X135652561Y-94035475D01*
X135617231Y-94059083D01*
X135615477Y-94059314D01*
X135614226Y-94058063D01*
X135614457Y-94056309D01*
X135643856Y-94012311D01*
X135643856Y-93937689D01*
X135614457Y-93893691D01*
X135614226Y-93891937D01*
X135615477Y-93890686D01*
X135617231Y-93890917D01*
G37*
G36*
X150967231Y-93390917D02*
G01*
X151002561Y-93414524D01*
X151050199Y-93424000D01*
X152499801Y-93424000D01*
X152547438Y-93414524D01*
X152582765Y-93390919D01*
X152584519Y-93390688D01*
X152585770Y-93391939D01*
X152585539Y-93393693D01*
X152556143Y-93437689D01*
X152556143Y-93512311D01*
X152585539Y-93556307D01*
X152585770Y-93558061D01*
X152584519Y-93559312D01*
X152582765Y-93559081D01*
X152547438Y-93535475D01*
X152499801Y-93526000D01*
X151050199Y-93526000D01*
X151002561Y-93535475D01*
X150967231Y-93559083D01*
X150965477Y-93559314D01*
X150964226Y-93558063D01*
X150964457Y-93556309D01*
X150993856Y-93512311D01*
X150993856Y-93437689D01*
X150964457Y-93393691D01*
X150964226Y-93391937D01*
X150965477Y-93390686D01*
X150967231Y-93390917D01*
G37*
G36*
X135617231Y-93390917D02*
G01*
X135652561Y-93414524D01*
X135700199Y-93424000D01*
X137149801Y-93424000D01*
X137197438Y-93414524D01*
X137232765Y-93390919D01*
X137234519Y-93390688D01*
X137235770Y-93391939D01*
X137235539Y-93393693D01*
X137206143Y-93437689D01*
X137206143Y-93512311D01*
X137235539Y-93556307D01*
X137235770Y-93558061D01*
X137234519Y-93559312D01*
X137232765Y-93559081D01*
X137197438Y-93535475D01*
X137149801Y-93526000D01*
X135700199Y-93526000D01*
X135652561Y-93535475D01*
X135617231Y-93559083D01*
X135615477Y-93559314D01*
X135614226Y-93558063D01*
X135614457Y-93556309D01*
X135643856Y-93512311D01*
X135643856Y-93437689D01*
X135614457Y-93393691D01*
X135614226Y-93391937D01*
X135615477Y-93390686D01*
X135617231Y-93390917D01*
G37*
G36*
X150967231Y-92890917D02*
G01*
X151002561Y-92914524D01*
X151050199Y-92924000D01*
X152499801Y-92924000D01*
X152547438Y-92914524D01*
X152582765Y-92890919D01*
X152584519Y-92890688D01*
X152585770Y-92891939D01*
X152585539Y-92893693D01*
X152556143Y-92937689D01*
X152556143Y-93012311D01*
X152585539Y-93056307D01*
X152585770Y-93058061D01*
X152584519Y-93059312D01*
X152582765Y-93059081D01*
X152547438Y-93035475D01*
X152499801Y-93026000D01*
X151050199Y-93026000D01*
X151002561Y-93035475D01*
X150967231Y-93059083D01*
X150965477Y-93059314D01*
X150964226Y-93058063D01*
X150964457Y-93056309D01*
X150993856Y-93012311D01*
X150993856Y-92937689D01*
X150964457Y-92893691D01*
X150964226Y-92891937D01*
X150965477Y-92890686D01*
X150967231Y-92890917D01*
G37*
G36*
X135617231Y-92890917D02*
G01*
X135652561Y-92914524D01*
X135700199Y-92924000D01*
X137149801Y-92924000D01*
X137197438Y-92914524D01*
X137232765Y-92890919D01*
X137234519Y-92890688D01*
X137235770Y-92891939D01*
X137235539Y-92893693D01*
X137206143Y-92937689D01*
X137206143Y-93012311D01*
X137235539Y-93056307D01*
X137235770Y-93058061D01*
X137234519Y-93059312D01*
X137232765Y-93059081D01*
X137197438Y-93035475D01*
X137149801Y-93026000D01*
X135700199Y-93026000D01*
X135652561Y-93035475D01*
X135617231Y-93059083D01*
X135615477Y-93059314D01*
X135614226Y-93058063D01*
X135614457Y-93056309D01*
X135643856Y-93012311D01*
X135643856Y-92937689D01*
X135614457Y-92893691D01*
X135614226Y-92891937D01*
X135615477Y-92890686D01*
X135617231Y-92890917D01*
G37*
G36*
X150967231Y-92390917D02*
G01*
X151002561Y-92414524D01*
X151050199Y-92424000D01*
X152499801Y-92424000D01*
X152547438Y-92414524D01*
X152582765Y-92390919D01*
X152584519Y-92390688D01*
X152585770Y-92391939D01*
X152585539Y-92393693D01*
X152556143Y-92437689D01*
X152556143Y-92512311D01*
X152585539Y-92556307D01*
X152585770Y-92558061D01*
X152584519Y-92559312D01*
X152582765Y-92559081D01*
X152547438Y-92535475D01*
X152499801Y-92526000D01*
X151050199Y-92526000D01*
X151002561Y-92535475D01*
X150967231Y-92559083D01*
X150965477Y-92559314D01*
X150964226Y-92558063D01*
X150964457Y-92556309D01*
X150993856Y-92512311D01*
X150993856Y-92437689D01*
X150964457Y-92393691D01*
X150964226Y-92391937D01*
X150965477Y-92390686D01*
X150967231Y-92390917D01*
G37*
G36*
X135617231Y-92390917D02*
G01*
X135652561Y-92414524D01*
X135700199Y-92424000D01*
X137149801Y-92424000D01*
X137197438Y-92414524D01*
X137232765Y-92390919D01*
X137234519Y-92390688D01*
X137235770Y-92391939D01*
X137235539Y-92393693D01*
X137206143Y-92437689D01*
X137206143Y-92512311D01*
X137235539Y-92556307D01*
X137235770Y-92558061D01*
X137234519Y-92559312D01*
X137232765Y-92559081D01*
X137197438Y-92535475D01*
X137149801Y-92526000D01*
X135700199Y-92526000D01*
X135652561Y-92535475D01*
X135617231Y-92559083D01*
X135615477Y-92559314D01*
X135614226Y-92558063D01*
X135614457Y-92556309D01*
X135643856Y-92512311D01*
X135643856Y-92437689D01*
X135614457Y-92393691D01*
X135614226Y-92391937D01*
X135615477Y-92390686D01*
X135617231Y-92390917D01*
G37*
G36*
X150967231Y-91890917D02*
G01*
X151002561Y-91914524D01*
X151050199Y-91924000D01*
X152499801Y-91924000D01*
X152547438Y-91914524D01*
X152582765Y-91890919D01*
X152584519Y-91890688D01*
X152585770Y-91891939D01*
X152585539Y-91893693D01*
X152556143Y-91937689D01*
X152556143Y-92012311D01*
X152585539Y-92056307D01*
X152585770Y-92058061D01*
X152584519Y-92059312D01*
X152582765Y-92059081D01*
X152547438Y-92035475D01*
X152499801Y-92026000D01*
X151050199Y-92026000D01*
X151002561Y-92035475D01*
X150967231Y-92059083D01*
X150965477Y-92059314D01*
X150964226Y-92058063D01*
X150964457Y-92056309D01*
X150993856Y-92012311D01*
X150993856Y-91937689D01*
X150964457Y-91893691D01*
X150964226Y-91891937D01*
X150965477Y-91890686D01*
X150967231Y-91890917D01*
G37*
G36*
X135617231Y-91890917D02*
G01*
X135652561Y-91914524D01*
X135700199Y-91924000D01*
X137149801Y-91924000D01*
X137197438Y-91914524D01*
X137232765Y-91890919D01*
X137234519Y-91890688D01*
X137235770Y-91891939D01*
X137235539Y-91893693D01*
X137206143Y-91937689D01*
X137206143Y-92012311D01*
X137235539Y-92056307D01*
X137235770Y-92058061D01*
X137234519Y-92059312D01*
X137232765Y-92059081D01*
X137197438Y-92035475D01*
X137149801Y-92026000D01*
X135700199Y-92026000D01*
X135652561Y-92035475D01*
X135617231Y-92059083D01*
X135615477Y-92059314D01*
X135614226Y-92058063D01*
X135614457Y-92056309D01*
X135643856Y-92012311D01*
X135643856Y-91937689D01*
X135614457Y-91893691D01*
X135614226Y-91891937D01*
X135615477Y-91890686D01*
X135617231Y-91890917D01*
G37*
G36*
X150967231Y-91390917D02*
G01*
X151002561Y-91414524D01*
X151050199Y-91424000D01*
X152499801Y-91424000D01*
X152547438Y-91414524D01*
X152582765Y-91390919D01*
X152584519Y-91390688D01*
X152585770Y-91391939D01*
X152585539Y-91393693D01*
X152556143Y-91437689D01*
X152556143Y-91512311D01*
X152585539Y-91556307D01*
X152585770Y-91558061D01*
X152584519Y-91559312D01*
X152582765Y-91559081D01*
X152547438Y-91535475D01*
X152499801Y-91526000D01*
X151050199Y-91526000D01*
X151002561Y-91535475D01*
X150967231Y-91559083D01*
X150965477Y-91559314D01*
X150964226Y-91558063D01*
X150964457Y-91556309D01*
X150993856Y-91512311D01*
X150993856Y-91437689D01*
X150964457Y-91393691D01*
X150964226Y-91391937D01*
X150965477Y-91390686D01*
X150967231Y-91390917D01*
G37*
G36*
X135617231Y-91390917D02*
G01*
X135652561Y-91414524D01*
X135700199Y-91424000D01*
X137149801Y-91424000D01*
X137197438Y-91414524D01*
X137232765Y-91390919D01*
X137234519Y-91390688D01*
X137235770Y-91391939D01*
X137235539Y-91393693D01*
X137206143Y-91437689D01*
X137206143Y-91512311D01*
X137235539Y-91556307D01*
X137235770Y-91558061D01*
X137234519Y-91559312D01*
X137232765Y-91559081D01*
X137197438Y-91535475D01*
X137149801Y-91526000D01*
X135700199Y-91526000D01*
X135652561Y-91535475D01*
X135617231Y-91559083D01*
X135615477Y-91559314D01*
X135614226Y-91558063D01*
X135614457Y-91556309D01*
X135643856Y-91512311D01*
X135643856Y-91437689D01*
X135614457Y-91393691D01*
X135614226Y-91391937D01*
X135615477Y-91390686D01*
X135617231Y-91390917D01*
G37*
G36*
X150967231Y-90890917D02*
G01*
X151002561Y-90914524D01*
X151050199Y-90924000D01*
X152499801Y-90924000D01*
X152547438Y-90914524D01*
X152582765Y-90890919D01*
X152584519Y-90890688D01*
X152585770Y-90891939D01*
X152585539Y-90893693D01*
X152556143Y-90937689D01*
X152556143Y-91012311D01*
X152585539Y-91056307D01*
X152585770Y-91058061D01*
X152584519Y-91059312D01*
X152582765Y-91059081D01*
X152547438Y-91035475D01*
X152499801Y-91026000D01*
X151050199Y-91026000D01*
X151002561Y-91035475D01*
X150967231Y-91059083D01*
X150965477Y-91059314D01*
X150964226Y-91058063D01*
X150964457Y-91056309D01*
X150993856Y-91012311D01*
X150993856Y-90937689D01*
X150964457Y-90893691D01*
X150964226Y-90891937D01*
X150965477Y-90890686D01*
X150967231Y-90890917D01*
G37*
G36*
X135617231Y-90890917D02*
G01*
X135652561Y-90914524D01*
X135700199Y-90924000D01*
X137149801Y-90924000D01*
X137197438Y-90914524D01*
X137232765Y-90890919D01*
X137234519Y-90890688D01*
X137235770Y-90891939D01*
X137235539Y-90893693D01*
X137206143Y-90937689D01*
X137206143Y-91012311D01*
X137235539Y-91056307D01*
X137235770Y-91058061D01*
X137234519Y-91059312D01*
X137232765Y-91059081D01*
X137197438Y-91035475D01*
X137149801Y-91026000D01*
X135700199Y-91026000D01*
X135652561Y-91035475D01*
X135617231Y-91059083D01*
X135615477Y-91059314D01*
X135614226Y-91058063D01*
X135614457Y-91056309D01*
X135643856Y-91012311D01*
X135643856Y-90937689D01*
X135614457Y-90893691D01*
X135614226Y-90891937D01*
X135615477Y-90890686D01*
X135617231Y-90890917D01*
G37*
G36*
X150967231Y-90390917D02*
G01*
X151002561Y-90414524D01*
X151050199Y-90424000D01*
X152499801Y-90424000D01*
X152547438Y-90414524D01*
X152582765Y-90390919D01*
X152584519Y-90390688D01*
X152585770Y-90391939D01*
X152585539Y-90393693D01*
X152556143Y-90437689D01*
X152556143Y-90512311D01*
X152585539Y-90556307D01*
X152585770Y-90558061D01*
X152584519Y-90559312D01*
X152582765Y-90559081D01*
X152547438Y-90535475D01*
X152499801Y-90526000D01*
X151050199Y-90526000D01*
X151002561Y-90535475D01*
X150967231Y-90559083D01*
X150965477Y-90559314D01*
X150964226Y-90558063D01*
X150964457Y-90556309D01*
X150993856Y-90512311D01*
X150993856Y-90437689D01*
X150964457Y-90393691D01*
X150964226Y-90391937D01*
X150965477Y-90390686D01*
X150967231Y-90390917D01*
G37*
G36*
X135617231Y-90390917D02*
G01*
X135652561Y-90414524D01*
X135700199Y-90424000D01*
X137149801Y-90424000D01*
X137197438Y-90414524D01*
X137232765Y-90390919D01*
X137234519Y-90390688D01*
X137235770Y-90391939D01*
X137235539Y-90393693D01*
X137206143Y-90437689D01*
X137206143Y-90512311D01*
X137235539Y-90556307D01*
X137235770Y-90558061D01*
X137234519Y-90559312D01*
X137232765Y-90559081D01*
X137197438Y-90535475D01*
X137149801Y-90526000D01*
X135700199Y-90526000D01*
X135652561Y-90535475D01*
X135617231Y-90559083D01*
X135615477Y-90559314D01*
X135614226Y-90558063D01*
X135614457Y-90556309D01*
X135643856Y-90512311D01*
X135643856Y-90437689D01*
X135614457Y-90393691D01*
X135614226Y-90391937D01*
X135615477Y-90390686D01*
X135617231Y-90390917D01*
G37*
G36*
X150967233Y-89890918D02*
G01*
X151002561Y-89914524D01*
X151050199Y-89924000D01*
X152499801Y-89924000D01*
X152547438Y-89914524D01*
X152582763Y-89890920D01*
X152584517Y-89890689D01*
X152585768Y-89891940D01*
X152585537Y-89893694D01*
X152556143Y-89937687D01*
X152556143Y-90012309D01*
X152585542Y-90056308D01*
X152585773Y-90058062D01*
X152584522Y-90059313D01*
X152582768Y-90059082D01*
X152547438Y-90035475D01*
X152499801Y-90026000D01*
X151050199Y-90026000D01*
X151002561Y-90035475D01*
X150967230Y-90059083D01*
X150965476Y-90059314D01*
X150964225Y-90058063D01*
X150964456Y-90056309D01*
X150993856Y-90012309D01*
X150993856Y-89937688D01*
X150964459Y-89893692D01*
X150964228Y-89891938D01*
X150965479Y-89890687D01*
X150967233Y-89890918D01*
G37*
G36*
X135617233Y-89890918D02*
G01*
X135652561Y-89914524D01*
X135700199Y-89924000D01*
X137149801Y-89924000D01*
X137197438Y-89914524D01*
X137232763Y-89890920D01*
X137234517Y-89890689D01*
X137235768Y-89891940D01*
X137235537Y-89893694D01*
X137206143Y-89937687D01*
X137206143Y-90012309D01*
X137235542Y-90056308D01*
X137235773Y-90058062D01*
X137234522Y-90059313D01*
X137232768Y-90059082D01*
X137197438Y-90035475D01*
X137149801Y-90026000D01*
X135700199Y-90026000D01*
X135652561Y-90035475D01*
X135617230Y-90059083D01*
X135615476Y-90059314D01*
X135614225Y-90058063D01*
X135614456Y-90056309D01*
X135643856Y-90012309D01*
X135643856Y-89937688D01*
X135614459Y-89893692D01*
X135614228Y-89891938D01*
X135615479Y-89890687D01*
X135617233Y-89890918D01*
G37*
G36*
X150967231Y-89390917D02*
G01*
X151002561Y-89414524D01*
X151050199Y-89424000D01*
X152499801Y-89424000D01*
X152547438Y-89414524D01*
X152582765Y-89390919D01*
X152584519Y-89390688D01*
X152585770Y-89391939D01*
X152585539Y-89393693D01*
X152556143Y-89437689D01*
X152556143Y-89512311D01*
X152585539Y-89556307D01*
X152585770Y-89558061D01*
X152584519Y-89559312D01*
X152582765Y-89559081D01*
X152547438Y-89535475D01*
X152499801Y-89526000D01*
X151050199Y-89526000D01*
X151002561Y-89535475D01*
X150967231Y-89559083D01*
X150965477Y-89559314D01*
X150964226Y-89558063D01*
X150964457Y-89556309D01*
X150993856Y-89512311D01*
X150993856Y-89437689D01*
X150964457Y-89393691D01*
X150964226Y-89391937D01*
X150965477Y-89390686D01*
X150967231Y-89390917D01*
G37*
G36*
X135617231Y-89390917D02*
G01*
X135652561Y-89414524D01*
X135700199Y-89424000D01*
X137149801Y-89424000D01*
X137197438Y-89414524D01*
X137232765Y-89390919D01*
X137234519Y-89390688D01*
X137235770Y-89391939D01*
X137235539Y-89393693D01*
X137206143Y-89437689D01*
X137206143Y-89512311D01*
X137235539Y-89556307D01*
X137235770Y-89558061D01*
X137234519Y-89559312D01*
X137232765Y-89559081D01*
X137197438Y-89535475D01*
X137149801Y-89526000D01*
X135700199Y-89526000D01*
X135652561Y-89535475D01*
X135617231Y-89559083D01*
X135615477Y-89559314D01*
X135614226Y-89558063D01*
X135614457Y-89556309D01*
X135643856Y-89512311D01*
X135643856Y-89437689D01*
X135614457Y-89393691D01*
X135614226Y-89391937D01*
X135615477Y-89390686D01*
X135617231Y-89390917D01*
G37*
G36*
X150967231Y-88890917D02*
G01*
X151002561Y-88914524D01*
X151050199Y-88924000D01*
X152499801Y-88924000D01*
X152547438Y-88914524D01*
X152582765Y-88890919D01*
X152584519Y-88890688D01*
X152585770Y-88891939D01*
X152585539Y-88893693D01*
X152556143Y-88937689D01*
X152556143Y-89012311D01*
X152585539Y-89056307D01*
X152585770Y-89058061D01*
X152584519Y-89059312D01*
X152582765Y-89059081D01*
X152547438Y-89035475D01*
X152499801Y-89026000D01*
X151050199Y-89026000D01*
X151002561Y-89035475D01*
X150967231Y-89059083D01*
X150965477Y-89059314D01*
X150964226Y-89058063D01*
X150964457Y-89056309D01*
X150993856Y-89012311D01*
X150993856Y-88937689D01*
X150964457Y-88893691D01*
X150964226Y-88891937D01*
X150965477Y-88890686D01*
X150967231Y-88890917D01*
G37*
G36*
X135617231Y-88890917D02*
G01*
X135652561Y-88914524D01*
X135700199Y-88924000D01*
X137149801Y-88924000D01*
X137197438Y-88914524D01*
X137232765Y-88890919D01*
X137234519Y-88890688D01*
X137235770Y-88891939D01*
X137235539Y-88893693D01*
X137206143Y-88937689D01*
X137206143Y-89012311D01*
X137235539Y-89056307D01*
X137235770Y-89058061D01*
X137234519Y-89059312D01*
X137232765Y-89059081D01*
X137197438Y-89035475D01*
X137149801Y-89026000D01*
X135700199Y-89026000D01*
X135652561Y-89035475D01*
X135617231Y-89059083D01*
X135615477Y-89059314D01*
X135614226Y-89058063D01*
X135614457Y-89056309D01*
X135643856Y-89012311D01*
X135643856Y-88937689D01*
X135614457Y-88893691D01*
X135614226Y-88891937D01*
X135615477Y-88890686D01*
X135617231Y-88890917D01*
G37*
G36*
X150967233Y-88390918D02*
G01*
X151002561Y-88414524D01*
X151050199Y-88424000D01*
X152499801Y-88424000D01*
X152547438Y-88414524D01*
X152582765Y-88390919D01*
X152584519Y-88390688D01*
X152585770Y-88391939D01*
X152585539Y-88393693D01*
X152556143Y-88437689D01*
X152556143Y-88512311D01*
X152585539Y-88556307D01*
X152585770Y-88558061D01*
X152584519Y-88559312D01*
X152582765Y-88559081D01*
X152547438Y-88535475D01*
X152499801Y-88526000D01*
X151050199Y-88526000D01*
X151002561Y-88535475D01*
X150967230Y-88559083D01*
X150965476Y-88559314D01*
X150964225Y-88558063D01*
X150964456Y-88556309D01*
X150993856Y-88512309D01*
X150993856Y-88437688D01*
X150964459Y-88393692D01*
X150964228Y-88391938D01*
X150965479Y-88390687D01*
X150967233Y-88390918D01*
G37*
G36*
X135617233Y-88390918D02*
G01*
X135652561Y-88414524D01*
X135700199Y-88424000D01*
X137149801Y-88424000D01*
X137197438Y-88414524D01*
X137232765Y-88390919D01*
X137234519Y-88390688D01*
X137235770Y-88391939D01*
X137235539Y-88393693D01*
X137206143Y-88437689D01*
X137206143Y-88512311D01*
X137235539Y-88556307D01*
X137235770Y-88558061D01*
X137234519Y-88559312D01*
X137232765Y-88559081D01*
X137197438Y-88535475D01*
X137149801Y-88526000D01*
X135700199Y-88526000D01*
X135652561Y-88535475D01*
X135617230Y-88559083D01*
X135615476Y-88559314D01*
X135614225Y-88558063D01*
X135614456Y-88556309D01*
X135643856Y-88512309D01*
X135643856Y-88437688D01*
X135614459Y-88393692D01*
X135614228Y-88391938D01*
X135615479Y-88390687D01*
X135617233Y-88390918D01*
G37*
G36*
X150967231Y-87890917D02*
G01*
X151002561Y-87914524D01*
X151050199Y-87924000D01*
X152499801Y-87924000D01*
X152547438Y-87914524D01*
X152582765Y-87890919D01*
X152584519Y-87890688D01*
X152585770Y-87891939D01*
X152585539Y-87893693D01*
X152556143Y-87937689D01*
X152556143Y-88012311D01*
X152585539Y-88056307D01*
X152585770Y-88058061D01*
X152584519Y-88059312D01*
X152582765Y-88059081D01*
X152547438Y-88035475D01*
X152499801Y-88026000D01*
X151050199Y-88026000D01*
X151002561Y-88035475D01*
X150967231Y-88059083D01*
X150965477Y-88059314D01*
X150964226Y-88058063D01*
X150964457Y-88056309D01*
X150993856Y-88012311D01*
X150993856Y-87937689D01*
X150964457Y-87893691D01*
X150964226Y-87891937D01*
X150965477Y-87890686D01*
X150967231Y-87890917D01*
G37*
G36*
X135617231Y-87890917D02*
G01*
X135652561Y-87914524D01*
X135700199Y-87924000D01*
X137149801Y-87924000D01*
X137197438Y-87914524D01*
X137232765Y-87890919D01*
X137234519Y-87890688D01*
X137235770Y-87891939D01*
X137235539Y-87893693D01*
X137206143Y-87937689D01*
X137206143Y-88012311D01*
X137235539Y-88056307D01*
X137235770Y-88058061D01*
X137234519Y-88059312D01*
X137232765Y-88059081D01*
X137197438Y-88035475D01*
X137149801Y-88026000D01*
X135700199Y-88026000D01*
X135652561Y-88035475D01*
X135617231Y-88059083D01*
X135615477Y-88059314D01*
X135614226Y-88058063D01*
X135614457Y-88056309D01*
X135643856Y-88012311D01*
X135643856Y-87937689D01*
X135614457Y-87893691D01*
X135614226Y-87891937D01*
X135615477Y-87890686D01*
X135617231Y-87890917D01*
G37*
G36*
X150967231Y-87390917D02*
G01*
X151002561Y-87414524D01*
X151050199Y-87424000D01*
X152499801Y-87424000D01*
X152547438Y-87414524D01*
X152582765Y-87390919D01*
X152584519Y-87390688D01*
X152585770Y-87391939D01*
X152585539Y-87393693D01*
X152556143Y-87437689D01*
X152556143Y-87512311D01*
X152585539Y-87556307D01*
X152585770Y-87558061D01*
X152584519Y-87559312D01*
X152582765Y-87559081D01*
X152547438Y-87535475D01*
X152499801Y-87526000D01*
X151050199Y-87526000D01*
X151002561Y-87535475D01*
X150967231Y-87559083D01*
X150965477Y-87559314D01*
X150964226Y-87558063D01*
X150964457Y-87556309D01*
X150993856Y-87512311D01*
X150993856Y-87437689D01*
X150964457Y-87393691D01*
X150964226Y-87391937D01*
X150965477Y-87390686D01*
X150967231Y-87390917D01*
G37*
G36*
X135617231Y-87390917D02*
G01*
X135652561Y-87414524D01*
X135700199Y-87424000D01*
X137149801Y-87424000D01*
X137197438Y-87414524D01*
X137232765Y-87390919D01*
X137234519Y-87390688D01*
X137235770Y-87391939D01*
X137235539Y-87393693D01*
X137206143Y-87437689D01*
X137206143Y-87512311D01*
X137235539Y-87556307D01*
X137235770Y-87558061D01*
X137234519Y-87559312D01*
X137232765Y-87559081D01*
X137197438Y-87535475D01*
X137149801Y-87526000D01*
X135700199Y-87526000D01*
X135652561Y-87535475D01*
X135617231Y-87559083D01*
X135615477Y-87559314D01*
X135614226Y-87558063D01*
X135614457Y-87556309D01*
X135643856Y-87512311D01*
X135643856Y-87437689D01*
X135614457Y-87393691D01*
X135614226Y-87391937D01*
X135615477Y-87390686D01*
X135617231Y-87390917D01*
G37*
G36*
X150967233Y-86890918D02*
G01*
X151002561Y-86914524D01*
X151050199Y-86924000D01*
X152499801Y-86924000D01*
X152547438Y-86914524D01*
X152582763Y-86890920D01*
X152584517Y-86890689D01*
X152585768Y-86891940D01*
X152585537Y-86893694D01*
X152556143Y-86937687D01*
X152556143Y-87012309D01*
X152585542Y-87056308D01*
X152585773Y-87058062D01*
X152584522Y-87059313D01*
X152582768Y-87059082D01*
X152547438Y-87035475D01*
X152499801Y-87026000D01*
X151050199Y-87026000D01*
X151002561Y-87035475D01*
X150967230Y-87059083D01*
X150965476Y-87059314D01*
X150964225Y-87058063D01*
X150964456Y-87056309D01*
X150993856Y-87012309D01*
X150993856Y-86937688D01*
X150964459Y-86893692D01*
X150964228Y-86891938D01*
X150965479Y-86890687D01*
X150967233Y-86890918D01*
G37*
G36*
X135617233Y-86890918D02*
G01*
X135652561Y-86914524D01*
X135700199Y-86924000D01*
X137149801Y-86924000D01*
X137197438Y-86914524D01*
X137232763Y-86890920D01*
X137234517Y-86890689D01*
X137235768Y-86891940D01*
X137235537Y-86893694D01*
X137206143Y-86937687D01*
X137206143Y-87012309D01*
X137235542Y-87056308D01*
X137235773Y-87058062D01*
X137234522Y-87059313D01*
X137232768Y-87059082D01*
X137197438Y-87035475D01*
X137149801Y-87026000D01*
X135700199Y-87026000D01*
X135652561Y-87035475D01*
X135617230Y-87059083D01*
X135615476Y-87059314D01*
X135614225Y-87058063D01*
X135614456Y-87056309D01*
X135643856Y-87012309D01*
X135643856Y-86937688D01*
X135614459Y-86893692D01*
X135614228Y-86891938D01*
X135615479Y-86890687D01*
X135617233Y-86890918D01*
G37*
G36*
X150967231Y-86390917D02*
G01*
X151002561Y-86414524D01*
X151050199Y-86424000D01*
X152499801Y-86424000D01*
X152547438Y-86414524D01*
X152582765Y-86390919D01*
X152584519Y-86390688D01*
X152585770Y-86391939D01*
X152585539Y-86393693D01*
X152556143Y-86437689D01*
X152556143Y-86512311D01*
X152585539Y-86556307D01*
X152585770Y-86558061D01*
X152584519Y-86559312D01*
X152582765Y-86559081D01*
X152547438Y-86535475D01*
X152499801Y-86526000D01*
X151050199Y-86526000D01*
X151002561Y-86535475D01*
X150967231Y-86559083D01*
X150965477Y-86559314D01*
X150964226Y-86558063D01*
X150964457Y-86556309D01*
X150993856Y-86512311D01*
X150993856Y-86437689D01*
X150964457Y-86393691D01*
X150964226Y-86391937D01*
X150965477Y-86390686D01*
X150967231Y-86390917D01*
G37*
G36*
X135617231Y-86390917D02*
G01*
X135652561Y-86414524D01*
X135700199Y-86424000D01*
X137149801Y-86424000D01*
X137197438Y-86414524D01*
X137232765Y-86390919D01*
X137234519Y-86390688D01*
X137235770Y-86391939D01*
X137235539Y-86393693D01*
X137206143Y-86437689D01*
X137206143Y-86512311D01*
X137235539Y-86556307D01*
X137235770Y-86558061D01*
X137234519Y-86559312D01*
X137232765Y-86559081D01*
X137197438Y-86535475D01*
X137149801Y-86526000D01*
X135700199Y-86526000D01*
X135652561Y-86535475D01*
X135617231Y-86559083D01*
X135615477Y-86559314D01*
X135614226Y-86558063D01*
X135614457Y-86556309D01*
X135643856Y-86512311D01*
X135643856Y-86437689D01*
X135614457Y-86393691D01*
X135614226Y-86391937D01*
X135615477Y-86390686D01*
X135617231Y-86390917D01*
G37*
G36*
X150967231Y-85890917D02*
G01*
X151002561Y-85914524D01*
X151050199Y-85924000D01*
X152499801Y-85924000D01*
X152547438Y-85914524D01*
X152582765Y-85890919D01*
X152584519Y-85890688D01*
X152585770Y-85891939D01*
X152585539Y-85893693D01*
X152556143Y-85937689D01*
X152556143Y-86012311D01*
X152585539Y-86056307D01*
X152585770Y-86058061D01*
X152584519Y-86059312D01*
X152582765Y-86059081D01*
X152547438Y-86035475D01*
X152499801Y-86026000D01*
X151050199Y-86026000D01*
X151002561Y-86035475D01*
X150967231Y-86059083D01*
X150965477Y-86059314D01*
X150964226Y-86058063D01*
X150964457Y-86056309D01*
X150993856Y-86012311D01*
X150993856Y-85937689D01*
X150964457Y-85893691D01*
X150964226Y-85891937D01*
X150965477Y-85890686D01*
X150967231Y-85890917D01*
G37*
G36*
X135617231Y-85890917D02*
G01*
X135652561Y-85914524D01*
X135700199Y-85924000D01*
X137149801Y-85924000D01*
X137197438Y-85914524D01*
X137232765Y-85890919D01*
X137234519Y-85890688D01*
X137235770Y-85891939D01*
X137235539Y-85893693D01*
X137206143Y-85937689D01*
X137206143Y-86012311D01*
X137235539Y-86056307D01*
X137235770Y-86058061D01*
X137234519Y-86059312D01*
X137232765Y-86059081D01*
X137197438Y-86035475D01*
X137149801Y-86026000D01*
X135700199Y-86026000D01*
X135652561Y-86035475D01*
X135617231Y-86059083D01*
X135615477Y-86059314D01*
X135614226Y-86058063D01*
X135614457Y-86056309D01*
X135643856Y-86012311D01*
X135643856Y-85937689D01*
X135614457Y-85893691D01*
X135614226Y-85891937D01*
X135615477Y-85890686D01*
X135617231Y-85890917D01*
G37*
G36*
X150967233Y-85390918D02*
G01*
X151002561Y-85414524D01*
X151050199Y-85424000D01*
X152499801Y-85424000D01*
X152547438Y-85414524D01*
X152582763Y-85390920D01*
X152584517Y-85390689D01*
X152585768Y-85391940D01*
X152585537Y-85393694D01*
X152556143Y-85437687D01*
X152556143Y-85512309D01*
X152585542Y-85556308D01*
X152585773Y-85558062D01*
X152584522Y-85559313D01*
X152582768Y-85559082D01*
X152547438Y-85535475D01*
X152499801Y-85526000D01*
X151050199Y-85526000D01*
X151002561Y-85535475D01*
X150967230Y-85559083D01*
X150965476Y-85559314D01*
X150964225Y-85558063D01*
X150964456Y-85556309D01*
X150993856Y-85512309D01*
X150993856Y-85437688D01*
X150964459Y-85393692D01*
X150964228Y-85391938D01*
X150965479Y-85390687D01*
X150967233Y-85390918D01*
G37*
G36*
X135617233Y-85390918D02*
G01*
X135652561Y-85414524D01*
X135700199Y-85424000D01*
X137149801Y-85424000D01*
X137197438Y-85414524D01*
X137232763Y-85390920D01*
X137234517Y-85390689D01*
X137235768Y-85391940D01*
X137235537Y-85393694D01*
X137206143Y-85437687D01*
X137206143Y-85512309D01*
X137235542Y-85556308D01*
X137235773Y-85558062D01*
X137234522Y-85559313D01*
X137232768Y-85559082D01*
X137197438Y-85535475D01*
X137149801Y-85526000D01*
X135700199Y-85526000D01*
X135652561Y-85535475D01*
X135617230Y-85559083D01*
X135615476Y-85559314D01*
X135614225Y-85558063D01*
X135614456Y-85556309D01*
X135643856Y-85512309D01*
X135643856Y-85437688D01*
X135614459Y-85393692D01*
X135614228Y-85391938D01*
X135615479Y-85390687D01*
X135617233Y-85390918D01*
G37*
G36*
X150967233Y-84890918D02*
G01*
X151002561Y-84914524D01*
X151050199Y-84924000D01*
X152499801Y-84924000D01*
X152547438Y-84914524D01*
X152582763Y-84890920D01*
X152584517Y-84890689D01*
X152585768Y-84891940D01*
X152585537Y-84893694D01*
X152556143Y-84937687D01*
X152556143Y-85012309D01*
X152585542Y-85056308D01*
X152585773Y-85058062D01*
X152584522Y-85059313D01*
X152582768Y-85059082D01*
X152547438Y-85035475D01*
X152499801Y-85026000D01*
X151050199Y-85026000D01*
X151002561Y-85035475D01*
X150967230Y-85059083D01*
X150965476Y-85059314D01*
X150964225Y-85058063D01*
X150964456Y-85056309D01*
X150993856Y-85012309D01*
X150993856Y-84937688D01*
X150964459Y-84893692D01*
X150964228Y-84891938D01*
X150965479Y-84890687D01*
X150967233Y-84890918D01*
G37*
G36*
X135617233Y-84890918D02*
G01*
X135652561Y-84914524D01*
X135700199Y-84924000D01*
X137149801Y-84924000D01*
X137197438Y-84914524D01*
X137232763Y-84890920D01*
X137234517Y-84890689D01*
X137235768Y-84891940D01*
X137235537Y-84893694D01*
X137206143Y-84937687D01*
X137206143Y-85012309D01*
X137235542Y-85056308D01*
X137235773Y-85058062D01*
X137234522Y-85059313D01*
X137232768Y-85059082D01*
X137197438Y-85035475D01*
X137149801Y-85026000D01*
X135700199Y-85026000D01*
X135652561Y-85035475D01*
X135617230Y-85059083D01*
X135615476Y-85059314D01*
X135614225Y-85058063D01*
X135614456Y-85056309D01*
X135643856Y-85012309D01*
X135643856Y-84937688D01*
X135614459Y-84893692D01*
X135614228Y-84891938D01*
X135615479Y-84890687D01*
X135617233Y-84890918D01*
G37*
G36*
X150967231Y-84390917D02*
G01*
X151002561Y-84414524D01*
X151050199Y-84424000D01*
X152499801Y-84424000D01*
X152547438Y-84414524D01*
X152582765Y-84390919D01*
X152584519Y-84390688D01*
X152585770Y-84391939D01*
X152585539Y-84393693D01*
X152556143Y-84437689D01*
X152556143Y-84512311D01*
X152585539Y-84556307D01*
X152585770Y-84558061D01*
X152584519Y-84559312D01*
X152582765Y-84559081D01*
X152547438Y-84535475D01*
X152499801Y-84526000D01*
X151050199Y-84526000D01*
X151002561Y-84535475D01*
X150967231Y-84559083D01*
X150965477Y-84559314D01*
X150964226Y-84558063D01*
X150964457Y-84556309D01*
X150993856Y-84512311D01*
X150993856Y-84437689D01*
X150964457Y-84393691D01*
X150964226Y-84391937D01*
X150965477Y-84390686D01*
X150967231Y-84390917D01*
G37*
G36*
X135617231Y-84390917D02*
G01*
X135652561Y-84414524D01*
X135700199Y-84424000D01*
X137149801Y-84424000D01*
X137197438Y-84414524D01*
X137232765Y-84390919D01*
X137234519Y-84390688D01*
X137235770Y-84391939D01*
X137235539Y-84393693D01*
X137206143Y-84437689D01*
X137206143Y-84512311D01*
X137235539Y-84556307D01*
X137235770Y-84558061D01*
X137234519Y-84559312D01*
X137232765Y-84559081D01*
X137197438Y-84535475D01*
X137149801Y-84526000D01*
X135700199Y-84526000D01*
X135652561Y-84535475D01*
X135617231Y-84559083D01*
X135615477Y-84559314D01*
X135614226Y-84558063D01*
X135614457Y-84556309D01*
X135643856Y-84512311D01*
X135643856Y-84437689D01*
X135614457Y-84393691D01*
X135614226Y-84391937D01*
X135615477Y-84390686D01*
X135617231Y-84390917D01*
G37*
G36*
X150967231Y-83890917D02*
G01*
X151002561Y-83914524D01*
X151050199Y-83924000D01*
X152499801Y-83924000D01*
X152547438Y-83914524D01*
X152582765Y-83890919D01*
X152584519Y-83890688D01*
X152585770Y-83891939D01*
X152585539Y-83893693D01*
X152556143Y-83937689D01*
X152556143Y-84012311D01*
X152585539Y-84056307D01*
X152585770Y-84058061D01*
X152584519Y-84059312D01*
X152582765Y-84059081D01*
X152547438Y-84035475D01*
X152499801Y-84026000D01*
X151050199Y-84026000D01*
X151002561Y-84035475D01*
X150967231Y-84059083D01*
X150965477Y-84059314D01*
X150964226Y-84058063D01*
X150964457Y-84056309D01*
X150993856Y-84012311D01*
X150993856Y-83937689D01*
X150964457Y-83893691D01*
X150964226Y-83891937D01*
X150965477Y-83890686D01*
X150967231Y-83890917D01*
G37*
G36*
X135617231Y-83890917D02*
G01*
X135652561Y-83914524D01*
X135700199Y-83924000D01*
X137149801Y-83924000D01*
X137197438Y-83914524D01*
X137232765Y-83890919D01*
X137234519Y-83890688D01*
X137235770Y-83891939D01*
X137235539Y-83893693D01*
X137206143Y-83937689D01*
X137206143Y-84012311D01*
X137235539Y-84056307D01*
X137235770Y-84058061D01*
X137234519Y-84059312D01*
X137232765Y-84059081D01*
X137197438Y-84035475D01*
X137149801Y-84026000D01*
X135700199Y-84026000D01*
X135652561Y-84035475D01*
X135617231Y-84059083D01*
X135615477Y-84059314D01*
X135614226Y-84058063D01*
X135614457Y-84056309D01*
X135643856Y-84012311D01*
X135643856Y-83937689D01*
X135614457Y-83893691D01*
X135614226Y-83891937D01*
X135615477Y-83890686D01*
X135617231Y-83890917D01*
G37*
G36*
X150967231Y-83390917D02*
G01*
X151002561Y-83414524D01*
X151050199Y-83424000D01*
X152499801Y-83424000D01*
X152547438Y-83414524D01*
X152582765Y-83390919D01*
X152584519Y-83390688D01*
X152585770Y-83391939D01*
X152585539Y-83393693D01*
X152556143Y-83437689D01*
X152556143Y-83512311D01*
X152585539Y-83556307D01*
X152585770Y-83558061D01*
X152584519Y-83559312D01*
X152582765Y-83559081D01*
X152547438Y-83535475D01*
X152499801Y-83526000D01*
X151050199Y-83526000D01*
X151002561Y-83535475D01*
X150967231Y-83559083D01*
X150965477Y-83559314D01*
X150964226Y-83558063D01*
X150964457Y-83556309D01*
X150993856Y-83512311D01*
X150993856Y-83437689D01*
X150964457Y-83393691D01*
X150964226Y-83391937D01*
X150965477Y-83390686D01*
X150967231Y-83390917D01*
G37*
G36*
X135617231Y-83390917D02*
G01*
X135652561Y-83414524D01*
X135700199Y-83424000D01*
X137149801Y-83424000D01*
X137197438Y-83414524D01*
X137232765Y-83390919D01*
X137234519Y-83390688D01*
X137235770Y-83391939D01*
X137235539Y-83393693D01*
X137206143Y-83437689D01*
X137206143Y-83512311D01*
X137235539Y-83556307D01*
X137235770Y-83558061D01*
X137234519Y-83559312D01*
X137232765Y-83559081D01*
X137197438Y-83535475D01*
X137149801Y-83526000D01*
X135700199Y-83526000D01*
X135652561Y-83535475D01*
X135617231Y-83559083D01*
X135615477Y-83559314D01*
X135614226Y-83558063D01*
X135614457Y-83556309D01*
X135643856Y-83512311D01*
X135643856Y-83437689D01*
X135614457Y-83393691D01*
X135614226Y-83391937D01*
X135615477Y-83390686D01*
X135617231Y-83390917D01*
G37*
G36*
X149934314Y-80740477D02*
G01*
X149934083Y-80742231D01*
X149910475Y-80777561D01*
X149901000Y-80825199D01*
X149901000Y-82274801D01*
X149910475Y-82322438D01*
X149934081Y-82357765D01*
X149934312Y-82359519D01*
X149933061Y-82360770D01*
X149931307Y-82360539D01*
X149887311Y-82331143D01*
X149812689Y-82331143D01*
X149768693Y-82360539D01*
X149766939Y-82360770D01*
X149765688Y-82359519D01*
X149765919Y-82357765D01*
X149789524Y-82322438D01*
X149799000Y-82274801D01*
X149799000Y-80825199D01*
X149789524Y-80777561D01*
X149765917Y-80742231D01*
X149765686Y-80740477D01*
X149766937Y-80739226D01*
X149768691Y-80739457D01*
X149812689Y-80768856D01*
X149887311Y-80768856D01*
X149931309Y-80739457D01*
X149933063Y-80739226D01*
X149934314Y-80740477D01*
G37*
G36*
X149434314Y-80740477D02*
G01*
X149434083Y-80742231D01*
X149410475Y-80777561D01*
X149401000Y-80825199D01*
X149401000Y-82274801D01*
X149410475Y-82322438D01*
X149434081Y-82357765D01*
X149434312Y-82359519D01*
X149433061Y-82360770D01*
X149431307Y-82360539D01*
X149387311Y-82331143D01*
X149312689Y-82331143D01*
X149268693Y-82360539D01*
X149266939Y-82360770D01*
X149265688Y-82359519D01*
X149265919Y-82357765D01*
X149289524Y-82322438D01*
X149299000Y-82274801D01*
X149299000Y-80825199D01*
X149289524Y-80777561D01*
X149265917Y-80742231D01*
X149265686Y-80740477D01*
X149266937Y-80739226D01*
X149268691Y-80739457D01*
X149312689Y-80768856D01*
X149387311Y-80768856D01*
X149431309Y-80739457D01*
X149433063Y-80739226D01*
X149434314Y-80740477D01*
G37*
G36*
X148934314Y-80740477D02*
G01*
X148934083Y-80742231D01*
X148910475Y-80777561D01*
X148901000Y-80825199D01*
X148901000Y-82274801D01*
X148910475Y-82322438D01*
X148934081Y-82357765D01*
X148934312Y-82359519D01*
X148933061Y-82360770D01*
X148931307Y-82360539D01*
X148887311Y-82331143D01*
X148812689Y-82331143D01*
X148768693Y-82360539D01*
X148766939Y-82360770D01*
X148765688Y-82359519D01*
X148765919Y-82357765D01*
X148789524Y-82322438D01*
X148799000Y-82274801D01*
X148799000Y-80825199D01*
X148789524Y-80777561D01*
X148765917Y-80742231D01*
X148765686Y-80740477D01*
X148766937Y-80739226D01*
X148768691Y-80739457D01*
X148812689Y-80768856D01*
X148887311Y-80768856D01*
X148931309Y-80739457D01*
X148933063Y-80739226D01*
X148934314Y-80740477D01*
G37*
G36*
X148434314Y-80740477D02*
G01*
X148434083Y-80742231D01*
X148410475Y-80777561D01*
X148401000Y-80825199D01*
X148401000Y-82274801D01*
X148410475Y-82322438D01*
X148434081Y-82357765D01*
X148434312Y-82359519D01*
X148433061Y-82360770D01*
X148431307Y-82360539D01*
X148387311Y-82331143D01*
X148312689Y-82331143D01*
X148268693Y-82360539D01*
X148266939Y-82360770D01*
X148265688Y-82359519D01*
X148265919Y-82357765D01*
X148289524Y-82322438D01*
X148299000Y-82274801D01*
X148299000Y-80825199D01*
X148289524Y-80777561D01*
X148265917Y-80742231D01*
X148265686Y-80740477D01*
X148266937Y-80739226D01*
X148268691Y-80739457D01*
X148312689Y-80768856D01*
X148387311Y-80768856D01*
X148431309Y-80739457D01*
X148433063Y-80739226D01*
X148434314Y-80740477D01*
G37*
G36*
X147934314Y-80740477D02*
G01*
X147934083Y-80742231D01*
X147910475Y-80777561D01*
X147901000Y-80825199D01*
X147901000Y-82274801D01*
X147910475Y-82322438D01*
X147934081Y-82357765D01*
X147934312Y-82359519D01*
X147933061Y-82360770D01*
X147931307Y-82360539D01*
X147887311Y-82331143D01*
X147812689Y-82331143D01*
X147768693Y-82360539D01*
X147766939Y-82360770D01*
X147765688Y-82359519D01*
X147765919Y-82357765D01*
X147789524Y-82322438D01*
X147799000Y-82274801D01*
X147799000Y-80825199D01*
X147789524Y-80777561D01*
X147765917Y-80742231D01*
X147765686Y-80740477D01*
X147766937Y-80739226D01*
X147768691Y-80739457D01*
X147812689Y-80768856D01*
X147887311Y-80768856D01*
X147931309Y-80739457D01*
X147933063Y-80739226D01*
X147934314Y-80740477D01*
G37*
G36*
X147434314Y-80740477D02*
G01*
X147434083Y-80742231D01*
X147410475Y-80777561D01*
X147401000Y-80825199D01*
X147401000Y-82274801D01*
X147410475Y-82322438D01*
X147434081Y-82357765D01*
X147434312Y-82359519D01*
X147433061Y-82360770D01*
X147431307Y-82360539D01*
X147387311Y-82331143D01*
X147312689Y-82331143D01*
X147268693Y-82360539D01*
X147266939Y-82360770D01*
X147265688Y-82359519D01*
X147265919Y-82357765D01*
X147289524Y-82322438D01*
X147299000Y-82274801D01*
X147299000Y-80825199D01*
X147289524Y-80777561D01*
X147265917Y-80742231D01*
X147265686Y-80740477D01*
X147266937Y-80739226D01*
X147268691Y-80739457D01*
X147312689Y-80768856D01*
X147387311Y-80768856D01*
X147431309Y-80739457D01*
X147433063Y-80739226D01*
X147434314Y-80740477D01*
G37*
G36*
X146934314Y-80740477D02*
G01*
X146934083Y-80742231D01*
X146910475Y-80777561D01*
X146901000Y-80825199D01*
X146901000Y-82274801D01*
X146910475Y-82322438D01*
X146934081Y-82357765D01*
X146934312Y-82359519D01*
X146933061Y-82360770D01*
X146931307Y-82360539D01*
X146887311Y-82331143D01*
X146812689Y-82331143D01*
X146768693Y-82360539D01*
X146766939Y-82360770D01*
X146765688Y-82359519D01*
X146765919Y-82357765D01*
X146789524Y-82322438D01*
X146799000Y-82274801D01*
X146799000Y-80825199D01*
X146789524Y-80777561D01*
X146765917Y-80742231D01*
X146765686Y-80740477D01*
X146766937Y-80739226D01*
X146768691Y-80739457D01*
X146812689Y-80768856D01*
X146887311Y-80768856D01*
X146931309Y-80739457D01*
X146933063Y-80739226D01*
X146934314Y-80740477D01*
G37*
G36*
X146434314Y-80740477D02*
G01*
X146434083Y-80742231D01*
X146410475Y-80777561D01*
X146401000Y-80825199D01*
X146401000Y-82274801D01*
X146410475Y-82322438D01*
X146434081Y-82357765D01*
X146434312Y-82359519D01*
X146433061Y-82360770D01*
X146431307Y-82360539D01*
X146387311Y-82331143D01*
X146312689Y-82331143D01*
X146268693Y-82360539D01*
X146266939Y-82360770D01*
X146265688Y-82359519D01*
X146265919Y-82357765D01*
X146289524Y-82322438D01*
X146299000Y-82274801D01*
X146299000Y-80825199D01*
X146289524Y-80777561D01*
X146265917Y-80742231D01*
X146265686Y-80740477D01*
X146266937Y-80739226D01*
X146268691Y-80739457D01*
X146312689Y-80768856D01*
X146387311Y-80768856D01*
X146431309Y-80739457D01*
X146433063Y-80739226D01*
X146434314Y-80740477D01*
G37*
G36*
X145934314Y-80740477D02*
G01*
X145934083Y-80742231D01*
X145910475Y-80777561D01*
X145901000Y-80825199D01*
X145901000Y-82274801D01*
X145910475Y-82322438D01*
X145934081Y-82357765D01*
X145934312Y-82359519D01*
X145933061Y-82360770D01*
X145931307Y-82360539D01*
X145887311Y-82331143D01*
X145812689Y-82331143D01*
X145768693Y-82360539D01*
X145766939Y-82360770D01*
X145765688Y-82359519D01*
X145765919Y-82357765D01*
X145789524Y-82322438D01*
X145799000Y-82274801D01*
X145799000Y-80825199D01*
X145789524Y-80777561D01*
X145765917Y-80742231D01*
X145765686Y-80740477D01*
X145766937Y-80739226D01*
X145768691Y-80739457D01*
X145812689Y-80768856D01*
X145887311Y-80768856D01*
X145931309Y-80739457D01*
X145933063Y-80739226D01*
X145934314Y-80740477D01*
G37*
G36*
X145434314Y-80740477D02*
G01*
X145434083Y-80742231D01*
X145410475Y-80777561D01*
X145401000Y-80825199D01*
X145401000Y-82274801D01*
X145410475Y-82322438D01*
X145434081Y-82357765D01*
X145434312Y-82359519D01*
X145433061Y-82360770D01*
X145431307Y-82360539D01*
X145387311Y-82331143D01*
X145312689Y-82331143D01*
X145268693Y-82360539D01*
X145266939Y-82360770D01*
X145265688Y-82359519D01*
X145265919Y-82357765D01*
X145289524Y-82322438D01*
X145299000Y-82274801D01*
X145299000Y-80825199D01*
X145289524Y-80777561D01*
X145265917Y-80742231D01*
X145265686Y-80740477D01*
X145266937Y-80739226D01*
X145268691Y-80739457D01*
X145312689Y-80768856D01*
X145387311Y-80768856D01*
X145431309Y-80739457D01*
X145433063Y-80739226D01*
X145434314Y-80740477D01*
G37*
G36*
X144934314Y-80740477D02*
G01*
X144934083Y-80742231D01*
X144910475Y-80777561D01*
X144901000Y-80825199D01*
X144901000Y-82274801D01*
X144910475Y-82322438D01*
X144934081Y-82357765D01*
X144934312Y-82359519D01*
X144933061Y-82360770D01*
X144931307Y-82360539D01*
X144887311Y-82331143D01*
X144812689Y-82331143D01*
X144768693Y-82360539D01*
X144766939Y-82360770D01*
X144765688Y-82359519D01*
X144765919Y-82357765D01*
X144789524Y-82322438D01*
X144799000Y-82274801D01*
X144799000Y-80825199D01*
X144789524Y-80777561D01*
X144765917Y-80742231D01*
X144765686Y-80740477D01*
X144766937Y-80739226D01*
X144768691Y-80739457D01*
X144812689Y-80768856D01*
X144887311Y-80768856D01*
X144931309Y-80739457D01*
X144933063Y-80739226D01*
X144934314Y-80740477D01*
G37*
G36*
X144434314Y-80740477D02*
G01*
X144434083Y-80742231D01*
X144410475Y-80777561D01*
X144401000Y-80825199D01*
X144401000Y-82274801D01*
X144410475Y-82322438D01*
X144434081Y-82357765D01*
X144434312Y-82359519D01*
X144433061Y-82360770D01*
X144431307Y-82360539D01*
X144387311Y-82331143D01*
X144312689Y-82331143D01*
X144268693Y-82360539D01*
X144266939Y-82360770D01*
X144265688Y-82359519D01*
X144265919Y-82357765D01*
X144289524Y-82322438D01*
X144299000Y-82274801D01*
X144299000Y-80825199D01*
X144289524Y-80777561D01*
X144265917Y-80742231D01*
X144265686Y-80740477D01*
X144266937Y-80739226D01*
X144268691Y-80739457D01*
X144312689Y-80768856D01*
X144387311Y-80768856D01*
X144431309Y-80739457D01*
X144433063Y-80739226D01*
X144434314Y-80740477D01*
G37*
G36*
X143934314Y-80740477D02*
G01*
X143934083Y-80742231D01*
X143910475Y-80777561D01*
X143901000Y-80825199D01*
X143901000Y-82274801D01*
X143910475Y-82322438D01*
X143934081Y-82357765D01*
X143934312Y-82359519D01*
X143933061Y-82360770D01*
X143931307Y-82360539D01*
X143887311Y-82331143D01*
X143812689Y-82331143D01*
X143768693Y-82360539D01*
X143766939Y-82360770D01*
X143765688Y-82359519D01*
X143765919Y-82357765D01*
X143789524Y-82322438D01*
X143799000Y-82274801D01*
X143799000Y-80825199D01*
X143789524Y-80777561D01*
X143765917Y-80742231D01*
X143765686Y-80740477D01*
X143766937Y-80739226D01*
X143768691Y-80739457D01*
X143812689Y-80768856D01*
X143887311Y-80768856D01*
X143931309Y-80739457D01*
X143933063Y-80739226D01*
X143934314Y-80740477D01*
G37*
G36*
X143434314Y-80740477D02*
G01*
X143434083Y-80742231D01*
X143410475Y-80777561D01*
X143401000Y-80825199D01*
X143401000Y-82274801D01*
X143410475Y-82322438D01*
X143434081Y-82357765D01*
X143434312Y-82359519D01*
X143433061Y-82360770D01*
X143431307Y-82360539D01*
X143387311Y-82331143D01*
X143312689Y-82331143D01*
X143268693Y-82360539D01*
X143266939Y-82360770D01*
X143265688Y-82359519D01*
X143265919Y-82357765D01*
X143289524Y-82322438D01*
X143299000Y-82274801D01*
X143299000Y-80825199D01*
X143289524Y-80777561D01*
X143265917Y-80742231D01*
X143265686Y-80740477D01*
X143266937Y-80739226D01*
X143268691Y-80739457D01*
X143312689Y-80768856D01*
X143387311Y-80768856D01*
X143431309Y-80739457D01*
X143433063Y-80739226D01*
X143434314Y-80740477D01*
G37*
G36*
X142934314Y-80740477D02*
G01*
X142934083Y-80742231D01*
X142910475Y-80777561D01*
X142901000Y-80825199D01*
X142901000Y-82274801D01*
X142910475Y-82322438D01*
X142934081Y-82357765D01*
X142934312Y-82359519D01*
X142933061Y-82360770D01*
X142931307Y-82360539D01*
X142887311Y-82331143D01*
X142812689Y-82331143D01*
X142768693Y-82360539D01*
X142766939Y-82360770D01*
X142765688Y-82359519D01*
X142765919Y-82357765D01*
X142789524Y-82322438D01*
X142799000Y-82274801D01*
X142799000Y-80825199D01*
X142789524Y-80777561D01*
X142765917Y-80742231D01*
X142765686Y-80740477D01*
X142766937Y-80739226D01*
X142768691Y-80739457D01*
X142812689Y-80768856D01*
X142887311Y-80768856D01*
X142931309Y-80739457D01*
X142933063Y-80739226D01*
X142934314Y-80740477D01*
G37*
G36*
X142434314Y-80740477D02*
G01*
X142434083Y-80742231D01*
X142410475Y-80777561D01*
X142401000Y-80825199D01*
X142401000Y-82274801D01*
X142410475Y-82322438D01*
X142434081Y-82357765D01*
X142434312Y-82359519D01*
X142433061Y-82360770D01*
X142431307Y-82360539D01*
X142387311Y-82331143D01*
X142312689Y-82331143D01*
X142268693Y-82360539D01*
X142266939Y-82360770D01*
X142265688Y-82359519D01*
X142265919Y-82357765D01*
X142289524Y-82322438D01*
X142299000Y-82274801D01*
X142299000Y-80825199D01*
X142289524Y-80777561D01*
X142265917Y-80742231D01*
X142265686Y-80740477D01*
X142266937Y-80739226D01*
X142268691Y-80739457D01*
X142312689Y-80768856D01*
X142387311Y-80768856D01*
X142431309Y-80739457D01*
X142433063Y-80739226D01*
X142434314Y-80740477D01*
G37*
G36*
X141934314Y-80740477D02*
G01*
X141934083Y-80742231D01*
X141910475Y-80777561D01*
X141901000Y-80825199D01*
X141901000Y-82274801D01*
X141910475Y-82322438D01*
X141934081Y-82357765D01*
X141934312Y-82359519D01*
X141933061Y-82360770D01*
X141931307Y-82360539D01*
X141887311Y-82331143D01*
X141812689Y-82331143D01*
X141768693Y-82360539D01*
X141766939Y-82360770D01*
X141765688Y-82359519D01*
X141765919Y-82357765D01*
X141789524Y-82322438D01*
X141799000Y-82274801D01*
X141799000Y-80825199D01*
X141789524Y-80777561D01*
X141765917Y-80742231D01*
X141765686Y-80740477D01*
X141766937Y-80739226D01*
X141768691Y-80739457D01*
X141812689Y-80768856D01*
X141887311Y-80768856D01*
X141931309Y-80739457D01*
X141933063Y-80739226D01*
X141934314Y-80740477D01*
G37*
G36*
X141434314Y-80740477D02*
G01*
X141434083Y-80742231D01*
X141410475Y-80777561D01*
X141401000Y-80825199D01*
X141401000Y-82274801D01*
X141410475Y-82322438D01*
X141434081Y-82357765D01*
X141434312Y-82359519D01*
X141433061Y-82360770D01*
X141431307Y-82360539D01*
X141387311Y-82331143D01*
X141312689Y-82331143D01*
X141268693Y-82360539D01*
X141266939Y-82360770D01*
X141265688Y-82359519D01*
X141265919Y-82357765D01*
X141289524Y-82322438D01*
X141299000Y-82274801D01*
X141299000Y-80825199D01*
X141289524Y-80777561D01*
X141265917Y-80742231D01*
X141265686Y-80740477D01*
X141266937Y-80739226D01*
X141268691Y-80739457D01*
X141312689Y-80768856D01*
X141387311Y-80768856D01*
X141431309Y-80739457D01*
X141433063Y-80739226D01*
X141434314Y-80740477D01*
G37*
G36*
X140934314Y-80740477D02*
G01*
X140934083Y-80742231D01*
X140910475Y-80777561D01*
X140901000Y-80825199D01*
X140901000Y-82274801D01*
X140910475Y-82322438D01*
X140934081Y-82357765D01*
X140934312Y-82359519D01*
X140933061Y-82360770D01*
X140931307Y-82360539D01*
X140887311Y-82331143D01*
X140812689Y-82331143D01*
X140768693Y-82360539D01*
X140766939Y-82360770D01*
X140765688Y-82359519D01*
X140765919Y-82357765D01*
X140789524Y-82322438D01*
X140799000Y-82274801D01*
X140799000Y-80825199D01*
X140789524Y-80777561D01*
X140765917Y-80742231D01*
X140765686Y-80740477D01*
X140766937Y-80739226D01*
X140768691Y-80739457D01*
X140812689Y-80768856D01*
X140887311Y-80768856D01*
X140931309Y-80739457D01*
X140933063Y-80739226D01*
X140934314Y-80740477D01*
G37*
G36*
X140434314Y-80740477D02*
G01*
X140434083Y-80742231D01*
X140410475Y-80777561D01*
X140401000Y-80825199D01*
X140401000Y-82274801D01*
X140410475Y-82322438D01*
X140434081Y-82357765D01*
X140434312Y-82359519D01*
X140433061Y-82360770D01*
X140431307Y-82360539D01*
X140387311Y-82331143D01*
X140312689Y-82331143D01*
X140268693Y-82360539D01*
X140266939Y-82360770D01*
X140265688Y-82359519D01*
X140265919Y-82357765D01*
X140289524Y-82322438D01*
X140299000Y-82274801D01*
X140299000Y-80825199D01*
X140289524Y-80777561D01*
X140265917Y-80742231D01*
X140265686Y-80740477D01*
X140266937Y-80739226D01*
X140268691Y-80739457D01*
X140312689Y-80768856D01*
X140387311Y-80768856D01*
X140431309Y-80739457D01*
X140433063Y-80739226D01*
X140434314Y-80740477D01*
G37*
G36*
X139934314Y-80740477D02*
G01*
X139934083Y-80742231D01*
X139910475Y-80777561D01*
X139901000Y-80825199D01*
X139901000Y-82274801D01*
X139910475Y-82322438D01*
X139934081Y-82357765D01*
X139934312Y-82359519D01*
X139933061Y-82360770D01*
X139931307Y-82360539D01*
X139887311Y-82331143D01*
X139812689Y-82331143D01*
X139768693Y-82360539D01*
X139766939Y-82360770D01*
X139765688Y-82359519D01*
X139765919Y-82357765D01*
X139789524Y-82322438D01*
X139799000Y-82274801D01*
X139799000Y-80825199D01*
X139789524Y-80777561D01*
X139765917Y-80742231D01*
X139765686Y-80740477D01*
X139766937Y-80739226D01*
X139768691Y-80739457D01*
X139812689Y-80768856D01*
X139887311Y-80768856D01*
X139931309Y-80739457D01*
X139933063Y-80739226D01*
X139934314Y-80740477D01*
G37*
G36*
X139434314Y-80740477D02*
G01*
X139434083Y-80742231D01*
X139410475Y-80777561D01*
X139401000Y-80825199D01*
X139401000Y-82274801D01*
X139410475Y-82322438D01*
X139434081Y-82357765D01*
X139434312Y-82359519D01*
X139433061Y-82360770D01*
X139431307Y-82360539D01*
X139387311Y-82331143D01*
X139312689Y-82331143D01*
X139268693Y-82360539D01*
X139266939Y-82360770D01*
X139265688Y-82359519D01*
X139265919Y-82357765D01*
X139289524Y-82322438D01*
X139299000Y-82274801D01*
X139299000Y-80825199D01*
X139289524Y-80777561D01*
X139265917Y-80742231D01*
X139265686Y-80740477D01*
X139266937Y-80739226D01*
X139268691Y-80739457D01*
X139312689Y-80768856D01*
X139387311Y-80768856D01*
X139431309Y-80739457D01*
X139433063Y-80739226D01*
X139434314Y-80740477D01*
G37*
G36*
X138934314Y-80740477D02*
G01*
X138934083Y-80742231D01*
X138910475Y-80777561D01*
X138901000Y-80825199D01*
X138901000Y-82274801D01*
X138910475Y-82322438D01*
X138934081Y-82357765D01*
X138934312Y-82359519D01*
X138933061Y-82360770D01*
X138931307Y-82360539D01*
X138887311Y-82331143D01*
X138812689Y-82331143D01*
X138768693Y-82360539D01*
X138766939Y-82360770D01*
X138765688Y-82359519D01*
X138765919Y-82357765D01*
X138789524Y-82322438D01*
X138799000Y-82274801D01*
X138799000Y-80825199D01*
X138789524Y-80777561D01*
X138765917Y-80742231D01*
X138765686Y-80740477D01*
X138766937Y-80739226D01*
X138768691Y-80739457D01*
X138812689Y-80768856D01*
X138887311Y-80768856D01*
X138931309Y-80739457D01*
X138933063Y-80739226D01*
X138934314Y-80740477D01*
G37*
G36*
X138434314Y-80740477D02*
G01*
X138434083Y-80742231D01*
X138410475Y-80777561D01*
X138401000Y-80825199D01*
X138401000Y-82274801D01*
X138410475Y-82322438D01*
X138434081Y-82357765D01*
X138434312Y-82359519D01*
X138433061Y-82360770D01*
X138431307Y-82360539D01*
X138387311Y-82331143D01*
X138312689Y-82331143D01*
X138268693Y-82360539D01*
X138266939Y-82360770D01*
X138265688Y-82359519D01*
X138265919Y-82357765D01*
X138289524Y-82322438D01*
X138299000Y-82274801D01*
X138299000Y-80825199D01*
X138289524Y-80777561D01*
X138265917Y-80742231D01*
X138265686Y-80740477D01*
X138266937Y-80739226D01*
X138268691Y-80739457D01*
X138312689Y-80768856D01*
X138387311Y-80768856D01*
X138431309Y-80739457D01*
X138433063Y-80739226D01*
X138434314Y-80740477D01*
G37*
G36*
X126875075Y-77166492D02*
G01*
X126876000Y-77168179D01*
X126876000Y-77451805D01*
X126875075Y-77453492D01*
X126873155Y-77453618D01*
X126872017Y-77452066D01*
X126857908Y-77344898D01*
X126626131Y-77360090D01*
X126624633Y-77359554D01*
X126624000Y-77358094D01*
X126624000Y-77261899D01*
X126624633Y-77260439D01*
X126626131Y-77259903D01*
X126857906Y-77275095D01*
X126872017Y-77167918D01*
X126873155Y-77166366D01*
X126875075Y-77166492D01*
G37*
G36*
X123977983Y-75897944D02*
G01*
X123992089Y-76005100D01*
X124223869Y-75989910D01*
X124225367Y-75990446D01*
X124226000Y-75991906D01*
X124226000Y-77358095D01*
X124225367Y-77359555D01*
X124223869Y-77360091D01*
X123992089Y-77344900D01*
X123977983Y-77452056D01*
X123976845Y-77453608D01*
X123974925Y-77453482D01*
X123974000Y-77451795D01*
X123974000Y-77168208D01*
X123974925Y-77166521D01*
X123976845Y-77166395D01*
X123977983Y-77167947D01*
X123992088Y-77275103D01*
X124222000Y-77260037D01*
X124222000Y-76089973D01*
X123992090Y-76074904D01*
X123977983Y-76182060D01*
X123976845Y-76183612D01*
X123974925Y-76183486D01*
X123974000Y-76181799D01*
X123974000Y-75898205D01*
X123974925Y-75896518D01*
X123976845Y-75896392D01*
X123977983Y-75897944D01*
G37*
G36*
X126875075Y-75896504D02*
G01*
X126876000Y-75898191D01*
X126876000Y-76181801D01*
X126875075Y-76183488D01*
X126873155Y-76183614D01*
X126872017Y-76182062D01*
X126857909Y-76074894D01*
X126626131Y-76090085D01*
X126624633Y-76089549D01*
X126624000Y-76088089D01*
X126624000Y-75991903D01*
X126624633Y-75990443D01*
X126626131Y-75989907D01*
X126857907Y-76005098D01*
X126872017Y-75897930D01*
X126873155Y-75896378D01*
X126875075Y-75896504D01*
G37*
G36*
X179862923Y-75757115D02*
G01*
X179862692Y-75758869D01*
X179845128Y-75785150D01*
X179915195Y-75916257D01*
X179915146Y-75918228D01*
X179913431Y-75919200D01*
X179440399Y-75919200D01*
X179421462Y-75922966D01*
X179410460Y-75930318D01*
X179408706Y-75930549D01*
X179407455Y-75929298D01*
X179407686Y-75927544D01*
X179425267Y-75901229D01*
X179355198Y-75770143D01*
X179355247Y-75768172D01*
X179356962Y-75767200D01*
X179830001Y-75767200D01*
X179848937Y-75763433D01*
X179859918Y-75756095D01*
X179861672Y-75755864D01*
X179862923Y-75757115D01*
G37*
M02*
