G04 #@! TF.GenerationSoftware,KiCad,Pcbnew,7.0.1*
G04 #@! TF.CreationDate,2024-02-28T10:23:21+01:00*
G04 #@! TF.ProjectId,licznik,6c69637a-6e69-46b2-9e6b-696361645f70,rev?*
G04 #@! TF.SameCoordinates,Original*
G04 #@! TF.FileFunction,Copper,L2,Bot*
G04 #@! TF.FilePolarity,Positive*
%FSLAX46Y46*%
G04 Gerber Fmt 4.6, Leading zero omitted, Abs format (unit mm)*
G04 Created by KiCad (PCBNEW 7.0.1) date 2024-02-28 10:23:21*
%MOMM*%
%LPD*%
G01*
G04 APERTURE LIST*
G04 #@! TA.AperFunction,ComponentPad*
%ADD10R,1.700000X1.700000*%
G04 #@! TD*
G04 #@! TA.AperFunction,ComponentPad*
%ADD11O,1.700000X1.700000*%
G04 #@! TD*
G04 #@! TA.AperFunction,ComponentPad*
%ADD12C,1.700000*%
G04 #@! TD*
G04 #@! TA.AperFunction,ComponentPad*
%ADD13C,3.300000*%
G04 #@! TD*
G04 #@! TA.AperFunction,ComponentPad*
%ADD14R,0.850000X0.850000*%
G04 #@! TD*
G04 #@! TA.AperFunction,ComponentPad*
%ADD15O,0.850000X0.850000*%
G04 #@! TD*
G04 #@! TA.AperFunction,WasherPad*
%ADD16C,1.200000*%
G04 #@! TD*
G04 #@! TA.AperFunction,ViaPad*
%ADD17C,0.800000*%
G04 #@! TD*
G04 #@! TA.AperFunction,Conductor*
%ADD18C,0.250000*%
G04 #@! TD*
G04 APERTURE END LIST*
D10*
X163310000Y-70750000D03*
D11*
X165850000Y-70750000D03*
X168390000Y-70750000D03*
X170930000Y-70750000D03*
X173470000Y-70750000D03*
D10*
X122986800Y-71678800D03*
X135382000Y-103606600D03*
D11*
X135382000Y-106146600D03*
D12*
X179030000Y-104280000D03*
D11*
X179030000Y-101740000D03*
X179030000Y-99200000D03*
X179030000Y-96660000D03*
X179030000Y-94120000D03*
D10*
X118668800Y-71628000D03*
D12*
X160300000Y-108650000D03*
D11*
X160300000Y-106110000D03*
X160300000Y-103570000D03*
X160300000Y-101030000D03*
X160300000Y-98490000D03*
X160300000Y-95950000D03*
X160300000Y-93410000D03*
D12*
X170300000Y-106150000D03*
D11*
X170300000Y-103610000D03*
X170300000Y-101070000D03*
X170300000Y-98530000D03*
X170300000Y-95990000D03*
D12*
X111251200Y-97598000D03*
D11*
X111251200Y-95058000D03*
X111251200Y-92518000D03*
X111251200Y-89978000D03*
X111251200Y-87438000D03*
X111251200Y-84898000D03*
X111251200Y-82358000D03*
D13*
X111201200Y-70358000D03*
X111211200Y-109718000D03*
X179241200Y-70478000D03*
X179351200Y-109808000D03*
D14*
X135712200Y-99093400D03*
D15*
X135712200Y-100093400D03*
D10*
X158700000Y-70790000D03*
D11*
X156160000Y-70790000D03*
D16*
X169240200Y-77928200D03*
X169240200Y-85928200D03*
D17*
X172847000Y-79603600D03*
X130403600Y-99085400D03*
X163944900Y-98267200D03*
X129032000Y-85810000D03*
X129032000Y-82981800D03*
X164338000Y-74879200D03*
X152603200Y-96545400D03*
X164470500Y-101422200D03*
X133578600Y-75539600D03*
X121564400Y-86639400D03*
X133527800Y-86614000D03*
X138557000Y-88214200D03*
X163271200Y-84025500D03*
X138074400Y-85496400D03*
X163220400Y-74930000D03*
X163271200Y-79654400D03*
X163220400Y-77393800D03*
X142036800Y-73914000D03*
X163245800Y-88265000D03*
X163271200Y-81762600D03*
X136728200Y-75514200D03*
X163245800Y-86004400D03*
X124565899Y-96718901D03*
X109855000Y-93624400D03*
X134010400Y-97637600D03*
X117703600Y-98933000D03*
X153593800Y-85521800D03*
X150114000Y-80150300D03*
X156184600Y-83794600D03*
X159131000Y-77444600D03*
X159156400Y-79650000D03*
X156946600Y-84632800D03*
X159283400Y-83693000D03*
X157657800Y-80721200D03*
X139344400Y-85115400D03*
X140436600Y-85140800D03*
X141503400Y-85140800D03*
X142586697Y-85166200D03*
X143586200Y-85166200D03*
X163220400Y-99923600D03*
X161770900Y-98992200D03*
X152603200Y-97815400D03*
X125350000Y-74750000D03*
X125350000Y-78650000D03*
X132765800Y-95453200D03*
X120585900Y-94310200D03*
D18*
X164946600Y-69113400D02*
X163310000Y-70750000D01*
X130411600Y-99093400D02*
X135712200Y-99093400D01*
X171500800Y-69113400D02*
X164946600Y-69113400D01*
X130403600Y-99085400D02*
X130411600Y-99093400D01*
X129032000Y-82981800D02*
X129032000Y-85810000D01*
X160522800Y-98267200D02*
X160300000Y-98490000D01*
X172161200Y-78917800D02*
X172161200Y-69773800D01*
X172847000Y-79603600D02*
X172161200Y-78917800D01*
X172161200Y-69773800D02*
X171500800Y-69113400D01*
X163944900Y-98267200D02*
X160522800Y-98267200D01*
X164470500Y-101422200D02*
X164470500Y-101594500D01*
X153212800Y-96545400D02*
X152603200Y-96545400D01*
X159736000Y-104745000D02*
X153887000Y-98896000D01*
X164470500Y-101594500D02*
X161320000Y-104745000D01*
X164669900Y-101222800D02*
X164470500Y-101422200D01*
X164669900Y-75211100D02*
X164669900Y-101222800D01*
X153887000Y-98896000D02*
X153887000Y-97219600D01*
X164338000Y-74879200D02*
X164669900Y-75211100D01*
X153887000Y-97219600D02*
X153212800Y-96545400D01*
X161320000Y-104745000D02*
X159736000Y-104745000D01*
X138404600Y-70637400D02*
X156007400Y-70637400D01*
X133578600Y-75463400D02*
X138404600Y-70637400D01*
X156007400Y-70637400D02*
X156160000Y-70790000D01*
X133578600Y-75539600D02*
X133578600Y-75463400D01*
X121668800Y-86535000D02*
X121564400Y-86639400D01*
X133448800Y-86535000D02*
X121668800Y-86535000D01*
X133527800Y-86614000D02*
X133448800Y-86535000D01*
X138074400Y-85521800D02*
X138074400Y-85496400D01*
X138557000Y-88214200D02*
X138557000Y-86004400D01*
X163245800Y-88265000D02*
X163245800Y-90464200D01*
X142036800Y-73914000D02*
X138328400Y-73914000D01*
X138557000Y-86004400D02*
X138353800Y-85801200D01*
X163271200Y-79654400D02*
X163271200Y-81762600D01*
X138328400Y-73914000D02*
X136728200Y-75514200D01*
X163245800Y-88265000D02*
X163245800Y-86004400D01*
X163271200Y-84025500D02*
X163271200Y-85979000D01*
X163271200Y-85979000D02*
X163245800Y-86004400D01*
X138353800Y-85801200D02*
X138074400Y-85521800D01*
X163220400Y-77393800D02*
X163220400Y-74930000D01*
X163271200Y-81762600D02*
X163271200Y-84025500D01*
X163245800Y-90464200D02*
X160300000Y-93410000D01*
X110566200Y-98780600D02*
X116814600Y-98780600D01*
X109855000Y-98069400D02*
X110566200Y-98780600D01*
X116814600Y-98780600D02*
X118876299Y-96718901D01*
X118876299Y-96718901D02*
X124565899Y-96718901D01*
X109855000Y-93624400D02*
X109855000Y-98069400D01*
X134010400Y-97637600D02*
X118999000Y-97637600D01*
X118999000Y-97637600D02*
X117703600Y-98933000D01*
X153593800Y-85521800D02*
X158479905Y-85521800D01*
X158479905Y-85521800D02*
X162495400Y-81506305D01*
X165251400Y-73888600D02*
X168390000Y-70750000D01*
X162495400Y-81506305D02*
X162495400Y-74512000D01*
X162495400Y-74512000D02*
X163118800Y-73888600D01*
X163118800Y-73888600D02*
X165251400Y-73888600D01*
X150114000Y-80150300D02*
X157086900Y-73177400D01*
X163576000Y-73024000D02*
X165850000Y-70750000D01*
X163423600Y-73177400D02*
X163576000Y-73025000D01*
X163576000Y-73025000D02*
X163576000Y-73024000D01*
X157086900Y-73177400D02*
X163423600Y-73177400D01*
X156184600Y-80391000D02*
X156184600Y-83794600D01*
X159131000Y-77444600D02*
X156184600Y-80391000D01*
X156932800Y-80420895D02*
X156932800Y-84619000D01*
X156932800Y-84619000D02*
X156946600Y-84632800D01*
X157703695Y-79650000D02*
X156932800Y-80420895D01*
X159156400Y-79650000D02*
X157703695Y-79650000D01*
X159283400Y-83693000D02*
X157657800Y-82067400D01*
X157657800Y-82067400D02*
X157657800Y-80721200D01*
X139344400Y-88950800D02*
X139242800Y-89052400D01*
X139242800Y-89052400D02*
X116281200Y-89052400D01*
X116281200Y-89052400D02*
X112126800Y-84898000D01*
X139344400Y-85115400D02*
X139344400Y-88950800D01*
X112126800Y-84898000D02*
X111251200Y-84898000D01*
X111709200Y-86156800D02*
X110413800Y-86156800D01*
X109778800Y-83312000D02*
X110732800Y-82358000D01*
X139369800Y-89966800D02*
X115519200Y-89966800D01*
X109778800Y-85521800D02*
X109778800Y-83312000D01*
X115519200Y-89966800D02*
X111709200Y-86156800D01*
X110732800Y-82358000D02*
X111251200Y-82358000D01*
X140436600Y-85140800D02*
X140436600Y-88900000D01*
X110413800Y-86156800D02*
X109778800Y-85521800D01*
X140436600Y-88900000D02*
X139369800Y-89966800D01*
X141503400Y-88798400D02*
X139522200Y-90779600D01*
X114592800Y-90779600D02*
X111251200Y-87438000D01*
X141503400Y-85140800D02*
X141503400Y-88798400D01*
X139522200Y-90779600D02*
X114592800Y-90779600D01*
X142586697Y-85166200D02*
X142586697Y-88756503D01*
X142586697Y-88756503D02*
X139623800Y-91719400D01*
X112992600Y-91719400D02*
X111251200Y-89978000D01*
X139623800Y-91719400D02*
X112992600Y-91719400D01*
X143586200Y-85166200D02*
X143586200Y-88925400D01*
X143586200Y-88925400D02*
X139993600Y-92518000D01*
X139993600Y-92518000D02*
X111251200Y-92518000D01*
X163220400Y-99923600D02*
X163220400Y-100649600D01*
X163220400Y-100649600D02*
X160300000Y-103570000D01*
X161770900Y-98992200D02*
X161770900Y-99559100D01*
X161770900Y-99559100D02*
X160300000Y-101030000D01*
X152603200Y-98413200D02*
X160300000Y-106110000D01*
X152603200Y-97815400D02*
X152603200Y-98413200D01*
X125350000Y-74750000D02*
X125350000Y-78650000D01*
X120585900Y-95287500D02*
X121107200Y-95808800D01*
X132410200Y-95808800D02*
X132765800Y-95453200D01*
X121107200Y-95808800D02*
X132410200Y-95808800D01*
X120585900Y-94310200D02*
X120585900Y-95287500D01*
G04 #@! TA.AperFunction,Conductor*
G36*
X163981509Y-90684982D02*
G01*
X164027530Y-90730435D01*
X164044400Y-90792879D01*
X164044400Y-99169938D01*
X164030289Y-99227387D01*
X163991168Y-99271761D01*
X163935940Y-99292960D01*
X163877175Y-99286160D01*
X163828248Y-99252908D01*
X163826278Y-99250720D01*
X163826271Y-99250712D01*
X163826270Y-99250711D01*
X163826268Y-99250709D01*
X163673130Y-99139448D01*
X163500202Y-99062455D01*
X163315048Y-99023100D01*
X163315046Y-99023100D01*
X163125754Y-99023100D01*
X163125752Y-99023100D01*
X162940601Y-99062454D01*
X162851143Y-99102284D01*
X162794217Y-99112834D01*
X162738707Y-99096391D01*
X162696712Y-99056539D01*
X162677386Y-99001965D01*
X162673458Y-98964592D01*
X162656574Y-98803944D01*
X162598079Y-98623916D01*
X162598079Y-98623915D01*
X162503433Y-98459983D01*
X162376770Y-98319310D01*
X162223630Y-98208048D01*
X162050702Y-98131055D01*
X161865548Y-98091700D01*
X161865546Y-98091700D01*
X161682827Y-98091700D01*
X161616202Y-98072281D01*
X161570445Y-98020105D01*
X161473599Y-97812421D01*
X161338109Y-97618921D01*
X161171081Y-97451893D01*
X160985404Y-97321880D01*
X160946539Y-97277562D01*
X160932528Y-97220305D01*
X160946539Y-97163048D01*
X160985402Y-97118732D01*
X161171401Y-96988495D01*
X161338495Y-96821401D01*
X161474035Y-96627830D01*
X161573903Y-96413663D01*
X161635063Y-96185408D01*
X161655659Y-95950000D01*
X161635063Y-95714592D01*
X161573903Y-95486337D01*
X161474035Y-95272171D01*
X161338495Y-95078599D01*
X161171401Y-94911505D01*
X160985839Y-94781573D01*
X160946975Y-94737257D01*
X160932964Y-94680000D01*
X160946975Y-94622743D01*
X160985839Y-94578426D01*
X161171401Y-94448495D01*
X161338495Y-94281401D01*
X161474035Y-94087830D01*
X161573903Y-93873663D01*
X161635063Y-93645408D01*
X161655659Y-93410000D01*
X161635063Y-93174592D01*
X161608143Y-93074126D01*
X161608143Y-93009939D01*
X161640235Y-92954353D01*
X163629589Y-90965000D01*
X163645685Y-90952106D01*
X163647673Y-90949987D01*
X163647677Y-90949986D01*
X163693748Y-90900923D01*
X163696366Y-90898223D01*
X163715920Y-90878671D01*
X163718381Y-90875498D01*
X163725956Y-90866627D01*
X163755862Y-90834782D01*
X163765517Y-90817218D01*
X163776194Y-90800964D01*
X163788473Y-90785136D01*
X163805818Y-90745052D01*
X163810963Y-90734551D01*
X163811753Y-90733113D01*
X163856630Y-90686533D01*
X163918860Y-90668889D01*
X163981509Y-90684982D01*
G37*
G04 #@! TD.AperFunction*
G04 #@! TA.AperFunction,Conductor*
G36*
X177843394Y-68621329D02*
G01*
X177888085Y-68661916D01*
X177908313Y-68718797D01*
X177899283Y-68778489D01*
X177863137Y-68826842D01*
X177769940Y-68902664D01*
X177569133Y-69117674D01*
X177399479Y-69358020D01*
X177264126Y-69619239D01*
X177165607Y-69896446D01*
X177105752Y-70184484D01*
X177085674Y-70478000D01*
X177105752Y-70771515D01*
X177165607Y-71059553D01*
X177264126Y-71336760D01*
X177399479Y-71597979D01*
X177569133Y-71838325D01*
X177769939Y-72053334D01*
X177769940Y-72053335D01*
X177827299Y-72100000D01*
X177998151Y-72238999D01*
X178249519Y-72391860D01*
X178408593Y-72460954D01*
X178519359Y-72509067D01*
X178802645Y-72588440D01*
X179094102Y-72628500D01*
X179388298Y-72628500D01*
X179679755Y-72588440D01*
X179963041Y-72509067D01*
X180232882Y-72391859D01*
X180484249Y-72238999D01*
X180712460Y-72053335D01*
X180865964Y-71888972D01*
X180915030Y-71856782D01*
X180973410Y-71850760D01*
X181028019Y-71872258D01*
X181066627Y-71916461D01*
X181080583Y-71973466D01*
X181123477Y-108240386D01*
X181109629Y-108297477D01*
X181071057Y-108341786D01*
X181016420Y-108363370D01*
X180957980Y-108357383D01*
X180908854Y-108325170D01*
X180822460Y-108232665D01*
X180594248Y-108047000D01*
X180342880Y-107894139D01*
X180073046Y-107776935D01*
X180073044Y-107776934D01*
X180073041Y-107776933D01*
X179909656Y-107731154D01*
X179789753Y-107697559D01*
X179498298Y-107657500D01*
X179204102Y-107657500D01*
X178912646Y-107697559D01*
X178716324Y-107752566D01*
X178629359Y-107776933D01*
X178629356Y-107776933D01*
X178629353Y-107776935D01*
X178359519Y-107894139D01*
X178108151Y-108047000D01*
X177879939Y-108232665D01*
X177679133Y-108447674D01*
X177509479Y-108688020D01*
X177374126Y-108949239D01*
X177275607Y-109226446D01*
X177215752Y-109514484D01*
X177195674Y-109808000D01*
X177215752Y-110101515D01*
X177275607Y-110389553D01*
X177374126Y-110666760D01*
X177509479Y-110927979D01*
X177679133Y-111168324D01*
X177847092Y-111348163D01*
X177875403Y-111397717D01*
X177878519Y-111454703D01*
X177855782Y-111507049D01*
X177812008Y-111543667D01*
X177756469Y-111556800D01*
X112707520Y-111556800D01*
X112648974Y-111542108D01*
X112604300Y-111501515D01*
X112584086Y-111444638D01*
X112593122Y-111384957D01*
X112629264Y-111336613D01*
X112682460Y-111293335D01*
X112883265Y-111078326D01*
X112893239Y-111064197D01*
X113052920Y-110837979D01*
X113141637Y-110666764D01*
X113188272Y-110576764D01*
X113286792Y-110299554D01*
X113346648Y-110011511D01*
X113366725Y-109718000D01*
X113346648Y-109424489D01*
X113286792Y-109136446D01*
X113188272Y-108859236D01*
X113052922Y-108598024D01*
X113052920Y-108598020D01*
X112883266Y-108357674D01*
X112682460Y-108142665D01*
X112454248Y-107957000D01*
X112202880Y-107804139D01*
X111933046Y-107686935D01*
X111933044Y-107686934D01*
X111933041Y-107686933D01*
X111769656Y-107641154D01*
X111649753Y-107607559D01*
X111358298Y-107567500D01*
X111064102Y-107567500D01*
X110772646Y-107607559D01*
X110594407Y-107657500D01*
X110489359Y-107686933D01*
X110489356Y-107686933D01*
X110489353Y-107686935D01*
X110219519Y-107804139D01*
X109968151Y-107957000D01*
X109739939Y-108142665D01*
X109561623Y-108333595D01*
X109512525Y-108365798D01*
X109454115Y-108371803D01*
X109399491Y-108350262D01*
X109360902Y-108306006D01*
X109347000Y-108248958D01*
X109347000Y-106146599D01*
X134026340Y-106146599D01*
X134046936Y-106382007D01*
X134091709Y-106549102D01*
X134108097Y-106610263D01*
X134207965Y-106824430D01*
X134343505Y-107018001D01*
X134510599Y-107185095D01*
X134704170Y-107320635D01*
X134918337Y-107420503D01*
X135146592Y-107481663D01*
X135382000Y-107502259D01*
X135617408Y-107481663D01*
X135845663Y-107420503D01*
X136059830Y-107320635D01*
X136253401Y-107185095D01*
X136420495Y-107018001D01*
X136556035Y-106824430D01*
X136655903Y-106610263D01*
X136717063Y-106382008D01*
X136737659Y-106146600D01*
X136717063Y-105911192D01*
X136655903Y-105682937D01*
X136556035Y-105468771D01*
X136420495Y-105275199D01*
X136298569Y-105153272D01*
X136267273Y-105100527D01*
X136265084Y-105039234D01*
X136292537Y-104984389D01*
X136342916Y-104949410D01*
X136474331Y-104900396D01*
X136589546Y-104814146D01*
X136675796Y-104698931D01*
X136726091Y-104564083D01*
X136732500Y-104504473D01*
X136732499Y-102708728D01*
X136726091Y-102649117D01*
X136675796Y-102514269D01*
X136589546Y-102399054D01*
X136474331Y-102312804D01*
X136339483Y-102262509D01*
X136279873Y-102256100D01*
X136279869Y-102256100D01*
X134484130Y-102256100D01*
X134424515Y-102262509D01*
X134289669Y-102312804D01*
X134174454Y-102399054D01*
X134088204Y-102514268D01*
X134037909Y-102649116D01*
X134031500Y-102708730D01*
X134031500Y-104504469D01*
X134037909Y-104564083D01*
X134088204Y-104698931D01*
X134174454Y-104814146D01*
X134289669Y-104900396D01*
X134388499Y-104937257D01*
X134421082Y-104949410D01*
X134471462Y-104984389D01*
X134498915Y-105039234D01*
X134496726Y-105100526D01*
X134465431Y-105153273D01*
X134343503Y-105275201D01*
X134207965Y-105468770D01*
X134108097Y-105682936D01*
X134046936Y-105911192D01*
X134026340Y-106146599D01*
X109347000Y-106146599D01*
X109347000Y-105409855D01*
X118917900Y-105409855D01*
X118958609Y-105575024D01*
X118996037Y-105646336D01*
X119037666Y-105725652D01*
X119150471Y-105852983D01*
X119290470Y-105949618D01*
X119449528Y-106009940D01*
X119576028Y-106025300D01*
X119660771Y-106025300D01*
X119660772Y-106025300D01*
X119787272Y-106009940D01*
X119946330Y-105949618D01*
X120086329Y-105852983D01*
X120199134Y-105725652D01*
X120278190Y-105575025D01*
X120318900Y-105409856D01*
X120318900Y-105409855D01*
X123317900Y-105409855D01*
X123358609Y-105575024D01*
X123396037Y-105646336D01*
X123437666Y-105725652D01*
X123550471Y-105852983D01*
X123690470Y-105949618D01*
X123849528Y-106009940D01*
X123976028Y-106025300D01*
X124060771Y-106025300D01*
X124060772Y-106025300D01*
X124187272Y-106009940D01*
X124346330Y-105949618D01*
X124486329Y-105852983D01*
X124599134Y-105725652D01*
X124678190Y-105575025D01*
X124718900Y-105409856D01*
X124718900Y-105239744D01*
X124678190Y-105074575D01*
X124599134Y-104923948D01*
X124486329Y-104796617D01*
X124486328Y-104796616D01*
X124486327Y-104796615D01*
X124346330Y-104699982D01*
X124187272Y-104639660D01*
X124060772Y-104624300D01*
X123976028Y-104624300D01*
X123912778Y-104631979D01*
X123849527Y-104639660D01*
X123690469Y-104699982D01*
X123550472Y-104796615D01*
X123437665Y-104923949D01*
X123358609Y-105074575D01*
X123317900Y-105239745D01*
X123317900Y-105409855D01*
X120318900Y-105409855D01*
X120318900Y-105239744D01*
X120278190Y-105074575D01*
X120199134Y-104923948D01*
X120086329Y-104796617D01*
X120086328Y-104796616D01*
X120086327Y-104796615D01*
X119946330Y-104699982D01*
X119787272Y-104639660D01*
X119660772Y-104624300D01*
X119576028Y-104624300D01*
X119512778Y-104631979D01*
X119449527Y-104639660D01*
X119290469Y-104699982D01*
X119150472Y-104796615D01*
X119037665Y-104923949D01*
X118958609Y-105074575D01*
X118917900Y-105239745D01*
X118917900Y-105409855D01*
X109347000Y-105409855D01*
X109347000Y-100093400D01*
X134781602Y-100093400D01*
X134801938Y-100286882D01*
X134801939Y-100286885D01*
X134862055Y-100471907D01*
X134959329Y-100640392D01*
X135089508Y-100784970D01*
X135246899Y-100899321D01*
X135424631Y-100978452D01*
X135614924Y-101018900D01*
X135614926Y-101018900D01*
X135809474Y-101018900D01*
X135809476Y-101018900D01*
X135999768Y-100978452D01*
X135999769Y-100978451D01*
X135999771Y-100978451D01*
X136177499Y-100899322D01*
X136266592Y-100834592D01*
X136334891Y-100784970D01*
X136465070Y-100640392D01*
X136473971Y-100624975D01*
X136562344Y-100471908D01*
X136622462Y-100286882D01*
X136642798Y-100093400D01*
X136622462Y-99899918D01*
X136592102Y-99806481D01*
X136586062Y-99765508D01*
X136593852Y-99724830D01*
X136630797Y-99625775D01*
X136637200Y-99566224D01*
X136637200Y-99343400D01*
X136294759Y-99343400D01*
X136256441Y-99337331D01*
X136221874Y-99319718D01*
X136177500Y-99287478D01*
X135999768Y-99208347D01*
X135809476Y-99167900D01*
X135809474Y-99167900D01*
X135614926Y-99167900D01*
X135614924Y-99167900D01*
X135424631Y-99208347D01*
X135246899Y-99287478D01*
X135202526Y-99319718D01*
X135167959Y-99337331D01*
X135129641Y-99343400D01*
X134787200Y-99343400D01*
X134787200Y-99566224D01*
X134793602Y-99625777D01*
X134830547Y-99724831D01*
X134838337Y-99765508D01*
X134832297Y-99806481D01*
X134801938Y-99899918D01*
X134781602Y-100093400D01*
X109347000Y-100093400D01*
X109347000Y-98745352D01*
X109360515Y-98689057D01*
X109398115Y-98645034D01*
X109451602Y-98622879D01*
X109509318Y-98627421D01*
X109558681Y-98657671D01*
X110065397Y-99164387D01*
X110078298Y-99180489D01*
X110080412Y-99182474D01*
X110080414Y-99182477D01*
X110107965Y-99208349D01*
X110129440Y-99228516D01*
X110132235Y-99231225D01*
X110151730Y-99250720D01*
X110154904Y-99253182D01*
X110163768Y-99260753D01*
X110195618Y-99290662D01*
X110206114Y-99296432D01*
X110213174Y-99300314D01*
X110229431Y-99310992D01*
X110245264Y-99323274D01*
X110261385Y-99330249D01*
X110285356Y-99340623D01*
X110295843Y-99345760D01*
X110334108Y-99366797D01*
X110353516Y-99371780D01*
X110371910Y-99378078D01*
X110390305Y-99386038D01*
X110433454Y-99392871D01*
X110444880Y-99395238D01*
X110454900Y-99397811D01*
X110487180Y-99406100D01*
X110487181Y-99406100D01*
X110507216Y-99406100D01*
X110526613Y-99407626D01*
X110546396Y-99410760D01*
X110589874Y-99406650D01*
X110601544Y-99406100D01*
X116731856Y-99406100D01*
X116752362Y-99408364D01*
X116755265Y-99408272D01*
X116755267Y-99408273D01*
X116822472Y-99406161D01*
X116826368Y-99406100D01*
X116861755Y-99406100D01*
X116861755Y-99407509D01*
X116897604Y-99410013D01*
X116940754Y-99431430D01*
X116962072Y-99455778D01*
X116962347Y-99455531D01*
X117097729Y-99605889D01*
X117250869Y-99717151D01*
X117423797Y-99794144D01*
X117608952Y-99833500D01*
X117608954Y-99833500D01*
X117798246Y-99833500D01*
X117798248Y-99833500D01*
X117955857Y-99799999D01*
X117983403Y-99794144D01*
X118156330Y-99717151D01*
X118309471Y-99605888D01*
X118436133Y-99465216D01*
X118530779Y-99301284D01*
X118589274Y-99121256D01*
X118606922Y-98953341D01*
X118618320Y-98912927D01*
X118642557Y-98878632D01*
X118677789Y-98843400D01*
X134787200Y-98843400D01*
X135462200Y-98843400D01*
X135462200Y-98168400D01*
X135962200Y-98168400D01*
X135962200Y-98843400D01*
X136637200Y-98843400D01*
X136637200Y-98620576D01*
X136630797Y-98561024D01*
X136580552Y-98426310D01*
X136494388Y-98311211D01*
X136379289Y-98225047D01*
X136244575Y-98174802D01*
X136185024Y-98168400D01*
X135962200Y-98168400D01*
X135462200Y-98168400D01*
X135239376Y-98168400D01*
X135179824Y-98174802D01*
X135045108Y-98225048D01*
X134940741Y-98303177D01*
X134878218Y-98327349D01*
X134855277Y-98323209D01*
X134861691Y-98376285D01*
X134848328Y-98408954D01*
X134850078Y-98409607D01*
X134793602Y-98561024D01*
X134787200Y-98620576D01*
X134787200Y-98843400D01*
X118677789Y-98843400D01*
X119221771Y-98299419D01*
X119262000Y-98272539D01*
X119309453Y-98263100D01*
X133306653Y-98263100D01*
X133357088Y-98273820D01*
X133398801Y-98304126D01*
X133404529Y-98310488D01*
X133557670Y-98421751D01*
X133557671Y-98421751D01*
X133557672Y-98421752D01*
X133730597Y-98498744D01*
X133915752Y-98538100D01*
X133915754Y-98538100D01*
X134105046Y-98538100D01*
X134105048Y-98538100D01*
X134279650Y-98500987D01*
X134290203Y-98498744D01*
X134463130Y-98421751D01*
X134616271Y-98310488D01*
X134646653Y-98276745D01*
X134698709Y-98242378D01*
X134752124Y-98238364D01*
X134742466Y-98206860D01*
X134759043Y-98141911D01*
X134837579Y-98005884D01*
X134896074Y-97825856D01*
X134915860Y-97637600D01*
X134896074Y-97449344D01*
X134848311Y-97302344D01*
X134837579Y-97269315D01*
X134742933Y-97105383D01*
X134616270Y-96964710D01*
X134463130Y-96853448D01*
X134290202Y-96776455D01*
X134105048Y-96737100D01*
X134105046Y-96737100D01*
X133915754Y-96737100D01*
X133915752Y-96737100D01*
X133730597Y-96776455D01*
X133557672Y-96853447D01*
X133499918Y-96895408D01*
X133404529Y-96964712D01*
X133398801Y-96971073D01*
X133357088Y-97001380D01*
X133306653Y-97012100D01*
X125578259Y-97012100D01*
X125512549Y-96993258D01*
X125466809Y-96942458D01*
X125454938Y-96875139D01*
X125455397Y-96870771D01*
X125471359Y-96718901D01*
X125455841Y-96571258D01*
X125467712Y-96503942D01*
X125513452Y-96453142D01*
X125579162Y-96434300D01*
X132327456Y-96434300D01*
X132347962Y-96436564D01*
X132350865Y-96436472D01*
X132350867Y-96436473D01*
X132418072Y-96434361D01*
X132421968Y-96434300D01*
X132449549Y-96434300D01*
X132449550Y-96434300D01*
X132453519Y-96433798D01*
X132465165Y-96432880D01*
X132508827Y-96431509D01*
X132528059Y-96425920D01*
X132547118Y-96421974D01*
X132553396Y-96421181D01*
X132566992Y-96419464D01*
X132607607Y-96403382D01*
X132618644Y-96399603D01*
X132660590Y-96387418D01*
X132677829Y-96377222D01*
X132695305Y-96368661D01*
X132711105Y-96362406D01*
X132756748Y-96353700D01*
X132860448Y-96353700D01*
X132983883Y-96327462D01*
X133045603Y-96314344D01*
X133218530Y-96237351D01*
X133315351Y-96167007D01*
X133371670Y-96126089D01*
X133401158Y-96093340D01*
X133498333Y-95985416D01*
X133592979Y-95821484D01*
X133651474Y-95641456D01*
X133671260Y-95453200D01*
X133651474Y-95264944D01*
X133611615Y-95142271D01*
X133592979Y-95084915D01*
X133498333Y-94920983D01*
X133371670Y-94780310D01*
X133218530Y-94669048D01*
X133045602Y-94592055D01*
X132860448Y-94552700D01*
X132860446Y-94552700D01*
X132671154Y-94552700D01*
X132671152Y-94552700D01*
X132485997Y-94592055D01*
X132313069Y-94669048D01*
X132159929Y-94780310D01*
X132033266Y-94920983D01*
X131938622Y-95084913D01*
X131934495Y-95097616D01*
X131908714Y-95142271D01*
X131866999Y-95172579D01*
X131816563Y-95183300D01*
X121417653Y-95183300D01*
X121370200Y-95173861D01*
X121329971Y-95146981D01*
X121262804Y-95079813D01*
X121231289Y-95026310D01*
X121229664Y-94964237D01*
X121258337Y-94909159D01*
X121318433Y-94842416D01*
X121413079Y-94678484D01*
X121440420Y-94594337D01*
X121471574Y-94498456D01*
X121491360Y-94310200D01*
X121471574Y-94121944D01*
X121413079Y-93941916D01*
X121413079Y-93941915D01*
X121318433Y-93777983D01*
X121191770Y-93637310D01*
X121038630Y-93526048D01*
X120865702Y-93449055D01*
X120680548Y-93409700D01*
X120680546Y-93409700D01*
X120491254Y-93409700D01*
X120491252Y-93409700D01*
X120306097Y-93449055D01*
X120133169Y-93526048D01*
X119980029Y-93637310D01*
X119853366Y-93777983D01*
X119758720Y-93941915D01*
X119700226Y-94121942D01*
X119680440Y-94310200D01*
X119700226Y-94498457D01*
X119758720Y-94678484D01*
X119853364Y-94842413D01*
X119853367Y-94842416D01*
X119928552Y-94925917D01*
X119952164Y-94964449D01*
X119960400Y-95008887D01*
X119960400Y-95204756D01*
X119958135Y-95225262D01*
X119960339Y-95295373D01*
X119960400Y-95299268D01*
X119960400Y-95326849D01*
X119960903Y-95330834D01*
X119961818Y-95342467D01*
X119963190Y-95386126D01*
X119968779Y-95405360D01*
X119972725Y-95424416D01*
X119975235Y-95444292D01*
X119991314Y-95484904D01*
X119995097Y-95495951D01*
X120007282Y-95537891D01*
X120017480Y-95555135D01*
X120026036Y-95572600D01*
X120033414Y-95591232D01*
X120033415Y-95591233D01*
X120059080Y-95626559D01*
X120065493Y-95636322D01*
X120087726Y-95673916D01*
X120087729Y-95673919D01*
X120087730Y-95673920D01*
X120101895Y-95688085D01*
X120114527Y-95702875D01*
X120126306Y-95719087D01*
X120159958Y-95746926D01*
X120168599Y-95754789D01*
X120295530Y-95881720D01*
X120325780Y-95931083D01*
X120330322Y-95988799D01*
X120308167Y-96042286D01*
X120264144Y-96079886D01*
X120207849Y-96093401D01*
X118959043Y-96093401D01*
X118938535Y-96091136D01*
X118868412Y-96093340D01*
X118864518Y-96093401D01*
X118836949Y-96093401D01*
X118832970Y-96093903D01*
X118821340Y-96094818D01*
X118777671Y-96096190D01*
X118758427Y-96101781D01*
X118739383Y-96105725D01*
X118719507Y-96108236D01*
X118678899Y-96124314D01*
X118667853Y-96128095D01*
X118625909Y-96140283D01*
X118625906Y-96140284D01*
X118608664Y-96150480D01*
X118591203Y-96159034D01*
X118572566Y-96166413D01*
X118537230Y-96192086D01*
X118527473Y-96198496D01*
X118489879Y-96220730D01*
X118475712Y-96234897D01*
X118460923Y-96247527D01*
X118444712Y-96259305D01*
X118416871Y-96292959D01*
X118409010Y-96301598D01*
X116591828Y-98118781D01*
X116551600Y-98145661D01*
X116504147Y-98155100D01*
X112661149Y-98155100D01*
X112606305Y-98142312D01*
X112562773Y-98106586D01*
X112539532Y-98055291D01*
X112541374Y-97999006D01*
X112585769Y-97833318D01*
X112606357Y-97598000D01*
X112585769Y-97362681D01*
X112524630Y-97134507D01*
X112424799Y-96920421D01*
X112366126Y-96836626D01*
X112366125Y-96836625D01*
X111338880Y-97863871D01*
X111283293Y-97895965D01*
X111219105Y-97895965D01*
X111163518Y-97863871D01*
X110985328Y-97685681D01*
X110953234Y-97630094D01*
X110953234Y-97565906D01*
X110985328Y-97510319D01*
X112012573Y-96483073D01*
X112012573Y-96483072D01*
X111936605Y-96429880D01*
X111897739Y-96385562D01*
X111883728Y-96328305D01*
X111897739Y-96271048D01*
X111936602Y-96226732D01*
X112122601Y-96096495D01*
X112289695Y-95929401D01*
X112425235Y-95735830D01*
X112525103Y-95521663D01*
X112586263Y-95293408D01*
X112606859Y-95058000D01*
X112601032Y-94991404D01*
X112586263Y-94822592D01*
X112548056Y-94680000D01*
X112525103Y-94594337D01*
X112425235Y-94380171D01*
X112289695Y-94186599D01*
X112122601Y-94019505D01*
X111937039Y-93889573D01*
X111898175Y-93845257D01*
X111884164Y-93788000D01*
X111898175Y-93730743D01*
X111937039Y-93686426D01*
X112122601Y-93556495D01*
X112289695Y-93389401D01*
X112424853Y-93196374D01*
X112469170Y-93157511D01*
X112526427Y-93143500D01*
X139910856Y-93143500D01*
X139931362Y-93145764D01*
X139934265Y-93145672D01*
X139934267Y-93145673D01*
X140001472Y-93143561D01*
X140005368Y-93143500D01*
X140032949Y-93143500D01*
X140032950Y-93143500D01*
X140036919Y-93142998D01*
X140048565Y-93142080D01*
X140092227Y-93140709D01*
X140111459Y-93135120D01*
X140130518Y-93131174D01*
X140136796Y-93130381D01*
X140150392Y-93128664D01*
X140191007Y-93112582D01*
X140202044Y-93108803D01*
X140243990Y-93096618D01*
X140261229Y-93086422D01*
X140278702Y-93077862D01*
X140297332Y-93070486D01*
X140332664Y-93044814D01*
X140342430Y-93038400D01*
X140380018Y-93016171D01*
X140380017Y-93016171D01*
X140380020Y-93016170D01*
X140394185Y-93002004D01*
X140408973Y-92989373D01*
X140425187Y-92977594D01*
X140453038Y-92943926D01*
X140460879Y-92935309D01*
X143969986Y-89426202D01*
X143986087Y-89413304D01*
X143988074Y-89411187D01*
X143988077Y-89411186D01*
X144034132Y-89362141D01*
X144036813Y-89359376D01*
X144056320Y-89339870D01*
X144058781Y-89336695D01*
X144066352Y-89327831D01*
X144096262Y-89295982D01*
X144105913Y-89278426D01*
X144116593Y-89262167D01*
X144128874Y-89246336D01*
X144146218Y-89206251D01*
X144151360Y-89195756D01*
X144172397Y-89157492D01*
X144177378Y-89138088D01*
X144183680Y-89119683D01*
X144191638Y-89101295D01*
X144198470Y-89058148D01*
X144200839Y-89046716D01*
X144211700Y-89004420D01*
X144211700Y-88984384D01*
X144213227Y-88964985D01*
X144213433Y-88963687D01*
X144216360Y-88945204D01*
X144212250Y-88901725D01*
X144211700Y-88890056D01*
X144211700Y-85864887D01*
X144219936Y-85820449D01*
X144243547Y-85781917D01*
X144318733Y-85698416D01*
X144326678Y-85684656D01*
X144413379Y-85534484D01*
X144425753Y-85496400D01*
X144471874Y-85354456D01*
X144491660Y-85166200D01*
X144471874Y-84977944D01*
X144423722Y-84829749D01*
X144413379Y-84797915D01*
X144318733Y-84633983D01*
X144192070Y-84493310D01*
X144038930Y-84382048D01*
X143866002Y-84305055D01*
X143680848Y-84265700D01*
X143680846Y-84265700D01*
X143491554Y-84265700D01*
X143491552Y-84265700D01*
X143306397Y-84305055D01*
X143136884Y-84380528D01*
X143086448Y-84391249D01*
X143036012Y-84380528D01*
X142866499Y-84305055D01*
X142681345Y-84265700D01*
X142681343Y-84265700D01*
X142492051Y-84265700D01*
X142492049Y-84265700D01*
X142306894Y-84305055D01*
X142122062Y-84387349D01*
X142121911Y-84387010D01*
X142088302Y-84401971D01*
X142036743Y-84401969D01*
X141989642Y-84380997D01*
X141956127Y-84356646D01*
X141783202Y-84279655D01*
X141598048Y-84240300D01*
X141598046Y-84240300D01*
X141408754Y-84240300D01*
X141408752Y-84240300D01*
X141223597Y-84279655D01*
X141050670Y-84356648D01*
X141042883Y-84362306D01*
X140995780Y-84383277D01*
X140944220Y-84383277D01*
X140897117Y-84362306D01*
X140889329Y-84356648D01*
X140716402Y-84279655D01*
X140531248Y-84240300D01*
X140531246Y-84240300D01*
X140341954Y-84240300D01*
X140341952Y-84240300D01*
X140156797Y-84279655D01*
X139983867Y-84356649D01*
X139980860Y-84358834D01*
X139933756Y-84379804D01*
X139882195Y-84379803D01*
X139835093Y-84358831D01*
X139832088Y-84356648D01*
X139823786Y-84350615D01*
X139797127Y-84331246D01*
X139624202Y-84254255D01*
X139439048Y-84214900D01*
X139439046Y-84214900D01*
X139249754Y-84214900D01*
X139249752Y-84214900D01*
X139064597Y-84254255D01*
X138891669Y-84331248D01*
X138738529Y-84442510D01*
X138611867Y-84583184D01*
X138591085Y-84619178D01*
X138549407Y-84662335D01*
X138492348Y-84680874D01*
X138433264Y-84670456D01*
X138354200Y-84635254D01*
X138169048Y-84595900D01*
X138169046Y-84595900D01*
X137979754Y-84595900D01*
X137979752Y-84595900D01*
X137794597Y-84635255D01*
X137621669Y-84712248D01*
X137468529Y-84823510D01*
X137341866Y-84964183D01*
X137247220Y-85128115D01*
X137188726Y-85308142D01*
X137168940Y-85496400D01*
X137188726Y-85684657D01*
X137247220Y-85864684D01*
X137341866Y-86028616D01*
X137468529Y-86169289D01*
X137621669Y-86280551D01*
X137794597Y-86357544D01*
X137833281Y-86365767D01*
X137883842Y-86389343D01*
X137918950Y-86432699D01*
X137931500Y-86487057D01*
X137931500Y-87515513D01*
X137923264Y-87559951D01*
X137899652Y-87598482D01*
X137866545Y-87635251D01*
X137824464Y-87681986D01*
X137729820Y-87845915D01*
X137671326Y-88025942D01*
X137651540Y-88214200D01*
X137659500Y-88289939D01*
X137647629Y-88357259D01*
X137601889Y-88408058D01*
X137536179Y-88426900D01*
X116591652Y-88426900D01*
X116544199Y-88417461D01*
X116503971Y-88390581D01*
X114752789Y-86639399D01*
X120658940Y-86639399D01*
X120678726Y-86827657D01*
X120737220Y-87007684D01*
X120831866Y-87171616D01*
X120958529Y-87312289D01*
X121111669Y-87423551D01*
X121284597Y-87500544D01*
X121469752Y-87539900D01*
X121469754Y-87539900D01*
X121659046Y-87539900D01*
X121659048Y-87539900D01*
X121782484Y-87513662D01*
X121844203Y-87500544D01*
X122017130Y-87423551D01*
X122170271Y-87312288D01*
X122270000Y-87201527D01*
X122311715Y-87171220D01*
X122362150Y-87160500D01*
X132752920Y-87160500D01*
X132803355Y-87171220D01*
X132845070Y-87201528D01*
X132921929Y-87286889D01*
X133075069Y-87398151D01*
X133247997Y-87475144D01*
X133433152Y-87514500D01*
X133433154Y-87514500D01*
X133622446Y-87514500D01*
X133622448Y-87514500D01*
X133745883Y-87488262D01*
X133807603Y-87475144D01*
X133980530Y-87398151D01*
X133980530Y-87398150D01*
X134133670Y-87286889D01*
X134260333Y-87146216D01*
X134354979Y-86982284D01*
X134376013Y-86917547D01*
X134413474Y-86802256D01*
X134433260Y-86614000D01*
X134413474Y-86425744D01*
X134366298Y-86280551D01*
X134354979Y-86245715D01*
X134260333Y-86081783D01*
X134133670Y-85941110D01*
X133980530Y-85829848D01*
X133807602Y-85752855D01*
X133622448Y-85713500D01*
X133622446Y-85713500D01*
X133433154Y-85713500D01*
X133433152Y-85713500D01*
X133247997Y-85752855D01*
X133075069Y-85829848D01*
X132998034Y-85885818D01*
X132963467Y-85903431D01*
X132925149Y-85909500D01*
X122132090Y-85909500D01*
X122093772Y-85903431D01*
X122059205Y-85885818D01*
X122017130Y-85855249D01*
X121844202Y-85778255D01*
X121659048Y-85738900D01*
X121659046Y-85738900D01*
X121469754Y-85738900D01*
X121469752Y-85738900D01*
X121284597Y-85778255D01*
X121111669Y-85855248D01*
X120958529Y-85966510D01*
X120831866Y-86107183D01*
X120737220Y-86271115D01*
X120678726Y-86451142D01*
X120658940Y-86639399D01*
X114752789Y-86639399D01*
X112627602Y-84514211D01*
X112614706Y-84498113D01*
X112563575Y-84450098D01*
X112560778Y-84447387D01*
X112541268Y-84427877D01*
X112538092Y-84425413D01*
X112529234Y-84417849D01*
X112525622Y-84414457D01*
X112498113Y-84376459D01*
X112491513Y-84362306D01*
X112425235Y-84220171D01*
X112289695Y-84026599D01*
X112122601Y-83859505D01*
X111937039Y-83729573D01*
X111898175Y-83685257D01*
X111884164Y-83628000D01*
X111898175Y-83570743D01*
X111937039Y-83526426D01*
X112122601Y-83396495D01*
X112289695Y-83229401D01*
X112425235Y-83035830D01*
X112525103Y-82821663D01*
X112586263Y-82593408D01*
X112606859Y-82358000D01*
X112586263Y-82122592D01*
X112525103Y-81894337D01*
X112425235Y-81680171D01*
X112289695Y-81486599D01*
X112122601Y-81319505D01*
X111929030Y-81183965D01*
X111714863Y-81084097D01*
X111653701Y-81067709D01*
X111486607Y-81022936D01*
X111251200Y-81002340D01*
X111015792Y-81022936D01*
X110787536Y-81084097D01*
X110573370Y-81183965D01*
X110379798Y-81319505D01*
X110212705Y-81486598D01*
X110077165Y-81680170D01*
X109977297Y-81894336D01*
X109916136Y-82122592D01*
X109904012Y-82261170D01*
X109892866Y-82302767D01*
X109868165Y-82338043D01*
X109558681Y-82647527D01*
X109509318Y-82677777D01*
X109451602Y-82682319D01*
X109398115Y-82660164D01*
X109360515Y-82616141D01*
X109347000Y-82559846D01*
X109347000Y-80150299D01*
X149208540Y-80150299D01*
X149228326Y-80338557D01*
X149286820Y-80518584D01*
X149381466Y-80682516D01*
X149508129Y-80823189D01*
X149661269Y-80934451D01*
X149834197Y-81011444D01*
X150019352Y-81050800D01*
X150019354Y-81050800D01*
X150208646Y-81050800D01*
X150208648Y-81050800D01*
X150339737Y-81022936D01*
X150393803Y-81011444D01*
X150566730Y-80934451D01*
X150566729Y-80934451D01*
X150719870Y-80823189D01*
X150846533Y-80682516D01*
X150941179Y-80518584D01*
X150969380Y-80431791D01*
X150999674Y-80338556D01*
X151017321Y-80170644D01*
X151028721Y-80130225D01*
X151052958Y-80095930D01*
X157309670Y-73839219D01*
X157349899Y-73812339D01*
X157397352Y-73802900D01*
X162018599Y-73802900D01*
X162079696Y-73818996D01*
X162124931Y-73863107D01*
X162142560Y-73923779D01*
X162128006Y-73985261D01*
X162102305Y-74012980D01*
X162104242Y-74014799D01*
X162047496Y-74075225D01*
X162044791Y-74078017D01*
X162025274Y-74097534D01*
X162022815Y-74100705D01*
X162015242Y-74109572D01*
X161985335Y-74141420D01*
X161975685Y-74158974D01*
X161965009Y-74175228D01*
X161952726Y-74191063D01*
X161935375Y-74231158D01*
X161930238Y-74241644D01*
X161909202Y-74279907D01*
X161904221Y-74299309D01*
X161897920Y-74317711D01*
X161889961Y-74336102D01*
X161883128Y-74379242D01*
X161880760Y-74390674D01*
X161869900Y-74432978D01*
X161869900Y-74453016D01*
X161868373Y-74472413D01*
X161865240Y-74492196D01*
X161867194Y-74512864D01*
X161869350Y-74535675D01*
X161869900Y-74547344D01*
X161869900Y-81195852D01*
X161860461Y-81243305D01*
X161833581Y-81283533D01*
X160080089Y-83037023D01*
X160022406Y-83069659D01*
X159956154Y-83067924D01*
X159900258Y-83032314D01*
X159889270Y-83020110D01*
X159736130Y-82908848D01*
X159563202Y-82831855D01*
X159378048Y-82792500D01*
X159378046Y-82792500D01*
X159318852Y-82792500D01*
X159271399Y-82783061D01*
X159231171Y-82756181D01*
X158319619Y-81844628D01*
X158292739Y-81804400D01*
X158283300Y-81756947D01*
X158283300Y-81419887D01*
X158291536Y-81375449D01*
X158315147Y-81336917D01*
X158390333Y-81253416D01*
X158430431Y-81183965D01*
X158484979Y-81089484D01*
X158497548Y-81050800D01*
X158543474Y-80909456D01*
X158563260Y-80721200D01*
X158547165Y-80568069D01*
X158557206Y-80504677D01*
X158597601Y-80454794D01*
X158657525Y-80431791D01*
X158720922Y-80441833D01*
X158876597Y-80511144D01*
X159061752Y-80550500D01*
X159061754Y-80550500D01*
X159251046Y-80550500D01*
X159251048Y-80550500D01*
X159401200Y-80518584D01*
X159436203Y-80511144D01*
X159609130Y-80434151D01*
X159635937Y-80414675D01*
X159762270Y-80322889D01*
X159888933Y-80182216D01*
X159983579Y-80018284D01*
X159997146Y-79976529D01*
X160042074Y-79838256D01*
X160061860Y-79650000D01*
X160042074Y-79461744D01*
X159996957Y-79322888D01*
X159983579Y-79281715D01*
X159888933Y-79117783D01*
X159762270Y-78977110D01*
X159609130Y-78865848D01*
X159436202Y-78788855D01*
X159251048Y-78749500D01*
X159251046Y-78749500D01*
X159061754Y-78749500D01*
X159025394Y-78757228D01*
X158962532Y-78754262D01*
X158909222Y-78720820D01*
X158879194Y-78665514D01*
X158880183Y-78602590D01*
X158911931Y-78548259D01*
X159078775Y-78381415D01*
X159119000Y-78354539D01*
X159166453Y-78345100D01*
X159225648Y-78345100D01*
X159349083Y-78318862D01*
X159410803Y-78305744D01*
X159583730Y-78228751D01*
X159583729Y-78228751D01*
X159736870Y-78117489D01*
X159863533Y-77976816D01*
X159958179Y-77812884D01*
X159986696Y-77725117D01*
X160016674Y-77632856D01*
X160036460Y-77444600D01*
X160016674Y-77256344D01*
X159958179Y-77076316D01*
X159958179Y-77076315D01*
X159863533Y-76912383D01*
X159736870Y-76771710D01*
X159583730Y-76660448D01*
X159410802Y-76583455D01*
X159225648Y-76544100D01*
X159225646Y-76544100D01*
X159036354Y-76544100D01*
X159036352Y-76544100D01*
X158851197Y-76583455D01*
X158678269Y-76660448D01*
X158525129Y-76771710D01*
X158398466Y-76912383D01*
X158303820Y-77076315D01*
X158245326Y-77256342D01*
X158227679Y-77424249D01*
X158216279Y-77464670D01*
X158192039Y-77498968D01*
X155800808Y-79890199D01*
X155784710Y-79903096D01*
X155736696Y-79954225D01*
X155733991Y-79957017D01*
X155714474Y-79976534D01*
X155712015Y-79979705D01*
X155704442Y-79988572D01*
X155674535Y-80020420D01*
X155664885Y-80037974D01*
X155654209Y-80054228D01*
X155641926Y-80070063D01*
X155624575Y-80110158D01*
X155619438Y-80120644D01*
X155598402Y-80158907D01*
X155593421Y-80178309D01*
X155587120Y-80196711D01*
X155579161Y-80215102D01*
X155572328Y-80258242D01*
X155569960Y-80269674D01*
X155559100Y-80311978D01*
X155559100Y-80332016D01*
X155557573Y-80351415D01*
X155554440Y-80371194D01*
X155558550Y-80414675D01*
X155559100Y-80426344D01*
X155559100Y-83095913D01*
X155550864Y-83140351D01*
X155527252Y-83178882D01*
X155494145Y-83215651D01*
X155452064Y-83262386D01*
X155357420Y-83426315D01*
X155298926Y-83606342D01*
X155298925Y-83606344D01*
X155298926Y-83606344D01*
X155279140Y-83794600D01*
X155285962Y-83859505D01*
X155298926Y-83982857D01*
X155357420Y-84162884D01*
X155452066Y-84326816D01*
X155578729Y-84467489D01*
X155731865Y-84578749D01*
X155770387Y-84595900D01*
X155904797Y-84655744D01*
X155904798Y-84655744D01*
X155912156Y-84659020D01*
X155963543Y-84701532D01*
X155985475Y-84764514D01*
X155971609Y-84829749D01*
X155925955Y-84878365D01*
X155861720Y-84896300D01*
X154297547Y-84896300D01*
X154247112Y-84885580D01*
X154205398Y-84855273D01*
X154199671Y-84848912D01*
X154046530Y-84737649D01*
X154046529Y-84737648D01*
X154046527Y-84737647D01*
X153873602Y-84660655D01*
X153688448Y-84621300D01*
X153688446Y-84621300D01*
X153499154Y-84621300D01*
X153499152Y-84621300D01*
X153313997Y-84660655D01*
X153141069Y-84737648D01*
X152987929Y-84848910D01*
X152861266Y-84989583D01*
X152766620Y-85153515D01*
X152708126Y-85333542D01*
X152688340Y-85521799D01*
X152688340Y-85521800D01*
X152689673Y-85534484D01*
X152708126Y-85710057D01*
X152766620Y-85890084D01*
X152861266Y-86054016D01*
X152987929Y-86194689D01*
X153141069Y-86305951D01*
X153313997Y-86382944D01*
X153499152Y-86422300D01*
X153499154Y-86422300D01*
X153688446Y-86422300D01*
X153688448Y-86422300D01*
X153811884Y-86396062D01*
X153873603Y-86382944D01*
X154046530Y-86305951D01*
X154199671Y-86194688D01*
X154205398Y-86188326D01*
X154247112Y-86158020D01*
X154297547Y-86147300D01*
X158397161Y-86147300D01*
X158417667Y-86149564D01*
X158420570Y-86149472D01*
X158420572Y-86149473D01*
X158487777Y-86147361D01*
X158491673Y-86147300D01*
X158519254Y-86147300D01*
X158519255Y-86147300D01*
X158523224Y-86146798D01*
X158534870Y-86145880D01*
X158578532Y-86144509D01*
X158597764Y-86138920D01*
X158616823Y-86134974D01*
X158623101Y-86134181D01*
X158636697Y-86132464D01*
X158677312Y-86116382D01*
X158688349Y-86112603D01*
X158730295Y-86100418D01*
X158747534Y-86090222D01*
X158765007Y-86081662D01*
X158783637Y-86074286D01*
X158818969Y-86048614D01*
X158828735Y-86042200D01*
X158866323Y-86019971D01*
X158866322Y-86019971D01*
X158866325Y-86019970D01*
X158880490Y-86005804D01*
X158895279Y-85993172D01*
X158911492Y-85981394D01*
X158939354Y-85947714D01*
X158947184Y-85939110D01*
X162434019Y-82452275D01*
X162483382Y-82422026D01*
X162541098Y-82417484D01*
X162594585Y-82439639D01*
X162632185Y-82483662D01*
X162645700Y-82539957D01*
X162645700Y-83326813D01*
X162637464Y-83371251D01*
X162613852Y-83409782D01*
X162580745Y-83446551D01*
X162538664Y-83493286D01*
X162444020Y-83657215D01*
X162385526Y-83837242D01*
X162385525Y-83837244D01*
X162385526Y-83837244D01*
X162365740Y-84025500D01*
X162365856Y-84026599D01*
X162385526Y-84213757D01*
X162444020Y-84393784D01*
X162538664Y-84557713D01*
X162538667Y-84557716D01*
X162613852Y-84641217D01*
X162637464Y-84679749D01*
X162645700Y-84724187D01*
X162645700Y-85277503D01*
X162637464Y-85321941D01*
X162613850Y-85360475D01*
X162513266Y-85472183D01*
X162418620Y-85636115D01*
X162360126Y-85816142D01*
X162340340Y-86004400D01*
X162360126Y-86192657D01*
X162418620Y-86372684D01*
X162513264Y-86536613D01*
X162531341Y-86556689D01*
X162588452Y-86620117D01*
X162612064Y-86658649D01*
X162620300Y-86703087D01*
X162620300Y-87566313D01*
X162612064Y-87610751D01*
X162588452Y-87649282D01*
X162559008Y-87681984D01*
X162513264Y-87732786D01*
X162418620Y-87896715D01*
X162360126Y-88076742D01*
X162340340Y-88264999D01*
X162360126Y-88453257D01*
X162418620Y-88633284D01*
X162513264Y-88797213D01*
X162513267Y-88797216D01*
X162588452Y-88880717D01*
X162612064Y-88919249D01*
X162620300Y-88963687D01*
X162620300Y-90153747D01*
X162610861Y-90201200D01*
X162583981Y-90241428D01*
X160755646Y-92069761D01*
X160700059Y-92101855D01*
X160635873Y-92101855D01*
X160535408Y-92074936D01*
X160299999Y-92054340D01*
X160064592Y-92074936D01*
X159836336Y-92136097D01*
X159622170Y-92235965D01*
X159428598Y-92371505D01*
X159261505Y-92538598D01*
X159125965Y-92732170D01*
X159026097Y-92946336D01*
X158964936Y-93174592D01*
X158944340Y-93410000D01*
X158964936Y-93645407D01*
X159000460Y-93777983D01*
X159026097Y-93873663D01*
X159125965Y-94087830D01*
X159261505Y-94281401D01*
X159428599Y-94448495D01*
X159614160Y-94578426D01*
X159653024Y-94622743D01*
X159667035Y-94680000D01*
X159653024Y-94737257D01*
X159614158Y-94781575D01*
X159431950Y-94909159D01*
X159428595Y-94911508D01*
X159261505Y-95078598D01*
X159125965Y-95272170D01*
X159026097Y-95486336D01*
X158964936Y-95714592D01*
X158944340Y-95950000D01*
X158964936Y-96185407D01*
X158999485Y-96314344D01*
X159026097Y-96413663D01*
X159125965Y-96627830D01*
X159261505Y-96821401D01*
X159428599Y-96988495D01*
X159614597Y-97118732D01*
X159653460Y-97163048D01*
X159667471Y-97220305D01*
X159653461Y-97277561D01*
X159614595Y-97321880D01*
X159428919Y-97451892D01*
X159261890Y-97618921D01*
X159126400Y-97812421D01*
X159026569Y-98026507D01*
X158969364Y-98239999D01*
X158969364Y-98240000D01*
X160426000Y-98240000D01*
X160488000Y-98256613D01*
X160533387Y-98302000D01*
X160550000Y-98364000D01*
X160550000Y-98616000D01*
X160533387Y-98678000D01*
X160488000Y-98723387D01*
X160426000Y-98740000D01*
X158969364Y-98740000D01*
X159026569Y-98953492D01*
X159126399Y-99167576D01*
X159261893Y-99361081D01*
X159428918Y-99528106D01*
X159614595Y-99658119D01*
X159653460Y-99702437D01*
X159667471Y-99759694D01*
X159653460Y-99816951D01*
X159614595Y-99861269D01*
X159428595Y-99991508D01*
X159261505Y-100158598D01*
X159125965Y-100352170D01*
X159026097Y-100566336D01*
X158964936Y-100794592D01*
X158944340Y-101029999D01*
X158964936Y-101265407D01*
X158999796Y-101395504D01*
X159026097Y-101493663D01*
X159125965Y-101707830D01*
X159261505Y-101901401D01*
X159428599Y-102068495D01*
X159614160Y-102198426D01*
X159653024Y-102242743D01*
X159667035Y-102300000D01*
X159653024Y-102357257D01*
X159614159Y-102401575D01*
X159428595Y-102531508D01*
X159261505Y-102698598D01*
X159125966Y-102892168D01*
X159086892Y-102975963D01*
X159049996Y-103021933D01*
X158996042Y-103045673D01*
X158937222Y-103041818D01*
X158886829Y-103011238D01*
X154548819Y-98673228D01*
X154521939Y-98633000D01*
X154512500Y-98585547D01*
X154512500Y-97302344D01*
X154514764Y-97281837D01*
X154512561Y-97211727D01*
X154512500Y-97207832D01*
X154512500Y-97180253D01*
X154511997Y-97176272D01*
X154511080Y-97164619D01*
X154511031Y-97163048D01*
X154509709Y-97120973D01*
X154504120Y-97101740D01*
X154500174Y-97082682D01*
X154497664Y-97062806D01*
X154481588Y-97022204D01*
X154477804Y-97011153D01*
X154471220Y-96988491D01*
X154465618Y-96969210D01*
X154455414Y-96951955D01*
X154446861Y-96934495D01*
X154439486Y-96915868D01*
X154413808Y-96880525D01*
X154407401Y-96870771D01*
X154385170Y-96833180D01*
X154371005Y-96819015D01*
X154358367Y-96804217D01*
X154346595Y-96788013D01*
X154312941Y-96760173D01*
X154304299Y-96752309D01*
X153713602Y-96161611D01*
X153700706Y-96145513D01*
X153649575Y-96097498D01*
X153646778Y-96094787D01*
X153627270Y-96075279D01*
X153624090Y-96072812D01*
X153615224Y-96065239D01*
X153583382Y-96035338D01*
X153565824Y-96025685D01*
X153549564Y-96015004D01*
X153533736Y-96002727D01*
X153493651Y-95985380D01*
X153483161Y-95980241D01*
X153444891Y-95959202D01*
X153425491Y-95954221D01*
X153407084Y-95947919D01*
X153388697Y-95939962D01*
X153345558Y-95933129D01*
X153334124Y-95930761D01*
X153276648Y-95916005D01*
X153277267Y-95913591D01*
X153256513Y-95909180D01*
X153214799Y-95878874D01*
X153209071Y-95872512D01*
X153138837Y-95821484D01*
X153055930Y-95761248D01*
X152883002Y-95684255D01*
X152697848Y-95644900D01*
X152697846Y-95644900D01*
X152508554Y-95644900D01*
X152508552Y-95644900D01*
X152323397Y-95684255D01*
X152150469Y-95761248D01*
X151997329Y-95872510D01*
X151870666Y-96013183D01*
X151776020Y-96177115D01*
X151717526Y-96357142D01*
X151697740Y-96545399D01*
X151717526Y-96733657D01*
X151776020Y-96913684D01*
X151870666Y-97077616D01*
X151888505Y-97097428D01*
X151916672Y-97150402D01*
X151916672Y-97210398D01*
X151888505Y-97263372D01*
X151870666Y-97283183D01*
X151776020Y-97447115D01*
X151717526Y-97627142D01*
X151697740Y-97815399D01*
X151717526Y-98003657D01*
X151776020Y-98183684D01*
X151870666Y-98347616D01*
X151948751Y-98434338D01*
X151971651Y-98471056D01*
X151979472Y-98508321D01*
X151986079Y-98531060D01*
X151990025Y-98550116D01*
X151992535Y-98569992D01*
X152008614Y-98610604D01*
X152012397Y-98621651D01*
X152024582Y-98663591D01*
X152034780Y-98680835D01*
X152043336Y-98698300D01*
X152050714Y-98716932D01*
X152050715Y-98716933D01*
X152076380Y-98752259D01*
X152082793Y-98762022D01*
X152105026Y-98799616D01*
X152105029Y-98799619D01*
X152105030Y-98799620D01*
X152119195Y-98813785D01*
X152131827Y-98828575D01*
X152143606Y-98844787D01*
X152177258Y-98872626D01*
X152185899Y-98880489D01*
X158959761Y-105654352D01*
X158991855Y-105709939D01*
X158991855Y-105774125D01*
X158964936Y-105874591D01*
X158944340Y-106110000D01*
X158964936Y-106345407D01*
X159009709Y-106512501D01*
X159026097Y-106573663D01*
X159125965Y-106787830D01*
X159261505Y-106981401D01*
X159428599Y-107148495D01*
X159614160Y-107278426D01*
X159653024Y-107322743D01*
X159667035Y-107380000D01*
X159653024Y-107437257D01*
X159614158Y-107481575D01*
X159434235Y-107607559D01*
X159428595Y-107611508D01*
X159261505Y-107778598D01*
X159125965Y-107972170D01*
X159026097Y-108186336D01*
X158964936Y-108414592D01*
X158944340Y-108650000D01*
X158964936Y-108885407D01*
X158982039Y-108949236D01*
X159026097Y-109113663D01*
X159125965Y-109327830D01*
X159261505Y-109521401D01*
X159428599Y-109688495D01*
X159622170Y-109824035D01*
X159836337Y-109923903D01*
X160064592Y-109985063D01*
X160300000Y-110005659D01*
X160535408Y-109985063D01*
X160763663Y-109923903D01*
X160977830Y-109824035D01*
X161171401Y-109688495D01*
X161338495Y-109521401D01*
X161474035Y-109327830D01*
X161573903Y-109113663D01*
X161635063Y-108885408D01*
X161655659Y-108650000D01*
X161635063Y-108414592D01*
X161573903Y-108186337D01*
X161474035Y-107972171D01*
X161338495Y-107778599D01*
X161171401Y-107611505D01*
X160985839Y-107481573D01*
X160946975Y-107437257D01*
X160932964Y-107380000D01*
X160946975Y-107322743D01*
X160985839Y-107278426D01*
X161171401Y-107148495D01*
X161338495Y-106981401D01*
X161474035Y-106787830D01*
X161573903Y-106573663D01*
X161635063Y-106345408D01*
X161652159Y-106149999D01*
X168944340Y-106149999D01*
X168964936Y-106385407D01*
X169009709Y-106552501D01*
X169026097Y-106613663D01*
X169125965Y-106827830D01*
X169261505Y-107021401D01*
X169428599Y-107188495D01*
X169622170Y-107324035D01*
X169836337Y-107423903D01*
X170064592Y-107485063D01*
X170300000Y-107505659D01*
X170535408Y-107485063D01*
X170763663Y-107423903D01*
X170977830Y-107324035D01*
X171171401Y-107188495D01*
X171338495Y-107021401D01*
X171474035Y-106827830D01*
X171573903Y-106613663D01*
X171635063Y-106385408D01*
X171655659Y-106150000D01*
X171655361Y-106146599D01*
X171635063Y-105914592D01*
X171584437Y-105725652D01*
X171573903Y-105686337D01*
X171474035Y-105472171D01*
X171338495Y-105278599D01*
X171171401Y-105111505D01*
X170985839Y-104981573D01*
X170946974Y-104937255D01*
X170932964Y-104879999D01*
X170946975Y-104822742D01*
X170985837Y-104778428D01*
X171171401Y-104648495D01*
X171338495Y-104481401D01*
X171474035Y-104287830D01*
X171477686Y-104280000D01*
X177674340Y-104280000D01*
X177694936Y-104515407D01*
X177730597Y-104648495D01*
X177756097Y-104743663D01*
X177855965Y-104957830D01*
X177991505Y-105151401D01*
X178158599Y-105318495D01*
X178352170Y-105454035D01*
X178566337Y-105553903D01*
X178794592Y-105615063D01*
X179030000Y-105635659D01*
X179265408Y-105615063D01*
X179493663Y-105553903D01*
X179707830Y-105454035D01*
X179901401Y-105318495D01*
X180068495Y-105151401D01*
X180204035Y-104957830D01*
X180303903Y-104743663D01*
X180365063Y-104515408D01*
X180385659Y-104280000D01*
X180365063Y-104044592D01*
X180303903Y-103816337D01*
X180204035Y-103602171D01*
X180068495Y-103408599D01*
X179901401Y-103241505D01*
X179715402Y-103111267D01*
X179676539Y-103066951D01*
X179662528Y-103009694D01*
X179676539Y-102952437D01*
X179715405Y-102908119D01*
X179901078Y-102778109D01*
X180068106Y-102611081D01*
X180203600Y-102417576D01*
X180303430Y-102203492D01*
X180360636Y-101990000D01*
X177699364Y-101990000D01*
X177756569Y-102203492D01*
X177856399Y-102417576D01*
X177991893Y-102611081D01*
X178158918Y-102778106D01*
X178344595Y-102908119D01*
X178383460Y-102952437D01*
X178397471Y-103009694D01*
X178383460Y-103066951D01*
X178344595Y-103111269D01*
X178158595Y-103241508D01*
X177991505Y-103408598D01*
X177855965Y-103602170D01*
X177756097Y-103816336D01*
X177694936Y-104044592D01*
X177674340Y-104280000D01*
X171477686Y-104280000D01*
X171573903Y-104073663D01*
X171635063Y-103845408D01*
X171655659Y-103610000D01*
X171635063Y-103374592D01*
X171573903Y-103146337D01*
X171474035Y-102932171D01*
X171338495Y-102738599D01*
X171171401Y-102571505D01*
X170985839Y-102441573D01*
X170946974Y-102397255D01*
X170932964Y-102339999D01*
X170946975Y-102282742D01*
X170985837Y-102238428D01*
X171171401Y-102108495D01*
X171338495Y-101941401D01*
X171474035Y-101747830D01*
X171573903Y-101533663D01*
X171635063Y-101305408D01*
X171655659Y-101070000D01*
X171653906Y-101049969D01*
X171635063Y-100834592D01*
X171619521Y-100776588D01*
X171573903Y-100606337D01*
X171474035Y-100392171D01*
X171338495Y-100198599D01*
X171171401Y-100031505D01*
X170985839Y-99901573D01*
X170946974Y-99857255D01*
X170932964Y-99799999D01*
X170946975Y-99742742D01*
X170985837Y-99698428D01*
X171171401Y-99568495D01*
X171338495Y-99401401D01*
X171474035Y-99207830D01*
X171477687Y-99199999D01*
X177674340Y-99199999D01*
X177694936Y-99435407D01*
X177730597Y-99568495D01*
X177756097Y-99663663D01*
X177855965Y-99877830D01*
X177991505Y-100071401D01*
X178158599Y-100238495D01*
X178344597Y-100368732D01*
X178383460Y-100413048D01*
X178397471Y-100470305D01*
X178383461Y-100527561D01*
X178344595Y-100571880D01*
X178158919Y-100701892D01*
X177991890Y-100868921D01*
X177856400Y-101062421D01*
X177756569Y-101276507D01*
X177699364Y-101489999D01*
X177699364Y-101490000D01*
X180360636Y-101490000D01*
X180360635Y-101489999D01*
X180303430Y-101276507D01*
X180203599Y-101062421D01*
X180068109Y-100868921D01*
X179901081Y-100701893D01*
X179715404Y-100571880D01*
X179676539Y-100527562D01*
X179662528Y-100470305D01*
X179676539Y-100413048D01*
X179715402Y-100368732D01*
X179901401Y-100238495D01*
X180068495Y-100071401D01*
X180204035Y-99877830D01*
X180303903Y-99663663D01*
X180365063Y-99435408D01*
X180385659Y-99200000D01*
X180365063Y-98964592D01*
X180303903Y-98736337D01*
X180204035Y-98522171D01*
X180068495Y-98328599D01*
X179901401Y-98161505D01*
X179715839Y-98031573D01*
X179676975Y-97987257D01*
X179662964Y-97930000D01*
X179676975Y-97872743D01*
X179715839Y-97828426D01*
X179901401Y-97698495D01*
X180068495Y-97531401D01*
X180204035Y-97337830D01*
X180303903Y-97123663D01*
X180365063Y-96895408D01*
X180385659Y-96660000D01*
X180382844Y-96627830D01*
X180365063Y-96424592D01*
X180351039Y-96372253D01*
X180303903Y-96196337D01*
X180204035Y-95982171D01*
X180068495Y-95788599D01*
X179901401Y-95621505D01*
X179715839Y-95491573D01*
X179676975Y-95447257D01*
X179662964Y-95390000D01*
X179676975Y-95332743D01*
X179715839Y-95288426D01*
X179901401Y-95158495D01*
X180068495Y-94991401D01*
X180204035Y-94797830D01*
X180303903Y-94583663D01*
X180365063Y-94355408D01*
X180385659Y-94120000D01*
X180365063Y-93884592D01*
X180303903Y-93656337D01*
X180204035Y-93442171D01*
X180068495Y-93248599D01*
X179901401Y-93081505D01*
X179707830Y-92945965D01*
X179493663Y-92846097D01*
X179432502Y-92829709D01*
X179265407Y-92784936D01*
X179029999Y-92764340D01*
X178794592Y-92784936D01*
X178566336Y-92846097D01*
X178352170Y-92945965D01*
X178158598Y-93081505D01*
X177991505Y-93248598D01*
X177855965Y-93442170D01*
X177756097Y-93656336D01*
X177694936Y-93884592D01*
X177674340Y-94120000D01*
X177694936Y-94355407D01*
X177701572Y-94380171D01*
X177756097Y-94583663D01*
X177855965Y-94797830D01*
X177991505Y-94991401D01*
X178158599Y-95158495D01*
X178344160Y-95288426D01*
X178383024Y-95332743D01*
X178397035Y-95390000D01*
X178383024Y-95447257D01*
X178344158Y-95491575D01*
X178228442Y-95572601D01*
X178158595Y-95621508D01*
X177991505Y-95788598D01*
X177855965Y-95982170D01*
X177756097Y-96196336D01*
X177694936Y-96424592D01*
X177674340Y-96659999D01*
X177694936Y-96895407D01*
X177725950Y-97011153D01*
X177756097Y-97123663D01*
X177855965Y-97337830D01*
X177991505Y-97531401D01*
X178158599Y-97698495D01*
X178344160Y-97828426D01*
X178383024Y-97872743D01*
X178397035Y-97930000D01*
X178383024Y-97987257D01*
X178344158Y-98031575D01*
X178167747Y-98155100D01*
X178158595Y-98161508D01*
X177991505Y-98328598D01*
X177855965Y-98522170D01*
X177756097Y-98736336D01*
X177694936Y-98964592D01*
X177674340Y-99199999D01*
X171477687Y-99199999D01*
X171573903Y-98993663D01*
X171635063Y-98765408D01*
X171655659Y-98530000D01*
X171647289Y-98434338D01*
X171635063Y-98294592D01*
X171616429Y-98225048D01*
X171573903Y-98066337D01*
X171474035Y-97852171D01*
X171338495Y-97658599D01*
X171171401Y-97491505D01*
X170985839Y-97361573D01*
X170946975Y-97317257D01*
X170932964Y-97260000D01*
X170946975Y-97202743D01*
X170985839Y-97158426D01*
X171171401Y-97028495D01*
X171338495Y-96861401D01*
X171474035Y-96667830D01*
X171573903Y-96453663D01*
X171635063Y-96225408D01*
X171655659Y-95990000D01*
X171635063Y-95754592D01*
X171573903Y-95526337D01*
X171474035Y-95312171D01*
X171338495Y-95118599D01*
X171171401Y-94951505D01*
X170977830Y-94815965D01*
X170763663Y-94716097D01*
X170702502Y-94699709D01*
X170535407Y-94654936D01*
X170300000Y-94634340D01*
X170064592Y-94654936D01*
X169836336Y-94716097D01*
X169622170Y-94815965D01*
X169428598Y-94951505D01*
X169261505Y-95118598D01*
X169125965Y-95312170D01*
X169026097Y-95526336D01*
X168964936Y-95754592D01*
X168944340Y-95990000D01*
X168964936Y-96225407D01*
X169005616Y-96377225D01*
X169026097Y-96453663D01*
X169125965Y-96667830D01*
X169261505Y-96861401D01*
X169428599Y-97028495D01*
X169614160Y-97158426D01*
X169653024Y-97202743D01*
X169667035Y-97260000D01*
X169653024Y-97317257D01*
X169614159Y-97361575D01*
X169583738Y-97382875D01*
X169485173Y-97451892D01*
X169428595Y-97491508D01*
X169261505Y-97658598D01*
X169125965Y-97852170D01*
X169026097Y-98066336D01*
X168964936Y-98294592D01*
X168944340Y-98529999D01*
X168964936Y-98765407D01*
X168994664Y-98876352D01*
X169026097Y-98993663D01*
X169125965Y-99207830D01*
X169261505Y-99401401D01*
X169428599Y-99568495D01*
X169614160Y-99698426D01*
X169653024Y-99742743D01*
X169667035Y-99800000D01*
X169653024Y-99857257D01*
X169614159Y-99901575D01*
X169428595Y-100031508D01*
X169261505Y-100198598D01*
X169125965Y-100392170D01*
X169026097Y-100606336D01*
X168964936Y-100834592D01*
X168944340Y-101069999D01*
X168964936Y-101305407D01*
X168989078Y-101395504D01*
X169026097Y-101533663D01*
X169125965Y-101747830D01*
X169261505Y-101941401D01*
X169428599Y-102108495D01*
X169614160Y-102238426D01*
X169653024Y-102282743D01*
X169667035Y-102340000D01*
X169653024Y-102397257D01*
X169614159Y-102441575D01*
X169428595Y-102571508D01*
X169261505Y-102738598D01*
X169125965Y-102932170D01*
X169026097Y-103146336D01*
X168964936Y-103374592D01*
X168944340Y-103610000D01*
X168964936Y-103845407D01*
X169009709Y-104012502D01*
X169026097Y-104073663D01*
X169125965Y-104287830D01*
X169261505Y-104481401D01*
X169428599Y-104648495D01*
X169614160Y-104778426D01*
X169653024Y-104822743D01*
X169667035Y-104880000D01*
X169653024Y-104937257D01*
X169614160Y-104981574D01*
X169444278Y-105100527D01*
X169428595Y-105111508D01*
X169261505Y-105278598D01*
X169125965Y-105472170D01*
X169026097Y-105686336D01*
X168964936Y-105914592D01*
X168944340Y-106149999D01*
X161652159Y-106149999D01*
X161655659Y-106110000D01*
X161635063Y-105874592D01*
X161573903Y-105646337D01*
X161502092Y-105492340D01*
X161490477Y-105440585D01*
X161501551Y-105388710D01*
X161533290Y-105346208D01*
X161557694Y-105332931D01*
X161556904Y-105331594D01*
X161579052Y-105318495D01*
X161587629Y-105313422D01*
X161605102Y-105304862D01*
X161623732Y-105297486D01*
X161659064Y-105271814D01*
X161668830Y-105265400D01*
X161706418Y-105243171D01*
X161706417Y-105243171D01*
X161706420Y-105243170D01*
X161720585Y-105229004D01*
X161735373Y-105216373D01*
X161751587Y-105204594D01*
X161779438Y-105170926D01*
X161787279Y-105162309D01*
X164617587Y-102332002D01*
X164646098Y-102310712D01*
X164679478Y-102298397D01*
X164750303Y-102283344D01*
X164750304Y-102283343D01*
X164750306Y-102283343D01*
X164923230Y-102206351D01*
X165076370Y-102095089D01*
X165100316Y-102068495D01*
X165203033Y-101954416D01*
X165297679Y-101790484D01*
X165356174Y-101610456D01*
X165375960Y-101422200D01*
X165356174Y-101233944D01*
X165325560Y-101139725D01*
X165301469Y-101065579D01*
X165295400Y-101027261D01*
X165295400Y-85928200D01*
X168134985Y-85928200D01*
X168153802Y-86131283D01*
X168209618Y-86327451D01*
X168300524Y-86510018D01*
X168423436Y-86672780D01*
X168574158Y-86810181D01*
X168747561Y-86917547D01*
X168747563Y-86917548D01*
X168937744Y-86991224D01*
X169138224Y-87028700D01*
X169342174Y-87028700D01*
X169342176Y-87028700D01*
X169542656Y-86991224D01*
X169732837Y-86917548D01*
X169906241Y-86810181D01*
X170056964Y-86672779D01*
X170179873Y-86510021D01*
X170179873Y-86510019D01*
X170179875Y-86510018D01*
X170239963Y-86389343D01*
X170270782Y-86327450D01*
X170326597Y-86131283D01*
X170345415Y-85928200D01*
X170326597Y-85725117D01*
X170326460Y-85724637D01*
X170296810Y-85620427D01*
X170270782Y-85528950D01*
X170237678Y-85462467D01*
X170179875Y-85346381D01*
X170056963Y-85183619D01*
X169906241Y-85046218D01*
X169732838Y-84938852D01*
X169542657Y-84865176D01*
X169455640Y-84848910D01*
X169342176Y-84827700D01*
X169138224Y-84827700D01*
X169037983Y-84846438D01*
X168937742Y-84865176D01*
X168747561Y-84938852D01*
X168574158Y-85046218D01*
X168423436Y-85183619D01*
X168300524Y-85346381D01*
X168209618Y-85528948D01*
X168153802Y-85725116D01*
X168134985Y-85928200D01*
X165295400Y-85928200D01*
X165295400Y-77928200D01*
X168134985Y-77928200D01*
X168153802Y-78131283D01*
X168209618Y-78327451D01*
X168300524Y-78510018D01*
X168423436Y-78672780D01*
X168574158Y-78810181D01*
X168671172Y-78870249D01*
X168747563Y-78917548D01*
X168937744Y-78991224D01*
X169138224Y-79028700D01*
X169342174Y-79028700D01*
X169342176Y-79028700D01*
X169542656Y-78991224D01*
X169732837Y-78917548D01*
X169906241Y-78810181D01*
X169929635Y-78788855D01*
X170056963Y-78672780D01*
X170074166Y-78650000D01*
X170179873Y-78510021D01*
X170179873Y-78510019D01*
X170179875Y-78510018D01*
X170261993Y-78345100D01*
X170270782Y-78327450D01*
X170326597Y-78131283D01*
X170345415Y-77928200D01*
X170326597Y-77725117D01*
X170270782Y-77528950D01*
X170228781Y-77444600D01*
X170179875Y-77346381D01*
X170056963Y-77183619D01*
X169906241Y-77046218D01*
X169732838Y-76938852D01*
X169542657Y-76865176D01*
X169475829Y-76852684D01*
X169342176Y-76827700D01*
X169138224Y-76827700D01*
X169037983Y-76846438D01*
X168937742Y-76865176D01*
X168747561Y-76938852D01*
X168574158Y-77046218D01*
X168423436Y-77183619D01*
X168300524Y-77346381D01*
X168209618Y-77528948D01*
X168153802Y-77725116D01*
X168134985Y-77928200D01*
X165295400Y-77928200D01*
X165295400Y-75293840D01*
X165297663Y-75273336D01*
X165295461Y-75203244D01*
X165295400Y-75199350D01*
X165295400Y-75171757D01*
X165295400Y-75171750D01*
X165294895Y-75167753D01*
X165293980Y-75156123D01*
X165292609Y-75112472D01*
X165287019Y-75093234D01*
X165283074Y-75074182D01*
X165280564Y-75054308D01*
X165280563Y-75054307D01*
X165264478Y-75013681D01*
X165260699Y-75002640D01*
X165245300Y-74949636D01*
X165241055Y-74902080D01*
X165243460Y-74879200D01*
X165223674Y-74690944D01*
X165218208Y-74674123D01*
X165213517Y-74617371D01*
X165234689Y-74564505D01*
X165277259Y-74526677D01*
X165332245Y-74511867D01*
X165350027Y-74511309D01*
X165369259Y-74505720D01*
X165388318Y-74501774D01*
X165394596Y-74500981D01*
X165408192Y-74499264D01*
X165448807Y-74483182D01*
X165459844Y-74479403D01*
X165501790Y-74467218D01*
X165519029Y-74457022D01*
X165536502Y-74448462D01*
X165555132Y-74441086D01*
X165590464Y-74415414D01*
X165600230Y-74409000D01*
X165637818Y-74386771D01*
X165637817Y-74386771D01*
X165637820Y-74386770D01*
X165651985Y-74372604D01*
X165666773Y-74359973D01*
X165682987Y-74348194D01*
X165710838Y-74314526D01*
X165718679Y-74305909D01*
X167934353Y-72090235D01*
X167989939Y-72058143D01*
X168054126Y-72058143D01*
X168154592Y-72085063D01*
X168311530Y-72098793D01*
X168389999Y-72105659D01*
X168389999Y-72105658D01*
X168390000Y-72105659D01*
X168625408Y-72085063D01*
X168853663Y-72023903D01*
X169067830Y-71924035D01*
X169261401Y-71788495D01*
X169428495Y-71621401D01*
X169558426Y-71435839D01*
X169602743Y-71396975D01*
X169660000Y-71382964D01*
X169717257Y-71396975D01*
X169761573Y-71435839D01*
X169891505Y-71621401D01*
X170058599Y-71788495D01*
X170252170Y-71924035D01*
X170466337Y-72023903D01*
X170688206Y-72083352D01*
X170694592Y-72085063D01*
X170929999Y-72105659D01*
X170929999Y-72105658D01*
X170930000Y-72105659D01*
X171165408Y-72085063D01*
X171393663Y-72023903D01*
X171607830Y-71924035D01*
X171801401Y-71788495D01*
X171968495Y-71621401D01*
X172098426Y-71435839D01*
X172142743Y-71396975D01*
X172200000Y-71382964D01*
X172257257Y-71396975D01*
X172301573Y-71435839D01*
X172431505Y-71621401D01*
X172598599Y-71788495D01*
X172792170Y-71924035D01*
X173006337Y-72023903D01*
X173228206Y-72083352D01*
X173234592Y-72085063D01*
X173469999Y-72105659D01*
X173469999Y-72105658D01*
X173470000Y-72105659D01*
X173705408Y-72085063D01*
X173933663Y-72023903D01*
X174147830Y-71924035D01*
X174341401Y-71788495D01*
X174508495Y-71621401D01*
X174644035Y-71427830D01*
X174743903Y-71213663D01*
X174805063Y-70985408D01*
X174825659Y-70750000D01*
X174817042Y-70651515D01*
X174805063Y-70514592D01*
X174793451Y-70471254D01*
X174743903Y-70286337D01*
X174644035Y-70072171D01*
X174508495Y-69878599D01*
X174341401Y-69711505D01*
X174147830Y-69575965D01*
X173933663Y-69476097D01*
X173854688Y-69454936D01*
X173705407Y-69414936D01*
X173469999Y-69394340D01*
X173234592Y-69414936D01*
X173006336Y-69476097D01*
X172792170Y-69575965D01*
X172598598Y-69711505D01*
X172431505Y-69878598D01*
X172301575Y-70064159D01*
X172257257Y-70103025D01*
X172200000Y-70117036D01*
X172142743Y-70103025D01*
X172098425Y-70064159D01*
X172072221Y-70026736D01*
X171968495Y-69878599D01*
X171801401Y-69711505D01*
X171607830Y-69575965D01*
X171393663Y-69476097D01*
X171314688Y-69454936D01*
X171165407Y-69414936D01*
X170929999Y-69394340D01*
X170694592Y-69414936D01*
X170466336Y-69476097D01*
X170252170Y-69575965D01*
X170058598Y-69711505D01*
X169891505Y-69878598D01*
X169761575Y-70064159D01*
X169717257Y-70103025D01*
X169660000Y-70117036D01*
X169602743Y-70103025D01*
X169558425Y-70064159D01*
X169532221Y-70026736D01*
X169428495Y-69878599D01*
X169261401Y-69711505D01*
X169067830Y-69575965D01*
X168853663Y-69476097D01*
X168774688Y-69454936D01*
X168625407Y-69414936D01*
X168389999Y-69394340D01*
X168154592Y-69414936D01*
X167926336Y-69476097D01*
X167712170Y-69575965D01*
X167518598Y-69711505D01*
X167351505Y-69878598D01*
X167221575Y-70064159D01*
X167177257Y-70103025D01*
X167120000Y-70117036D01*
X167062743Y-70103025D01*
X167018425Y-70064159D01*
X166992221Y-70026736D01*
X166888495Y-69878599D01*
X166721401Y-69711505D01*
X166527830Y-69575965D01*
X166313663Y-69476097D01*
X166234688Y-69454936D01*
X166085407Y-69414936D01*
X165849999Y-69394340D01*
X165614592Y-69414936D01*
X165386336Y-69476097D01*
X165172170Y-69575965D01*
X164978601Y-69711503D01*
X164856285Y-69833819D01*
X164803539Y-69865114D01*
X164742246Y-69867303D01*
X164687401Y-69839850D01*
X164652422Y-69789471D01*
X164603352Y-69657911D01*
X164517188Y-69542811D01*
X164402089Y-69456647D01*
X164267375Y-69406402D01*
X164207824Y-69400000D01*
X163560000Y-69400000D01*
X163560000Y-72104046D01*
X163550561Y-72151499D01*
X163523681Y-72191727D01*
X163199827Y-72515581D01*
X163159599Y-72542461D01*
X163112146Y-72551900D01*
X157169644Y-72551900D01*
X157149136Y-72549635D01*
X157079013Y-72551839D01*
X157075119Y-72551900D01*
X157047550Y-72551900D01*
X157043571Y-72552402D01*
X157031941Y-72553317D01*
X156988272Y-72554689D01*
X156969028Y-72560280D01*
X156949984Y-72564224D01*
X156930108Y-72566735D01*
X156889500Y-72582813D01*
X156878454Y-72586594D01*
X156872105Y-72588440D01*
X156836507Y-72598783D01*
X156819265Y-72608979D01*
X156801804Y-72617533D01*
X156783167Y-72624912D01*
X156747831Y-72650585D01*
X156738074Y-72656995D01*
X156700480Y-72679229D01*
X156686313Y-72693396D01*
X156671524Y-72706026D01*
X156655313Y-72717804D01*
X156627472Y-72751458D01*
X156619611Y-72760097D01*
X150166228Y-79213481D01*
X150126000Y-79240361D01*
X150078547Y-79249800D01*
X150019352Y-79249800D01*
X149834197Y-79289155D01*
X149661269Y-79366148D01*
X149508129Y-79477410D01*
X149381466Y-79618083D01*
X149286820Y-79782015D01*
X149228326Y-79962042D01*
X149208540Y-80150299D01*
X109347000Y-80150299D01*
X109347000Y-78650000D01*
X124444540Y-78650000D01*
X124464326Y-78838257D01*
X124522820Y-79018284D01*
X124617466Y-79182216D01*
X124744129Y-79322889D01*
X124897269Y-79434151D01*
X125070197Y-79511144D01*
X125255352Y-79550500D01*
X125255354Y-79550500D01*
X125444646Y-79550500D01*
X125444648Y-79550500D01*
X125568084Y-79524262D01*
X125629803Y-79511144D01*
X125802730Y-79434151D01*
X125896327Y-79366149D01*
X125955870Y-79322889D01*
X125986244Y-79289156D01*
X126082533Y-79182216D01*
X126177179Y-79018284D01*
X126235674Y-78838256D01*
X126255460Y-78650000D01*
X126235674Y-78461744D01*
X126181268Y-78294300D01*
X126177179Y-78281715D01*
X126082535Y-78117786D01*
X126057528Y-78090013D01*
X126007347Y-78034282D01*
X125983736Y-77995751D01*
X125975500Y-77951313D01*
X125975500Y-75539600D01*
X132673140Y-75539600D01*
X132692926Y-75727857D01*
X132751420Y-75907884D01*
X132846066Y-76071816D01*
X132972729Y-76212489D01*
X133125869Y-76323751D01*
X133298797Y-76400744D01*
X133483952Y-76440100D01*
X133483954Y-76440100D01*
X133673246Y-76440100D01*
X133673248Y-76440100D01*
X133796683Y-76413862D01*
X133858403Y-76400744D01*
X134031330Y-76323751D01*
X134184471Y-76212488D01*
X134311133Y-76071816D01*
X134405779Y-75907884D01*
X134464274Y-75727856D01*
X134484060Y-75539600D01*
X134481390Y-75514199D01*
X135822740Y-75514199D01*
X135842526Y-75702457D01*
X135901020Y-75882484D01*
X135995666Y-76046416D01*
X136122329Y-76187089D01*
X136275469Y-76298351D01*
X136448397Y-76375344D01*
X136633552Y-76414700D01*
X136633554Y-76414700D01*
X136822846Y-76414700D01*
X136822848Y-76414700D01*
X136946284Y-76388462D01*
X137008003Y-76375344D01*
X137180930Y-76298351D01*
X137180930Y-76298350D01*
X137334070Y-76187089D01*
X137460733Y-76046416D01*
X137555379Y-75882484D01*
X137603559Y-75734201D01*
X137613874Y-75702456D01*
X137631521Y-75534544D01*
X137642921Y-75494125D01*
X137667158Y-75459830D01*
X138551170Y-74575819D01*
X138591399Y-74548939D01*
X138638852Y-74539500D01*
X141333053Y-74539500D01*
X141383488Y-74550220D01*
X141425201Y-74580526D01*
X141430929Y-74586888D01*
X141584070Y-74698151D01*
X141584071Y-74698151D01*
X141584072Y-74698152D01*
X141756997Y-74775144D01*
X141942152Y-74814500D01*
X141942154Y-74814500D01*
X142131446Y-74814500D01*
X142131448Y-74814500D01*
X142254883Y-74788262D01*
X142316603Y-74775144D01*
X142489530Y-74698151D01*
X142600715Y-74617371D01*
X142642670Y-74586889D01*
X142648398Y-74580528D01*
X142769333Y-74446216D01*
X142863979Y-74282284D01*
X142922474Y-74102256D01*
X142942260Y-73914000D01*
X142922474Y-73725744D01*
X142863979Y-73545716D01*
X142863979Y-73545715D01*
X142769333Y-73381783D01*
X142642670Y-73241110D01*
X142489530Y-73129848D01*
X142316602Y-73052855D01*
X142131448Y-73013500D01*
X142131446Y-73013500D01*
X141942154Y-73013500D01*
X141942152Y-73013500D01*
X141756997Y-73052855D01*
X141584072Y-73129847D01*
X141481975Y-73204024D01*
X141430929Y-73241112D01*
X141425201Y-73247473D01*
X141383488Y-73277780D01*
X141333053Y-73288500D01*
X138411144Y-73288500D01*
X138390636Y-73286235D01*
X138320513Y-73288439D01*
X138316619Y-73288500D01*
X138289050Y-73288500D01*
X138285071Y-73289002D01*
X138273441Y-73289917D01*
X138229772Y-73291289D01*
X138210528Y-73296880D01*
X138191484Y-73300824D01*
X138171608Y-73303335D01*
X138131000Y-73319413D01*
X138119954Y-73323194D01*
X138078010Y-73335382D01*
X138078007Y-73335383D01*
X138060765Y-73345579D01*
X138043304Y-73354133D01*
X138024667Y-73361512D01*
X137989331Y-73387185D01*
X137979574Y-73393595D01*
X137941980Y-73415829D01*
X137927813Y-73429996D01*
X137913024Y-73442626D01*
X137896813Y-73454404D01*
X137868972Y-73488058D01*
X137861111Y-73496697D01*
X136780428Y-74577381D01*
X136740200Y-74604261D01*
X136692747Y-74613700D01*
X136633552Y-74613700D01*
X136448397Y-74653055D01*
X136275469Y-74730048D01*
X136122329Y-74841310D01*
X135995666Y-74981983D01*
X135901020Y-75145915D01*
X135842526Y-75325942D01*
X135822740Y-75514199D01*
X134481390Y-75514199D01*
X134481010Y-75510582D01*
X134487442Y-75456229D01*
X134516647Y-75409941D01*
X138627370Y-71299219D01*
X138667599Y-71272339D01*
X138715052Y-71262900D01*
X154811408Y-71262900D01*
X154878033Y-71282319D01*
X154923788Y-71334493D01*
X154985965Y-71467830D01*
X155121505Y-71661401D01*
X155288599Y-71828495D01*
X155482170Y-71964035D01*
X155696337Y-72063903D01*
X155901961Y-72118999D01*
X155924592Y-72125063D01*
X156159999Y-72145659D01*
X156159999Y-72145658D01*
X156160000Y-72145659D01*
X156395408Y-72125063D01*
X156623663Y-72063903D01*
X156837830Y-71964035D01*
X157031401Y-71828495D01*
X157153717Y-71706178D01*
X157206460Y-71674885D01*
X157267752Y-71672696D01*
X157322597Y-71700149D01*
X157357577Y-71750528D01*
X157406647Y-71882088D01*
X157492811Y-71997188D01*
X157607910Y-72083352D01*
X157742624Y-72133597D01*
X157802176Y-72140000D01*
X158450000Y-72140000D01*
X158450000Y-71040000D01*
X158950000Y-71040000D01*
X158950000Y-72140000D01*
X159597824Y-72140000D01*
X159657375Y-72133597D01*
X159792089Y-72083352D01*
X159907188Y-71997188D01*
X159993352Y-71882089D01*
X160043597Y-71747375D01*
X160050000Y-71687824D01*
X160050000Y-71040000D01*
X158950000Y-71040000D01*
X158450000Y-71040000D01*
X158450000Y-71000000D01*
X161960000Y-71000000D01*
X161960000Y-71647824D01*
X161966402Y-71707375D01*
X162016647Y-71842089D01*
X162102811Y-71957188D01*
X162217910Y-72043352D01*
X162352624Y-72093597D01*
X162412176Y-72100000D01*
X163060000Y-72100000D01*
X163060000Y-71000000D01*
X161960000Y-71000000D01*
X158450000Y-71000000D01*
X158450000Y-69440000D01*
X158950000Y-69440000D01*
X158950000Y-70540000D01*
X160050000Y-70540000D01*
X160050000Y-70500000D01*
X161960000Y-70500000D01*
X163060000Y-70500000D01*
X163060000Y-69400000D01*
X162412176Y-69400000D01*
X162352624Y-69406402D01*
X162217910Y-69456647D01*
X162102811Y-69542811D01*
X162016647Y-69657910D01*
X161966402Y-69792624D01*
X161960000Y-69852176D01*
X161960000Y-70500000D01*
X160050000Y-70500000D01*
X160050000Y-69892176D01*
X160043597Y-69832624D01*
X159993352Y-69697910D01*
X159907188Y-69582811D01*
X159792089Y-69496647D01*
X159657375Y-69446402D01*
X159597824Y-69440000D01*
X158950000Y-69440000D01*
X158450000Y-69440000D01*
X157802176Y-69440000D01*
X157742624Y-69446402D01*
X157607910Y-69496647D01*
X157492811Y-69582811D01*
X157406646Y-69697913D01*
X157357576Y-69829472D01*
X157322597Y-69879850D01*
X157267753Y-69907303D01*
X157206460Y-69905114D01*
X157153714Y-69873818D01*
X157031404Y-69751508D01*
X157031404Y-69751507D01*
X157031401Y-69751505D01*
X156837830Y-69615965D01*
X156623663Y-69516097D01*
X156551074Y-69496647D01*
X156395407Y-69454936D01*
X156159999Y-69434340D01*
X155924592Y-69454936D01*
X155696336Y-69516097D01*
X155482170Y-69615965D01*
X155288598Y-69751505D01*
X155121508Y-69918595D01*
X155121505Y-69918598D01*
X155121505Y-69918599D01*
X155093197Y-69959025D01*
X155048882Y-69997889D01*
X154991625Y-70011900D01*
X138487344Y-70011900D01*
X138466836Y-70009635D01*
X138396713Y-70011839D01*
X138392819Y-70011900D01*
X138365250Y-70011900D01*
X138361271Y-70012402D01*
X138349641Y-70013317D01*
X138305972Y-70014689D01*
X138286728Y-70020280D01*
X138267684Y-70024224D01*
X138247808Y-70026735D01*
X138207200Y-70042813D01*
X138196154Y-70046594D01*
X138154210Y-70058782D01*
X138154207Y-70058783D01*
X138136965Y-70068979D01*
X138119504Y-70077533D01*
X138100867Y-70084912D01*
X138065531Y-70110585D01*
X138055774Y-70116995D01*
X138018180Y-70139229D01*
X138004013Y-70153396D01*
X137989224Y-70166026D01*
X137973013Y-70177804D01*
X137945172Y-70211458D01*
X137937311Y-70220097D01*
X133553555Y-74603853D01*
X133525042Y-74625145D01*
X133491655Y-74637462D01*
X133298797Y-74678455D01*
X133125869Y-74755448D01*
X132972729Y-74866710D01*
X132846066Y-75007383D01*
X132751420Y-75171315D01*
X132692926Y-75351342D01*
X132673140Y-75539600D01*
X125975500Y-75539600D01*
X125975500Y-75448687D01*
X125983736Y-75404249D01*
X126007347Y-75365717D01*
X126082533Y-75282216D01*
X126083727Y-75280149D01*
X126177179Y-75118284D01*
X126197966Y-75054308D01*
X126235674Y-74938256D01*
X126255460Y-74750000D01*
X126235674Y-74561744D01*
X126198866Y-74448462D01*
X126177179Y-74381715D01*
X126082533Y-74217783D01*
X125955870Y-74077110D01*
X125802730Y-73965848D01*
X125629802Y-73888855D01*
X125444648Y-73849500D01*
X125444646Y-73849500D01*
X125255354Y-73849500D01*
X125255352Y-73849500D01*
X125070197Y-73888855D01*
X124897269Y-73965848D01*
X124744129Y-74077110D01*
X124617466Y-74217783D01*
X124522820Y-74381715D01*
X124464326Y-74561742D01*
X124444540Y-74749999D01*
X124464326Y-74938257D01*
X124522820Y-75118284D01*
X124617464Y-75282213D01*
X124617467Y-75282216D01*
X124692652Y-75365717D01*
X124716264Y-75404249D01*
X124724500Y-75448687D01*
X124724500Y-77951313D01*
X124716264Y-77995751D01*
X124692652Y-78034282D01*
X124663474Y-78066688D01*
X124617464Y-78117786D01*
X124522820Y-78281715D01*
X124464326Y-78461742D01*
X124444540Y-78650000D01*
X109347000Y-78650000D01*
X109347000Y-71837749D01*
X109360902Y-71780701D01*
X109399492Y-71736445D01*
X109454115Y-71714904D01*
X109512525Y-71720909D01*
X109561622Y-71753111D01*
X109729940Y-71933335D01*
X109841263Y-72023903D01*
X109958151Y-72118999D01*
X110209519Y-72271860D01*
X110315301Y-72317807D01*
X110479359Y-72389067D01*
X110762645Y-72468440D01*
X111054102Y-72508500D01*
X111348298Y-72508500D01*
X111639755Y-72468440D01*
X111923041Y-72389067D01*
X112192882Y-72271859D01*
X112444249Y-72118999D01*
X112672460Y-71933335D01*
X112724139Y-71878000D01*
X117318800Y-71878000D01*
X117318800Y-72525824D01*
X117325202Y-72585375D01*
X117375447Y-72720089D01*
X117461611Y-72835188D01*
X117576710Y-72921352D01*
X117711424Y-72971597D01*
X117770976Y-72978000D01*
X118418800Y-72978000D01*
X118418800Y-71878000D01*
X118918800Y-71878000D01*
X118918800Y-72978000D01*
X119566624Y-72978000D01*
X119626175Y-72971597D01*
X119760889Y-72921352D01*
X119875988Y-72835188D01*
X119962152Y-72720089D01*
X120012397Y-72585375D01*
X120013333Y-72576669D01*
X121636300Y-72576669D01*
X121641487Y-72624914D01*
X121642709Y-72636283D01*
X121693004Y-72771131D01*
X121779254Y-72886346D01*
X121894469Y-72972596D01*
X122029317Y-73022891D01*
X122088927Y-73029300D01*
X123884672Y-73029299D01*
X123944283Y-73022891D01*
X124079131Y-72972596D01*
X124194346Y-72886346D01*
X124280596Y-72771131D01*
X124330891Y-72636283D01*
X124337300Y-72576673D01*
X124337299Y-70780928D01*
X124330891Y-70721317D01*
X124280596Y-70586469D01*
X124194346Y-70471254D01*
X124079131Y-70385004D01*
X123944283Y-70334709D01*
X123884673Y-70328300D01*
X123884669Y-70328300D01*
X122088930Y-70328300D01*
X122029315Y-70334709D01*
X121894469Y-70385004D01*
X121779254Y-70471254D01*
X121693004Y-70586468D01*
X121642709Y-70721316D01*
X121641106Y-70736219D01*
X121637313Y-70771511D01*
X121636300Y-70780930D01*
X121636300Y-72576669D01*
X120013333Y-72576669D01*
X120018800Y-72525824D01*
X120018800Y-71878000D01*
X118918800Y-71878000D01*
X118418800Y-71878000D01*
X117318800Y-71878000D01*
X112724139Y-71878000D01*
X112873265Y-71718326D01*
X113042922Y-71477976D01*
X113094726Y-71378000D01*
X117318800Y-71378000D01*
X118418800Y-71378000D01*
X118418800Y-70278000D01*
X118918800Y-70278000D01*
X118918800Y-71378000D01*
X120018800Y-71378000D01*
X120018800Y-70730176D01*
X120012397Y-70670624D01*
X119962152Y-70535910D01*
X119875988Y-70420811D01*
X119760889Y-70334647D01*
X119626175Y-70284402D01*
X119566624Y-70278000D01*
X118918800Y-70278000D01*
X118418800Y-70278000D01*
X117770976Y-70278000D01*
X117711424Y-70284402D01*
X117576710Y-70334647D01*
X117461611Y-70420811D01*
X117375447Y-70535910D01*
X117325202Y-70670624D01*
X117318800Y-70730176D01*
X117318800Y-71378000D01*
X113094726Y-71378000D01*
X113178272Y-71216764D01*
X113276792Y-70939554D01*
X113336648Y-70651511D01*
X113356725Y-70358000D01*
X113336648Y-70064489D01*
X113289967Y-69839850D01*
X113276792Y-69776446D01*
X113178273Y-69499239D01*
X113178272Y-69499236D01*
X113042922Y-69238024D01*
X113042920Y-69238020D01*
X112873266Y-68997675D01*
X112815011Y-68935299D01*
X112709817Y-68822664D01*
X112681439Y-68772878D01*
X112678478Y-68715646D01*
X112701568Y-68663195D01*
X112745778Y-68626728D01*
X112801658Y-68614036D01*
X114503200Y-68630800D01*
X177784837Y-68606655D01*
X177843394Y-68621329D01*
G37*
G04 #@! TD.AperFunction*
M02*
