G04 #@! TF.GenerationSoftware,KiCad,Pcbnew,8.0.1*
G04 #@! TF.CreationDate,2024-07-25T10:54:29+02:00*
G04 #@! TF.ProjectId,licznik,6c69637a-6e69-46b2-9e6b-696361645f70,rev?*
G04 #@! TF.SameCoordinates,Original*
G04 #@! TF.FileFunction,Paste,Top*
G04 #@! TF.FilePolarity,Positive*
%FSLAX46Y46*%
G04 Gerber Fmt 4.6, Leading zero omitted, Abs format (unit mm)*
G04 Created by KiCad (PCBNEW 8.0.1) date 2024-07-25 10:54:29*
%MOMM*%
%LPD*%
G01*
G04 APERTURE LIST*
G04 Aperture macros list*
%AMRoundRect*
0 Rectangle with rounded corners*
0 $1 Rounding radius*
0 $2 $3 $4 $5 $6 $7 $8 $9 X,Y pos of 4 corners*
0 Add a 4 corners polygon primitive as box body*
4,1,4,$2,$3,$4,$5,$6,$7,$8,$9,$2,$3,0*
0 Add four circle primitives for the rounded corners*
1,1,$1+$1,$2,$3*
1,1,$1+$1,$4,$5*
1,1,$1+$1,$6,$7*
1,1,$1+$1,$8,$9*
0 Add four rect primitives between the rounded corners*
20,1,$1+$1,$2,$3,$4,$5,0*
20,1,$1+$1,$4,$5,$6,$7,0*
20,1,$1+$1,$6,$7,$8,$9,0*
20,1,$1+$1,$8,$9,$2,$3,0*%
G04 Aperture macros list end*
%ADD10C,0.100000*%
%ADD11RoundRect,0.140000X0.140000X0.170000X-0.140000X0.170000X-0.140000X-0.170000X0.140000X-0.170000X0*%
%ADD12RoundRect,0.140000X-0.140000X-0.170000X0.140000X-0.170000X0.140000X0.170000X-0.140000X0.170000X0*%
%ADD13RoundRect,0.200000X-0.275000X0.200000X-0.275000X-0.200000X0.275000X-0.200000X0.275000X0.200000X0*%
%ADD14RoundRect,0.200000X0.275000X-0.200000X0.275000X0.200000X-0.275000X0.200000X-0.275000X-0.200000X0*%
%ADD15RoundRect,0.225000X0.225000X0.250000X-0.225000X0.250000X-0.225000X-0.250000X0.225000X-0.250000X0*%
%ADD16RoundRect,0.140000X0.170000X-0.140000X0.170000X0.140000X-0.170000X0.140000X-0.170000X-0.140000X0*%
%ADD17RoundRect,0.200000X-0.200000X-0.275000X0.200000X-0.275000X0.200000X0.275000X-0.200000X0.275000X0*%
%ADD18RoundRect,0.200000X0.200000X0.275000X-0.200000X0.275000X-0.200000X-0.275000X0.200000X-0.275000X0*%
%ADD19RoundRect,0.225000X-0.250000X0.225000X-0.250000X-0.225000X0.250000X-0.225000X0.250000X0.225000X0*%
%ADD20RoundRect,0.218750X-0.256250X0.218750X-0.256250X-0.218750X0.256250X-0.218750X0.256250X0.218750X0*%
%ADD21R,0.500000X2.500000*%
%ADD22R,2.000000X2.500000*%
%ADD23R,1.300000X0.700000*%
%ADD24R,1.651000X1.447800*%
%ADD25R,2.438400X1.447800*%
%ADD26R,1.651000X1.854200*%
%ADD27RoundRect,0.087500X-0.225000X-0.087500X0.225000X-0.087500X0.225000X0.087500X-0.225000X0.087500X0*%
%ADD28RoundRect,0.087500X-0.087500X-0.225000X0.087500X-0.225000X0.087500X0.225000X-0.087500X0.225000X0*%
%ADD29RoundRect,0.218750X-0.381250X0.218750X-0.381250X-0.218750X0.381250X-0.218750X0.381250X0.218750X0*%
%ADD30RoundRect,0.140000X-0.170000X0.140000X-0.170000X-0.140000X0.170000X-0.140000X0.170000X0.140000X0*%
%ADD31RoundRect,0.218750X-0.218750X-0.381250X0.218750X-0.381250X0.218750X0.381250X-0.218750X0.381250X0*%
%ADD32RoundRect,0.225000X-0.375000X0.225000X-0.375000X-0.225000X0.375000X-0.225000X0.375000X0.225000X0*%
%ADD33RoundRect,0.135000X-0.185000X0.135000X-0.185000X-0.135000X0.185000X-0.135000X0.185000X0.135000X0*%
%ADD34R,2.400000X2.000000*%
%ADD35RoundRect,0.135000X0.185000X-0.135000X0.185000X0.135000X-0.185000X0.135000X-0.185000X-0.135000X0*%
%ADD36R,2.000000X1.000000*%
%ADD37RoundRect,0.232500X0.232500X0.232500X-0.232500X0.232500X-0.232500X-0.232500X0.232500X-0.232500X0*%
%ADD38RoundRect,0.150000X0.825000X0.150000X-0.825000X0.150000X-0.825000X-0.150000X0.825000X-0.150000X0*%
%ADD39RoundRect,0.075000X-0.725000X-0.075000X0.725000X-0.075000X0.725000X0.075000X-0.725000X0.075000X0*%
%ADD40RoundRect,0.075000X-0.075000X-0.725000X0.075000X-0.725000X0.075000X0.725000X-0.075000X0.725000X0*%
%ADD41RoundRect,0.218750X0.218750X0.381250X-0.218750X0.381250X-0.218750X-0.381250X0.218750X-0.381250X0*%
%ADD42RoundRect,0.130000X-0.130000X-0.150000X0.130000X-0.150000X0.130000X0.150000X-0.130000X0.150000X0*%
%ADD43RoundRect,0.062500X-0.325000X-0.062500X0.325000X-0.062500X0.325000X0.062500X-0.325000X0.062500X0*%
%ADD44RoundRect,0.225000X0.250000X-0.225000X0.250000X0.225000X-0.250000X0.225000X-0.250000X-0.225000X0*%
%ADD45RoundRect,0.250000X0.312500X0.625000X-0.312500X0.625000X-0.312500X-0.625000X0.312500X-0.625000X0*%
G04 APERTURE END LIST*
D10*
X150280000Y-102120000D02*
X150830000Y-101980000D01*
D11*
X140530000Y-98170000D03*
X139570000Y-98170000D03*
D12*
X138880000Y-77493120D03*
X139840000Y-77493120D03*
D13*
X167590000Y-81770000D03*
X167590000Y-83420000D03*
D14*
X167590000Y-87215000D03*
X167590000Y-85565000D03*
X165150000Y-87205000D03*
X165150000Y-85555000D03*
D15*
X126320000Y-103190000D03*
X124770000Y-103190000D03*
D16*
X129740000Y-90450000D03*
X129740000Y-89490000D03*
D17*
X156925000Y-105150000D03*
X158575000Y-105150000D03*
D15*
X133270000Y-82250000D03*
X131720000Y-82250000D03*
D18*
X160085000Y-95720000D03*
X158435000Y-95720000D03*
D19*
X121760000Y-96870000D03*
X121760000Y-98420000D03*
D18*
X155145000Y-105170000D03*
X153495000Y-105170000D03*
X160035000Y-99290000D03*
X158385000Y-99290000D03*
D20*
X142190000Y-98890000D03*
X142190000Y-100465000D03*
D13*
X128270000Y-87595000D03*
X128270000Y-89245000D03*
D16*
X156980000Y-83340000D03*
X156980000Y-82380000D03*
D21*
X120180000Y-107765000D03*
X120980000Y-107765000D03*
X121780000Y-107765000D03*
X122580000Y-107765000D03*
X123380000Y-107765000D03*
D22*
X117380000Y-107765000D03*
X117380000Y-113265000D03*
X126180000Y-107765000D03*
X126180000Y-113265000D03*
D14*
X135110000Y-83815000D03*
X135110000Y-82165000D03*
D23*
X171726200Y-81136400D03*
X171726200Y-82236400D03*
X171726200Y-83336400D03*
X171726200Y-84436400D03*
X171726200Y-85536400D03*
X171726200Y-86636400D03*
X171726200Y-87736400D03*
X171726200Y-88836400D03*
X171726200Y-89936400D03*
D24*
X172500000Y-91354800D03*
D25*
X182200000Y-91354800D03*
X182200000Y-75530000D03*
D26*
X172500000Y-76305000D03*
D11*
X134370000Y-96190000D03*
X133410000Y-96190000D03*
D27*
X144477500Y-104230000D03*
X144477500Y-104730000D03*
X144477500Y-105230000D03*
X144477500Y-105730000D03*
D28*
X145140000Y-105892500D03*
X145640000Y-105892500D03*
X146140000Y-105892500D03*
D27*
X146802500Y-105730000D03*
X146802500Y-105230000D03*
X146802500Y-104730000D03*
X146802500Y-104230000D03*
D28*
X146140000Y-104067500D03*
X145640000Y-104067500D03*
X145140000Y-104067500D03*
D18*
X141400000Y-102500000D03*
X139750000Y-102500000D03*
D29*
X115690000Y-94067500D03*
X115690000Y-96192500D03*
D30*
X147030000Y-98620000D03*
X147030000Y-99580000D03*
D11*
X140560000Y-100680000D03*
X139600000Y-100680000D03*
D31*
X127777500Y-95020000D03*
X129902500Y-95020000D03*
D30*
X134880000Y-85890000D03*
X134880000Y-86850000D03*
D13*
X165030000Y-89990000D03*
X165030000Y-91640000D03*
D32*
X115690000Y-98432500D03*
X115690000Y-101732500D03*
D30*
X136120000Y-85890000D03*
X136120000Y-86850000D03*
D13*
X150360000Y-105175000D03*
X150360000Y-106825000D03*
D17*
X128270000Y-100865000D03*
X129920000Y-100865000D03*
D33*
X142270000Y-77770000D03*
X142270000Y-78790000D03*
D18*
X160035000Y-101170000D03*
X158385000Y-101170000D03*
D14*
X162300000Y-87255000D03*
X162300000Y-85605000D03*
D12*
X138880000Y-78783120D03*
X139840000Y-78783120D03*
D15*
X117870000Y-85340000D03*
X116320000Y-85340000D03*
D13*
X167600000Y-89980000D03*
X167600000Y-91630000D03*
D34*
X132280000Y-86540000D03*
X132280000Y-90240000D03*
D14*
X129850000Y-98825000D03*
X129850000Y-97175000D03*
D18*
X160025000Y-93780000D03*
X158375000Y-93780000D03*
D11*
X134350000Y-97850000D03*
X133390000Y-97850000D03*
D18*
X159780000Y-87120000D03*
X158130000Y-87120000D03*
D35*
X134950000Y-90240000D03*
X134950000Y-89220000D03*
D30*
X155510000Y-82360000D03*
X155510000Y-83320000D03*
D11*
X140530000Y-99400000D03*
X139570000Y-99400000D03*
D17*
X116240000Y-90480000D03*
X117890000Y-90480000D03*
D18*
X162840000Y-91660000D03*
X161190000Y-91660000D03*
X117850000Y-87980000D03*
X116200000Y-87980000D03*
D13*
X165170000Y-81670000D03*
X165170000Y-83320000D03*
D11*
X132910000Y-84660000D03*
X131950000Y-84660000D03*
D36*
X163130000Y-96610000D03*
X163130000Y-95340000D03*
X163130000Y-97880000D03*
X163130000Y-99150000D03*
X163130000Y-100420000D03*
X163130000Y-101690000D03*
X163130000Y-102960000D03*
X163130000Y-104230000D03*
D15*
X146400000Y-108300000D03*
X144850000Y-108300000D03*
D37*
X123730000Y-87600000D03*
X123730000Y-86450000D03*
X122580000Y-87600000D03*
X122580000Y-86450000D03*
D38*
X125630000Y-88930000D03*
X125630000Y-87660000D03*
X125630000Y-86390000D03*
X125630000Y-85120000D03*
X120680000Y-85120000D03*
X120680000Y-86390000D03*
X120680000Y-87660000D03*
X120680000Y-88930000D03*
D39*
X137875000Y-82785000D03*
X137875000Y-83285000D03*
X137875000Y-83785000D03*
X137875000Y-84285000D03*
X137875000Y-84785000D03*
X137875000Y-85285000D03*
X137875000Y-85785000D03*
X137875000Y-86285000D03*
X137875000Y-86785000D03*
X137875000Y-87285000D03*
X137875000Y-87785000D03*
X137875000Y-88285000D03*
X137875000Y-88785000D03*
X137875000Y-89285000D03*
X137875000Y-89785000D03*
X137875000Y-90285000D03*
X137875000Y-90785000D03*
X137875000Y-91285000D03*
X137875000Y-91785000D03*
X137875000Y-92285000D03*
X137875000Y-92785000D03*
X137875000Y-93285000D03*
X137875000Y-93785000D03*
X137875000Y-94285000D03*
X137875000Y-94785000D03*
D40*
X139550000Y-96460000D03*
X140050000Y-96460000D03*
X140550000Y-96460000D03*
X141050000Y-96460000D03*
X141550000Y-96460000D03*
X142050000Y-96460000D03*
X142550000Y-96460000D03*
X143050000Y-96460000D03*
X143550000Y-96460000D03*
X144050000Y-96460000D03*
X144550000Y-96460000D03*
X145050000Y-96460000D03*
X145550000Y-96460000D03*
X146050000Y-96460000D03*
X146550000Y-96460000D03*
X147050000Y-96460000D03*
X147550000Y-96460000D03*
X148050000Y-96460000D03*
X148550000Y-96460000D03*
X149050000Y-96460000D03*
X149550000Y-96460000D03*
X150050000Y-96460000D03*
X150550000Y-96460000D03*
X151050000Y-96460000D03*
X151550000Y-96460000D03*
D39*
X153225000Y-94785000D03*
X153225000Y-94285000D03*
X153225000Y-93785000D03*
X153225000Y-93285000D03*
X153225000Y-92785000D03*
X153225000Y-92285000D03*
X153225000Y-91785000D03*
X153225000Y-91285000D03*
X153225000Y-90785000D03*
X153225000Y-90285000D03*
X153225000Y-89785000D03*
X153225000Y-89285000D03*
X153225000Y-88785000D03*
X153225000Y-88285000D03*
X153225000Y-87785000D03*
X153225000Y-87285000D03*
X153225000Y-86785000D03*
X153225000Y-86285000D03*
X153225000Y-85785000D03*
X153225000Y-85285000D03*
X153225000Y-84785000D03*
X153225000Y-84285000D03*
X153225000Y-83785000D03*
X153225000Y-83285000D03*
X153225000Y-82785000D03*
D40*
X151550000Y-81110000D03*
X151050000Y-81110000D03*
X150550000Y-81110000D03*
X150050000Y-81110000D03*
X149550000Y-81110000D03*
X149050000Y-81110000D03*
X148550000Y-81110000D03*
X148050000Y-81110000D03*
X147550000Y-81110000D03*
X147050000Y-81110000D03*
X146550000Y-81110000D03*
X146050000Y-81110000D03*
X145550000Y-81110000D03*
X145050000Y-81110000D03*
X144550000Y-81110000D03*
X144050000Y-81110000D03*
X143550000Y-81110000D03*
X143050000Y-81110000D03*
X142550000Y-81110000D03*
X142050000Y-81110000D03*
X141550000Y-81110000D03*
X141050000Y-81110000D03*
X140550000Y-81110000D03*
X140050000Y-81110000D03*
X139550000Y-81110000D03*
D41*
X134340000Y-93930000D03*
X132215000Y-93930000D03*
D13*
X162660000Y-81655000D03*
X162660000Y-83305000D03*
D35*
X145570000Y-99630000D03*
X145570000Y-98610000D03*
D18*
X133310000Y-80170000D03*
X131660000Y-80170000D03*
D42*
X125130000Y-97530000D03*
X125130000Y-98230000D03*
X125780000Y-97530000D03*
X125780000Y-98230000D03*
D43*
X123992500Y-97130000D03*
X123992500Y-97630000D03*
X123992500Y-98130000D03*
X123992500Y-98630000D03*
X126917500Y-98630000D03*
X126917500Y-98130000D03*
X126917500Y-97630000D03*
X126917500Y-97130000D03*
D14*
X121740000Y-101885000D03*
X121740000Y-100235000D03*
D44*
X141800000Y-105730000D03*
X141800000Y-104180000D03*
D14*
X150390000Y-110135000D03*
X150390000Y-108485000D03*
D19*
X160070000Y-81730000D03*
X160070000Y-83280000D03*
D45*
X126990000Y-101160000D03*
X124065000Y-101160000D03*
M02*
