G04 #@! TF.GenerationSoftware,KiCad,Pcbnew,8.0.1*
G04 #@! TF.CreationDate,2024-07-25T10:54:29+02:00*
G04 #@! TF.ProjectId,licznik,6c69637a-6e69-46b2-9e6b-696361645f70,rev?*
G04 #@! TF.SameCoordinates,Original*
G04 #@! TF.FileFunction,Copper,L1,Top*
G04 #@! TF.FilePolarity,Positive*
%FSLAX46Y46*%
G04 Gerber Fmt 4.6, Leading zero omitted, Abs format (unit mm)*
G04 Created by KiCad (PCBNEW 8.0.1) date 2024-07-25 10:54:29*
%MOMM*%
%LPD*%
G01*
G04 APERTURE LIST*
G04 Aperture macros list*
%AMRoundRect*
0 Rectangle with rounded corners*
0 $1 Rounding radius*
0 $2 $3 $4 $5 $6 $7 $8 $9 X,Y pos of 4 corners*
0 Add a 4 corners polygon primitive as box body*
4,1,4,$2,$3,$4,$5,$6,$7,$8,$9,$2,$3,0*
0 Add four circle primitives for the rounded corners*
1,1,$1+$1,$2,$3*
1,1,$1+$1,$4,$5*
1,1,$1+$1,$6,$7*
1,1,$1+$1,$8,$9*
0 Add four rect primitives between the rounded corners*
20,1,$1+$1,$2,$3,$4,$5,0*
20,1,$1+$1,$4,$5,$6,$7,0*
20,1,$1+$1,$6,$7,$8,$9,0*
20,1,$1+$1,$8,$9,$2,$3,0*%
G04 Aperture macros list end*
G04 #@! TA.AperFunction,SMDPad,CuDef*
%ADD10RoundRect,0.140000X0.140000X0.170000X-0.140000X0.170000X-0.140000X-0.170000X0.140000X-0.170000X0*%
G04 #@! TD*
G04 #@! TA.AperFunction,SMDPad,CuDef*
%ADD11RoundRect,0.140000X-0.140000X-0.170000X0.140000X-0.170000X0.140000X0.170000X-0.140000X0.170000X0*%
G04 #@! TD*
G04 #@! TA.AperFunction,SMDPad,CuDef*
%ADD12RoundRect,0.200000X-0.275000X0.200000X-0.275000X-0.200000X0.275000X-0.200000X0.275000X0.200000X0*%
G04 #@! TD*
G04 #@! TA.AperFunction,SMDPad,CuDef*
%ADD13RoundRect,0.200000X0.275000X-0.200000X0.275000X0.200000X-0.275000X0.200000X-0.275000X-0.200000X0*%
G04 #@! TD*
G04 #@! TA.AperFunction,ComponentPad*
%ADD14R,1.700000X1.700000*%
G04 #@! TD*
G04 #@! TA.AperFunction,ComponentPad*
%ADD15O,1.700000X1.700000*%
G04 #@! TD*
G04 #@! TA.AperFunction,SMDPad,CuDef*
%ADD16RoundRect,0.225000X0.225000X0.250000X-0.225000X0.250000X-0.225000X-0.250000X0.225000X-0.250000X0*%
G04 #@! TD*
G04 #@! TA.AperFunction,SMDPad,CuDef*
%ADD17RoundRect,0.140000X0.170000X-0.140000X0.170000X0.140000X-0.170000X0.140000X-0.170000X-0.140000X0*%
G04 #@! TD*
G04 #@! TA.AperFunction,SMDPad,CuDef*
%ADD18RoundRect,0.200000X-0.200000X-0.275000X0.200000X-0.275000X0.200000X0.275000X-0.200000X0.275000X0*%
G04 #@! TD*
G04 #@! TA.AperFunction,SMDPad,CuDef*
%ADD19RoundRect,0.200000X0.200000X0.275000X-0.200000X0.275000X-0.200000X-0.275000X0.200000X-0.275000X0*%
G04 #@! TD*
G04 #@! TA.AperFunction,SMDPad,CuDef*
%ADD20RoundRect,0.225000X-0.250000X0.225000X-0.250000X-0.225000X0.250000X-0.225000X0.250000X0.225000X0*%
G04 #@! TD*
G04 #@! TA.AperFunction,SMDPad,CuDef*
%ADD21RoundRect,0.218750X-0.256250X0.218750X-0.256250X-0.218750X0.256250X-0.218750X0.256250X0.218750X0*%
G04 #@! TD*
G04 #@! TA.AperFunction,SMDPad,CuDef*
%ADD22R,0.500000X2.500000*%
G04 #@! TD*
G04 #@! TA.AperFunction,SMDPad,CuDef*
%ADD23R,2.000000X2.500000*%
G04 #@! TD*
G04 #@! TA.AperFunction,SMDPad,CuDef*
%ADD24R,1.300000X0.700000*%
G04 #@! TD*
G04 #@! TA.AperFunction,SMDPad,CuDef*
%ADD25R,1.651000X1.447800*%
G04 #@! TD*
G04 #@! TA.AperFunction,SMDPad,CuDef*
%ADD26R,2.438400X1.447800*%
G04 #@! TD*
G04 #@! TA.AperFunction,SMDPad,CuDef*
%ADD27R,1.651000X1.854200*%
G04 #@! TD*
G04 #@! TA.AperFunction,SMDPad,CuDef*
%ADD28RoundRect,0.087500X-0.225000X-0.087500X0.225000X-0.087500X0.225000X0.087500X-0.225000X0.087500X0*%
G04 #@! TD*
G04 #@! TA.AperFunction,SMDPad,CuDef*
%ADD29RoundRect,0.087500X-0.087500X-0.225000X0.087500X-0.225000X0.087500X0.225000X-0.087500X0.225000X0*%
G04 #@! TD*
G04 #@! TA.AperFunction,SMDPad,CuDef*
%ADD30RoundRect,0.218750X-0.381250X0.218750X-0.381250X-0.218750X0.381250X-0.218750X0.381250X0.218750X0*%
G04 #@! TD*
G04 #@! TA.AperFunction,SMDPad,CuDef*
%ADD31RoundRect,0.140000X-0.170000X0.140000X-0.170000X-0.140000X0.170000X-0.140000X0.170000X0.140000X0*%
G04 #@! TD*
G04 #@! TA.AperFunction,SMDPad,CuDef*
%ADD32RoundRect,0.218750X-0.218750X-0.381250X0.218750X-0.381250X0.218750X0.381250X-0.218750X0.381250X0*%
G04 #@! TD*
G04 #@! TA.AperFunction,SMDPad,CuDef*
%ADD33RoundRect,0.225000X-0.375000X0.225000X-0.375000X-0.225000X0.375000X-0.225000X0.375000X0.225000X0*%
G04 #@! TD*
G04 #@! TA.AperFunction,SMDPad,CuDef*
%ADD34RoundRect,0.135000X-0.185000X0.135000X-0.185000X-0.135000X0.185000X-0.135000X0.185000X0.135000X0*%
G04 #@! TD*
G04 #@! TA.AperFunction,SMDPad,CuDef*
%ADD35R,2.400000X2.000000*%
G04 #@! TD*
G04 #@! TA.AperFunction,SMDPad,CuDef*
%ADD36RoundRect,0.135000X0.185000X-0.135000X0.185000X0.135000X-0.185000X0.135000X-0.185000X-0.135000X0*%
G04 #@! TD*
G04 #@! TA.AperFunction,SMDPad,CuDef*
%ADD37R,2.000000X1.000000*%
G04 #@! TD*
G04 #@! TA.AperFunction,SMDPad,CuDef*
%ADD38RoundRect,0.150000X0.825000X0.150000X-0.825000X0.150000X-0.825000X-0.150000X0.825000X-0.150000X0*%
G04 #@! TD*
G04 #@! TA.AperFunction,HeatsinkPad*
%ADD39R,2.300000X2.300000*%
G04 #@! TD*
G04 #@! TA.AperFunction,SMDPad,CuDef*
%ADD40RoundRect,0.075000X-0.725000X-0.075000X0.725000X-0.075000X0.725000X0.075000X-0.725000X0.075000X0*%
G04 #@! TD*
G04 #@! TA.AperFunction,SMDPad,CuDef*
%ADD41RoundRect,0.075000X-0.075000X-0.725000X0.075000X-0.725000X0.075000X0.725000X-0.075000X0.725000X0*%
G04 #@! TD*
G04 #@! TA.AperFunction,SMDPad,CuDef*
%ADD42RoundRect,0.218750X0.218750X0.381250X-0.218750X0.381250X-0.218750X-0.381250X0.218750X-0.381250X0*%
G04 #@! TD*
G04 #@! TA.AperFunction,SMDPad,CuDef*
%ADD43RoundRect,0.062500X-0.325000X-0.062500X0.325000X-0.062500X0.325000X0.062500X-0.325000X0.062500X0*%
G04 #@! TD*
G04 #@! TA.AperFunction,HeatsinkPad*
%ADD44R,1.300000X1.400000*%
G04 #@! TD*
G04 #@! TA.AperFunction,SMDPad,CuDef*
%ADD45RoundRect,0.225000X0.250000X-0.225000X0.250000X0.225000X-0.250000X0.225000X-0.250000X-0.225000X0*%
G04 #@! TD*
G04 #@! TA.AperFunction,ComponentPad*
%ADD46C,1.700000*%
G04 #@! TD*
G04 #@! TA.AperFunction,ComponentPad*
%ADD47C,3.300000*%
G04 #@! TD*
G04 #@! TA.AperFunction,SMDPad,CuDef*
%ADD48RoundRect,0.250000X0.312500X0.625000X-0.312500X0.625000X-0.312500X-0.625000X0.312500X-0.625000X0*%
G04 #@! TD*
G04 #@! TA.AperFunction,ViaPad*
%ADD49C,0.800000*%
G04 #@! TD*
G04 #@! TA.AperFunction,Conductor*
%ADD50C,0.250000*%
G04 #@! TD*
G04 #@! TA.AperFunction,Conductor*
%ADD51C,0.300000*%
G04 #@! TD*
G04 #@! TA.AperFunction,Conductor*
%ADD52C,0.700000*%
G04 #@! TD*
G04 #@! TA.AperFunction,Conductor*
%ADD53C,0.800000*%
G04 #@! TD*
G04 APERTURE END LIST*
D10*
X140530000Y-98170000D03*
X139570000Y-98170000D03*
D11*
X138880000Y-77493120D03*
X139840000Y-77493120D03*
D12*
X167590000Y-81770000D03*
X167590000Y-83420000D03*
D13*
X167590000Y-87215000D03*
X167590000Y-85565000D03*
X165150000Y-87205000D03*
X165150000Y-85555000D03*
D14*
X131360000Y-77270000D03*
D15*
X133900000Y-77270000D03*
D16*
X126320000Y-103190000D03*
X124770000Y-103190000D03*
D17*
X129740000Y-90450000D03*
X129740000Y-89490000D03*
D18*
X156925000Y-105150000D03*
X158575000Y-105150000D03*
D16*
X133270000Y-82250000D03*
X131720000Y-82250000D03*
D19*
X160085000Y-95720000D03*
X158435000Y-95720000D03*
D20*
X121760000Y-96870000D03*
X121760000Y-98420000D03*
D19*
X155145000Y-105170000D03*
X153495000Y-105170000D03*
X160035000Y-99290000D03*
X158385000Y-99290000D03*
D21*
X142190000Y-98890000D03*
X142190000Y-100465000D03*
D12*
X128270000Y-87595000D03*
X128270000Y-89245000D03*
D17*
X156980000Y-83340000D03*
X156980000Y-82380000D03*
D22*
X120180000Y-107765000D03*
X120980000Y-107765000D03*
X121780000Y-107765000D03*
X122580000Y-107765000D03*
X123380000Y-107765000D03*
D23*
X117380000Y-107765000D03*
X117380000Y-113265000D03*
X126180000Y-107765000D03*
X126180000Y-113265000D03*
D13*
X135110000Y-83815000D03*
X135110000Y-82165000D03*
D24*
X171726200Y-81136400D03*
X171726200Y-82236400D03*
X171726200Y-83336400D03*
X171726200Y-84436400D03*
X171726200Y-85536400D03*
X171726200Y-86636400D03*
X171726200Y-87736400D03*
X171726200Y-88836400D03*
X171726200Y-89936400D03*
D25*
X172500000Y-91354800D03*
D26*
X182200000Y-91354800D03*
X182200000Y-75530000D03*
D27*
X172500000Y-76305000D03*
D10*
X134370000Y-96190000D03*
X133410000Y-96190000D03*
D28*
X144477500Y-104230000D03*
X144477500Y-104730000D03*
X144477500Y-105230000D03*
X144477500Y-105730000D03*
D29*
X145140000Y-105892500D03*
X145640000Y-105892500D03*
X146140000Y-105892500D03*
D28*
X146802500Y-105730000D03*
X146802500Y-105230000D03*
X146802500Y-104730000D03*
X146802500Y-104230000D03*
D29*
X146140000Y-104067500D03*
X145640000Y-104067500D03*
X145140000Y-104067500D03*
D19*
X141400000Y-102500000D03*
X139750000Y-102500000D03*
D30*
X115690000Y-94067500D03*
X115690000Y-96192500D03*
D31*
X147030000Y-98620000D03*
X147030000Y-99580000D03*
D10*
X140560000Y-100680000D03*
X139600000Y-100680000D03*
D32*
X127777500Y-95020000D03*
X129902500Y-95020000D03*
D31*
X134880000Y-85890000D03*
X134880000Y-86850000D03*
D12*
X165030000Y-89990000D03*
X165030000Y-91640000D03*
D33*
X115690000Y-98432500D03*
X115690000Y-101732500D03*
D31*
X136120000Y-85890000D03*
X136120000Y-86850000D03*
D12*
X150360000Y-105175000D03*
X150360000Y-106825000D03*
D14*
X147590000Y-74780000D03*
D15*
X150130000Y-74780000D03*
X152670000Y-74780000D03*
X155210000Y-74780000D03*
X157750000Y-74780000D03*
D18*
X128270000Y-100865000D03*
X129920000Y-100865000D03*
D34*
X142270000Y-77770000D03*
X142270000Y-78790000D03*
D19*
X160035000Y-101170000D03*
X158385000Y-101170000D03*
D14*
X125630000Y-81130000D03*
D13*
X162300000Y-87255000D03*
X162300000Y-85605000D03*
D11*
X138880000Y-78783120D03*
X139840000Y-78783120D03*
D16*
X117870000Y-85340000D03*
X116320000Y-85340000D03*
D12*
X167600000Y-89980000D03*
X167600000Y-91630000D03*
D35*
X132280000Y-86540000D03*
X132280000Y-90240000D03*
D13*
X129850000Y-98825000D03*
X129850000Y-97175000D03*
D19*
X160025000Y-93780000D03*
X158375000Y-93780000D03*
D10*
X134350000Y-97850000D03*
X133390000Y-97850000D03*
D19*
X159780000Y-87120000D03*
X158130000Y-87120000D03*
D36*
X134950000Y-90240000D03*
X134950000Y-89220000D03*
D31*
X155510000Y-82360000D03*
X155510000Y-83320000D03*
D10*
X140530000Y-99400000D03*
X139570000Y-99400000D03*
D18*
X116240000Y-90480000D03*
X117890000Y-90480000D03*
D14*
X120980000Y-81130000D03*
D19*
X162840000Y-91660000D03*
X161190000Y-91660000D03*
X117850000Y-87980000D03*
X116200000Y-87980000D03*
D12*
X165170000Y-81670000D03*
X165170000Y-83320000D03*
D10*
X132910000Y-84660000D03*
X131950000Y-84660000D03*
D37*
X163130000Y-96610000D03*
X163130000Y-95340000D03*
X163130000Y-97880000D03*
X163130000Y-99150000D03*
X163130000Y-100420000D03*
X163130000Y-101690000D03*
X163130000Y-102960000D03*
X163130000Y-104230000D03*
D16*
X146400000Y-108300000D03*
X144850000Y-108300000D03*
D38*
X125630000Y-88930000D03*
X125630000Y-87660000D03*
X125630000Y-86390000D03*
X125630000Y-85120000D03*
X120680000Y-85120000D03*
X120680000Y-86390000D03*
X120680000Y-87660000D03*
X120680000Y-88930000D03*
D39*
X123155000Y-87025000D03*
D40*
X137875000Y-82785000D03*
X137875000Y-83285000D03*
X137875000Y-83785000D03*
X137875000Y-84285000D03*
X137875000Y-84785000D03*
X137875000Y-85285000D03*
X137875000Y-85785000D03*
X137875000Y-86285000D03*
X137875000Y-86785000D03*
X137875000Y-87285000D03*
X137875000Y-87785000D03*
X137875000Y-88285000D03*
X137875000Y-88785000D03*
X137875000Y-89285000D03*
X137875000Y-89785000D03*
X137875000Y-90285000D03*
X137875000Y-90785000D03*
X137875000Y-91285000D03*
X137875000Y-91785000D03*
X137875000Y-92285000D03*
X137875000Y-92785000D03*
X137875000Y-93285000D03*
X137875000Y-93785000D03*
X137875000Y-94285000D03*
X137875000Y-94785000D03*
D41*
X139550000Y-96460000D03*
X140050000Y-96460000D03*
X140550000Y-96460000D03*
X141050000Y-96460000D03*
X141550000Y-96460000D03*
X142050000Y-96460000D03*
X142550000Y-96460000D03*
X143050000Y-96460000D03*
X143550000Y-96460000D03*
X144050000Y-96460000D03*
X144550000Y-96460000D03*
X145050000Y-96460000D03*
X145550000Y-96460000D03*
X146050000Y-96460000D03*
X146550000Y-96460000D03*
X147050000Y-96460000D03*
X147550000Y-96460000D03*
X148050000Y-96460000D03*
X148550000Y-96460000D03*
X149050000Y-96460000D03*
X149550000Y-96460000D03*
X150050000Y-96460000D03*
X150550000Y-96460000D03*
X151050000Y-96460000D03*
X151550000Y-96460000D03*
D40*
X153225000Y-94785000D03*
X153225000Y-94285000D03*
X153225000Y-93785000D03*
X153225000Y-93285000D03*
X153225000Y-92785000D03*
X153225000Y-92285000D03*
X153225000Y-91785000D03*
X153225000Y-91285000D03*
X153225000Y-90785000D03*
X153225000Y-90285000D03*
X153225000Y-89785000D03*
X153225000Y-89285000D03*
X153225000Y-88785000D03*
X153225000Y-88285000D03*
X153225000Y-87785000D03*
X153225000Y-87285000D03*
X153225000Y-86785000D03*
X153225000Y-86285000D03*
X153225000Y-85785000D03*
X153225000Y-85285000D03*
X153225000Y-84785000D03*
X153225000Y-84285000D03*
X153225000Y-83785000D03*
X153225000Y-83285000D03*
X153225000Y-82785000D03*
D41*
X151550000Y-81110000D03*
X151050000Y-81110000D03*
X150550000Y-81110000D03*
X150050000Y-81110000D03*
X149550000Y-81110000D03*
X149050000Y-81110000D03*
X148550000Y-81110000D03*
X148050000Y-81110000D03*
X147550000Y-81110000D03*
X147050000Y-81110000D03*
X146550000Y-81110000D03*
X146050000Y-81110000D03*
X145550000Y-81110000D03*
X145050000Y-81110000D03*
X144550000Y-81110000D03*
X144050000Y-81110000D03*
X143550000Y-81110000D03*
X143050000Y-81110000D03*
X142550000Y-81110000D03*
X142050000Y-81110000D03*
X141550000Y-81110000D03*
X141050000Y-81110000D03*
X140550000Y-81110000D03*
X140050000Y-81110000D03*
X139550000Y-81110000D03*
D42*
X134340000Y-93930000D03*
X132215000Y-93930000D03*
D12*
X162660000Y-81655000D03*
X162660000Y-83305000D03*
D36*
X145570000Y-99630000D03*
X145570000Y-98610000D03*
D19*
X133310000Y-80170000D03*
X131660000Y-80170000D03*
D43*
X123992500Y-97130000D03*
X123992500Y-97630000D03*
X123992500Y-98130000D03*
X123992500Y-98630000D03*
X126917500Y-98630000D03*
X126917500Y-98130000D03*
X126917500Y-97630000D03*
X126917500Y-97130000D03*
D44*
X125455000Y-97880000D03*
D13*
X121740000Y-101885000D03*
X121740000Y-100235000D03*
D45*
X141800000Y-105730000D03*
X141800000Y-104180000D03*
D13*
X150390000Y-110135000D03*
X150390000Y-108485000D03*
D46*
X111200000Y-97580000D03*
D15*
X111200000Y-95040000D03*
X111200000Y-92500000D03*
X111200000Y-89960000D03*
X111200000Y-87420000D03*
X111200000Y-84880000D03*
X111200000Y-82340000D03*
D47*
X111150000Y-70340000D03*
X111160000Y-109700000D03*
X179190000Y-70460000D03*
X179300000Y-109790000D03*
D20*
X160070000Y-81730000D03*
X160070000Y-83280000D03*
D48*
X126990000Y-101160000D03*
X124065000Y-101160000D03*
D49*
X127110000Y-93310000D03*
X139440000Y-87260000D03*
X142850000Y-108800000D03*
X124260000Y-106090000D03*
X122080000Y-114660000D03*
X172500000Y-74450000D03*
X145680000Y-106775000D03*
X180060000Y-91370000D03*
X173950000Y-91430000D03*
X174370000Y-101620000D03*
X138740000Y-100650000D03*
X167700000Y-97120000D03*
X133370000Y-98530000D03*
X173380000Y-86600000D03*
X112950000Y-97570000D03*
X128360000Y-98930000D03*
X151480000Y-83250000D03*
X131350000Y-72130000D03*
X160070000Y-84450000D03*
X128380000Y-104750000D03*
X140500000Y-104180000D03*
X122860000Y-101880000D03*
X142260000Y-76660000D03*
X139840000Y-76420000D03*
X135810000Y-91035000D03*
X148114963Y-103412360D03*
X148099997Y-99585000D03*
X140840000Y-72360000D03*
X134595871Y-91090758D03*
X136100000Y-77150000D03*
X134955331Y-88154669D03*
X117280000Y-95180000D03*
X157889995Y-83183961D03*
X155867653Y-80362347D03*
X162990000Y-88410000D03*
X157010000Y-87510000D03*
X157784298Y-88235000D03*
X160710000Y-88240000D03*
X166360000Y-78760000D03*
X166330000Y-87120000D03*
X142744483Y-74259177D03*
X140760000Y-75260000D03*
X144275000Y-76890000D03*
X158780000Y-89490000D03*
X158995000Y-90490000D03*
X145748418Y-78340000D03*
X149990000Y-102631823D03*
X149990000Y-100310000D03*
X146977802Y-101956229D03*
X144415000Y-102367664D03*
X149100000Y-103240000D03*
X149100000Y-99585000D03*
X146510000Y-77615000D03*
X140760000Y-78190000D03*
X166370000Y-76610000D03*
X165814684Y-89255346D03*
X123250000Y-84990000D03*
X123230000Y-88900000D03*
X130630000Y-92910000D03*
X131250000Y-95060000D03*
X158040000Y-91380000D03*
X144890000Y-78860000D03*
X175940000Y-99620000D03*
X155050000Y-108360000D03*
X153180000Y-108080000D03*
X156170000Y-108470000D03*
X157169922Y-108482657D03*
X134140000Y-83210000D03*
X125080000Y-93060000D03*
D50*
X144477500Y-104730000D02*
X142350000Y-104730000D01*
D51*
X117380000Y-113265000D02*
X117380000Y-107765000D01*
D50*
X129740000Y-89490000D02*
X129430001Y-89490000D01*
D51*
X121740000Y-101885000D02*
X121740000Y-102160000D01*
D50*
X140050000Y-97678510D02*
X139570000Y-98158510D01*
X144477500Y-105230000D02*
X144477500Y-104920000D01*
X136120000Y-86850000D02*
X134880000Y-86850000D01*
D51*
X124050000Y-79550000D02*
X125630000Y-81130000D01*
X138770000Y-100680000D02*
X138740000Y-100650000D01*
X134850000Y-86880000D02*
X134880000Y-86850000D01*
X121850000Y-98420000D02*
X121760000Y-98420000D01*
D50*
X151515000Y-83285000D02*
X151480000Y-83250000D01*
X127870000Y-93310000D02*
X127110000Y-93310000D01*
D51*
X125630000Y-88930000D02*
X126940000Y-88930000D01*
D50*
X163130000Y-96610000D02*
X167244800Y-96610000D01*
X133390000Y-98510000D02*
X133370000Y-98530000D01*
D51*
X126650000Y-99170000D02*
X127190000Y-98630000D01*
X128960000Y-86390000D02*
X129220000Y-86650000D01*
X182200000Y-75530000D02*
X183330599Y-76660599D01*
X123992500Y-98630000D02*
X124532500Y-99170000D01*
X145570000Y-100153358D02*
X141800000Y-103923358D01*
D50*
X149045000Y-106825000D02*
X147570000Y-108300000D01*
D51*
X129220000Y-86650000D02*
X129220000Y-88295000D01*
D50*
X160070000Y-83280000D02*
X159010000Y-83280000D01*
D51*
X172500000Y-76305000D02*
X172535000Y-76305000D01*
D50*
X145640000Y-106735000D02*
X145680000Y-106775000D01*
D51*
X133410000Y-93449604D02*
X133410000Y-96190000D01*
X143400000Y-109350000D02*
X142850000Y-108800000D01*
X121760000Y-98420000D02*
X121970000Y-98630000D01*
X125630000Y-86390000D02*
X128960000Y-86390000D01*
X139570000Y-100650000D02*
X139600000Y-100680000D01*
X121740000Y-101885000D02*
X122855000Y-101885000D01*
D50*
X156670001Y-82380000D02*
X155730001Y-83320000D01*
X134710000Y-86850000D02*
X134880000Y-86850000D01*
X142270000Y-77770000D02*
X142270000Y-76670000D01*
X147570000Y-108300000D02*
X146400000Y-108300000D01*
X129430001Y-89490000D02*
X128920000Y-90000001D01*
X139570000Y-98158510D02*
X139570000Y-98170000D01*
D51*
X139570000Y-99400000D02*
X139570000Y-100650000D01*
D50*
X173380000Y-90474800D02*
X173380000Y-86600000D01*
D51*
X122790000Y-103190000D02*
X124770000Y-103190000D01*
X183330599Y-90224201D02*
X182200000Y-91354800D01*
X139880000Y-77453120D02*
X139840000Y-77493120D01*
X128810000Y-96727106D02*
X128810000Y-95980000D01*
X140050000Y-80206880D02*
X140050000Y-81110000D01*
X127190000Y-98630000D02*
X127410000Y-98630000D01*
D50*
X133390000Y-97850000D02*
X133390000Y-98510000D01*
D51*
X123380000Y-107765000D02*
X123380000Y-106670000D01*
D50*
X172500000Y-91354800D02*
X173380000Y-90474800D01*
D51*
X124532500Y-99170000D02*
X126650000Y-99170000D01*
D50*
X139840000Y-77493120D02*
X139840000Y-76420000D01*
X145620000Y-99580000D02*
X145570000Y-99630000D01*
D51*
X145350000Y-109350000D02*
X143400000Y-109350000D01*
D50*
X141800000Y-104180000D02*
X140500000Y-104180000D01*
D51*
X133410000Y-96190000D02*
X133410000Y-97830000D01*
D50*
X146140000Y-105892500D02*
X145640000Y-105892500D01*
X140050000Y-96460000D02*
X140050000Y-97678510D01*
D51*
X116320000Y-82700000D02*
X119470000Y-79550000D01*
D52*
X122060000Y-113265000D02*
X117380000Y-113265000D01*
D50*
X167244800Y-96610000D02*
X167700000Y-97065200D01*
X156980000Y-82380000D02*
X156670001Y-82380000D01*
D51*
X139570000Y-98170000D02*
X139570000Y-99400000D01*
X139840000Y-77493120D02*
X139840000Y-78783120D01*
X123380000Y-107765000D02*
X126180000Y-107765000D01*
D50*
X173343600Y-86636400D02*
X173380000Y-86600000D01*
D51*
X128270000Y-89350001D02*
X128920000Y-90000001D01*
D50*
X139840000Y-79220000D02*
X139840000Y-78783120D01*
D51*
X127907106Y-97630000D02*
X128810000Y-96727106D01*
D50*
X160070000Y-83280000D02*
X160070000Y-84450000D01*
X128810000Y-95980000D02*
X128810000Y-94250000D01*
X142270000Y-76670000D02*
X142260000Y-76660000D01*
D51*
X137875000Y-87285000D02*
X139415000Y-87285000D01*
D50*
X140050000Y-79430000D02*
X139840000Y-79220000D01*
D51*
X139415000Y-87285000D02*
X139440000Y-87260000D01*
D50*
X122060000Y-113265000D02*
X122060000Y-114640000D01*
X145640000Y-105892500D02*
X145640000Y-106735000D01*
X123380000Y-106970000D02*
X124260000Y-106090000D01*
X127620000Y-103990000D02*
X128380000Y-104750000D01*
D51*
X126917500Y-97630000D02*
X127907106Y-97630000D01*
D50*
X127710000Y-98930000D02*
X127410000Y-98630000D01*
D51*
X181425000Y-76305000D02*
X182200000Y-75530000D01*
X129220000Y-88295000D02*
X128270000Y-89245000D01*
X116320000Y-85340000D02*
X116320000Y-82700000D01*
X146400000Y-108300000D02*
X145350000Y-109350000D01*
X172500000Y-76305000D02*
X181425000Y-76305000D01*
D50*
X140050000Y-80206880D02*
X140050000Y-79430000D01*
D51*
X128270000Y-89245000D02*
X128145000Y-89245000D01*
D50*
X172500000Y-91354800D02*
X173874800Y-91354800D01*
X128360000Y-98930000D02*
X127710000Y-98930000D01*
D51*
X127255000Y-89245000D02*
X128270000Y-89245000D01*
D50*
X136555000Y-87285000D02*
X137875000Y-87285000D01*
X159010000Y-83280000D02*
X158110000Y-82380000D01*
X149045000Y-106825000D02*
X150360000Y-106825000D01*
X142350000Y-104730000D02*
X141800000Y-104180000D01*
D51*
X121970000Y-98630000D02*
X123992500Y-98630000D01*
X122780000Y-103200000D02*
X122790000Y-103190000D01*
X139600000Y-100680000D02*
X138770000Y-100680000D01*
D50*
X153225000Y-83285000D02*
X155475000Y-83285000D01*
D51*
X145570000Y-99630000D02*
X145570000Y-100153358D01*
D50*
X156980000Y-82380000D02*
X156991490Y-82380000D01*
D51*
X128270000Y-89245000D02*
X128270000Y-89350001D01*
X119470000Y-79550000D02*
X124050000Y-79550000D01*
D50*
X131720000Y-82250000D02*
X131720000Y-82600000D01*
X128810000Y-94250000D02*
X127870000Y-93310000D01*
X171726200Y-86636400D02*
X173343600Y-86636400D01*
X182200000Y-91354800D02*
X180075200Y-91354800D01*
X125570000Y-103990000D02*
X127620000Y-103990000D01*
D51*
X137875000Y-92285000D02*
X134574604Y-92285000D01*
D50*
X147030000Y-99580000D02*
X145620000Y-99580000D01*
X124770000Y-103190000D02*
X125570000Y-103990000D01*
X158110000Y-82380000D02*
X156980000Y-82380000D01*
D51*
X141800000Y-103923358D02*
X141800000Y-104180000D01*
D50*
X167700000Y-97065200D02*
X167700000Y-97120000D01*
D52*
X126180000Y-113265000D02*
X122060000Y-113265000D01*
D50*
X136120000Y-86850000D02*
X136555000Y-87285000D01*
X155730001Y-83320000D02*
X155510000Y-83320000D01*
D51*
X133410000Y-97830000D02*
X133390000Y-97850000D01*
D50*
X123380000Y-107765000D02*
X123380000Y-106970000D01*
D51*
X134574604Y-92285000D02*
X133410000Y-93449604D01*
D50*
X153225000Y-83285000D02*
X151515000Y-83285000D01*
X144477500Y-104920000D02*
X144477500Y-104730000D01*
D51*
X126940000Y-88930000D02*
X127255000Y-89245000D01*
X122855000Y-101885000D02*
X122860000Y-101880000D01*
X121740000Y-102160000D02*
X122780000Y-103200000D01*
D50*
X122060000Y-114640000D02*
X122080000Y-114660000D01*
X180075200Y-91354800D02*
X180060000Y-91370000D01*
D51*
X126917500Y-98630000D02*
X127410000Y-98630000D01*
D50*
X173874800Y-91354800D02*
X173950000Y-91430000D01*
X155475000Y-83285000D02*
X155510000Y-83320000D01*
X172500000Y-76305000D02*
X172500000Y-74450000D01*
D51*
X183330599Y-76660599D02*
X183330599Y-90224201D01*
X134950000Y-89220000D02*
X134950000Y-89210000D01*
D50*
X132910000Y-84660000D02*
X132910000Y-85910000D01*
X132910000Y-85910000D02*
X132280000Y-86540000D01*
D51*
X135885000Y-88285000D02*
X134950000Y-89220000D01*
X134950000Y-89210000D02*
X132280000Y-86540000D01*
X137875000Y-88285000D02*
X135885000Y-88285000D01*
D50*
X131950000Y-86210000D02*
X132280000Y-86540000D01*
X137875000Y-89285000D02*
X137007236Y-89285000D01*
X136750000Y-90095000D02*
X135810000Y-91035000D01*
X137007236Y-89285000D02*
X136750000Y-89542236D01*
X136750000Y-89542236D02*
X136750000Y-90095000D01*
X136825000Y-80285000D02*
X136825000Y-76849695D01*
X136825000Y-76849695D02*
X136400304Y-76425000D01*
X136210000Y-82690000D02*
X136210000Y-80900000D01*
X136805000Y-83285000D02*
X136210000Y-82690000D01*
X136400304Y-76425000D02*
X134745000Y-76425000D01*
X137875000Y-83285000D02*
X136805000Y-83285000D01*
X134745000Y-76425000D02*
X133900000Y-77270000D01*
X136210000Y-80900000D02*
X136825000Y-80285000D01*
D51*
X137875000Y-83785000D02*
X135140000Y-83785000D01*
X135140000Y-83785000D02*
X135110000Y-83815000D01*
X136095000Y-88785000D02*
X135760000Y-89120000D01*
X135390000Y-90240000D02*
X134950000Y-90240000D01*
X132280000Y-90240000D02*
X134950000Y-90240000D01*
X135760000Y-89870000D02*
X135390000Y-90240000D01*
D50*
X132070000Y-90450000D02*
X132280000Y-90240000D01*
X129740000Y-90450000D02*
X132070000Y-90450000D01*
D51*
X137875000Y-88785000D02*
X136095000Y-88785000D01*
X135760000Y-89120000D02*
X135760000Y-89870000D01*
D52*
X117280000Y-93290000D02*
X117280000Y-95180000D01*
X140530000Y-98170000D02*
X140530000Y-99400000D01*
D51*
X148114963Y-103412360D02*
X148114963Y-104355037D01*
D52*
X129902500Y-93792500D02*
X128155000Y-92045000D01*
X162860000Y-91640000D02*
X162840000Y-91660000D01*
X172583600Y-84436400D02*
X171726200Y-84436400D01*
X173336400Y-84436400D02*
X175210000Y-86310000D01*
D50*
X115410000Y-92972460D02*
X114765000Y-93617460D01*
D52*
X175210000Y-86310000D02*
X175210000Y-91810000D01*
D51*
X144994999Y-106350000D02*
X144850000Y-106494999D01*
X144850000Y-106494999D02*
X144850000Y-108300000D01*
D50*
X136120000Y-85890000D02*
X134880000Y-85890000D01*
D53*
X168220000Y-75610000D02*
X163140000Y-75610000D01*
D51*
X134380000Y-85890000D02*
X134020000Y-86250000D01*
D50*
X132495000Y-81005000D02*
X132495000Y-82734052D01*
D52*
X165170000Y-83320000D02*
X162675000Y-83320000D01*
D50*
X165010000Y-91660000D02*
X165030000Y-91640000D01*
X134560000Y-84800000D02*
X134880000Y-85120000D01*
D51*
X128895000Y-98130000D02*
X129850000Y-97175000D01*
D50*
X132725000Y-76565000D02*
X133640000Y-75650000D01*
D53*
X153400000Y-82360000D02*
X153225000Y-82535000D01*
D50*
X138880000Y-78783120D02*
X138880000Y-77493120D01*
D51*
X134880000Y-85890000D02*
X134380000Y-85890000D01*
D50*
X145650000Y-107500000D02*
X146710000Y-107500000D01*
D52*
X140706497Y-105730000D02*
X139550000Y-104573503D01*
D50*
X169980000Y-91640000D02*
X171610000Y-93270000D01*
X134595871Y-91669129D02*
X134480000Y-91785000D01*
D52*
X167590000Y-83420000D02*
X165270000Y-83420000D01*
X148826497Y-98515000D02*
X150909594Y-98515000D01*
D50*
X138880000Y-78783120D02*
X138880000Y-79220000D01*
D53*
X126990000Y-102520000D02*
X126320000Y-103190000D01*
D51*
X134020000Y-86250000D02*
X134020000Y-87320000D01*
D53*
X155510000Y-82360000D02*
X153400000Y-82360000D01*
D50*
X145140000Y-106204999D02*
X144994999Y-106350000D01*
D53*
X130925000Y-101471912D02*
X136448409Y-101471912D01*
D52*
X148150000Y-99191497D02*
X148826497Y-98515000D01*
D51*
X134485000Y-87785000D02*
X134840000Y-87785000D01*
D50*
X132725000Y-79005000D02*
X132725000Y-76565000D01*
X139550000Y-79890000D02*
X139550000Y-81110000D01*
D52*
X175210000Y-91810000D02*
X173990000Y-93030000D01*
X144850000Y-108300000D02*
X144370000Y-108300000D01*
X140530000Y-100650000D02*
X140560000Y-100680000D01*
D50*
X114765000Y-94555000D02*
X115390000Y-95180000D01*
D52*
X144370000Y-108300000D02*
X141800000Y-105730000D01*
D51*
X132215000Y-93930000D02*
X130992500Y-93930000D01*
X126917500Y-98130000D02*
X128895000Y-98130000D01*
D53*
X157560000Y-72430000D02*
X155210000Y-74780000D01*
D50*
X146802500Y-105230000D02*
X147200788Y-105230000D01*
X138880000Y-79220000D02*
X139550000Y-79890000D01*
X167490000Y-83320000D02*
X167590000Y-83420000D01*
D52*
X172583600Y-84436400D02*
X173336400Y-84436400D01*
D51*
X147240000Y-105230000D02*
X147200788Y-105230000D01*
D53*
X129206912Y-103190000D02*
X130925000Y-101471912D01*
D51*
X133285000Y-91785000D02*
X134480000Y-91785000D01*
D50*
X116200000Y-87980000D02*
X115410000Y-88770000D01*
D53*
X168718600Y-84436400D02*
X168430000Y-84725000D01*
X163140000Y-75610000D02*
X159960000Y-72430000D01*
D51*
X132215000Y-93930000D02*
X132215000Y-92855000D01*
D52*
X148099997Y-99585000D02*
X148150000Y-99534997D01*
D53*
X132990000Y-78840000D02*
X134410000Y-78840000D01*
X154390000Y-73960000D02*
X152790000Y-72360000D01*
D52*
X170920000Y-78310000D02*
X173720000Y-78310000D01*
D50*
X136725000Y-85285000D02*
X137875000Y-85285000D01*
D52*
X175420000Y-80010000D02*
X175420000Y-82500000D01*
X141800000Y-105730000D02*
X140706497Y-105730000D01*
X128155000Y-92045000D02*
X118525000Y-92045000D01*
X175420000Y-82500000D02*
X173483600Y-84436400D01*
X167610000Y-91640000D02*
X167600000Y-91630000D01*
D53*
X160855000Y-81500000D02*
X156370000Y-81500000D01*
D52*
X165030000Y-91640000D02*
X162860000Y-91640000D01*
D51*
X148114963Y-104355037D02*
X147240000Y-105230000D01*
X146802500Y-105730000D02*
X146802500Y-106210000D01*
X134840000Y-87785000D02*
X137875000Y-87785000D01*
D53*
X152790000Y-72360000D02*
X140840000Y-72360000D01*
X132775000Y-79055000D02*
X132990000Y-78840000D01*
D52*
X140560000Y-101690000D02*
X139750000Y-102500000D01*
X165040000Y-91630000D02*
X165030000Y-91640000D01*
D53*
X126990000Y-101160000D02*
X126990000Y-102520000D01*
D50*
X134840000Y-88039338D02*
X134955331Y-88154669D01*
D53*
X132215000Y-93930000D02*
X132215000Y-93225000D01*
D52*
X139550000Y-102700000D02*
X139750000Y-102500000D01*
X173483600Y-84436400D02*
X172583600Y-84436400D01*
D50*
X134595871Y-91090758D02*
X134595871Y-91669129D01*
D52*
X151770000Y-97654594D02*
X151770000Y-97540000D01*
D53*
X131660000Y-80170000D02*
X132775000Y-79055000D01*
X126320000Y-103190000D02*
X129206912Y-103190000D01*
D50*
X114765000Y-93617460D02*
X114765000Y-94555000D01*
D52*
X167600000Y-91630000D02*
X165040000Y-91630000D01*
X167590000Y-85565000D02*
X165160000Y-85565000D01*
D50*
X169790000Y-91640000D02*
X169980000Y-91640000D01*
D53*
X130925000Y-101471912D02*
X130925000Y-98250000D01*
D50*
X145140000Y-105892500D02*
X145140000Y-106204999D01*
X126295000Y-103165000D02*
X126320000Y-103190000D01*
X144850000Y-108300000D02*
X145650000Y-107500000D01*
D52*
X173990000Y-93030000D02*
X171180000Y-93030000D01*
D50*
X115390000Y-95180000D02*
X117280000Y-95180000D01*
D52*
X173720000Y-78310000D02*
X175420000Y-80010000D01*
D53*
X129902500Y-95020000D02*
X129902500Y-97122500D01*
D52*
X148150000Y-99534997D02*
X148150000Y-99191497D01*
D50*
X134880000Y-85120000D02*
X134880000Y-85890000D01*
X133640000Y-75650000D02*
X137036880Y-75650000D01*
D51*
X134020000Y-87320000D02*
X134485000Y-87785000D01*
D50*
X131660000Y-80170000D02*
X132495000Y-81005000D01*
D52*
X169790000Y-91640000D02*
X167610000Y-91640000D01*
D50*
X134560000Y-84799052D02*
X134560000Y-84800000D01*
D52*
X140560000Y-100680000D02*
X140560000Y-101690000D01*
X129902500Y-95020000D02*
X129902500Y-93792500D01*
X165270000Y-83420000D02*
X165170000Y-83320000D01*
D50*
X165155000Y-83305000D02*
X165170000Y-83320000D01*
D51*
X132215000Y-92855000D02*
X133285000Y-91785000D01*
D50*
X115410000Y-88770000D02*
X115410000Y-92972460D01*
D52*
X168430000Y-84725000D02*
X167590000Y-85565000D01*
D53*
X171726200Y-84436400D02*
X168718600Y-84436400D01*
D52*
X165160000Y-85565000D02*
X165150000Y-85555000D01*
D50*
X136120000Y-85890000D02*
X136725000Y-85285000D01*
X146710000Y-107500000D02*
X146802500Y-107407500D01*
D52*
X169780000Y-77170000D02*
X170920000Y-78310000D01*
D50*
X146802500Y-105230000D02*
X146802500Y-105730000D01*
D53*
X129902500Y-97122500D02*
X129850000Y-97175000D01*
X161335000Y-81980000D02*
X160855000Y-81500000D01*
X169780000Y-77170000D02*
X168220000Y-75610000D01*
X136448409Y-101471912D02*
X139550000Y-104573503D01*
D52*
X171180000Y-93030000D02*
X169790000Y-91640000D01*
D53*
X156370000Y-81500000D02*
X155510000Y-82360000D01*
X159960000Y-72430000D02*
X157560000Y-72430000D01*
D50*
X140550000Y-98150000D02*
X140530000Y-98170000D01*
X151550000Y-97600000D02*
X151550000Y-96460000D01*
X134840000Y-87785000D02*
X134840000Y-88039338D01*
D53*
X130925000Y-98250000D02*
X129850000Y-97175000D01*
D52*
X118525000Y-92045000D02*
X117280000Y-93290000D01*
X150909594Y-98515000D02*
X151770000Y-97654594D01*
X139550000Y-104573503D02*
X139550000Y-102700000D01*
D51*
X134480000Y-91785000D02*
X137875000Y-91785000D01*
D52*
X167590000Y-83420000D02*
X167590000Y-83885000D01*
D50*
X137036880Y-75650000D02*
X138880000Y-77493120D01*
D52*
X140530000Y-99400000D02*
X140530000Y-100650000D01*
X154390000Y-73960000D02*
X155210000Y-74780000D01*
D50*
X132775000Y-79055000D02*
X132725000Y-79005000D01*
D52*
X162660000Y-83305000D02*
X161335000Y-81980000D01*
D50*
X146802500Y-107407500D02*
X146802500Y-106210000D01*
D51*
X130992500Y-93930000D02*
X129902500Y-95020000D01*
X129850000Y-97175000D02*
X130295000Y-97175000D01*
D50*
X140550000Y-96460000D02*
X140550000Y-98150000D01*
D52*
X167590000Y-83885000D02*
X168430000Y-84725000D01*
D51*
X146802500Y-106210000D02*
X146802500Y-106347500D01*
D50*
X132495000Y-82734052D02*
X134560000Y-84799052D01*
D52*
X162675000Y-83320000D02*
X162660000Y-83305000D01*
D53*
X134410000Y-78840000D02*
X136100000Y-77150000D01*
X116240000Y-90480000D02*
X116240000Y-93517500D01*
D52*
X116200000Y-90440000D02*
X116240000Y-90480000D01*
D53*
X116240000Y-93517500D02*
X115690000Y-94067500D01*
D51*
X134985000Y-93285000D02*
X137875000Y-93285000D01*
X134370000Y-96190000D02*
X134370000Y-97830000D01*
X134370000Y-96190000D02*
X134370000Y-93960000D01*
X134370000Y-97830000D02*
X134350000Y-97850000D01*
X134340000Y-93930000D02*
X134985000Y-93285000D01*
X134370000Y-93960000D02*
X134340000Y-93930000D01*
X142190000Y-98890000D02*
X142050000Y-98750000D01*
X142050000Y-98750000D02*
X142050000Y-96460000D01*
D50*
X154873604Y-84640000D02*
X154518604Y-84285000D01*
X157889995Y-83890005D02*
X157140000Y-84640000D01*
X157140000Y-84640000D02*
X154873604Y-84640000D01*
X154518604Y-84285000D02*
X153225000Y-84285000D01*
X157889995Y-83183961D02*
X157889995Y-83890005D01*
X155762347Y-80362347D02*
X155260000Y-79860000D01*
X151550000Y-80020000D02*
X151710000Y-79860000D01*
X155867653Y-80362347D02*
X155762347Y-80362347D01*
X151550000Y-81110000D02*
X151550000Y-80020000D01*
X151710000Y-79860000D02*
X155260000Y-79860000D01*
D51*
X157010000Y-87510000D02*
X156785000Y-87285000D01*
X165690000Y-88455000D02*
X163035000Y-88455000D01*
X156785000Y-87285000D02*
X153225000Y-87285000D01*
X166075000Y-88455000D02*
X165690000Y-88455000D01*
X163035000Y-88455000D02*
X162990000Y-88410000D01*
X167600000Y-89980000D02*
X166075000Y-88455000D01*
D50*
X168743600Y-88836400D02*
X171726200Y-88836400D01*
X167600000Y-89980000D02*
X168743600Y-88836400D01*
X160710000Y-88240000D02*
X160710000Y-87560000D01*
X160710000Y-87560000D02*
X161390000Y-86880000D01*
D51*
X164295000Y-87955000D02*
X162845000Y-86505000D01*
D50*
X155285000Y-87785000D02*
X155735000Y-88235000D01*
X168111400Y-87736400D02*
X171726200Y-87736400D01*
D51*
X167590000Y-87215000D02*
X166850000Y-87955000D01*
X166850000Y-87955000D02*
X164295000Y-87955000D01*
D50*
X167590000Y-87215000D02*
X168111400Y-87736400D01*
X155735000Y-88235000D02*
X157784298Y-88235000D01*
X157829732Y-88189566D02*
X157784298Y-88235000D01*
D51*
X155146667Y-87785000D02*
X153225000Y-87785000D01*
X162845000Y-86505000D02*
X161765000Y-86505000D01*
D50*
X155146667Y-87785000D02*
X155285000Y-87785000D01*
D51*
X161765000Y-86505000D02*
X161390000Y-86880000D01*
D50*
X165865000Y-86490000D02*
X168115948Y-86490000D01*
X150908248Y-78030000D02*
X165600000Y-78030000D01*
D51*
X149550000Y-79910000D02*
X149550000Y-81110000D01*
D50*
X170857652Y-85536400D02*
X171726200Y-85536400D01*
X149550000Y-79910000D02*
X149550000Y-79388248D01*
X165660000Y-78060000D02*
X166360000Y-78760000D01*
X165600000Y-78030000D02*
X165630000Y-78060000D01*
D51*
X165150000Y-87205000D02*
X165150000Y-87196642D01*
D50*
X165235000Y-87120000D02*
X165150000Y-87205000D01*
X171689800Y-85500000D02*
X171726200Y-85536400D01*
X165150000Y-87205000D02*
X165865000Y-86490000D01*
X149550000Y-79388248D02*
X150908248Y-78030000D01*
X165630000Y-78060000D02*
X165660000Y-78060000D01*
X166330000Y-87120000D02*
X165235000Y-87120000D01*
X168115948Y-86490000D02*
X169105948Y-85500000D01*
X169105948Y-85500000D02*
X171689800Y-85500000D01*
D51*
X148050000Y-79590000D02*
X148050000Y-81110000D01*
X171726200Y-83336400D02*
X172963600Y-83336400D01*
X169510000Y-79130000D02*
X167740000Y-77360000D01*
X167740000Y-77360000D02*
X150280000Y-77360000D01*
X150280000Y-77360000D02*
X148050000Y-79590000D01*
X173140000Y-79130000D02*
X169510000Y-79130000D01*
X172963600Y-83336400D02*
X174440000Y-81860000D01*
D50*
X169156400Y-83336400D02*
X171726200Y-83336400D01*
D51*
X174440000Y-81860000D02*
X174440000Y-80430000D01*
X174440000Y-80430000D02*
X173140000Y-79130000D01*
D50*
X167590000Y-81770000D02*
X169156400Y-83336400D01*
D51*
X173490000Y-81710000D02*
X173490000Y-80580000D01*
X150960000Y-78650000D02*
X150050000Y-79560000D01*
X173490000Y-80580000D02*
X172680000Y-79770000D01*
X160870000Y-78650000D02*
X150960000Y-78650000D01*
D50*
X169756400Y-82236400D02*
X171726200Y-82236400D01*
X165850000Y-80990000D02*
X168510000Y-80990000D01*
X165170000Y-81670000D02*
X165850000Y-80990000D01*
D51*
X171726200Y-82236400D02*
X172963600Y-82236400D01*
X172680000Y-79770000D02*
X161990000Y-79770000D01*
X161990000Y-79770000D02*
X160870000Y-78650000D01*
X172963600Y-82236400D02*
X173490000Y-81710000D01*
X150050000Y-79560000D02*
X150050000Y-81110000D01*
D50*
X168510000Y-80990000D02*
X169756400Y-82236400D01*
D51*
X151120000Y-79320000D02*
X150550000Y-79890000D01*
D50*
X162660000Y-81655000D02*
X163945000Y-80370000D01*
X169130000Y-80370000D02*
X169896400Y-81136400D01*
D51*
X160325000Y-79320000D02*
X151120000Y-79320000D01*
D50*
X169896400Y-81136400D02*
X171726200Y-81136400D01*
D51*
X150550000Y-79890000D02*
X150550000Y-81110000D01*
X162660000Y-81655000D02*
X160325000Y-79320000D01*
D50*
X163945000Y-80370000D02*
X169130000Y-80370000D01*
D51*
X141510000Y-74949339D02*
X141510000Y-79320000D01*
X112400000Y-81080000D02*
X118970000Y-74510000D01*
X111200000Y-84880000D02*
X111200000Y-84150000D01*
X142050000Y-79860000D02*
X142050000Y-81110000D01*
X141510000Y-79320000D02*
X142050000Y-79860000D01*
X111200000Y-84150000D02*
X112400000Y-82950000D01*
X141070661Y-74510000D02*
X141510000Y-74949339D01*
X112400000Y-82950000D02*
X112400000Y-81080000D01*
X118970000Y-74510000D02*
X141070661Y-74510000D01*
D50*
X111200000Y-81170000D02*
X111200000Y-82340000D01*
X118360000Y-74010000D02*
X111200000Y-81170000D01*
X141470000Y-74010000D02*
X118360000Y-74010000D01*
X143050000Y-75590000D02*
X141470000Y-74010000D01*
X143050000Y-81110000D02*
X143050000Y-75590000D01*
X140485000Y-74985000D02*
X119605000Y-74985000D01*
X113090000Y-81500000D02*
X113090000Y-85530000D01*
D51*
X111200000Y-87420000D02*
X111200000Y-87112894D01*
D50*
X142744483Y-74259177D02*
X143550000Y-75064694D01*
X113090000Y-85530000D02*
X111200000Y-87420000D01*
X140760000Y-75260000D02*
X140485000Y-74985000D01*
X119605000Y-74985000D02*
X113090000Y-81500000D01*
X143550000Y-75064694D02*
X143550000Y-81110000D01*
X159240000Y-94915000D02*
X158435000Y-95720000D01*
X144290000Y-74440000D02*
X143385000Y-73535000D01*
X159240000Y-92800000D02*
X159240000Y-94915000D01*
X144290000Y-78230000D02*
X144290000Y-74440000D01*
X117735000Y-73535000D02*
X109940000Y-81330000D01*
X109940000Y-81330000D02*
X109940000Y-88700000D01*
X109940000Y-88700000D02*
X111200000Y-89960000D01*
X143385000Y-73535000D02*
X117735000Y-73535000D01*
X159720000Y-92320000D02*
X159240000Y-92800000D01*
X159720000Y-90070000D02*
X159720000Y-92320000D01*
X158780000Y-89490000D02*
X159140000Y-89490000D01*
X144050000Y-78470000D02*
X144290000Y-78230000D01*
X159140000Y-89490000D02*
X159720000Y-90070000D01*
X144050000Y-81110000D02*
X144050000Y-78470000D01*
X158400000Y-92410000D02*
X158400000Y-93755000D01*
X145710000Y-78370000D02*
X145710000Y-79270000D01*
X111200000Y-92500000D02*
X109490000Y-90790000D01*
X145050000Y-79930000D02*
X145050000Y-81110000D01*
D51*
X145050000Y-81110000D02*
X145050000Y-80206880D01*
D50*
X145718418Y-78370000D02*
X145710000Y-78370000D01*
X117225000Y-73085000D02*
X143715000Y-73085000D01*
X158995000Y-90490000D02*
X158990000Y-90495000D01*
X158400000Y-93755000D02*
X158375000Y-93780000D01*
X109490000Y-90790000D02*
X109490000Y-80820000D01*
X145710000Y-75080000D02*
X145710000Y-78370000D01*
X145748418Y-78340000D02*
X145718418Y-78370000D01*
X143715000Y-73085000D02*
X145710000Y-75080000D01*
X158990000Y-91820000D02*
X158400000Y-92410000D01*
X158990000Y-90495000D02*
X158990000Y-91820000D01*
X145710000Y-79270000D02*
X145050000Y-79930000D01*
X109490000Y-80820000D02*
X117225000Y-73085000D01*
D51*
X157750000Y-104325000D02*
X157195000Y-104325000D01*
X158575000Y-105150000D02*
X157750000Y-104325000D01*
X156725000Y-89955000D02*
X155055000Y-88285000D01*
X156725000Y-103855000D02*
X156725000Y-89955000D01*
X157195000Y-104325000D02*
X156725000Y-103855000D01*
X155055000Y-88285000D02*
X153225000Y-88285000D01*
X154320000Y-104345000D02*
X155725000Y-104345000D01*
X156225000Y-103845000D02*
X156225000Y-90365000D01*
X153495000Y-105170000D02*
X154320000Y-104345000D01*
X155725000Y-104345000D02*
X156225000Y-103845000D01*
X156225000Y-90365000D02*
X154645000Y-88785000D01*
X154645000Y-88785000D02*
X153225000Y-88785000D01*
D50*
X151878177Y-102631823D02*
X155740000Y-98770000D01*
X155740000Y-94213604D02*
X154811396Y-93285000D01*
X149990000Y-100310000D02*
X146770000Y-100310000D01*
X155740000Y-98770000D02*
X155740000Y-94213604D01*
X145140000Y-101940000D02*
X145140000Y-104067500D01*
X154811396Y-93285000D02*
X153225000Y-93285000D01*
X146770000Y-100310000D02*
X145140000Y-101940000D01*
X149990000Y-102631823D02*
X151878177Y-102631823D01*
X155290000Y-94400000D02*
X154675000Y-93785000D01*
X143550000Y-104230000D02*
X144477500Y-104230000D01*
X147026378Y-101907653D02*
X151422347Y-101907653D01*
X154675000Y-93785000D02*
X153225000Y-93785000D01*
X151422347Y-101907653D02*
X155290000Y-98040000D01*
X146977802Y-101956229D02*
X147026378Y-101907653D01*
X144415000Y-102367664D02*
X143370000Y-103412664D01*
X155290000Y-98040000D02*
X155290000Y-94400000D01*
X143370000Y-104050000D02*
X143550000Y-104230000D01*
X143370000Y-103412664D02*
X143370000Y-104050000D01*
X151160000Y-101080000D02*
X146830000Y-101080000D01*
X153225000Y-94285000D02*
X154385000Y-94285000D01*
X145640000Y-102270000D02*
X145640000Y-104067500D01*
X154840000Y-94740000D02*
X154840000Y-97400000D01*
X154385000Y-94285000D02*
X154840000Y-94740000D01*
X146830000Y-101080000D02*
X145640000Y-102270000D01*
X154840000Y-97400000D02*
X151160000Y-101080000D01*
X154250000Y-94860000D02*
X154175000Y-94785000D01*
X149100000Y-103240000D02*
X148541229Y-102681229D01*
X146518771Y-102681229D02*
X146140000Y-103060000D01*
X148541229Y-102681229D02*
X146518771Y-102681229D01*
X146140000Y-103060000D02*
X146140000Y-104067500D01*
X154175000Y-94785000D02*
X153225000Y-94785000D01*
X149100000Y-99585000D02*
X151425000Y-99585000D01*
X151425000Y-99585000D02*
X154250000Y-96760000D01*
X154250000Y-96760000D02*
X154250000Y-94860000D01*
X170493600Y-89936400D02*
X171726200Y-89936400D01*
X146510000Y-77615000D02*
X148975000Y-77615000D01*
X141550000Y-80242236D02*
X140760000Y-79452236D01*
X148975000Y-77615000D02*
X149830000Y-76760000D01*
X140760000Y-79452236D02*
X140760000Y-78190000D01*
X165080030Y-89990000D02*
X165814684Y-89255346D01*
X165030000Y-89990000D02*
X165080030Y-89990000D01*
X169525000Y-90905000D02*
X170493600Y-89936400D01*
X149830000Y-76760000D02*
X166220000Y-76760000D01*
X141550000Y-81110000D02*
X141550000Y-80242236D01*
X165945000Y-90905000D02*
X169525000Y-90905000D01*
X166220000Y-76760000D02*
X166370000Y-76610000D01*
X165030000Y-89990000D02*
X165945000Y-90905000D01*
D51*
X123230000Y-88900000D02*
X120710000Y-88900000D01*
X120680000Y-88930000D02*
X118520000Y-88930000D01*
X117890000Y-89560000D02*
X117890000Y-90480000D01*
X118520000Y-88930000D02*
X117890000Y-89560000D01*
X123380000Y-85120000D02*
X123250000Y-84990000D01*
X120710000Y-88900000D02*
X120680000Y-88930000D01*
X125630000Y-85120000D02*
X123380000Y-85120000D01*
X128205000Y-87660000D02*
X125630000Y-87660000D01*
X128270000Y-87595000D02*
X128205000Y-87660000D01*
X142190000Y-100465000D02*
X142350000Y-100465000D01*
D50*
X142190000Y-101710000D02*
X141400000Y-102500000D01*
X142190000Y-100465000D02*
X142190000Y-101710000D01*
D51*
X117850000Y-87980000D02*
X118800000Y-87980000D01*
X132860000Y-99310000D02*
X131930000Y-98380000D01*
X119120000Y-87660000D02*
X120680000Y-87660000D01*
D50*
X130630000Y-92910000D02*
X130630000Y-92870000D01*
D51*
X118800000Y-87980000D02*
X119120000Y-87660000D01*
X131930000Y-98380000D02*
X131930000Y-95740000D01*
X137875000Y-93785000D02*
X136095000Y-93785000D01*
D50*
X129130000Y-91370000D02*
X117521642Y-91370000D01*
D51*
X135450000Y-98920000D02*
X135060000Y-99310000D01*
X131930000Y-95740000D02*
X131250000Y-95060000D01*
X117140000Y-90988358D02*
X117521642Y-91370000D01*
X136095000Y-93785000D02*
X135450000Y-94430000D01*
X117850000Y-87980000D02*
X117140000Y-88690000D01*
D50*
X130630000Y-92870000D02*
X129130000Y-91370000D01*
D51*
X135450000Y-94430000D02*
X135450000Y-98920000D01*
X117140000Y-88690000D02*
X117140000Y-90988358D01*
X135060000Y-99310000D02*
X132860000Y-99310000D01*
D50*
X128270000Y-100390000D02*
X127650000Y-99770000D01*
X120570000Y-98120000D02*
X120570000Y-99065000D01*
X122015000Y-99960000D02*
X121740000Y-100235000D01*
X123010000Y-98130000D02*
X122525000Y-97645000D01*
X128270000Y-100865000D02*
X128270000Y-100390000D01*
X121045000Y-97645000D02*
X120570000Y-98120000D01*
X122525000Y-97645000D02*
X121045000Y-97645000D01*
X124065000Y-101160000D02*
X123140000Y-100235000D01*
X123992500Y-98130000D02*
X123010000Y-98130000D01*
X125455000Y-99770000D02*
X124065000Y-101160000D01*
X123140000Y-100235000D02*
X121740000Y-100235000D01*
X127650000Y-99770000D02*
X125455000Y-99770000D01*
X120570000Y-99065000D02*
X121740000Y-100235000D01*
D51*
X162120000Y-85785000D02*
X162300000Y-85605000D01*
X153225000Y-85785000D02*
X162120000Y-85785000D01*
D50*
X157795000Y-86785000D02*
X153225000Y-86785000D01*
X158130000Y-87120000D02*
X157795000Y-86785000D01*
X158855000Y-86621996D02*
X158855000Y-88189603D01*
X153225000Y-86285000D02*
X158518004Y-86285000D01*
X157200000Y-99985000D02*
X158385000Y-101170000D01*
X158084603Y-88960000D02*
X158080000Y-88960000D01*
X157200000Y-89840000D02*
X157200000Y-99985000D01*
X158855000Y-88189603D02*
X158084603Y-88960000D01*
X158518004Y-86285000D02*
X158855000Y-86621996D01*
X158080000Y-88960000D02*
X157200000Y-89840000D01*
X158040000Y-91380000D02*
X157650000Y-91770000D01*
X158410000Y-96918004D02*
X158410000Y-99265000D01*
X158410000Y-99265000D02*
X158385000Y-99290000D01*
X157650000Y-91770000D02*
X157650000Y-96158004D01*
X144550000Y-79200000D02*
X144890000Y-78860000D01*
X144550000Y-81110000D02*
X144550000Y-79200000D01*
X157650000Y-96158004D02*
X158410000Y-96918004D01*
D52*
X115690000Y-98432500D02*
X115690000Y-96192500D01*
X116699708Y-101732500D02*
X115690000Y-101732500D01*
X120080000Y-105112792D02*
X116699708Y-101732500D01*
X120080000Y-107665000D02*
X120080000Y-105112792D01*
D51*
X145050000Y-98090000D02*
X145570000Y-98610000D01*
X145050000Y-96460000D02*
X145050000Y-98090000D01*
D50*
X142270000Y-79408248D02*
X142270000Y-78790000D01*
X142550000Y-81110000D02*
X142550000Y-79688248D01*
X142550000Y-79688248D02*
X142270000Y-79408248D01*
X156980000Y-83340000D02*
X156395000Y-83925000D01*
X154795000Y-83925000D02*
X154655000Y-83785000D01*
X156395000Y-83925000D02*
X154795000Y-83925000D01*
X154655000Y-83785000D02*
X153225000Y-83785000D01*
X150630000Y-97840000D02*
X151050000Y-97420000D01*
X147320000Y-97840000D02*
X150630000Y-97840000D01*
X147030000Y-98620000D02*
X147030000Y-98130000D01*
X151050000Y-97420000D02*
X151050000Y-96460000D01*
X147030000Y-98130000D02*
X147320000Y-97840000D01*
X159780000Y-87120000D02*
X159810000Y-87150000D01*
X159810000Y-89200000D02*
X160465000Y-89855000D01*
X162250000Y-97880000D02*
X163130000Y-97880000D01*
X160465000Y-92451396D02*
X161540000Y-93526396D01*
X159810000Y-87150000D02*
X159810000Y-89200000D01*
X160465000Y-89855000D02*
X160465000Y-92451396D01*
X161540000Y-93526396D02*
X161540000Y-97170000D01*
X161540000Y-97170000D02*
X162250000Y-97880000D01*
X161190000Y-92540000D02*
X161190000Y-91660000D01*
X163130000Y-94480000D02*
X161190000Y-92540000D01*
X163130000Y-95340000D02*
X163130000Y-94480000D01*
X160900000Y-97690000D02*
X161730000Y-98520000D01*
X161730000Y-98520000D02*
X161730000Y-100270000D01*
X160900000Y-94655000D02*
X160900000Y-97690000D01*
X161730000Y-100270000D02*
X161880000Y-100420000D01*
X160025000Y-93780000D02*
X160900000Y-94655000D01*
X161880000Y-100420000D02*
X163130000Y-100420000D01*
X162010000Y-104230000D02*
X163130000Y-104230000D01*
X160035000Y-101170000D02*
X160035000Y-102575000D01*
X161690000Y-104230000D02*
X162010000Y-104230000D01*
X160035000Y-102575000D02*
X161690000Y-104230000D01*
X161880000Y-104230000D02*
X162010000Y-104230000D01*
D51*
X167360000Y-93990000D02*
X168450000Y-95080000D01*
X162090000Y-87465000D02*
X162090000Y-92168358D01*
X162090000Y-92168358D02*
X163911642Y-93990000D01*
X168070000Y-99350000D02*
X163330000Y-99350000D01*
X168450000Y-98970000D02*
X168070000Y-99350000D01*
X162300000Y-87255000D02*
X162090000Y-87465000D01*
X168450000Y-95080000D02*
X168450000Y-98970000D01*
X163911642Y-93990000D02*
X167360000Y-93990000D01*
X163330000Y-99350000D02*
X163130000Y-99150000D01*
D50*
X160760000Y-100015000D02*
X160760000Y-101470000D01*
X160035000Y-99290000D02*
X160760000Y-100015000D01*
X160760000Y-101470000D02*
X162250000Y-102960000D01*
X162250000Y-102960000D02*
X163130000Y-102960000D01*
X162060000Y-101690000D02*
X163130000Y-101690000D01*
X160085000Y-98116996D02*
X161280000Y-99311996D01*
X160085000Y-95720000D02*
X160085000Y-98116996D01*
X161616396Y-101690000D02*
X163130000Y-101690000D01*
X161280000Y-101353604D02*
X161616396Y-101690000D01*
X161280000Y-99311996D02*
X161280000Y-101353604D01*
D52*
X119895000Y-101581202D02*
X123323798Y-105010000D01*
X148620000Y-110120000D02*
X150250000Y-108490000D01*
D51*
X121760000Y-96870000D02*
X123732500Y-96870000D01*
D52*
X123535000Y-105010000D02*
X124840000Y-105010000D01*
D51*
X122020000Y-97130000D02*
X121760000Y-96870000D01*
D52*
X131885000Y-110120000D02*
X148620000Y-110120000D01*
X120770000Y-96870000D02*
X119895000Y-97745000D01*
X126775000Y-105010000D02*
X131885000Y-110120000D01*
X121760000Y-96870000D02*
X120770000Y-96870000D01*
X122580000Y-107765000D02*
X122580000Y-105965000D01*
D51*
X123992500Y-97630000D02*
X123992500Y-97130000D01*
X123732500Y-96870000D02*
X123992500Y-97130000D01*
D52*
X123323798Y-105010000D02*
X126775000Y-105010000D01*
X122580000Y-105965000D02*
X123535000Y-105010000D01*
X119895000Y-97745000D02*
X119895000Y-101581202D01*
X114630000Y-92797866D02*
X114090000Y-93337866D01*
X173095000Y-111085000D02*
X125185000Y-111085000D01*
X114540000Y-99760000D02*
X115070000Y-100290000D01*
X114630000Y-88008798D02*
X114630000Y-92797866D01*
X116580000Y-86690000D02*
X115948798Y-86690000D01*
X175940000Y-99620000D02*
X175940000Y-108240000D01*
X114090000Y-94834594D02*
X114540000Y-95284594D01*
X124200000Y-112070000D02*
X122770000Y-112070000D01*
X120980000Y-84820000D02*
X120680000Y-85120000D01*
X117870000Y-85340000D02*
X117870000Y-85400000D01*
X120980000Y-81130000D02*
X120980000Y-84820000D01*
X120980000Y-104740000D02*
X120980000Y-106470000D01*
X114540000Y-95284594D02*
X114540000Y-99760000D01*
X118090000Y-85120000D02*
X117870000Y-85340000D01*
X117870000Y-85400000D02*
X116580000Y-86690000D01*
X122770000Y-112070000D02*
X120980000Y-110280000D01*
X114090000Y-93337866D02*
X114090000Y-94834594D01*
X116530000Y-100290000D02*
X120980000Y-104740000D01*
X115948798Y-86690000D02*
X114630000Y-88008798D01*
X120980000Y-110280000D02*
X120980000Y-108237792D01*
X125185000Y-111085000D02*
X124200000Y-112070000D01*
X175940000Y-108240000D02*
X173095000Y-111085000D01*
X120680000Y-85120000D02*
X118090000Y-85120000D01*
X115070000Y-100290000D02*
X116530000Y-100290000D01*
X154380000Y-109030000D02*
X155050000Y-108360000D01*
X151415000Y-109001202D02*
X151443798Y-109030000D01*
X151443798Y-109030000D02*
X154380000Y-109030000D01*
X150390000Y-110135000D02*
X150390000Y-110026202D01*
X150390000Y-110026202D02*
X151415000Y-109001202D01*
D50*
X150360000Y-105175000D02*
X151500000Y-106315000D01*
X151500000Y-107230000D02*
X152350000Y-108080000D01*
X152350000Y-108080000D02*
X153180000Y-108080000D01*
X151500000Y-106315000D02*
X151500000Y-107230000D01*
D51*
X155145000Y-105170000D02*
X155145000Y-106485000D01*
X155900000Y-107240000D02*
X156170000Y-107510000D01*
X155145000Y-106485000D02*
X155900000Y-107240000D01*
X156170000Y-107510000D02*
X156170000Y-108470000D01*
X156925000Y-105150000D02*
X156925000Y-108237735D01*
X156925000Y-108237735D02*
X157169922Y-108482657D01*
D50*
X129850000Y-100795000D02*
X129920000Y-100865000D01*
X129850000Y-98825000D02*
X129850000Y-100795000D01*
D51*
X134140000Y-83210000D02*
X134140000Y-82280000D01*
X133310000Y-80170000D02*
X133310000Y-82210000D01*
X135025000Y-82250000D02*
X135110000Y-82165000D01*
D50*
X118005000Y-95480305D02*
X118005000Y-93965000D01*
X118005000Y-93965000D02*
X118910000Y-93060000D01*
D51*
X134110000Y-82250000D02*
X135025000Y-82250000D01*
D50*
X121780000Y-105280000D02*
X121780000Y-104420796D01*
X117410000Y-96075305D02*
X118005000Y-95480305D01*
D51*
X133310000Y-82210000D02*
X133270000Y-82250000D01*
X133270000Y-82250000D02*
X134110000Y-82250000D01*
D50*
X118910000Y-93060000D02*
X125080000Y-93060000D01*
D51*
X134140000Y-82280000D02*
X134110000Y-82250000D01*
D50*
X121780000Y-104420796D02*
X117410000Y-100050796D01*
D51*
X121780000Y-107765000D02*
X121780000Y-105280000D01*
D50*
X117410000Y-100050796D02*
X117410000Y-96075305D01*
D51*
X126917500Y-97130000D02*
X127700000Y-97130000D01*
X127920000Y-95162500D02*
X127777500Y-95020000D01*
X127700000Y-97130000D02*
X127920000Y-96910000D01*
X127920000Y-96910000D02*
X127920000Y-95162500D01*
G04 #@! TA.AperFunction,Conductor*
G36*
X132543272Y-75638185D02*
G01*
X132589027Y-75690989D01*
X132598971Y-75760147D01*
X132569946Y-75823703D01*
X132563914Y-75830181D01*
X132483208Y-75910887D01*
X132421885Y-75944372D01*
X132352194Y-75939388D01*
X132317379Y-75926403D01*
X132317372Y-75926401D01*
X132257844Y-75920000D01*
X131610000Y-75920000D01*
X131610000Y-76836988D01*
X131552993Y-76804075D01*
X131425826Y-76770000D01*
X131294174Y-76770000D01*
X131167007Y-76804075D01*
X131110000Y-76836988D01*
X131110000Y-75920000D01*
X130462155Y-75920000D01*
X130402627Y-75926401D01*
X130402620Y-75926403D01*
X130267913Y-75976645D01*
X130267906Y-75976649D01*
X130152812Y-76062809D01*
X130152809Y-76062812D01*
X130066649Y-76177906D01*
X130066645Y-76177913D01*
X130016403Y-76312620D01*
X130016401Y-76312627D01*
X130010000Y-76372155D01*
X130010000Y-77020000D01*
X130926988Y-77020000D01*
X130894075Y-77077007D01*
X130860000Y-77204174D01*
X130860000Y-77335826D01*
X130894075Y-77462993D01*
X130926988Y-77520000D01*
X130010000Y-77520000D01*
X130010000Y-78167844D01*
X130016401Y-78227372D01*
X130016403Y-78227379D01*
X130066645Y-78362086D01*
X130066649Y-78362093D01*
X130152809Y-78477187D01*
X130152812Y-78477190D01*
X130267906Y-78563350D01*
X130267913Y-78563354D01*
X130402620Y-78613596D01*
X130402627Y-78613598D01*
X130462155Y-78619999D01*
X130462172Y-78620000D01*
X131110000Y-78620000D01*
X131110000Y-77703012D01*
X131167007Y-77735925D01*
X131294174Y-77770000D01*
X131425826Y-77770000D01*
X131552993Y-77735925D01*
X131610000Y-77703012D01*
X131610000Y-78620000D01*
X131625825Y-78620000D01*
X131692864Y-78639685D01*
X131738619Y-78692489D01*
X131748563Y-78761647D01*
X131719538Y-78825203D01*
X131713526Y-78831660D01*
X131460762Y-79084424D01*
X131383247Y-79161939D01*
X131332456Y-79192642D01*
X131167089Y-79244171D01*
X131019841Y-79333186D01*
X130898186Y-79454841D01*
X130809173Y-79602086D01*
X130757986Y-79766354D01*
X130753888Y-79811452D01*
X130752421Y-79827606D01*
X130751500Y-79837737D01*
X130751500Y-80502272D01*
X130757985Y-80573645D01*
X130757988Y-80573655D01*
X130809171Y-80737909D01*
X130809172Y-80737911D01*
X130809173Y-80737913D01*
X130821078Y-80757606D01*
X130898186Y-80885158D01*
X131019841Y-81006813D01*
X131019843Y-81006814D01*
X131019845Y-81006816D01*
X131167087Y-81095827D01*
X131186175Y-81101775D01*
X131244322Y-81140512D01*
X131272296Y-81204537D01*
X131261215Y-81273522D01*
X131214596Y-81325565D01*
X131188292Y-81337865D01*
X131186517Y-81338452D01*
X131186507Y-81338457D01*
X131042271Y-81427424D01*
X131042267Y-81427427D01*
X130922427Y-81547267D01*
X130922424Y-81547271D01*
X130833457Y-81691507D01*
X130833452Y-81691518D01*
X130780144Y-81852393D01*
X130770000Y-81951677D01*
X130770000Y-82000000D01*
X131737500Y-82000000D01*
X131804539Y-82019685D01*
X131850294Y-82072489D01*
X131861500Y-82124000D01*
X131861500Y-82796450D01*
X131885843Y-82918829D01*
X131885845Y-82918837D01*
X131931890Y-83030000D01*
X131933600Y-83034127D01*
X131949101Y-83057326D01*
X131969980Y-83124002D01*
X131970000Y-83126217D01*
X131970000Y-83224999D01*
X131993309Y-83224999D01*
X131993316Y-83224998D01*
X132022456Y-83222021D01*
X132091149Y-83234789D01*
X132122742Y-83257698D01*
X132552208Y-83687164D01*
X132585693Y-83748487D01*
X132580709Y-83818179D01*
X132538837Y-83874112D01*
X132513776Y-83888646D01*
X132510402Y-83890106D01*
X132484771Y-83905264D01*
X132417047Y-83922446D01*
X132358528Y-83905262D01*
X132346194Y-83897967D01*
X132346190Y-83897966D01*
X132200001Y-83855493D01*
X132200000Y-83855494D01*
X132200000Y-84145931D01*
X132182733Y-84209050D01*
X132170108Y-84230397D01*
X132170104Y-84230407D01*
X132124394Y-84387741D01*
X132124393Y-84387747D01*
X132121500Y-84424510D01*
X132121500Y-84786000D01*
X132101815Y-84853039D01*
X132049011Y-84898794D01*
X131997500Y-84910000D01*
X131171210Y-84910000D01*
X131166642Y-84914940D01*
X131155883Y-84966152D01*
X131106830Y-85015907D01*
X131046631Y-85031500D01*
X131031345Y-85031500D01*
X130970797Y-85038011D01*
X130970795Y-85038011D01*
X130833795Y-85089111D01*
X130716739Y-85176739D01*
X130629111Y-85293795D01*
X130578011Y-85430795D01*
X130578011Y-85430797D01*
X130571500Y-85491345D01*
X130571500Y-87588654D01*
X130578011Y-87649202D01*
X130578011Y-87649204D01*
X130598792Y-87704917D01*
X130629111Y-87786204D01*
X130716739Y-87903261D01*
X130833796Y-87990889D01*
X130970799Y-88041989D01*
X130998050Y-88044918D01*
X131031345Y-88048499D01*
X131031362Y-88048500D01*
X132805878Y-88048500D01*
X132872917Y-88068185D01*
X132893559Y-88084819D01*
X133191416Y-88382676D01*
X133328560Y-88519819D01*
X133362045Y-88581142D01*
X133357061Y-88650833D01*
X133315190Y-88706767D01*
X133249725Y-88731184D01*
X133240879Y-88731500D01*
X131031345Y-88731500D01*
X130970797Y-88738011D01*
X130970795Y-88738011D01*
X130833795Y-88789111D01*
X130716739Y-88876739D01*
X130636461Y-88983977D01*
X130580527Y-89025848D01*
X130510835Y-89030832D01*
X130449512Y-88997347D01*
X130430462Y-88972787D01*
X130419721Y-88954625D01*
X130419714Y-88954616D01*
X130305383Y-88840285D01*
X130305374Y-88840278D01*
X130166195Y-88757968D01*
X130166190Y-88757966D01*
X130010918Y-88712855D01*
X130010912Y-88712854D01*
X129990000Y-88711209D01*
X129990000Y-89537500D01*
X129970315Y-89604539D01*
X129917511Y-89650294D01*
X129866000Y-89661500D01*
X129504510Y-89661500D01*
X129467747Y-89664393D01*
X129467741Y-89664394D01*
X129310407Y-89710104D01*
X129310402Y-89710106D01*
X129289054Y-89722732D01*
X129225933Y-89740000D01*
X129011000Y-89740000D01*
X128943961Y-89720315D01*
X128898206Y-89667511D01*
X128887000Y-89616000D01*
X128887000Y-89495000D01*
X128520000Y-89495000D01*
X128520000Y-90144999D01*
X128601581Y-90144999D01*
X128672102Y-90138591D01*
X128672104Y-90138591D01*
X128761434Y-90110754D01*
X128831294Y-90109602D01*
X128890687Y-90146402D01*
X128920756Y-90209470D01*
X128921944Y-90238860D01*
X128921501Y-90244490D01*
X128921500Y-90244522D01*
X128921500Y-90612500D01*
X128901815Y-90679539D01*
X128849011Y-90725294D01*
X128797500Y-90736500D01*
X118922500Y-90736500D01*
X118855461Y-90716815D01*
X118809706Y-90664011D01*
X118798500Y-90612500D01*
X118798499Y-90147727D01*
X118792014Y-90076354D01*
X118792011Y-90076344D01*
X118740828Y-89912090D01*
X118740827Y-89912089D01*
X118740827Y-89912087D01*
X118688735Y-89825917D01*
X118670900Y-89758364D01*
X118692418Y-89691891D01*
X118707173Y-89674087D01*
X118756443Y-89624818D01*
X118817766Y-89591334D01*
X118844123Y-89588500D01*
X119387295Y-89588500D01*
X119450416Y-89605768D01*
X119482628Y-89624818D01*
X119591399Y-89689145D01*
X119600851Y-89691891D01*
X119751164Y-89735561D01*
X119751167Y-89735561D01*
X119751169Y-89735562D01*
X119788498Y-89738500D01*
X119788504Y-89738500D01*
X121571496Y-89738500D01*
X121571502Y-89738500D01*
X121608831Y-89735562D01*
X121608833Y-89735561D01*
X121608835Y-89735561D01*
X121661312Y-89720315D01*
X121768601Y-89689145D01*
X121911807Y-89604453D01*
X121911812Y-89604448D01*
X121921442Y-89594819D01*
X121982765Y-89561334D01*
X122009123Y-89558500D01*
X122550426Y-89558500D01*
X122617465Y-89578185D01*
X122623296Y-89582171D01*
X122773248Y-89691118D01*
X122947712Y-89768794D01*
X123134513Y-89808500D01*
X123325487Y-89808500D01*
X123512288Y-89768794D01*
X123686752Y-89691118D01*
X123841253Y-89578866D01*
X123969040Y-89436944D01*
X124007133Y-89370965D01*
X124057698Y-89322751D01*
X124126305Y-89309527D01*
X124191170Y-89335495D01*
X124221251Y-89369845D01*
X124287314Y-89481552D01*
X124287321Y-89481561D01*
X124403438Y-89597678D01*
X124403447Y-89597685D01*
X124544803Y-89681282D01*
X124544806Y-89681283D01*
X124702504Y-89727099D01*
X124702510Y-89727100D01*
X124739350Y-89729999D01*
X124739366Y-89730000D01*
X125380000Y-89730000D01*
X125380000Y-88804000D01*
X125399685Y-88736961D01*
X125452489Y-88691206D01*
X125504000Y-88680000D01*
X125756000Y-88680000D01*
X125823039Y-88699685D01*
X125868794Y-88752489D01*
X125880000Y-88804000D01*
X125880000Y-89730000D01*
X126520634Y-89730000D01*
X126520649Y-89729999D01*
X126557489Y-89727100D01*
X126557495Y-89727099D01*
X126715193Y-89681283D01*
X126715196Y-89681282D01*
X126856552Y-89597685D01*
X126856561Y-89597678D01*
X126972678Y-89481561D01*
X126972685Y-89481552D01*
X127056282Y-89340197D01*
X127057197Y-89338083D01*
X127058357Y-89336688D01*
X127060253Y-89333483D01*
X127060769Y-89333788D01*
X127101885Y-89284373D01*
X127168517Y-89263350D01*
X127235937Y-89281688D01*
X127282740Y-89333565D01*
X127295000Y-89387324D01*
X127295000Y-89501582D01*
X127301408Y-89572102D01*
X127301409Y-89572107D01*
X127351981Y-89734396D01*
X127439927Y-89879877D01*
X127560122Y-90000072D01*
X127705604Y-90088019D01*
X127705603Y-90088019D01*
X127867894Y-90138590D01*
X127867892Y-90138590D01*
X127938418Y-90144999D01*
X128019999Y-90144998D01*
X128020000Y-90144998D01*
X128020000Y-89119000D01*
X128039685Y-89051961D01*
X128092489Y-89006206D01*
X128144000Y-88995000D01*
X129164000Y-88995000D01*
X129231039Y-89014685D01*
X129276794Y-89067489D01*
X129288000Y-89119000D01*
X129288000Y-89240000D01*
X129490000Y-89240000D01*
X129490000Y-88711210D01*
X129489999Y-88711209D01*
X129469087Y-88712854D01*
X129469081Y-88712855D01*
X129306314Y-88760144D01*
X129305895Y-88758703D01*
X129245235Y-88766185D01*
X129182275Y-88735889D01*
X129159227Y-88707976D01*
X129100072Y-88610122D01*
X129003641Y-88513691D01*
X128970156Y-88452368D01*
X128975140Y-88382676D01*
X129003640Y-88338330D01*
X129106816Y-88235155D01*
X129195827Y-88087913D01*
X129247013Y-87923649D01*
X129253500Y-87852265D01*
X129253499Y-87337736D01*
X129253499Y-87337727D01*
X129247014Y-87266354D01*
X129247011Y-87266344D01*
X129195828Y-87102090D01*
X129195827Y-87102089D01*
X129195827Y-87102087D01*
X129106816Y-86954845D01*
X129106814Y-86954843D01*
X129106813Y-86954841D01*
X128985158Y-86833186D01*
X128936210Y-86803596D01*
X128837913Y-86744173D01*
X128673649Y-86692987D01*
X128673647Y-86692986D01*
X128673645Y-86692986D01*
X128623667Y-86688444D01*
X128602265Y-86686500D01*
X128602262Y-86686500D01*
X127937727Y-86686500D01*
X127866354Y-86692985D01*
X127866344Y-86692988D01*
X127702090Y-86744171D01*
X127554841Y-86833186D01*
X127554840Y-86833187D01*
X127427880Y-86960148D01*
X127426774Y-86959042D01*
X127377028Y-86994605D01*
X127336256Y-87001500D01*
X127154627Y-87001500D01*
X127087588Y-86981815D01*
X127041833Y-86929011D01*
X127031889Y-86859853D01*
X127047895Y-86814378D01*
X127056282Y-86800196D01*
X127102100Y-86642486D01*
X127102295Y-86640001D01*
X127102295Y-86640000D01*
X125504000Y-86640000D01*
X125436961Y-86620315D01*
X125391206Y-86567511D01*
X125380000Y-86516000D01*
X125380000Y-86264000D01*
X125399685Y-86196961D01*
X125452489Y-86151206D01*
X125504000Y-86140000D01*
X127102295Y-86140000D01*
X127102295Y-86139998D01*
X127102100Y-86137513D01*
X127056281Y-85979801D01*
X126972683Y-85838443D01*
X126972031Y-85837603D01*
X126971725Y-85836824D01*
X126968712Y-85831729D01*
X126969534Y-85831242D01*
X126946499Y-85772565D01*
X126960182Y-85704048D01*
X126975318Y-85683468D01*
X126974673Y-85682968D01*
X126979445Y-85676814D01*
X126979453Y-85676807D01*
X127064145Y-85533601D01*
X127103467Y-85398251D01*
X127110561Y-85373835D01*
X127110562Y-85373829D01*
X127111528Y-85361556D01*
X127113500Y-85336502D01*
X127113500Y-84903498D01*
X127110562Y-84866169D01*
X127106747Y-84853039D01*
X127069113Y-84723499D01*
X127064145Y-84706399D01*
X126979453Y-84563193D01*
X126979451Y-84563191D01*
X126979448Y-84563187D01*
X126861812Y-84445551D01*
X126861803Y-84445544D01*
X126801699Y-84409999D01*
X131171209Y-84409999D01*
X131171210Y-84410000D01*
X131700000Y-84410000D01*
X131700000Y-83855494D01*
X131699998Y-83855493D01*
X131553809Y-83897965D01*
X131553806Y-83897967D01*
X131414625Y-83980278D01*
X131414616Y-83980285D01*
X131300285Y-84094616D01*
X131300278Y-84094625D01*
X131217968Y-84233804D01*
X131217966Y-84233809D01*
X131172855Y-84389081D01*
X131172854Y-84389087D01*
X131171209Y-84409999D01*
X126801699Y-84409999D01*
X126718601Y-84360855D01*
X126718596Y-84360853D01*
X126558835Y-84314438D01*
X126558829Y-84314437D01*
X126521507Y-84311500D01*
X126521502Y-84311500D01*
X124738498Y-84311500D01*
X124738492Y-84311500D01*
X124701170Y-84314437D01*
X124701164Y-84314438D01*
X124541403Y-84360853D01*
X124541398Y-84360855D01*
X124400416Y-84444232D01*
X124337295Y-84461500D01*
X124051851Y-84461500D01*
X123984812Y-84441815D01*
X123959701Y-84420472D01*
X123930235Y-84387747D01*
X123861253Y-84311134D01*
X123706752Y-84198882D01*
X123532288Y-84121206D01*
X123532286Y-84121205D01*
X123345487Y-84081500D01*
X123154513Y-84081500D01*
X122967714Y-84121205D01*
X122967712Y-84121206D01*
X122813025Y-84190077D01*
X122793246Y-84198883D01*
X122638745Y-84311135D01*
X122510959Y-84453057D01*
X122415473Y-84618443D01*
X122415471Y-84618447D01*
X122367453Y-84766232D01*
X122328015Y-84823907D01*
X122263656Y-84851105D01*
X122194810Y-84839190D01*
X122143334Y-84791946D01*
X122130447Y-84762511D01*
X122114145Y-84706399D01*
X122029453Y-84563193D01*
X122029451Y-84563191D01*
X122029448Y-84563187D01*
X121911812Y-84445551D01*
X121911804Y-84445545D01*
X121899375Y-84438194D01*
X121851694Y-84387123D01*
X121838500Y-84331464D01*
X121838500Y-82603898D01*
X121858185Y-82536859D01*
X121900722Y-82500000D01*
X130770001Y-82500000D01*
X130770001Y-82548322D01*
X130780144Y-82647607D01*
X130833452Y-82808481D01*
X130833457Y-82808492D01*
X130922424Y-82952728D01*
X130922427Y-82952732D01*
X131042267Y-83072572D01*
X131042271Y-83072575D01*
X131186507Y-83161542D01*
X131186518Y-83161547D01*
X131347393Y-83214855D01*
X131446683Y-83224999D01*
X131470000Y-83224998D01*
X131470000Y-82500000D01*
X130770001Y-82500000D01*
X121900722Y-82500000D01*
X121910989Y-82491104D01*
X121933992Y-82483220D01*
X121939195Y-82481989D01*
X121939201Y-82481989D01*
X122076204Y-82430889D01*
X122193261Y-82343261D01*
X122280889Y-82226204D01*
X122327386Y-82101542D01*
X122331988Y-82089204D01*
X122331988Y-82089203D01*
X122331989Y-82089201D01*
X122335591Y-82055692D01*
X122338499Y-82028654D01*
X122338500Y-82028637D01*
X122338500Y-82027844D01*
X124280000Y-82027844D01*
X124286401Y-82087372D01*
X124286403Y-82087379D01*
X124336645Y-82222086D01*
X124336649Y-82222093D01*
X124422809Y-82337187D01*
X124422812Y-82337190D01*
X124537906Y-82423350D01*
X124537913Y-82423354D01*
X124672620Y-82473596D01*
X124672627Y-82473598D01*
X124732155Y-82479999D01*
X124732172Y-82480000D01*
X125380000Y-82480000D01*
X125380000Y-81563012D01*
X125437007Y-81595925D01*
X125564174Y-81630000D01*
X125695826Y-81630000D01*
X125822993Y-81595925D01*
X125880000Y-81563012D01*
X125880000Y-82480000D01*
X126527828Y-82480000D01*
X126527844Y-82479999D01*
X126587372Y-82473598D01*
X126587379Y-82473596D01*
X126722086Y-82423354D01*
X126722093Y-82423350D01*
X126837187Y-82337190D01*
X126837190Y-82337187D01*
X126923350Y-82222093D01*
X126923354Y-82222086D01*
X126973596Y-82087379D01*
X126973598Y-82087372D01*
X126979999Y-82027844D01*
X126980000Y-82027827D01*
X126980000Y-81380000D01*
X126063012Y-81380000D01*
X126095925Y-81322993D01*
X126130000Y-81195826D01*
X126130000Y-81064174D01*
X126095925Y-80937007D01*
X126063012Y-80880000D01*
X126980000Y-80880000D01*
X126980000Y-80232172D01*
X126979999Y-80232155D01*
X126973598Y-80172627D01*
X126973596Y-80172620D01*
X126923354Y-80037913D01*
X126923350Y-80037906D01*
X126837190Y-79922812D01*
X126837187Y-79922809D01*
X126722093Y-79836649D01*
X126722086Y-79836645D01*
X126587379Y-79786403D01*
X126587372Y-79786401D01*
X126527844Y-79780000D01*
X125880000Y-79780000D01*
X125880000Y-80696988D01*
X125822993Y-80664075D01*
X125695826Y-80630000D01*
X125564174Y-80630000D01*
X125437007Y-80664075D01*
X125380000Y-80696988D01*
X125380000Y-79780000D01*
X124732155Y-79780000D01*
X124672627Y-79786401D01*
X124672620Y-79786403D01*
X124537913Y-79836645D01*
X124537906Y-79836649D01*
X124422812Y-79922809D01*
X124422809Y-79922812D01*
X124336649Y-80037906D01*
X124336645Y-80037913D01*
X124286403Y-80172620D01*
X124286401Y-80172627D01*
X124280000Y-80232155D01*
X124280000Y-80880000D01*
X125196988Y-80880000D01*
X125164075Y-80937007D01*
X125130000Y-81064174D01*
X125130000Y-81195826D01*
X125164075Y-81322993D01*
X125196988Y-81380000D01*
X124280000Y-81380000D01*
X124280000Y-82027844D01*
X122338500Y-82027844D01*
X122338500Y-80231362D01*
X122338499Y-80231345D01*
X122335157Y-80200270D01*
X122331989Y-80170799D01*
X122331167Y-80168596D01*
X122309522Y-80110564D01*
X122280889Y-80033796D01*
X122193261Y-79916739D01*
X122076204Y-79829111D01*
X122042444Y-79816519D01*
X121939203Y-79778011D01*
X121878654Y-79771500D01*
X121878638Y-79771500D01*
X120081362Y-79771500D01*
X120081345Y-79771500D01*
X120020797Y-79778011D01*
X120020795Y-79778011D01*
X119883795Y-79829111D01*
X119766739Y-79916739D01*
X119679111Y-80033795D01*
X119628011Y-80170795D01*
X119628011Y-80170797D01*
X119621500Y-80231345D01*
X119621500Y-82028654D01*
X119628011Y-82089202D01*
X119628011Y-82089204D01*
X119655503Y-82162910D01*
X119679111Y-82226204D01*
X119766739Y-82343261D01*
X119883796Y-82430889D01*
X120020799Y-82481989D01*
X120020803Y-82481989D01*
X120026008Y-82483220D01*
X120086726Y-82517790D01*
X120119116Y-82579698D01*
X120121500Y-82603898D01*
X120121500Y-84137500D01*
X120101815Y-84204539D01*
X120049011Y-84250294D01*
X119997500Y-84261500D01*
X118005443Y-84261500D01*
X117839591Y-84294490D01*
X117839583Y-84294492D01*
X117712671Y-84347061D01*
X117665219Y-84356500D01*
X117596120Y-84356500D01*
X117495663Y-84366764D01*
X117332901Y-84420697D01*
X117332890Y-84420702D01*
X117186963Y-84510712D01*
X117186959Y-84510715D01*
X117176671Y-84521004D01*
X117115348Y-84554489D01*
X117045656Y-84549505D01*
X117001309Y-84521004D01*
X116997732Y-84517427D01*
X116997728Y-84517424D01*
X116853492Y-84428457D01*
X116853481Y-84428452D01*
X116692606Y-84375144D01*
X116593322Y-84365000D01*
X116570000Y-84365000D01*
X116570000Y-85434535D01*
X116550315Y-85501574D01*
X116533681Y-85522216D01*
X116502216Y-85553681D01*
X116440893Y-85587166D01*
X116414535Y-85590000D01*
X115370001Y-85590000D01*
X115370001Y-85638322D01*
X115380144Y-85737608D01*
X115432481Y-85895553D01*
X115434883Y-85965381D01*
X115402456Y-86022237D01*
X114412371Y-87012324D01*
X114082738Y-87341957D01*
X114038207Y-87386488D01*
X113963159Y-87461535D01*
X113869204Y-87602149D01*
X113826638Y-87704916D01*
X113826638Y-87704917D01*
X113804492Y-87758381D01*
X113804490Y-87758389D01*
X113783594Y-87863443D01*
X113783594Y-87863445D01*
X113771500Y-87924241D01*
X113771500Y-92390900D01*
X113751815Y-92457939D01*
X113735181Y-92478581D01*
X113525297Y-92688464D01*
X113525295Y-92688467D01*
X113423161Y-92790600D01*
X113423160Y-92790601D01*
X113329209Y-92931210D01*
X113329205Y-92931217D01*
X113295415Y-93012796D01*
X113264492Y-93087449D01*
X113264490Y-93087457D01*
X113238098Y-93220141D01*
X113238098Y-93220144D01*
X113231500Y-93253310D01*
X113231500Y-94919153D01*
X113264490Y-95085002D01*
X113264493Y-95085014D01*
X113276293Y-95113500D01*
X113329206Y-95241245D01*
X113352533Y-95276156D01*
X113404932Y-95354577D01*
X113423159Y-95381856D01*
X113423160Y-95381857D01*
X113423163Y-95381861D01*
X113645181Y-95603878D01*
X113678666Y-95665201D01*
X113681500Y-95691559D01*
X113681500Y-99844559D01*
X113714490Y-100010408D01*
X113714492Y-100010416D01*
X113728913Y-100045231D01*
X113728913Y-100045232D01*
X113779205Y-100166649D01*
X113779206Y-100166651D01*
X113779207Y-100166652D01*
X113867549Y-100298866D01*
X113871265Y-100304428D01*
X113873160Y-100307264D01*
X113873161Y-100307265D01*
X114398818Y-100832920D01*
X114398839Y-100832943D01*
X114522735Y-100956839D01*
X114522738Y-100956841D01*
X114614592Y-101018215D01*
X114659396Y-101071826D01*
X114668104Y-101141151D01*
X114651241Y-101186411D01*
X114645703Y-101195389D01*
X114645697Y-101195401D01*
X114591764Y-101358163D01*
X114581500Y-101458620D01*
X114581500Y-102006379D01*
X114591764Y-102106836D01*
X114645697Y-102269598D01*
X114645702Y-102269609D01*
X114735712Y-102415536D01*
X114735715Y-102415540D01*
X114856959Y-102536784D01*
X114856963Y-102536787D01*
X115002890Y-102626797D01*
X115002893Y-102626798D01*
X115002899Y-102626802D01*
X115165664Y-102680736D01*
X115266128Y-102691000D01*
X115266133Y-102691000D01*
X116113867Y-102691000D01*
X116113872Y-102691000D01*
X116214336Y-102680736D01*
X116306607Y-102650160D01*
X116376434Y-102647759D01*
X116433291Y-102680186D01*
X119185181Y-105432076D01*
X119218666Y-105493399D01*
X119221500Y-105519757D01*
X119221500Y-107749555D01*
X119221500Y-107749557D01*
X119221499Y-107749557D01*
X119254490Y-107915409D01*
X119254493Y-107915419D01*
X119319203Y-108071644D01*
X119319213Y-108071662D01*
X119400602Y-108193470D01*
X119421480Y-108260147D01*
X119421500Y-108262360D01*
X119421500Y-109063654D01*
X119428011Y-109124202D01*
X119428011Y-109124204D01*
X119465675Y-109225181D01*
X119479111Y-109261204D01*
X119566739Y-109378261D01*
X119650860Y-109441233D01*
X119692731Y-109497167D01*
X119697715Y-109566859D01*
X119664230Y-109628182D01*
X119602907Y-109661666D01*
X119576549Y-109664500D01*
X119511005Y-109664500D01*
X119375677Y-109691418D01*
X119375667Y-109691421D01*
X119248195Y-109744221D01*
X119248182Y-109744228D01*
X119133458Y-109820885D01*
X119133454Y-109820888D01*
X119035888Y-109918454D01*
X119035885Y-109918458D01*
X118959228Y-110033182D01*
X118959221Y-110033195D01*
X118906421Y-110160667D01*
X118906418Y-110160677D01*
X118879500Y-110296004D01*
X118879500Y-110296007D01*
X118879500Y-110433993D01*
X118879500Y-110433995D01*
X118879499Y-110433995D01*
X118906418Y-110569322D01*
X118906421Y-110569332D01*
X118959221Y-110696804D01*
X118959228Y-110696817D01*
X119035885Y-110811541D01*
X119035888Y-110811545D01*
X119133454Y-110909111D01*
X119133458Y-110909114D01*
X119248182Y-110985771D01*
X119248195Y-110985778D01*
X119349470Y-111027727D01*
X119375672Y-111038580D01*
X119375676Y-111038580D01*
X119375677Y-111038581D01*
X119511004Y-111065500D01*
X119511007Y-111065500D01*
X119648995Y-111065500D01*
X119740041Y-111047389D01*
X119784328Y-111038580D01*
X119911811Y-110985775D01*
X120026542Y-110909114D01*
X120124114Y-110811542D01*
X120124116Y-110811538D01*
X120124301Y-110811354D01*
X120185624Y-110777869D01*
X120255316Y-110782853D01*
X120308847Y-110822925D01*
X120309297Y-110822556D01*
X120310799Y-110824386D01*
X120311250Y-110824724D01*
X120312337Y-110826261D01*
X120313163Y-110827267D01*
X122098818Y-112612920D01*
X122098839Y-112612943D01*
X122222735Y-112736839D01*
X122363351Y-112830795D01*
X122473822Y-112876553D01*
X122473823Y-112876553D01*
X122519584Y-112895508D01*
X122685440Y-112928499D01*
X122685443Y-112928500D01*
X122685445Y-112928500D01*
X124284557Y-112928500D01*
X124284558Y-112928499D01*
X124450416Y-112895508D01*
X124496176Y-112876553D01*
X124508552Y-112871426D01*
X124578019Y-112863960D01*
X124640497Y-112895235D01*
X124676149Y-112955325D01*
X124680000Y-112985989D01*
X124680000Y-113015000D01*
X126306000Y-113015000D01*
X126373039Y-113034685D01*
X126418794Y-113087489D01*
X126430000Y-113139000D01*
X126430000Y-115015000D01*
X127227828Y-115015000D01*
X127227844Y-115014999D01*
X127287372Y-115008598D01*
X127287379Y-115008596D01*
X127422086Y-114958354D01*
X127422093Y-114958350D01*
X127537187Y-114872190D01*
X127542819Y-114866559D01*
X127604142Y-114833074D01*
X127673834Y-114838058D01*
X127729767Y-114879930D01*
X127754184Y-114945394D01*
X127754500Y-114954240D01*
X127754500Y-116590500D01*
X127734815Y-116657539D01*
X127682011Y-116703294D01*
X127630500Y-116714500D01*
X115929500Y-116714500D01*
X115862461Y-116694815D01*
X115816706Y-116642011D01*
X115805500Y-116590500D01*
X115805500Y-114954240D01*
X115825185Y-114887201D01*
X115877989Y-114841446D01*
X115947147Y-114831502D01*
X116010703Y-114860527D01*
X116017181Y-114866559D01*
X116022812Y-114872190D01*
X116137906Y-114958350D01*
X116137913Y-114958354D01*
X116272620Y-115008596D01*
X116272627Y-115008598D01*
X116332155Y-115014999D01*
X116332172Y-115015000D01*
X117130000Y-115015000D01*
X117130000Y-113515000D01*
X117630000Y-113515000D01*
X117630000Y-115015000D01*
X118427828Y-115015000D01*
X118427844Y-115014999D01*
X118487372Y-115008598D01*
X118487379Y-115008596D01*
X118622086Y-114958354D01*
X118622093Y-114958350D01*
X118737187Y-114872190D01*
X118737190Y-114872187D01*
X118823350Y-114757093D01*
X118823354Y-114757086D01*
X118873596Y-114622379D01*
X118873598Y-114622372D01*
X118879999Y-114562844D01*
X118880000Y-114562827D01*
X118880000Y-113515000D01*
X124680000Y-113515000D01*
X124680000Y-114562844D01*
X124686401Y-114622372D01*
X124686403Y-114622379D01*
X124736645Y-114757086D01*
X124736649Y-114757093D01*
X124822809Y-114872187D01*
X124822812Y-114872190D01*
X124937906Y-114958350D01*
X124937913Y-114958354D01*
X125072620Y-115008596D01*
X125072627Y-115008598D01*
X125132155Y-115014999D01*
X125132172Y-115015000D01*
X125930000Y-115015000D01*
X125930000Y-113515000D01*
X124680000Y-113515000D01*
X118880000Y-113515000D01*
X117630000Y-113515000D01*
X117130000Y-113515000D01*
X117130000Y-111515000D01*
X117630000Y-111515000D01*
X117630000Y-113015000D01*
X118880000Y-113015000D01*
X118880000Y-111967172D01*
X118879999Y-111967155D01*
X118873598Y-111907627D01*
X118873596Y-111907620D01*
X118823354Y-111772913D01*
X118823350Y-111772906D01*
X118737190Y-111657812D01*
X118737187Y-111657809D01*
X118622093Y-111571649D01*
X118622086Y-111571645D01*
X118487379Y-111521403D01*
X118487372Y-111521401D01*
X118427844Y-111515000D01*
X117630000Y-111515000D01*
X117130000Y-111515000D01*
X116332155Y-111515000D01*
X116272627Y-111521401D01*
X116272620Y-111521403D01*
X116137913Y-111571645D01*
X116137906Y-111571649D01*
X116022812Y-111657809D01*
X116022810Y-111657811D01*
X116006275Y-111679899D01*
X115950340Y-111721769D01*
X115880648Y-111726751D01*
X115819329Y-111693267D01*
X115790562Y-111664500D01*
X112514492Y-111664500D01*
X112447453Y-111644815D01*
X112401698Y-111592011D01*
X112391754Y-111522853D01*
X112420779Y-111459297D01*
X112436237Y-111444312D01*
X112526104Y-111371200D01*
X112636734Y-111281196D01*
X112838286Y-111065387D01*
X113008574Y-110824143D01*
X113144427Y-110561958D01*
X113243314Y-110283717D01*
X113243315Y-110283710D01*
X113243317Y-110283705D01*
X113271967Y-110145834D01*
X113303393Y-109994603D01*
X113323544Y-109700000D01*
X113303393Y-109405397D01*
X113282650Y-109305580D01*
X113243317Y-109116294D01*
X113243312Y-109116277D01*
X113190202Y-108966841D01*
X113144427Y-108838042D01*
X113008574Y-108575857D01*
X113008573Y-108575855D01*
X113008569Y-108575849D01*
X112838291Y-108334619D01*
X112838287Y-108334615D01*
X112838286Y-108334613D01*
X112636734Y-108118804D01*
X112636727Y-108118798D01*
X112509142Y-108015000D01*
X115880000Y-108015000D01*
X115880000Y-109062844D01*
X115886401Y-109122372D01*
X115886403Y-109122379D01*
X115936645Y-109257086D01*
X115936649Y-109257093D01*
X116022809Y-109372187D01*
X116022812Y-109372190D01*
X116137906Y-109458350D01*
X116137913Y-109458354D01*
X116272620Y-109508596D01*
X116272627Y-109508598D01*
X116332155Y-109514999D01*
X116332172Y-109515000D01*
X117130000Y-109515000D01*
X117130000Y-108015000D01*
X117630000Y-108015000D01*
X117630000Y-109515000D01*
X118427828Y-109515000D01*
X118427844Y-109514999D01*
X118487372Y-109508598D01*
X118487379Y-109508596D01*
X118622086Y-109458354D01*
X118622093Y-109458350D01*
X118737187Y-109372190D01*
X118737190Y-109372187D01*
X118823350Y-109257093D01*
X118823354Y-109257086D01*
X118873596Y-109122379D01*
X118873598Y-109122372D01*
X118879999Y-109062844D01*
X118880000Y-109062827D01*
X118880000Y-108015000D01*
X117630000Y-108015000D01*
X117130000Y-108015000D01*
X115880000Y-108015000D01*
X112509142Y-108015000D01*
X112407679Y-107932454D01*
X112407675Y-107932451D01*
X112155366Y-107779018D01*
X111884528Y-107661377D01*
X111600191Y-107581709D01*
X111600183Y-107581707D01*
X111307647Y-107541500D01*
X111307645Y-107541500D01*
X111012355Y-107541500D01*
X111012353Y-107541500D01*
X110719816Y-107581707D01*
X110719808Y-107581709D01*
X110435471Y-107661377D01*
X110164633Y-107779018D01*
X109912324Y-107932451D01*
X109912320Y-107932454D01*
X109683272Y-108118798D01*
X109683266Y-108118803D01*
X109481709Y-108334618D01*
X109470803Y-108350069D01*
X109416061Y-108393485D01*
X109346536Y-108400414D01*
X109284301Y-108368654D01*
X109249117Y-108308290D01*
X109245500Y-108278559D01*
X109245500Y-107515000D01*
X115880000Y-107515000D01*
X117130000Y-107515000D01*
X117130000Y-106015000D01*
X117630000Y-106015000D01*
X117630000Y-107515000D01*
X118880000Y-107515000D01*
X118880000Y-106467172D01*
X118879999Y-106467155D01*
X118873598Y-106407627D01*
X118873596Y-106407620D01*
X118823354Y-106272913D01*
X118823350Y-106272906D01*
X118737190Y-106157812D01*
X118737187Y-106157809D01*
X118622093Y-106071649D01*
X118622086Y-106071645D01*
X118487379Y-106021403D01*
X118487372Y-106021401D01*
X118427844Y-106015000D01*
X117630000Y-106015000D01*
X117130000Y-106015000D01*
X116332155Y-106015000D01*
X116272627Y-106021401D01*
X116272620Y-106021403D01*
X116137913Y-106071645D01*
X116137906Y-106071649D01*
X116022812Y-106157809D01*
X116022809Y-106157812D01*
X115936649Y-106272906D01*
X115936645Y-106272913D01*
X115886403Y-106407620D01*
X115886401Y-106407627D01*
X115880000Y-106467155D01*
X115880000Y-107515000D01*
X109245500Y-107515000D01*
X109245500Y-91740766D01*
X109265185Y-91673727D01*
X109317989Y-91627972D01*
X109387147Y-91618028D01*
X109450703Y-91647053D01*
X109457181Y-91653085D01*
X109850936Y-92046840D01*
X109884421Y-92108163D01*
X109883461Y-92164960D01*
X109855435Y-92275633D01*
X109836844Y-92499994D01*
X109836844Y-92500005D01*
X109855434Y-92724359D01*
X109855436Y-92724371D01*
X109910703Y-92942614D01*
X110001140Y-93148792D01*
X110124276Y-93337265D01*
X110124284Y-93337276D01*
X110276756Y-93502902D01*
X110276761Y-93502907D01*
X110325534Y-93540869D01*
X110454424Y-93641189D01*
X110454429Y-93641191D01*
X110454431Y-93641193D01*
X110490930Y-93660946D01*
X110540520Y-93710165D01*
X110555628Y-93778382D01*
X110531457Y-93843937D01*
X110490930Y-93879054D01*
X110454431Y-93898806D01*
X110454422Y-93898812D01*
X110276761Y-94037092D01*
X110276756Y-94037097D01*
X110124284Y-94202723D01*
X110124276Y-94202734D01*
X110001140Y-94391207D01*
X109910703Y-94597385D01*
X109855436Y-94815628D01*
X109855434Y-94815640D01*
X109836844Y-95039994D01*
X109836844Y-95040005D01*
X109855434Y-95264359D01*
X109855436Y-95264371D01*
X109910703Y-95482614D01*
X110001140Y-95688792D01*
X110124276Y-95877265D01*
X110124284Y-95877276D01*
X110276756Y-96042902D01*
X110276761Y-96042907D01*
X110332389Y-96086204D01*
X110454424Y-96181189D01*
X110495021Y-96203159D01*
X110497695Y-96204606D01*
X110547286Y-96253825D01*
X110562394Y-96322042D01*
X110538224Y-96387597D01*
X110509801Y-96415236D01*
X110438626Y-96465072D01*
X110438625Y-96465072D01*
X111070590Y-97097037D01*
X111007007Y-97114075D01*
X110892993Y-97179901D01*
X110799901Y-97272993D01*
X110734075Y-97387007D01*
X110717037Y-97450590D01*
X110085072Y-96818625D01*
X110026401Y-96902419D01*
X109926570Y-97116507D01*
X109926566Y-97116516D01*
X109865432Y-97344673D01*
X109865430Y-97344684D01*
X109844843Y-97579998D01*
X109844843Y-97580001D01*
X109865430Y-97815315D01*
X109865432Y-97815326D01*
X109926566Y-98043483D01*
X109926570Y-98043492D01*
X110026400Y-98257579D01*
X110026402Y-98257583D01*
X110085072Y-98341373D01*
X110085073Y-98341373D01*
X110717037Y-97709409D01*
X110734075Y-97772993D01*
X110799901Y-97887007D01*
X110892993Y-97980099D01*
X111007007Y-98045925D01*
X111070590Y-98062962D01*
X110438625Y-98694925D01*
X110522421Y-98753599D01*
X110736507Y-98853429D01*
X110736516Y-98853433D01*
X110964673Y-98914567D01*
X110964684Y-98914569D01*
X111199998Y-98935157D01*
X111200002Y-98935157D01*
X111435315Y-98914569D01*
X111435326Y-98914567D01*
X111663483Y-98853433D01*
X111663492Y-98853429D01*
X111877578Y-98753600D01*
X111877582Y-98753598D01*
X111961373Y-98694926D01*
X111961373Y-98694925D01*
X111329409Y-98062962D01*
X111392993Y-98045925D01*
X111507007Y-97980099D01*
X111600099Y-97887007D01*
X111665925Y-97772993D01*
X111682962Y-97709409D01*
X112314925Y-98341373D01*
X112314926Y-98341373D01*
X112373598Y-98257582D01*
X112373600Y-98257578D01*
X112473429Y-98043492D01*
X112473433Y-98043483D01*
X112534567Y-97815326D01*
X112534569Y-97815315D01*
X112555157Y-97580001D01*
X112555157Y-97579998D01*
X112534569Y-97344684D01*
X112534567Y-97344673D01*
X112473433Y-97116516D01*
X112473429Y-97116507D01*
X112373600Y-96902423D01*
X112373599Y-96902421D01*
X112314925Y-96818626D01*
X112314925Y-96818625D01*
X111682962Y-97450589D01*
X111665925Y-97387007D01*
X111600099Y-97272993D01*
X111507007Y-97179901D01*
X111392993Y-97114075D01*
X111329410Y-97097037D01*
X111961373Y-96465073D01*
X111961373Y-96465072D01*
X111890199Y-96415236D01*
X111846574Y-96360659D01*
X111839380Y-96291161D01*
X111870903Y-96228806D01*
X111902305Y-96204606D01*
X111904979Y-96203159D01*
X111945576Y-96181189D01*
X112123240Y-96042906D01*
X112244209Y-95911500D01*
X112275715Y-95877276D01*
X112275716Y-95877274D01*
X112275722Y-95877268D01*
X112398860Y-95688791D01*
X112489296Y-95482616D01*
X112544564Y-95264368D01*
X112546480Y-95241245D01*
X112563156Y-95040005D01*
X112563156Y-95039994D01*
X112544565Y-94815640D01*
X112544563Y-94815628D01*
X112531840Y-94765387D01*
X112489296Y-94597384D01*
X112398860Y-94391209D01*
X112378281Y-94359711D01*
X112291841Y-94227404D01*
X112275722Y-94202732D01*
X112275719Y-94202729D01*
X112275715Y-94202723D01*
X112123243Y-94037097D01*
X112123238Y-94037092D01*
X111984098Y-93928794D01*
X111945576Y-93898811D01*
X111909070Y-93879055D01*
X111859479Y-93829836D01*
X111844371Y-93761619D01*
X111868541Y-93696064D01*
X111909070Y-93660945D01*
X111909084Y-93660936D01*
X111945576Y-93641189D01*
X112123240Y-93502906D01*
X112275722Y-93337268D01*
X112398860Y-93148791D01*
X112489296Y-92942616D01*
X112544564Y-92724368D01*
X112544565Y-92724359D01*
X112563156Y-92500005D01*
X112563156Y-92499994D01*
X112544565Y-92275640D01*
X112544563Y-92275628D01*
X112527820Y-92209512D01*
X112489296Y-92057384D01*
X112398860Y-91851209D01*
X112379116Y-91820989D01*
X112282905Y-91673727D01*
X112275722Y-91662732D01*
X112275719Y-91662729D01*
X112275715Y-91662723D01*
X112123243Y-91497097D01*
X112123238Y-91497092D01*
X111945577Y-91358812D01*
X111945578Y-91358812D01*
X111945576Y-91358811D01*
X111909070Y-91339055D01*
X111859479Y-91289836D01*
X111844371Y-91221619D01*
X111868541Y-91156064D01*
X111909070Y-91120945D01*
X111909084Y-91120936D01*
X111945576Y-91101189D01*
X112123240Y-90962906D01*
X112224974Y-90852394D01*
X112275715Y-90797276D01*
X112275716Y-90797274D01*
X112275722Y-90797268D01*
X112398860Y-90608791D01*
X112489296Y-90402616D01*
X112544564Y-90184368D01*
X112547516Y-90148742D01*
X112563156Y-89960005D01*
X112563156Y-89959994D01*
X112544565Y-89735640D01*
X112544563Y-89735628D01*
X112533487Y-89691891D01*
X112489296Y-89517384D01*
X112398860Y-89311209D01*
X112388661Y-89295599D01*
X112286463Y-89139173D01*
X112275722Y-89122732D01*
X112275719Y-89122729D01*
X112275715Y-89122723D01*
X112123243Y-88957097D01*
X112123238Y-88957092D01*
X111983611Y-88848415D01*
X111945576Y-88818811D01*
X111909070Y-88799055D01*
X111859479Y-88749836D01*
X111844371Y-88681619D01*
X111868541Y-88616064D01*
X111909070Y-88580945D01*
X111914628Y-88577937D01*
X111945576Y-88561189D01*
X112123240Y-88422906D01*
X112248904Y-88286400D01*
X112275715Y-88257276D01*
X112275716Y-88257274D01*
X112275722Y-88257268D01*
X112398860Y-88068791D01*
X112489296Y-87862616D01*
X112544564Y-87644368D01*
X112546625Y-87619501D01*
X112563156Y-87420005D01*
X112563156Y-87419994D01*
X112544565Y-87195640D01*
X112544564Y-87195637D01*
X112544564Y-87195632D01*
X112516538Y-87084960D01*
X112519163Y-87015141D01*
X112549063Y-86966840D01*
X112771731Y-86744173D01*
X113582072Y-85933833D01*
X113651401Y-85830075D01*
X113685955Y-85746652D01*
X113699155Y-85714785D01*
X113723500Y-85592394D01*
X113723500Y-85090000D01*
X115370000Y-85090000D01*
X116070000Y-85090000D01*
X116070000Y-84364999D01*
X116046693Y-84365000D01*
X116046674Y-84365001D01*
X115947392Y-84375144D01*
X115786518Y-84428452D01*
X115786507Y-84428457D01*
X115642271Y-84517424D01*
X115642267Y-84517427D01*
X115522427Y-84637267D01*
X115522424Y-84637271D01*
X115433457Y-84781507D01*
X115433452Y-84781518D01*
X115380144Y-84942393D01*
X115370000Y-85041677D01*
X115370000Y-85090000D01*
X113723500Y-85090000D01*
X113723500Y-81813766D01*
X113743185Y-81746727D01*
X113759819Y-81726085D01*
X119831085Y-75654819D01*
X119892408Y-75621334D01*
X119918766Y-75618500D01*
X132476233Y-75618500D01*
X132543272Y-75638185D01*
G37*
G04 #@! TD.AperFunction*
G04 #@! TA.AperFunction,Conductor*
G36*
X177892222Y-68523585D02*
G01*
X177937977Y-68576389D01*
X177947921Y-68645547D01*
X177918896Y-68709103D01*
X177903438Y-68724088D01*
X177713272Y-68878798D01*
X177713266Y-68878803D01*
X177511708Y-69094619D01*
X177341430Y-69335849D01*
X177341426Y-69335855D01*
X177205572Y-69598043D01*
X177106687Y-69876277D01*
X177106682Y-69876294D01*
X177046607Y-70165394D01*
X177046606Y-70165396D01*
X177026456Y-70460000D01*
X177046606Y-70754603D01*
X177046607Y-70754605D01*
X177106682Y-71043705D01*
X177106687Y-71043722D01*
X177205572Y-71321956D01*
X177341426Y-71584144D01*
X177341430Y-71584150D01*
X177511708Y-71825380D01*
X177511712Y-71825384D01*
X177511714Y-71825387D01*
X177609102Y-71929664D01*
X177713266Y-72041196D01*
X177713272Y-72041201D01*
X177942320Y-72227545D01*
X177942324Y-72227548D01*
X177942326Y-72227549D01*
X177942327Y-72227550D01*
X178194629Y-72380979D01*
X178194631Y-72380980D01*
X178194633Y-72380981D01*
X178342158Y-72445060D01*
X178465473Y-72498623D01*
X178749814Y-72578292D01*
X179042352Y-72618499D01*
X179042353Y-72618500D01*
X179042355Y-72618500D01*
X179337647Y-72618500D01*
X179337647Y-72618499D01*
X179630186Y-72578292D01*
X179914527Y-72498623D01*
X180185371Y-72380979D01*
X180437673Y-72227550D01*
X180666734Y-72041196D01*
X180868286Y-71825387D01*
X180969196Y-71682428D01*
X181023937Y-71639012D01*
X181093462Y-71632083D01*
X181155697Y-71663841D01*
X181190882Y-71724205D01*
X181194500Y-71753938D01*
X181194500Y-73700562D01*
X181209438Y-73715500D01*
X181230562Y-73715500D01*
X186380500Y-73715500D01*
X186447539Y-73735185D01*
X186493294Y-73787989D01*
X186504500Y-73839500D01*
X186504500Y-92830500D01*
X186484815Y-92897539D01*
X186432011Y-92943294D01*
X186380500Y-92954500D01*
X181209437Y-92954500D01*
X181194500Y-92969437D01*
X181194500Y-107451500D01*
X181194432Y-107515000D01*
X181193546Y-108340791D01*
X181173789Y-108407809D01*
X181120936Y-108453508D01*
X181051767Y-108463377D01*
X180988243Y-108434284D01*
X180978922Y-108425295D01*
X180978288Y-108424617D01*
X180978286Y-108424613D01*
X180776734Y-108208804D01*
X180757886Y-108193470D01*
X180547679Y-108022454D01*
X180547675Y-108022451D01*
X180295366Y-107869018D01*
X180024528Y-107751377D01*
X179740191Y-107671709D01*
X179740183Y-107671707D01*
X179447647Y-107631500D01*
X179447645Y-107631500D01*
X179152355Y-107631500D01*
X179152353Y-107631500D01*
X178859816Y-107671707D01*
X178859808Y-107671709D01*
X178575471Y-107751377D01*
X178304633Y-107869018D01*
X178052324Y-108022451D01*
X178052320Y-108022454D01*
X177823272Y-108208798D01*
X177823266Y-108208803D01*
X177621708Y-108424619D01*
X177451430Y-108665849D01*
X177451426Y-108665855D01*
X177315572Y-108928043D01*
X177216687Y-109206277D01*
X177216682Y-109206294D01*
X177156607Y-109495394D01*
X177156606Y-109495396D01*
X177136456Y-109790000D01*
X177156606Y-110084603D01*
X177156607Y-110084605D01*
X177216682Y-110373705D01*
X177216687Y-110373722D01*
X177315572Y-110651956D01*
X177451426Y-110914144D01*
X177451430Y-110914150D01*
X177621708Y-111155380D01*
X177621712Y-111155384D01*
X177621714Y-111155387D01*
X177823266Y-111371196D01*
X177823271Y-111371200D01*
X177863970Y-111404311D01*
X177903551Y-111461889D01*
X177905720Y-111531725D01*
X177869789Y-111591647D01*
X177807165Y-111622631D01*
X177785716Y-111624500D01*
X174068965Y-111624500D01*
X174001926Y-111604815D01*
X173956171Y-111552011D01*
X173946227Y-111482853D01*
X173975252Y-111419297D01*
X173981284Y-111412819D01*
X174395401Y-110998702D01*
X176487259Y-108906842D01*
X176487262Y-108906841D01*
X176606841Y-108787262D01*
X176700793Y-108646652D01*
X176710446Y-108623348D01*
X176765509Y-108490415D01*
X176793426Y-108350069D01*
X176798501Y-108324557D01*
X176798501Y-108150335D01*
X176798500Y-108150309D01*
X176798500Y-99937414D01*
X176804568Y-99899098D01*
X176833542Y-99809928D01*
X176853504Y-99620000D01*
X176833542Y-99430072D01*
X176774527Y-99248444D01*
X176679040Y-99083056D01*
X176551253Y-98941134D01*
X176396752Y-98828882D01*
X176222288Y-98751206D01*
X176222286Y-98751205D01*
X176035487Y-98711500D01*
X175844513Y-98711500D01*
X175657714Y-98751205D01*
X175657712Y-98751206D01*
X175524212Y-98810644D01*
X175483246Y-98828883D01*
X175328745Y-98941135D01*
X175200959Y-99083057D01*
X175105473Y-99248443D01*
X175105470Y-99248450D01*
X175047071Y-99428185D01*
X175046458Y-99430072D01*
X175026496Y-99620000D01*
X175046458Y-99809928D01*
X175075431Y-99899098D01*
X175081500Y-99937414D01*
X175081500Y-107833035D01*
X175061815Y-107900074D01*
X175045181Y-107920716D01*
X172775716Y-110190181D01*
X172714393Y-110223666D01*
X172688035Y-110226500D01*
X151703167Y-110226500D01*
X151636128Y-110206815D01*
X151590373Y-110154011D01*
X151580429Y-110084853D01*
X151609454Y-110021297D01*
X151615486Y-110014819D01*
X151705486Y-109924819D01*
X151766809Y-109891334D01*
X151793167Y-109888500D01*
X154464557Y-109888500D01*
X154464558Y-109888499D01*
X154630416Y-109855508D01*
X154676176Y-109836553D01*
X154786652Y-109790793D01*
X154927262Y-109696841D01*
X155046841Y-109577262D01*
X155429636Y-109194465D01*
X155466869Y-109168874D01*
X155475512Y-109165026D01*
X155544757Y-109155741D01*
X155598828Y-109177986D01*
X155713248Y-109261118D01*
X155887712Y-109338794D01*
X156074513Y-109378500D01*
X156265487Y-109378500D01*
X156452283Y-109338795D01*
X156452282Y-109338795D01*
X156452288Y-109338794D01*
X156605449Y-109270602D01*
X156674695Y-109261319D01*
X156706611Y-109272528D01*
X156707233Y-109271132D01*
X156753804Y-109291866D01*
X156887634Y-109351451D01*
X157074435Y-109391157D01*
X157265409Y-109391157D01*
X157452210Y-109351451D01*
X157626674Y-109273775D01*
X157781175Y-109161523D01*
X157908962Y-109019601D01*
X158004449Y-108854213D01*
X158063464Y-108672585D01*
X158083426Y-108482657D01*
X158063464Y-108292729D01*
X158004449Y-108111101D01*
X157908962Y-107945713D01*
X157781175Y-107803791D01*
X157706526Y-107749555D01*
X157634614Y-107697307D01*
X157591949Y-107641976D01*
X157583500Y-107596989D01*
X157583500Y-106019833D01*
X157603185Y-105952794D01*
X157619818Y-105932153D01*
X157640804Y-105911167D01*
X157662319Y-105889651D01*
X157723639Y-105856167D01*
X157793331Y-105861151D01*
X157837680Y-105889652D01*
X157934841Y-105986813D01*
X157934843Y-105986814D01*
X157934845Y-105986816D01*
X158082087Y-106075827D01*
X158246351Y-106127013D01*
X158317735Y-106133500D01*
X158832264Y-106133499D01*
X158832272Y-106133499D01*
X158903645Y-106127014D01*
X158903648Y-106127013D01*
X158903649Y-106127013D01*
X159067913Y-106075827D01*
X159215155Y-105986816D01*
X159336816Y-105865155D01*
X159425827Y-105717913D01*
X159477013Y-105553649D01*
X159483500Y-105482265D01*
X159483499Y-104817736D01*
X159483499Y-104817727D01*
X159477014Y-104746354D01*
X159477011Y-104746344D01*
X159425828Y-104582090D01*
X159425827Y-104582089D01*
X159425827Y-104582087D01*
X159336816Y-104434845D01*
X159336814Y-104434843D01*
X159336813Y-104434841D01*
X159215158Y-104313186D01*
X159067913Y-104224173D01*
X158967832Y-104192987D01*
X158903649Y-104172987D01*
X158903647Y-104172986D01*
X158903645Y-104172986D01*
X158853667Y-104168444D01*
X158832265Y-104166500D01*
X158832262Y-104166500D01*
X158574122Y-104166500D01*
X158507083Y-104146815D01*
X158486441Y-104130181D01*
X158169772Y-103813511D01*
X158169771Y-103813510D01*
X158061920Y-103741447D01*
X158061919Y-103741446D01*
X158061917Y-103741445D01*
X158061915Y-103741444D01*
X158061913Y-103741443D01*
X157942077Y-103691806D01*
X157942071Y-103691804D01*
X157814859Y-103666500D01*
X157814857Y-103666500D01*
X157519122Y-103666500D01*
X157452083Y-103646815D01*
X157431437Y-103630177D01*
X157419815Y-103618554D01*
X157386333Y-103557230D01*
X157383500Y-103530877D01*
X157383500Y-101933478D01*
X157403185Y-101866439D01*
X157455989Y-101820684D01*
X157525147Y-101810740D01*
X157588703Y-101839765D01*
X157613616Y-101869328D01*
X157623184Y-101885155D01*
X157623187Y-101885159D01*
X157744841Y-102006813D01*
X157744843Y-102006814D01*
X157744845Y-102006816D01*
X157892087Y-102095827D01*
X158056351Y-102147013D01*
X158127735Y-102153500D01*
X158642264Y-102153499D01*
X158642272Y-102153499D01*
X158713645Y-102147014D01*
X158713648Y-102147013D01*
X158713649Y-102147013D01*
X158877913Y-102095827D01*
X159025155Y-102006816D01*
X159122320Y-101909650D01*
X159183641Y-101876167D01*
X159253333Y-101881151D01*
X159297681Y-101909652D01*
X159365181Y-101977152D01*
X159398666Y-102038475D01*
X159401500Y-102064833D01*
X159401500Y-102637398D01*
X159425843Y-102759777D01*
X159425845Y-102759785D01*
X159473598Y-102875072D01*
X159473603Y-102875081D01*
X159542928Y-102978832D01*
X159542931Y-102978836D01*
X161197929Y-104633833D01*
X161246182Y-104682086D01*
X161286168Y-104722072D01*
X161389918Y-104791396D01*
X161389924Y-104791399D01*
X161389925Y-104791400D01*
X161505215Y-104839155D01*
X161570009Y-104852043D01*
X161631918Y-104884427D01*
X161661998Y-104930324D01*
X161679111Y-104976205D01*
X161722925Y-105034732D01*
X161766739Y-105093261D01*
X161883796Y-105180889D01*
X162020799Y-105231989D01*
X162048050Y-105234918D01*
X162081345Y-105238499D01*
X162081362Y-105238500D01*
X164178638Y-105238500D01*
X164178654Y-105238499D01*
X164205692Y-105235591D01*
X164239201Y-105231989D01*
X164376204Y-105180889D01*
X164493261Y-105093261D01*
X164580889Y-104976204D01*
X164631989Y-104839201D01*
X164637128Y-104791400D01*
X164638499Y-104778654D01*
X164638500Y-104778637D01*
X164638500Y-103681362D01*
X164638499Y-103681345D01*
X164631160Y-103613087D01*
X164632633Y-103612928D01*
X164632633Y-103577071D01*
X164631160Y-103576913D01*
X164638499Y-103508654D01*
X164638500Y-103508637D01*
X164638500Y-102411362D01*
X164638499Y-102411345D01*
X164631160Y-102343087D01*
X164632633Y-102342928D01*
X164632633Y-102307071D01*
X164631160Y-102306913D01*
X164638499Y-102238654D01*
X164638500Y-102238637D01*
X164638500Y-101141362D01*
X164638499Y-101141345D01*
X164631160Y-101073087D01*
X164632633Y-101072928D01*
X164632633Y-101037071D01*
X164631160Y-101036913D01*
X164638499Y-100968654D01*
X164638500Y-100968637D01*
X164638500Y-100132500D01*
X164658185Y-100065461D01*
X164710989Y-100019706D01*
X164762500Y-100008500D01*
X168134859Y-100008500D01*
X168220444Y-99991475D01*
X168262077Y-99983194D01*
X168381917Y-99933555D01*
X168489769Y-99861491D01*
X168961491Y-99389769D01*
X169033555Y-99281917D01*
X169083194Y-99162077D01*
X169083482Y-99160629D01*
X169108500Y-99034857D01*
X169108500Y-95015143D01*
X169108500Y-95015140D01*
X169083195Y-94887928D01*
X169083194Y-94887927D01*
X169083194Y-94887923D01*
X169053254Y-94815640D01*
X169033557Y-94768087D01*
X169033553Y-94768080D01*
X169031754Y-94765388D01*
X169021499Y-94750040D01*
X169021498Y-94750039D01*
X169008642Y-94730799D01*
X168961489Y-94660228D01*
X167779771Y-93478510D01*
X167671920Y-93406447D01*
X167671919Y-93406446D01*
X167671917Y-93406445D01*
X167671915Y-93406444D01*
X167671913Y-93406443D01*
X167552077Y-93356806D01*
X167552071Y-93356804D01*
X167424859Y-93331500D01*
X167424857Y-93331500D01*
X164235764Y-93331500D01*
X164168725Y-93311815D01*
X164148083Y-93295181D01*
X163563083Y-92710181D01*
X163529598Y-92648858D01*
X163534582Y-92579166D01*
X163576454Y-92523233D01*
X163641918Y-92498816D01*
X163650764Y-92498500D01*
X164467838Y-92498500D01*
X164504727Y-92504114D01*
X164626351Y-92542013D01*
X164697735Y-92548500D01*
X165362264Y-92548499D01*
X165362272Y-92548499D01*
X165433645Y-92542014D01*
X165433648Y-92542013D01*
X165433649Y-92542013D01*
X165465744Y-92532012D01*
X165587364Y-92494115D01*
X165624254Y-92488500D01*
X167037838Y-92488500D01*
X167074727Y-92494114D01*
X167196351Y-92532013D01*
X167267735Y-92538500D01*
X167932264Y-92538499D01*
X167932272Y-92538499D01*
X167984180Y-92533781D01*
X168003649Y-92532013D01*
X168066834Y-92512324D01*
X168093183Y-92504114D01*
X168130072Y-92498500D01*
X169383035Y-92498500D01*
X169450074Y-92518185D01*
X169470716Y-92534819D01*
X170632734Y-93696838D01*
X170632735Y-93696839D01*
X170632738Y-93696841D01*
X170773348Y-93790793D01*
X170773354Y-93790795D01*
X170773355Y-93790796D01*
X170929582Y-93855507D01*
X170929583Y-93855507D01*
X170929585Y-93855508D01*
X170929589Y-93855508D01*
X170929590Y-93855509D01*
X171095442Y-93888501D01*
X171095445Y-93888501D01*
X171270669Y-93888501D01*
X171270689Y-93888500D01*
X171459985Y-93888500D01*
X171484175Y-93890882D01*
X171503321Y-93894691D01*
X171547604Y-93903500D01*
X171547606Y-93903500D01*
X171672395Y-93903500D01*
X171706410Y-93896733D01*
X171735824Y-93890882D01*
X171760015Y-93888500D01*
X174074557Y-93888500D01*
X174074558Y-93888499D01*
X174240416Y-93855508D01*
X174322653Y-93821444D01*
X174396652Y-93790793D01*
X174537262Y-93696841D01*
X174656841Y-93577262D01*
X174656841Y-93577261D01*
X175757259Y-92476842D01*
X175757262Y-92476841D01*
X175876841Y-92357262D01*
X175970793Y-92216652D01*
X175977560Y-92200314D01*
X176035509Y-92060415D01*
X176051144Y-91981815D01*
X176068501Y-91894557D01*
X176068501Y-91720335D01*
X176068500Y-91720309D01*
X176068500Y-91604800D01*
X180480800Y-91604800D01*
X180480800Y-92126544D01*
X180487201Y-92186072D01*
X180487203Y-92186079D01*
X180537445Y-92320786D01*
X180537449Y-92320793D01*
X180623609Y-92435887D01*
X180623612Y-92435890D01*
X180738706Y-92522050D01*
X180738713Y-92522054D01*
X180873420Y-92572296D01*
X180873427Y-92572298D01*
X180932955Y-92578699D01*
X180932972Y-92578700D01*
X181950000Y-92578700D01*
X181950000Y-91604800D01*
X182450000Y-91604800D01*
X182450000Y-92578700D01*
X183467028Y-92578700D01*
X183467044Y-92578699D01*
X183526572Y-92572298D01*
X183526579Y-92572296D01*
X183661286Y-92522054D01*
X183661293Y-92522050D01*
X183776387Y-92435890D01*
X183776390Y-92435887D01*
X183862550Y-92320793D01*
X183862554Y-92320786D01*
X183912796Y-92186079D01*
X183912798Y-92186072D01*
X183919199Y-92126544D01*
X183919200Y-92126527D01*
X183919200Y-91604800D01*
X182450000Y-91604800D01*
X181950000Y-91604800D01*
X180480800Y-91604800D01*
X176068500Y-91604800D01*
X176068500Y-91104800D01*
X180480800Y-91104800D01*
X181950000Y-91104800D01*
X181950000Y-90130900D01*
X182450000Y-90130900D01*
X182450000Y-91104800D01*
X183919200Y-91104800D01*
X183919200Y-90583072D01*
X183919199Y-90583055D01*
X183912798Y-90523527D01*
X183912796Y-90523520D01*
X183862554Y-90388813D01*
X183862550Y-90388806D01*
X183776390Y-90273712D01*
X183776387Y-90273709D01*
X183661293Y-90187549D01*
X183661286Y-90187545D01*
X183526579Y-90137303D01*
X183526572Y-90137301D01*
X183467044Y-90130900D01*
X182450000Y-90130900D01*
X181950000Y-90130900D01*
X180932955Y-90130900D01*
X180873427Y-90137301D01*
X180873420Y-90137303D01*
X180738713Y-90187545D01*
X180738706Y-90187549D01*
X180623612Y-90273709D01*
X180623609Y-90273712D01*
X180537449Y-90388806D01*
X180537445Y-90388813D01*
X180487203Y-90523520D01*
X180487201Y-90523527D01*
X180480800Y-90583055D01*
X180480800Y-91104800D01*
X176068500Y-91104800D01*
X176068500Y-88443920D01*
X181680100Y-88443920D01*
X181708941Y-88588906D01*
X181708944Y-88588916D01*
X181765513Y-88725487D01*
X181765520Y-88725500D01*
X181847649Y-88848414D01*
X181847652Y-88848418D01*
X181952181Y-88952947D01*
X181952185Y-88952950D01*
X182075099Y-89035079D01*
X182075112Y-89035086D01*
X182207514Y-89089928D01*
X182211688Y-89091657D01*
X182211692Y-89091657D01*
X182211693Y-89091658D01*
X182356679Y-89120499D01*
X182356682Y-89120499D01*
X182504520Y-89120499D01*
X182602061Y-89101095D01*
X182649512Y-89091657D01*
X182786094Y-89035083D01*
X182909015Y-88952950D01*
X183013550Y-88848415D01*
X183095683Y-88725494D01*
X183152257Y-88588912D01*
X183166001Y-88519819D01*
X183181099Y-88443920D01*
X183181099Y-88296079D01*
X183152258Y-88151093D01*
X183152257Y-88151092D01*
X183152257Y-88151088D01*
X183145609Y-88135038D01*
X183095686Y-88014512D01*
X183095679Y-88014499D01*
X183013550Y-87891585D01*
X183013547Y-87891581D01*
X182909018Y-87787052D01*
X182909014Y-87787049D01*
X182786100Y-87704920D01*
X182786087Y-87704913D01*
X182649516Y-87648344D01*
X182649506Y-87648341D01*
X182504520Y-87619501D01*
X182504518Y-87619501D01*
X182356682Y-87619501D01*
X182356680Y-87619501D01*
X182211693Y-87648341D01*
X182211683Y-87648344D01*
X182075112Y-87704913D01*
X182075099Y-87704920D01*
X181952185Y-87787049D01*
X181952181Y-87787052D01*
X181847652Y-87891581D01*
X181847649Y-87891585D01*
X181765520Y-88014499D01*
X181765513Y-88014512D01*
X181708944Y-88151083D01*
X181708941Y-88151093D01*
X181680101Y-88296079D01*
X181680101Y-88296082D01*
X181680101Y-88443918D01*
X181680101Y-88443920D01*
X181680100Y-88443920D01*
X176068500Y-88443920D01*
X176068500Y-86400689D01*
X176068501Y-86400668D01*
X176068501Y-86225442D01*
X176035510Y-86059590D01*
X176035509Y-86059589D01*
X176035509Y-86059585D01*
X175970793Y-85903348D01*
X175965585Y-85895553D01*
X175939490Y-85856499D01*
X175876842Y-85762739D01*
X175876836Y-85762732D01*
X175752943Y-85638839D01*
X175752920Y-85638818D01*
X174711782Y-84597680D01*
X174678297Y-84536357D01*
X174683281Y-84466665D01*
X174711778Y-84422323D01*
X175967259Y-83166842D01*
X175967262Y-83166841D01*
X176086841Y-83047262D01*
X176180793Y-82906652D01*
X176219829Y-82812411D01*
X176233318Y-82779846D01*
X176233318Y-82779845D01*
X176245508Y-82750416D01*
X176278500Y-82584555D01*
X176278500Y-82415445D01*
X176278500Y-80468320D01*
X181680100Y-80468320D01*
X181708941Y-80613306D01*
X181708944Y-80613316D01*
X181765513Y-80749887D01*
X181765520Y-80749900D01*
X181847649Y-80872814D01*
X181847652Y-80872818D01*
X181952181Y-80977347D01*
X181952185Y-80977350D01*
X182075099Y-81059479D01*
X182075112Y-81059486D01*
X182211683Y-81116055D01*
X182211688Y-81116057D01*
X182211692Y-81116057D01*
X182211693Y-81116058D01*
X182356679Y-81144899D01*
X182356682Y-81144899D01*
X182504520Y-81144899D01*
X182602061Y-81125495D01*
X182649512Y-81116057D01*
X182786094Y-81059483D01*
X182909015Y-80977350D01*
X183013550Y-80872815D01*
X183095683Y-80749894D01*
X183152257Y-80613312D01*
X183164759Y-80550461D01*
X183181099Y-80468320D01*
X183181099Y-80320479D01*
X183152258Y-80175493D01*
X183152257Y-80175492D01*
X183152257Y-80175488D01*
X183137897Y-80140819D01*
X183095686Y-80038912D01*
X183095679Y-80038899D01*
X183013550Y-79915985D01*
X183013547Y-79915981D01*
X182909018Y-79811452D01*
X182909014Y-79811449D01*
X182786100Y-79729320D01*
X182786087Y-79729313D01*
X182649516Y-79672744D01*
X182649506Y-79672741D01*
X182504520Y-79643901D01*
X182504518Y-79643901D01*
X182356682Y-79643901D01*
X182356680Y-79643901D01*
X182211693Y-79672741D01*
X182211683Y-79672744D01*
X182075112Y-79729313D01*
X182075099Y-79729320D01*
X181952185Y-79811449D01*
X181952181Y-79811452D01*
X181847652Y-79915981D01*
X181847649Y-79915985D01*
X181765520Y-80038899D01*
X181765513Y-80038912D01*
X181708944Y-80175483D01*
X181708941Y-80175493D01*
X181680101Y-80320479D01*
X181680101Y-80320482D01*
X181680101Y-80468318D01*
X181680101Y-80468320D01*
X181680100Y-80468320D01*
X176278500Y-80468320D01*
X176278500Y-79925445D01*
X176271265Y-79889074D01*
X176267318Y-79869233D01*
X176255825Y-79811450D01*
X176245508Y-79759584D01*
X176226455Y-79713587D01*
X176222998Y-79705240D01*
X176222986Y-79705213D01*
X176180796Y-79603354D01*
X176180794Y-79603351D01*
X176180793Y-79603348D01*
X176086841Y-79462738D01*
X175967262Y-79343159D01*
X175123913Y-78499810D01*
X174267265Y-77643161D01*
X174267264Y-77643160D01*
X174245474Y-77628601D01*
X174245474Y-77628600D01*
X174126662Y-77549213D01*
X174126648Y-77549205D01*
X173994258Y-77494368D01*
X173994256Y-77494367D01*
X173970419Y-77484493D01*
X173970410Y-77484490D01*
X173918220Y-77474109D01*
X173856309Y-77441724D01*
X173821735Y-77381008D01*
X173819123Y-77339234D01*
X173825499Y-77279939D01*
X173825500Y-77279927D01*
X173825500Y-76555000D01*
X171174500Y-76555000D01*
X171174500Y-77051035D01*
X171154815Y-77118074D01*
X171102011Y-77163829D01*
X171032853Y-77173773D01*
X170969297Y-77144748D01*
X170962819Y-77138716D01*
X170617629Y-76793526D01*
X170590748Y-76753295D01*
X170585101Y-76739662D01*
X170485681Y-76590869D01*
X170485675Y-76590861D01*
X169949814Y-76055000D01*
X171174500Y-76055000D01*
X172250000Y-76055000D01*
X172250000Y-74877900D01*
X172750000Y-74877900D01*
X172750000Y-76055000D01*
X173825500Y-76055000D01*
X173825500Y-75780000D01*
X180480800Y-75780000D01*
X180480800Y-76301744D01*
X180487201Y-76361272D01*
X180487203Y-76361279D01*
X180537445Y-76495986D01*
X180537449Y-76495993D01*
X180623609Y-76611087D01*
X180623612Y-76611090D01*
X180738706Y-76697250D01*
X180738713Y-76697254D01*
X180873420Y-76747496D01*
X180873427Y-76747498D01*
X180932955Y-76753899D01*
X180932972Y-76753900D01*
X181950000Y-76753900D01*
X181950000Y-75780000D01*
X182450000Y-75780000D01*
X182450000Y-76753900D01*
X183467028Y-76753900D01*
X183467044Y-76753899D01*
X183526572Y-76747498D01*
X183526579Y-76747496D01*
X183661286Y-76697254D01*
X183661293Y-76697250D01*
X183776387Y-76611090D01*
X183776390Y-76611087D01*
X183862550Y-76495993D01*
X183862554Y-76495986D01*
X183912796Y-76361279D01*
X183912798Y-76361272D01*
X183919199Y-76301744D01*
X183919200Y-76301727D01*
X183919200Y-75780000D01*
X182450000Y-75780000D01*
X181950000Y-75780000D01*
X180480800Y-75780000D01*
X173825500Y-75780000D01*
X173825500Y-75330072D01*
X173825499Y-75330055D01*
X173820117Y-75280000D01*
X180480800Y-75280000D01*
X181950000Y-75280000D01*
X181950000Y-74306100D01*
X182450000Y-74306100D01*
X182450000Y-75280000D01*
X183919200Y-75280000D01*
X183919200Y-74758272D01*
X183919199Y-74758255D01*
X183912798Y-74698727D01*
X183912796Y-74698720D01*
X183862554Y-74564013D01*
X183862550Y-74564006D01*
X183776390Y-74448912D01*
X183776387Y-74448909D01*
X183661293Y-74362749D01*
X183661286Y-74362745D01*
X183526579Y-74312503D01*
X183526572Y-74312501D01*
X183467044Y-74306100D01*
X182450000Y-74306100D01*
X181950000Y-74306100D01*
X180932955Y-74306100D01*
X180873427Y-74312501D01*
X180873420Y-74312503D01*
X180738713Y-74362745D01*
X180738706Y-74362749D01*
X180623612Y-74448909D01*
X180623609Y-74448912D01*
X180537449Y-74564006D01*
X180537445Y-74564013D01*
X180487203Y-74698720D01*
X180487201Y-74698727D01*
X180480800Y-74758255D01*
X180480800Y-75280000D01*
X173820117Y-75280000D01*
X173819098Y-75270527D01*
X173819096Y-75270520D01*
X173768854Y-75135813D01*
X173768850Y-75135806D01*
X173682690Y-75020712D01*
X173682687Y-75020709D01*
X173567593Y-74934549D01*
X173567586Y-74934545D01*
X173432879Y-74884303D01*
X173432872Y-74884301D01*
X173373344Y-74877900D01*
X172750000Y-74877900D01*
X172250000Y-74877900D01*
X171626655Y-74877900D01*
X171567127Y-74884301D01*
X171567120Y-74884303D01*
X171432413Y-74934545D01*
X171432406Y-74934549D01*
X171317312Y-75020709D01*
X171317309Y-75020712D01*
X171231149Y-75135806D01*
X171231145Y-75135813D01*
X171180903Y-75270520D01*
X171180901Y-75270527D01*
X171174500Y-75330055D01*
X171174500Y-76055000D01*
X169949814Y-76055000D01*
X168799138Y-74904324D01*
X168799134Y-74904321D01*
X168650342Y-74804900D01*
X168650329Y-74804893D01*
X168485001Y-74736413D01*
X168484992Y-74736410D01*
X168309483Y-74701500D01*
X168309479Y-74701500D01*
X163567675Y-74701500D01*
X163500636Y-74681815D01*
X163479994Y-74665181D01*
X160539138Y-71724324D01*
X160539134Y-71724321D01*
X160390342Y-71624900D01*
X160390329Y-71624893D01*
X160225001Y-71556413D01*
X160224992Y-71556410D01*
X160049483Y-71521500D01*
X160049479Y-71521500D01*
X157470521Y-71521500D01*
X157470516Y-71521500D01*
X157295006Y-71556411D01*
X157294993Y-71556415D01*
X157264896Y-71568882D01*
X157246574Y-71576471D01*
X157129668Y-71624894D01*
X157129666Y-71624895D01*
X156980865Y-71724321D01*
X156980861Y-71724324D01*
X155320006Y-73385181D01*
X155258683Y-73418666D01*
X155232325Y-73421500D01*
X155187674Y-73421500D01*
X155120635Y-73401815D01*
X155101150Y-73384007D01*
X155099986Y-73385172D01*
X153369138Y-71654324D01*
X153369134Y-71654321D01*
X153220342Y-71554900D01*
X153220329Y-71554893D01*
X153055001Y-71486413D01*
X153054992Y-71486410D01*
X152879483Y-71451500D01*
X152879479Y-71451500D01*
X140935487Y-71451500D01*
X140744513Y-71451500D01*
X140676061Y-71466049D01*
X140657743Y-71469943D01*
X140656156Y-71470269D01*
X140575003Y-71486412D01*
X140569172Y-71488181D01*
X140569041Y-71487749D01*
X140558315Y-71491077D01*
X140557716Y-71491204D01*
X140557713Y-71491205D01*
X140482825Y-71524547D01*
X140479844Y-71525828D01*
X140409660Y-71554899D01*
X140409657Y-71554901D01*
X140408468Y-71555696D01*
X140390045Y-71565854D01*
X140383252Y-71568879D01*
X140383248Y-71568881D01*
X140322406Y-71613086D01*
X140318412Y-71615870D01*
X140260867Y-71654320D01*
X140260862Y-71654325D01*
X140255042Y-71660144D01*
X140240259Y-71672769D01*
X140228749Y-71681131D01*
X140182947Y-71731999D01*
X140178481Y-71736704D01*
X140134323Y-71780862D01*
X140134318Y-71780869D01*
X140125976Y-71793354D01*
X140115030Y-71807428D01*
X140100962Y-71823053D01*
X140070115Y-71876478D01*
X140065834Y-71883362D01*
X140034898Y-71929662D01*
X140026551Y-71949813D01*
X140019381Y-71964352D01*
X140005474Y-71988440D01*
X139988504Y-72040666D01*
X139985136Y-72049796D01*
X139966413Y-72094999D01*
X139966412Y-72095001D01*
X139960834Y-72123045D01*
X139957148Y-72137170D01*
X139946459Y-72170068D01*
X139946457Y-72170076D01*
X139941422Y-72217965D01*
X139939720Y-72229184D01*
X139931500Y-72270515D01*
X139931500Y-72305888D01*
X139930821Y-72318847D01*
X139928550Y-72340459D01*
X139901967Y-72405074D01*
X139844671Y-72445060D01*
X139805229Y-72451500D01*
X117162601Y-72451500D01*
X117040222Y-72475843D01*
X117040214Y-72475845D01*
X116924927Y-72523598D01*
X116924918Y-72523603D01*
X116821167Y-72592928D01*
X116821163Y-72592931D01*
X109457181Y-79956914D01*
X109395858Y-79990399D01*
X109326166Y-79985415D01*
X109270233Y-79943543D01*
X109245816Y-79878079D01*
X109245500Y-79869233D01*
X109245500Y-71775607D01*
X109265185Y-71708568D01*
X109317989Y-71662813D01*
X109387147Y-71652869D01*
X109450703Y-71681894D01*
X109469012Y-71702120D01*
X109469038Y-71702099D01*
X109469438Y-71702591D01*
X109470806Y-71704102D01*
X109471708Y-71705380D01*
X109471712Y-71705384D01*
X109471714Y-71705387D01*
X109673266Y-71921196D01*
X109673272Y-71921201D01*
X109902320Y-72107545D01*
X109902324Y-72107548D01*
X109902326Y-72107549D01*
X109902327Y-72107550D01*
X110154629Y-72260979D01*
X110154631Y-72260980D01*
X110154633Y-72260981D01*
X110258020Y-72305888D01*
X110425473Y-72378623D01*
X110709814Y-72458292D01*
X111002352Y-72498499D01*
X111002353Y-72498500D01*
X111002355Y-72498500D01*
X111297647Y-72498500D01*
X111297647Y-72498499D01*
X111590186Y-72458292D01*
X111874527Y-72378623D01*
X112145371Y-72260979D01*
X112397673Y-72107550D01*
X112626734Y-71921196D01*
X112828286Y-71705387D01*
X112864332Y-71654322D01*
X112998569Y-71464150D01*
X112998573Y-71464144D01*
X113054500Y-71356210D01*
X113134427Y-71201958D01*
X113233314Y-70923717D01*
X113233315Y-70923710D01*
X113233317Y-70923705D01*
X113268456Y-70754605D01*
X113293393Y-70634603D01*
X113313544Y-70340000D01*
X113293393Y-70045397D01*
X113258253Y-69876294D01*
X113233317Y-69756294D01*
X113233312Y-69756277D01*
X113134427Y-69478043D01*
X113134427Y-69478042D01*
X112998574Y-69215857D01*
X112998573Y-69215855D01*
X112998569Y-69215849D01*
X112828291Y-68974619D01*
X112828287Y-68974615D01*
X112828286Y-68974613D01*
X112626734Y-68758804D01*
X112626733Y-68758803D01*
X112626727Y-68758797D01*
X112584063Y-68724088D01*
X112544482Y-68666511D01*
X112542314Y-68596675D01*
X112578246Y-68536752D01*
X112640870Y-68505769D01*
X112662318Y-68503900D01*
X177825183Y-68503900D01*
X177892222Y-68523585D01*
G37*
G04 #@! TD.AperFunction*
G04 #@! TA.AperFunction,Conductor*
G36*
X124903763Y-105888185D02*
G01*
X124949518Y-105940989D01*
X124959462Y-106010147D01*
X124930437Y-106073703D01*
X124911035Y-106091767D01*
X124822809Y-106157813D01*
X124736649Y-106272906D01*
X124736645Y-106272913D01*
X124686403Y-106407620D01*
X124686401Y-106407627D01*
X124680000Y-106467155D01*
X124680000Y-107515000D01*
X127680000Y-107515000D01*
X127680000Y-107428464D01*
X127699685Y-107361425D01*
X127752489Y-107315670D01*
X127821647Y-107305726D01*
X127885203Y-107334751D01*
X127891671Y-107340774D01*
X128600279Y-108049381D01*
X130565717Y-110014819D01*
X130599202Y-110076142D01*
X130594218Y-110145834D01*
X130552346Y-110201767D01*
X130486882Y-110226184D01*
X130478036Y-110226500D01*
X125100442Y-110226500D01*
X124934591Y-110259490D01*
X124934579Y-110259493D01*
X124893237Y-110276617D01*
X124893238Y-110276618D01*
X124832724Y-110301684D01*
X124763255Y-110309153D01*
X124700776Y-110277878D01*
X124665123Y-110217789D01*
X124663654Y-110211315D01*
X124653581Y-110160677D01*
X124653580Y-110160676D01*
X124653580Y-110160672D01*
X124622072Y-110084605D01*
X124600778Y-110033195D01*
X124600771Y-110033182D01*
X124524114Y-109918458D01*
X124524111Y-109918454D01*
X124426545Y-109820888D01*
X124426541Y-109820885D01*
X124311817Y-109744228D01*
X124311804Y-109744221D01*
X124184332Y-109691421D01*
X124184322Y-109691418D01*
X124048995Y-109664500D01*
X124048993Y-109664500D01*
X123969269Y-109664500D01*
X123902230Y-109644815D01*
X123856475Y-109592011D01*
X123846531Y-109522853D01*
X123875556Y-109459297D01*
X123894958Y-109441234D01*
X123987187Y-109372190D01*
X123987190Y-109372187D01*
X124073350Y-109257093D01*
X124073354Y-109257086D01*
X124123596Y-109122379D01*
X124123598Y-109122372D01*
X124129999Y-109062844D01*
X124130000Y-109062827D01*
X124130000Y-108015000D01*
X124680000Y-108015000D01*
X124680000Y-109062844D01*
X124686401Y-109122372D01*
X124686403Y-109122379D01*
X124736645Y-109257086D01*
X124736649Y-109257093D01*
X124822809Y-109372187D01*
X124822812Y-109372190D01*
X124937906Y-109458350D01*
X124937913Y-109458354D01*
X125072620Y-109508596D01*
X125072627Y-109508598D01*
X125132155Y-109514999D01*
X125132172Y-109515000D01*
X125930000Y-109515000D01*
X125930000Y-108015000D01*
X126430000Y-108015000D01*
X126430000Y-109515000D01*
X127227828Y-109515000D01*
X127227844Y-109514999D01*
X127287372Y-109508598D01*
X127287379Y-109508596D01*
X127422086Y-109458354D01*
X127422093Y-109458350D01*
X127537187Y-109372190D01*
X127537190Y-109372187D01*
X127623350Y-109257093D01*
X127623354Y-109257086D01*
X127673596Y-109122379D01*
X127673598Y-109122372D01*
X127679999Y-109062844D01*
X127680000Y-109062827D01*
X127680000Y-108015000D01*
X126430000Y-108015000D01*
X125930000Y-108015000D01*
X124680000Y-108015000D01*
X124130000Y-108015000D01*
X123622589Y-108015000D01*
X123602555Y-108025938D01*
X123616884Y-108041328D01*
X123630000Y-108096833D01*
X123630000Y-109515000D01*
X123666319Y-109551319D01*
X123665037Y-109552600D01*
X123695268Y-109587489D01*
X123705212Y-109656647D01*
X123676187Y-109720203D01*
X123651365Y-109742102D01*
X123533458Y-109820885D01*
X123533454Y-109820888D01*
X123435888Y-109918454D01*
X123435885Y-109918458D01*
X123359228Y-110033182D01*
X123359221Y-110033195D01*
X123306421Y-110160667D01*
X123306418Y-110160677D01*
X123279500Y-110296004D01*
X123279500Y-110296007D01*
X123279500Y-110433993D01*
X123279500Y-110433995D01*
X123279499Y-110433995D01*
X123306418Y-110569322D01*
X123306421Y-110569332D01*
X123359221Y-110696804D01*
X123359228Y-110696817D01*
X123435885Y-110811541D01*
X123435888Y-110811545D01*
X123533454Y-110909111D01*
X123533458Y-110909114D01*
X123646127Y-110984398D01*
X123690932Y-111038010D01*
X123699639Y-111107335D01*
X123669484Y-111170363D01*
X123610041Y-111207082D01*
X123577236Y-111211500D01*
X123176964Y-111211500D01*
X123109925Y-111191815D01*
X123089283Y-111175181D01*
X121874819Y-109960716D01*
X121841334Y-109899393D01*
X121838500Y-109873035D01*
X121838500Y-109647500D01*
X121858185Y-109580461D01*
X121910989Y-109534706D01*
X121962500Y-109523500D01*
X122078638Y-109523500D01*
X122078654Y-109523499D01*
X122137396Y-109517183D01*
X122139201Y-109516989D01*
X122139202Y-109516988D01*
X122146751Y-109515205D01*
X122147218Y-109517183D01*
X122206334Y-109512944D01*
X122217272Y-109516155D01*
X122220799Y-109516989D01*
X122281345Y-109523499D01*
X122281362Y-109523500D01*
X122878638Y-109523500D01*
X122878654Y-109523499D01*
X122916560Y-109519423D01*
X122939201Y-109516989D01*
X122950080Y-109512930D01*
X123014855Y-109508295D01*
X123014912Y-109507769D01*
X123017831Y-109508082D01*
X123019772Y-109507944D01*
X123021939Y-109508436D01*
X123022626Y-109508598D01*
X123082155Y-109514999D01*
X123082172Y-109515000D01*
X123130000Y-109515000D01*
X123130000Y-109487687D01*
X123149685Y-109420648D01*
X123179690Y-109388419D01*
X123193261Y-109378261D01*
X123280889Y-109261204D01*
X123331989Y-109124201D01*
X123335880Y-109088009D01*
X123338499Y-109063654D01*
X123338500Y-109063637D01*
X123338500Y-108201852D01*
X123347939Y-108154400D01*
X123391439Y-108049381D01*
X123435280Y-107994977D01*
X123450874Y-107989786D01*
X123427550Y-107927247D01*
X123429617Y-107894210D01*
X123430441Y-107890072D01*
X123438500Y-107849555D01*
X123438500Y-107639000D01*
X123458185Y-107571961D01*
X123510989Y-107526206D01*
X123562500Y-107515000D01*
X124130000Y-107515000D01*
X124130000Y-106467172D01*
X124129999Y-106467155D01*
X124123598Y-106407627D01*
X124123596Y-106407620D01*
X124073354Y-106272913D01*
X124073350Y-106272906D01*
X123987190Y-106157813D01*
X123898965Y-106091767D01*
X123857094Y-106035833D01*
X123852110Y-105966141D01*
X123885595Y-105904818D01*
X123946919Y-105871334D01*
X123973276Y-105868500D01*
X124836724Y-105868500D01*
X124903763Y-105888185D01*
G37*
G04 #@! TD.AperFunction*
G04 #@! TA.AperFunction,Conductor*
G36*
X136087773Y-102400097D02*
G01*
X136108415Y-102416731D01*
X138970861Y-105279178D01*
X138970865Y-105279181D01*
X139119661Y-105378604D01*
X139119660Y-105378604D01*
X139119662Y-105378605D01*
X139119664Y-105378606D01*
X139133297Y-105384252D01*
X139173527Y-105411133D01*
X140159231Y-106396838D01*
X140159232Y-106396839D01*
X140159235Y-106396841D01*
X140299845Y-106490793D01*
X140299851Y-106490795D01*
X140299852Y-106490796D01*
X140456079Y-106555507D01*
X140456080Y-106555507D01*
X140456082Y-106555508D01*
X140456086Y-106555508D01*
X140456087Y-106555509D01*
X140621939Y-106588501D01*
X140621942Y-106588501D01*
X140797166Y-106588501D01*
X140797186Y-106588500D01*
X141144688Y-106588500D01*
X141209784Y-106606961D01*
X141237892Y-106624298D01*
X141237893Y-106624298D01*
X141237899Y-106624302D01*
X141400664Y-106678236D01*
X141494190Y-106687791D01*
X141504269Y-106688821D01*
X141504131Y-106690169D01*
X141565008Y-106711450D01*
X141580451Y-106724554D01*
X143822734Y-108966838D01*
X143822735Y-108966839D01*
X143822738Y-108966841D01*
X143923844Y-109034397D01*
X143968650Y-109088009D01*
X143977357Y-109157334D01*
X143947203Y-109220362D01*
X143887760Y-109257082D01*
X143854954Y-109261500D01*
X132291964Y-109261500D01*
X132224925Y-109241815D01*
X132204283Y-109225181D01*
X127322265Y-104343161D01*
X127322263Y-104343159D01*
X127307333Y-104333184D01*
X127295986Y-104325602D01*
X127251181Y-104271993D01*
X127242472Y-104202668D01*
X127272625Y-104139640D01*
X127332068Y-104102919D01*
X127364876Y-104098500D01*
X129296392Y-104098500D01*
X129296393Y-104098499D01*
X129354898Y-104086862D01*
X129471904Y-104063589D01*
X129471907Y-104063587D01*
X129471912Y-104063587D01*
X129619417Y-104002489D01*
X129637241Y-103995106D01*
X129637241Y-103995105D01*
X129637248Y-103995103D01*
X129786047Y-103895678D01*
X131264994Y-102416731D01*
X131326317Y-102383246D01*
X131352675Y-102380412D01*
X136020734Y-102380412D01*
X136087773Y-102400097D01*
G37*
G04 #@! TD.AperFunction*
G04 #@! TA.AperFunction,Conductor*
G36*
X155485834Y-100022584D02*
G01*
X155541767Y-100064456D01*
X155566184Y-100129920D01*
X155566500Y-100138766D01*
X155566500Y-103520878D01*
X155546815Y-103587917D01*
X155530181Y-103608559D01*
X155488559Y-103650181D01*
X155427236Y-103683666D01*
X155400878Y-103686500D01*
X154255141Y-103686500D01*
X154127928Y-103711804D01*
X154127922Y-103711806D01*
X154008086Y-103761443D01*
X154008079Y-103761447D01*
X153900228Y-103833510D01*
X153583557Y-104150181D01*
X153522234Y-104183666D01*
X153495876Y-104186500D01*
X153237727Y-104186500D01*
X153166354Y-104192985D01*
X153166344Y-104192988D01*
X153002090Y-104244171D01*
X152854841Y-104333186D01*
X152733186Y-104454841D01*
X152644173Y-104602086D01*
X152592986Y-104766354D01*
X152586500Y-104837737D01*
X152586500Y-105502272D01*
X152592985Y-105573645D01*
X152592988Y-105573655D01*
X152644171Y-105737909D01*
X152644172Y-105737911D01*
X152644173Y-105737913D01*
X152733184Y-105885155D01*
X152733186Y-105885158D01*
X152854841Y-106006813D01*
X152854843Y-106006814D01*
X152854845Y-106006816D01*
X153002087Y-106095827D01*
X153166351Y-106147013D01*
X153237735Y-106153500D01*
X153752264Y-106153499D01*
X153752272Y-106153499D01*
X153823645Y-106147014D01*
X153823648Y-106147013D01*
X153823649Y-106147013D01*
X153987913Y-106095827D01*
X154135155Y-106006816D01*
X154232320Y-105909650D01*
X154293641Y-105876167D01*
X154363333Y-105881151D01*
X154407681Y-105909652D01*
X154450181Y-105952152D01*
X154483666Y-106013475D01*
X154486500Y-106039833D01*
X154486500Y-106420143D01*
X154486500Y-106549857D01*
X154486500Y-106549859D01*
X154486499Y-106549859D01*
X154511804Y-106677071D01*
X154511806Y-106677077D01*
X154561443Y-106796913D01*
X154561447Y-106796920D01*
X154633510Y-106904771D01*
X154633511Y-106904772D01*
X154979182Y-107250442D01*
X155012667Y-107311765D01*
X155007683Y-107381456D01*
X154965812Y-107437390D01*
X154917283Y-107459413D01*
X154767713Y-107491205D01*
X154593246Y-107568883D01*
X154438745Y-107681135D01*
X154310958Y-107823057D01*
X154284358Y-107869129D01*
X154233790Y-107917344D01*
X154165182Y-107930565D01*
X154100318Y-107904596D01*
X154059791Y-107847681D01*
X154059063Y-107845510D01*
X154026676Y-107745834D01*
X154014529Y-107708449D01*
X154014526Y-107708443D01*
X154014024Y-107707573D01*
X153919040Y-107543056D01*
X153791253Y-107401134D01*
X153636752Y-107288882D01*
X153462288Y-107211206D01*
X153462286Y-107211205D01*
X153275487Y-107171500D01*
X153084513Y-107171500D01*
X152897714Y-107211205D01*
X152723246Y-107288883D01*
X152653436Y-107339603D01*
X152587629Y-107363082D01*
X152519575Y-107347256D01*
X152492870Y-107326965D01*
X152169819Y-107003914D01*
X152136334Y-106942591D01*
X152133500Y-106916233D01*
X152133500Y-106252605D01*
X152133499Y-106252601D01*
X152124357Y-106206641D01*
X152109155Y-106130215D01*
X152064083Y-106021403D01*
X152061401Y-106014927D01*
X152061396Y-106014918D01*
X151992072Y-105911168D01*
X151949404Y-105868500D01*
X151903833Y-105822929D01*
X151379818Y-105298914D01*
X151346333Y-105237591D01*
X151343499Y-105211233D01*
X151343499Y-104917727D01*
X151337014Y-104846355D01*
X151337011Y-104846344D01*
X151285828Y-104682090D01*
X151285827Y-104682089D01*
X151285827Y-104682087D01*
X151196816Y-104534845D01*
X151196814Y-104534843D01*
X151196813Y-104534841D01*
X151075158Y-104413186D01*
X150927913Y-104324173D01*
X150892654Y-104313186D01*
X150763649Y-104272987D01*
X150763647Y-104272986D01*
X150763645Y-104272986D01*
X150713667Y-104268444D01*
X150692265Y-104266500D01*
X150692262Y-104266500D01*
X150027727Y-104266500D01*
X149956354Y-104272985D01*
X149956344Y-104272988D01*
X149792090Y-104324171D01*
X149644841Y-104413186D01*
X149523186Y-104534841D01*
X149434173Y-104682086D01*
X149382986Y-104846354D01*
X149376500Y-104917737D01*
X149376500Y-105432272D01*
X149382985Y-105503645D01*
X149382988Y-105503655D01*
X149434171Y-105667909D01*
X149434172Y-105667911D01*
X149434173Y-105667913D01*
X149523184Y-105815155D01*
X149626359Y-105918330D01*
X149659843Y-105979651D01*
X149654859Y-106049343D01*
X149626359Y-106093691D01*
X149529926Y-106190124D01*
X149441980Y-106335604D01*
X149391409Y-106497893D01*
X149385000Y-106568427D01*
X149385000Y-106575000D01*
X150486000Y-106575000D01*
X150553039Y-106594685D01*
X150598794Y-106647489D01*
X150610000Y-106699000D01*
X150610000Y-106951000D01*
X150590315Y-107018039D01*
X150537511Y-107063794D01*
X150486000Y-107075000D01*
X149385001Y-107075000D01*
X149385001Y-107081582D01*
X149391408Y-107152102D01*
X149391409Y-107152107D01*
X149441981Y-107314396D01*
X149529927Y-107459877D01*
X149646358Y-107576308D01*
X149679843Y-107637631D01*
X149674859Y-107707323D01*
X149646358Y-107751670D01*
X149553187Y-107844840D01*
X149553186Y-107844841D01*
X149510523Y-107915415D01*
X149492207Y-107945714D01*
X149464172Y-107992089D01*
X149441743Y-108064066D01*
X149411039Y-108114856D01*
X148300716Y-109225181D01*
X148239393Y-109258666D01*
X148213035Y-109261500D01*
X147238167Y-109261500D01*
X147171128Y-109241815D01*
X147125373Y-109189011D01*
X147115429Y-109119853D01*
X147144454Y-109056297D01*
X147150486Y-109049819D01*
X147197572Y-109002732D01*
X147197575Y-109002728D01*
X147286542Y-108858492D01*
X147286547Y-108858481D01*
X147339855Y-108697606D01*
X147349999Y-108598322D01*
X147350000Y-108598309D01*
X147350000Y-108550000D01*
X146274000Y-108550000D01*
X146206961Y-108530315D01*
X146161206Y-108477511D01*
X146150000Y-108426000D01*
X146150000Y-108257500D01*
X146169685Y-108190461D01*
X146222489Y-108144706D01*
X146274000Y-108133500D01*
X146772395Y-108133500D01*
X146772396Y-108133499D01*
X146894785Y-108109155D01*
X147003639Y-108064066D01*
X147014810Y-108059439D01*
X147062263Y-108050000D01*
X147349999Y-108050000D01*
X147349999Y-108001692D01*
X147349998Y-108001677D01*
X147339855Y-107902391D01*
X147323731Y-107853733D01*
X147321328Y-107783904D01*
X147338330Y-107745843D01*
X147363901Y-107707575D01*
X147411655Y-107592285D01*
X147413505Y-107582987D01*
X147435999Y-107469898D01*
X147436000Y-107469895D01*
X147436000Y-106550250D01*
X147438383Y-106526058D01*
X147461000Y-106412359D01*
X147461000Y-106273680D01*
X147480685Y-106206641D01*
X147486625Y-106198193D01*
X147520920Y-106153500D01*
X147548105Y-106118072D01*
X147608160Y-105973087D01*
X147623500Y-105856566D01*
X147623500Y-105829123D01*
X147643185Y-105762084D01*
X147659819Y-105741442D01*
X148626449Y-104774811D01*
X148626452Y-104774808D01*
X148626454Y-104774806D01*
X148669653Y-104710153D01*
X148698518Y-104666954D01*
X148717617Y-104620845D01*
X148748158Y-104547114D01*
X148773463Y-104419893D01*
X148773463Y-104290180D01*
X148773463Y-104252515D01*
X148793148Y-104185476D01*
X148845952Y-104139721D01*
X148915110Y-104129777D01*
X148923220Y-104131220D01*
X149004513Y-104148500D01*
X149004514Y-104148500D01*
X149195487Y-104148500D01*
X149382288Y-104108794D01*
X149556752Y-104031118D01*
X149711253Y-103918866D01*
X149839040Y-103776944D01*
X149934527Y-103611556D01*
X149934527Y-103611554D01*
X149937776Y-103605928D01*
X149939438Y-103606887D01*
X149978737Y-103560651D01*
X150045586Y-103540329D01*
X150046768Y-103540323D01*
X150085487Y-103540323D01*
X150272288Y-103500617D01*
X150446752Y-103422941D01*
X150601253Y-103310689D01*
X150605160Y-103306350D01*
X150664646Y-103269702D01*
X150697309Y-103265323D01*
X151940572Y-103265323D01*
X151940573Y-103265322D01*
X152062962Y-103240978D01*
X152178252Y-103193223D01*
X152282010Y-103123894D01*
X155354819Y-100051085D01*
X155416142Y-100017600D01*
X155485834Y-100022584D01*
G37*
G04 #@! TD.AperFunction*
G04 #@! TA.AperFunction,Conductor*
G36*
X142927412Y-104512363D02*
G01*
X142959735Y-104535639D01*
X143057929Y-104633833D01*
X143106182Y-104682086D01*
X143146168Y-104722072D01*
X143249918Y-104791396D01*
X143249924Y-104791399D01*
X143249925Y-104791400D01*
X143365215Y-104839155D01*
X143476591Y-104861309D01*
X143487601Y-104863499D01*
X143487605Y-104863500D01*
X143487606Y-104863500D01*
X143555266Y-104863500D01*
X143622305Y-104883185D01*
X143668060Y-104935989D01*
X143678205Y-105003686D01*
X143671448Y-105054999D01*
X143671449Y-105055000D01*
X143700616Y-105055000D01*
X143767655Y-105074685D01*
X143813410Y-105127489D01*
X143823354Y-105196647D01*
X143798992Y-105254485D01*
X143780043Y-105279181D01*
X143731894Y-105341929D01*
X143731276Y-105343001D01*
X143730517Y-105343724D01*
X143726948Y-105348376D01*
X143726222Y-105347819D01*
X143697984Y-105374743D01*
X143671449Y-105405000D01*
X143675589Y-105436449D01*
X143672812Y-105478845D01*
X143672900Y-105478857D01*
X143672723Y-105480195D01*
X143672428Y-105484712D01*
X143671840Y-105486906D01*
X143656500Y-105603433D01*
X143656500Y-105856566D01*
X143671839Y-105973085D01*
X143671841Y-105973090D01*
X143726480Y-106105002D01*
X143733949Y-106174471D01*
X143702673Y-106236950D01*
X143642584Y-106272602D01*
X143572759Y-106270108D01*
X143524238Y-106240135D01*
X142819554Y-105535451D01*
X142786069Y-105474128D01*
X142784085Y-105459241D01*
X142783821Y-105459269D01*
X142777121Y-105393692D01*
X142773236Y-105355664D01*
X142719302Y-105192899D01*
X142719298Y-105192893D01*
X142719297Y-105192890D01*
X142629287Y-105046963D01*
X142629284Y-105046959D01*
X142618996Y-105036671D01*
X142585511Y-104975348D01*
X142590495Y-104905656D01*
X142618996Y-104861309D01*
X142622572Y-104857732D01*
X142622575Y-104857728D01*
X142711542Y-104713492D01*
X142711548Y-104713479D01*
X142754348Y-104584317D01*
X142794120Y-104526871D01*
X142858636Y-104500048D01*
X142927412Y-104512363D01*
G37*
G04 #@! TD.AperFunction*
G04 #@! TA.AperFunction,Conductor*
G36*
X140618331Y-103211151D02*
G01*
X140662680Y-103239652D01*
X140759841Y-103336813D01*
X140759843Y-103336814D01*
X140759845Y-103336816D01*
X140885596Y-103412835D01*
X140932782Y-103464362D01*
X140944621Y-103533221D01*
X140926984Y-103584048D01*
X140888454Y-103646513D01*
X140888452Y-103646518D01*
X140835144Y-103807393D01*
X140825000Y-103906677D01*
X140825000Y-103930000D01*
X141926000Y-103930000D01*
X141993039Y-103949685D01*
X142038794Y-104002489D01*
X142050000Y-104054000D01*
X142050000Y-104306000D01*
X142030315Y-104373039D01*
X141977511Y-104418794D01*
X141926000Y-104430000D01*
X140825000Y-104430000D01*
X140810480Y-104444520D01*
X140749157Y-104478004D01*
X140679465Y-104473019D01*
X140635119Y-104444519D01*
X140444819Y-104254219D01*
X140411334Y-104192896D01*
X140408500Y-104166538D01*
X140408500Y-103369833D01*
X140428185Y-103302794D01*
X140444818Y-103282153D01*
X140461649Y-103265322D01*
X140487319Y-103239651D01*
X140548639Y-103206167D01*
X140618331Y-103211151D01*
G37*
G04 #@! TD.AperFunction*
G04 #@! TA.AperFunction,Conductor*
G36*
X122893273Y-100888185D02*
G01*
X122913915Y-100904819D01*
X122957681Y-100948585D01*
X122991166Y-101009908D01*
X122994000Y-101036266D01*
X122994000Y-101835537D01*
X122994001Y-101835553D01*
X123004613Y-101939427D01*
X123060384Y-102107735D01*
X123060386Y-102107740D01*
X123071925Y-102126448D01*
X123153470Y-102258652D01*
X123278848Y-102384030D01*
X123429762Y-102477115D01*
X123598074Y-102532887D01*
X123701955Y-102543500D01*
X123740898Y-102543499D01*
X123807935Y-102563182D01*
X123853691Y-102615985D01*
X123863636Y-102685143D01*
X123858604Y-102706502D01*
X123830144Y-102792390D01*
X123830144Y-102792391D01*
X123820000Y-102891677D01*
X123820000Y-102940000D01*
X124896000Y-102940000D01*
X124963039Y-102959685D01*
X125008794Y-103012489D01*
X125020000Y-103064000D01*
X125020000Y-103316000D01*
X125000315Y-103383039D01*
X124947511Y-103428794D01*
X124896000Y-103440000D01*
X123820001Y-103440000D01*
X123820001Y-103488322D01*
X123830144Y-103587607D01*
X123883452Y-103748481D01*
X123883457Y-103748492D01*
X123972424Y-103892728D01*
X123972427Y-103892732D01*
X124019514Y-103939819D01*
X124052999Y-104001142D01*
X124048015Y-104070834D01*
X124006143Y-104126767D01*
X123940679Y-104151184D01*
X123931833Y-104151500D01*
X123730762Y-104151500D01*
X123663723Y-104131815D01*
X123643081Y-104115181D01*
X122386100Y-102858200D01*
X122352615Y-102796877D01*
X122357599Y-102727185D01*
X122399471Y-102671252D01*
X122409631Y-102664402D01*
X122449877Y-102640072D01*
X122570072Y-102519877D01*
X122658019Y-102374395D01*
X122708590Y-102212106D01*
X122715000Y-102141572D01*
X122715000Y-102135000D01*
X121714263Y-102135000D01*
X121647224Y-102115315D01*
X121626582Y-102098681D01*
X121526319Y-101998418D01*
X121492834Y-101937095D01*
X121490000Y-101910737D01*
X121490000Y-101759000D01*
X121509685Y-101691961D01*
X121562489Y-101646206D01*
X121614000Y-101635000D01*
X122714999Y-101635000D01*
X122714999Y-101628417D01*
X122708591Y-101557897D01*
X122708590Y-101557892D01*
X122658018Y-101395603D01*
X122570072Y-101250122D01*
X122473641Y-101153691D01*
X122440156Y-101092368D01*
X122445140Y-101022676D01*
X122473637Y-100978333D01*
X122547154Y-100904816D01*
X122608476Y-100871334D01*
X122634833Y-100868500D01*
X122826234Y-100868500D01*
X122893273Y-100888185D01*
G37*
G04 #@! TD.AperFunction*
G04 #@! TA.AperFunction,Conductor*
G36*
X143322674Y-97753480D02*
G01*
X143322676Y-97753481D01*
X143425742Y-97767050D01*
X143430451Y-97767670D01*
X143436756Y-97768500D01*
X143436763Y-97768500D01*
X143663237Y-97768500D01*
X143663244Y-97768500D01*
X143777324Y-97753481D01*
X143777325Y-97753480D01*
X143783814Y-97752626D01*
X143816186Y-97752626D01*
X143822674Y-97753480D01*
X143822676Y-97753481D01*
X143925742Y-97767050D01*
X143930451Y-97767670D01*
X143936756Y-97768500D01*
X143936763Y-97768500D01*
X144163237Y-97768500D01*
X144163244Y-97768500D01*
X144251315Y-97756905D01*
X144320349Y-97767670D01*
X144372605Y-97814050D01*
X144391500Y-97879844D01*
X144391500Y-98025143D01*
X144391500Y-98154857D01*
X144391500Y-98154859D01*
X144391499Y-98154859D01*
X144416804Y-98282071D01*
X144416806Y-98282077D01*
X144466443Y-98401913D01*
X144466447Y-98401920D01*
X144538510Y-98509771D01*
X144538511Y-98509772D01*
X144705181Y-98676441D01*
X144738666Y-98737764D01*
X144741500Y-98764119D01*
X144741500Y-98809975D01*
X144741501Y-98809999D01*
X144744371Y-98846466D01*
X144744371Y-98846467D01*
X144789729Y-99002591D01*
X144789732Y-99002598D01*
X144826771Y-99065229D01*
X144843954Y-99132953D01*
X144826772Y-99191469D01*
X144797594Y-99240806D01*
X144757156Y-99380000D01*
X145246511Y-99380000D01*
X145281106Y-99384924D01*
X145283527Y-99385627D01*
X145283534Y-99385629D01*
X145320011Y-99388500D01*
X145819988Y-99388499D01*
X145856466Y-99385629D01*
X145858893Y-99384924D01*
X145893488Y-99380000D01*
X146177000Y-99380000D01*
X146190681Y-99366319D01*
X146252004Y-99332834D01*
X146278362Y-99330000D01*
X146515933Y-99330000D01*
X146579053Y-99347267D01*
X146600403Y-99359894D01*
X146622518Y-99366319D01*
X146757741Y-99405605D01*
X146757744Y-99405605D01*
X146757746Y-99405606D01*
X146794516Y-99408500D01*
X147067328Y-99408500D01*
X147134367Y-99428185D01*
X147180122Y-99480989D01*
X147190648Y-99545460D01*
X147188818Y-99562887D01*
X147188547Y-99565461D01*
X147161963Y-99630076D01*
X147104666Y-99670061D01*
X147065226Y-99676500D01*
X146707601Y-99676500D01*
X146585222Y-99700843D01*
X146585214Y-99700845D01*
X146469927Y-99748598D01*
X146469918Y-99748603D01*
X146366167Y-99817928D01*
X146366163Y-99817931D01*
X146340414Y-99843681D01*
X146279091Y-99877166D01*
X146252733Y-99880000D01*
X145820000Y-99880000D01*
X145820000Y-100312734D01*
X145800315Y-100379773D01*
X145783681Y-100400415D01*
X144736132Y-101447964D01*
X144734911Y-101449184D01*
X144673574Y-101482644D01*
X144621486Y-101482757D01*
X144510487Y-101459164D01*
X144319513Y-101459164D01*
X144132714Y-101498869D01*
X144132712Y-101498870D01*
X143970330Y-101571167D01*
X143958246Y-101576547D01*
X143803745Y-101688799D01*
X143675959Y-101830721D01*
X143580473Y-101996107D01*
X143580470Y-101996114D01*
X143524707Y-102167737D01*
X143521458Y-102177736D01*
X143508835Y-102297836D01*
X143504019Y-102343661D01*
X143477434Y-102408275D01*
X143468379Y-102418380D01*
X143215508Y-102671252D01*
X142966167Y-102920593D01*
X142927075Y-102959685D01*
X142877927Y-103008832D01*
X142808603Y-103112582D01*
X142808598Y-103112591D01*
X142760845Y-103227878D01*
X142760843Y-103227886D01*
X142737638Y-103344545D01*
X142705253Y-103406456D01*
X142644537Y-103441030D01*
X142574768Y-103437291D01*
X142528340Y-103408035D01*
X142502732Y-103382427D01*
X142502728Y-103382424D01*
X142358492Y-103293457D01*
X142358481Y-103293452D01*
X142302705Y-103274970D01*
X142245260Y-103235197D01*
X142218437Y-103170681D01*
X142230752Y-103101906D01*
X142235592Y-103093114D01*
X142250827Y-103067913D01*
X142302013Y-102903649D01*
X142308500Y-102832265D01*
X142308499Y-102538766D01*
X142328183Y-102471728D01*
X142344818Y-102451086D01*
X142496704Y-102299201D01*
X142682072Y-102113833D01*
X142751401Y-102010075D01*
X142790780Y-101915004D01*
X142792548Y-101910737D01*
X142799153Y-101894789D01*
X142799155Y-101894785D01*
X142823500Y-101772394D01*
X142823500Y-101374731D01*
X142843185Y-101307692D01*
X142882404Y-101269192D01*
X142884060Y-101268170D01*
X142900387Y-101258100D01*
X143020600Y-101137887D01*
X143109849Y-100993192D01*
X143163324Y-100831814D01*
X143173500Y-100732211D01*
X143173499Y-100197790D01*
X143163324Y-100098186D01*
X143109849Y-99936808D01*
X143074809Y-99880000D01*
X144757156Y-99880000D01*
X144797595Y-100019194D01*
X144879261Y-100157285D01*
X144879268Y-100157294D01*
X144992705Y-100270731D01*
X144992714Y-100270738D01*
X145130808Y-100352406D01*
X145130811Y-100352407D01*
X145284871Y-100397166D01*
X145284877Y-100397167D01*
X145320000Y-100399931D01*
X145320000Y-99880000D01*
X144757156Y-99880000D01*
X143074809Y-99880000D01*
X143020600Y-99792113D01*
X142993668Y-99765181D01*
X142960183Y-99703858D01*
X142965167Y-99634166D01*
X142993668Y-99589819D01*
X143001672Y-99581815D01*
X143020600Y-99562887D01*
X143109849Y-99418192D01*
X143163324Y-99256814D01*
X143173500Y-99157211D01*
X143173499Y-98622790D01*
X143163324Y-98523186D01*
X143109849Y-98361808D01*
X143020600Y-98217113D01*
X142900387Y-98096900D01*
X142900383Y-98096897D01*
X142767403Y-98014873D01*
X142720678Y-97962925D01*
X142708500Y-97909335D01*
X142708500Y-97879844D01*
X142728185Y-97812805D01*
X142780989Y-97767050D01*
X142848684Y-97756905D01*
X142923493Y-97766753D01*
X142930451Y-97767670D01*
X142936756Y-97768500D01*
X142936763Y-97768500D01*
X143163237Y-97768500D01*
X143163244Y-97768500D01*
X143277324Y-97753481D01*
X143277325Y-97753480D01*
X143283814Y-97752626D01*
X143316186Y-97752626D01*
X143322674Y-97753480D01*
G37*
G04 #@! TD.AperFunction*
G04 #@! TA.AperFunction,Conductor*
G36*
X136522195Y-94463185D02*
G01*
X136567950Y-94515989D01*
X136578094Y-94583684D01*
X136577225Y-94590290D01*
X136566500Y-94671748D01*
X136566500Y-94898251D01*
X136581519Y-95012323D01*
X136581519Y-95012324D01*
X136628829Y-95126542D01*
X136640314Y-95154268D01*
X136733843Y-95276157D01*
X136855732Y-95369686D01*
X136997676Y-95428481D01*
X137111756Y-95443500D01*
X137111763Y-95443500D01*
X138638237Y-95443500D01*
X138638244Y-95443500D01*
X138752324Y-95428481D01*
X138752340Y-95428474D01*
X138755494Y-95427630D01*
X138758283Y-95427696D01*
X138760381Y-95427420D01*
X138760424Y-95427747D01*
X138825344Y-95429288D01*
X138883210Y-95468447D01*
X138910718Y-95532674D01*
X138907372Y-95579492D01*
X138906519Y-95582674D01*
X138891500Y-95696748D01*
X138891500Y-97223251D01*
X138906519Y-97337323D01*
X138906520Y-97337327D01*
X138957132Y-97459517D01*
X138964601Y-97528986D01*
X138933325Y-97591465D01*
X138930255Y-97594647D01*
X138920285Y-97604616D01*
X138920277Y-97604627D01*
X138837968Y-97743804D01*
X138837966Y-97743809D01*
X138792855Y-97899081D01*
X138792854Y-97899087D01*
X138791209Y-97919999D01*
X138791210Y-97920000D01*
X139553315Y-97920000D01*
X139620354Y-97939685D01*
X139666109Y-97992489D01*
X139676053Y-98061647D01*
X139674935Y-98068175D01*
X139671500Y-98085445D01*
X139671500Y-99315445D01*
X139671500Y-100565445D01*
X139671500Y-100734555D01*
X139671500Y-100734557D01*
X139671499Y-100734557D01*
X139680899Y-100781808D01*
X139674672Y-100851400D01*
X139631809Y-100906577D01*
X139565920Y-100929822D01*
X139559282Y-100930000D01*
X138821210Y-100930000D01*
X138822854Y-100950910D01*
X138867968Y-101106195D01*
X138950278Y-101245374D01*
X138950285Y-101245383D01*
X139064616Y-101359714D01*
X139064625Y-101359721D01*
X139162732Y-101417741D01*
X139210415Y-101468810D01*
X139222919Y-101537552D01*
X139196274Y-101602141D01*
X139163762Y-101630589D01*
X139109844Y-101663184D01*
X139109840Y-101663187D01*
X138988186Y-101784841D01*
X138899173Y-101932086D01*
X138847986Y-102096354D01*
X138841500Y-102167737D01*
X138841500Y-102177470D01*
X138821815Y-102244509D01*
X138820603Y-102246360D01*
X138789203Y-102293353D01*
X138786334Y-102298722D01*
X138784677Y-102297836D01*
X138743586Y-102344876D01*
X138676468Y-102364292D01*
X138609508Y-102344339D01*
X138589284Y-102327974D01*
X137027547Y-100766236D01*
X137027543Y-100766233D01*
X136878751Y-100666812D01*
X136878738Y-100666805D01*
X136713410Y-100598325D01*
X136713401Y-100598322D01*
X136537892Y-100563412D01*
X136537888Y-100563412D01*
X131957500Y-100563412D01*
X131890461Y-100543727D01*
X131844706Y-100490923D01*
X131833500Y-100439412D01*
X131833500Y-99514122D01*
X131853185Y-99447083D01*
X131905989Y-99401328D01*
X131975147Y-99391384D01*
X132038703Y-99420409D01*
X132045181Y-99426441D01*
X132440227Y-99821488D01*
X132440231Y-99821491D01*
X132548076Y-99893551D01*
X132548080Y-99893553D01*
X132548083Y-99893555D01*
X132667923Y-99943195D01*
X132774036Y-99964301D01*
X132795143Y-99968500D01*
X135124859Y-99968500D01*
X135210444Y-99951475D01*
X135252077Y-99943194D01*
X135371917Y-99893555D01*
X135479769Y-99821491D01*
X135651260Y-99650000D01*
X138791210Y-99650000D01*
X138792854Y-99670910D01*
X138837968Y-99826195D01*
X138920278Y-99965374D01*
X138920285Y-99965383D01*
X138926581Y-99971679D01*
X138960066Y-100033002D01*
X138955082Y-100102694D01*
X138945632Y-100122481D01*
X138867968Y-100253803D01*
X138867966Y-100253809D01*
X138822855Y-100409081D01*
X138822854Y-100409087D01*
X138821209Y-100429999D01*
X138821210Y-100430000D01*
X139350000Y-100430000D01*
X139350000Y-100247746D01*
X139322834Y-100197996D01*
X139320000Y-100171638D01*
X139320000Y-99650000D01*
X138791210Y-99650000D01*
X135651260Y-99650000D01*
X135961490Y-99339769D01*
X136033555Y-99231917D01*
X136067486Y-99149999D01*
X138791209Y-99149999D01*
X138791210Y-99150000D01*
X139320000Y-99150000D01*
X139320000Y-98420000D01*
X138791210Y-98420000D01*
X138792854Y-98440910D01*
X138837968Y-98596195D01*
X138912297Y-98721879D01*
X138929480Y-98789603D01*
X138912297Y-98848121D01*
X138837968Y-98973804D01*
X138837966Y-98973809D01*
X138792855Y-99129081D01*
X138792854Y-99129087D01*
X138791209Y-99149999D01*
X136067486Y-99149999D01*
X136083194Y-99112077D01*
X136087884Y-99088500D01*
X136098554Y-99034858D01*
X136108500Y-98984859D01*
X136108500Y-94754122D01*
X136128185Y-94687083D01*
X136144819Y-94666441D01*
X136331441Y-94479819D01*
X136392764Y-94446334D01*
X136419122Y-94443500D01*
X136455156Y-94443500D01*
X136522195Y-94463185D01*
G37*
G04 #@! TD.AperFunction*
G04 #@! TA.AperFunction,Conductor*
G36*
X127815074Y-92923185D02*
G01*
X127835716Y-92939819D01*
X129007681Y-94111783D01*
X129041166Y-94173106D01*
X129044000Y-94199464D01*
X129044000Y-94255476D01*
X129025542Y-94320568D01*
X129020151Y-94329308D01*
X128966675Y-94490689D01*
X128963357Y-94523166D01*
X128936959Y-94587857D01*
X128879777Y-94628008D01*
X128809966Y-94630869D01*
X128749690Y-94595534D01*
X128718087Y-94533220D01*
X128716641Y-94523160D01*
X128716197Y-94518815D01*
X128713324Y-94490686D01*
X128702928Y-94459314D01*
X128682692Y-94398244D01*
X128659849Y-94329308D01*
X128570600Y-94184613D01*
X128450387Y-94064400D01*
X128305692Y-93975151D01*
X128144314Y-93921676D01*
X128144311Y-93921675D01*
X128144312Y-93921675D01*
X128044712Y-93911500D01*
X127510296Y-93911500D01*
X127510280Y-93911501D01*
X127410684Y-93921676D01*
X127249310Y-93975150D01*
X127249305Y-93975152D01*
X127104611Y-94064401D01*
X126984401Y-94184611D01*
X126895152Y-94329305D01*
X126895150Y-94329310D01*
X126841675Y-94490689D01*
X126831500Y-94590281D01*
X126831500Y-95449703D01*
X126831501Y-95449719D01*
X126841676Y-95549315D01*
X126875630Y-95651782D01*
X126895151Y-95710692D01*
X126984400Y-95855387D01*
X127104613Y-95975600D01*
X127202597Y-96036037D01*
X127249321Y-96087984D01*
X127261500Y-96141575D01*
X127261500Y-96347500D01*
X127241815Y-96414539D01*
X127189011Y-96460294D01*
X127137500Y-96471500D01*
X126852638Y-96471500D01*
X126738936Y-96494117D01*
X126714746Y-96496500D01*
X126555072Y-96496500D01*
X126443447Y-96511194D01*
X126443438Y-96511197D01*
X126304538Y-96568731D01*
X126304535Y-96568733D01*
X126204001Y-96645876D01*
X126138832Y-96671070D01*
X126128515Y-96671500D01*
X124781485Y-96671500D01*
X124714446Y-96651815D01*
X124705999Y-96645876D01*
X124605464Y-96568733D01*
X124605461Y-96568731D01*
X124466561Y-96511197D01*
X124466559Y-96511196D01*
X124354934Y-96496501D01*
X124354931Y-96496500D01*
X124354925Y-96496500D01*
X124354918Y-96496500D01*
X124341622Y-96496500D01*
X124274583Y-96476815D01*
X124253945Y-96460185D01*
X124152269Y-96358509D01*
X124044417Y-96286445D01*
X124044415Y-96286444D01*
X124044413Y-96286443D01*
X123924577Y-96236806D01*
X123924571Y-96236804D01*
X123797359Y-96211500D01*
X123797357Y-96211500D01*
X122665188Y-96211500D01*
X122598149Y-96191815D01*
X122577507Y-96175182D01*
X122543900Y-96141575D01*
X122468040Y-96065715D01*
X122468037Y-96065713D01*
X122468036Y-96065712D01*
X122322109Y-95975702D01*
X122322103Y-95975699D01*
X122322101Y-95975698D01*
X122159336Y-95921764D01*
X122058879Y-95911500D01*
X122058872Y-95911500D01*
X121461128Y-95911500D01*
X121461120Y-95911500D01*
X121360663Y-95921764D01*
X121197901Y-95975697D01*
X121197892Y-95975701D01*
X121169784Y-95993039D01*
X121104688Y-96011500D01*
X120860689Y-96011500D01*
X120860669Y-96011499D01*
X120854555Y-96011499D01*
X120685445Y-96011499D01*
X120685443Y-96011499D01*
X120519590Y-96044490D01*
X120519582Y-96044492D01*
X120363355Y-96109203D01*
X120363344Y-96109209D01*
X120222735Y-96203160D01*
X120222734Y-96203161D01*
X119565897Y-96860000D01*
X119347738Y-97078159D01*
X119311822Y-97114075D01*
X119228159Y-97197737D01*
X119134209Y-97338344D01*
X119134205Y-97338351D01*
X119095306Y-97432264D01*
X119069492Y-97494583D01*
X119069490Y-97494591D01*
X119050221Y-97591465D01*
X119048575Y-97599742D01*
X119047603Y-97604627D01*
X119036500Y-97660443D01*
X119036500Y-100482030D01*
X119016815Y-100549069D01*
X118964011Y-100594824D01*
X118894853Y-100604768D01*
X118831297Y-100575743D01*
X118824819Y-100569711D01*
X118079819Y-99824711D01*
X118046334Y-99763388D01*
X118043500Y-99737030D01*
X118043500Y-96389071D01*
X118063185Y-96322032D01*
X118079819Y-96301390D01*
X118497068Y-95884141D01*
X118497071Y-95884138D01*
X118566400Y-95780380D01*
X118614155Y-95665090D01*
X118638500Y-95542699D01*
X118638500Y-95417911D01*
X118638500Y-94278766D01*
X118658185Y-94211727D01*
X118674819Y-94191085D01*
X119136085Y-93729819D01*
X119197408Y-93696334D01*
X119223766Y-93693500D01*
X124372691Y-93693500D01*
X124439730Y-93713185D01*
X124464840Y-93734527D01*
X124468747Y-93738866D01*
X124623248Y-93851118D01*
X124797712Y-93928794D01*
X124984513Y-93968500D01*
X125175487Y-93968500D01*
X125362288Y-93928794D01*
X125536752Y-93851118D01*
X125691253Y-93738866D01*
X125819040Y-93596944D01*
X125914527Y-93431556D01*
X125973542Y-93249928D01*
X125993504Y-93060000D01*
X125991450Y-93040460D01*
X126004019Y-92971732D01*
X126051751Y-92920708D01*
X126114771Y-92903500D01*
X127748035Y-92903500D01*
X127815074Y-92923185D01*
G37*
G04 #@! TD.AperFunction*
G04 #@! TA.AperFunction,Conductor*
G36*
X128809539Y-98808185D02*
G01*
X128855294Y-98860989D01*
X128866500Y-98912499D01*
X128866500Y-99082272D01*
X128872985Y-99153645D01*
X128872988Y-99153655D01*
X128924171Y-99317909D01*
X128924172Y-99317911D01*
X128924173Y-99317913D01*
X129013184Y-99465155D01*
X129134845Y-99586816D01*
X129156648Y-99599996D01*
X129203836Y-99651522D01*
X129216500Y-99706114D01*
X129216500Y-100035166D01*
X129196815Y-100102205D01*
X129144011Y-100147960D01*
X129074853Y-100157904D01*
X129011297Y-100128879D01*
X129004819Y-100122847D01*
X128910158Y-100028186D01*
X128900891Y-100022584D01*
X128762913Y-99939173D01*
X128755330Y-99936810D01*
X128722601Y-99926611D01*
X128671811Y-99895907D01*
X128053836Y-99277931D01*
X128053832Y-99277928D01*
X127950081Y-99208603D01*
X127950072Y-99208598D01*
X127834785Y-99160845D01*
X127834777Y-99160843D01*
X127818323Y-99157570D01*
X127756412Y-99125185D01*
X127721838Y-99064470D01*
X127725577Y-98994700D01*
X127731509Y-98981810D01*
X127779874Y-98865048D01*
X127823715Y-98810644D01*
X127890009Y-98788579D01*
X127894435Y-98788500D01*
X128742500Y-98788500D01*
X128809539Y-98808185D01*
G37*
G04 #@! TD.AperFunction*
G04 #@! TA.AperFunction,Conductor*
G36*
X122855117Y-98745102D02*
G01*
X122947604Y-98763499D01*
X122947605Y-98763500D01*
X123005209Y-98763500D01*
X123072248Y-98783185D01*
X123118003Y-98835989D01*
X123119770Y-98840047D01*
X123176156Y-98976175D01*
X123266320Y-99093679D01*
X123383824Y-99183843D01*
X123520658Y-99240521D01*
X123630622Y-99254999D01*
X123630637Y-99255000D01*
X123867500Y-99255000D01*
X123867500Y-98887500D01*
X123887185Y-98820461D01*
X123939989Y-98774706D01*
X123991500Y-98763500D01*
X123993500Y-98763500D01*
X124060539Y-98783185D01*
X124106294Y-98835989D01*
X124117500Y-98887500D01*
X124117500Y-99255000D01*
X124354363Y-99255000D01*
X124354377Y-99254999D01*
X124464341Y-99240521D01*
X124464342Y-99240521D01*
X124601178Y-99183842D01*
X124692037Y-99114124D01*
X124757206Y-99088930D01*
X124767523Y-99088500D01*
X124941233Y-99088500D01*
X125008272Y-99108185D01*
X125054027Y-99160989D01*
X125063971Y-99230147D01*
X125034946Y-99293703D01*
X125028914Y-99300181D01*
X124582715Y-99746379D01*
X124521392Y-99779864D01*
X124482432Y-99782056D01*
X124428047Y-99776500D01*
X123701962Y-99776500D01*
X123701941Y-99776502D01*
X123647565Y-99782056D01*
X123578872Y-99769285D01*
X123547284Y-99746379D01*
X123543836Y-99742931D01*
X123543832Y-99742928D01*
X123440081Y-99673603D01*
X123440072Y-99673598D01*
X123324785Y-99625845D01*
X123324777Y-99625843D01*
X123202398Y-99601500D01*
X123202394Y-99601500D01*
X122634833Y-99601500D01*
X122567794Y-99581815D01*
X122547156Y-99565185D01*
X122455155Y-99473184D01*
X122455154Y-99473183D01*
X122423470Y-99454030D01*
X122376282Y-99402503D01*
X122364443Y-99333643D01*
X122391711Y-99269315D01*
X122422523Y-99242374D01*
X122462731Y-99217573D01*
X122582572Y-99097732D01*
X122582575Y-99097728D01*
X122671542Y-98953492D01*
X122671548Y-98953479D01*
X122713221Y-98827717D01*
X122752993Y-98770272D01*
X122817509Y-98743448D01*
X122855117Y-98745102D01*
G37*
G04 #@! TD.AperFunction*
G04 #@! TA.AperFunction,Conductor*
G36*
X167102917Y-94668185D02*
G01*
X167123559Y-94684819D01*
X167755181Y-95316441D01*
X167788666Y-95377764D01*
X167791500Y-95404122D01*
X167791500Y-98567500D01*
X167771815Y-98634539D01*
X167719011Y-98680294D01*
X167667500Y-98691500D01*
X164759574Y-98691500D01*
X164692535Y-98671815D01*
X164646780Y-98619011D01*
X164636284Y-98580758D01*
X164631989Y-98540799D01*
X164631987Y-98540796D01*
X164631159Y-98533086D01*
X164632633Y-98532927D01*
X164632633Y-98497071D01*
X164631160Y-98496913D01*
X164638499Y-98428654D01*
X164638500Y-98428637D01*
X164638500Y-97331362D01*
X164638499Y-97331345D01*
X164632985Y-97280061D01*
X164631989Y-97270799D01*
X164631258Y-97268840D01*
X164630954Y-97266420D01*
X164630205Y-97263249D01*
X164630545Y-97263168D01*
X164624149Y-97212245D01*
X164629999Y-97157839D01*
X164630000Y-97157827D01*
X164630000Y-96860000D01*
X163004000Y-96860000D01*
X162936961Y-96840315D01*
X162891206Y-96787511D01*
X162880000Y-96736000D01*
X162880000Y-96484000D01*
X162899685Y-96416961D01*
X162952489Y-96371206D01*
X163004000Y-96360000D01*
X164630000Y-96360000D01*
X164630000Y-96062172D01*
X164629999Y-96062160D01*
X164624149Y-96007755D01*
X164630546Y-95956835D01*
X164630204Y-95956754D01*
X164630957Y-95953563D01*
X164631260Y-95951153D01*
X164631989Y-95949201D01*
X164636042Y-95911500D01*
X164638499Y-95888654D01*
X164638500Y-95888637D01*
X164638500Y-94791362D01*
X164638499Y-94791350D01*
X164637898Y-94785758D01*
X164650302Y-94716998D01*
X164697911Y-94665860D01*
X164761187Y-94648500D01*
X167035878Y-94648500D01*
X167102917Y-94668185D01*
G37*
G04 #@! TD.AperFunction*
G04 #@! TA.AperFunction,Conductor*
G36*
X133367806Y-94354463D02*
G01*
X133399411Y-94416776D01*
X133400858Y-94426836D01*
X133404176Y-94459315D01*
X133457650Y-94620689D01*
X133457652Y-94620694D01*
X133463928Y-94630869D01*
X133537436Y-94750044D01*
X133546901Y-94765388D01*
X133672220Y-94890707D01*
X133670650Y-94892276D01*
X133704785Y-94940476D01*
X133711500Y-94980729D01*
X133711500Y-95284867D01*
X133691815Y-95351906D01*
X133661953Y-95384027D01*
X133660000Y-95385493D01*
X133660000Y-95675931D01*
X133642733Y-95739050D01*
X133630108Y-95760397D01*
X133630104Y-95760407D01*
X133584394Y-95917741D01*
X133584393Y-95917747D01*
X133581500Y-95954510D01*
X133581500Y-96425489D01*
X133584393Y-96462251D01*
X133584394Y-96462254D01*
X133630106Y-96619597D01*
X133642730Y-96640943D01*
X133660000Y-96704066D01*
X133660000Y-96968518D01*
X133640315Y-97035557D01*
X133640000Y-97035895D01*
X133640000Y-97335931D01*
X133622733Y-97399050D01*
X133610108Y-97420397D01*
X133610104Y-97420407D01*
X133564394Y-97577741D01*
X133564393Y-97577747D01*
X133561500Y-97614510D01*
X133561500Y-97976000D01*
X133541815Y-98043039D01*
X133489011Y-98088794D01*
X133437500Y-98100000D01*
X133264000Y-98100000D01*
X133196961Y-98080315D01*
X133151206Y-98027511D01*
X133140000Y-97976000D01*
X133140000Y-97071480D01*
X133159685Y-97004441D01*
X133160000Y-97004102D01*
X133160000Y-95385494D01*
X133159998Y-95385493D01*
X133013809Y-95427965D01*
X133013806Y-95427967D01*
X132874625Y-95510278D01*
X132874620Y-95510282D01*
X132772657Y-95612245D01*
X132711334Y-95645729D01*
X132641642Y-95640745D01*
X132585709Y-95598873D01*
X132565517Y-95553586D01*
X132564963Y-95553755D01*
X132563623Y-95549340D01*
X132563356Y-95548742D01*
X132563194Y-95547923D01*
X132556878Y-95532674D01*
X132513557Y-95428087D01*
X132513556Y-95428085D01*
X132511014Y-95424281D01*
X132474535Y-95369686D01*
X132441491Y-95320232D01*
X132414158Y-95292899D01*
X132371437Y-95250178D01*
X132337954Y-95188858D01*
X132342938Y-95119166D01*
X132384809Y-95063232D01*
X132450273Y-95038815D01*
X132459120Y-95038499D01*
X132482203Y-95038499D01*
X132482210Y-95038499D01*
X132581814Y-95028324D01*
X132743192Y-94974849D01*
X132887887Y-94885600D01*
X133008100Y-94765387D01*
X133097349Y-94620692D01*
X133150824Y-94459314D01*
X133154142Y-94426835D01*
X133180538Y-94362144D01*
X133237718Y-94321993D01*
X133307529Y-94319129D01*
X133367806Y-94354463D01*
G37*
G04 #@! TD.AperFunction*
G04 #@! TA.AperFunction,Conductor*
G36*
X128930306Y-95444463D02*
G01*
X128961911Y-95506776D01*
X128963358Y-95516836D01*
X128966675Y-95549313D01*
X128975061Y-95574619D01*
X128987529Y-95612245D01*
X128987706Y-95612777D01*
X128994000Y-95651782D01*
X128994000Y-96532011D01*
X128976117Y-96596160D01*
X128924174Y-96682084D01*
X128924173Y-96682086D01*
X128924173Y-96682087D01*
X128899278Y-96761980D01*
X128872986Y-96846354D01*
X128866500Y-96917737D01*
X128866500Y-97175877D01*
X128846815Y-97242916D01*
X128830181Y-97263558D01*
X128658559Y-97435181D01*
X128597236Y-97468666D01*
X128570878Y-97471500D01*
X128568777Y-97471500D01*
X128501738Y-97451815D01*
X128455983Y-97399011D01*
X128446039Y-97329853D01*
X128465674Y-97278610D01*
X128469427Y-97272993D01*
X128503555Y-97221917D01*
X128553194Y-97102077D01*
X128571047Y-97012325D01*
X128578500Y-96974859D01*
X128578500Y-95877745D01*
X128596962Y-95812648D01*
X128659844Y-95710700D01*
X128659843Y-95710700D01*
X128659849Y-95710692D01*
X128713324Y-95549314D01*
X128716642Y-95516835D01*
X128743038Y-95452144D01*
X128800218Y-95411993D01*
X128870029Y-95409129D01*
X128930306Y-95444463D01*
G37*
G04 #@! TD.AperFunction*
G04 #@! TA.AperFunction,Conductor*
G36*
X140108129Y-82291139D02*
G01*
X140125482Y-82302291D01*
X140151486Y-82322245D01*
X140192689Y-82378671D01*
X140196804Y-82402283D01*
X140200000Y-82405086D01*
X140263090Y-82396781D01*
X140314251Y-82403517D01*
X140314825Y-82401377D01*
X140322669Y-82403478D01*
X140322676Y-82403481D01*
X140436756Y-82418500D01*
X140436763Y-82418500D01*
X140663237Y-82418500D01*
X140663244Y-82418500D01*
X140777324Y-82403481D01*
X140777325Y-82403480D01*
X140783814Y-82402626D01*
X140816186Y-82402626D01*
X140822674Y-82403480D01*
X140822676Y-82403481D01*
X140936756Y-82418500D01*
X140936763Y-82418500D01*
X141163237Y-82418500D01*
X141163244Y-82418500D01*
X141277324Y-82403481D01*
X141277325Y-82403480D01*
X141283814Y-82402626D01*
X141316186Y-82402626D01*
X141322674Y-82403480D01*
X141322676Y-82403481D01*
X141436756Y-82418500D01*
X141436763Y-82418500D01*
X141663237Y-82418500D01*
X141663244Y-82418500D01*
X141777324Y-82403481D01*
X141777325Y-82403480D01*
X141783814Y-82402626D01*
X141816186Y-82402626D01*
X141822674Y-82403480D01*
X141822676Y-82403481D01*
X141936756Y-82418500D01*
X141936763Y-82418500D01*
X142163237Y-82418500D01*
X142163244Y-82418500D01*
X142277324Y-82403481D01*
X142277325Y-82403480D01*
X142283814Y-82402626D01*
X142316186Y-82402626D01*
X142322674Y-82403480D01*
X142322676Y-82403481D01*
X142436756Y-82418500D01*
X142436763Y-82418500D01*
X142663237Y-82418500D01*
X142663244Y-82418500D01*
X142777324Y-82403481D01*
X142777325Y-82403480D01*
X142783814Y-82402626D01*
X142816186Y-82402626D01*
X142822674Y-82403480D01*
X142822676Y-82403481D01*
X142936756Y-82418500D01*
X142936763Y-82418500D01*
X143163237Y-82418500D01*
X143163244Y-82418500D01*
X143277324Y-82403481D01*
X143277325Y-82403480D01*
X143283814Y-82402626D01*
X143316186Y-82402626D01*
X143322674Y-82403480D01*
X143322676Y-82403481D01*
X143436756Y-82418500D01*
X143436763Y-82418500D01*
X143663237Y-82418500D01*
X143663244Y-82418500D01*
X143777324Y-82403481D01*
X143777325Y-82403480D01*
X143783814Y-82402626D01*
X143816186Y-82402626D01*
X143822674Y-82403480D01*
X143822676Y-82403481D01*
X143936756Y-82418500D01*
X143936763Y-82418500D01*
X144163237Y-82418500D01*
X144163244Y-82418500D01*
X144277324Y-82403481D01*
X144277325Y-82403480D01*
X144283814Y-82402626D01*
X144316186Y-82402626D01*
X144322674Y-82403480D01*
X144322676Y-82403481D01*
X144436756Y-82418500D01*
X144436763Y-82418500D01*
X144663237Y-82418500D01*
X144663244Y-82418500D01*
X144777324Y-82403481D01*
X144777325Y-82403480D01*
X144783814Y-82402626D01*
X144816186Y-82402626D01*
X144822674Y-82403480D01*
X144822676Y-82403481D01*
X144936756Y-82418500D01*
X144936763Y-82418500D01*
X145163237Y-82418500D01*
X145163244Y-82418500D01*
X145277324Y-82403481D01*
X145277325Y-82403480D01*
X145283814Y-82402626D01*
X145316186Y-82402626D01*
X145322674Y-82403480D01*
X145322676Y-82403481D01*
X145436756Y-82418500D01*
X145436763Y-82418500D01*
X145663237Y-82418500D01*
X145663244Y-82418500D01*
X145777324Y-82403481D01*
X145777325Y-82403480D01*
X145783814Y-82402626D01*
X145816186Y-82402626D01*
X145822674Y-82403480D01*
X145822676Y-82403481D01*
X145936756Y-82418500D01*
X145936763Y-82418500D01*
X146163237Y-82418500D01*
X146163244Y-82418500D01*
X146277324Y-82403481D01*
X146277325Y-82403480D01*
X146283814Y-82402626D01*
X146316186Y-82402626D01*
X146322674Y-82403480D01*
X146322676Y-82403481D01*
X146436756Y-82418500D01*
X146436763Y-82418500D01*
X146663237Y-82418500D01*
X146663244Y-82418500D01*
X146777324Y-82403481D01*
X146777325Y-82403480D01*
X146783814Y-82402626D01*
X146816186Y-82402626D01*
X146822674Y-82403480D01*
X146822676Y-82403481D01*
X146936756Y-82418500D01*
X146936763Y-82418500D01*
X147163237Y-82418500D01*
X147163244Y-82418500D01*
X147277324Y-82403481D01*
X147277325Y-82403480D01*
X147283814Y-82402626D01*
X147316186Y-82402626D01*
X147322674Y-82403480D01*
X147322676Y-82403481D01*
X147436756Y-82418500D01*
X147436763Y-82418500D01*
X147663237Y-82418500D01*
X147663244Y-82418500D01*
X147777324Y-82403481D01*
X147777325Y-82403480D01*
X147783814Y-82402626D01*
X147816186Y-82402626D01*
X147822674Y-82403480D01*
X147822676Y-82403481D01*
X147936756Y-82418500D01*
X147936763Y-82418500D01*
X148163237Y-82418500D01*
X148163244Y-82418500D01*
X148277324Y-82403481D01*
X148277325Y-82403480D01*
X148283814Y-82402626D01*
X148316186Y-82402626D01*
X148322674Y-82403480D01*
X148322676Y-82403481D01*
X148436756Y-82418500D01*
X148436763Y-82418500D01*
X148663237Y-82418500D01*
X148663244Y-82418500D01*
X148777324Y-82403481D01*
X148777325Y-82403480D01*
X148783814Y-82402626D01*
X148816186Y-82402626D01*
X148822674Y-82403480D01*
X148822676Y-82403481D01*
X148936756Y-82418500D01*
X148936763Y-82418500D01*
X149163237Y-82418500D01*
X149163244Y-82418500D01*
X149277324Y-82403481D01*
X149277325Y-82403480D01*
X149283814Y-82402626D01*
X149316186Y-82402626D01*
X149322674Y-82403480D01*
X149322676Y-82403481D01*
X149436756Y-82418500D01*
X149436763Y-82418500D01*
X149663237Y-82418500D01*
X149663244Y-82418500D01*
X149777324Y-82403481D01*
X149777325Y-82403480D01*
X149783814Y-82402626D01*
X149816186Y-82402626D01*
X149822674Y-82403480D01*
X149822676Y-82403481D01*
X149936756Y-82418500D01*
X149936763Y-82418500D01*
X150163237Y-82418500D01*
X150163244Y-82418500D01*
X150277324Y-82403481D01*
X150277325Y-82403480D01*
X150283814Y-82402626D01*
X150316186Y-82402626D01*
X150322674Y-82403480D01*
X150322676Y-82403481D01*
X150436756Y-82418500D01*
X150436763Y-82418500D01*
X150663237Y-82418500D01*
X150663244Y-82418500D01*
X150777324Y-82403481D01*
X150777325Y-82403480D01*
X150783814Y-82402626D01*
X150816186Y-82402626D01*
X150822674Y-82403480D01*
X150822676Y-82403481D01*
X150936756Y-82418500D01*
X150936763Y-82418500D01*
X151163237Y-82418500D01*
X151163244Y-82418500D01*
X151277324Y-82403481D01*
X151277325Y-82403480D01*
X151283814Y-82402626D01*
X151316186Y-82402626D01*
X151322674Y-82403480D01*
X151322676Y-82403481D01*
X151436756Y-82418500D01*
X151436763Y-82418500D01*
X151663237Y-82418500D01*
X151663244Y-82418500D01*
X151777324Y-82403481D01*
X151777340Y-82403474D01*
X151780494Y-82402630D01*
X151783283Y-82402696D01*
X151785381Y-82402420D01*
X151785424Y-82402747D01*
X151850344Y-82404288D01*
X151908210Y-82443447D01*
X151935718Y-82507674D01*
X151932372Y-82554492D01*
X151931519Y-82557674D01*
X151916500Y-82671748D01*
X151916500Y-82898251D01*
X151931519Y-83012328D01*
X151933623Y-83020179D01*
X151931485Y-83020751D01*
X151938217Y-83071908D01*
X151929911Y-83134999D01*
X151935299Y-83141142D01*
X151981418Y-83154685D01*
X152012756Y-83183515D01*
X152032706Y-83209515D01*
X152057899Y-83274684D01*
X152043860Y-83343129D01*
X152032706Y-83360485D01*
X152012756Y-83386485D01*
X151956328Y-83427689D01*
X151932714Y-83431804D01*
X151929911Y-83435000D01*
X151938218Y-83498089D01*
X151931487Y-83549249D01*
X151933623Y-83549822D01*
X151931519Y-83557672D01*
X151916500Y-83671748D01*
X151916500Y-83898237D01*
X151916501Y-83898254D01*
X151932373Y-84018815D01*
X151932373Y-84051185D01*
X151916501Y-84171745D01*
X151916500Y-84171762D01*
X151916500Y-84398237D01*
X151916501Y-84398254D01*
X151932373Y-84518815D01*
X151932373Y-84551185D01*
X151916501Y-84671745D01*
X151916500Y-84671762D01*
X151916500Y-84898237D01*
X151916501Y-84898254D01*
X151932373Y-85018815D01*
X151932373Y-85051185D01*
X151916501Y-85171745D01*
X151916500Y-85171762D01*
X151916500Y-85398237D01*
X151916501Y-85398254D01*
X151932373Y-85518815D01*
X151932373Y-85551185D01*
X151916501Y-85671745D01*
X151916500Y-85671762D01*
X151916500Y-85898237D01*
X151916501Y-85898254D01*
X151932373Y-86018815D01*
X151932373Y-86051185D01*
X151916501Y-86171745D01*
X151916500Y-86171762D01*
X151916500Y-86398237D01*
X151916501Y-86398254D01*
X151932373Y-86518815D01*
X151932373Y-86551185D01*
X151916501Y-86671745D01*
X151916500Y-86671762D01*
X151916500Y-86898237D01*
X151916501Y-86898254D01*
X151932373Y-87018815D01*
X151932373Y-87051185D01*
X151916501Y-87171745D01*
X151916500Y-87171762D01*
X151916500Y-87398237D01*
X151916501Y-87398254D01*
X151932373Y-87518815D01*
X151932373Y-87551185D01*
X151916501Y-87671745D01*
X151916500Y-87671762D01*
X151916500Y-87898237D01*
X151916501Y-87898254D01*
X151932373Y-88018815D01*
X151932373Y-88051185D01*
X151916501Y-88171745D01*
X151916500Y-88171762D01*
X151916500Y-88398237D01*
X151916501Y-88398254D01*
X151932373Y-88518815D01*
X151932373Y-88551185D01*
X151916501Y-88671745D01*
X151916500Y-88671762D01*
X151916500Y-88898237D01*
X151916501Y-88898254D01*
X151932373Y-89018815D01*
X151932373Y-89051185D01*
X151916501Y-89171745D01*
X151916500Y-89171762D01*
X151916500Y-89398237D01*
X151916501Y-89398254D01*
X151932373Y-89518815D01*
X151932373Y-89551185D01*
X151916501Y-89671745D01*
X151916500Y-89671762D01*
X151916500Y-89898237D01*
X151916501Y-89898254D01*
X151932373Y-90018815D01*
X151932373Y-90051185D01*
X151916501Y-90171745D01*
X151916500Y-90171762D01*
X151916500Y-90398237D01*
X151916501Y-90398254D01*
X151932373Y-90518815D01*
X151932373Y-90551185D01*
X151916501Y-90671745D01*
X151916500Y-90671762D01*
X151916500Y-90898237D01*
X151916501Y-90898254D01*
X151932373Y-91018815D01*
X151932373Y-91051185D01*
X151916501Y-91171745D01*
X151916500Y-91171762D01*
X151916500Y-91398237D01*
X151916501Y-91398254D01*
X151932373Y-91518815D01*
X151932373Y-91551185D01*
X151916501Y-91671745D01*
X151916500Y-91671762D01*
X151916500Y-91898237D01*
X151916501Y-91898254D01*
X151932373Y-92018815D01*
X151932373Y-92051185D01*
X151916501Y-92171745D01*
X151916500Y-92171762D01*
X151916500Y-92398237D01*
X151916501Y-92398254D01*
X151932373Y-92518815D01*
X151932373Y-92551185D01*
X151916501Y-92671745D01*
X151916500Y-92671762D01*
X151916500Y-92898237D01*
X151916501Y-92898254D01*
X151932373Y-93018815D01*
X151932373Y-93051185D01*
X151916501Y-93171745D01*
X151916500Y-93171762D01*
X151916500Y-93398237D01*
X151916501Y-93398254D01*
X151932373Y-93518815D01*
X151932373Y-93551185D01*
X151916501Y-93671745D01*
X151916500Y-93671762D01*
X151916500Y-93898237D01*
X151916501Y-93898254D01*
X151932373Y-94018815D01*
X151932373Y-94051185D01*
X151916501Y-94171745D01*
X151916500Y-94171762D01*
X151916500Y-94398237D01*
X151916501Y-94398254D01*
X151932373Y-94518815D01*
X151932373Y-94551185D01*
X151916501Y-94671745D01*
X151916500Y-94671762D01*
X151916500Y-94898251D01*
X151931519Y-95012327D01*
X151932371Y-95015505D01*
X151932304Y-95018289D01*
X151932580Y-95020381D01*
X151932253Y-95020423D01*
X151930707Y-95085354D01*
X151891544Y-95143216D01*
X151827315Y-95170719D01*
X151780505Y-95167371D01*
X151777327Y-95166519D01*
X151663251Y-95151500D01*
X151663244Y-95151500D01*
X151436756Y-95151500D01*
X151436750Y-95151500D01*
X151436745Y-95151501D01*
X151316185Y-95167373D01*
X151283815Y-95167373D01*
X151163254Y-95151501D01*
X151163249Y-95151500D01*
X151163244Y-95151500D01*
X150936756Y-95151500D01*
X150936750Y-95151500D01*
X150936745Y-95151501D01*
X150816185Y-95167373D01*
X150783815Y-95167373D01*
X150663254Y-95151501D01*
X150663249Y-95151500D01*
X150663244Y-95151500D01*
X150436756Y-95151500D01*
X150436750Y-95151500D01*
X150436745Y-95151501D01*
X150316185Y-95167373D01*
X150283815Y-95167373D01*
X150163254Y-95151501D01*
X150163249Y-95151500D01*
X150163244Y-95151500D01*
X149936756Y-95151500D01*
X149936750Y-95151500D01*
X149936745Y-95151501D01*
X149816185Y-95167373D01*
X149783815Y-95167373D01*
X149663254Y-95151501D01*
X149663249Y-95151500D01*
X149663244Y-95151500D01*
X149436756Y-95151500D01*
X149436750Y-95151500D01*
X149436745Y-95151501D01*
X149316185Y-95167373D01*
X149283815Y-95167373D01*
X149163254Y-95151501D01*
X149163249Y-95151500D01*
X149163244Y-95151500D01*
X148936756Y-95151500D01*
X148936750Y-95151500D01*
X148936745Y-95151501D01*
X148816185Y-95167373D01*
X148783815Y-95167373D01*
X148663254Y-95151501D01*
X148663249Y-95151500D01*
X148663244Y-95151500D01*
X148436756Y-95151500D01*
X148436750Y-95151500D01*
X148436745Y-95151501D01*
X148316185Y-95167373D01*
X148283815Y-95167373D01*
X148163254Y-95151501D01*
X148163249Y-95151500D01*
X148163244Y-95151500D01*
X147936756Y-95151500D01*
X147936750Y-95151500D01*
X147936745Y-95151501D01*
X147816185Y-95167373D01*
X147783815Y-95167373D01*
X147663254Y-95151501D01*
X147663249Y-95151500D01*
X147663244Y-95151500D01*
X147436756Y-95151500D01*
X147436750Y-95151500D01*
X147436745Y-95151501D01*
X147316185Y-95167373D01*
X147283815Y-95167373D01*
X147163254Y-95151501D01*
X147163249Y-95151500D01*
X147163244Y-95151500D01*
X146936756Y-95151500D01*
X146936750Y-95151500D01*
X146936745Y-95151501D01*
X146816185Y-95167373D01*
X146783815Y-95167373D01*
X146663254Y-95151501D01*
X146663249Y-95151500D01*
X146663244Y-95151500D01*
X146436756Y-95151500D01*
X146436750Y-95151500D01*
X146436745Y-95151501D01*
X146316185Y-95167373D01*
X146283815Y-95167373D01*
X146163254Y-95151501D01*
X146163249Y-95151500D01*
X146163244Y-95151500D01*
X145936756Y-95151500D01*
X145936750Y-95151500D01*
X145936745Y-95151501D01*
X145816185Y-95167373D01*
X145783815Y-95167373D01*
X145663254Y-95151501D01*
X145663249Y-95151500D01*
X145663244Y-95151500D01*
X145436756Y-95151500D01*
X145436750Y-95151500D01*
X145436745Y-95151501D01*
X145316185Y-95167373D01*
X145283815Y-95167373D01*
X145163254Y-95151501D01*
X145163249Y-95151500D01*
X145163244Y-95151500D01*
X144936756Y-95151500D01*
X144936750Y-95151500D01*
X144936745Y-95151501D01*
X144816185Y-95167373D01*
X144783815Y-95167373D01*
X144663254Y-95151501D01*
X144663249Y-95151500D01*
X144663244Y-95151500D01*
X144436756Y-95151500D01*
X144436750Y-95151500D01*
X144436745Y-95151501D01*
X144316185Y-95167373D01*
X144283815Y-95167373D01*
X144163254Y-95151501D01*
X144163249Y-95151500D01*
X144163244Y-95151500D01*
X143936756Y-95151500D01*
X143936750Y-95151500D01*
X143936745Y-95151501D01*
X143816185Y-95167373D01*
X143783815Y-95167373D01*
X143663254Y-95151501D01*
X143663249Y-95151500D01*
X143663244Y-95151500D01*
X143436756Y-95151500D01*
X143436750Y-95151500D01*
X143436745Y-95151501D01*
X143316185Y-95167373D01*
X143283815Y-95167373D01*
X143163254Y-95151501D01*
X143163249Y-95151500D01*
X143163244Y-95151500D01*
X142936756Y-95151500D01*
X142936750Y-95151500D01*
X142936745Y-95151501D01*
X142816185Y-95167373D01*
X142783815Y-95167373D01*
X142663254Y-95151501D01*
X142663249Y-95151500D01*
X142663244Y-95151500D01*
X142436756Y-95151500D01*
X142436750Y-95151500D01*
X142436745Y-95151501D01*
X142316185Y-95167373D01*
X142283815Y-95167373D01*
X142163254Y-95151501D01*
X142163249Y-95151500D01*
X142163244Y-95151500D01*
X141936756Y-95151500D01*
X141936750Y-95151500D01*
X141936745Y-95151501D01*
X141816185Y-95167373D01*
X141783815Y-95167373D01*
X141663254Y-95151501D01*
X141663249Y-95151500D01*
X141663244Y-95151500D01*
X141436756Y-95151500D01*
X141436750Y-95151500D01*
X141436745Y-95151501D01*
X141316185Y-95167373D01*
X141283815Y-95167373D01*
X141163254Y-95151501D01*
X141163249Y-95151500D01*
X141163244Y-95151500D01*
X140936756Y-95151500D01*
X140936750Y-95151500D01*
X140936745Y-95151501D01*
X140816185Y-95167373D01*
X140783815Y-95167373D01*
X140663254Y-95151501D01*
X140663249Y-95151500D01*
X140663244Y-95151500D01*
X140436756Y-95151500D01*
X140436748Y-95151500D01*
X140322672Y-95166519D01*
X140314822Y-95168623D01*
X140314249Y-95166487D01*
X140263089Y-95173218D01*
X140200000Y-95164911D01*
X140193856Y-95170299D01*
X140180315Y-95216417D01*
X140151488Y-95247753D01*
X140125488Y-95267704D01*
X140060319Y-95292899D01*
X139991874Y-95278861D01*
X139974512Y-95267704D01*
X139948512Y-95247753D01*
X139907310Y-95191325D01*
X139903195Y-95167714D01*
X139899999Y-95164911D01*
X139836908Y-95173217D01*
X139785751Y-95166485D01*
X139785179Y-95168623D01*
X139777328Y-95166519D01*
X139663251Y-95151500D01*
X139663244Y-95151500D01*
X139436756Y-95151500D01*
X139436748Y-95151500D01*
X139322674Y-95166519D01*
X139319492Y-95167372D01*
X139316703Y-95167305D01*
X139314619Y-95167580D01*
X139314576Y-95167254D01*
X139249642Y-95165707D01*
X139191781Y-95126542D01*
X139164279Y-95062312D01*
X139167630Y-95015494D01*
X139168474Y-95012340D01*
X139168481Y-95012324D01*
X139183500Y-94898244D01*
X139183500Y-94671756D01*
X139168481Y-94557676D01*
X139168480Y-94557674D01*
X139167626Y-94551186D01*
X139167626Y-94518814D01*
X139168480Y-94512325D01*
X139168481Y-94512324D01*
X139183500Y-94398244D01*
X139183500Y-94171756D01*
X139168481Y-94057676D01*
X139168480Y-94057674D01*
X139167626Y-94051186D01*
X139167626Y-94018814D01*
X139168480Y-94012325D01*
X139168481Y-94012324D01*
X139183500Y-93898244D01*
X139183500Y-93671756D01*
X139168481Y-93557676D01*
X139168480Y-93557674D01*
X139167626Y-93551186D01*
X139167626Y-93518814D01*
X139168480Y-93512325D01*
X139168481Y-93512324D01*
X139183500Y-93398244D01*
X139183500Y-93171756D01*
X139168481Y-93057676D01*
X139168480Y-93057674D01*
X139167626Y-93051186D01*
X139167626Y-93018814D01*
X139168480Y-93012325D01*
X139168481Y-93012324D01*
X139183500Y-92898244D01*
X139183500Y-92671756D01*
X139168481Y-92557676D01*
X139168478Y-92557669D01*
X139166377Y-92549825D01*
X139168519Y-92549250D01*
X139161781Y-92498089D01*
X139170087Y-92434999D01*
X139164700Y-92428857D01*
X139118582Y-92415315D01*
X139087246Y-92386488D01*
X139067294Y-92360486D01*
X139042100Y-92295319D01*
X139056138Y-92226874D01*
X139067291Y-92209517D01*
X139087246Y-92183511D01*
X139143674Y-92142310D01*
X139167285Y-92138195D01*
X139170087Y-92135000D01*
X139161781Y-92071911D01*
X139168521Y-92020750D01*
X139166377Y-92020176D01*
X139168478Y-92012330D01*
X139168481Y-92012324D01*
X139183500Y-91898244D01*
X139183500Y-91671756D01*
X139168481Y-91557676D01*
X139168480Y-91557674D01*
X139167626Y-91551186D01*
X139167626Y-91518814D01*
X139168480Y-91512325D01*
X139168481Y-91512324D01*
X139183500Y-91398244D01*
X139183500Y-91171756D01*
X139168481Y-91057676D01*
X139168480Y-91057674D01*
X139167626Y-91051186D01*
X139167626Y-91018814D01*
X139168480Y-91012325D01*
X139168481Y-91012324D01*
X139183500Y-90898244D01*
X139183500Y-90671756D01*
X139168481Y-90557676D01*
X139168480Y-90557674D01*
X139167626Y-90551186D01*
X139167626Y-90518814D01*
X139168480Y-90512325D01*
X139168481Y-90512324D01*
X139183500Y-90398244D01*
X139183500Y-90171756D01*
X139168481Y-90057676D01*
X139168480Y-90057674D01*
X139167626Y-90051186D01*
X139167626Y-90018814D01*
X139168480Y-90012325D01*
X139168481Y-90012324D01*
X139183500Y-89898244D01*
X139183500Y-89671756D01*
X139168481Y-89557676D01*
X139168480Y-89557674D01*
X139167626Y-89551186D01*
X139167626Y-89518814D01*
X139168480Y-89512325D01*
X139168481Y-89512324D01*
X139183500Y-89398244D01*
X139183500Y-89171756D01*
X139168481Y-89057676D01*
X139168480Y-89057674D01*
X139167626Y-89051186D01*
X139167626Y-89018814D01*
X139168480Y-89012325D01*
X139168481Y-89012324D01*
X139183500Y-88898244D01*
X139183500Y-88671756D01*
X139168481Y-88557676D01*
X139168480Y-88557674D01*
X139167626Y-88551186D01*
X139167626Y-88518814D01*
X139168480Y-88512325D01*
X139168481Y-88512324D01*
X139183500Y-88398244D01*
X139183500Y-88171756D01*
X139168481Y-88057676D01*
X139168480Y-88057674D01*
X139167626Y-88051186D01*
X139167626Y-88018814D01*
X139168480Y-88012325D01*
X139168481Y-88012324D01*
X139183500Y-87898244D01*
X139183500Y-87671756D01*
X139168481Y-87557676D01*
X139168478Y-87557669D01*
X139166377Y-87549825D01*
X139168519Y-87549250D01*
X139161781Y-87498089D01*
X139170087Y-87434999D01*
X139164700Y-87428857D01*
X139118582Y-87415315D01*
X139087246Y-87386488D01*
X139067294Y-87360486D01*
X139042100Y-87295319D01*
X139056138Y-87226874D01*
X139067291Y-87209517D01*
X139087246Y-87183511D01*
X139143674Y-87142310D01*
X139167285Y-87138195D01*
X139170087Y-87135000D01*
X139161781Y-87071911D01*
X139168521Y-87020750D01*
X139166377Y-87020176D01*
X139168478Y-87012330D01*
X139168481Y-87012324D01*
X139183500Y-86898244D01*
X139183500Y-86671756D01*
X139168481Y-86557676D01*
X139168480Y-86557674D01*
X139167626Y-86551186D01*
X139167626Y-86518814D01*
X139168480Y-86512325D01*
X139168481Y-86512324D01*
X139183500Y-86398244D01*
X139183500Y-86171756D01*
X139168481Y-86057676D01*
X139168480Y-86057674D01*
X139167626Y-86051186D01*
X139167626Y-86018814D01*
X139168480Y-86012325D01*
X139168481Y-86012324D01*
X139183500Y-85898244D01*
X139183500Y-85671756D01*
X139168481Y-85557676D01*
X139168480Y-85557674D01*
X139167626Y-85551186D01*
X139167626Y-85518814D01*
X139168480Y-85512325D01*
X139168481Y-85512324D01*
X139183500Y-85398244D01*
X139183500Y-85171756D01*
X139168481Y-85057676D01*
X139168480Y-85057674D01*
X139167626Y-85051186D01*
X139167626Y-85018814D01*
X139168480Y-85012325D01*
X139168481Y-85012324D01*
X139183500Y-84898244D01*
X139183500Y-84671756D01*
X139168481Y-84557676D01*
X139168480Y-84557674D01*
X139167626Y-84551186D01*
X139167626Y-84518814D01*
X139168480Y-84512325D01*
X139168481Y-84512324D01*
X139183500Y-84398244D01*
X139183500Y-84171756D01*
X139168481Y-84057676D01*
X139168480Y-84057674D01*
X139167626Y-84051186D01*
X139167626Y-84018814D01*
X139168480Y-84012325D01*
X139168481Y-84012324D01*
X139183500Y-83898244D01*
X139183500Y-83671756D01*
X139168481Y-83557676D01*
X139168480Y-83557674D01*
X139167626Y-83551186D01*
X139167626Y-83518814D01*
X139168480Y-83512325D01*
X139168481Y-83512324D01*
X139183500Y-83398244D01*
X139183500Y-83171756D01*
X139168481Y-83057676D01*
X139168480Y-83057674D01*
X139167626Y-83051186D01*
X139167626Y-83018814D01*
X139168480Y-83012325D01*
X139168481Y-83012324D01*
X139183500Y-82898244D01*
X139183500Y-82671756D01*
X139168481Y-82557676D01*
X139168478Y-82557669D01*
X139167630Y-82554502D01*
X139167696Y-82551716D01*
X139167420Y-82549619D01*
X139167746Y-82549575D01*
X139169289Y-82484652D01*
X139208449Y-82426788D01*
X139272676Y-82399281D01*
X139319502Y-82402630D01*
X139322669Y-82403478D01*
X139322676Y-82403481D01*
X139436756Y-82418500D01*
X139436763Y-82418500D01*
X139663237Y-82418500D01*
X139663244Y-82418500D01*
X139777324Y-82403481D01*
X139777330Y-82403478D01*
X139785176Y-82401377D01*
X139785750Y-82403519D01*
X139836906Y-82396782D01*
X139899998Y-82405087D01*
X139906143Y-82399698D01*
X139919685Y-82353581D01*
X139948512Y-82322246D01*
X139974515Y-82302292D01*
X140039684Y-82277100D01*
X140108129Y-82291139D01*
G37*
G04 #@! TD.AperFunction*
G04 #@! TA.AperFunction,Conductor*
G36*
X134739465Y-92463185D02*
G01*
X134785220Y-92515989D01*
X134795164Y-92585147D01*
X134766139Y-92648703D01*
X134719879Y-92682061D01*
X134673086Y-92701443D01*
X134673076Y-92701448D01*
X134565232Y-92773508D01*
X134565226Y-92773513D01*
X134553555Y-92785184D01*
X134492231Y-92818667D01*
X134465877Y-92821500D01*
X134072796Y-92821500D01*
X134072780Y-92821501D01*
X133973184Y-92831676D01*
X133811810Y-92885150D01*
X133811805Y-92885152D01*
X133667111Y-92974401D01*
X133546901Y-93094611D01*
X133457652Y-93239305D01*
X133457650Y-93239310D01*
X133404175Y-93400689D01*
X133400857Y-93433166D01*
X133374459Y-93497857D01*
X133317277Y-93538008D01*
X133247466Y-93540869D01*
X133187190Y-93505534D01*
X133155587Y-93443220D01*
X133154141Y-93433160D01*
X133153977Y-93431556D01*
X133150824Y-93400686D01*
X133150015Y-93398244D01*
X133129794Y-93337220D01*
X133123500Y-93298216D01*
X133123500Y-93135520D01*
X133123499Y-93135517D01*
X133115362Y-93094611D01*
X133093665Y-92985529D01*
X133099892Y-92915938D01*
X133127598Y-92873660D01*
X133521441Y-92479819D01*
X133582764Y-92446334D01*
X133609122Y-92443500D01*
X134415143Y-92443500D01*
X134672426Y-92443500D01*
X134739465Y-92463185D01*
G37*
G04 #@! TD.AperFunction*
G04 #@! TA.AperFunction,Conductor*
G36*
X173089903Y-85404451D02*
G01*
X173096367Y-85410470D01*
X173675862Y-85989964D01*
X174315181Y-86629283D01*
X174348666Y-86690606D01*
X174351500Y-86716964D01*
X174351500Y-91403035D01*
X174331815Y-91470074D01*
X174315181Y-91490716D01*
X174037181Y-91768716D01*
X173975858Y-91802201D01*
X173906166Y-91797217D01*
X173850233Y-91755345D01*
X173825816Y-91689881D01*
X173825500Y-91681035D01*
X173825500Y-91604800D01*
X171174499Y-91604800D01*
X171159381Y-91619918D01*
X171098058Y-91653402D01*
X171028366Y-91648417D01*
X170984020Y-91619917D01*
X170432684Y-91068581D01*
X170399199Y-91007258D01*
X170404183Y-90937566D01*
X170432684Y-90893219D01*
X170511318Y-90814585D01*
X170615977Y-90709925D01*
X170677298Y-90676442D01*
X170746989Y-90681426D01*
X170777966Y-90698341D01*
X170829992Y-90737287D01*
X170829993Y-90737288D01*
X170829996Y-90737289D01*
X170966999Y-90788389D01*
X170994250Y-90791318D01*
X171027545Y-90794899D01*
X171027562Y-90794900D01*
X171050500Y-90794900D01*
X171117539Y-90814585D01*
X171163294Y-90867389D01*
X171174500Y-90918900D01*
X171174500Y-91104800D01*
X173825500Y-91104800D01*
X173825500Y-90583072D01*
X173825499Y-90583055D01*
X173819098Y-90523527D01*
X173819096Y-90523520D01*
X173768854Y-90388813D01*
X173768850Y-90388806D01*
X173682690Y-90273712D01*
X173682687Y-90273709D01*
X173567593Y-90187549D01*
X173567586Y-90187545D01*
X173432879Y-90137303D01*
X173432872Y-90137301D01*
X173373344Y-90130900D01*
X173008700Y-90130900D01*
X172941661Y-90111215D01*
X172895906Y-90058411D01*
X172884700Y-90006900D01*
X172884700Y-89537762D01*
X172884699Y-89537745D01*
X172878189Y-89477200D01*
X172878189Y-89477199D01*
X172860484Y-89429733D01*
X172855500Y-89360043D01*
X172860485Y-89343065D01*
X172861555Y-89340197D01*
X172878189Y-89295601D01*
X172880774Y-89271556D01*
X172884699Y-89235054D01*
X172884700Y-89235037D01*
X172884700Y-88437762D01*
X172884699Y-88437745D01*
X172878189Y-88377200D01*
X172878189Y-88377199D01*
X172860484Y-88329733D01*
X172855500Y-88260043D01*
X172860485Y-88243065D01*
X172863434Y-88235159D01*
X172878189Y-88195601D01*
X172880753Y-88171756D01*
X172884699Y-88135054D01*
X172884700Y-88135037D01*
X172884700Y-87337762D01*
X172884699Y-87337745D01*
X172878189Y-87277200D01*
X172874144Y-87266354D01*
X172855948Y-87217571D01*
X172850964Y-87147882D01*
X172855949Y-87130904D01*
X172869797Y-87093775D01*
X172869798Y-87093772D01*
X172876199Y-87034244D01*
X172876200Y-87034227D01*
X172876200Y-86886400D01*
X172508268Y-86886400D01*
X172493176Y-86884640D01*
X172493112Y-86885240D01*
X172424854Y-86877900D01*
X172424838Y-86877900D01*
X171027562Y-86877900D01*
X171027545Y-86877900D01*
X170959288Y-86885240D01*
X170959223Y-86884640D01*
X170944132Y-86886400D01*
X170576200Y-86886400D01*
X170576200Y-86978900D01*
X170556515Y-87045939D01*
X170503711Y-87091694D01*
X170452200Y-87102900D01*
X168698313Y-87102900D01*
X168631274Y-87083215D01*
X168585519Y-87030411D01*
X168575575Y-86961253D01*
X168604600Y-86897697D01*
X168610632Y-86891219D01*
X169332033Y-86169819D01*
X169393356Y-86136334D01*
X169419714Y-86133500D01*
X170452200Y-86133500D01*
X170519239Y-86153185D01*
X170564994Y-86205989D01*
X170576200Y-86257500D01*
X170576200Y-86386400D01*
X170944132Y-86386400D01*
X170959223Y-86388159D01*
X170959288Y-86387560D01*
X171027545Y-86394899D01*
X171027562Y-86394900D01*
X172424838Y-86394900D01*
X172424854Y-86394899D01*
X172493112Y-86387560D01*
X172493176Y-86388159D01*
X172508268Y-86386400D01*
X172876200Y-86386400D01*
X172876200Y-86238572D01*
X172876199Y-86238555D01*
X172869798Y-86179027D01*
X172869797Y-86179021D01*
X172855949Y-86141894D01*
X172850964Y-86072203D01*
X172855943Y-86055243D01*
X172878189Y-85995601D01*
X172881438Y-85965381D01*
X172884699Y-85935054D01*
X172884700Y-85935037D01*
X172884700Y-85498164D01*
X172904385Y-85431125D01*
X172957189Y-85385370D01*
X173026347Y-85375426D01*
X173089903Y-85404451D01*
G37*
G04 #@! TD.AperFunction*
G04 #@! TA.AperFunction,Conductor*
G36*
X135669053Y-86617267D02*
G01*
X135690403Y-86629894D01*
X135725188Y-86640000D01*
X135847741Y-86675605D01*
X135847744Y-86675605D01*
X135847746Y-86675606D01*
X135884516Y-86678500D01*
X135884522Y-86678500D01*
X136246000Y-86678500D01*
X136313039Y-86698185D01*
X136358794Y-86750989D01*
X136370000Y-86802500D01*
X136370000Y-86976000D01*
X136350315Y-87043039D01*
X136297511Y-87088794D01*
X136246000Y-87100000D01*
X134802500Y-87100000D01*
X134735461Y-87080315D01*
X134689706Y-87027511D01*
X134678500Y-86976000D01*
X134678500Y-86802500D01*
X134698185Y-86735461D01*
X134750989Y-86689706D01*
X134802500Y-86678500D01*
X135115478Y-86678500D01*
X135115484Y-86678500D01*
X135152254Y-86675606D01*
X135152256Y-86675605D01*
X135152258Y-86675605D01*
X135193746Y-86663551D01*
X135309597Y-86629894D01*
X135330946Y-86617267D01*
X135394067Y-86600000D01*
X135605933Y-86600000D01*
X135669053Y-86617267D01*
G37*
G04 #@! TD.AperFunction*
G04 #@! TA.AperFunction,Conductor*
G36*
X159211809Y-82428185D02*
G01*
X159257564Y-82480989D01*
X159267508Y-82550147D01*
X159250308Y-82597598D01*
X159158455Y-82746511D01*
X159158452Y-82746518D01*
X159105144Y-82907393D01*
X159095000Y-83006677D01*
X159095000Y-83030000D01*
X161065560Y-83030000D01*
X161081590Y-83021247D01*
X161151282Y-83026231D01*
X161195629Y-83054732D01*
X161642089Y-83501192D01*
X161675574Y-83562515D01*
X161677899Y-83577654D01*
X161682985Y-83633644D01*
X161682988Y-83633655D01*
X161734171Y-83797909D01*
X161734172Y-83797911D01*
X161734173Y-83797913D01*
X161799068Y-83905262D01*
X161823186Y-83945158D01*
X161944841Y-84066813D01*
X161944843Y-84066814D01*
X161944845Y-84066816D01*
X162092087Y-84155827D01*
X162256351Y-84207013D01*
X162327735Y-84213500D01*
X162992264Y-84213499D01*
X162992272Y-84213499D01*
X163044180Y-84208781D01*
X163063649Y-84207013D01*
X163117990Y-84190080D01*
X163137137Y-84184114D01*
X163174026Y-84178500D01*
X164607838Y-84178500D01*
X164644727Y-84184114D01*
X164766351Y-84222013D01*
X164837735Y-84228500D01*
X164953855Y-84228499D01*
X165001311Y-84237938D01*
X165019584Y-84245508D01*
X165019588Y-84245508D01*
X165019589Y-84245509D01*
X165185440Y-84278499D01*
X165185443Y-84278500D01*
X165185445Y-84278500D01*
X165354555Y-84278500D01*
X166754140Y-84278500D01*
X166821179Y-84298185D01*
X166857241Y-84333608D01*
X166903362Y-84402633D01*
X166920613Y-84428452D01*
X166923158Y-84432260D01*
X166923161Y-84432264D01*
X166985716Y-84494819D01*
X167019201Y-84556142D01*
X167014217Y-84625834D01*
X166972345Y-84681767D01*
X166906881Y-84706184D01*
X166898035Y-84706500D01*
X165744253Y-84706500D01*
X165707365Y-84700886D01*
X165553649Y-84652987D01*
X165553647Y-84652986D01*
X165553645Y-84652986D01*
X165503667Y-84648444D01*
X165482265Y-84646500D01*
X165482262Y-84646500D01*
X164817727Y-84646500D01*
X164746354Y-84652985D01*
X164746344Y-84652988D01*
X164582090Y-84704171D01*
X164434841Y-84793186D01*
X164313186Y-84914841D01*
X164224173Y-85062086D01*
X164172986Y-85226354D01*
X164166500Y-85297737D01*
X164166500Y-85812272D01*
X164172985Y-85883645D01*
X164172988Y-85883655D01*
X164224171Y-86047909D01*
X164224172Y-86047911D01*
X164224173Y-86047913D01*
X164300088Y-86173491D01*
X164313186Y-86195158D01*
X164410347Y-86292319D01*
X164443832Y-86353642D01*
X164438848Y-86423334D01*
X164410347Y-86467681D01*
X164313187Y-86564840D01*
X164313186Y-86564841D01*
X164266248Y-86642486D01*
X164235720Y-86692987D01*
X164224169Y-86712094D01*
X164223150Y-86714358D01*
X164221964Y-86715741D01*
X164220293Y-86718506D01*
X164219833Y-86718227D01*
X164177681Y-86767409D01*
X164110749Y-86787455D01*
X164043604Y-86768133D01*
X164022398Y-86751138D01*
X163311916Y-86040655D01*
X163278431Y-85979332D01*
X163278095Y-85940336D01*
X163276419Y-85940184D01*
X163277013Y-85933649D01*
X163283500Y-85862265D01*
X163283499Y-85347736D01*
X163283499Y-85347727D01*
X163277014Y-85276354D01*
X163277011Y-85276344D01*
X163225828Y-85112090D01*
X163225827Y-85112089D01*
X163225827Y-85112087D01*
X163136816Y-84964845D01*
X163136814Y-84964843D01*
X163136813Y-84964841D01*
X163015158Y-84843186D01*
X162951481Y-84804692D01*
X162867913Y-84754173D01*
X162703649Y-84702987D01*
X162703647Y-84702986D01*
X162703645Y-84702986D01*
X162653667Y-84698444D01*
X162632265Y-84696500D01*
X162632262Y-84696500D01*
X161967727Y-84696500D01*
X161896354Y-84702985D01*
X161896344Y-84702988D01*
X161732090Y-84754171D01*
X161584841Y-84843186D01*
X161463186Y-84964841D01*
X161447977Y-84990000D01*
X161403559Y-85063478D01*
X161401641Y-85066650D01*
X161350113Y-85113838D01*
X161295524Y-85126500D01*
X157848766Y-85126500D01*
X157781727Y-85106815D01*
X157735972Y-85054011D01*
X157726028Y-84984853D01*
X157755053Y-84921297D01*
X157761085Y-84914819D01*
X158382063Y-84293841D01*
X158382066Y-84293838D01*
X158451395Y-84190080D01*
X158499150Y-84074790D01*
X158523495Y-83952399D01*
X158523495Y-83885717D01*
X158543180Y-83818678D01*
X158555341Y-83802749D01*
X158629035Y-83720905D01*
X158724522Y-83555517D01*
X158732813Y-83530000D01*
X159095001Y-83530000D01*
X159095001Y-83553322D01*
X159105144Y-83652607D01*
X159158452Y-83813481D01*
X159158457Y-83813492D01*
X159247424Y-83957728D01*
X159247427Y-83957732D01*
X159367267Y-84077572D01*
X159367271Y-84077575D01*
X159511507Y-84166542D01*
X159511518Y-84166547D01*
X159672393Y-84219855D01*
X159771683Y-84229999D01*
X159819999Y-84229998D01*
X159820000Y-84229998D01*
X159820000Y-83530000D01*
X160320000Y-83530000D01*
X160320000Y-84229999D01*
X160368308Y-84229999D01*
X160368322Y-84229998D01*
X160467607Y-84219855D01*
X160628481Y-84166547D01*
X160628492Y-84166542D01*
X160772728Y-84077575D01*
X160772732Y-84077572D01*
X160892572Y-83957732D01*
X160892575Y-83957728D01*
X160981542Y-83813492D01*
X160981547Y-83813481D01*
X161034855Y-83652606D01*
X161044999Y-83553322D01*
X161045000Y-83553309D01*
X161045000Y-83530000D01*
X160320000Y-83530000D01*
X159820000Y-83530000D01*
X159095001Y-83530000D01*
X158732813Y-83530000D01*
X158783537Y-83373889D01*
X158803499Y-83183961D01*
X158783537Y-82994033D01*
X158724522Y-82812405D01*
X158629035Y-82647017D01*
X158600632Y-82615472D01*
X158570402Y-82552480D01*
X158579028Y-82483145D01*
X158623769Y-82429480D01*
X158690422Y-82408522D01*
X158692782Y-82408500D01*
X159144770Y-82408500D01*
X159211809Y-82428185D01*
G37*
G04 #@! TD.AperFunction*
G04 #@! TA.AperFunction,Conductor*
G36*
X139873703Y-78459867D02*
G01*
X139910431Y-78515262D01*
X139925470Y-78561550D01*
X139925473Y-78561556D01*
X140020959Y-78726943D01*
X140058149Y-78768246D01*
X140088379Y-78831238D01*
X140090000Y-78851219D01*
X140090000Y-78909120D01*
X140070315Y-78976159D01*
X140017511Y-79021914D01*
X139966000Y-79033120D01*
X139792500Y-79033120D01*
X139725461Y-79013435D01*
X139679706Y-78960631D01*
X139668500Y-78909120D01*
X139668500Y-78553580D01*
X139688185Y-78486541D01*
X139740989Y-78440786D01*
X139810147Y-78430842D01*
X139873703Y-78459867D01*
G37*
G04 #@! TD.AperFunction*
G04 #@! TA.AperFunction,Conductor*
G36*
X139913382Y-75638185D02*
G01*
X139953730Y-75680500D01*
X140020958Y-75796942D01*
X140132831Y-75921189D01*
X140148747Y-75938866D01*
X140303248Y-76051118D01*
X140477712Y-76128794D01*
X140664513Y-76168500D01*
X140727500Y-76168500D01*
X140794539Y-76188185D01*
X140840294Y-76240989D01*
X140851500Y-76292500D01*
X140851500Y-77157500D01*
X140831815Y-77224539D01*
X140779011Y-77270294D01*
X140727500Y-77281500D01*
X140727473Y-77281500D01*
X140660434Y-77261815D01*
X140614679Y-77209011D01*
X140608396Y-77192094D01*
X140572031Y-77066924D01*
X140489721Y-76927745D01*
X140489714Y-76927736D01*
X140375383Y-76813405D01*
X140375374Y-76813398D01*
X140236193Y-76731087D01*
X140236190Y-76731085D01*
X140090001Y-76688613D01*
X140090000Y-76688614D01*
X140090000Y-77528780D01*
X140070315Y-77595819D01*
X140058150Y-77611752D01*
X140020959Y-77653057D01*
X139925473Y-77818443D01*
X139925470Y-77818450D01*
X139866459Y-78000068D01*
X139866458Y-78000072D01*
X139846496Y-78190000D01*
X139854804Y-78269051D01*
X139857186Y-78291707D01*
X139844616Y-78360436D01*
X139796884Y-78411460D01*
X139729144Y-78428578D01*
X139662903Y-78406355D01*
X139624784Y-78359693D01*
X139623865Y-78360237D01*
X139620288Y-78354189D01*
X139620062Y-78353912D01*
X139619891Y-78353517D01*
X139607267Y-78332170D01*
X139590000Y-78269051D01*
X139590000Y-78007187D01*
X139607268Y-77944066D01*
X139619894Y-77922717D01*
X139665606Y-77765374D01*
X139668500Y-77728604D01*
X139668500Y-77257636D01*
X139665606Y-77220866D01*
X139659499Y-77199847D01*
X139619895Y-77063527D01*
X139619894Y-77063523D01*
X139619892Y-77063519D01*
X139619891Y-77063517D01*
X139607267Y-77042170D01*
X139590000Y-76979051D01*
X139590000Y-76688614D01*
X139589998Y-76688613D01*
X139443809Y-76731085D01*
X139443806Y-76731087D01*
X139431466Y-76738385D01*
X139363742Y-76755565D01*
X139305229Y-76738384D01*
X139279599Y-76723227D01*
X139279592Y-76723224D01*
X139122258Y-76677514D01*
X139122252Y-76677513D01*
X139085489Y-76674620D01*
X139085484Y-76674620D01*
X139008766Y-76674620D01*
X138941727Y-76654935D01*
X138921085Y-76638301D01*
X138112965Y-75830181D01*
X138079480Y-75768858D01*
X138084464Y-75699166D01*
X138126336Y-75643233D01*
X138191800Y-75618816D01*
X138200646Y-75618500D01*
X139846343Y-75618500D01*
X139913382Y-75638185D01*
G37*
G04 #@! TD.AperFunction*
G04 #@! TA.AperFunction,Conductor*
G36*
X147840000Y-76130000D02*
G01*
X148487828Y-76130000D01*
X148487844Y-76129999D01*
X148547372Y-76123598D01*
X148547379Y-76123596D01*
X148682086Y-76073354D01*
X148682093Y-76073350D01*
X148797187Y-75987190D01*
X148797190Y-75987187D01*
X148883350Y-75872093D01*
X148883354Y-75872086D01*
X148929681Y-75747877D01*
X148971552Y-75691943D01*
X149037016Y-75667526D01*
X149105289Y-75682377D01*
X149137089Y-75707223D01*
X149206760Y-75782906D01*
X149384424Y-75921189D01*
X149384425Y-75921189D01*
X149384427Y-75921191D01*
X149513316Y-75990942D01*
X149562907Y-76040162D01*
X149578015Y-76108378D01*
X149553845Y-76173934D01*
X149523190Y-76203099D01*
X149426167Y-76267927D01*
X149426163Y-76267930D01*
X148748915Y-76945181D01*
X148687592Y-76978666D01*
X148661234Y-76981500D01*
X147217309Y-76981500D01*
X147150270Y-76961815D01*
X147125160Y-76940473D01*
X147121254Y-76936135D01*
X147109707Y-76927745D01*
X146966752Y-76823882D01*
X146792288Y-76746206D01*
X146792286Y-76746205D01*
X146605487Y-76706500D01*
X146467500Y-76706500D01*
X146400461Y-76686815D01*
X146354706Y-76634011D01*
X146343500Y-76582500D01*
X146343500Y-76194355D01*
X146363185Y-76127316D01*
X146415989Y-76081561D01*
X146485147Y-76071617D01*
X146510833Y-76078173D01*
X146632620Y-76123596D01*
X146632627Y-76123598D01*
X146692155Y-76129999D01*
X146692172Y-76130000D01*
X147340000Y-76130000D01*
X147340000Y-75213012D01*
X147397007Y-75245925D01*
X147524174Y-75280000D01*
X147655826Y-75280000D01*
X147782993Y-75245925D01*
X147840000Y-75213012D01*
X147840000Y-76130000D01*
G37*
G04 #@! TD.AperFunction*
M02*
