M48
; DRILL file {KiCad 8.0.1} date 2024-07-25T10:54:34+0200
; FORMAT={-:-/ absolute / inch / decimal}
; #@! TF.CreationDate,2024-07-25T10:54:34+02:00
; #@! TF.GenerationSoftware,Kicad,Pcbnew,8.0.1
; #@! TF.FileFunction,Plated,1,2,PTH
FMAT,2
INCH
; #@! TA.AperFunction,Plated,PTH,ViaDrill
T1C0.0157
; #@! TA.AperFunction,Plated,PTH,ComponentDrill
T2C0.0394
; #@! TA.AperFunction,Plated,PTH,ComponentDrill
T3C0.1260
%
G90
G05
T1
X4.4469Y-3.8413
X4.6173Y-3.7472
X4.8063Y-4.5142
X4.837Y-4.011
X4.8516Y-3.5
X4.8524Y-3.3461
X4.8921Y-4.1768
X4.9244Y-3.6638
X5.0043Y-3.6736
X5.0535Y-3.8949
X5.0543Y-4.124
X5.1429Y-3.6579
X5.1673Y-3.7425
X5.1713Y-2.8398
X5.2508Y-3.8791
X5.2811Y-3.276
X5.2991Y-3.5863
X5.3132Y-3.4707
X5.3469Y-3.5841
X5.3583Y-3.0374
X5.4622Y-3.9626
X5.4898Y-3.4354
X5.5055Y-3.0087
X5.5315Y-4.1016
X5.5417Y-2.963
X5.5417Y-3.0783
X5.5449Y-2.8488
X5.6008Y-3.0181
X5.6199Y-2.9236
X5.624Y-4.2835
X5.6801Y-3.0272
X5.6856Y-4.0302
X5.7043Y-3.1047
X5.7354Y-4.2037
X5.7381Y-3.0843
X5.7681Y-3.0557
X5.7865Y-4.014
X5.8307Y-3.9207
X5.8313Y-4.0714
X5.8701Y-3.9207
X5.8701Y-4.0646
X5.9051Y-3.9492
X5.9051Y-4.0406
X5.9638Y-3.2776
X6.0307Y-4.2551
X6.1043Y-4.2661
X6.1365Y-3.1639
X6.1484Y-4.2705
X6.1815Y-3.4453
X6.1878Y-4.271
X6.212Y-3.4738
X6.2161Y-3.275
X6.222Y-3.5976
X6.2512Y-3.5232
X6.2596Y-3.5626
X6.302Y-3.3248
X6.3272Y-3.474
X6.4169Y-3.4807
X6.5281Y-3.514
X6.5484Y-3.4299
X6.5496Y-3.1008
X6.55Y-3.0161
X6.6024Y-3.8236
X6.7913Y-2.9311
X6.826Y-3.4094
X6.8484Y-3.5996
X6.865Y-4.0008
X6.9268Y-3.922
X7.089Y-3.5972
T2
X4.378Y-3.2417
X4.378Y-3.3417
X4.378Y-3.4417
X4.378Y-3.5417
X4.378Y-3.6417
X4.378Y-3.7417
X4.378Y-3.8417
X4.763Y-3.1941
X4.9461Y-3.1941
X5.1717Y-3.0421
X5.2717Y-3.0421
X5.8106Y-2.9441
X5.9106Y-2.9441
X6.0106Y-2.9441
X6.1106Y-2.9441
X6.2106Y-2.9441
T3
X4.376Y-2.7693
X4.3764Y-4.3189
X7.0547Y-2.774
X7.0591Y-4.3224
M30
