G04 #@! TF.GenerationSoftware,KiCad,Pcbnew,8.0.1*
G04 #@! TF.CreationDate,2024-07-25T10:54:29+02:00*
G04 #@! TF.ProjectId,licznik,6c69637a-6e69-46b2-9e6b-696361645f70,rev?*
G04 #@! TF.SameCoordinates,Original*
G04 #@! TF.FileFunction,Legend,Bot*
G04 #@! TF.FilePolarity,Positive*
%FSLAX46Y46*%
G04 Gerber Fmt 4.6, Leading zero omitted, Abs format (unit mm)*
G04 Created by KiCad (PCBNEW 8.0.1) date 2024-07-25 10:54:29*
%MOMM*%
%LPD*%
G01*
G04 APERTURE LIST*
%ADD10C,0.150000*%
%ADD11C,0.120000*%
%ADD12C,0.127000*%
%ADD13C,0.200000*%
G04 APERTURE END LIST*
D10*
X130661133Y-75540419D02*
X130661133Y-74540419D01*
X130661133Y-74540419D02*
X131042085Y-74540419D01*
X131042085Y-74540419D02*
X131137323Y-74588038D01*
X131137323Y-74588038D02*
X131184942Y-74635657D01*
X131184942Y-74635657D02*
X131232561Y-74730895D01*
X131232561Y-74730895D02*
X131232561Y-74873752D01*
X131232561Y-74873752D02*
X131184942Y-74968990D01*
X131184942Y-74968990D02*
X131137323Y-75016609D01*
X131137323Y-75016609D02*
X131042085Y-75064228D01*
X131042085Y-75064228D02*
X130661133Y-75064228D01*
X131994466Y-75016609D02*
X132137323Y-75064228D01*
X132137323Y-75064228D02*
X132184942Y-75111847D01*
X132184942Y-75111847D02*
X132232561Y-75207085D01*
X132232561Y-75207085D02*
X132232561Y-75349942D01*
X132232561Y-75349942D02*
X132184942Y-75445180D01*
X132184942Y-75445180D02*
X132137323Y-75492800D01*
X132137323Y-75492800D02*
X132042085Y-75540419D01*
X132042085Y-75540419D02*
X131661133Y-75540419D01*
X131661133Y-75540419D02*
X131661133Y-74540419D01*
X131661133Y-74540419D02*
X131994466Y-74540419D01*
X131994466Y-74540419D02*
X132089704Y-74588038D01*
X132089704Y-74588038D02*
X132137323Y-74635657D01*
X132137323Y-74635657D02*
X132184942Y-74730895D01*
X132184942Y-74730895D02*
X132184942Y-74826133D01*
X132184942Y-74826133D02*
X132137323Y-74921371D01*
X132137323Y-74921371D02*
X132089704Y-74968990D01*
X132089704Y-74968990D02*
X131994466Y-75016609D01*
X131994466Y-75016609D02*
X131661133Y-75016609D01*
X132423038Y-75635657D02*
X133184942Y-75635657D01*
X133423038Y-74540419D02*
X133423038Y-75349942D01*
X133423038Y-75349942D02*
X133470657Y-75445180D01*
X133470657Y-75445180D02*
X133518276Y-75492800D01*
X133518276Y-75492800D02*
X133613514Y-75540419D01*
X133613514Y-75540419D02*
X133803990Y-75540419D01*
X133803990Y-75540419D02*
X133899228Y-75492800D01*
X133899228Y-75492800D02*
X133946847Y-75445180D01*
X133946847Y-75445180D02*
X133994466Y-75349942D01*
X133994466Y-75349942D02*
X133994466Y-74540419D01*
X134470657Y-75540419D02*
X134470657Y-74540419D01*
X134470657Y-74540419D02*
X134851609Y-74540419D01*
X134851609Y-74540419D02*
X134946847Y-74588038D01*
X134946847Y-74588038D02*
X134994466Y-74635657D01*
X134994466Y-74635657D02*
X135042085Y-74730895D01*
X135042085Y-74730895D02*
X135042085Y-74873752D01*
X135042085Y-74873752D02*
X134994466Y-74968990D01*
X134994466Y-74968990D02*
X134946847Y-75016609D01*
X134946847Y-75016609D02*
X134851609Y-75064228D01*
X134851609Y-75064228D02*
X134470657Y-75064228D01*
X181344819Y-100276666D02*
X182059104Y-100276666D01*
X182059104Y-100276666D02*
X182201961Y-100229047D01*
X182201961Y-100229047D02*
X182297200Y-100133809D01*
X182297200Y-100133809D02*
X182344819Y-99990952D01*
X182344819Y-99990952D02*
X182344819Y-99895714D01*
X181344819Y-101181428D02*
X181344819Y-100990952D01*
X181344819Y-100990952D02*
X181392438Y-100895714D01*
X181392438Y-100895714D02*
X181440057Y-100848095D01*
X181440057Y-100848095D02*
X181582914Y-100752857D01*
X181582914Y-100752857D02*
X181773390Y-100705238D01*
X181773390Y-100705238D02*
X182154342Y-100705238D01*
X182154342Y-100705238D02*
X182249580Y-100752857D01*
X182249580Y-100752857D02*
X182297200Y-100800476D01*
X182297200Y-100800476D02*
X182344819Y-100895714D01*
X182344819Y-100895714D02*
X182344819Y-101086190D01*
X182344819Y-101086190D02*
X182297200Y-101181428D01*
X182297200Y-101181428D02*
X182249580Y-101229047D01*
X182249580Y-101229047D02*
X182154342Y-101276666D01*
X182154342Y-101276666D02*
X181916247Y-101276666D01*
X181916247Y-101276666D02*
X181821009Y-101229047D01*
X181821009Y-101229047D02*
X181773390Y-101181428D01*
X181773390Y-101181428D02*
X181725771Y-101086190D01*
X181725771Y-101086190D02*
X181725771Y-100895714D01*
X181725771Y-100895714D02*
X181773390Y-100800476D01*
X181773390Y-100800476D02*
X181821009Y-100752857D01*
X181821009Y-100752857D02*
X181916247Y-100705238D01*
X155328333Y-114169819D02*
X155328333Y-114884104D01*
X155328333Y-114884104D02*
X155375952Y-115026961D01*
X155375952Y-115026961D02*
X155471190Y-115122200D01*
X155471190Y-115122200D02*
X155614047Y-115169819D01*
X155614047Y-115169819D02*
X155709285Y-115169819D01*
X154375952Y-114169819D02*
X154852142Y-114169819D01*
X154852142Y-114169819D02*
X154899761Y-114646009D01*
X154899761Y-114646009D02*
X154852142Y-114598390D01*
X154852142Y-114598390D02*
X154756904Y-114550771D01*
X154756904Y-114550771D02*
X154518809Y-114550771D01*
X154518809Y-114550771D02*
X154423571Y-114598390D01*
X154423571Y-114598390D02*
X154375952Y-114646009D01*
X154375952Y-114646009D02*
X154328333Y-114741247D01*
X154328333Y-114741247D02*
X154328333Y-114979342D01*
X154328333Y-114979342D02*
X154375952Y-115074580D01*
X154375952Y-115074580D02*
X154423571Y-115122200D01*
X154423571Y-115122200D02*
X154518809Y-115169819D01*
X154518809Y-115169819D02*
X154756904Y-115169819D01*
X154756904Y-115169819D02*
X154852142Y-115122200D01*
X154852142Y-115122200D02*
X154899761Y-115074580D01*
D11*
X171580000Y-98270000D02*
X171580000Y-102950000D01*
X177800000Y-97570000D02*
X179400000Y-97570000D01*
X177800000Y-98850000D02*
X177800000Y-97570000D01*
X177800000Y-102370000D02*
X177800000Y-103650000D01*
X177800000Y-103650000D02*
X179400000Y-103650000D01*
X179400000Y-96550000D02*
X175150000Y-96550000D01*
X179400000Y-97570000D02*
X179400000Y-96550000D01*
X179400000Y-103650000D02*
X179400000Y-104670000D01*
X179400000Y-104670000D02*
X175150000Y-104670000D01*
X180690000Y-102370000D02*
X177800000Y-102370000D01*
D12*
X152630000Y-109855000D02*
X152630000Y-107525000D01*
X153510000Y-109855000D02*
X152630000Y-109855000D01*
X157510000Y-105605000D02*
X153750000Y-105605000D01*
X158630000Y-107525000D02*
X158630000Y-109855000D01*
X158630000Y-109855000D02*
X157750000Y-109855000D01*
D13*
X154230000Y-111480000D02*
G75*
G02*
X154030000Y-111480000I-100000J0D01*
G01*
X154030000Y-111480000D02*
G75*
G02*
X154230000Y-111480000I100000J0D01*
G01*
M02*
