M48
; DRILL file {KiCad (5.1.5)-3} date 2020-08-27 07:54:01
; FORMAT={-:-/ absolute / inch / decimal}
; #@! TF.CreationDate,2020-08-27T07:54:01+02:00
; #@! TF.GenerationSoftware,Kicad,Pcbnew,(5.1.5)-3
FMAT,2
INCH
T1C0.0157
T2C0.0394
T3C0.0433
T4C0.0984
%
G90
G05
T1
X3.5768Y-2.9606
X3.6122Y-2.7205
X4.1634Y-3.3366
X4.2717Y-3.1841
X4.4065Y-3.2146
X4.6339Y-3.0856
X4.7913Y-3.1831
X4.7992Y-3.1073
X4.8622Y-3.8671
X4.8711Y-3.1467
X4.8845Y-2.8376
X4.9075Y-3.1831
X4.9204Y-2.8181
X4.9636Y-2.8012
X4.9774Y-3.8012
X5.0089Y-3.8514
X5.1181Y-3.7992
X5.1949Y-3.2136
X5.3435Y-2.6722
X5.3573Y-3.5541
X5.3976Y-2.8465
X5.4147Y-2.9181
X5.4409Y-2.8888
X5.4459Y-3.5551
X5.5354Y-3.7392
X5.5374Y-2.8317
X5.564Y-2.9065
X5.6309Y-2.623
X5.6447Y-3.7037
X5.69Y-3.4951
X5.7165Y-3.0246
X5.7195Y-2.7972
X5.7982Y-2.9528
X5.8002Y-3.498
X5.8878Y-3.6841
X5.8976Y-3.0886
X5.8996Y-3.1407
X5.9951Y-3.003
X5.9961Y-2.8297
X5.9961Y-2.9163
X5.997Y-2.7864
T2
X3.7787Y-4.1102
X3.8787Y-4.1102
X3.9787Y-4.1102
X4.0787Y-4.1102
X6.2894Y-3.2726
X6.2894Y-3.3726
X6.2894Y-3.4726
X6.2894Y-3.5726
X6.2894Y-3.6726
X5.3114Y-4.1073
X5.4114Y-4.1073
X4.7874Y-3.5236
X4.7874Y-3.6236
X4.7874Y-3.7236
X4.7874Y-3.8236
X4.7874Y-3.9236
X4.7874Y-4.0236
X4.7874Y-4.1236
X5.1811Y-3.622
X5.1811Y-3.722
X5.1811Y-3.822
X5.1811Y-3.922
X5.1811Y-4.022
X5.6461Y-4.1073
X5.7461Y-4.1073
X3.6083Y-3.0476
X3.6083Y-3.1476
X3.6083Y-3.2476
X3.6083Y-3.3476
X3.6083Y-3.4476
X3.6083Y-3.5476
X3.6083Y-3.6476
X5.0894Y-2.5354
X5.1894Y-2.5354
X5.2894Y-2.5354
X5.5911Y-3.9459
X5.6911Y-3.9459
X5.7911Y-3.9459
X5.8911Y-3.9459
X5.9911Y-3.9459
X5.6565Y-3.3858
X5.7565Y-3.3858
X5.8565Y-3.3858
X5.9774Y-4.1073
X6.0774Y-4.1073
T3
X4.3917Y-3.2913
X4.3917Y-3.5472
X4.5689Y-3.2913
X4.5689Y-3.5472
T4
X3.6083Y-2.5453
X3.6083Y-4.1201
X6.2854Y-2.5453
X6.2854Y-4.1201
T0
M30
