G04 #@! TF.GenerationSoftware,KiCad,Pcbnew,(5.1.5)-3*
G04 #@! TF.CreationDate,2020-08-27T07:53:39+02:00*
G04 #@! TF.ProjectId,licznik,6c69637a-6e69-46b2-9e6b-696361645f70,rev?*
G04 #@! TF.SameCoordinates,Original*
G04 #@! TF.FileFunction,Soldermask,Bot*
G04 #@! TF.FilePolarity,Negative*
%FSLAX46Y46*%
G04 Gerber Fmt 4.6, Leading zero omitted, Abs format (unit mm)*
G04 Created by KiCad (PCBNEW (5.1.5)-3) date 2020-08-27 07:53:39*
%MOMM*%
%LPD*%
G04 APERTURE LIST*
%ADD10C,0.100000*%
G04 APERTURE END LIST*
D10*
G36*
X159952585Y-103128802D02*
G01*
X160102410Y-103158604D01*
X160384674Y-103275521D01*
X160638705Y-103445259D01*
X160854741Y-103661295D01*
X161024479Y-103915326D01*
X161141396Y-104197590D01*
X161149088Y-104236259D01*
X161201000Y-104497239D01*
X161201000Y-104802761D01*
X161181786Y-104899354D01*
X161141396Y-105102410D01*
X161024479Y-105384674D01*
X160854741Y-105638705D01*
X160638705Y-105854741D01*
X160384674Y-106024479D01*
X160102410Y-106141396D01*
X159952585Y-106171198D01*
X159802761Y-106201000D01*
X159497239Y-106201000D01*
X159347415Y-106171198D01*
X159197590Y-106141396D01*
X158915326Y-106024479D01*
X158661295Y-105854741D01*
X158445259Y-105638705D01*
X158275521Y-105384674D01*
X158158604Y-105102410D01*
X158118214Y-104899354D01*
X158099000Y-104802761D01*
X158099000Y-104497239D01*
X158150912Y-104236259D01*
X158158604Y-104197590D01*
X158275521Y-103915326D01*
X158445259Y-103661295D01*
X158661295Y-103445259D01*
X158915326Y-103275521D01*
X159197590Y-103158604D01*
X159347415Y-103128802D01*
X159497239Y-103099000D01*
X159802761Y-103099000D01*
X159952585Y-103128802D01*
G37*
G36*
X91952585Y-103128802D02*
G01*
X92102410Y-103158604D01*
X92384674Y-103275521D01*
X92638705Y-103445259D01*
X92854741Y-103661295D01*
X93024479Y-103915326D01*
X93141396Y-104197590D01*
X93149088Y-104236259D01*
X93201000Y-104497239D01*
X93201000Y-104802761D01*
X93181786Y-104899354D01*
X93141396Y-105102410D01*
X93024479Y-105384674D01*
X92854741Y-105638705D01*
X92638705Y-105854741D01*
X92384674Y-106024479D01*
X92102410Y-106141396D01*
X91952585Y-106171198D01*
X91802761Y-106201000D01*
X91497239Y-106201000D01*
X91347415Y-106171198D01*
X91197590Y-106141396D01*
X90915326Y-106024479D01*
X90661295Y-105854741D01*
X90445259Y-105638705D01*
X90275521Y-105384674D01*
X90158604Y-105102410D01*
X90118214Y-104899354D01*
X90099000Y-104802761D01*
X90099000Y-104497239D01*
X90150912Y-104236259D01*
X90158604Y-104197590D01*
X90275521Y-103915326D01*
X90445259Y-103661295D01*
X90661295Y-103445259D01*
X90915326Y-103275521D01*
X91197590Y-103158604D01*
X91347415Y-103128802D01*
X91497239Y-103099000D01*
X91802761Y-103099000D01*
X91952585Y-103128802D01*
G37*
G36*
X121713512Y-103843927D02*
G01*
X121862812Y-103873624D01*
X122026784Y-103941544D01*
X122174354Y-104040147D01*
X122299853Y-104165646D01*
X122398456Y-104313216D01*
X122466376Y-104477188D01*
X122501000Y-104651259D01*
X122501000Y-104828741D01*
X122466376Y-105002812D01*
X122398456Y-105166784D01*
X122299853Y-105314354D01*
X122174354Y-105439853D01*
X122026784Y-105538456D01*
X121862812Y-105606376D01*
X121713512Y-105636073D01*
X121688742Y-105641000D01*
X121511258Y-105641000D01*
X121486488Y-105636073D01*
X121337188Y-105606376D01*
X121173216Y-105538456D01*
X121025646Y-105439853D01*
X120900147Y-105314354D01*
X120801544Y-105166784D01*
X120733624Y-105002812D01*
X120699000Y-104828741D01*
X120699000Y-104651259D01*
X120733624Y-104477188D01*
X120801544Y-104313216D01*
X120900147Y-104165646D01*
X121025646Y-104040147D01*
X121173216Y-103941544D01*
X121337188Y-103873624D01*
X121486488Y-103843927D01*
X121511258Y-103839000D01*
X121688742Y-103839000D01*
X121713512Y-103843927D01*
G37*
G36*
X98633512Y-103503927D02*
G01*
X98782812Y-103533624D01*
X98946784Y-103601544D01*
X99094354Y-103700147D01*
X99219853Y-103825646D01*
X99318456Y-103973216D01*
X99386376Y-104137188D01*
X99406082Y-104236259D01*
X99421000Y-104311258D01*
X99421000Y-104488742D01*
X99416073Y-104513512D01*
X99386376Y-104662812D01*
X99318456Y-104826784D01*
X99219853Y-104974354D01*
X99094354Y-105099853D01*
X98946784Y-105198456D01*
X98782812Y-105266376D01*
X98633512Y-105296073D01*
X98608742Y-105301000D01*
X98431258Y-105301000D01*
X98406488Y-105296073D01*
X98257188Y-105266376D01*
X98093216Y-105198456D01*
X97945646Y-105099853D01*
X97820147Y-104974354D01*
X97721544Y-104826784D01*
X97653624Y-104662812D01*
X97623927Y-104513512D01*
X97619000Y-104488742D01*
X97619000Y-104311258D01*
X97633918Y-104236259D01*
X97653624Y-104137188D01*
X97721544Y-103973216D01*
X97820147Y-103825646D01*
X97945646Y-103700147D01*
X98093216Y-103601544D01*
X98257188Y-103533624D01*
X98406488Y-103503927D01*
X98431258Y-103499000D01*
X98608742Y-103499000D01*
X98633512Y-103503927D01*
G37*
G36*
X96093512Y-103503927D02*
G01*
X96242812Y-103533624D01*
X96406784Y-103601544D01*
X96554354Y-103700147D01*
X96679853Y-103825646D01*
X96778456Y-103973216D01*
X96846376Y-104137188D01*
X96866082Y-104236259D01*
X96881000Y-104311258D01*
X96881000Y-104488742D01*
X96876073Y-104513512D01*
X96846376Y-104662812D01*
X96778456Y-104826784D01*
X96679853Y-104974354D01*
X96554354Y-105099853D01*
X96406784Y-105198456D01*
X96242812Y-105266376D01*
X96093512Y-105296073D01*
X96068742Y-105301000D01*
X95891258Y-105301000D01*
X95866488Y-105296073D01*
X95717188Y-105266376D01*
X95553216Y-105198456D01*
X95405646Y-105099853D01*
X95280147Y-104974354D01*
X95181544Y-104826784D01*
X95113624Y-104662812D01*
X95083927Y-104513512D01*
X95079000Y-104488742D01*
X95079000Y-104311258D01*
X95093918Y-104236259D01*
X95113624Y-104137188D01*
X95181544Y-103973216D01*
X95280147Y-103825646D01*
X95405646Y-103700147D01*
X95553216Y-103601544D01*
X95717188Y-103533624D01*
X95866488Y-103503927D01*
X95891258Y-103499000D01*
X96068742Y-103499000D01*
X96093512Y-103503927D01*
G37*
G36*
X104501000Y-105301000D02*
G01*
X102699000Y-105301000D01*
X102699000Y-103499000D01*
X104501000Y-103499000D01*
X104501000Y-105301000D01*
G37*
G36*
X101173512Y-103503927D02*
G01*
X101322812Y-103533624D01*
X101486784Y-103601544D01*
X101634354Y-103700147D01*
X101759853Y-103825646D01*
X101858456Y-103973216D01*
X101926376Y-104137188D01*
X101946082Y-104236259D01*
X101961000Y-104311258D01*
X101961000Y-104488742D01*
X101956073Y-104513512D01*
X101926376Y-104662812D01*
X101858456Y-104826784D01*
X101759853Y-104974354D01*
X101634354Y-105099853D01*
X101486784Y-105198456D01*
X101322812Y-105266376D01*
X101173512Y-105296073D01*
X101148742Y-105301000D01*
X100971258Y-105301000D01*
X100946488Y-105296073D01*
X100797188Y-105266376D01*
X100633216Y-105198456D01*
X100485646Y-105099853D01*
X100360147Y-104974354D01*
X100261544Y-104826784D01*
X100193624Y-104662812D01*
X100163927Y-104513512D01*
X100159000Y-104488742D01*
X100159000Y-104311258D01*
X100173918Y-104236259D01*
X100193624Y-104137188D01*
X100261544Y-103973216D01*
X100360147Y-103825646D01*
X100485646Y-103700147D01*
X100633216Y-103601544D01*
X100797188Y-103533624D01*
X100946488Y-103503927D01*
X100971258Y-103499000D01*
X101148742Y-103499000D01*
X101173512Y-103503927D01*
G37*
G36*
X155266000Y-105226000D02*
G01*
X153464000Y-105226000D01*
X153464000Y-103424000D01*
X155266000Y-103424000D01*
X155266000Y-105226000D01*
G37*
G36*
X135023512Y-103428927D02*
G01*
X135172812Y-103458624D01*
X135336784Y-103526544D01*
X135484354Y-103625147D01*
X135609853Y-103750646D01*
X135708456Y-103898216D01*
X135776376Y-104062188D01*
X135811000Y-104236259D01*
X135811000Y-104413741D01*
X135776376Y-104587812D01*
X135708456Y-104751784D01*
X135609853Y-104899354D01*
X135484354Y-105024853D01*
X135336784Y-105123456D01*
X135172812Y-105191376D01*
X135023512Y-105221073D01*
X134998742Y-105226000D01*
X134821258Y-105226000D01*
X134796488Y-105221073D01*
X134647188Y-105191376D01*
X134483216Y-105123456D01*
X134335646Y-105024853D01*
X134210147Y-104899354D01*
X134111544Y-104751784D01*
X134043624Y-104587812D01*
X134009000Y-104413741D01*
X134009000Y-104236259D01*
X134043624Y-104062188D01*
X134111544Y-103898216D01*
X134210147Y-103750646D01*
X134335646Y-103625147D01*
X134483216Y-103526544D01*
X134647188Y-103458624D01*
X134796488Y-103428927D01*
X134821258Y-103424000D01*
X134998742Y-103424000D01*
X135023512Y-103428927D01*
G37*
G36*
X138351000Y-105226000D02*
G01*
X136549000Y-105226000D01*
X136549000Y-103424000D01*
X138351000Y-103424000D01*
X138351000Y-105226000D01*
G37*
G36*
X151938512Y-103428927D02*
G01*
X152087812Y-103458624D01*
X152251784Y-103526544D01*
X152399354Y-103625147D01*
X152524853Y-103750646D01*
X152623456Y-103898216D01*
X152691376Y-104062188D01*
X152726000Y-104236259D01*
X152726000Y-104413741D01*
X152691376Y-104587812D01*
X152623456Y-104751784D01*
X152524853Y-104899354D01*
X152399354Y-105024853D01*
X152251784Y-105123456D01*
X152087812Y-105191376D01*
X151938512Y-105221073D01*
X151913742Y-105226000D01*
X151736258Y-105226000D01*
X151711488Y-105221073D01*
X151562188Y-105191376D01*
X151398216Y-105123456D01*
X151250646Y-105024853D01*
X151125147Y-104899354D01*
X151026544Y-104751784D01*
X150958624Y-104587812D01*
X150924000Y-104413741D01*
X150924000Y-104236259D01*
X150958624Y-104062188D01*
X151026544Y-103898216D01*
X151125147Y-103750646D01*
X151250646Y-103625147D01*
X151398216Y-103526544D01*
X151562188Y-103458624D01*
X151711488Y-103428927D01*
X151736258Y-103424000D01*
X151913742Y-103424000D01*
X151938512Y-103428927D01*
G37*
G36*
X143523512Y-103428927D02*
G01*
X143672812Y-103458624D01*
X143836784Y-103526544D01*
X143984354Y-103625147D01*
X144109853Y-103750646D01*
X144208456Y-103898216D01*
X144276376Y-104062188D01*
X144311000Y-104236259D01*
X144311000Y-104413741D01*
X144276376Y-104587812D01*
X144208456Y-104751784D01*
X144109853Y-104899354D01*
X143984354Y-105024853D01*
X143836784Y-105123456D01*
X143672812Y-105191376D01*
X143523512Y-105221073D01*
X143498742Y-105226000D01*
X143321258Y-105226000D01*
X143296488Y-105221073D01*
X143147188Y-105191376D01*
X142983216Y-105123456D01*
X142835646Y-105024853D01*
X142710147Y-104899354D01*
X142611544Y-104751784D01*
X142543624Y-104587812D01*
X142509000Y-104413741D01*
X142509000Y-104236259D01*
X142543624Y-104062188D01*
X142611544Y-103898216D01*
X142710147Y-103750646D01*
X142835646Y-103625147D01*
X142983216Y-103526544D01*
X143147188Y-103458624D01*
X143296488Y-103428927D01*
X143321258Y-103424000D01*
X143498742Y-103424000D01*
X143523512Y-103428927D01*
G37*
G36*
X146851000Y-105226000D02*
G01*
X145049000Y-105226000D01*
X145049000Y-103424000D01*
X146851000Y-103424000D01*
X146851000Y-105226000D01*
G37*
G36*
X121713512Y-101303927D02*
G01*
X121862812Y-101333624D01*
X122026784Y-101401544D01*
X122174354Y-101500147D01*
X122299853Y-101625646D01*
X122398456Y-101773216D01*
X122466376Y-101937188D01*
X122501000Y-102111259D01*
X122501000Y-102288741D01*
X122466376Y-102462812D01*
X122398456Y-102626784D01*
X122299853Y-102774354D01*
X122174354Y-102899853D01*
X122026784Y-102998456D01*
X121862812Y-103066376D01*
X121713512Y-103096073D01*
X121688742Y-103101000D01*
X121511258Y-103101000D01*
X121486488Y-103096073D01*
X121337188Y-103066376D01*
X121173216Y-102998456D01*
X121025646Y-102899853D01*
X120900147Y-102774354D01*
X120801544Y-102626784D01*
X120733624Y-102462812D01*
X120699000Y-102288741D01*
X120699000Y-102111259D01*
X120733624Y-101937188D01*
X120801544Y-101773216D01*
X120900147Y-101625646D01*
X121025646Y-101500147D01*
X121173216Y-101401544D01*
X121337188Y-101333624D01*
X121486488Y-101303927D01*
X121511258Y-101299000D01*
X121688742Y-101299000D01*
X121713512Y-101303927D01*
G37*
G36*
X131713512Y-101263927D02*
G01*
X131862812Y-101293624D01*
X132026784Y-101361544D01*
X132174354Y-101460147D01*
X132299853Y-101585646D01*
X132398456Y-101733216D01*
X132466376Y-101897188D01*
X132501000Y-102071259D01*
X132501000Y-102248741D01*
X132466376Y-102422812D01*
X132398456Y-102586784D01*
X132299853Y-102734354D01*
X132174354Y-102859853D01*
X132026784Y-102958456D01*
X131862812Y-103026376D01*
X131713512Y-103056073D01*
X131688742Y-103061000D01*
X131511258Y-103061000D01*
X131486488Y-103056073D01*
X131337188Y-103026376D01*
X131173216Y-102958456D01*
X131025646Y-102859853D01*
X130900147Y-102734354D01*
X130801544Y-102586784D01*
X130733624Y-102422812D01*
X130699000Y-102248741D01*
X130699000Y-102071259D01*
X130733624Y-101897188D01*
X130801544Y-101733216D01*
X130900147Y-101585646D01*
X131025646Y-101460147D01*
X131173216Y-101361544D01*
X131337188Y-101293624D01*
X131486488Y-101263927D01*
X131511258Y-101259000D01*
X131688742Y-101259000D01*
X131713512Y-101263927D01*
G37*
G36*
X152288512Y-99328927D02*
G01*
X152437812Y-99358624D01*
X152601784Y-99426544D01*
X152749354Y-99525147D01*
X152874853Y-99650646D01*
X152973456Y-99798216D01*
X153041376Y-99962188D01*
X153066159Y-100086784D01*
X153076000Y-100136258D01*
X153076000Y-100313742D01*
X153074784Y-100319853D01*
X153041376Y-100487812D01*
X152973456Y-100651784D01*
X152874853Y-100799354D01*
X152749354Y-100924853D01*
X152601784Y-101023456D01*
X152437812Y-101091376D01*
X152288512Y-101121073D01*
X152263742Y-101126000D01*
X152086258Y-101126000D01*
X152061488Y-101121073D01*
X151912188Y-101091376D01*
X151748216Y-101023456D01*
X151600646Y-100924853D01*
X151475147Y-100799354D01*
X151376544Y-100651784D01*
X151308624Y-100487812D01*
X151275216Y-100319853D01*
X151274000Y-100313742D01*
X151274000Y-100136258D01*
X151283841Y-100086784D01*
X151308624Y-99962188D01*
X151376544Y-99798216D01*
X151475147Y-99650646D01*
X151600646Y-99525147D01*
X151748216Y-99426544D01*
X151912188Y-99358624D01*
X152061488Y-99328927D01*
X152086258Y-99324000D01*
X152263742Y-99324000D01*
X152288512Y-99328927D01*
G37*
G36*
X142128512Y-99328927D02*
G01*
X142277812Y-99358624D01*
X142441784Y-99426544D01*
X142589354Y-99525147D01*
X142714853Y-99650646D01*
X142813456Y-99798216D01*
X142881376Y-99962188D01*
X142906159Y-100086784D01*
X142916000Y-100136258D01*
X142916000Y-100313742D01*
X142914784Y-100319853D01*
X142881376Y-100487812D01*
X142813456Y-100651784D01*
X142714853Y-100799354D01*
X142589354Y-100924853D01*
X142441784Y-101023456D01*
X142277812Y-101091376D01*
X142128512Y-101121073D01*
X142103742Y-101126000D01*
X141926258Y-101126000D01*
X141901488Y-101121073D01*
X141752188Y-101091376D01*
X141588216Y-101023456D01*
X141440646Y-100924853D01*
X141315147Y-100799354D01*
X141216544Y-100651784D01*
X141148624Y-100487812D01*
X141115216Y-100319853D01*
X141114000Y-100313742D01*
X141114000Y-100136258D01*
X141123841Y-100086784D01*
X141148624Y-99962188D01*
X141216544Y-99798216D01*
X141315147Y-99650646D01*
X141440646Y-99525147D01*
X141588216Y-99426544D01*
X141752188Y-99358624D01*
X141901488Y-99328927D01*
X141926258Y-99324000D01*
X142103742Y-99324000D01*
X142128512Y-99328927D01*
G37*
G36*
X144668512Y-99328927D02*
G01*
X144817812Y-99358624D01*
X144981784Y-99426544D01*
X145129354Y-99525147D01*
X145254853Y-99650646D01*
X145353456Y-99798216D01*
X145421376Y-99962188D01*
X145446159Y-100086784D01*
X145456000Y-100136258D01*
X145456000Y-100313742D01*
X145454784Y-100319853D01*
X145421376Y-100487812D01*
X145353456Y-100651784D01*
X145254853Y-100799354D01*
X145129354Y-100924853D01*
X144981784Y-101023456D01*
X144817812Y-101091376D01*
X144668512Y-101121073D01*
X144643742Y-101126000D01*
X144466258Y-101126000D01*
X144441488Y-101121073D01*
X144292188Y-101091376D01*
X144128216Y-101023456D01*
X143980646Y-100924853D01*
X143855147Y-100799354D01*
X143756544Y-100651784D01*
X143688624Y-100487812D01*
X143655216Y-100319853D01*
X143654000Y-100313742D01*
X143654000Y-100136258D01*
X143663841Y-100086784D01*
X143688624Y-99962188D01*
X143756544Y-99798216D01*
X143855147Y-99650646D01*
X143980646Y-99525147D01*
X144128216Y-99426544D01*
X144292188Y-99358624D01*
X144441488Y-99328927D01*
X144466258Y-99324000D01*
X144643742Y-99324000D01*
X144668512Y-99328927D01*
G37*
G36*
X147208512Y-99328927D02*
G01*
X147357812Y-99358624D01*
X147521784Y-99426544D01*
X147669354Y-99525147D01*
X147794853Y-99650646D01*
X147893456Y-99798216D01*
X147961376Y-99962188D01*
X147986159Y-100086784D01*
X147996000Y-100136258D01*
X147996000Y-100313742D01*
X147994784Y-100319853D01*
X147961376Y-100487812D01*
X147893456Y-100651784D01*
X147794853Y-100799354D01*
X147669354Y-100924853D01*
X147521784Y-101023456D01*
X147357812Y-101091376D01*
X147208512Y-101121073D01*
X147183742Y-101126000D01*
X147006258Y-101126000D01*
X146981488Y-101121073D01*
X146832188Y-101091376D01*
X146668216Y-101023456D01*
X146520646Y-100924853D01*
X146395147Y-100799354D01*
X146296544Y-100651784D01*
X146228624Y-100487812D01*
X146195216Y-100319853D01*
X146194000Y-100313742D01*
X146194000Y-100136258D01*
X146203841Y-100086784D01*
X146228624Y-99962188D01*
X146296544Y-99798216D01*
X146395147Y-99650646D01*
X146520646Y-99525147D01*
X146668216Y-99426544D01*
X146832188Y-99358624D01*
X146981488Y-99328927D01*
X147006258Y-99324000D01*
X147183742Y-99324000D01*
X147208512Y-99328927D01*
G37*
G36*
X149748512Y-99328927D02*
G01*
X149897812Y-99358624D01*
X150061784Y-99426544D01*
X150209354Y-99525147D01*
X150334853Y-99650646D01*
X150433456Y-99798216D01*
X150501376Y-99962188D01*
X150526159Y-100086784D01*
X150536000Y-100136258D01*
X150536000Y-100313742D01*
X150534784Y-100319853D01*
X150501376Y-100487812D01*
X150433456Y-100651784D01*
X150334853Y-100799354D01*
X150209354Y-100924853D01*
X150061784Y-101023456D01*
X149897812Y-101091376D01*
X149748512Y-101121073D01*
X149723742Y-101126000D01*
X149546258Y-101126000D01*
X149521488Y-101121073D01*
X149372188Y-101091376D01*
X149208216Y-101023456D01*
X149060646Y-100924853D01*
X148935147Y-100799354D01*
X148836544Y-100651784D01*
X148768624Y-100487812D01*
X148735216Y-100319853D01*
X148734000Y-100313742D01*
X148734000Y-100136258D01*
X148743841Y-100086784D01*
X148768624Y-99962188D01*
X148836544Y-99798216D01*
X148935147Y-99650646D01*
X149060646Y-99525147D01*
X149208216Y-99426544D01*
X149372188Y-99358624D01*
X149521488Y-99328927D01*
X149546258Y-99324000D01*
X149723742Y-99324000D01*
X149748512Y-99328927D01*
G37*
G36*
X121692703Y-98759788D02*
G01*
X121862812Y-98793624D01*
X122026784Y-98861544D01*
X122174354Y-98960147D01*
X122299853Y-99085646D01*
X122398456Y-99233216D01*
X122466376Y-99397188D01*
X122501000Y-99571259D01*
X122501000Y-99748741D01*
X122466376Y-99922812D01*
X122398456Y-100086784D01*
X122299853Y-100234354D01*
X122174354Y-100359853D01*
X122026784Y-100458456D01*
X121862812Y-100526376D01*
X121713512Y-100556073D01*
X121688742Y-100561000D01*
X121511258Y-100561000D01*
X121486488Y-100556073D01*
X121337188Y-100526376D01*
X121173216Y-100458456D01*
X121025646Y-100359853D01*
X120900147Y-100234354D01*
X120801544Y-100086784D01*
X120733624Y-99922812D01*
X120699000Y-99748741D01*
X120699000Y-99571259D01*
X120733624Y-99397188D01*
X120801544Y-99233216D01*
X120900147Y-99085646D01*
X121025646Y-98960147D01*
X121173216Y-98861544D01*
X121337188Y-98793624D01*
X121507297Y-98759788D01*
X121511258Y-98759000D01*
X121688742Y-98759000D01*
X121692703Y-98759788D01*
G37*
G36*
X131713512Y-98723927D02*
G01*
X131862812Y-98753624D01*
X132026784Y-98821544D01*
X132174354Y-98920147D01*
X132299853Y-99045646D01*
X132398456Y-99193216D01*
X132466376Y-99357188D01*
X132474332Y-99397189D01*
X132499785Y-99525148D01*
X132501000Y-99531259D01*
X132501000Y-99708741D01*
X132466376Y-99882812D01*
X132398456Y-100046784D01*
X132299853Y-100194354D01*
X132174354Y-100319853D01*
X132026784Y-100418456D01*
X131862812Y-100486376D01*
X131713512Y-100516073D01*
X131688742Y-100521000D01*
X131511258Y-100521000D01*
X131486488Y-100516073D01*
X131337188Y-100486376D01*
X131173216Y-100418456D01*
X131025646Y-100319853D01*
X130900147Y-100194354D01*
X130801544Y-100046784D01*
X130733624Y-99882812D01*
X130699000Y-99708741D01*
X130699000Y-99531259D01*
X130700216Y-99525148D01*
X130725668Y-99397189D01*
X130733624Y-99357188D01*
X130801544Y-99193216D01*
X130900147Y-99045646D01*
X131025646Y-98920147D01*
X131173216Y-98821544D01*
X131337188Y-98753624D01*
X131486488Y-98723927D01*
X131511258Y-98719000D01*
X131688742Y-98719000D01*
X131713512Y-98723927D01*
G37*
G36*
X125259468Y-97853565D02*
G01*
X125298138Y-97865296D01*
X125333777Y-97884346D01*
X125365017Y-97909983D01*
X125390654Y-97941223D01*
X125409704Y-97976862D01*
X125421435Y-98015532D01*
X125426000Y-98061888D01*
X125426000Y-98713112D01*
X125421435Y-98759468D01*
X125409704Y-98798138D01*
X125390654Y-98833777D01*
X125365017Y-98865017D01*
X125333777Y-98890654D01*
X125298138Y-98909704D01*
X125259468Y-98921435D01*
X125213112Y-98926000D01*
X124136888Y-98926000D01*
X124090532Y-98921435D01*
X124051862Y-98909704D01*
X124016223Y-98890654D01*
X123984983Y-98865017D01*
X123959346Y-98833777D01*
X123940296Y-98798138D01*
X123928565Y-98759468D01*
X123924000Y-98713112D01*
X123924000Y-98061888D01*
X123928565Y-98015532D01*
X123940296Y-97976862D01*
X123959346Y-97941223D01*
X123984983Y-97909983D01*
X124016223Y-97884346D01*
X124051862Y-97865296D01*
X124090532Y-97853565D01*
X124136888Y-97849000D01*
X125213112Y-97849000D01*
X125259468Y-97853565D01*
G37*
G36*
X129084468Y-97841065D02*
G01*
X129123138Y-97852796D01*
X129158777Y-97871846D01*
X129190017Y-97897483D01*
X129215654Y-97928723D01*
X129234704Y-97964362D01*
X129246435Y-98003032D01*
X129251000Y-98049388D01*
X129251000Y-98700612D01*
X129246435Y-98746968D01*
X129234704Y-98785638D01*
X129215654Y-98821277D01*
X129190017Y-98852517D01*
X129158777Y-98878154D01*
X129123138Y-98897204D01*
X129084468Y-98908935D01*
X129038112Y-98913500D01*
X127961888Y-98913500D01*
X127915532Y-98908935D01*
X127876862Y-98897204D01*
X127841223Y-98878154D01*
X127809983Y-98852517D01*
X127784346Y-98821277D01*
X127765296Y-98785638D01*
X127753565Y-98746968D01*
X127749000Y-98700612D01*
X127749000Y-98049388D01*
X127753565Y-98003032D01*
X127765296Y-97964362D01*
X127784346Y-97928723D01*
X127809983Y-97897483D01*
X127841223Y-97871846D01*
X127876862Y-97852796D01*
X127915532Y-97841065D01*
X127961888Y-97836500D01*
X129038112Y-97836500D01*
X129084468Y-97841065D01*
G37*
G36*
X121713512Y-96223927D02*
G01*
X121862812Y-96253624D01*
X122026784Y-96321544D01*
X122174354Y-96420147D01*
X122299853Y-96545646D01*
X122398456Y-96693216D01*
X122466376Y-96857188D01*
X122501000Y-97031259D01*
X122501000Y-97208741D01*
X122466376Y-97382812D01*
X122398456Y-97546784D01*
X122299853Y-97694354D01*
X122174354Y-97819853D01*
X122026784Y-97918456D01*
X121862812Y-97986376D01*
X121717840Y-98015212D01*
X121688742Y-98021000D01*
X121511258Y-98021000D01*
X121482160Y-98015212D01*
X121337188Y-97986376D01*
X121173216Y-97918456D01*
X121025646Y-97819853D01*
X120900147Y-97694354D01*
X120801544Y-97546784D01*
X120733624Y-97382812D01*
X120699000Y-97208741D01*
X120699000Y-97031259D01*
X120733624Y-96857188D01*
X120801544Y-96693216D01*
X120900147Y-96545646D01*
X121025646Y-96420147D01*
X121173216Y-96321544D01*
X121337188Y-96253624D01*
X121486488Y-96223927D01*
X121511258Y-96219000D01*
X121688742Y-96219000D01*
X121713512Y-96223927D01*
G37*
G36*
X131713512Y-96183927D02*
G01*
X131862812Y-96213624D01*
X132026784Y-96281544D01*
X132174354Y-96380147D01*
X132299853Y-96505646D01*
X132398456Y-96653216D01*
X132466376Y-96817188D01*
X132501000Y-96991259D01*
X132501000Y-97168741D01*
X132466376Y-97342812D01*
X132398456Y-97506784D01*
X132299853Y-97654354D01*
X132174354Y-97779853D01*
X132026784Y-97878456D01*
X131862812Y-97946376D01*
X131713512Y-97976073D01*
X131688742Y-97981000D01*
X131511258Y-97981000D01*
X131486488Y-97976073D01*
X131337188Y-97946376D01*
X131173216Y-97878456D01*
X131025646Y-97779853D01*
X130900147Y-97654354D01*
X130801544Y-97506784D01*
X130733624Y-97342812D01*
X130699000Y-97168741D01*
X130699000Y-96991259D01*
X130733624Y-96817188D01*
X130801544Y-96653216D01*
X130900147Y-96505646D01*
X131025646Y-96380147D01*
X131173216Y-96281544D01*
X131337188Y-96213624D01*
X131486488Y-96183927D01*
X131511258Y-96179000D01*
X131688742Y-96179000D01*
X131713512Y-96183927D01*
G37*
G36*
X125259468Y-95978565D02*
G01*
X125298138Y-95990296D01*
X125333777Y-96009346D01*
X125365017Y-96034983D01*
X125390654Y-96066223D01*
X125409704Y-96101862D01*
X125421435Y-96140532D01*
X125426000Y-96186888D01*
X125426000Y-96838112D01*
X125421435Y-96884468D01*
X125409704Y-96923138D01*
X125390654Y-96958777D01*
X125365017Y-96990017D01*
X125333777Y-97015654D01*
X125298138Y-97034704D01*
X125259468Y-97046435D01*
X125213112Y-97051000D01*
X124136888Y-97051000D01*
X124090532Y-97046435D01*
X124051862Y-97034704D01*
X124016223Y-97015654D01*
X123984983Y-96990017D01*
X123959346Y-96958777D01*
X123940296Y-96923138D01*
X123928565Y-96884468D01*
X123924000Y-96838112D01*
X123924000Y-96186888D01*
X123928565Y-96140532D01*
X123940296Y-96101862D01*
X123959346Y-96066223D01*
X123984983Y-96034983D01*
X124016223Y-96009346D01*
X124051862Y-95990296D01*
X124090532Y-95978565D01*
X124136888Y-95974000D01*
X125213112Y-95974000D01*
X125259468Y-95978565D01*
G37*
G36*
X129084468Y-95966065D02*
G01*
X129123138Y-95977796D01*
X129158777Y-95996846D01*
X129190017Y-96022483D01*
X129215654Y-96053723D01*
X129234704Y-96089362D01*
X129246435Y-96128032D01*
X129251000Y-96174388D01*
X129251000Y-96825612D01*
X129246435Y-96871968D01*
X129234704Y-96910638D01*
X129215654Y-96946277D01*
X129190017Y-96977517D01*
X129158777Y-97003154D01*
X129123138Y-97022204D01*
X129084468Y-97033935D01*
X129038112Y-97038500D01*
X127961888Y-97038500D01*
X127915532Y-97033935D01*
X127876862Y-97022204D01*
X127841223Y-97003154D01*
X127809983Y-96977517D01*
X127784346Y-96946277D01*
X127765296Y-96910638D01*
X127753565Y-96871968D01*
X127749000Y-96825612D01*
X127749000Y-96174388D01*
X127753565Y-96128032D01*
X127765296Y-96089362D01*
X127784346Y-96053723D01*
X127809983Y-96022483D01*
X127841223Y-95996846D01*
X127876862Y-95977796D01*
X127915532Y-95966065D01*
X127961888Y-95961500D01*
X129038112Y-95961500D01*
X129084468Y-95966065D01*
G37*
G36*
X121713512Y-93683927D02*
G01*
X121862812Y-93713624D01*
X122026784Y-93781544D01*
X122174354Y-93880147D01*
X122299853Y-94005646D01*
X122398456Y-94153216D01*
X122466376Y-94317188D01*
X122501000Y-94491259D01*
X122501000Y-94668741D01*
X122466376Y-94842812D01*
X122398456Y-95006784D01*
X122299853Y-95154354D01*
X122174354Y-95279853D01*
X122026784Y-95378456D01*
X121862812Y-95446376D01*
X121713512Y-95476073D01*
X121688742Y-95481000D01*
X121511258Y-95481000D01*
X121486488Y-95476073D01*
X121337188Y-95446376D01*
X121173216Y-95378456D01*
X121025646Y-95279853D01*
X120900147Y-95154354D01*
X120801544Y-95006784D01*
X120733624Y-94842812D01*
X120699000Y-94668741D01*
X120699000Y-94491259D01*
X120733624Y-94317188D01*
X120801544Y-94153216D01*
X120900147Y-94005646D01*
X121025646Y-93880147D01*
X121173216Y-93781544D01*
X121337188Y-93713624D01*
X121486488Y-93683927D01*
X121511258Y-93679000D01*
X121688742Y-93679000D01*
X121713512Y-93683927D01*
G37*
G36*
X131713512Y-93643927D02*
G01*
X131862812Y-93673624D01*
X132026784Y-93741544D01*
X132174354Y-93840147D01*
X132299853Y-93965646D01*
X132398456Y-94113216D01*
X132466376Y-94277188D01*
X132501000Y-94451259D01*
X132501000Y-94628741D01*
X132466376Y-94802812D01*
X132398456Y-94966784D01*
X132299853Y-95114354D01*
X132174354Y-95239853D01*
X132026784Y-95338456D01*
X131862812Y-95406376D01*
X131713512Y-95436073D01*
X131688742Y-95441000D01*
X131511258Y-95441000D01*
X131486488Y-95436073D01*
X131337188Y-95406376D01*
X131173216Y-95338456D01*
X131025646Y-95239853D01*
X130900147Y-95114354D01*
X130801544Y-94966784D01*
X130733624Y-94802812D01*
X130699000Y-94628741D01*
X130699000Y-94451259D01*
X130733624Y-94277188D01*
X130801544Y-94113216D01*
X130900147Y-93965646D01*
X131025646Y-93840147D01*
X131173216Y-93741544D01*
X131337188Y-93673624D01*
X131486488Y-93643927D01*
X131511258Y-93639000D01*
X131688742Y-93639000D01*
X131713512Y-93643927D01*
G37*
G36*
X159854769Y-92387188D02*
G01*
X160012812Y-92418624D01*
X160176784Y-92486544D01*
X160324354Y-92585147D01*
X160449853Y-92710646D01*
X160548456Y-92858216D01*
X160616376Y-93022188D01*
X160651000Y-93196259D01*
X160651000Y-93373741D01*
X160616376Y-93547812D01*
X160548456Y-93711784D01*
X160449853Y-93859354D01*
X160324354Y-93984853D01*
X160176784Y-94083456D01*
X160012812Y-94151376D01*
X159863512Y-94181073D01*
X159838742Y-94186000D01*
X159661258Y-94186000D01*
X159636488Y-94181073D01*
X159487188Y-94151376D01*
X159323216Y-94083456D01*
X159175646Y-93984853D01*
X159050147Y-93859354D01*
X158951544Y-93711784D01*
X158883624Y-93547812D01*
X158849000Y-93373741D01*
X158849000Y-93196259D01*
X158883624Y-93022188D01*
X158951544Y-92858216D01*
X159050147Y-92710646D01*
X159175646Y-92585147D01*
X159323216Y-92486544D01*
X159487188Y-92418624D01*
X159645231Y-92387188D01*
X159661258Y-92384000D01*
X159838742Y-92384000D01*
X159854769Y-92387188D01*
G37*
G36*
X91763512Y-91753927D02*
G01*
X91912812Y-91783624D01*
X92076784Y-91851544D01*
X92224354Y-91950147D01*
X92349853Y-92075646D01*
X92448456Y-92223216D01*
X92516376Y-92387188D01*
X92551000Y-92561259D01*
X92551000Y-92738741D01*
X92516376Y-92912812D01*
X92448456Y-93076784D01*
X92349853Y-93224354D01*
X92224354Y-93349853D01*
X92076784Y-93448456D01*
X91912812Y-93516376D01*
X91763512Y-93546073D01*
X91738742Y-93551000D01*
X91561258Y-93551000D01*
X91536488Y-93546073D01*
X91387188Y-93516376D01*
X91223216Y-93448456D01*
X91075646Y-93349853D01*
X90950147Y-93224354D01*
X90851544Y-93076784D01*
X90783624Y-92912812D01*
X90749000Y-92738741D01*
X90749000Y-92561259D01*
X90783624Y-92387188D01*
X90851544Y-92223216D01*
X90950147Y-92075646D01*
X91075646Y-91950147D01*
X91223216Y-91851544D01*
X91387188Y-91783624D01*
X91536488Y-91753927D01*
X91561258Y-91749000D01*
X91738742Y-91749000D01*
X91763512Y-91753927D01*
G37*
G36*
X121713512Y-91143927D02*
G01*
X121862812Y-91173624D01*
X122026784Y-91241544D01*
X122174354Y-91340147D01*
X122299853Y-91465646D01*
X122398456Y-91613216D01*
X122466376Y-91777188D01*
X122501000Y-91951259D01*
X122501000Y-92128741D01*
X122466376Y-92302812D01*
X122398456Y-92466784D01*
X122299853Y-92614354D01*
X122174354Y-92739853D01*
X122026784Y-92838456D01*
X121862812Y-92906376D01*
X121713512Y-92936073D01*
X121688742Y-92941000D01*
X121511258Y-92941000D01*
X121486488Y-92936073D01*
X121337188Y-92906376D01*
X121173216Y-92838456D01*
X121025646Y-92739853D01*
X120900147Y-92614354D01*
X120801544Y-92466784D01*
X120733624Y-92302812D01*
X120699000Y-92128741D01*
X120699000Y-91951259D01*
X120733624Y-91777188D01*
X120801544Y-91613216D01*
X120900147Y-91465646D01*
X121025646Y-91340147D01*
X121173216Y-91241544D01*
X121337188Y-91173624D01*
X121486488Y-91143927D01*
X121511258Y-91139000D01*
X121688742Y-91139000D01*
X121713512Y-91143927D01*
G37*
G36*
X131713512Y-91103927D02*
G01*
X131862812Y-91133624D01*
X132026784Y-91201544D01*
X132174354Y-91300147D01*
X132299853Y-91425646D01*
X132398456Y-91573216D01*
X132466376Y-91737188D01*
X132501000Y-91911259D01*
X132501000Y-92088741D01*
X132466376Y-92262812D01*
X132398456Y-92426784D01*
X132299853Y-92574354D01*
X132174354Y-92699853D01*
X132026784Y-92798456D01*
X131862812Y-92866376D01*
X131713512Y-92896073D01*
X131688742Y-92901000D01*
X131511258Y-92901000D01*
X131486488Y-92896073D01*
X131337188Y-92866376D01*
X131173216Y-92798456D01*
X131025646Y-92699853D01*
X130900147Y-92574354D01*
X130801544Y-92426784D01*
X130733624Y-92262812D01*
X130699000Y-92088741D01*
X130699000Y-91911259D01*
X130733624Y-91737188D01*
X130801544Y-91573216D01*
X130900147Y-91425646D01*
X131025646Y-91300147D01*
X131173216Y-91201544D01*
X131337188Y-91133624D01*
X131486488Y-91103927D01*
X131511258Y-91099000D01*
X131688742Y-91099000D01*
X131713512Y-91103927D01*
G37*
G36*
X159854769Y-89847188D02*
G01*
X160012812Y-89878624D01*
X160176784Y-89946544D01*
X160324354Y-90045147D01*
X160449853Y-90170646D01*
X160548456Y-90318216D01*
X160616376Y-90482188D01*
X160651000Y-90656259D01*
X160651000Y-90833741D01*
X160616376Y-91007812D01*
X160548456Y-91171784D01*
X160449853Y-91319354D01*
X160324354Y-91444853D01*
X160176784Y-91543456D01*
X160012812Y-91611376D01*
X159863512Y-91641073D01*
X159838742Y-91646000D01*
X159661258Y-91646000D01*
X159636488Y-91641073D01*
X159487188Y-91611376D01*
X159323216Y-91543456D01*
X159175646Y-91444853D01*
X159050147Y-91319354D01*
X158951544Y-91171784D01*
X158883624Y-91007812D01*
X158849000Y-90833741D01*
X158849000Y-90656259D01*
X158883624Y-90482188D01*
X158951544Y-90318216D01*
X159050147Y-90170646D01*
X159175646Y-90045147D01*
X159323216Y-89946544D01*
X159487188Y-89878624D01*
X159645231Y-89847188D01*
X159661258Y-89844000D01*
X159838742Y-89844000D01*
X159854769Y-89847188D01*
G37*
G36*
X111856564Y-89089389D02*
G01*
X112047833Y-89168615D01*
X112047835Y-89168616D01*
X112160092Y-89243624D01*
X112219973Y-89283635D01*
X112366365Y-89430027D01*
X112481385Y-89602167D01*
X112560611Y-89793436D01*
X112601000Y-89996484D01*
X112601000Y-90203516D01*
X112560611Y-90406564D01*
X112529286Y-90482189D01*
X112481384Y-90597835D01*
X112366365Y-90769973D01*
X112219973Y-90916365D01*
X112047835Y-91031384D01*
X112047834Y-91031385D01*
X112047833Y-91031385D01*
X111856564Y-91110611D01*
X111653516Y-91151000D01*
X111446484Y-91151000D01*
X111243436Y-91110611D01*
X111052167Y-91031385D01*
X111052166Y-91031385D01*
X111052165Y-91031384D01*
X110880027Y-90916365D01*
X110733635Y-90769973D01*
X110618616Y-90597835D01*
X110570714Y-90482189D01*
X110539389Y-90406564D01*
X110499000Y-90203516D01*
X110499000Y-89996484D01*
X110539389Y-89793436D01*
X110618615Y-89602167D01*
X110733635Y-89430027D01*
X110880027Y-89283635D01*
X110939908Y-89243624D01*
X111052165Y-89168616D01*
X111052167Y-89168615D01*
X111243436Y-89089389D01*
X111446484Y-89049000D01*
X111653516Y-89049000D01*
X111856564Y-89089389D01*
G37*
G36*
X116356564Y-89089389D02*
G01*
X116547833Y-89168615D01*
X116547835Y-89168616D01*
X116660092Y-89243624D01*
X116719973Y-89283635D01*
X116866365Y-89430027D01*
X116981385Y-89602167D01*
X117060611Y-89793436D01*
X117101000Y-89996484D01*
X117101000Y-90203516D01*
X117060611Y-90406564D01*
X117029286Y-90482189D01*
X116981384Y-90597835D01*
X116866365Y-90769973D01*
X116719973Y-90916365D01*
X116547835Y-91031384D01*
X116547834Y-91031385D01*
X116547833Y-91031385D01*
X116356564Y-91110611D01*
X116153516Y-91151000D01*
X115946484Y-91151000D01*
X115743436Y-91110611D01*
X115552167Y-91031385D01*
X115552166Y-91031385D01*
X115552165Y-91031384D01*
X115380027Y-90916365D01*
X115233635Y-90769973D01*
X115118616Y-90597835D01*
X115070714Y-90482189D01*
X115039389Y-90406564D01*
X114999000Y-90203516D01*
X114999000Y-89996484D01*
X115039389Y-89793436D01*
X115118615Y-89602167D01*
X115233635Y-89430027D01*
X115380027Y-89283635D01*
X115439908Y-89243624D01*
X115552165Y-89168616D01*
X115552167Y-89168615D01*
X115743436Y-89089389D01*
X115946484Y-89049000D01*
X116153516Y-89049000D01*
X116356564Y-89089389D01*
G37*
G36*
X91763512Y-89213927D02*
G01*
X91912812Y-89243624D01*
X92076784Y-89311544D01*
X92224354Y-89410147D01*
X92349853Y-89535646D01*
X92448456Y-89683216D01*
X92516376Y-89847188D01*
X92551000Y-90021259D01*
X92551000Y-90198741D01*
X92516376Y-90372812D01*
X92448456Y-90536784D01*
X92349853Y-90684354D01*
X92224354Y-90809853D01*
X92076784Y-90908456D01*
X91912812Y-90976376D01*
X91763512Y-91006073D01*
X91738742Y-91011000D01*
X91561258Y-91011000D01*
X91536488Y-91006073D01*
X91387188Y-90976376D01*
X91223216Y-90908456D01*
X91075646Y-90809853D01*
X90950147Y-90684354D01*
X90851544Y-90536784D01*
X90783624Y-90372812D01*
X90749000Y-90198741D01*
X90749000Y-90021259D01*
X90783624Y-89847188D01*
X90851544Y-89683216D01*
X90950147Y-89535646D01*
X91075646Y-89410147D01*
X91223216Y-89311544D01*
X91387188Y-89243624D01*
X91536488Y-89213927D01*
X91561258Y-89209000D01*
X91738742Y-89209000D01*
X91763512Y-89213927D01*
G37*
G36*
X121713512Y-88603927D02*
G01*
X121862812Y-88633624D01*
X122026784Y-88701544D01*
X122174354Y-88800147D01*
X122299853Y-88925646D01*
X122398456Y-89073216D01*
X122466376Y-89237188D01*
X122496073Y-89386488D01*
X122501000Y-89411258D01*
X122501000Y-89588742D01*
X122496073Y-89613512D01*
X122466376Y-89762812D01*
X122398456Y-89926784D01*
X122299853Y-90074354D01*
X122174354Y-90199853D01*
X122026784Y-90298456D01*
X121862812Y-90366376D01*
X121713512Y-90396073D01*
X121688742Y-90401000D01*
X121511258Y-90401000D01*
X121486488Y-90396073D01*
X121337188Y-90366376D01*
X121173216Y-90298456D01*
X121025646Y-90199853D01*
X120900147Y-90074354D01*
X120801544Y-89926784D01*
X120733624Y-89762812D01*
X120703927Y-89613512D01*
X120699000Y-89588742D01*
X120699000Y-89411258D01*
X120703927Y-89386488D01*
X120733624Y-89237188D01*
X120801544Y-89073216D01*
X120900147Y-88925646D01*
X121025646Y-88800147D01*
X121173216Y-88701544D01*
X121337188Y-88633624D01*
X121486488Y-88603927D01*
X121511258Y-88599000D01*
X121688742Y-88599000D01*
X121713512Y-88603927D01*
G37*
G36*
X159854769Y-87307188D02*
G01*
X160012812Y-87338624D01*
X160176784Y-87406544D01*
X160324354Y-87505147D01*
X160449853Y-87630646D01*
X160548456Y-87778216D01*
X160616376Y-87942188D01*
X160651000Y-88116259D01*
X160651000Y-88293741D01*
X160616376Y-88467812D01*
X160548456Y-88631784D01*
X160449853Y-88779354D01*
X160324354Y-88904853D01*
X160176784Y-89003456D01*
X160012812Y-89071376D01*
X159863512Y-89101073D01*
X159838742Y-89106000D01*
X159661258Y-89106000D01*
X159636488Y-89101073D01*
X159487188Y-89071376D01*
X159323216Y-89003456D01*
X159175646Y-88904853D01*
X159050147Y-88779354D01*
X158951544Y-88631784D01*
X158883624Y-88467812D01*
X158849000Y-88293741D01*
X158849000Y-88116259D01*
X158883624Y-87942188D01*
X158951544Y-87778216D01*
X159050147Y-87630646D01*
X159175646Y-87505147D01*
X159323216Y-87406544D01*
X159487188Y-87338624D01*
X159645231Y-87307188D01*
X159661258Y-87304000D01*
X159838742Y-87304000D01*
X159854769Y-87307188D01*
G37*
G36*
X91763512Y-86673927D02*
G01*
X91912812Y-86703624D01*
X92076784Y-86771544D01*
X92224354Y-86870147D01*
X92349853Y-86995646D01*
X92448456Y-87143216D01*
X92516376Y-87307188D01*
X92551000Y-87481259D01*
X92551000Y-87658741D01*
X92516376Y-87832812D01*
X92448456Y-87996784D01*
X92349853Y-88144354D01*
X92224354Y-88269853D01*
X92076784Y-88368456D01*
X91912812Y-88436376D01*
X91763512Y-88466073D01*
X91738742Y-88471000D01*
X91561258Y-88471000D01*
X91536488Y-88466073D01*
X91387188Y-88436376D01*
X91223216Y-88368456D01*
X91075646Y-88269853D01*
X90950147Y-88144354D01*
X90851544Y-87996784D01*
X90783624Y-87832812D01*
X90749000Y-87658741D01*
X90749000Y-87481259D01*
X90783624Y-87307188D01*
X90851544Y-87143216D01*
X90950147Y-86995646D01*
X91075646Y-86870147D01*
X91223216Y-86771544D01*
X91387188Y-86703624D01*
X91536488Y-86673927D01*
X91561258Y-86669000D01*
X91738742Y-86669000D01*
X91763512Y-86673927D01*
G37*
G36*
X146328512Y-85103927D02*
G01*
X146477812Y-85133624D01*
X146641784Y-85201544D01*
X146789354Y-85300147D01*
X146914853Y-85425646D01*
X147013456Y-85573216D01*
X147081376Y-85737188D01*
X147111073Y-85886488D01*
X147113040Y-85896375D01*
X147116000Y-85911259D01*
X147116000Y-86088741D01*
X147081376Y-86262812D01*
X147013456Y-86426784D01*
X146914853Y-86574354D01*
X146789354Y-86699853D01*
X146641784Y-86798456D01*
X146477812Y-86866376D01*
X146328512Y-86896073D01*
X146303742Y-86901000D01*
X146126258Y-86901000D01*
X146101488Y-86896073D01*
X145952188Y-86866376D01*
X145788216Y-86798456D01*
X145640646Y-86699853D01*
X145515147Y-86574354D01*
X145416544Y-86426784D01*
X145348624Y-86262812D01*
X145314000Y-86088741D01*
X145314000Y-85911259D01*
X145316961Y-85896375D01*
X145318927Y-85886488D01*
X145348624Y-85737188D01*
X145416544Y-85573216D01*
X145515147Y-85425646D01*
X145640646Y-85300147D01*
X145788216Y-85201544D01*
X145952188Y-85133624D01*
X146101488Y-85103927D01*
X146126258Y-85099000D01*
X146303742Y-85099000D01*
X146328512Y-85103927D01*
G37*
G36*
X144576000Y-86901000D02*
G01*
X142774000Y-86901000D01*
X142774000Y-85099000D01*
X144576000Y-85099000D01*
X144576000Y-86901000D01*
G37*
G36*
X148868512Y-85103927D02*
G01*
X149017812Y-85133624D01*
X149181784Y-85201544D01*
X149329354Y-85300147D01*
X149454853Y-85425646D01*
X149553456Y-85573216D01*
X149621376Y-85737188D01*
X149651073Y-85886488D01*
X149653040Y-85896375D01*
X149656000Y-85911259D01*
X149656000Y-86088741D01*
X149621376Y-86262812D01*
X149553456Y-86426784D01*
X149454853Y-86574354D01*
X149329354Y-86699853D01*
X149181784Y-86798456D01*
X149017812Y-86866376D01*
X148868512Y-86896073D01*
X148843742Y-86901000D01*
X148666258Y-86901000D01*
X148641488Y-86896073D01*
X148492188Y-86866376D01*
X148328216Y-86798456D01*
X148180646Y-86699853D01*
X148055147Y-86574354D01*
X147956544Y-86426784D01*
X147888624Y-86262812D01*
X147854000Y-86088741D01*
X147854000Y-85911259D01*
X147856961Y-85896375D01*
X147858927Y-85886488D01*
X147888624Y-85737188D01*
X147956544Y-85573216D01*
X148055147Y-85425646D01*
X148180646Y-85300147D01*
X148328216Y-85201544D01*
X148492188Y-85133624D01*
X148641488Y-85103927D01*
X148666258Y-85099000D01*
X148843742Y-85099000D01*
X148868512Y-85103927D01*
G37*
G36*
X159854769Y-84767188D02*
G01*
X160012812Y-84798624D01*
X160176784Y-84866544D01*
X160324354Y-84965147D01*
X160449853Y-85090646D01*
X160548456Y-85238216D01*
X160616376Y-85402188D01*
X160651000Y-85576259D01*
X160651000Y-85753741D01*
X160616376Y-85927812D01*
X160548456Y-86091784D01*
X160449853Y-86239354D01*
X160324354Y-86364853D01*
X160176784Y-86463456D01*
X160012812Y-86531376D01*
X159863512Y-86561073D01*
X159838742Y-86566000D01*
X159661258Y-86566000D01*
X159636488Y-86561073D01*
X159487188Y-86531376D01*
X159323216Y-86463456D01*
X159175646Y-86364853D01*
X159050147Y-86239354D01*
X158951544Y-86091784D01*
X158883624Y-85927812D01*
X158849000Y-85753741D01*
X158849000Y-85576259D01*
X158883624Y-85402188D01*
X158951544Y-85238216D01*
X159050147Y-85090646D01*
X159175646Y-84965147D01*
X159323216Y-84866544D01*
X159487188Y-84798624D01*
X159645231Y-84767188D01*
X159661258Y-84764000D01*
X159838742Y-84764000D01*
X159854769Y-84767188D01*
G37*
G36*
X91763512Y-84133927D02*
G01*
X91912812Y-84163624D01*
X92076784Y-84231544D01*
X92224354Y-84330147D01*
X92349853Y-84455646D01*
X92448456Y-84603216D01*
X92516376Y-84767188D01*
X92546073Y-84916488D01*
X92551000Y-84941258D01*
X92551000Y-85118742D01*
X92546073Y-85143512D01*
X92516376Y-85292812D01*
X92448456Y-85456784D01*
X92349853Y-85604354D01*
X92224354Y-85729853D01*
X92076784Y-85828456D01*
X91912812Y-85896376D01*
X91763512Y-85926073D01*
X91738742Y-85931000D01*
X91561258Y-85931000D01*
X91536488Y-85926073D01*
X91387188Y-85896376D01*
X91223216Y-85828456D01*
X91075646Y-85729853D01*
X90950147Y-85604354D01*
X90851544Y-85456784D01*
X90783624Y-85292812D01*
X90753927Y-85143512D01*
X90749000Y-85118742D01*
X90749000Y-84941258D01*
X90753927Y-84916488D01*
X90783624Y-84767188D01*
X90851544Y-84603216D01*
X90950147Y-84455646D01*
X91075646Y-84330147D01*
X91223216Y-84231544D01*
X91387188Y-84163624D01*
X91536488Y-84133927D01*
X91561258Y-84129000D01*
X91738742Y-84129000D01*
X91763512Y-84133927D01*
G37*
G36*
X116356564Y-82589389D02*
G01*
X116547833Y-82668615D01*
X116547835Y-82668616D01*
X116673842Y-82752811D01*
X116719973Y-82783635D01*
X116866365Y-82930027D01*
X116981385Y-83102167D01*
X117060611Y-83293436D01*
X117101000Y-83496484D01*
X117101000Y-83703516D01*
X117060611Y-83906564D01*
X117011139Y-84026000D01*
X116981384Y-84097835D01*
X116866365Y-84269973D01*
X116719973Y-84416365D01*
X116547835Y-84531384D01*
X116547834Y-84531385D01*
X116547833Y-84531385D01*
X116356564Y-84610611D01*
X116153516Y-84651000D01*
X115946484Y-84651000D01*
X115743436Y-84610611D01*
X115552167Y-84531385D01*
X115552166Y-84531385D01*
X115552165Y-84531384D01*
X115380027Y-84416365D01*
X115233635Y-84269973D01*
X115118616Y-84097835D01*
X115088861Y-84026000D01*
X115039389Y-83906564D01*
X114999000Y-83703516D01*
X114999000Y-83496484D01*
X115039389Y-83293436D01*
X115118615Y-83102167D01*
X115233635Y-82930027D01*
X115380027Y-82783635D01*
X115426158Y-82752811D01*
X115552165Y-82668616D01*
X115552167Y-82668615D01*
X115743436Y-82589389D01*
X115946484Y-82549000D01*
X116153516Y-82549000D01*
X116356564Y-82589389D01*
G37*
G36*
X111856564Y-82589389D02*
G01*
X112047833Y-82668615D01*
X112047835Y-82668616D01*
X112173842Y-82752811D01*
X112219973Y-82783635D01*
X112366365Y-82930027D01*
X112481385Y-83102167D01*
X112560611Y-83293436D01*
X112601000Y-83496484D01*
X112601000Y-83703516D01*
X112560611Y-83906564D01*
X112511139Y-84026000D01*
X112481384Y-84097835D01*
X112366365Y-84269973D01*
X112219973Y-84416365D01*
X112047835Y-84531384D01*
X112047834Y-84531385D01*
X112047833Y-84531385D01*
X111856564Y-84610611D01*
X111653516Y-84651000D01*
X111446484Y-84651000D01*
X111243436Y-84610611D01*
X111052167Y-84531385D01*
X111052166Y-84531385D01*
X111052165Y-84531384D01*
X110880027Y-84416365D01*
X110733635Y-84269973D01*
X110618616Y-84097835D01*
X110588861Y-84026000D01*
X110539389Y-83906564D01*
X110499000Y-83703516D01*
X110499000Y-83496484D01*
X110539389Y-83293436D01*
X110618615Y-83102167D01*
X110733635Y-82930027D01*
X110880027Y-82783635D01*
X110926158Y-82752811D01*
X111052165Y-82668616D01*
X111052167Y-82668615D01*
X111243436Y-82589389D01*
X111446484Y-82549000D01*
X111653516Y-82549000D01*
X111856564Y-82589389D01*
G37*
G36*
X160651000Y-84026000D02*
G01*
X158849000Y-84026000D01*
X158849000Y-82224000D01*
X160651000Y-82224000D01*
X160651000Y-84026000D01*
G37*
G36*
X91763512Y-81593927D02*
G01*
X91912812Y-81623624D01*
X92076784Y-81691544D01*
X92224354Y-81790147D01*
X92349853Y-81915646D01*
X92448456Y-82063216D01*
X92516376Y-82227188D01*
X92551000Y-82401259D01*
X92551000Y-82578741D01*
X92516376Y-82752812D01*
X92448456Y-82916784D01*
X92349853Y-83064354D01*
X92224354Y-83189853D01*
X92076784Y-83288456D01*
X91912812Y-83356376D01*
X91763512Y-83386073D01*
X91738742Y-83391000D01*
X91561258Y-83391000D01*
X91536488Y-83386073D01*
X91387188Y-83356376D01*
X91223216Y-83288456D01*
X91075646Y-83189853D01*
X90950147Y-83064354D01*
X90851544Y-82916784D01*
X90783624Y-82752812D01*
X90749000Y-82578741D01*
X90749000Y-82401259D01*
X90783624Y-82227188D01*
X90851544Y-82063216D01*
X90950147Y-81915646D01*
X91075646Y-81790147D01*
X91223216Y-81691544D01*
X91387188Y-81623624D01*
X91536488Y-81593927D01*
X91561258Y-81589000D01*
X91738742Y-81589000D01*
X91763512Y-81593927D01*
G37*
G36*
X91763512Y-79053927D02*
G01*
X91912812Y-79083624D01*
X92076784Y-79151544D01*
X92224354Y-79250147D01*
X92349853Y-79375646D01*
X92448456Y-79523216D01*
X92516376Y-79687188D01*
X92551000Y-79861259D01*
X92551000Y-80038741D01*
X92516376Y-80212812D01*
X92448456Y-80376784D01*
X92349853Y-80524354D01*
X92224354Y-80649853D01*
X92076784Y-80748456D01*
X91912812Y-80816376D01*
X91763512Y-80846073D01*
X91738742Y-80851000D01*
X91561258Y-80851000D01*
X91536488Y-80846073D01*
X91387188Y-80816376D01*
X91223216Y-80748456D01*
X91075646Y-80649853D01*
X90950147Y-80524354D01*
X90851544Y-80376784D01*
X90783624Y-80212812D01*
X90749000Y-80038741D01*
X90749000Y-79861259D01*
X90783624Y-79687188D01*
X90851544Y-79523216D01*
X90950147Y-79375646D01*
X91075646Y-79250147D01*
X91223216Y-79151544D01*
X91387188Y-79083624D01*
X91536488Y-79053927D01*
X91561258Y-79049000D01*
X91738742Y-79049000D01*
X91763512Y-79053927D01*
G37*
G36*
X91763512Y-76513927D02*
G01*
X91912812Y-76543624D01*
X92076784Y-76611544D01*
X92224354Y-76710147D01*
X92349853Y-76835646D01*
X92448456Y-76983216D01*
X92516376Y-77147188D01*
X92551000Y-77321259D01*
X92551000Y-77498741D01*
X92516376Y-77672812D01*
X92448456Y-77836784D01*
X92349853Y-77984354D01*
X92224354Y-78109853D01*
X92076784Y-78208456D01*
X91912812Y-78276376D01*
X91763512Y-78306073D01*
X91738742Y-78311000D01*
X91561258Y-78311000D01*
X91536488Y-78306073D01*
X91387188Y-78276376D01*
X91223216Y-78208456D01*
X91075646Y-78109853D01*
X90950147Y-77984354D01*
X90851544Y-77836784D01*
X90783624Y-77672812D01*
X90749000Y-77498741D01*
X90749000Y-77321259D01*
X90783624Y-77147188D01*
X90851544Y-76983216D01*
X90950147Y-76835646D01*
X91075646Y-76710147D01*
X91223216Y-76611544D01*
X91387188Y-76543624D01*
X91536488Y-76513927D01*
X91561258Y-76509000D01*
X91738742Y-76509000D01*
X91763512Y-76513927D01*
G37*
G36*
X159952585Y-63128802D02*
G01*
X160102410Y-63158604D01*
X160384674Y-63275521D01*
X160638705Y-63445259D01*
X160854741Y-63661295D01*
X161024479Y-63915326D01*
X161116377Y-64137189D01*
X161141396Y-64197591D01*
X161201000Y-64497239D01*
X161201000Y-64802761D01*
X161171198Y-64952585D01*
X161141396Y-65102410D01*
X161024479Y-65384674D01*
X160854741Y-65638705D01*
X160638705Y-65854741D01*
X160384674Y-66024479D01*
X160102410Y-66141396D01*
X159952585Y-66171198D01*
X159802761Y-66201000D01*
X159497239Y-66201000D01*
X159347415Y-66171198D01*
X159197590Y-66141396D01*
X158915326Y-66024479D01*
X158661295Y-65854741D01*
X158445259Y-65638705D01*
X158275521Y-65384674D01*
X158158604Y-65102410D01*
X158128802Y-64952585D01*
X158099000Y-64802761D01*
X158099000Y-64497239D01*
X158158604Y-64197591D01*
X158183623Y-64137189D01*
X158275521Y-63915326D01*
X158445259Y-63661295D01*
X158661295Y-63445259D01*
X158915326Y-63275521D01*
X159197590Y-63158604D01*
X159347415Y-63128802D01*
X159497239Y-63099000D01*
X159802761Y-63099000D01*
X159952585Y-63128802D01*
G37*
G36*
X91952585Y-63128802D02*
G01*
X92102410Y-63158604D01*
X92384674Y-63275521D01*
X92638705Y-63445259D01*
X92854741Y-63661295D01*
X93024479Y-63915326D01*
X93116377Y-64137189D01*
X93141396Y-64197591D01*
X93201000Y-64497239D01*
X93201000Y-64802761D01*
X93171198Y-64952585D01*
X93141396Y-65102410D01*
X93024479Y-65384674D01*
X92854741Y-65638705D01*
X92638705Y-65854741D01*
X92384674Y-66024479D01*
X92102410Y-66141396D01*
X91952585Y-66171198D01*
X91802761Y-66201000D01*
X91497239Y-66201000D01*
X91347415Y-66171198D01*
X91197590Y-66141396D01*
X90915326Y-66024479D01*
X90661295Y-65854741D01*
X90445259Y-65638705D01*
X90275521Y-65384674D01*
X90158604Y-65102410D01*
X90128802Y-64952585D01*
X90099000Y-64802761D01*
X90099000Y-64497239D01*
X90158604Y-64197591D01*
X90183623Y-64137189D01*
X90275521Y-63915326D01*
X90445259Y-63661295D01*
X90661295Y-63445259D01*
X90915326Y-63275521D01*
X91197590Y-63158604D01*
X91347415Y-63128802D01*
X91497239Y-63099000D01*
X91802761Y-63099000D01*
X91952585Y-63128802D01*
G37*
G36*
X129383512Y-63503927D02*
G01*
X129532812Y-63533624D01*
X129696784Y-63601544D01*
X129844354Y-63700147D01*
X129969853Y-63825646D01*
X130068456Y-63973216D01*
X130136376Y-64137188D01*
X130166073Y-64286488D01*
X130171000Y-64311258D01*
X130171000Y-64488742D01*
X130166073Y-64513512D01*
X130136376Y-64662812D01*
X130068456Y-64826784D01*
X129969853Y-64974354D01*
X129844354Y-65099853D01*
X129696784Y-65198456D01*
X129532812Y-65266376D01*
X129383512Y-65296073D01*
X129358742Y-65301000D01*
X129181258Y-65301000D01*
X129156488Y-65296073D01*
X129007188Y-65266376D01*
X128843216Y-65198456D01*
X128695646Y-65099853D01*
X128570147Y-64974354D01*
X128471544Y-64826784D01*
X128403624Y-64662812D01*
X128373927Y-64513512D01*
X128369000Y-64488742D01*
X128369000Y-64311258D01*
X128373927Y-64286488D01*
X128403624Y-64137188D01*
X128471544Y-63973216D01*
X128570147Y-63825646D01*
X128695646Y-63700147D01*
X128843216Y-63601544D01*
X129007188Y-63533624D01*
X129156488Y-63503927D01*
X129181258Y-63499000D01*
X129358742Y-63499000D01*
X129383512Y-63503927D01*
G37*
G36*
X131923512Y-63503927D02*
G01*
X132072812Y-63533624D01*
X132236784Y-63601544D01*
X132384354Y-63700147D01*
X132509853Y-63825646D01*
X132608456Y-63973216D01*
X132676376Y-64137188D01*
X132706073Y-64286488D01*
X132711000Y-64311258D01*
X132711000Y-64488742D01*
X132706073Y-64513512D01*
X132676376Y-64662812D01*
X132608456Y-64826784D01*
X132509853Y-64974354D01*
X132384354Y-65099853D01*
X132236784Y-65198456D01*
X132072812Y-65266376D01*
X131923512Y-65296073D01*
X131898742Y-65301000D01*
X131721258Y-65301000D01*
X131696488Y-65296073D01*
X131547188Y-65266376D01*
X131383216Y-65198456D01*
X131235646Y-65099853D01*
X131110147Y-64974354D01*
X131011544Y-64826784D01*
X130943624Y-64662812D01*
X130913927Y-64513512D01*
X130909000Y-64488742D01*
X130909000Y-64311258D01*
X130913927Y-64286488D01*
X130943624Y-64137188D01*
X131011544Y-63973216D01*
X131110147Y-63825646D01*
X131235646Y-63700147D01*
X131383216Y-63601544D01*
X131547188Y-63533624D01*
X131696488Y-63503927D01*
X131721258Y-63499000D01*
X131898742Y-63499000D01*
X131923512Y-63503927D01*
G37*
G36*
X135251000Y-65301000D02*
G01*
X133449000Y-65301000D01*
X133449000Y-63499000D01*
X135251000Y-63499000D01*
X135251000Y-65301000D01*
G37*
M02*
