G04 #@! TF.GenerationSoftware,KiCad,Pcbnew,(5.1.5)-3*
G04 #@! TF.CreationDate,2020-08-27T07:53:39+02:00*
G04 #@! TF.ProjectId,licznik,6c69637a-6e69-46b2-9e6b-696361645f70,rev?*
G04 #@! TF.SameCoordinates,Original*
G04 #@! TF.FileFunction,Copper,L2,Bot*
G04 #@! TF.FilePolarity,Positive*
%FSLAX46Y46*%
G04 Gerber Fmt 4.6, Leading zero omitted, Abs format (unit mm)*
G04 Created by KiCad (PCBNEW (5.1.5)-3) date 2020-08-27 07:53:39*
%MOMM*%
%LPD*%
G04 APERTURE LIST*
%ADD10C,3.000000*%
%ADD11O,1.700000X1.700000*%
%ADD12C,1.700000*%
%ADD13R,1.700000X1.700000*%
%ADD14C,2.000000*%
%ADD15C,0.100000*%
%ADD16C,0.800000*%
%ADD17C,0.250000*%
%ADD18C,0.254000*%
G04 APERTURE END LIST*
D10*
X159650000Y-64650000D03*
X159650000Y-104650000D03*
X91650000Y-104650000D03*
X91650000Y-64650000D03*
D11*
X91650000Y-77410000D03*
X91650000Y-79950000D03*
X91650000Y-82490000D03*
X91650000Y-85030000D03*
X91650000Y-87570000D03*
X91650000Y-90110000D03*
D12*
X91650000Y-92650000D03*
D11*
X142015000Y-100225000D03*
X144555000Y-100225000D03*
X147095000Y-100225000D03*
X149635000Y-100225000D03*
D12*
X152175000Y-100225000D03*
D11*
X95980000Y-104400000D03*
X98520000Y-104400000D03*
X101060000Y-104400000D03*
D13*
X103600000Y-104400000D03*
D11*
X131600000Y-99620000D03*
X131600000Y-94540000D03*
D12*
X131600000Y-92000000D03*
D11*
X131600000Y-102160000D03*
X131600000Y-97080000D03*
X121600000Y-104740000D03*
X121600000Y-102200000D03*
X121600000Y-99660000D03*
X121600000Y-97120000D03*
X121600000Y-94580000D03*
X121600000Y-92040000D03*
D12*
X121600000Y-89500000D03*
D14*
X116050000Y-83600000D03*
X111550000Y-83600000D03*
X116050000Y-90100000D03*
X111550000Y-90100000D03*
D11*
X134910000Y-104325000D03*
D13*
X137450000Y-104325000D03*
D11*
X151825000Y-104325000D03*
D13*
X154365000Y-104325000D03*
D11*
X143410000Y-104325000D03*
D13*
X145950000Y-104325000D03*
D11*
X148755000Y-86000000D03*
X146215000Y-86000000D03*
D13*
X143675000Y-86000000D03*
D11*
X159750000Y-93285000D03*
X159750000Y-90745000D03*
X159750000Y-88205000D03*
X159750000Y-85665000D03*
D13*
X159750000Y-83125000D03*
G04 #@! TA.AperFunction,SMDPad,CuDef*
D15*
G36*
X128980142Y-96013674D02*
G01*
X129003803Y-96017184D01*
X129027007Y-96022996D01*
X129049529Y-96031054D01*
X129071153Y-96041282D01*
X129091670Y-96053579D01*
X129110883Y-96067829D01*
X129128607Y-96083893D01*
X129144671Y-96101617D01*
X129158921Y-96120830D01*
X129171218Y-96141347D01*
X129181446Y-96162971D01*
X129189504Y-96185493D01*
X129195316Y-96208697D01*
X129198826Y-96232358D01*
X129200000Y-96256250D01*
X129200000Y-96743750D01*
X129198826Y-96767642D01*
X129195316Y-96791303D01*
X129189504Y-96814507D01*
X129181446Y-96837029D01*
X129171218Y-96858653D01*
X129158921Y-96879170D01*
X129144671Y-96898383D01*
X129128607Y-96916107D01*
X129110883Y-96932171D01*
X129091670Y-96946421D01*
X129071153Y-96958718D01*
X129049529Y-96968946D01*
X129027007Y-96977004D01*
X129003803Y-96982816D01*
X128980142Y-96986326D01*
X128956250Y-96987500D01*
X128043750Y-96987500D01*
X128019858Y-96986326D01*
X127996197Y-96982816D01*
X127972993Y-96977004D01*
X127950471Y-96968946D01*
X127928847Y-96958718D01*
X127908330Y-96946421D01*
X127889117Y-96932171D01*
X127871393Y-96916107D01*
X127855329Y-96898383D01*
X127841079Y-96879170D01*
X127828782Y-96858653D01*
X127818554Y-96837029D01*
X127810496Y-96814507D01*
X127804684Y-96791303D01*
X127801174Y-96767642D01*
X127800000Y-96743750D01*
X127800000Y-96256250D01*
X127801174Y-96232358D01*
X127804684Y-96208697D01*
X127810496Y-96185493D01*
X127818554Y-96162971D01*
X127828782Y-96141347D01*
X127841079Y-96120830D01*
X127855329Y-96101617D01*
X127871393Y-96083893D01*
X127889117Y-96067829D01*
X127908330Y-96053579D01*
X127928847Y-96041282D01*
X127950471Y-96031054D01*
X127972993Y-96022996D01*
X127996197Y-96017184D01*
X128019858Y-96013674D01*
X128043750Y-96012500D01*
X128956250Y-96012500D01*
X128980142Y-96013674D01*
G37*
G04 #@! TD.AperFunction*
G04 #@! TA.AperFunction,SMDPad,CuDef*
G36*
X128980142Y-97888674D02*
G01*
X129003803Y-97892184D01*
X129027007Y-97897996D01*
X129049529Y-97906054D01*
X129071153Y-97916282D01*
X129091670Y-97928579D01*
X129110883Y-97942829D01*
X129128607Y-97958893D01*
X129144671Y-97976617D01*
X129158921Y-97995830D01*
X129171218Y-98016347D01*
X129181446Y-98037971D01*
X129189504Y-98060493D01*
X129195316Y-98083697D01*
X129198826Y-98107358D01*
X129200000Y-98131250D01*
X129200000Y-98618750D01*
X129198826Y-98642642D01*
X129195316Y-98666303D01*
X129189504Y-98689507D01*
X129181446Y-98712029D01*
X129171218Y-98733653D01*
X129158921Y-98754170D01*
X129144671Y-98773383D01*
X129128607Y-98791107D01*
X129110883Y-98807171D01*
X129091670Y-98821421D01*
X129071153Y-98833718D01*
X129049529Y-98843946D01*
X129027007Y-98852004D01*
X129003803Y-98857816D01*
X128980142Y-98861326D01*
X128956250Y-98862500D01*
X128043750Y-98862500D01*
X128019858Y-98861326D01*
X127996197Y-98857816D01*
X127972993Y-98852004D01*
X127950471Y-98843946D01*
X127928847Y-98833718D01*
X127908330Y-98821421D01*
X127889117Y-98807171D01*
X127871393Y-98791107D01*
X127855329Y-98773383D01*
X127841079Y-98754170D01*
X127828782Y-98733653D01*
X127818554Y-98712029D01*
X127810496Y-98689507D01*
X127804684Y-98666303D01*
X127801174Y-98642642D01*
X127800000Y-98618750D01*
X127800000Y-98131250D01*
X127801174Y-98107358D01*
X127804684Y-98083697D01*
X127810496Y-98060493D01*
X127818554Y-98037971D01*
X127828782Y-98016347D01*
X127841079Y-97995830D01*
X127855329Y-97976617D01*
X127871393Y-97958893D01*
X127889117Y-97942829D01*
X127908330Y-97928579D01*
X127928847Y-97916282D01*
X127950471Y-97906054D01*
X127972993Y-97897996D01*
X127996197Y-97892184D01*
X128019858Y-97888674D01*
X128043750Y-97887500D01*
X128956250Y-97887500D01*
X128980142Y-97888674D01*
G37*
G04 #@! TD.AperFunction*
G04 #@! TA.AperFunction,SMDPad,CuDef*
G36*
X125155142Y-96026174D02*
G01*
X125178803Y-96029684D01*
X125202007Y-96035496D01*
X125224529Y-96043554D01*
X125246153Y-96053782D01*
X125266670Y-96066079D01*
X125285883Y-96080329D01*
X125303607Y-96096393D01*
X125319671Y-96114117D01*
X125333921Y-96133330D01*
X125346218Y-96153847D01*
X125356446Y-96175471D01*
X125364504Y-96197993D01*
X125370316Y-96221197D01*
X125373826Y-96244858D01*
X125375000Y-96268750D01*
X125375000Y-96756250D01*
X125373826Y-96780142D01*
X125370316Y-96803803D01*
X125364504Y-96827007D01*
X125356446Y-96849529D01*
X125346218Y-96871153D01*
X125333921Y-96891670D01*
X125319671Y-96910883D01*
X125303607Y-96928607D01*
X125285883Y-96944671D01*
X125266670Y-96958921D01*
X125246153Y-96971218D01*
X125224529Y-96981446D01*
X125202007Y-96989504D01*
X125178803Y-96995316D01*
X125155142Y-96998826D01*
X125131250Y-97000000D01*
X124218750Y-97000000D01*
X124194858Y-96998826D01*
X124171197Y-96995316D01*
X124147993Y-96989504D01*
X124125471Y-96981446D01*
X124103847Y-96971218D01*
X124083330Y-96958921D01*
X124064117Y-96944671D01*
X124046393Y-96928607D01*
X124030329Y-96910883D01*
X124016079Y-96891670D01*
X124003782Y-96871153D01*
X123993554Y-96849529D01*
X123985496Y-96827007D01*
X123979684Y-96803803D01*
X123976174Y-96780142D01*
X123975000Y-96756250D01*
X123975000Y-96268750D01*
X123976174Y-96244858D01*
X123979684Y-96221197D01*
X123985496Y-96197993D01*
X123993554Y-96175471D01*
X124003782Y-96153847D01*
X124016079Y-96133330D01*
X124030329Y-96114117D01*
X124046393Y-96096393D01*
X124064117Y-96080329D01*
X124083330Y-96066079D01*
X124103847Y-96053782D01*
X124125471Y-96043554D01*
X124147993Y-96035496D01*
X124171197Y-96029684D01*
X124194858Y-96026174D01*
X124218750Y-96025000D01*
X125131250Y-96025000D01*
X125155142Y-96026174D01*
G37*
G04 #@! TD.AperFunction*
G04 #@! TA.AperFunction,SMDPad,CuDef*
G36*
X125155142Y-97901174D02*
G01*
X125178803Y-97904684D01*
X125202007Y-97910496D01*
X125224529Y-97918554D01*
X125246153Y-97928782D01*
X125266670Y-97941079D01*
X125285883Y-97955329D01*
X125303607Y-97971393D01*
X125319671Y-97989117D01*
X125333921Y-98008330D01*
X125346218Y-98028847D01*
X125356446Y-98050471D01*
X125364504Y-98072993D01*
X125370316Y-98096197D01*
X125373826Y-98119858D01*
X125375000Y-98143750D01*
X125375000Y-98631250D01*
X125373826Y-98655142D01*
X125370316Y-98678803D01*
X125364504Y-98702007D01*
X125356446Y-98724529D01*
X125346218Y-98746153D01*
X125333921Y-98766670D01*
X125319671Y-98785883D01*
X125303607Y-98803607D01*
X125285883Y-98819671D01*
X125266670Y-98833921D01*
X125246153Y-98846218D01*
X125224529Y-98856446D01*
X125202007Y-98864504D01*
X125178803Y-98870316D01*
X125155142Y-98873826D01*
X125131250Y-98875000D01*
X124218750Y-98875000D01*
X124194858Y-98873826D01*
X124171197Y-98870316D01*
X124147993Y-98864504D01*
X124125471Y-98856446D01*
X124103847Y-98846218D01*
X124083330Y-98833921D01*
X124064117Y-98819671D01*
X124046393Y-98803607D01*
X124030329Y-98785883D01*
X124016079Y-98766670D01*
X124003782Y-98746153D01*
X123993554Y-98724529D01*
X123985496Y-98702007D01*
X123979684Y-98678803D01*
X123976174Y-98655142D01*
X123975000Y-98631250D01*
X123975000Y-98143750D01*
X123976174Y-98119858D01*
X123979684Y-98096197D01*
X123985496Y-98072993D01*
X123993554Y-98050471D01*
X124003782Y-98028847D01*
X124016079Y-98008330D01*
X124030329Y-97989117D01*
X124046393Y-97971393D01*
X124064117Y-97955329D01*
X124083330Y-97941079D01*
X124103847Y-97928782D01*
X124125471Y-97918554D01*
X124147993Y-97910496D01*
X124171197Y-97904684D01*
X124194858Y-97901174D01*
X124218750Y-97900000D01*
X125131250Y-97900000D01*
X125155142Y-97901174D01*
G37*
G04 #@! TD.AperFunction*
D13*
X134350000Y-64400000D03*
D11*
X131810000Y-64400000D03*
X129270000Y-64400000D03*
D16*
X152275000Y-76275000D03*
X111925000Y-81650000D03*
X117700000Y-78375000D03*
X126074474Y-71151537D03*
X149550000Y-93575000D03*
X124978609Y-71579899D03*
X140600000Y-94975000D03*
X124065546Y-72075000D03*
X143375000Y-94075000D03*
X152300000Y-74075000D03*
X121900000Y-78925000D03*
X123725000Y-79925000D03*
X105750000Y-84750000D03*
X121700000Y-80850000D03*
X108500000Y-80875000D03*
X141325000Y-73825011D03*
X149850000Y-79775000D03*
X126425000Y-96550000D03*
X123500000Y-98225000D03*
X130000000Y-96500000D03*
X127225000Y-97825000D03*
X137100000Y-72300000D03*
X135725000Y-67875000D03*
X138200000Y-73375000D03*
X137533983Y-74120939D03*
X149800000Y-78450000D03*
X145200000Y-76825000D03*
X147274999Y-74999999D03*
X143025000Y-66625000D03*
X140650000Y-71925000D03*
X152300000Y-71875000D03*
X145275000Y-71050000D03*
X152325000Y-70775000D03*
X91750000Y-69100000D03*
X90850000Y-75200000D03*
X147325000Y-88850000D03*
X144525000Y-88775000D03*
X124650000Y-80850000D03*
X131950000Y-81625000D03*
X138325000Y-90300000D03*
X136075000Y-90275000D03*
D17*
X152275000Y-82480000D02*
X148755000Y-86000000D01*
X152275000Y-76275000D02*
X152275000Y-82480000D01*
X114100000Y-81650000D02*
X116050000Y-83600000D01*
X111925000Y-81650000D02*
X114100000Y-81650000D01*
X160925001Y-92109999D02*
X160599999Y-92435001D01*
X160925001Y-73638591D02*
X160925001Y-92109999D01*
X152111401Y-64824991D02*
X160925001Y-73638591D01*
X138138600Y-64824990D02*
X152111401Y-64824991D01*
X137013590Y-65950000D02*
X138138600Y-64824990D01*
X120275000Y-65950000D02*
X137013590Y-65950000D01*
X160599999Y-92435001D02*
X159750000Y-93285000D01*
X120275000Y-65950000D02*
X119450000Y-65950000D01*
X119450000Y-65950000D02*
X117700000Y-67700000D01*
X117700000Y-67700000D02*
X117700000Y-78375000D01*
X126074474Y-71151537D02*
X130647937Y-75725000D01*
X130647937Y-75725000D02*
X137475000Y-75725000D01*
X137475000Y-75725000D02*
X141600000Y-79850000D01*
X141600000Y-86210002D02*
X143139998Y-87750000D01*
X141600000Y-79850000D02*
X141600000Y-86210002D01*
X147298002Y-87750000D02*
X149550000Y-90001998D01*
X143139998Y-87750000D02*
X147298002Y-87750000D01*
X149550000Y-90001998D02*
X149550000Y-93575000D01*
X124978609Y-71579899D02*
X130223710Y-76825000D01*
X130223710Y-76825000D02*
X137125000Y-76825000D01*
X137125000Y-76825000D02*
X137125000Y-76850000D01*
X137125000Y-76850000D02*
X140600000Y-80325000D01*
X140600000Y-80325000D02*
X140600000Y-94975000D01*
X124065546Y-72075000D02*
X129890546Y-77900000D01*
X129890546Y-77900000D02*
X136525000Y-77900000D01*
X136525000Y-77900000D02*
X139450000Y-80825000D01*
X139450000Y-80825000D02*
X139450000Y-95500000D01*
X139450000Y-95500000D02*
X140225000Y-96275000D01*
X140225000Y-96275000D02*
X141175000Y-96275000D01*
X141175000Y-96275000D02*
X143375000Y-94075000D01*
X152300000Y-74075000D02*
X152699999Y-73675001D01*
X154650001Y-73675001D02*
X155699980Y-74724980D01*
X152699999Y-73675001D02*
X154650001Y-73675001D01*
X155699980Y-86694980D02*
X159750000Y-90745000D01*
X155699980Y-74724980D02*
X155699980Y-86694980D01*
X121900000Y-78925000D02*
X122725000Y-78925000D01*
X122725000Y-78925000D02*
X123725000Y-79925000D01*
X152175000Y-101427081D02*
X152175000Y-100225000D01*
X147687080Y-105915001D02*
X152175000Y-101427081D01*
X105750000Y-90629002D02*
X121035999Y-105915001D01*
X105750000Y-84750000D02*
X105750000Y-90629002D01*
X121035999Y-105915001D02*
X147687080Y-105915001D01*
X108525000Y-80850000D02*
X108500000Y-80875000D01*
X121700000Y-80850000D02*
X108525000Y-80850000D01*
X141724999Y-74225010D02*
X141724999Y-74899999D01*
X141325000Y-73825011D02*
X141724999Y-74225010D01*
X141724999Y-74899999D02*
X146625000Y-79800000D01*
X146625000Y-79800000D02*
X149825000Y-79800000D01*
X149825000Y-79800000D02*
X149850000Y-79775000D01*
X126425000Y-96550000D02*
X124712500Y-96550000D01*
X124712500Y-96550000D02*
X124675000Y-96512500D01*
X124512500Y-98225000D02*
X124675000Y-98387500D01*
X123500000Y-98225000D02*
X124512500Y-98225000D01*
X130000000Y-96500000D02*
X128500000Y-96500000D01*
X127950000Y-97825000D02*
X128500000Y-98375000D01*
X127225000Y-97825000D02*
X127950000Y-97825000D01*
X138511400Y-65725010D02*
X151738600Y-65725010D01*
X158900001Y-87355001D02*
X159750000Y-88205000D01*
X156149990Y-84604990D02*
X158900001Y-87355001D01*
X156149990Y-70136400D02*
X156149990Y-84604990D01*
X151738600Y-65725010D02*
X156149990Y-70136400D01*
X137100000Y-67136410D02*
X137318205Y-66918205D01*
X137100000Y-72300000D02*
X137100000Y-67136410D01*
X137318205Y-66918205D02*
X138511400Y-65725010D01*
X156600000Y-82515000D02*
X159750000Y-85665000D01*
X156600000Y-69950000D02*
X156600000Y-82515000D01*
X151925000Y-65275000D02*
X156600000Y-69950000D01*
X135725000Y-67875000D02*
X138325000Y-65275000D01*
X138325000Y-65275000D02*
X151925000Y-65275000D01*
X146215000Y-80690000D02*
X146215000Y-86000000D01*
X140075000Y-74550000D02*
X146215000Y-80690000D01*
X138200000Y-73375000D02*
X139375000Y-74550000D01*
X139375000Y-74550000D02*
X140075000Y-74550000D01*
X137625000Y-74125000D02*
X138650000Y-75150000D01*
X138650000Y-75150000D02*
X139750000Y-75150000D01*
X143675000Y-79075000D02*
X143675000Y-86000000D01*
X139750000Y-75150000D02*
X143675000Y-79075000D01*
X145200000Y-77390685D02*
X145200000Y-76825000D01*
X149800000Y-78450000D02*
X146259315Y-78450000D01*
X146259315Y-78450000D02*
X145200000Y-77390685D01*
X143025000Y-73300000D02*
X144724999Y-74999999D01*
X143025000Y-66625000D02*
X143025000Y-73300000D01*
X144724999Y-74999999D02*
X147274999Y-74999999D01*
X141049999Y-72324999D02*
X141049999Y-72399999D01*
X140650000Y-71925000D02*
X141049999Y-72324999D01*
X144749999Y-76099999D02*
X148175001Y-76099999D01*
X141049999Y-72399999D02*
X144749999Y-76099999D01*
X152300000Y-71975000D02*
X152300000Y-71875000D01*
X148175001Y-76099999D02*
X152300000Y-71975000D01*
X145275000Y-71050000D02*
X145840685Y-71050000D01*
X145840685Y-71050000D02*
X146115685Y-70775000D01*
X146115685Y-70775000D02*
X149500000Y-70775000D01*
X149500000Y-70775000D02*
X152325000Y-70775000D01*
X149100000Y-70775000D02*
X149500000Y-70775000D01*
X93100000Y-76450000D02*
X93100000Y-81040000D01*
X93100000Y-81040000D02*
X91650000Y-82490000D01*
X91750000Y-75100000D02*
X93100000Y-76450000D01*
X91750000Y-69100000D02*
X91750000Y-75100000D01*
X90850000Y-75200000D02*
X90034839Y-76015161D01*
X90034839Y-76015161D02*
X90034839Y-84616920D01*
X90034839Y-84616920D02*
X90447919Y-85030000D01*
X90447919Y-85030000D02*
X91650000Y-85030000D01*
X147325000Y-99995000D02*
X147095000Y-100225000D01*
X147325000Y-88850000D02*
X147325000Y-99995000D01*
X144525000Y-100195000D02*
X144555000Y-100225000D01*
X144525000Y-88775000D02*
X144525000Y-100195000D01*
X124650000Y-80850000D02*
X118675000Y-86825000D01*
X118675000Y-91655000D02*
X121600000Y-94580000D01*
X118675000Y-86825000D02*
X118675000Y-91655000D01*
X129475000Y-81625000D02*
X121600000Y-89500000D01*
X131950000Y-81625000D02*
X129475000Y-81625000D01*
X122449999Y-96270001D02*
X121600000Y-97120000D01*
X125355001Y-93364999D02*
X122449999Y-96270001D01*
X135260001Y-93364999D02*
X125355001Y-93364999D01*
X138325000Y-90300000D02*
X135260001Y-93364999D01*
X123365000Y-90275000D02*
X121600000Y-92040000D01*
X136075000Y-90275000D02*
X123365000Y-90275000D01*
D18*
G36*
X128116525Y-63453368D02*
G01*
X127954010Y-63696589D01*
X127842068Y-63966842D01*
X127785000Y-64253740D01*
X127785000Y-64546260D01*
X127842068Y-64833158D01*
X127954010Y-65103411D01*
X128011867Y-65190000D01*
X119487325Y-65190000D01*
X119450000Y-65186324D01*
X119412675Y-65190000D01*
X119412667Y-65190000D01*
X119301014Y-65200997D01*
X119157753Y-65244454D01*
X119025724Y-65315026D01*
X118909999Y-65409999D01*
X118886201Y-65438997D01*
X117189003Y-67136196D01*
X117159999Y-67159999D01*
X117114676Y-67215226D01*
X117065026Y-67275724D01*
X117017842Y-67363998D01*
X116994454Y-67407754D01*
X116950997Y-67551015D01*
X116940000Y-67662668D01*
X116940000Y-67662678D01*
X116936324Y-67700000D01*
X116940000Y-67737322D01*
X116940001Y-77671288D01*
X116896063Y-77715226D01*
X116782795Y-77884744D01*
X116704774Y-78073102D01*
X116665000Y-78273061D01*
X116665000Y-78476939D01*
X116704774Y-78676898D01*
X116782795Y-78865256D01*
X116896063Y-79034774D01*
X117040226Y-79178937D01*
X117209744Y-79292205D01*
X117398102Y-79370226D01*
X117598061Y-79410000D01*
X117801939Y-79410000D01*
X118001898Y-79370226D01*
X118190256Y-79292205D01*
X118359774Y-79178937D01*
X118503937Y-79034774D01*
X118617205Y-78865256D01*
X118695226Y-78676898D01*
X118735000Y-78476939D01*
X118735000Y-78273061D01*
X118695226Y-78073102D01*
X118617205Y-77884744D01*
X118503937Y-77715226D01*
X118460000Y-77671289D01*
X118460000Y-68014801D01*
X119764802Y-66710000D01*
X135815199Y-66710000D01*
X135685199Y-66840000D01*
X135623061Y-66840000D01*
X135423102Y-66879774D01*
X135234744Y-66957795D01*
X135065226Y-67071063D01*
X134921063Y-67215226D01*
X134807795Y-67384744D01*
X134729774Y-67573102D01*
X134690000Y-67773061D01*
X134690000Y-67976939D01*
X134729774Y-68176898D01*
X134807795Y-68365256D01*
X134921063Y-68534774D01*
X135065226Y-68678937D01*
X135234744Y-68792205D01*
X135423102Y-68870226D01*
X135623061Y-68910000D01*
X135826939Y-68910000D01*
X136026898Y-68870226D01*
X136215256Y-68792205D01*
X136340001Y-68708853D01*
X136340000Y-71596289D01*
X136296063Y-71640226D01*
X136182795Y-71809744D01*
X136104774Y-71998102D01*
X136065000Y-72198061D01*
X136065000Y-72401939D01*
X136104774Y-72601898D01*
X136182795Y-72790256D01*
X136296063Y-72959774D01*
X136440226Y-73103937D01*
X136609744Y-73217205D01*
X136798102Y-73295226D01*
X136881864Y-73311887D01*
X136874209Y-73317002D01*
X136730046Y-73461165D01*
X136616778Y-73630683D01*
X136538757Y-73819041D01*
X136498983Y-74019000D01*
X136498983Y-74222878D01*
X136538757Y-74422837D01*
X136616778Y-74611195D01*
X136730046Y-74780713D01*
X136874209Y-74924876D01*
X136934259Y-74965000D01*
X130962740Y-74965000D01*
X127109474Y-71111736D01*
X127109474Y-71049598D01*
X127069700Y-70849639D01*
X126991679Y-70661281D01*
X126878411Y-70491763D01*
X126734248Y-70347600D01*
X126564730Y-70234332D01*
X126376372Y-70156311D01*
X126176413Y-70116537D01*
X125972535Y-70116537D01*
X125772576Y-70156311D01*
X125584218Y-70234332D01*
X125414700Y-70347600D01*
X125270537Y-70491763D01*
X125216909Y-70572023D01*
X125080548Y-70544899D01*
X124876670Y-70544899D01*
X124676711Y-70584673D01*
X124488353Y-70662694D01*
X124318835Y-70775962D01*
X124174672Y-70920125D01*
X124094574Y-71040000D01*
X123963607Y-71040000D01*
X123763648Y-71079774D01*
X123575290Y-71157795D01*
X123405772Y-71271063D01*
X123261609Y-71415226D01*
X123148341Y-71584744D01*
X123070320Y-71773102D01*
X123030546Y-71973061D01*
X123030546Y-72176939D01*
X123070320Y-72376898D01*
X123148341Y-72565256D01*
X123261609Y-72734774D01*
X123405772Y-72878937D01*
X123575290Y-72992205D01*
X123763648Y-73070226D01*
X123963607Y-73110000D01*
X124025745Y-73110000D01*
X129326746Y-78411002D01*
X129350545Y-78440001D01*
X129379543Y-78463799D01*
X129466269Y-78534974D01*
X129520567Y-78563997D01*
X129598299Y-78605546D01*
X129741560Y-78649003D01*
X129853213Y-78660000D01*
X129853223Y-78660000D01*
X129890545Y-78663676D01*
X129927868Y-78660000D01*
X136210199Y-78660000D01*
X138690000Y-81139802D01*
X138690001Y-89330912D01*
X138626898Y-89304774D01*
X138426939Y-89265000D01*
X138223061Y-89265000D01*
X138023102Y-89304774D01*
X137834744Y-89382795D01*
X137665226Y-89496063D01*
X137521063Y-89640226D01*
X137407795Y-89809744D01*
X137329774Y-89998102D01*
X137290000Y-90198061D01*
X137290000Y-90260198D01*
X137094293Y-90455906D01*
X137110000Y-90376939D01*
X137110000Y-90173061D01*
X137070226Y-89973102D01*
X136992205Y-89784744D01*
X136878937Y-89615226D01*
X136734774Y-89471063D01*
X136565256Y-89357795D01*
X136376898Y-89279774D01*
X136176939Y-89240000D01*
X135973061Y-89240000D01*
X135773102Y-89279774D01*
X135584744Y-89357795D01*
X135415226Y-89471063D01*
X135371289Y-89515000D01*
X123402323Y-89515000D01*
X123365000Y-89511324D01*
X123327677Y-89515000D01*
X123327667Y-89515000D01*
X123216014Y-89525997D01*
X123085000Y-89565739D01*
X123085000Y-89353740D01*
X123041209Y-89133592D01*
X129789802Y-82385000D01*
X131246289Y-82385000D01*
X131290226Y-82428937D01*
X131459744Y-82542205D01*
X131648102Y-82620226D01*
X131848061Y-82660000D01*
X132051939Y-82660000D01*
X132251898Y-82620226D01*
X132440256Y-82542205D01*
X132609774Y-82428937D01*
X132753937Y-82284774D01*
X132867205Y-82115256D01*
X132945226Y-81926898D01*
X132985000Y-81726939D01*
X132985000Y-81523061D01*
X132945226Y-81323102D01*
X132867205Y-81134744D01*
X132753937Y-80965226D01*
X132609774Y-80821063D01*
X132440256Y-80707795D01*
X132251898Y-80629774D01*
X132051939Y-80590000D01*
X131848061Y-80590000D01*
X131648102Y-80629774D01*
X131459744Y-80707795D01*
X131290226Y-80821063D01*
X131246289Y-80865000D01*
X129512323Y-80865000D01*
X129475000Y-80861324D01*
X129437677Y-80865000D01*
X129437667Y-80865000D01*
X129326014Y-80875997D01*
X129182753Y-80919454D01*
X129050724Y-80990026D01*
X128934999Y-81084999D01*
X128911201Y-81113997D01*
X121966408Y-88058791D01*
X121746260Y-88015000D01*
X121453740Y-88015000D01*
X121166842Y-88072068D01*
X120896589Y-88184010D01*
X120653368Y-88346525D01*
X120446525Y-88553368D01*
X120284010Y-88796589D01*
X120172068Y-89066842D01*
X120115000Y-89353740D01*
X120115000Y-89646260D01*
X120172068Y-89933158D01*
X120284010Y-90203411D01*
X120446525Y-90446632D01*
X120653368Y-90653475D01*
X120827760Y-90770000D01*
X120653368Y-90886525D01*
X120446525Y-91093368D01*
X120284010Y-91336589D01*
X120172068Y-91606842D01*
X120115000Y-91893740D01*
X120115000Y-92020199D01*
X119435000Y-91340199D01*
X119435000Y-87139801D01*
X124689802Y-81885000D01*
X124751939Y-81885000D01*
X124951898Y-81845226D01*
X125140256Y-81767205D01*
X125309774Y-81653937D01*
X125453937Y-81509774D01*
X125567205Y-81340256D01*
X125645226Y-81151898D01*
X125685000Y-80951939D01*
X125685000Y-80748061D01*
X125645226Y-80548102D01*
X125567205Y-80359744D01*
X125453937Y-80190226D01*
X125309774Y-80046063D01*
X125140256Y-79932795D01*
X124951898Y-79854774D01*
X124758663Y-79816337D01*
X124720226Y-79623102D01*
X124642205Y-79434744D01*
X124528937Y-79265226D01*
X124384774Y-79121063D01*
X124215256Y-79007795D01*
X124026898Y-78929774D01*
X123826939Y-78890000D01*
X123764802Y-78890000D01*
X123288804Y-78414002D01*
X123265001Y-78384999D01*
X123149276Y-78290026D01*
X123017247Y-78219454D01*
X122873986Y-78175997D01*
X122762333Y-78165000D01*
X122762322Y-78165000D01*
X122725000Y-78161324D01*
X122687678Y-78165000D01*
X122603711Y-78165000D01*
X122559774Y-78121063D01*
X122390256Y-78007795D01*
X122201898Y-77929774D01*
X122001939Y-77890000D01*
X121798061Y-77890000D01*
X121598102Y-77929774D01*
X121409744Y-78007795D01*
X121240226Y-78121063D01*
X121096063Y-78265226D01*
X120982795Y-78434744D01*
X120904774Y-78623102D01*
X120865000Y-78823061D01*
X120865000Y-79026939D01*
X120904774Y-79226898D01*
X120982795Y-79415256D01*
X121096063Y-79584774D01*
X121240226Y-79728937D01*
X121409744Y-79842205D01*
X121426467Y-79849132D01*
X121398102Y-79854774D01*
X121209744Y-79932795D01*
X121040226Y-80046063D01*
X120996289Y-80090000D01*
X109178711Y-80090000D01*
X109159774Y-80071063D01*
X108990256Y-79957795D01*
X108801898Y-79879774D01*
X108601939Y-79840000D01*
X108398061Y-79840000D01*
X108198102Y-79879774D01*
X108009744Y-79957795D01*
X107840226Y-80071063D01*
X107696063Y-80215226D01*
X107582795Y-80384744D01*
X107504774Y-80573102D01*
X107465000Y-80773061D01*
X107465000Y-80976939D01*
X107504774Y-81176898D01*
X107582795Y-81365256D01*
X107696063Y-81534774D01*
X107840226Y-81678937D01*
X108009744Y-81792205D01*
X108198102Y-81870226D01*
X108398061Y-81910000D01*
X108601939Y-81910000D01*
X108801898Y-81870226D01*
X108990256Y-81792205D01*
X109159774Y-81678937D01*
X109228711Y-81610000D01*
X120996289Y-81610000D01*
X121040226Y-81653937D01*
X121209744Y-81767205D01*
X121398102Y-81845226D01*
X121598061Y-81885000D01*
X121801939Y-81885000D01*
X122001898Y-81845226D01*
X122190256Y-81767205D01*
X122359774Y-81653937D01*
X122503937Y-81509774D01*
X122617205Y-81340256D01*
X122695226Y-81151898D01*
X122735000Y-80951939D01*
X122735000Y-80748061D01*
X122695226Y-80548102D01*
X122617205Y-80359744D01*
X122503937Y-80190226D01*
X122359774Y-80046063D01*
X122190256Y-79932795D01*
X122173533Y-79925868D01*
X122201898Y-79920226D01*
X122390256Y-79842205D01*
X122496448Y-79771250D01*
X122690000Y-79964802D01*
X122690000Y-80026939D01*
X122729774Y-80226898D01*
X122807795Y-80415256D01*
X122921063Y-80584774D01*
X123065226Y-80728937D01*
X123234744Y-80842205D01*
X123423102Y-80920226D01*
X123491389Y-80933809D01*
X118164003Y-86261196D01*
X118134999Y-86284999D01*
X118079871Y-86352174D01*
X118040026Y-86400724D01*
X117978944Y-86515000D01*
X117969454Y-86532754D01*
X117925997Y-86676015D01*
X117915000Y-86787668D01*
X117915000Y-86787678D01*
X117911324Y-86825000D01*
X117915000Y-86862323D01*
X117915001Y-91617668D01*
X117911324Y-91655000D01*
X117915001Y-91692333D01*
X117925606Y-91800000D01*
X117925998Y-91803985D01*
X117969454Y-91947246D01*
X118040026Y-92079276D01*
X118092228Y-92142883D01*
X118135000Y-92195001D01*
X118163998Y-92218799D01*
X120158790Y-94213592D01*
X120115000Y-94433740D01*
X120115000Y-94726260D01*
X120172068Y-95013158D01*
X120284010Y-95283411D01*
X120446525Y-95526632D01*
X120653368Y-95733475D01*
X120827760Y-95850000D01*
X120653368Y-95966525D01*
X120446525Y-96173368D01*
X120284010Y-96416589D01*
X120172068Y-96686842D01*
X120115000Y-96973740D01*
X120115000Y-97266260D01*
X120172068Y-97553158D01*
X120284010Y-97823411D01*
X120446525Y-98066632D01*
X120653368Y-98273475D01*
X120835534Y-98395195D01*
X120718645Y-98464822D01*
X120502412Y-98659731D01*
X120328359Y-98893080D01*
X120203175Y-99155901D01*
X120158524Y-99303110D01*
X120279845Y-99533000D01*
X121473000Y-99533000D01*
X121473000Y-99513000D01*
X121727000Y-99513000D01*
X121727000Y-99533000D01*
X122920155Y-99533000D01*
X123041476Y-99303110D01*
X122996825Y-99155901D01*
X122981225Y-99123149D01*
X123009744Y-99142205D01*
X123198102Y-99220226D01*
X123398061Y-99260000D01*
X123601554Y-99260000D01*
X123728836Y-99364458D01*
X123881291Y-99445947D01*
X124046715Y-99496128D01*
X124218750Y-99513072D01*
X125131250Y-99513072D01*
X125303285Y-99496128D01*
X125468709Y-99445947D01*
X125621164Y-99364458D01*
X125754792Y-99254792D01*
X125864458Y-99121164D01*
X125945947Y-98968709D01*
X125996128Y-98803285D01*
X126013072Y-98631250D01*
X126013072Y-98143750D01*
X125996128Y-97971715D01*
X125945947Y-97806291D01*
X125864458Y-97653836D01*
X125754792Y-97520208D01*
X125669244Y-97450000D01*
X125754792Y-97379792D01*
X125772191Y-97358591D01*
X125934744Y-97467205D01*
X126123102Y-97545226D01*
X126221481Y-97564795D01*
X126190000Y-97723061D01*
X126190000Y-97926939D01*
X126229774Y-98126898D01*
X126307795Y-98315256D01*
X126421063Y-98484774D01*
X126565226Y-98628937D01*
X126734744Y-98742205D01*
X126923102Y-98820226D01*
X127123061Y-98860000D01*
X127199868Y-98860000D01*
X127229053Y-98956209D01*
X127310542Y-99108664D01*
X127420208Y-99242292D01*
X127553836Y-99351958D01*
X127706291Y-99433447D01*
X127871715Y-99483628D01*
X128043750Y-99500572D01*
X128956250Y-99500572D01*
X129128285Y-99483628D01*
X129293709Y-99433447D01*
X129446164Y-99351958D01*
X129579792Y-99242292D01*
X129689458Y-99108664D01*
X129770947Y-98956209D01*
X129821128Y-98790785D01*
X129838072Y-98618750D01*
X129838072Y-98131250D01*
X129821128Y-97959215D01*
X129770947Y-97793791D01*
X129689458Y-97641336D01*
X129579792Y-97507708D01*
X129494244Y-97437500D01*
X129515877Y-97419746D01*
X129698102Y-97495226D01*
X129898061Y-97535000D01*
X130101939Y-97535000D01*
X130175088Y-97520450D01*
X130284010Y-97783411D01*
X130446525Y-98026632D01*
X130653368Y-98233475D01*
X130827760Y-98350000D01*
X130653368Y-98466525D01*
X130446525Y-98673368D01*
X130284010Y-98916589D01*
X130172068Y-99186842D01*
X130115000Y-99473740D01*
X130115000Y-99766260D01*
X130172068Y-100053158D01*
X130284010Y-100323411D01*
X130446525Y-100566632D01*
X130653368Y-100773475D01*
X130827760Y-100890000D01*
X130653368Y-101006525D01*
X130446525Y-101213368D01*
X130284010Y-101456589D01*
X130172068Y-101726842D01*
X130115000Y-102013740D01*
X130115000Y-102306260D01*
X130172068Y-102593158D01*
X130284010Y-102863411D01*
X130446525Y-103106632D01*
X130653368Y-103313475D01*
X130896589Y-103475990D01*
X131166842Y-103587932D01*
X131453740Y-103645000D01*
X131746260Y-103645000D01*
X132033158Y-103587932D01*
X132303411Y-103475990D01*
X132546632Y-103313475D01*
X132753475Y-103106632D01*
X132915990Y-102863411D01*
X133027932Y-102593158D01*
X133085000Y-102306260D01*
X133085000Y-102013740D01*
X133027932Y-101726842D01*
X132915990Y-101456589D01*
X132753475Y-101213368D01*
X132546632Y-101006525D01*
X132372240Y-100890000D01*
X132546632Y-100773475D01*
X132753475Y-100566632D01*
X132915990Y-100323411D01*
X133027932Y-100053158D01*
X133085000Y-99766260D01*
X133085000Y-99473740D01*
X133027932Y-99186842D01*
X132915990Y-98916589D01*
X132753475Y-98673368D01*
X132546632Y-98466525D01*
X132372240Y-98350000D01*
X132546632Y-98233475D01*
X132753475Y-98026632D01*
X132915990Y-97783411D01*
X133027932Y-97513158D01*
X133085000Y-97226260D01*
X133085000Y-96933740D01*
X133027932Y-96646842D01*
X132915990Y-96376589D01*
X132753475Y-96133368D01*
X132546632Y-95926525D01*
X132372240Y-95810000D01*
X132546632Y-95693475D01*
X132753475Y-95486632D01*
X132915990Y-95243411D01*
X133027932Y-94973158D01*
X133085000Y-94686260D01*
X133085000Y-94393740D01*
X133031544Y-94124999D01*
X135222679Y-94124999D01*
X135260001Y-94128675D01*
X135297323Y-94124999D01*
X135297334Y-94124999D01*
X135408987Y-94114002D01*
X135552248Y-94070545D01*
X135684277Y-93999973D01*
X135800002Y-93905000D01*
X135823805Y-93875996D01*
X138364802Y-91335000D01*
X138426939Y-91335000D01*
X138626898Y-91295226D01*
X138690001Y-91269088D01*
X138690001Y-95462668D01*
X138686324Y-95500000D01*
X138690001Y-95537333D01*
X138700998Y-95648986D01*
X138714067Y-95692068D01*
X138744454Y-95792246D01*
X138815026Y-95924276D01*
X138885169Y-96009744D01*
X138910000Y-96040001D01*
X138938998Y-96063799D01*
X139661201Y-96786002D01*
X139684999Y-96815001D01*
X139713997Y-96838799D01*
X139800724Y-96909974D01*
X139932753Y-96980546D01*
X140076014Y-97024003D01*
X140225000Y-97038677D01*
X140262333Y-97035000D01*
X141137678Y-97035000D01*
X141175000Y-97038676D01*
X141212322Y-97035000D01*
X141212333Y-97035000D01*
X141323986Y-97024003D01*
X141467247Y-96980546D01*
X141599276Y-96909974D01*
X141715001Y-96815001D01*
X141738804Y-96785997D01*
X143414802Y-95110000D01*
X143476939Y-95110000D01*
X143676898Y-95070226D01*
X143765001Y-95033732D01*
X143765001Y-98966866D01*
X143608368Y-99071525D01*
X143401525Y-99278368D01*
X143285000Y-99452760D01*
X143168475Y-99278368D01*
X142961632Y-99071525D01*
X142718411Y-98909010D01*
X142448158Y-98797068D01*
X142161260Y-98740000D01*
X141868740Y-98740000D01*
X141581842Y-98797068D01*
X141311589Y-98909010D01*
X141068368Y-99071525D01*
X140861525Y-99278368D01*
X140699010Y-99521589D01*
X140587068Y-99791842D01*
X140530000Y-100078740D01*
X140530000Y-100371260D01*
X140587068Y-100658158D01*
X140699010Y-100928411D01*
X140861525Y-101171632D01*
X141068368Y-101378475D01*
X141311589Y-101540990D01*
X141581842Y-101652932D01*
X141868740Y-101710000D01*
X142161260Y-101710000D01*
X142448158Y-101652932D01*
X142718411Y-101540990D01*
X142961632Y-101378475D01*
X143168475Y-101171632D01*
X143285000Y-100997240D01*
X143401525Y-101171632D01*
X143608368Y-101378475D01*
X143851589Y-101540990D01*
X144121842Y-101652932D01*
X144408740Y-101710000D01*
X144701260Y-101710000D01*
X144988158Y-101652932D01*
X145258411Y-101540990D01*
X145501632Y-101378475D01*
X145708475Y-101171632D01*
X145825000Y-100997240D01*
X145941525Y-101171632D01*
X146148368Y-101378475D01*
X146391589Y-101540990D01*
X146661842Y-101652932D01*
X146948740Y-101710000D01*
X147241260Y-101710000D01*
X147528158Y-101652932D01*
X147798411Y-101540990D01*
X148041632Y-101378475D01*
X148248475Y-101171632D01*
X148370195Y-100989466D01*
X148439822Y-101106355D01*
X148634731Y-101322588D01*
X148868080Y-101496641D01*
X149130901Y-101621825D01*
X149278110Y-101666476D01*
X149508000Y-101545155D01*
X149508000Y-100352000D01*
X149488000Y-100352000D01*
X149488000Y-100098000D01*
X149508000Y-100098000D01*
X149508000Y-98904845D01*
X149278110Y-98783524D01*
X149130901Y-98828175D01*
X148868080Y-98953359D01*
X148634731Y-99127412D01*
X148439822Y-99343645D01*
X148370195Y-99460534D01*
X148248475Y-99278368D01*
X148085000Y-99114893D01*
X148085000Y-89611800D01*
X148790000Y-90316800D01*
X148790001Y-92871288D01*
X148746063Y-92915226D01*
X148632795Y-93084744D01*
X148554774Y-93273102D01*
X148515000Y-93473061D01*
X148515000Y-93676939D01*
X148554774Y-93876898D01*
X148632795Y-94065256D01*
X148746063Y-94234774D01*
X148890226Y-94378937D01*
X149059744Y-94492205D01*
X149248102Y-94570226D01*
X149448061Y-94610000D01*
X149651939Y-94610000D01*
X149851898Y-94570226D01*
X150040256Y-94492205D01*
X150209774Y-94378937D01*
X150353937Y-94234774D01*
X150467205Y-94065256D01*
X150545226Y-93876898D01*
X150585000Y-93676939D01*
X150585000Y-93473061D01*
X150545226Y-93273102D01*
X150467205Y-93084744D01*
X150353937Y-92915226D01*
X150310000Y-92871289D01*
X150310000Y-90039320D01*
X150313676Y-90001997D01*
X150310000Y-89964674D01*
X150310000Y-89964665D01*
X150299003Y-89853012D01*
X150255546Y-89709751D01*
X150231640Y-89665026D01*
X150184974Y-89577721D01*
X150113799Y-89490995D01*
X150090001Y-89461997D01*
X150061004Y-89438200D01*
X147861806Y-87239003D01*
X147838003Y-87209999D01*
X147722278Y-87115026D01*
X147590249Y-87044454D01*
X147446988Y-87000997D01*
X147335335Y-86990000D01*
X147335324Y-86990000D01*
X147326023Y-86989084D01*
X147368475Y-86946632D01*
X147490195Y-86764466D01*
X147559822Y-86881355D01*
X147754731Y-87097588D01*
X147988080Y-87271641D01*
X148250901Y-87396825D01*
X148398110Y-87441476D01*
X148628000Y-87320155D01*
X148628000Y-86127000D01*
X148882000Y-86127000D01*
X148882000Y-87320155D01*
X149111890Y-87441476D01*
X149259099Y-87396825D01*
X149521920Y-87271641D01*
X149755269Y-87097588D01*
X149950178Y-86881355D01*
X150099157Y-86631252D01*
X150196481Y-86356891D01*
X150075814Y-86127000D01*
X148882000Y-86127000D01*
X148628000Y-86127000D01*
X148608000Y-86127000D01*
X148608000Y-85873000D01*
X148628000Y-85873000D01*
X148628000Y-84679845D01*
X148882000Y-84679845D01*
X148882000Y-85873000D01*
X150075814Y-85873000D01*
X150196481Y-85643109D01*
X150099157Y-85368748D01*
X149950178Y-85118645D01*
X149755269Y-84902412D01*
X149521920Y-84728359D01*
X149259099Y-84603175D01*
X149111890Y-84558524D01*
X148882000Y-84679845D01*
X148628000Y-84679845D01*
X148398110Y-84558524D01*
X148250901Y-84603175D01*
X147988080Y-84728359D01*
X147754731Y-84902412D01*
X147559822Y-85118645D01*
X147490195Y-85235534D01*
X147368475Y-85053368D01*
X147161632Y-84846525D01*
X146975000Y-84721822D01*
X146975000Y-80727322D01*
X146978676Y-80689999D01*
X146975000Y-80652676D01*
X146975000Y-80652667D01*
X146965873Y-80560000D01*
X149171289Y-80560000D01*
X149190226Y-80578937D01*
X149359744Y-80692205D01*
X149548102Y-80770226D01*
X149748061Y-80810000D01*
X149951939Y-80810000D01*
X150151898Y-80770226D01*
X150340256Y-80692205D01*
X150509774Y-80578937D01*
X150653937Y-80434774D01*
X150767205Y-80265256D01*
X150845226Y-80076898D01*
X150885000Y-79876939D01*
X150885000Y-79673061D01*
X150845226Y-79473102D01*
X150767205Y-79284744D01*
X150653937Y-79115226D01*
X150621780Y-79083069D01*
X150717205Y-78940256D01*
X150795226Y-78751898D01*
X150835000Y-78551939D01*
X150835000Y-78348061D01*
X150795226Y-78148102D01*
X150717205Y-77959744D01*
X150603937Y-77790226D01*
X150459774Y-77646063D01*
X150290256Y-77532795D01*
X150101898Y-77454774D01*
X149901939Y-77415000D01*
X149698061Y-77415000D01*
X149498102Y-77454774D01*
X149309744Y-77532795D01*
X149140226Y-77646063D01*
X149096289Y-77690000D01*
X146574117Y-77690000D01*
X146141271Y-77257155D01*
X146195226Y-77126898D01*
X146235000Y-76926939D01*
X146235000Y-76859999D01*
X148137679Y-76859999D01*
X148175001Y-76863675D01*
X148212323Y-76859999D01*
X148212334Y-76859999D01*
X148323987Y-76849002D01*
X148467248Y-76805545D01*
X148599277Y-76734973D01*
X148715002Y-76640000D01*
X148738805Y-76610996D01*
X151265000Y-74084802D01*
X151265000Y-74176939D01*
X151304774Y-74376898D01*
X151382795Y-74565256D01*
X151496063Y-74734774D01*
X151640226Y-74878937D01*
X151809744Y-74992205D01*
X151998102Y-75070226D01*
X152198061Y-75110000D01*
X152401939Y-75110000D01*
X152601898Y-75070226D01*
X152790256Y-74992205D01*
X152959774Y-74878937D01*
X153103937Y-74734774D01*
X153217205Y-74565256D01*
X153271159Y-74435001D01*
X154335200Y-74435001D01*
X154939980Y-75039782D01*
X154939981Y-86657648D01*
X154936304Y-86694980D01*
X154939981Y-86732313D01*
X154950978Y-86843966D01*
X154962320Y-86881355D01*
X154994434Y-86987226D01*
X155065006Y-87119256D01*
X155119947Y-87186201D01*
X155159980Y-87234981D01*
X155188978Y-87258779D01*
X158308790Y-90378592D01*
X158265000Y-90598740D01*
X158265000Y-90891260D01*
X158322068Y-91178158D01*
X158434010Y-91448411D01*
X158596525Y-91691632D01*
X158803368Y-91898475D01*
X158977760Y-92015000D01*
X158803368Y-92131525D01*
X158596525Y-92338368D01*
X158434010Y-92581589D01*
X158322068Y-92851842D01*
X158265000Y-93138740D01*
X158265000Y-93431260D01*
X158322068Y-93718158D01*
X158434010Y-93988411D01*
X158596525Y-94231632D01*
X158803368Y-94438475D01*
X159046589Y-94600990D01*
X159316842Y-94712932D01*
X159603740Y-94770000D01*
X159896260Y-94770000D01*
X160183158Y-94712932D01*
X160453411Y-94600990D01*
X160696632Y-94438475D01*
X160903475Y-94231632D01*
X160990001Y-94102137D01*
X160990001Y-102977617D01*
X160661302Y-102757988D01*
X160272756Y-102597047D01*
X159860279Y-102515000D01*
X159439721Y-102515000D01*
X159027244Y-102597047D01*
X158638698Y-102757988D01*
X158289017Y-102991637D01*
X157991637Y-103289017D01*
X157757988Y-103638698D01*
X157597047Y-104027244D01*
X157515000Y-104439721D01*
X157515000Y-104860279D01*
X157597047Y-105272756D01*
X157757988Y-105661302D01*
X157979320Y-105992549D01*
X148677873Y-105999009D01*
X150340000Y-104336882D01*
X150340000Y-104471260D01*
X150397068Y-104758158D01*
X150509010Y-105028411D01*
X150671525Y-105271632D01*
X150878368Y-105478475D01*
X151121589Y-105640990D01*
X151391842Y-105752932D01*
X151678740Y-105810000D01*
X151971260Y-105810000D01*
X152258158Y-105752932D01*
X152528411Y-105640990D01*
X152771632Y-105478475D01*
X152903487Y-105346620D01*
X152925498Y-105419180D01*
X152984463Y-105529494D01*
X153063815Y-105626185D01*
X153160506Y-105705537D01*
X153270820Y-105764502D01*
X153390518Y-105800812D01*
X153515000Y-105813072D01*
X154079250Y-105810000D01*
X154238000Y-105651250D01*
X154238000Y-104452000D01*
X154492000Y-104452000D01*
X154492000Y-105651250D01*
X154650750Y-105810000D01*
X155215000Y-105813072D01*
X155339482Y-105800812D01*
X155459180Y-105764502D01*
X155569494Y-105705537D01*
X155666185Y-105626185D01*
X155745537Y-105529494D01*
X155804502Y-105419180D01*
X155840812Y-105299482D01*
X155853072Y-105175000D01*
X155850000Y-104610750D01*
X155691250Y-104452000D01*
X154492000Y-104452000D01*
X154238000Y-104452000D01*
X154218000Y-104452000D01*
X154218000Y-104198000D01*
X154238000Y-104198000D01*
X154238000Y-102998750D01*
X154492000Y-102998750D01*
X154492000Y-104198000D01*
X155691250Y-104198000D01*
X155850000Y-104039250D01*
X155853072Y-103475000D01*
X155840812Y-103350518D01*
X155804502Y-103230820D01*
X155745537Y-103120506D01*
X155666185Y-103023815D01*
X155569494Y-102944463D01*
X155459180Y-102885498D01*
X155339482Y-102849188D01*
X155215000Y-102836928D01*
X154650750Y-102840000D01*
X154492000Y-102998750D01*
X154238000Y-102998750D01*
X154079250Y-102840000D01*
X153515000Y-102836928D01*
X153390518Y-102849188D01*
X153270820Y-102885498D01*
X153160506Y-102944463D01*
X153063815Y-103023815D01*
X152984463Y-103120506D01*
X152925498Y-103230820D01*
X152903487Y-103303380D01*
X152771632Y-103171525D01*
X152528411Y-103009010D01*
X152258158Y-102897068D01*
X151971260Y-102840000D01*
X151836883Y-102840000D01*
X152686004Y-101990879D01*
X152715001Y-101967082D01*
X152809974Y-101851357D01*
X152880546Y-101719328D01*
X152924003Y-101576067D01*
X152930913Y-101505909D01*
X153121632Y-101378475D01*
X153328475Y-101171632D01*
X153490990Y-100928411D01*
X153602932Y-100658158D01*
X153660000Y-100371260D01*
X153660000Y-100078740D01*
X153602932Y-99791842D01*
X153490990Y-99521589D01*
X153328475Y-99278368D01*
X153121632Y-99071525D01*
X152878411Y-98909010D01*
X152608158Y-98797068D01*
X152321260Y-98740000D01*
X152028740Y-98740000D01*
X151741842Y-98797068D01*
X151471589Y-98909010D01*
X151228368Y-99071525D01*
X151021525Y-99278368D01*
X150899805Y-99460534D01*
X150830178Y-99343645D01*
X150635269Y-99127412D01*
X150401920Y-98953359D01*
X150139099Y-98828175D01*
X149991890Y-98783524D01*
X149762000Y-98904845D01*
X149762000Y-100098000D01*
X149782000Y-100098000D01*
X149782000Y-100352000D01*
X149762000Y-100352000D01*
X149762000Y-101545155D01*
X149991890Y-101666476D01*
X150139099Y-101621825D01*
X150401920Y-101496641D01*
X150635269Y-101322588D01*
X150830178Y-101106355D01*
X150899805Y-100989466D01*
X151021525Y-101171632D01*
X151188586Y-101338693D01*
X147437607Y-105089672D01*
X147435000Y-104610750D01*
X147276250Y-104452000D01*
X146077000Y-104452000D01*
X146077000Y-104472000D01*
X145823000Y-104472000D01*
X145823000Y-104452000D01*
X145803000Y-104452000D01*
X145803000Y-104198000D01*
X145823000Y-104198000D01*
X145823000Y-102998750D01*
X146077000Y-102998750D01*
X146077000Y-104198000D01*
X147276250Y-104198000D01*
X147435000Y-104039250D01*
X147438072Y-103475000D01*
X147425812Y-103350518D01*
X147389502Y-103230820D01*
X147330537Y-103120506D01*
X147251185Y-103023815D01*
X147154494Y-102944463D01*
X147044180Y-102885498D01*
X146924482Y-102849188D01*
X146800000Y-102836928D01*
X146235750Y-102840000D01*
X146077000Y-102998750D01*
X145823000Y-102998750D01*
X145664250Y-102840000D01*
X145100000Y-102836928D01*
X144975518Y-102849188D01*
X144855820Y-102885498D01*
X144745506Y-102944463D01*
X144648815Y-103023815D01*
X144569463Y-103120506D01*
X144510498Y-103230820D01*
X144488487Y-103303380D01*
X144356632Y-103171525D01*
X144113411Y-103009010D01*
X143843158Y-102897068D01*
X143556260Y-102840000D01*
X143263740Y-102840000D01*
X142976842Y-102897068D01*
X142706589Y-103009010D01*
X142463368Y-103171525D01*
X142256525Y-103378368D01*
X142094010Y-103621589D01*
X141982068Y-103891842D01*
X141925000Y-104178740D01*
X141925000Y-104471260D01*
X141982068Y-104758158D01*
X142094010Y-105028411D01*
X142178595Y-105155001D01*
X138937963Y-105155001D01*
X138935000Y-104610750D01*
X138776250Y-104452000D01*
X137577000Y-104452000D01*
X137577000Y-104472000D01*
X137323000Y-104472000D01*
X137323000Y-104452000D01*
X137303000Y-104452000D01*
X137303000Y-104198000D01*
X137323000Y-104198000D01*
X137323000Y-102998750D01*
X137577000Y-102998750D01*
X137577000Y-104198000D01*
X138776250Y-104198000D01*
X138935000Y-104039250D01*
X138938072Y-103475000D01*
X138925812Y-103350518D01*
X138889502Y-103230820D01*
X138830537Y-103120506D01*
X138751185Y-103023815D01*
X138654494Y-102944463D01*
X138544180Y-102885498D01*
X138424482Y-102849188D01*
X138300000Y-102836928D01*
X137735750Y-102840000D01*
X137577000Y-102998750D01*
X137323000Y-102998750D01*
X137164250Y-102840000D01*
X136600000Y-102836928D01*
X136475518Y-102849188D01*
X136355820Y-102885498D01*
X136245506Y-102944463D01*
X136148815Y-103023815D01*
X136069463Y-103120506D01*
X136010498Y-103230820D01*
X135988487Y-103303380D01*
X135856632Y-103171525D01*
X135613411Y-103009010D01*
X135343158Y-102897068D01*
X135056260Y-102840000D01*
X134763740Y-102840000D01*
X134476842Y-102897068D01*
X134206589Y-103009010D01*
X133963368Y-103171525D01*
X133756525Y-103378368D01*
X133594010Y-103621589D01*
X133482068Y-103891842D01*
X133425000Y-104178740D01*
X133425000Y-104471260D01*
X133482068Y-104758158D01*
X133594010Y-105028411D01*
X133678595Y-105155001D01*
X123031544Y-105155001D01*
X123085000Y-104886260D01*
X123085000Y-104593740D01*
X123027932Y-104306842D01*
X122915990Y-104036589D01*
X122753475Y-103793368D01*
X122546632Y-103586525D01*
X122372240Y-103470000D01*
X122546632Y-103353475D01*
X122753475Y-103146632D01*
X122915990Y-102903411D01*
X123027932Y-102633158D01*
X123085000Y-102346260D01*
X123085000Y-102053740D01*
X123027932Y-101766842D01*
X122915990Y-101496589D01*
X122753475Y-101253368D01*
X122546632Y-101046525D01*
X122364466Y-100924805D01*
X122481355Y-100855178D01*
X122697588Y-100660269D01*
X122871641Y-100426920D01*
X122996825Y-100164099D01*
X123041476Y-100016890D01*
X122920155Y-99787000D01*
X121727000Y-99787000D01*
X121727000Y-99807000D01*
X121473000Y-99807000D01*
X121473000Y-99787000D01*
X120279845Y-99787000D01*
X120158524Y-100016890D01*
X120203175Y-100164099D01*
X120328359Y-100426920D01*
X120502412Y-100660269D01*
X120718645Y-100855178D01*
X120835534Y-100924805D01*
X120653368Y-101046525D01*
X120446525Y-101253368D01*
X120284010Y-101496589D01*
X120172068Y-101766842D01*
X120115000Y-102053740D01*
X120115000Y-102346260D01*
X120172068Y-102633158D01*
X120284010Y-102903411D01*
X120446525Y-103146632D01*
X120653368Y-103353475D01*
X120827760Y-103470000D01*
X120653368Y-103586525D01*
X120446525Y-103793368D01*
X120284010Y-104036589D01*
X120268891Y-104073091D01*
X106510000Y-90314201D01*
X106510000Y-89938967D01*
X109915000Y-89938967D01*
X109915000Y-90261033D01*
X109977832Y-90576912D01*
X110101082Y-90874463D01*
X110280013Y-91142252D01*
X110507748Y-91369987D01*
X110775537Y-91548918D01*
X111073088Y-91672168D01*
X111388967Y-91735000D01*
X111711033Y-91735000D01*
X112026912Y-91672168D01*
X112324463Y-91548918D01*
X112592252Y-91369987D01*
X112726826Y-91235413D01*
X115094192Y-91235413D01*
X115189956Y-91499814D01*
X115479571Y-91640704D01*
X115791108Y-91722384D01*
X116112595Y-91741718D01*
X116431675Y-91697961D01*
X116736088Y-91592795D01*
X116910044Y-91499814D01*
X117005808Y-91235413D01*
X116050000Y-90279605D01*
X115094192Y-91235413D01*
X112726826Y-91235413D01*
X112819987Y-91142252D01*
X112998918Y-90874463D01*
X113122168Y-90576912D01*
X113185000Y-90261033D01*
X113185000Y-90162595D01*
X114408282Y-90162595D01*
X114452039Y-90481675D01*
X114557205Y-90786088D01*
X114650186Y-90960044D01*
X114914587Y-91055808D01*
X115870395Y-90100000D01*
X116229605Y-90100000D01*
X117185413Y-91055808D01*
X117449814Y-90960044D01*
X117590704Y-90670429D01*
X117672384Y-90358892D01*
X117691718Y-90037405D01*
X117647961Y-89718325D01*
X117542795Y-89413912D01*
X117449814Y-89239956D01*
X117185413Y-89144192D01*
X116229605Y-90100000D01*
X115870395Y-90100000D01*
X114914587Y-89144192D01*
X114650186Y-89239956D01*
X114509296Y-89529571D01*
X114427616Y-89841108D01*
X114408282Y-90162595D01*
X113185000Y-90162595D01*
X113185000Y-89938967D01*
X113122168Y-89623088D01*
X112998918Y-89325537D01*
X112819987Y-89057748D01*
X112726826Y-88964587D01*
X115094192Y-88964587D01*
X116050000Y-89920395D01*
X117005808Y-88964587D01*
X116910044Y-88700186D01*
X116620429Y-88559296D01*
X116308892Y-88477616D01*
X115987405Y-88458282D01*
X115668325Y-88502039D01*
X115363912Y-88607205D01*
X115189956Y-88700186D01*
X115094192Y-88964587D01*
X112726826Y-88964587D01*
X112592252Y-88830013D01*
X112324463Y-88651082D01*
X112026912Y-88527832D01*
X111711033Y-88465000D01*
X111388967Y-88465000D01*
X111073088Y-88527832D01*
X110775537Y-88651082D01*
X110507748Y-88830013D01*
X110280013Y-89057748D01*
X110101082Y-89325537D01*
X109977832Y-89623088D01*
X109915000Y-89938967D01*
X106510000Y-89938967D01*
X106510000Y-85453711D01*
X106553937Y-85409774D01*
X106667205Y-85240256D01*
X106745226Y-85051898D01*
X106785000Y-84851939D01*
X106785000Y-84648061D01*
X106745226Y-84448102D01*
X106667205Y-84259744D01*
X106553937Y-84090226D01*
X106409774Y-83946063D01*
X106240256Y-83832795D01*
X106051898Y-83754774D01*
X105851939Y-83715000D01*
X105648061Y-83715000D01*
X105448102Y-83754774D01*
X105259744Y-83832795D01*
X105090226Y-83946063D01*
X104946063Y-84090226D01*
X104832795Y-84259744D01*
X104754774Y-84448102D01*
X104715000Y-84648061D01*
X104715000Y-84851939D01*
X104754774Y-85051898D01*
X104832795Y-85240256D01*
X104946063Y-85409774D01*
X104990000Y-85453711D01*
X104990001Y-90591670D01*
X104986324Y-90629002D01*
X104990001Y-90666335D01*
X105000998Y-90777988D01*
X105011013Y-90811003D01*
X105044454Y-90921248D01*
X105115026Y-91053278D01*
X105165680Y-91114999D01*
X105210000Y-91169003D01*
X105238998Y-91192801D01*
X120065075Y-106018879D01*
X93281868Y-106037478D01*
X93308363Y-106010983D01*
X93542012Y-105661302D01*
X93702953Y-105272756D01*
X93785000Y-104860279D01*
X93785000Y-104756891D01*
X94538519Y-104756891D01*
X94635843Y-105031252D01*
X94784822Y-105281355D01*
X94979731Y-105497588D01*
X95213080Y-105671641D01*
X95475901Y-105796825D01*
X95623110Y-105841476D01*
X95853000Y-105720155D01*
X95853000Y-104527000D01*
X94659186Y-104527000D01*
X94538519Y-104756891D01*
X93785000Y-104756891D01*
X93785000Y-104439721D01*
X93706109Y-104043109D01*
X94538519Y-104043109D01*
X94659186Y-104273000D01*
X95853000Y-104273000D01*
X95853000Y-103079845D01*
X96107000Y-103079845D01*
X96107000Y-104273000D01*
X96127000Y-104273000D01*
X96127000Y-104527000D01*
X96107000Y-104527000D01*
X96107000Y-105720155D01*
X96336890Y-105841476D01*
X96484099Y-105796825D01*
X96746920Y-105671641D01*
X96980269Y-105497588D01*
X97175178Y-105281355D01*
X97244805Y-105164466D01*
X97366525Y-105346632D01*
X97573368Y-105553475D01*
X97816589Y-105715990D01*
X98086842Y-105827932D01*
X98373740Y-105885000D01*
X98666260Y-105885000D01*
X98953158Y-105827932D01*
X99223411Y-105715990D01*
X99466632Y-105553475D01*
X99673475Y-105346632D01*
X99790000Y-105172240D01*
X99906525Y-105346632D01*
X100113368Y-105553475D01*
X100356589Y-105715990D01*
X100626842Y-105827932D01*
X100913740Y-105885000D01*
X101206260Y-105885000D01*
X101493158Y-105827932D01*
X101763411Y-105715990D01*
X102006632Y-105553475D01*
X102138487Y-105421620D01*
X102160498Y-105494180D01*
X102219463Y-105604494D01*
X102298815Y-105701185D01*
X102395506Y-105780537D01*
X102505820Y-105839502D01*
X102625518Y-105875812D01*
X102750000Y-105888072D01*
X104450000Y-105888072D01*
X104574482Y-105875812D01*
X104694180Y-105839502D01*
X104804494Y-105780537D01*
X104901185Y-105701185D01*
X104980537Y-105604494D01*
X105039502Y-105494180D01*
X105075812Y-105374482D01*
X105088072Y-105250000D01*
X105088072Y-103550000D01*
X105075812Y-103425518D01*
X105039502Y-103305820D01*
X104980537Y-103195506D01*
X104901185Y-103098815D01*
X104804494Y-103019463D01*
X104694180Y-102960498D01*
X104574482Y-102924188D01*
X104450000Y-102911928D01*
X102750000Y-102911928D01*
X102625518Y-102924188D01*
X102505820Y-102960498D01*
X102395506Y-103019463D01*
X102298815Y-103098815D01*
X102219463Y-103195506D01*
X102160498Y-103305820D01*
X102138487Y-103378380D01*
X102006632Y-103246525D01*
X101763411Y-103084010D01*
X101493158Y-102972068D01*
X101206260Y-102915000D01*
X100913740Y-102915000D01*
X100626842Y-102972068D01*
X100356589Y-103084010D01*
X100113368Y-103246525D01*
X99906525Y-103453368D01*
X99790000Y-103627760D01*
X99673475Y-103453368D01*
X99466632Y-103246525D01*
X99223411Y-103084010D01*
X98953158Y-102972068D01*
X98666260Y-102915000D01*
X98373740Y-102915000D01*
X98086842Y-102972068D01*
X97816589Y-103084010D01*
X97573368Y-103246525D01*
X97366525Y-103453368D01*
X97244805Y-103635534D01*
X97175178Y-103518645D01*
X96980269Y-103302412D01*
X96746920Y-103128359D01*
X96484099Y-103003175D01*
X96336890Y-102958524D01*
X96107000Y-103079845D01*
X95853000Y-103079845D01*
X95623110Y-102958524D01*
X95475901Y-103003175D01*
X95213080Y-103128359D01*
X94979731Y-103302412D01*
X94784822Y-103518645D01*
X94635843Y-103768748D01*
X94538519Y-104043109D01*
X93706109Y-104043109D01*
X93702953Y-104027244D01*
X93542012Y-103638698D01*
X93308363Y-103289017D01*
X93010983Y-102991637D01*
X92661302Y-102757988D01*
X92272756Y-102597047D01*
X91860279Y-102515000D01*
X91439721Y-102515000D01*
X91027244Y-102597047D01*
X90638698Y-102757988D01*
X90314228Y-102974792D01*
X90324780Y-93678397D01*
X90801208Y-93678397D01*
X90878843Y-93927472D01*
X91142883Y-94053371D01*
X91426411Y-94125339D01*
X91718531Y-94140611D01*
X92008019Y-94098599D01*
X92283747Y-94000919D01*
X92421157Y-93927472D01*
X92498792Y-93678397D01*
X91650000Y-92829605D01*
X90801208Y-93678397D01*
X90324780Y-93678397D01*
X90325173Y-93332561D01*
X90372528Y-93421157D01*
X90621603Y-93498792D01*
X91470395Y-92650000D01*
X91829605Y-92650000D01*
X92678397Y-93498792D01*
X92927472Y-93421157D01*
X93053371Y-93157117D01*
X93125339Y-92873589D01*
X93140611Y-92581469D01*
X93098599Y-92291981D01*
X93000919Y-92016253D01*
X92927472Y-91878843D01*
X92678397Y-91801208D01*
X91829605Y-92650000D01*
X91470395Y-92650000D01*
X90621603Y-91801208D01*
X90372528Y-91878843D01*
X90326714Y-91974926D01*
X90328049Y-90799019D01*
X90334010Y-90813411D01*
X90496525Y-91056632D01*
X90703368Y-91263475D01*
X90876729Y-91379311D01*
X90801208Y-91621603D01*
X91650000Y-92470395D01*
X92498792Y-91621603D01*
X92423271Y-91379311D01*
X92596632Y-91263475D01*
X92803475Y-91056632D01*
X92965990Y-90813411D01*
X93077932Y-90543158D01*
X93135000Y-90256260D01*
X93135000Y-89963740D01*
X93077932Y-89676842D01*
X92965990Y-89406589D01*
X92803475Y-89163368D01*
X92596632Y-88956525D01*
X92422240Y-88840000D01*
X92596632Y-88723475D01*
X92803475Y-88516632D01*
X92965990Y-88273411D01*
X93077932Y-88003158D01*
X93135000Y-87716260D01*
X93135000Y-87423740D01*
X93077932Y-87136842D01*
X92965990Y-86866589D01*
X92803475Y-86623368D01*
X92596632Y-86416525D01*
X92422240Y-86300000D01*
X92596632Y-86183475D01*
X92803475Y-85976632D01*
X92965990Y-85733411D01*
X93077932Y-85463158D01*
X93135000Y-85176260D01*
X93135000Y-84883740D01*
X93077932Y-84596842D01*
X92965990Y-84326589D01*
X92803475Y-84083368D01*
X92596632Y-83876525D01*
X92422240Y-83760000D01*
X92596632Y-83643475D01*
X92801140Y-83438967D01*
X109915000Y-83438967D01*
X109915000Y-83761033D01*
X109977832Y-84076912D01*
X110101082Y-84374463D01*
X110280013Y-84642252D01*
X110507748Y-84869987D01*
X110775537Y-85048918D01*
X111073088Y-85172168D01*
X111388967Y-85235000D01*
X111711033Y-85235000D01*
X112026912Y-85172168D01*
X112324463Y-85048918D01*
X112592252Y-84869987D01*
X112726826Y-84735413D01*
X115094192Y-84735413D01*
X115189956Y-84999814D01*
X115479571Y-85140704D01*
X115791108Y-85222384D01*
X116112595Y-85241718D01*
X116431675Y-85197961D01*
X116736088Y-85092795D01*
X116910044Y-84999814D01*
X117005808Y-84735413D01*
X116050000Y-83779605D01*
X115094192Y-84735413D01*
X112726826Y-84735413D01*
X112819987Y-84642252D01*
X112998918Y-84374463D01*
X113122168Y-84076912D01*
X113185000Y-83761033D01*
X113185000Y-83662595D01*
X114408282Y-83662595D01*
X114452039Y-83981675D01*
X114557205Y-84286088D01*
X114650186Y-84460044D01*
X114914587Y-84555808D01*
X115870395Y-83600000D01*
X116229605Y-83600000D01*
X117185413Y-84555808D01*
X117449814Y-84460044D01*
X117590704Y-84170429D01*
X117672384Y-83858892D01*
X117691718Y-83537405D01*
X117647961Y-83218325D01*
X117542795Y-82913912D01*
X117449814Y-82739956D01*
X117185413Y-82644192D01*
X116229605Y-83600000D01*
X115870395Y-83600000D01*
X114914587Y-82644192D01*
X114650186Y-82739956D01*
X114509296Y-83029571D01*
X114427616Y-83341108D01*
X114408282Y-83662595D01*
X113185000Y-83662595D01*
X113185000Y-83438967D01*
X113122168Y-83123088D01*
X112998918Y-82825537D01*
X112819987Y-82557748D01*
X112726826Y-82464587D01*
X115094192Y-82464587D01*
X116050000Y-83420395D01*
X117005808Y-82464587D01*
X116910044Y-82200186D01*
X116620429Y-82059296D01*
X116308892Y-81977616D01*
X115987405Y-81958282D01*
X115668325Y-82002039D01*
X115363912Y-82107205D01*
X115189956Y-82200186D01*
X115094192Y-82464587D01*
X112726826Y-82464587D01*
X112592252Y-82330013D01*
X112324463Y-82151082D01*
X112026912Y-82027832D01*
X111711033Y-81965000D01*
X111388967Y-81965000D01*
X111073088Y-82027832D01*
X110775537Y-82151082D01*
X110507748Y-82330013D01*
X110280013Y-82557748D01*
X110101082Y-82825537D01*
X109977832Y-83123088D01*
X109915000Y-83438967D01*
X92801140Y-83438967D01*
X92803475Y-83436632D01*
X92965990Y-83193411D01*
X93077932Y-82923158D01*
X93135000Y-82636260D01*
X93135000Y-82343740D01*
X93091210Y-82123592D01*
X93611003Y-81603799D01*
X93640001Y-81580001D01*
X93734974Y-81464276D01*
X93805546Y-81332247D01*
X93849003Y-81188986D01*
X93860000Y-81077333D01*
X93860000Y-81077325D01*
X93863676Y-81040000D01*
X93860000Y-81002675D01*
X93860000Y-76487322D01*
X93863676Y-76449999D01*
X93860000Y-76412676D01*
X93860000Y-76412667D01*
X93849003Y-76301014D01*
X93805546Y-76157753D01*
X93734974Y-76025724D01*
X93640001Y-75909999D01*
X93611004Y-75886202D01*
X92510000Y-74785199D01*
X92510000Y-69803711D01*
X92553937Y-69759774D01*
X92667205Y-69590256D01*
X92745226Y-69401898D01*
X92785000Y-69201939D01*
X92785000Y-68998061D01*
X92745226Y-68798102D01*
X92667205Y-68609744D01*
X92553937Y-68440226D01*
X92409774Y-68296063D01*
X92240256Y-68182795D01*
X92051898Y-68104774D01*
X91851939Y-68065000D01*
X91648061Y-68065000D01*
X91448102Y-68104774D01*
X91259744Y-68182795D01*
X91090226Y-68296063D01*
X90946063Y-68440226D01*
X90832795Y-68609744D01*
X90754774Y-68798102D01*
X90715000Y-68998061D01*
X90715000Y-69201939D01*
X90754774Y-69401898D01*
X90832795Y-69590256D01*
X90946063Y-69759774D01*
X90990000Y-69803711D01*
X90990001Y-74172571D01*
X90951939Y-74165000D01*
X90748061Y-74165000D01*
X90548102Y-74204774D01*
X90359744Y-74282795D01*
X90346786Y-74291453D01*
X90355797Y-66352984D01*
X90638698Y-66542012D01*
X91027244Y-66702953D01*
X91439721Y-66785000D01*
X91860279Y-66785000D01*
X92272756Y-66702953D01*
X92661302Y-66542012D01*
X93010983Y-66308363D01*
X93308363Y-66010983D01*
X93542012Y-65661302D01*
X93702953Y-65272756D01*
X93785000Y-64860279D01*
X93785000Y-64439721D01*
X93702953Y-64027244D01*
X93542012Y-63638698D01*
X93322383Y-63310000D01*
X128259893Y-63310000D01*
X128116525Y-63453368D01*
G37*
X128116525Y-63453368D02*
X127954010Y-63696589D01*
X127842068Y-63966842D01*
X127785000Y-64253740D01*
X127785000Y-64546260D01*
X127842068Y-64833158D01*
X127954010Y-65103411D01*
X128011867Y-65190000D01*
X119487325Y-65190000D01*
X119450000Y-65186324D01*
X119412675Y-65190000D01*
X119412667Y-65190000D01*
X119301014Y-65200997D01*
X119157753Y-65244454D01*
X119025724Y-65315026D01*
X118909999Y-65409999D01*
X118886201Y-65438997D01*
X117189003Y-67136196D01*
X117159999Y-67159999D01*
X117114676Y-67215226D01*
X117065026Y-67275724D01*
X117017842Y-67363998D01*
X116994454Y-67407754D01*
X116950997Y-67551015D01*
X116940000Y-67662668D01*
X116940000Y-67662678D01*
X116936324Y-67700000D01*
X116940000Y-67737322D01*
X116940001Y-77671288D01*
X116896063Y-77715226D01*
X116782795Y-77884744D01*
X116704774Y-78073102D01*
X116665000Y-78273061D01*
X116665000Y-78476939D01*
X116704774Y-78676898D01*
X116782795Y-78865256D01*
X116896063Y-79034774D01*
X117040226Y-79178937D01*
X117209744Y-79292205D01*
X117398102Y-79370226D01*
X117598061Y-79410000D01*
X117801939Y-79410000D01*
X118001898Y-79370226D01*
X118190256Y-79292205D01*
X118359774Y-79178937D01*
X118503937Y-79034774D01*
X118617205Y-78865256D01*
X118695226Y-78676898D01*
X118735000Y-78476939D01*
X118735000Y-78273061D01*
X118695226Y-78073102D01*
X118617205Y-77884744D01*
X118503937Y-77715226D01*
X118460000Y-77671289D01*
X118460000Y-68014801D01*
X119764802Y-66710000D01*
X135815199Y-66710000D01*
X135685199Y-66840000D01*
X135623061Y-66840000D01*
X135423102Y-66879774D01*
X135234744Y-66957795D01*
X135065226Y-67071063D01*
X134921063Y-67215226D01*
X134807795Y-67384744D01*
X134729774Y-67573102D01*
X134690000Y-67773061D01*
X134690000Y-67976939D01*
X134729774Y-68176898D01*
X134807795Y-68365256D01*
X134921063Y-68534774D01*
X135065226Y-68678937D01*
X135234744Y-68792205D01*
X135423102Y-68870226D01*
X135623061Y-68910000D01*
X135826939Y-68910000D01*
X136026898Y-68870226D01*
X136215256Y-68792205D01*
X136340001Y-68708853D01*
X136340000Y-71596289D01*
X136296063Y-71640226D01*
X136182795Y-71809744D01*
X136104774Y-71998102D01*
X136065000Y-72198061D01*
X136065000Y-72401939D01*
X136104774Y-72601898D01*
X136182795Y-72790256D01*
X136296063Y-72959774D01*
X136440226Y-73103937D01*
X136609744Y-73217205D01*
X136798102Y-73295226D01*
X136881864Y-73311887D01*
X136874209Y-73317002D01*
X136730046Y-73461165D01*
X136616778Y-73630683D01*
X136538757Y-73819041D01*
X136498983Y-74019000D01*
X136498983Y-74222878D01*
X136538757Y-74422837D01*
X136616778Y-74611195D01*
X136730046Y-74780713D01*
X136874209Y-74924876D01*
X136934259Y-74965000D01*
X130962740Y-74965000D01*
X127109474Y-71111736D01*
X127109474Y-71049598D01*
X127069700Y-70849639D01*
X126991679Y-70661281D01*
X126878411Y-70491763D01*
X126734248Y-70347600D01*
X126564730Y-70234332D01*
X126376372Y-70156311D01*
X126176413Y-70116537D01*
X125972535Y-70116537D01*
X125772576Y-70156311D01*
X125584218Y-70234332D01*
X125414700Y-70347600D01*
X125270537Y-70491763D01*
X125216909Y-70572023D01*
X125080548Y-70544899D01*
X124876670Y-70544899D01*
X124676711Y-70584673D01*
X124488353Y-70662694D01*
X124318835Y-70775962D01*
X124174672Y-70920125D01*
X124094574Y-71040000D01*
X123963607Y-71040000D01*
X123763648Y-71079774D01*
X123575290Y-71157795D01*
X123405772Y-71271063D01*
X123261609Y-71415226D01*
X123148341Y-71584744D01*
X123070320Y-71773102D01*
X123030546Y-71973061D01*
X123030546Y-72176939D01*
X123070320Y-72376898D01*
X123148341Y-72565256D01*
X123261609Y-72734774D01*
X123405772Y-72878937D01*
X123575290Y-72992205D01*
X123763648Y-73070226D01*
X123963607Y-73110000D01*
X124025745Y-73110000D01*
X129326746Y-78411002D01*
X129350545Y-78440001D01*
X129379543Y-78463799D01*
X129466269Y-78534974D01*
X129520567Y-78563997D01*
X129598299Y-78605546D01*
X129741560Y-78649003D01*
X129853213Y-78660000D01*
X129853223Y-78660000D01*
X129890545Y-78663676D01*
X129927868Y-78660000D01*
X136210199Y-78660000D01*
X138690000Y-81139802D01*
X138690001Y-89330912D01*
X138626898Y-89304774D01*
X138426939Y-89265000D01*
X138223061Y-89265000D01*
X138023102Y-89304774D01*
X137834744Y-89382795D01*
X137665226Y-89496063D01*
X137521063Y-89640226D01*
X137407795Y-89809744D01*
X137329774Y-89998102D01*
X137290000Y-90198061D01*
X137290000Y-90260198D01*
X137094293Y-90455906D01*
X137110000Y-90376939D01*
X137110000Y-90173061D01*
X137070226Y-89973102D01*
X136992205Y-89784744D01*
X136878937Y-89615226D01*
X136734774Y-89471063D01*
X136565256Y-89357795D01*
X136376898Y-89279774D01*
X136176939Y-89240000D01*
X135973061Y-89240000D01*
X135773102Y-89279774D01*
X135584744Y-89357795D01*
X135415226Y-89471063D01*
X135371289Y-89515000D01*
X123402323Y-89515000D01*
X123365000Y-89511324D01*
X123327677Y-89515000D01*
X123327667Y-89515000D01*
X123216014Y-89525997D01*
X123085000Y-89565739D01*
X123085000Y-89353740D01*
X123041209Y-89133592D01*
X129789802Y-82385000D01*
X131246289Y-82385000D01*
X131290226Y-82428937D01*
X131459744Y-82542205D01*
X131648102Y-82620226D01*
X131848061Y-82660000D01*
X132051939Y-82660000D01*
X132251898Y-82620226D01*
X132440256Y-82542205D01*
X132609774Y-82428937D01*
X132753937Y-82284774D01*
X132867205Y-82115256D01*
X132945226Y-81926898D01*
X132985000Y-81726939D01*
X132985000Y-81523061D01*
X132945226Y-81323102D01*
X132867205Y-81134744D01*
X132753937Y-80965226D01*
X132609774Y-80821063D01*
X132440256Y-80707795D01*
X132251898Y-80629774D01*
X132051939Y-80590000D01*
X131848061Y-80590000D01*
X131648102Y-80629774D01*
X131459744Y-80707795D01*
X131290226Y-80821063D01*
X131246289Y-80865000D01*
X129512323Y-80865000D01*
X129475000Y-80861324D01*
X129437677Y-80865000D01*
X129437667Y-80865000D01*
X129326014Y-80875997D01*
X129182753Y-80919454D01*
X129050724Y-80990026D01*
X128934999Y-81084999D01*
X128911201Y-81113997D01*
X121966408Y-88058791D01*
X121746260Y-88015000D01*
X121453740Y-88015000D01*
X121166842Y-88072068D01*
X120896589Y-88184010D01*
X120653368Y-88346525D01*
X120446525Y-88553368D01*
X120284010Y-88796589D01*
X120172068Y-89066842D01*
X120115000Y-89353740D01*
X120115000Y-89646260D01*
X120172068Y-89933158D01*
X120284010Y-90203411D01*
X120446525Y-90446632D01*
X120653368Y-90653475D01*
X120827760Y-90770000D01*
X120653368Y-90886525D01*
X120446525Y-91093368D01*
X120284010Y-91336589D01*
X120172068Y-91606842D01*
X120115000Y-91893740D01*
X120115000Y-92020199D01*
X119435000Y-91340199D01*
X119435000Y-87139801D01*
X124689802Y-81885000D01*
X124751939Y-81885000D01*
X124951898Y-81845226D01*
X125140256Y-81767205D01*
X125309774Y-81653937D01*
X125453937Y-81509774D01*
X125567205Y-81340256D01*
X125645226Y-81151898D01*
X125685000Y-80951939D01*
X125685000Y-80748061D01*
X125645226Y-80548102D01*
X125567205Y-80359744D01*
X125453937Y-80190226D01*
X125309774Y-80046063D01*
X125140256Y-79932795D01*
X124951898Y-79854774D01*
X124758663Y-79816337D01*
X124720226Y-79623102D01*
X124642205Y-79434744D01*
X124528937Y-79265226D01*
X124384774Y-79121063D01*
X124215256Y-79007795D01*
X124026898Y-78929774D01*
X123826939Y-78890000D01*
X123764802Y-78890000D01*
X123288804Y-78414002D01*
X123265001Y-78384999D01*
X123149276Y-78290026D01*
X123017247Y-78219454D01*
X122873986Y-78175997D01*
X122762333Y-78165000D01*
X122762322Y-78165000D01*
X122725000Y-78161324D01*
X122687678Y-78165000D01*
X122603711Y-78165000D01*
X122559774Y-78121063D01*
X122390256Y-78007795D01*
X122201898Y-77929774D01*
X122001939Y-77890000D01*
X121798061Y-77890000D01*
X121598102Y-77929774D01*
X121409744Y-78007795D01*
X121240226Y-78121063D01*
X121096063Y-78265226D01*
X120982795Y-78434744D01*
X120904774Y-78623102D01*
X120865000Y-78823061D01*
X120865000Y-79026939D01*
X120904774Y-79226898D01*
X120982795Y-79415256D01*
X121096063Y-79584774D01*
X121240226Y-79728937D01*
X121409744Y-79842205D01*
X121426467Y-79849132D01*
X121398102Y-79854774D01*
X121209744Y-79932795D01*
X121040226Y-80046063D01*
X120996289Y-80090000D01*
X109178711Y-80090000D01*
X109159774Y-80071063D01*
X108990256Y-79957795D01*
X108801898Y-79879774D01*
X108601939Y-79840000D01*
X108398061Y-79840000D01*
X108198102Y-79879774D01*
X108009744Y-79957795D01*
X107840226Y-80071063D01*
X107696063Y-80215226D01*
X107582795Y-80384744D01*
X107504774Y-80573102D01*
X107465000Y-80773061D01*
X107465000Y-80976939D01*
X107504774Y-81176898D01*
X107582795Y-81365256D01*
X107696063Y-81534774D01*
X107840226Y-81678937D01*
X108009744Y-81792205D01*
X108198102Y-81870226D01*
X108398061Y-81910000D01*
X108601939Y-81910000D01*
X108801898Y-81870226D01*
X108990256Y-81792205D01*
X109159774Y-81678937D01*
X109228711Y-81610000D01*
X120996289Y-81610000D01*
X121040226Y-81653937D01*
X121209744Y-81767205D01*
X121398102Y-81845226D01*
X121598061Y-81885000D01*
X121801939Y-81885000D01*
X122001898Y-81845226D01*
X122190256Y-81767205D01*
X122359774Y-81653937D01*
X122503937Y-81509774D01*
X122617205Y-81340256D01*
X122695226Y-81151898D01*
X122735000Y-80951939D01*
X122735000Y-80748061D01*
X122695226Y-80548102D01*
X122617205Y-80359744D01*
X122503937Y-80190226D01*
X122359774Y-80046063D01*
X122190256Y-79932795D01*
X122173533Y-79925868D01*
X122201898Y-79920226D01*
X122390256Y-79842205D01*
X122496448Y-79771250D01*
X122690000Y-79964802D01*
X122690000Y-80026939D01*
X122729774Y-80226898D01*
X122807795Y-80415256D01*
X122921063Y-80584774D01*
X123065226Y-80728937D01*
X123234744Y-80842205D01*
X123423102Y-80920226D01*
X123491389Y-80933809D01*
X118164003Y-86261196D01*
X118134999Y-86284999D01*
X118079871Y-86352174D01*
X118040026Y-86400724D01*
X117978944Y-86515000D01*
X117969454Y-86532754D01*
X117925997Y-86676015D01*
X117915000Y-86787668D01*
X117915000Y-86787678D01*
X117911324Y-86825000D01*
X117915000Y-86862323D01*
X117915001Y-91617668D01*
X117911324Y-91655000D01*
X117915001Y-91692333D01*
X117925606Y-91800000D01*
X117925998Y-91803985D01*
X117969454Y-91947246D01*
X118040026Y-92079276D01*
X118092228Y-92142883D01*
X118135000Y-92195001D01*
X118163998Y-92218799D01*
X120158790Y-94213592D01*
X120115000Y-94433740D01*
X120115000Y-94726260D01*
X120172068Y-95013158D01*
X120284010Y-95283411D01*
X120446525Y-95526632D01*
X120653368Y-95733475D01*
X120827760Y-95850000D01*
X120653368Y-95966525D01*
X120446525Y-96173368D01*
X120284010Y-96416589D01*
X120172068Y-96686842D01*
X120115000Y-96973740D01*
X120115000Y-97266260D01*
X120172068Y-97553158D01*
X120284010Y-97823411D01*
X120446525Y-98066632D01*
X120653368Y-98273475D01*
X120835534Y-98395195D01*
X120718645Y-98464822D01*
X120502412Y-98659731D01*
X120328359Y-98893080D01*
X120203175Y-99155901D01*
X120158524Y-99303110D01*
X120279845Y-99533000D01*
X121473000Y-99533000D01*
X121473000Y-99513000D01*
X121727000Y-99513000D01*
X121727000Y-99533000D01*
X122920155Y-99533000D01*
X123041476Y-99303110D01*
X122996825Y-99155901D01*
X122981225Y-99123149D01*
X123009744Y-99142205D01*
X123198102Y-99220226D01*
X123398061Y-99260000D01*
X123601554Y-99260000D01*
X123728836Y-99364458D01*
X123881291Y-99445947D01*
X124046715Y-99496128D01*
X124218750Y-99513072D01*
X125131250Y-99513072D01*
X125303285Y-99496128D01*
X125468709Y-99445947D01*
X125621164Y-99364458D01*
X125754792Y-99254792D01*
X125864458Y-99121164D01*
X125945947Y-98968709D01*
X125996128Y-98803285D01*
X126013072Y-98631250D01*
X126013072Y-98143750D01*
X125996128Y-97971715D01*
X125945947Y-97806291D01*
X125864458Y-97653836D01*
X125754792Y-97520208D01*
X125669244Y-97450000D01*
X125754792Y-97379792D01*
X125772191Y-97358591D01*
X125934744Y-97467205D01*
X126123102Y-97545226D01*
X126221481Y-97564795D01*
X126190000Y-97723061D01*
X126190000Y-97926939D01*
X126229774Y-98126898D01*
X126307795Y-98315256D01*
X126421063Y-98484774D01*
X126565226Y-98628937D01*
X126734744Y-98742205D01*
X126923102Y-98820226D01*
X127123061Y-98860000D01*
X127199868Y-98860000D01*
X127229053Y-98956209D01*
X127310542Y-99108664D01*
X127420208Y-99242292D01*
X127553836Y-99351958D01*
X127706291Y-99433447D01*
X127871715Y-99483628D01*
X128043750Y-99500572D01*
X128956250Y-99500572D01*
X129128285Y-99483628D01*
X129293709Y-99433447D01*
X129446164Y-99351958D01*
X129579792Y-99242292D01*
X129689458Y-99108664D01*
X129770947Y-98956209D01*
X129821128Y-98790785D01*
X129838072Y-98618750D01*
X129838072Y-98131250D01*
X129821128Y-97959215D01*
X129770947Y-97793791D01*
X129689458Y-97641336D01*
X129579792Y-97507708D01*
X129494244Y-97437500D01*
X129515877Y-97419746D01*
X129698102Y-97495226D01*
X129898061Y-97535000D01*
X130101939Y-97535000D01*
X130175088Y-97520450D01*
X130284010Y-97783411D01*
X130446525Y-98026632D01*
X130653368Y-98233475D01*
X130827760Y-98350000D01*
X130653368Y-98466525D01*
X130446525Y-98673368D01*
X130284010Y-98916589D01*
X130172068Y-99186842D01*
X130115000Y-99473740D01*
X130115000Y-99766260D01*
X130172068Y-100053158D01*
X130284010Y-100323411D01*
X130446525Y-100566632D01*
X130653368Y-100773475D01*
X130827760Y-100890000D01*
X130653368Y-101006525D01*
X130446525Y-101213368D01*
X130284010Y-101456589D01*
X130172068Y-101726842D01*
X130115000Y-102013740D01*
X130115000Y-102306260D01*
X130172068Y-102593158D01*
X130284010Y-102863411D01*
X130446525Y-103106632D01*
X130653368Y-103313475D01*
X130896589Y-103475990D01*
X131166842Y-103587932D01*
X131453740Y-103645000D01*
X131746260Y-103645000D01*
X132033158Y-103587932D01*
X132303411Y-103475990D01*
X132546632Y-103313475D01*
X132753475Y-103106632D01*
X132915990Y-102863411D01*
X133027932Y-102593158D01*
X133085000Y-102306260D01*
X133085000Y-102013740D01*
X133027932Y-101726842D01*
X132915990Y-101456589D01*
X132753475Y-101213368D01*
X132546632Y-101006525D01*
X132372240Y-100890000D01*
X132546632Y-100773475D01*
X132753475Y-100566632D01*
X132915990Y-100323411D01*
X133027932Y-100053158D01*
X133085000Y-99766260D01*
X133085000Y-99473740D01*
X133027932Y-99186842D01*
X132915990Y-98916589D01*
X132753475Y-98673368D01*
X132546632Y-98466525D01*
X132372240Y-98350000D01*
X132546632Y-98233475D01*
X132753475Y-98026632D01*
X132915990Y-97783411D01*
X133027932Y-97513158D01*
X133085000Y-97226260D01*
X133085000Y-96933740D01*
X133027932Y-96646842D01*
X132915990Y-96376589D01*
X132753475Y-96133368D01*
X132546632Y-95926525D01*
X132372240Y-95810000D01*
X132546632Y-95693475D01*
X132753475Y-95486632D01*
X132915990Y-95243411D01*
X133027932Y-94973158D01*
X133085000Y-94686260D01*
X133085000Y-94393740D01*
X133031544Y-94124999D01*
X135222679Y-94124999D01*
X135260001Y-94128675D01*
X135297323Y-94124999D01*
X135297334Y-94124999D01*
X135408987Y-94114002D01*
X135552248Y-94070545D01*
X135684277Y-93999973D01*
X135800002Y-93905000D01*
X135823805Y-93875996D01*
X138364802Y-91335000D01*
X138426939Y-91335000D01*
X138626898Y-91295226D01*
X138690001Y-91269088D01*
X138690001Y-95462668D01*
X138686324Y-95500000D01*
X138690001Y-95537333D01*
X138700998Y-95648986D01*
X138714067Y-95692068D01*
X138744454Y-95792246D01*
X138815026Y-95924276D01*
X138885169Y-96009744D01*
X138910000Y-96040001D01*
X138938998Y-96063799D01*
X139661201Y-96786002D01*
X139684999Y-96815001D01*
X139713997Y-96838799D01*
X139800724Y-96909974D01*
X139932753Y-96980546D01*
X140076014Y-97024003D01*
X140225000Y-97038677D01*
X140262333Y-97035000D01*
X141137678Y-97035000D01*
X141175000Y-97038676D01*
X141212322Y-97035000D01*
X141212333Y-97035000D01*
X141323986Y-97024003D01*
X141467247Y-96980546D01*
X141599276Y-96909974D01*
X141715001Y-96815001D01*
X141738804Y-96785997D01*
X143414802Y-95110000D01*
X143476939Y-95110000D01*
X143676898Y-95070226D01*
X143765001Y-95033732D01*
X143765001Y-98966866D01*
X143608368Y-99071525D01*
X143401525Y-99278368D01*
X143285000Y-99452760D01*
X143168475Y-99278368D01*
X142961632Y-99071525D01*
X142718411Y-98909010D01*
X142448158Y-98797068D01*
X142161260Y-98740000D01*
X141868740Y-98740000D01*
X141581842Y-98797068D01*
X141311589Y-98909010D01*
X141068368Y-99071525D01*
X140861525Y-99278368D01*
X140699010Y-99521589D01*
X140587068Y-99791842D01*
X140530000Y-100078740D01*
X140530000Y-100371260D01*
X140587068Y-100658158D01*
X140699010Y-100928411D01*
X140861525Y-101171632D01*
X141068368Y-101378475D01*
X141311589Y-101540990D01*
X141581842Y-101652932D01*
X141868740Y-101710000D01*
X142161260Y-101710000D01*
X142448158Y-101652932D01*
X142718411Y-101540990D01*
X142961632Y-101378475D01*
X143168475Y-101171632D01*
X143285000Y-100997240D01*
X143401525Y-101171632D01*
X143608368Y-101378475D01*
X143851589Y-101540990D01*
X144121842Y-101652932D01*
X144408740Y-101710000D01*
X144701260Y-101710000D01*
X144988158Y-101652932D01*
X145258411Y-101540990D01*
X145501632Y-101378475D01*
X145708475Y-101171632D01*
X145825000Y-100997240D01*
X145941525Y-101171632D01*
X146148368Y-101378475D01*
X146391589Y-101540990D01*
X146661842Y-101652932D01*
X146948740Y-101710000D01*
X147241260Y-101710000D01*
X147528158Y-101652932D01*
X147798411Y-101540990D01*
X148041632Y-101378475D01*
X148248475Y-101171632D01*
X148370195Y-100989466D01*
X148439822Y-101106355D01*
X148634731Y-101322588D01*
X148868080Y-101496641D01*
X149130901Y-101621825D01*
X149278110Y-101666476D01*
X149508000Y-101545155D01*
X149508000Y-100352000D01*
X149488000Y-100352000D01*
X149488000Y-100098000D01*
X149508000Y-100098000D01*
X149508000Y-98904845D01*
X149278110Y-98783524D01*
X149130901Y-98828175D01*
X148868080Y-98953359D01*
X148634731Y-99127412D01*
X148439822Y-99343645D01*
X148370195Y-99460534D01*
X148248475Y-99278368D01*
X148085000Y-99114893D01*
X148085000Y-89611800D01*
X148790000Y-90316800D01*
X148790001Y-92871288D01*
X148746063Y-92915226D01*
X148632795Y-93084744D01*
X148554774Y-93273102D01*
X148515000Y-93473061D01*
X148515000Y-93676939D01*
X148554774Y-93876898D01*
X148632795Y-94065256D01*
X148746063Y-94234774D01*
X148890226Y-94378937D01*
X149059744Y-94492205D01*
X149248102Y-94570226D01*
X149448061Y-94610000D01*
X149651939Y-94610000D01*
X149851898Y-94570226D01*
X150040256Y-94492205D01*
X150209774Y-94378937D01*
X150353937Y-94234774D01*
X150467205Y-94065256D01*
X150545226Y-93876898D01*
X150585000Y-93676939D01*
X150585000Y-93473061D01*
X150545226Y-93273102D01*
X150467205Y-93084744D01*
X150353937Y-92915226D01*
X150310000Y-92871289D01*
X150310000Y-90039320D01*
X150313676Y-90001997D01*
X150310000Y-89964674D01*
X150310000Y-89964665D01*
X150299003Y-89853012D01*
X150255546Y-89709751D01*
X150231640Y-89665026D01*
X150184974Y-89577721D01*
X150113799Y-89490995D01*
X150090001Y-89461997D01*
X150061004Y-89438200D01*
X147861806Y-87239003D01*
X147838003Y-87209999D01*
X147722278Y-87115026D01*
X147590249Y-87044454D01*
X147446988Y-87000997D01*
X147335335Y-86990000D01*
X147335324Y-86990000D01*
X147326023Y-86989084D01*
X147368475Y-86946632D01*
X147490195Y-86764466D01*
X147559822Y-86881355D01*
X147754731Y-87097588D01*
X147988080Y-87271641D01*
X148250901Y-87396825D01*
X148398110Y-87441476D01*
X148628000Y-87320155D01*
X148628000Y-86127000D01*
X148882000Y-86127000D01*
X148882000Y-87320155D01*
X149111890Y-87441476D01*
X149259099Y-87396825D01*
X149521920Y-87271641D01*
X149755269Y-87097588D01*
X149950178Y-86881355D01*
X150099157Y-86631252D01*
X150196481Y-86356891D01*
X150075814Y-86127000D01*
X148882000Y-86127000D01*
X148628000Y-86127000D01*
X148608000Y-86127000D01*
X148608000Y-85873000D01*
X148628000Y-85873000D01*
X148628000Y-84679845D01*
X148882000Y-84679845D01*
X148882000Y-85873000D01*
X150075814Y-85873000D01*
X150196481Y-85643109D01*
X150099157Y-85368748D01*
X149950178Y-85118645D01*
X149755269Y-84902412D01*
X149521920Y-84728359D01*
X149259099Y-84603175D01*
X149111890Y-84558524D01*
X148882000Y-84679845D01*
X148628000Y-84679845D01*
X148398110Y-84558524D01*
X148250901Y-84603175D01*
X147988080Y-84728359D01*
X147754731Y-84902412D01*
X147559822Y-85118645D01*
X147490195Y-85235534D01*
X147368475Y-85053368D01*
X147161632Y-84846525D01*
X146975000Y-84721822D01*
X146975000Y-80727322D01*
X146978676Y-80689999D01*
X146975000Y-80652676D01*
X146975000Y-80652667D01*
X146965873Y-80560000D01*
X149171289Y-80560000D01*
X149190226Y-80578937D01*
X149359744Y-80692205D01*
X149548102Y-80770226D01*
X149748061Y-80810000D01*
X149951939Y-80810000D01*
X150151898Y-80770226D01*
X150340256Y-80692205D01*
X150509774Y-80578937D01*
X150653937Y-80434774D01*
X150767205Y-80265256D01*
X150845226Y-80076898D01*
X150885000Y-79876939D01*
X150885000Y-79673061D01*
X150845226Y-79473102D01*
X150767205Y-79284744D01*
X150653937Y-79115226D01*
X150621780Y-79083069D01*
X150717205Y-78940256D01*
X150795226Y-78751898D01*
X150835000Y-78551939D01*
X150835000Y-78348061D01*
X150795226Y-78148102D01*
X150717205Y-77959744D01*
X150603937Y-77790226D01*
X150459774Y-77646063D01*
X150290256Y-77532795D01*
X150101898Y-77454774D01*
X149901939Y-77415000D01*
X149698061Y-77415000D01*
X149498102Y-77454774D01*
X149309744Y-77532795D01*
X149140226Y-77646063D01*
X149096289Y-77690000D01*
X146574117Y-77690000D01*
X146141271Y-77257155D01*
X146195226Y-77126898D01*
X146235000Y-76926939D01*
X146235000Y-76859999D01*
X148137679Y-76859999D01*
X148175001Y-76863675D01*
X148212323Y-76859999D01*
X148212334Y-76859999D01*
X148323987Y-76849002D01*
X148467248Y-76805545D01*
X148599277Y-76734973D01*
X148715002Y-76640000D01*
X148738805Y-76610996D01*
X151265000Y-74084802D01*
X151265000Y-74176939D01*
X151304774Y-74376898D01*
X151382795Y-74565256D01*
X151496063Y-74734774D01*
X151640226Y-74878937D01*
X151809744Y-74992205D01*
X151998102Y-75070226D01*
X152198061Y-75110000D01*
X152401939Y-75110000D01*
X152601898Y-75070226D01*
X152790256Y-74992205D01*
X152959774Y-74878937D01*
X153103937Y-74734774D01*
X153217205Y-74565256D01*
X153271159Y-74435001D01*
X154335200Y-74435001D01*
X154939980Y-75039782D01*
X154939981Y-86657648D01*
X154936304Y-86694980D01*
X154939981Y-86732313D01*
X154950978Y-86843966D01*
X154962320Y-86881355D01*
X154994434Y-86987226D01*
X155065006Y-87119256D01*
X155119947Y-87186201D01*
X155159980Y-87234981D01*
X155188978Y-87258779D01*
X158308790Y-90378592D01*
X158265000Y-90598740D01*
X158265000Y-90891260D01*
X158322068Y-91178158D01*
X158434010Y-91448411D01*
X158596525Y-91691632D01*
X158803368Y-91898475D01*
X158977760Y-92015000D01*
X158803368Y-92131525D01*
X158596525Y-92338368D01*
X158434010Y-92581589D01*
X158322068Y-92851842D01*
X158265000Y-93138740D01*
X158265000Y-93431260D01*
X158322068Y-93718158D01*
X158434010Y-93988411D01*
X158596525Y-94231632D01*
X158803368Y-94438475D01*
X159046589Y-94600990D01*
X159316842Y-94712932D01*
X159603740Y-94770000D01*
X159896260Y-94770000D01*
X160183158Y-94712932D01*
X160453411Y-94600990D01*
X160696632Y-94438475D01*
X160903475Y-94231632D01*
X160990001Y-94102137D01*
X160990001Y-102977617D01*
X160661302Y-102757988D01*
X160272756Y-102597047D01*
X159860279Y-102515000D01*
X159439721Y-102515000D01*
X159027244Y-102597047D01*
X158638698Y-102757988D01*
X158289017Y-102991637D01*
X157991637Y-103289017D01*
X157757988Y-103638698D01*
X157597047Y-104027244D01*
X157515000Y-104439721D01*
X157515000Y-104860279D01*
X157597047Y-105272756D01*
X157757988Y-105661302D01*
X157979320Y-105992549D01*
X148677873Y-105999009D01*
X150340000Y-104336882D01*
X150340000Y-104471260D01*
X150397068Y-104758158D01*
X150509010Y-105028411D01*
X150671525Y-105271632D01*
X150878368Y-105478475D01*
X151121589Y-105640990D01*
X151391842Y-105752932D01*
X151678740Y-105810000D01*
X151971260Y-105810000D01*
X152258158Y-105752932D01*
X152528411Y-105640990D01*
X152771632Y-105478475D01*
X152903487Y-105346620D01*
X152925498Y-105419180D01*
X152984463Y-105529494D01*
X153063815Y-105626185D01*
X153160506Y-105705537D01*
X153270820Y-105764502D01*
X153390518Y-105800812D01*
X153515000Y-105813072D01*
X154079250Y-105810000D01*
X154238000Y-105651250D01*
X154238000Y-104452000D01*
X154492000Y-104452000D01*
X154492000Y-105651250D01*
X154650750Y-105810000D01*
X155215000Y-105813072D01*
X155339482Y-105800812D01*
X155459180Y-105764502D01*
X155569494Y-105705537D01*
X155666185Y-105626185D01*
X155745537Y-105529494D01*
X155804502Y-105419180D01*
X155840812Y-105299482D01*
X155853072Y-105175000D01*
X155850000Y-104610750D01*
X155691250Y-104452000D01*
X154492000Y-104452000D01*
X154238000Y-104452000D01*
X154218000Y-104452000D01*
X154218000Y-104198000D01*
X154238000Y-104198000D01*
X154238000Y-102998750D01*
X154492000Y-102998750D01*
X154492000Y-104198000D01*
X155691250Y-104198000D01*
X155850000Y-104039250D01*
X155853072Y-103475000D01*
X155840812Y-103350518D01*
X155804502Y-103230820D01*
X155745537Y-103120506D01*
X155666185Y-103023815D01*
X155569494Y-102944463D01*
X155459180Y-102885498D01*
X155339482Y-102849188D01*
X155215000Y-102836928D01*
X154650750Y-102840000D01*
X154492000Y-102998750D01*
X154238000Y-102998750D01*
X154079250Y-102840000D01*
X153515000Y-102836928D01*
X153390518Y-102849188D01*
X153270820Y-102885498D01*
X153160506Y-102944463D01*
X153063815Y-103023815D01*
X152984463Y-103120506D01*
X152925498Y-103230820D01*
X152903487Y-103303380D01*
X152771632Y-103171525D01*
X152528411Y-103009010D01*
X152258158Y-102897068D01*
X151971260Y-102840000D01*
X151836883Y-102840000D01*
X152686004Y-101990879D01*
X152715001Y-101967082D01*
X152809974Y-101851357D01*
X152880546Y-101719328D01*
X152924003Y-101576067D01*
X152930913Y-101505909D01*
X153121632Y-101378475D01*
X153328475Y-101171632D01*
X153490990Y-100928411D01*
X153602932Y-100658158D01*
X153660000Y-100371260D01*
X153660000Y-100078740D01*
X153602932Y-99791842D01*
X153490990Y-99521589D01*
X153328475Y-99278368D01*
X153121632Y-99071525D01*
X152878411Y-98909010D01*
X152608158Y-98797068D01*
X152321260Y-98740000D01*
X152028740Y-98740000D01*
X151741842Y-98797068D01*
X151471589Y-98909010D01*
X151228368Y-99071525D01*
X151021525Y-99278368D01*
X150899805Y-99460534D01*
X150830178Y-99343645D01*
X150635269Y-99127412D01*
X150401920Y-98953359D01*
X150139099Y-98828175D01*
X149991890Y-98783524D01*
X149762000Y-98904845D01*
X149762000Y-100098000D01*
X149782000Y-100098000D01*
X149782000Y-100352000D01*
X149762000Y-100352000D01*
X149762000Y-101545155D01*
X149991890Y-101666476D01*
X150139099Y-101621825D01*
X150401920Y-101496641D01*
X150635269Y-101322588D01*
X150830178Y-101106355D01*
X150899805Y-100989466D01*
X151021525Y-101171632D01*
X151188586Y-101338693D01*
X147437607Y-105089672D01*
X147435000Y-104610750D01*
X147276250Y-104452000D01*
X146077000Y-104452000D01*
X146077000Y-104472000D01*
X145823000Y-104472000D01*
X145823000Y-104452000D01*
X145803000Y-104452000D01*
X145803000Y-104198000D01*
X145823000Y-104198000D01*
X145823000Y-102998750D01*
X146077000Y-102998750D01*
X146077000Y-104198000D01*
X147276250Y-104198000D01*
X147435000Y-104039250D01*
X147438072Y-103475000D01*
X147425812Y-103350518D01*
X147389502Y-103230820D01*
X147330537Y-103120506D01*
X147251185Y-103023815D01*
X147154494Y-102944463D01*
X147044180Y-102885498D01*
X146924482Y-102849188D01*
X146800000Y-102836928D01*
X146235750Y-102840000D01*
X146077000Y-102998750D01*
X145823000Y-102998750D01*
X145664250Y-102840000D01*
X145100000Y-102836928D01*
X144975518Y-102849188D01*
X144855820Y-102885498D01*
X144745506Y-102944463D01*
X144648815Y-103023815D01*
X144569463Y-103120506D01*
X144510498Y-103230820D01*
X144488487Y-103303380D01*
X144356632Y-103171525D01*
X144113411Y-103009010D01*
X143843158Y-102897068D01*
X143556260Y-102840000D01*
X143263740Y-102840000D01*
X142976842Y-102897068D01*
X142706589Y-103009010D01*
X142463368Y-103171525D01*
X142256525Y-103378368D01*
X142094010Y-103621589D01*
X141982068Y-103891842D01*
X141925000Y-104178740D01*
X141925000Y-104471260D01*
X141982068Y-104758158D01*
X142094010Y-105028411D01*
X142178595Y-105155001D01*
X138937963Y-105155001D01*
X138935000Y-104610750D01*
X138776250Y-104452000D01*
X137577000Y-104452000D01*
X137577000Y-104472000D01*
X137323000Y-104472000D01*
X137323000Y-104452000D01*
X137303000Y-104452000D01*
X137303000Y-104198000D01*
X137323000Y-104198000D01*
X137323000Y-102998750D01*
X137577000Y-102998750D01*
X137577000Y-104198000D01*
X138776250Y-104198000D01*
X138935000Y-104039250D01*
X138938072Y-103475000D01*
X138925812Y-103350518D01*
X138889502Y-103230820D01*
X138830537Y-103120506D01*
X138751185Y-103023815D01*
X138654494Y-102944463D01*
X138544180Y-102885498D01*
X138424482Y-102849188D01*
X138300000Y-102836928D01*
X137735750Y-102840000D01*
X137577000Y-102998750D01*
X137323000Y-102998750D01*
X137164250Y-102840000D01*
X136600000Y-102836928D01*
X136475518Y-102849188D01*
X136355820Y-102885498D01*
X136245506Y-102944463D01*
X136148815Y-103023815D01*
X136069463Y-103120506D01*
X136010498Y-103230820D01*
X135988487Y-103303380D01*
X135856632Y-103171525D01*
X135613411Y-103009010D01*
X135343158Y-102897068D01*
X135056260Y-102840000D01*
X134763740Y-102840000D01*
X134476842Y-102897068D01*
X134206589Y-103009010D01*
X133963368Y-103171525D01*
X133756525Y-103378368D01*
X133594010Y-103621589D01*
X133482068Y-103891842D01*
X133425000Y-104178740D01*
X133425000Y-104471260D01*
X133482068Y-104758158D01*
X133594010Y-105028411D01*
X133678595Y-105155001D01*
X123031544Y-105155001D01*
X123085000Y-104886260D01*
X123085000Y-104593740D01*
X123027932Y-104306842D01*
X122915990Y-104036589D01*
X122753475Y-103793368D01*
X122546632Y-103586525D01*
X122372240Y-103470000D01*
X122546632Y-103353475D01*
X122753475Y-103146632D01*
X122915990Y-102903411D01*
X123027932Y-102633158D01*
X123085000Y-102346260D01*
X123085000Y-102053740D01*
X123027932Y-101766842D01*
X122915990Y-101496589D01*
X122753475Y-101253368D01*
X122546632Y-101046525D01*
X122364466Y-100924805D01*
X122481355Y-100855178D01*
X122697588Y-100660269D01*
X122871641Y-100426920D01*
X122996825Y-100164099D01*
X123041476Y-100016890D01*
X122920155Y-99787000D01*
X121727000Y-99787000D01*
X121727000Y-99807000D01*
X121473000Y-99807000D01*
X121473000Y-99787000D01*
X120279845Y-99787000D01*
X120158524Y-100016890D01*
X120203175Y-100164099D01*
X120328359Y-100426920D01*
X120502412Y-100660269D01*
X120718645Y-100855178D01*
X120835534Y-100924805D01*
X120653368Y-101046525D01*
X120446525Y-101253368D01*
X120284010Y-101496589D01*
X120172068Y-101766842D01*
X120115000Y-102053740D01*
X120115000Y-102346260D01*
X120172068Y-102633158D01*
X120284010Y-102903411D01*
X120446525Y-103146632D01*
X120653368Y-103353475D01*
X120827760Y-103470000D01*
X120653368Y-103586525D01*
X120446525Y-103793368D01*
X120284010Y-104036589D01*
X120268891Y-104073091D01*
X106510000Y-90314201D01*
X106510000Y-89938967D01*
X109915000Y-89938967D01*
X109915000Y-90261033D01*
X109977832Y-90576912D01*
X110101082Y-90874463D01*
X110280013Y-91142252D01*
X110507748Y-91369987D01*
X110775537Y-91548918D01*
X111073088Y-91672168D01*
X111388967Y-91735000D01*
X111711033Y-91735000D01*
X112026912Y-91672168D01*
X112324463Y-91548918D01*
X112592252Y-91369987D01*
X112726826Y-91235413D01*
X115094192Y-91235413D01*
X115189956Y-91499814D01*
X115479571Y-91640704D01*
X115791108Y-91722384D01*
X116112595Y-91741718D01*
X116431675Y-91697961D01*
X116736088Y-91592795D01*
X116910044Y-91499814D01*
X117005808Y-91235413D01*
X116050000Y-90279605D01*
X115094192Y-91235413D01*
X112726826Y-91235413D01*
X112819987Y-91142252D01*
X112998918Y-90874463D01*
X113122168Y-90576912D01*
X113185000Y-90261033D01*
X113185000Y-90162595D01*
X114408282Y-90162595D01*
X114452039Y-90481675D01*
X114557205Y-90786088D01*
X114650186Y-90960044D01*
X114914587Y-91055808D01*
X115870395Y-90100000D01*
X116229605Y-90100000D01*
X117185413Y-91055808D01*
X117449814Y-90960044D01*
X117590704Y-90670429D01*
X117672384Y-90358892D01*
X117691718Y-90037405D01*
X117647961Y-89718325D01*
X117542795Y-89413912D01*
X117449814Y-89239956D01*
X117185413Y-89144192D01*
X116229605Y-90100000D01*
X115870395Y-90100000D01*
X114914587Y-89144192D01*
X114650186Y-89239956D01*
X114509296Y-89529571D01*
X114427616Y-89841108D01*
X114408282Y-90162595D01*
X113185000Y-90162595D01*
X113185000Y-89938967D01*
X113122168Y-89623088D01*
X112998918Y-89325537D01*
X112819987Y-89057748D01*
X112726826Y-88964587D01*
X115094192Y-88964587D01*
X116050000Y-89920395D01*
X117005808Y-88964587D01*
X116910044Y-88700186D01*
X116620429Y-88559296D01*
X116308892Y-88477616D01*
X115987405Y-88458282D01*
X115668325Y-88502039D01*
X115363912Y-88607205D01*
X115189956Y-88700186D01*
X115094192Y-88964587D01*
X112726826Y-88964587D01*
X112592252Y-88830013D01*
X112324463Y-88651082D01*
X112026912Y-88527832D01*
X111711033Y-88465000D01*
X111388967Y-88465000D01*
X111073088Y-88527832D01*
X110775537Y-88651082D01*
X110507748Y-88830013D01*
X110280013Y-89057748D01*
X110101082Y-89325537D01*
X109977832Y-89623088D01*
X109915000Y-89938967D01*
X106510000Y-89938967D01*
X106510000Y-85453711D01*
X106553937Y-85409774D01*
X106667205Y-85240256D01*
X106745226Y-85051898D01*
X106785000Y-84851939D01*
X106785000Y-84648061D01*
X106745226Y-84448102D01*
X106667205Y-84259744D01*
X106553937Y-84090226D01*
X106409774Y-83946063D01*
X106240256Y-83832795D01*
X106051898Y-83754774D01*
X105851939Y-83715000D01*
X105648061Y-83715000D01*
X105448102Y-83754774D01*
X105259744Y-83832795D01*
X105090226Y-83946063D01*
X104946063Y-84090226D01*
X104832795Y-84259744D01*
X104754774Y-84448102D01*
X104715000Y-84648061D01*
X104715000Y-84851939D01*
X104754774Y-85051898D01*
X104832795Y-85240256D01*
X104946063Y-85409774D01*
X104990000Y-85453711D01*
X104990001Y-90591670D01*
X104986324Y-90629002D01*
X104990001Y-90666335D01*
X105000998Y-90777988D01*
X105011013Y-90811003D01*
X105044454Y-90921248D01*
X105115026Y-91053278D01*
X105165680Y-91114999D01*
X105210000Y-91169003D01*
X105238998Y-91192801D01*
X120065075Y-106018879D01*
X93281868Y-106037478D01*
X93308363Y-106010983D01*
X93542012Y-105661302D01*
X93702953Y-105272756D01*
X93785000Y-104860279D01*
X93785000Y-104756891D01*
X94538519Y-104756891D01*
X94635843Y-105031252D01*
X94784822Y-105281355D01*
X94979731Y-105497588D01*
X95213080Y-105671641D01*
X95475901Y-105796825D01*
X95623110Y-105841476D01*
X95853000Y-105720155D01*
X95853000Y-104527000D01*
X94659186Y-104527000D01*
X94538519Y-104756891D01*
X93785000Y-104756891D01*
X93785000Y-104439721D01*
X93706109Y-104043109D01*
X94538519Y-104043109D01*
X94659186Y-104273000D01*
X95853000Y-104273000D01*
X95853000Y-103079845D01*
X96107000Y-103079845D01*
X96107000Y-104273000D01*
X96127000Y-104273000D01*
X96127000Y-104527000D01*
X96107000Y-104527000D01*
X96107000Y-105720155D01*
X96336890Y-105841476D01*
X96484099Y-105796825D01*
X96746920Y-105671641D01*
X96980269Y-105497588D01*
X97175178Y-105281355D01*
X97244805Y-105164466D01*
X97366525Y-105346632D01*
X97573368Y-105553475D01*
X97816589Y-105715990D01*
X98086842Y-105827932D01*
X98373740Y-105885000D01*
X98666260Y-105885000D01*
X98953158Y-105827932D01*
X99223411Y-105715990D01*
X99466632Y-105553475D01*
X99673475Y-105346632D01*
X99790000Y-105172240D01*
X99906525Y-105346632D01*
X100113368Y-105553475D01*
X100356589Y-105715990D01*
X100626842Y-105827932D01*
X100913740Y-105885000D01*
X101206260Y-105885000D01*
X101493158Y-105827932D01*
X101763411Y-105715990D01*
X102006632Y-105553475D01*
X102138487Y-105421620D01*
X102160498Y-105494180D01*
X102219463Y-105604494D01*
X102298815Y-105701185D01*
X102395506Y-105780537D01*
X102505820Y-105839502D01*
X102625518Y-105875812D01*
X102750000Y-105888072D01*
X104450000Y-105888072D01*
X104574482Y-105875812D01*
X104694180Y-105839502D01*
X104804494Y-105780537D01*
X104901185Y-105701185D01*
X104980537Y-105604494D01*
X105039502Y-105494180D01*
X105075812Y-105374482D01*
X105088072Y-105250000D01*
X105088072Y-103550000D01*
X105075812Y-103425518D01*
X105039502Y-103305820D01*
X104980537Y-103195506D01*
X104901185Y-103098815D01*
X104804494Y-103019463D01*
X104694180Y-102960498D01*
X104574482Y-102924188D01*
X104450000Y-102911928D01*
X102750000Y-102911928D01*
X102625518Y-102924188D01*
X102505820Y-102960498D01*
X102395506Y-103019463D01*
X102298815Y-103098815D01*
X102219463Y-103195506D01*
X102160498Y-103305820D01*
X102138487Y-103378380D01*
X102006632Y-103246525D01*
X101763411Y-103084010D01*
X101493158Y-102972068D01*
X101206260Y-102915000D01*
X100913740Y-102915000D01*
X100626842Y-102972068D01*
X100356589Y-103084010D01*
X100113368Y-103246525D01*
X99906525Y-103453368D01*
X99790000Y-103627760D01*
X99673475Y-103453368D01*
X99466632Y-103246525D01*
X99223411Y-103084010D01*
X98953158Y-102972068D01*
X98666260Y-102915000D01*
X98373740Y-102915000D01*
X98086842Y-102972068D01*
X97816589Y-103084010D01*
X97573368Y-103246525D01*
X97366525Y-103453368D01*
X97244805Y-103635534D01*
X97175178Y-103518645D01*
X96980269Y-103302412D01*
X96746920Y-103128359D01*
X96484099Y-103003175D01*
X96336890Y-102958524D01*
X96107000Y-103079845D01*
X95853000Y-103079845D01*
X95623110Y-102958524D01*
X95475901Y-103003175D01*
X95213080Y-103128359D01*
X94979731Y-103302412D01*
X94784822Y-103518645D01*
X94635843Y-103768748D01*
X94538519Y-104043109D01*
X93706109Y-104043109D01*
X93702953Y-104027244D01*
X93542012Y-103638698D01*
X93308363Y-103289017D01*
X93010983Y-102991637D01*
X92661302Y-102757988D01*
X92272756Y-102597047D01*
X91860279Y-102515000D01*
X91439721Y-102515000D01*
X91027244Y-102597047D01*
X90638698Y-102757988D01*
X90314228Y-102974792D01*
X90324780Y-93678397D01*
X90801208Y-93678397D01*
X90878843Y-93927472D01*
X91142883Y-94053371D01*
X91426411Y-94125339D01*
X91718531Y-94140611D01*
X92008019Y-94098599D01*
X92283747Y-94000919D01*
X92421157Y-93927472D01*
X92498792Y-93678397D01*
X91650000Y-92829605D01*
X90801208Y-93678397D01*
X90324780Y-93678397D01*
X90325173Y-93332561D01*
X90372528Y-93421157D01*
X90621603Y-93498792D01*
X91470395Y-92650000D01*
X91829605Y-92650000D01*
X92678397Y-93498792D01*
X92927472Y-93421157D01*
X93053371Y-93157117D01*
X93125339Y-92873589D01*
X93140611Y-92581469D01*
X93098599Y-92291981D01*
X93000919Y-92016253D01*
X92927472Y-91878843D01*
X92678397Y-91801208D01*
X91829605Y-92650000D01*
X91470395Y-92650000D01*
X90621603Y-91801208D01*
X90372528Y-91878843D01*
X90326714Y-91974926D01*
X90328049Y-90799019D01*
X90334010Y-90813411D01*
X90496525Y-91056632D01*
X90703368Y-91263475D01*
X90876729Y-91379311D01*
X90801208Y-91621603D01*
X91650000Y-92470395D01*
X92498792Y-91621603D01*
X92423271Y-91379311D01*
X92596632Y-91263475D01*
X92803475Y-91056632D01*
X92965990Y-90813411D01*
X93077932Y-90543158D01*
X93135000Y-90256260D01*
X93135000Y-89963740D01*
X93077932Y-89676842D01*
X92965990Y-89406589D01*
X92803475Y-89163368D01*
X92596632Y-88956525D01*
X92422240Y-88840000D01*
X92596632Y-88723475D01*
X92803475Y-88516632D01*
X92965990Y-88273411D01*
X93077932Y-88003158D01*
X93135000Y-87716260D01*
X93135000Y-87423740D01*
X93077932Y-87136842D01*
X92965990Y-86866589D01*
X92803475Y-86623368D01*
X92596632Y-86416525D01*
X92422240Y-86300000D01*
X92596632Y-86183475D01*
X92803475Y-85976632D01*
X92965990Y-85733411D01*
X93077932Y-85463158D01*
X93135000Y-85176260D01*
X93135000Y-84883740D01*
X93077932Y-84596842D01*
X92965990Y-84326589D01*
X92803475Y-84083368D01*
X92596632Y-83876525D01*
X92422240Y-83760000D01*
X92596632Y-83643475D01*
X92801140Y-83438967D01*
X109915000Y-83438967D01*
X109915000Y-83761033D01*
X109977832Y-84076912D01*
X110101082Y-84374463D01*
X110280013Y-84642252D01*
X110507748Y-84869987D01*
X110775537Y-85048918D01*
X111073088Y-85172168D01*
X111388967Y-85235000D01*
X111711033Y-85235000D01*
X112026912Y-85172168D01*
X112324463Y-85048918D01*
X112592252Y-84869987D01*
X112726826Y-84735413D01*
X115094192Y-84735413D01*
X115189956Y-84999814D01*
X115479571Y-85140704D01*
X115791108Y-85222384D01*
X116112595Y-85241718D01*
X116431675Y-85197961D01*
X116736088Y-85092795D01*
X116910044Y-84999814D01*
X117005808Y-84735413D01*
X116050000Y-83779605D01*
X115094192Y-84735413D01*
X112726826Y-84735413D01*
X112819987Y-84642252D01*
X112998918Y-84374463D01*
X113122168Y-84076912D01*
X113185000Y-83761033D01*
X113185000Y-83662595D01*
X114408282Y-83662595D01*
X114452039Y-83981675D01*
X114557205Y-84286088D01*
X114650186Y-84460044D01*
X114914587Y-84555808D01*
X115870395Y-83600000D01*
X116229605Y-83600000D01*
X117185413Y-84555808D01*
X117449814Y-84460044D01*
X117590704Y-84170429D01*
X117672384Y-83858892D01*
X117691718Y-83537405D01*
X117647961Y-83218325D01*
X117542795Y-82913912D01*
X117449814Y-82739956D01*
X117185413Y-82644192D01*
X116229605Y-83600000D01*
X115870395Y-83600000D01*
X114914587Y-82644192D01*
X114650186Y-82739956D01*
X114509296Y-83029571D01*
X114427616Y-83341108D01*
X114408282Y-83662595D01*
X113185000Y-83662595D01*
X113185000Y-83438967D01*
X113122168Y-83123088D01*
X112998918Y-82825537D01*
X112819987Y-82557748D01*
X112726826Y-82464587D01*
X115094192Y-82464587D01*
X116050000Y-83420395D01*
X117005808Y-82464587D01*
X116910044Y-82200186D01*
X116620429Y-82059296D01*
X116308892Y-81977616D01*
X115987405Y-81958282D01*
X115668325Y-82002039D01*
X115363912Y-82107205D01*
X115189956Y-82200186D01*
X115094192Y-82464587D01*
X112726826Y-82464587D01*
X112592252Y-82330013D01*
X112324463Y-82151082D01*
X112026912Y-82027832D01*
X111711033Y-81965000D01*
X111388967Y-81965000D01*
X111073088Y-82027832D01*
X110775537Y-82151082D01*
X110507748Y-82330013D01*
X110280013Y-82557748D01*
X110101082Y-82825537D01*
X109977832Y-83123088D01*
X109915000Y-83438967D01*
X92801140Y-83438967D01*
X92803475Y-83436632D01*
X92965990Y-83193411D01*
X93077932Y-82923158D01*
X93135000Y-82636260D01*
X93135000Y-82343740D01*
X93091210Y-82123592D01*
X93611003Y-81603799D01*
X93640001Y-81580001D01*
X93734974Y-81464276D01*
X93805546Y-81332247D01*
X93849003Y-81188986D01*
X93860000Y-81077333D01*
X93860000Y-81077325D01*
X93863676Y-81040000D01*
X93860000Y-81002675D01*
X93860000Y-76487322D01*
X93863676Y-76449999D01*
X93860000Y-76412676D01*
X93860000Y-76412667D01*
X93849003Y-76301014D01*
X93805546Y-76157753D01*
X93734974Y-76025724D01*
X93640001Y-75909999D01*
X93611004Y-75886202D01*
X92510000Y-74785199D01*
X92510000Y-69803711D01*
X92553937Y-69759774D01*
X92667205Y-69590256D01*
X92745226Y-69401898D01*
X92785000Y-69201939D01*
X92785000Y-68998061D01*
X92745226Y-68798102D01*
X92667205Y-68609744D01*
X92553937Y-68440226D01*
X92409774Y-68296063D01*
X92240256Y-68182795D01*
X92051898Y-68104774D01*
X91851939Y-68065000D01*
X91648061Y-68065000D01*
X91448102Y-68104774D01*
X91259744Y-68182795D01*
X91090226Y-68296063D01*
X90946063Y-68440226D01*
X90832795Y-68609744D01*
X90754774Y-68798102D01*
X90715000Y-68998061D01*
X90715000Y-69201939D01*
X90754774Y-69401898D01*
X90832795Y-69590256D01*
X90946063Y-69759774D01*
X90990000Y-69803711D01*
X90990001Y-74172571D01*
X90951939Y-74165000D01*
X90748061Y-74165000D01*
X90548102Y-74204774D01*
X90359744Y-74282795D01*
X90346786Y-74291453D01*
X90355797Y-66352984D01*
X90638698Y-66542012D01*
X91027244Y-66702953D01*
X91439721Y-66785000D01*
X91860279Y-66785000D01*
X92272756Y-66702953D01*
X92661302Y-66542012D01*
X93010983Y-66308363D01*
X93308363Y-66010983D01*
X93542012Y-65661302D01*
X93702953Y-65272756D01*
X93785000Y-64860279D01*
X93785000Y-64439721D01*
X93702953Y-64027244D01*
X93542012Y-63638698D01*
X93322383Y-63310000D01*
X128259893Y-63310000D01*
X128116525Y-63453368D01*
G36*
X160165001Y-73953393D02*
G01*
X160165001Y-81639296D01*
X160035750Y-81640000D01*
X159877000Y-81798750D01*
X159877000Y-82998000D01*
X159897000Y-82998000D01*
X159897000Y-83252000D01*
X159877000Y-83252000D01*
X159877000Y-83272000D01*
X159623000Y-83272000D01*
X159623000Y-83252000D01*
X159603000Y-83252000D01*
X159603000Y-82998000D01*
X159623000Y-82998000D01*
X159623000Y-81798750D01*
X159464250Y-81640000D01*
X158900000Y-81636928D01*
X158775518Y-81649188D01*
X158655820Y-81685498D01*
X158545506Y-81744463D01*
X158448815Y-81823815D01*
X158369463Y-81920506D01*
X158310498Y-82030820D01*
X158274188Y-82150518D01*
X158261928Y-82275000D01*
X158265000Y-82839250D01*
X158423748Y-82997998D01*
X158265000Y-82997998D01*
X158265000Y-83105198D01*
X157360000Y-82200199D01*
X157360000Y-71148392D01*
X160165001Y-73953393D01*
G37*
X160165001Y-73953393D02*
X160165001Y-81639296D01*
X160035750Y-81640000D01*
X159877000Y-81798750D01*
X159877000Y-82998000D01*
X159897000Y-82998000D01*
X159897000Y-83252000D01*
X159877000Y-83252000D01*
X159877000Y-83272000D01*
X159623000Y-83272000D01*
X159623000Y-83252000D01*
X159603000Y-83252000D01*
X159603000Y-82998000D01*
X159623000Y-82998000D01*
X159623000Y-81798750D01*
X159464250Y-81640000D01*
X158900000Y-81636928D01*
X158775518Y-81649188D01*
X158655820Y-81685498D01*
X158545506Y-81744463D01*
X158448815Y-81823815D01*
X158369463Y-81920506D01*
X158310498Y-82030820D01*
X158274188Y-82150518D01*
X158261928Y-82275000D01*
X158265000Y-82839250D01*
X158423748Y-82997998D01*
X158265000Y-82997998D01*
X158265000Y-83105198D01*
X157360000Y-82200199D01*
X157360000Y-71148392D01*
X160165001Y-73953393D01*
G36*
X128116525Y-63453368D02*
G01*
X127954010Y-63696589D01*
X127842068Y-63966842D01*
X127785000Y-64253740D01*
X127785000Y-64546260D01*
X127842068Y-64833158D01*
X127954010Y-65103411D01*
X128011867Y-65190000D01*
X119487325Y-65190000D01*
X119450000Y-65186324D01*
X119412675Y-65190000D01*
X119412667Y-65190000D01*
X119301014Y-65200997D01*
X119157753Y-65244454D01*
X119025724Y-65315026D01*
X118909999Y-65409999D01*
X118886201Y-65438997D01*
X117189003Y-67136196D01*
X117159999Y-67159999D01*
X117114676Y-67215226D01*
X117065026Y-67275724D01*
X117017842Y-67363998D01*
X116994454Y-67407754D01*
X116950997Y-67551015D01*
X116940000Y-67662668D01*
X116940000Y-67662678D01*
X116936324Y-67700000D01*
X116940000Y-67737322D01*
X116940001Y-77671288D01*
X116896063Y-77715226D01*
X116782795Y-77884744D01*
X116704774Y-78073102D01*
X116665000Y-78273061D01*
X116665000Y-78476939D01*
X116704774Y-78676898D01*
X116782795Y-78865256D01*
X116896063Y-79034774D01*
X117040226Y-79178937D01*
X117209744Y-79292205D01*
X117398102Y-79370226D01*
X117598061Y-79410000D01*
X117801939Y-79410000D01*
X118001898Y-79370226D01*
X118190256Y-79292205D01*
X118359774Y-79178937D01*
X118503937Y-79034774D01*
X118617205Y-78865256D01*
X118695226Y-78676898D01*
X118735000Y-78476939D01*
X118735000Y-78273061D01*
X118695226Y-78073102D01*
X118617205Y-77884744D01*
X118503937Y-77715226D01*
X118460000Y-77671289D01*
X118460000Y-68014801D01*
X119764802Y-66710000D01*
X135815199Y-66710000D01*
X135685199Y-66840000D01*
X135623061Y-66840000D01*
X135423102Y-66879774D01*
X135234744Y-66957795D01*
X135065226Y-67071063D01*
X134921063Y-67215226D01*
X134807795Y-67384744D01*
X134729774Y-67573102D01*
X134690000Y-67773061D01*
X134690000Y-67976939D01*
X134729774Y-68176898D01*
X134807795Y-68365256D01*
X134921063Y-68534774D01*
X135065226Y-68678937D01*
X135234744Y-68792205D01*
X135423102Y-68870226D01*
X135623061Y-68910000D01*
X135826939Y-68910000D01*
X136026898Y-68870226D01*
X136215256Y-68792205D01*
X136340001Y-68708853D01*
X136340000Y-71596289D01*
X136296063Y-71640226D01*
X136182795Y-71809744D01*
X136104774Y-71998102D01*
X136065000Y-72198061D01*
X136065000Y-72401939D01*
X136104774Y-72601898D01*
X136182795Y-72790256D01*
X136296063Y-72959774D01*
X136440226Y-73103937D01*
X136609744Y-73217205D01*
X136798102Y-73295226D01*
X136881864Y-73311887D01*
X136874209Y-73317002D01*
X136730046Y-73461165D01*
X136616778Y-73630683D01*
X136538757Y-73819041D01*
X136498983Y-74019000D01*
X136498983Y-74222878D01*
X136538757Y-74422837D01*
X136616778Y-74611195D01*
X136730046Y-74780713D01*
X136874209Y-74924876D01*
X136934259Y-74965000D01*
X130962740Y-74965000D01*
X127109474Y-71111736D01*
X127109474Y-71049598D01*
X127069700Y-70849639D01*
X126991679Y-70661281D01*
X126878411Y-70491763D01*
X126734248Y-70347600D01*
X126564730Y-70234332D01*
X126376372Y-70156311D01*
X126176413Y-70116537D01*
X125972535Y-70116537D01*
X125772576Y-70156311D01*
X125584218Y-70234332D01*
X125414700Y-70347600D01*
X125270537Y-70491763D01*
X125216909Y-70572023D01*
X125080548Y-70544899D01*
X124876670Y-70544899D01*
X124676711Y-70584673D01*
X124488353Y-70662694D01*
X124318835Y-70775962D01*
X124174672Y-70920125D01*
X124094574Y-71040000D01*
X123963607Y-71040000D01*
X123763648Y-71079774D01*
X123575290Y-71157795D01*
X123405772Y-71271063D01*
X123261609Y-71415226D01*
X123148341Y-71584744D01*
X123070320Y-71773102D01*
X123030546Y-71973061D01*
X123030546Y-72176939D01*
X123070320Y-72376898D01*
X123148341Y-72565256D01*
X123261609Y-72734774D01*
X123405772Y-72878937D01*
X123575290Y-72992205D01*
X123763648Y-73070226D01*
X123963607Y-73110000D01*
X124025745Y-73110000D01*
X129326746Y-78411002D01*
X129350545Y-78440001D01*
X129379543Y-78463799D01*
X129466269Y-78534974D01*
X129520567Y-78563997D01*
X129598299Y-78605546D01*
X129741560Y-78649003D01*
X129853213Y-78660000D01*
X129853223Y-78660000D01*
X129890545Y-78663676D01*
X129927868Y-78660000D01*
X136210199Y-78660000D01*
X138690000Y-81139802D01*
X138690001Y-89330912D01*
X138626898Y-89304774D01*
X138426939Y-89265000D01*
X138223061Y-89265000D01*
X138023102Y-89304774D01*
X137834744Y-89382795D01*
X137665226Y-89496063D01*
X137521063Y-89640226D01*
X137407795Y-89809744D01*
X137329774Y-89998102D01*
X137290000Y-90198061D01*
X137290000Y-90260198D01*
X137094293Y-90455906D01*
X137110000Y-90376939D01*
X137110000Y-90173061D01*
X137070226Y-89973102D01*
X136992205Y-89784744D01*
X136878937Y-89615226D01*
X136734774Y-89471063D01*
X136565256Y-89357795D01*
X136376898Y-89279774D01*
X136176939Y-89240000D01*
X135973061Y-89240000D01*
X135773102Y-89279774D01*
X135584744Y-89357795D01*
X135415226Y-89471063D01*
X135371289Y-89515000D01*
X123402323Y-89515000D01*
X123365000Y-89511324D01*
X123327677Y-89515000D01*
X123327667Y-89515000D01*
X123216014Y-89525997D01*
X123085000Y-89565739D01*
X123085000Y-89353740D01*
X123041209Y-89133592D01*
X129789802Y-82385000D01*
X131246289Y-82385000D01*
X131290226Y-82428937D01*
X131459744Y-82542205D01*
X131648102Y-82620226D01*
X131848061Y-82660000D01*
X132051939Y-82660000D01*
X132251898Y-82620226D01*
X132440256Y-82542205D01*
X132609774Y-82428937D01*
X132753937Y-82284774D01*
X132867205Y-82115256D01*
X132945226Y-81926898D01*
X132985000Y-81726939D01*
X132985000Y-81523061D01*
X132945226Y-81323102D01*
X132867205Y-81134744D01*
X132753937Y-80965226D01*
X132609774Y-80821063D01*
X132440256Y-80707795D01*
X132251898Y-80629774D01*
X132051939Y-80590000D01*
X131848061Y-80590000D01*
X131648102Y-80629774D01*
X131459744Y-80707795D01*
X131290226Y-80821063D01*
X131246289Y-80865000D01*
X129512323Y-80865000D01*
X129475000Y-80861324D01*
X129437677Y-80865000D01*
X129437667Y-80865000D01*
X129326014Y-80875997D01*
X129182753Y-80919454D01*
X129050724Y-80990026D01*
X128934999Y-81084999D01*
X128911201Y-81113997D01*
X121966408Y-88058791D01*
X121746260Y-88015000D01*
X121453740Y-88015000D01*
X121166842Y-88072068D01*
X120896589Y-88184010D01*
X120653368Y-88346525D01*
X120446525Y-88553368D01*
X120284010Y-88796589D01*
X120172068Y-89066842D01*
X120115000Y-89353740D01*
X120115000Y-89646260D01*
X120172068Y-89933158D01*
X120284010Y-90203411D01*
X120446525Y-90446632D01*
X120653368Y-90653475D01*
X120827760Y-90770000D01*
X120653368Y-90886525D01*
X120446525Y-91093368D01*
X120284010Y-91336589D01*
X120172068Y-91606842D01*
X120115000Y-91893740D01*
X120115000Y-92020199D01*
X119435000Y-91340199D01*
X119435000Y-87139801D01*
X124689802Y-81885000D01*
X124751939Y-81885000D01*
X124951898Y-81845226D01*
X125140256Y-81767205D01*
X125309774Y-81653937D01*
X125453937Y-81509774D01*
X125567205Y-81340256D01*
X125645226Y-81151898D01*
X125685000Y-80951939D01*
X125685000Y-80748061D01*
X125645226Y-80548102D01*
X125567205Y-80359744D01*
X125453937Y-80190226D01*
X125309774Y-80046063D01*
X125140256Y-79932795D01*
X124951898Y-79854774D01*
X124758663Y-79816337D01*
X124720226Y-79623102D01*
X124642205Y-79434744D01*
X124528937Y-79265226D01*
X124384774Y-79121063D01*
X124215256Y-79007795D01*
X124026898Y-78929774D01*
X123826939Y-78890000D01*
X123764802Y-78890000D01*
X123288804Y-78414002D01*
X123265001Y-78384999D01*
X123149276Y-78290026D01*
X123017247Y-78219454D01*
X122873986Y-78175997D01*
X122762333Y-78165000D01*
X122762322Y-78165000D01*
X122725000Y-78161324D01*
X122687678Y-78165000D01*
X122603711Y-78165000D01*
X122559774Y-78121063D01*
X122390256Y-78007795D01*
X122201898Y-77929774D01*
X122001939Y-77890000D01*
X121798061Y-77890000D01*
X121598102Y-77929774D01*
X121409744Y-78007795D01*
X121240226Y-78121063D01*
X121096063Y-78265226D01*
X120982795Y-78434744D01*
X120904774Y-78623102D01*
X120865000Y-78823061D01*
X120865000Y-79026939D01*
X120904774Y-79226898D01*
X120982795Y-79415256D01*
X121096063Y-79584774D01*
X121240226Y-79728937D01*
X121409744Y-79842205D01*
X121426467Y-79849132D01*
X121398102Y-79854774D01*
X121209744Y-79932795D01*
X121040226Y-80046063D01*
X120996289Y-80090000D01*
X109178711Y-80090000D01*
X109159774Y-80071063D01*
X108990256Y-79957795D01*
X108801898Y-79879774D01*
X108601939Y-79840000D01*
X108398061Y-79840000D01*
X108198102Y-79879774D01*
X108009744Y-79957795D01*
X107840226Y-80071063D01*
X107696063Y-80215226D01*
X107582795Y-80384744D01*
X107504774Y-80573102D01*
X107465000Y-80773061D01*
X107465000Y-80976939D01*
X107504774Y-81176898D01*
X107582795Y-81365256D01*
X107696063Y-81534774D01*
X107840226Y-81678937D01*
X108009744Y-81792205D01*
X108198102Y-81870226D01*
X108398061Y-81910000D01*
X108601939Y-81910000D01*
X108801898Y-81870226D01*
X108990256Y-81792205D01*
X109159774Y-81678937D01*
X109228711Y-81610000D01*
X120996289Y-81610000D01*
X121040226Y-81653937D01*
X121209744Y-81767205D01*
X121398102Y-81845226D01*
X121598061Y-81885000D01*
X121801939Y-81885000D01*
X122001898Y-81845226D01*
X122190256Y-81767205D01*
X122359774Y-81653937D01*
X122503937Y-81509774D01*
X122617205Y-81340256D01*
X122695226Y-81151898D01*
X122735000Y-80951939D01*
X122735000Y-80748061D01*
X122695226Y-80548102D01*
X122617205Y-80359744D01*
X122503937Y-80190226D01*
X122359774Y-80046063D01*
X122190256Y-79932795D01*
X122173533Y-79925868D01*
X122201898Y-79920226D01*
X122390256Y-79842205D01*
X122496448Y-79771250D01*
X122690000Y-79964802D01*
X122690000Y-80026939D01*
X122729774Y-80226898D01*
X122807795Y-80415256D01*
X122921063Y-80584774D01*
X123065226Y-80728937D01*
X123234744Y-80842205D01*
X123423102Y-80920226D01*
X123491389Y-80933809D01*
X118164003Y-86261196D01*
X118134999Y-86284999D01*
X118079871Y-86352174D01*
X118040026Y-86400724D01*
X117978944Y-86515000D01*
X117969454Y-86532754D01*
X117925997Y-86676015D01*
X117915000Y-86787668D01*
X117915000Y-86787678D01*
X117911324Y-86825000D01*
X117915000Y-86862323D01*
X117915001Y-91617668D01*
X117911324Y-91655000D01*
X117915001Y-91692333D01*
X117925606Y-91800000D01*
X117925998Y-91803985D01*
X117969454Y-91947246D01*
X118040026Y-92079276D01*
X118092228Y-92142883D01*
X118135000Y-92195001D01*
X118163998Y-92218799D01*
X120158790Y-94213592D01*
X120115000Y-94433740D01*
X120115000Y-94726260D01*
X120172068Y-95013158D01*
X120284010Y-95283411D01*
X120446525Y-95526632D01*
X120653368Y-95733475D01*
X120827760Y-95850000D01*
X120653368Y-95966525D01*
X120446525Y-96173368D01*
X120284010Y-96416589D01*
X120172068Y-96686842D01*
X120115000Y-96973740D01*
X120115000Y-97266260D01*
X120172068Y-97553158D01*
X120284010Y-97823411D01*
X120446525Y-98066632D01*
X120653368Y-98273475D01*
X120835534Y-98395195D01*
X120718645Y-98464822D01*
X120502412Y-98659731D01*
X120328359Y-98893080D01*
X120203175Y-99155901D01*
X120158524Y-99303110D01*
X120279845Y-99533000D01*
X121473000Y-99533000D01*
X121473000Y-99513000D01*
X121727000Y-99513000D01*
X121727000Y-99533000D01*
X122920155Y-99533000D01*
X123041476Y-99303110D01*
X122996825Y-99155901D01*
X122981225Y-99123149D01*
X123009744Y-99142205D01*
X123198102Y-99220226D01*
X123398061Y-99260000D01*
X123601554Y-99260000D01*
X123728836Y-99364458D01*
X123881291Y-99445947D01*
X124046715Y-99496128D01*
X124218750Y-99513072D01*
X125131250Y-99513072D01*
X125303285Y-99496128D01*
X125468709Y-99445947D01*
X125621164Y-99364458D01*
X125754792Y-99254792D01*
X125864458Y-99121164D01*
X125945947Y-98968709D01*
X125996128Y-98803285D01*
X126013072Y-98631250D01*
X126013072Y-98143750D01*
X125996128Y-97971715D01*
X125945947Y-97806291D01*
X125864458Y-97653836D01*
X125754792Y-97520208D01*
X125669244Y-97450000D01*
X125754792Y-97379792D01*
X125772191Y-97358591D01*
X125934744Y-97467205D01*
X126123102Y-97545226D01*
X126221481Y-97564795D01*
X126190000Y-97723061D01*
X126190000Y-97926939D01*
X126229774Y-98126898D01*
X126307795Y-98315256D01*
X126421063Y-98484774D01*
X126565226Y-98628937D01*
X126734744Y-98742205D01*
X126923102Y-98820226D01*
X127123061Y-98860000D01*
X127199868Y-98860000D01*
X127229053Y-98956209D01*
X127310542Y-99108664D01*
X127420208Y-99242292D01*
X127553836Y-99351958D01*
X127706291Y-99433447D01*
X127871715Y-99483628D01*
X128043750Y-99500572D01*
X128956250Y-99500572D01*
X129128285Y-99483628D01*
X129293709Y-99433447D01*
X129446164Y-99351958D01*
X129579792Y-99242292D01*
X129689458Y-99108664D01*
X129770947Y-98956209D01*
X129821128Y-98790785D01*
X129838072Y-98618750D01*
X129838072Y-98131250D01*
X129821128Y-97959215D01*
X129770947Y-97793791D01*
X129689458Y-97641336D01*
X129579792Y-97507708D01*
X129494244Y-97437500D01*
X129515877Y-97419746D01*
X129698102Y-97495226D01*
X129898061Y-97535000D01*
X130101939Y-97535000D01*
X130175088Y-97520450D01*
X130284010Y-97783411D01*
X130446525Y-98026632D01*
X130653368Y-98233475D01*
X130827760Y-98350000D01*
X130653368Y-98466525D01*
X130446525Y-98673368D01*
X130284010Y-98916589D01*
X130172068Y-99186842D01*
X130115000Y-99473740D01*
X130115000Y-99766260D01*
X130172068Y-100053158D01*
X130284010Y-100323411D01*
X130446525Y-100566632D01*
X130653368Y-100773475D01*
X130827760Y-100890000D01*
X130653368Y-101006525D01*
X130446525Y-101213368D01*
X130284010Y-101456589D01*
X130172068Y-101726842D01*
X130115000Y-102013740D01*
X130115000Y-102306260D01*
X130172068Y-102593158D01*
X130284010Y-102863411D01*
X130446525Y-103106632D01*
X130653368Y-103313475D01*
X130896589Y-103475990D01*
X131166842Y-103587932D01*
X131453740Y-103645000D01*
X131746260Y-103645000D01*
X132033158Y-103587932D01*
X132303411Y-103475990D01*
X132546632Y-103313475D01*
X132753475Y-103106632D01*
X132915990Y-102863411D01*
X133027932Y-102593158D01*
X133085000Y-102306260D01*
X133085000Y-102013740D01*
X133027932Y-101726842D01*
X132915990Y-101456589D01*
X132753475Y-101213368D01*
X132546632Y-101006525D01*
X132372240Y-100890000D01*
X132546632Y-100773475D01*
X132753475Y-100566632D01*
X132915990Y-100323411D01*
X133027932Y-100053158D01*
X133085000Y-99766260D01*
X133085000Y-99473740D01*
X133027932Y-99186842D01*
X132915990Y-98916589D01*
X132753475Y-98673368D01*
X132546632Y-98466525D01*
X132372240Y-98350000D01*
X132546632Y-98233475D01*
X132753475Y-98026632D01*
X132915990Y-97783411D01*
X133027932Y-97513158D01*
X133085000Y-97226260D01*
X133085000Y-96933740D01*
X133027932Y-96646842D01*
X132915990Y-96376589D01*
X132753475Y-96133368D01*
X132546632Y-95926525D01*
X132372240Y-95810000D01*
X132546632Y-95693475D01*
X132753475Y-95486632D01*
X132915990Y-95243411D01*
X133027932Y-94973158D01*
X133085000Y-94686260D01*
X133085000Y-94393740D01*
X133031544Y-94124999D01*
X135222679Y-94124999D01*
X135260001Y-94128675D01*
X135297323Y-94124999D01*
X135297334Y-94124999D01*
X135408987Y-94114002D01*
X135552248Y-94070545D01*
X135684277Y-93999973D01*
X135800002Y-93905000D01*
X135823805Y-93875996D01*
X138364802Y-91335000D01*
X138426939Y-91335000D01*
X138626898Y-91295226D01*
X138690001Y-91269088D01*
X138690001Y-95462668D01*
X138686324Y-95500000D01*
X138690001Y-95537333D01*
X138700998Y-95648986D01*
X138714067Y-95692068D01*
X138744454Y-95792246D01*
X138815026Y-95924276D01*
X138885169Y-96009744D01*
X138910000Y-96040001D01*
X138938998Y-96063799D01*
X139661201Y-96786002D01*
X139684999Y-96815001D01*
X139713997Y-96838799D01*
X139800724Y-96909974D01*
X139932753Y-96980546D01*
X140076014Y-97024003D01*
X140225000Y-97038677D01*
X140262333Y-97035000D01*
X141137678Y-97035000D01*
X141175000Y-97038676D01*
X141212322Y-97035000D01*
X141212333Y-97035000D01*
X141323986Y-97024003D01*
X141467247Y-96980546D01*
X141599276Y-96909974D01*
X141715001Y-96815001D01*
X141738804Y-96785997D01*
X143414802Y-95110000D01*
X143476939Y-95110000D01*
X143676898Y-95070226D01*
X143765001Y-95033732D01*
X143765001Y-98966866D01*
X143608368Y-99071525D01*
X143401525Y-99278368D01*
X143285000Y-99452760D01*
X143168475Y-99278368D01*
X142961632Y-99071525D01*
X142718411Y-98909010D01*
X142448158Y-98797068D01*
X142161260Y-98740000D01*
X141868740Y-98740000D01*
X141581842Y-98797068D01*
X141311589Y-98909010D01*
X141068368Y-99071525D01*
X140861525Y-99278368D01*
X140699010Y-99521589D01*
X140587068Y-99791842D01*
X140530000Y-100078740D01*
X140530000Y-100371260D01*
X140587068Y-100658158D01*
X140699010Y-100928411D01*
X140861525Y-101171632D01*
X141068368Y-101378475D01*
X141311589Y-101540990D01*
X141581842Y-101652932D01*
X141868740Y-101710000D01*
X142161260Y-101710000D01*
X142448158Y-101652932D01*
X142718411Y-101540990D01*
X142961632Y-101378475D01*
X143168475Y-101171632D01*
X143285000Y-100997240D01*
X143401525Y-101171632D01*
X143608368Y-101378475D01*
X143851589Y-101540990D01*
X144121842Y-101652932D01*
X144408740Y-101710000D01*
X144701260Y-101710000D01*
X144988158Y-101652932D01*
X145258411Y-101540990D01*
X145501632Y-101378475D01*
X145708475Y-101171632D01*
X145825000Y-100997240D01*
X145941525Y-101171632D01*
X146148368Y-101378475D01*
X146391589Y-101540990D01*
X146661842Y-101652932D01*
X146948740Y-101710000D01*
X147241260Y-101710000D01*
X147528158Y-101652932D01*
X147798411Y-101540990D01*
X148041632Y-101378475D01*
X148248475Y-101171632D01*
X148370195Y-100989466D01*
X148439822Y-101106355D01*
X148634731Y-101322588D01*
X148868080Y-101496641D01*
X149130901Y-101621825D01*
X149278110Y-101666476D01*
X149508000Y-101545155D01*
X149508000Y-100352000D01*
X149488000Y-100352000D01*
X149488000Y-100098000D01*
X149508000Y-100098000D01*
X149508000Y-98904845D01*
X149278110Y-98783524D01*
X149130901Y-98828175D01*
X148868080Y-98953359D01*
X148634731Y-99127412D01*
X148439822Y-99343645D01*
X148370195Y-99460534D01*
X148248475Y-99278368D01*
X148085000Y-99114893D01*
X148085000Y-89611800D01*
X148790000Y-90316800D01*
X148790001Y-92871288D01*
X148746063Y-92915226D01*
X148632795Y-93084744D01*
X148554774Y-93273102D01*
X148515000Y-93473061D01*
X148515000Y-93676939D01*
X148554774Y-93876898D01*
X148632795Y-94065256D01*
X148746063Y-94234774D01*
X148890226Y-94378937D01*
X149059744Y-94492205D01*
X149248102Y-94570226D01*
X149448061Y-94610000D01*
X149651939Y-94610000D01*
X149851898Y-94570226D01*
X150040256Y-94492205D01*
X150209774Y-94378937D01*
X150353937Y-94234774D01*
X150467205Y-94065256D01*
X150545226Y-93876898D01*
X150585000Y-93676939D01*
X150585000Y-93473061D01*
X150545226Y-93273102D01*
X150467205Y-93084744D01*
X150353937Y-92915226D01*
X150310000Y-92871289D01*
X150310000Y-90039320D01*
X150313676Y-90001997D01*
X150310000Y-89964674D01*
X150310000Y-89964665D01*
X150299003Y-89853012D01*
X150255546Y-89709751D01*
X150231640Y-89665026D01*
X150184974Y-89577721D01*
X150113799Y-89490995D01*
X150090001Y-89461997D01*
X150061004Y-89438200D01*
X147861806Y-87239003D01*
X147838003Y-87209999D01*
X147722278Y-87115026D01*
X147590249Y-87044454D01*
X147446988Y-87000997D01*
X147335335Y-86990000D01*
X147335324Y-86990000D01*
X147326023Y-86989084D01*
X147368475Y-86946632D01*
X147490195Y-86764466D01*
X147559822Y-86881355D01*
X147754731Y-87097588D01*
X147988080Y-87271641D01*
X148250901Y-87396825D01*
X148398110Y-87441476D01*
X148628000Y-87320155D01*
X148628000Y-86127000D01*
X148882000Y-86127000D01*
X148882000Y-87320155D01*
X149111890Y-87441476D01*
X149259099Y-87396825D01*
X149521920Y-87271641D01*
X149755269Y-87097588D01*
X149950178Y-86881355D01*
X150099157Y-86631252D01*
X150196481Y-86356891D01*
X150075814Y-86127000D01*
X148882000Y-86127000D01*
X148628000Y-86127000D01*
X148608000Y-86127000D01*
X148608000Y-85873000D01*
X148628000Y-85873000D01*
X148628000Y-84679845D01*
X148882000Y-84679845D01*
X148882000Y-85873000D01*
X150075814Y-85873000D01*
X150196481Y-85643109D01*
X150099157Y-85368748D01*
X149950178Y-85118645D01*
X149755269Y-84902412D01*
X149521920Y-84728359D01*
X149259099Y-84603175D01*
X149111890Y-84558524D01*
X148882000Y-84679845D01*
X148628000Y-84679845D01*
X148398110Y-84558524D01*
X148250901Y-84603175D01*
X147988080Y-84728359D01*
X147754731Y-84902412D01*
X147559822Y-85118645D01*
X147490195Y-85235534D01*
X147368475Y-85053368D01*
X147161632Y-84846525D01*
X146975000Y-84721822D01*
X146975000Y-80727322D01*
X146978676Y-80689999D01*
X146975000Y-80652676D01*
X146975000Y-80652667D01*
X146965873Y-80560000D01*
X149171289Y-80560000D01*
X149190226Y-80578937D01*
X149359744Y-80692205D01*
X149548102Y-80770226D01*
X149748061Y-80810000D01*
X149951939Y-80810000D01*
X150151898Y-80770226D01*
X150340256Y-80692205D01*
X150509774Y-80578937D01*
X150653937Y-80434774D01*
X150767205Y-80265256D01*
X150845226Y-80076898D01*
X150885000Y-79876939D01*
X150885000Y-79673061D01*
X150845226Y-79473102D01*
X150767205Y-79284744D01*
X150653937Y-79115226D01*
X150621780Y-79083069D01*
X150717205Y-78940256D01*
X150795226Y-78751898D01*
X150835000Y-78551939D01*
X150835000Y-78348061D01*
X150795226Y-78148102D01*
X150717205Y-77959744D01*
X150603937Y-77790226D01*
X150459774Y-77646063D01*
X150290256Y-77532795D01*
X150101898Y-77454774D01*
X149901939Y-77415000D01*
X149698061Y-77415000D01*
X149498102Y-77454774D01*
X149309744Y-77532795D01*
X149140226Y-77646063D01*
X149096289Y-77690000D01*
X146574117Y-77690000D01*
X146141271Y-77257155D01*
X146195226Y-77126898D01*
X146235000Y-76926939D01*
X146235000Y-76859999D01*
X148137679Y-76859999D01*
X148175001Y-76863675D01*
X148212323Y-76859999D01*
X148212334Y-76859999D01*
X148323987Y-76849002D01*
X148467248Y-76805545D01*
X148599277Y-76734973D01*
X148715002Y-76640000D01*
X148738805Y-76610996D01*
X151265000Y-74084802D01*
X151265000Y-74176939D01*
X151304774Y-74376898D01*
X151382795Y-74565256D01*
X151496063Y-74734774D01*
X151640226Y-74878937D01*
X151809744Y-74992205D01*
X151998102Y-75070226D01*
X152198061Y-75110000D01*
X152401939Y-75110000D01*
X152601898Y-75070226D01*
X152790256Y-74992205D01*
X152959774Y-74878937D01*
X153103937Y-74734774D01*
X153217205Y-74565256D01*
X153271159Y-74435001D01*
X154335200Y-74435001D01*
X154939980Y-75039782D01*
X154939981Y-86657648D01*
X154936304Y-86694980D01*
X154939981Y-86732313D01*
X154950978Y-86843966D01*
X154962320Y-86881355D01*
X154994434Y-86987226D01*
X155065006Y-87119256D01*
X155119947Y-87186201D01*
X155159980Y-87234981D01*
X155188978Y-87258779D01*
X158308790Y-90378592D01*
X158265000Y-90598740D01*
X158265000Y-90891260D01*
X158322068Y-91178158D01*
X158434010Y-91448411D01*
X158596525Y-91691632D01*
X158803368Y-91898475D01*
X158977760Y-92015000D01*
X158803368Y-92131525D01*
X158596525Y-92338368D01*
X158434010Y-92581589D01*
X158322068Y-92851842D01*
X158265000Y-93138740D01*
X158265000Y-93431260D01*
X158322068Y-93718158D01*
X158434010Y-93988411D01*
X158596525Y-94231632D01*
X158803368Y-94438475D01*
X159046589Y-94600990D01*
X159316842Y-94712932D01*
X159603740Y-94770000D01*
X159896260Y-94770000D01*
X160183158Y-94712932D01*
X160453411Y-94600990D01*
X160696632Y-94438475D01*
X160903475Y-94231632D01*
X160990001Y-94102137D01*
X160990001Y-102977617D01*
X160661302Y-102757988D01*
X160272756Y-102597047D01*
X159860279Y-102515000D01*
X159439721Y-102515000D01*
X159027244Y-102597047D01*
X158638698Y-102757988D01*
X158289017Y-102991637D01*
X157991637Y-103289017D01*
X157757988Y-103638698D01*
X157597047Y-104027244D01*
X157515000Y-104439721D01*
X157515000Y-104860279D01*
X157597047Y-105272756D01*
X157757988Y-105661302D01*
X157979320Y-105992549D01*
X148677873Y-105999009D01*
X150340000Y-104336882D01*
X150340000Y-104471260D01*
X150397068Y-104758158D01*
X150509010Y-105028411D01*
X150671525Y-105271632D01*
X150878368Y-105478475D01*
X151121589Y-105640990D01*
X151391842Y-105752932D01*
X151678740Y-105810000D01*
X151971260Y-105810000D01*
X152258158Y-105752932D01*
X152528411Y-105640990D01*
X152771632Y-105478475D01*
X152903487Y-105346620D01*
X152925498Y-105419180D01*
X152984463Y-105529494D01*
X153063815Y-105626185D01*
X153160506Y-105705537D01*
X153270820Y-105764502D01*
X153390518Y-105800812D01*
X153515000Y-105813072D01*
X154079250Y-105810000D01*
X154238000Y-105651250D01*
X154238000Y-104452000D01*
X154492000Y-104452000D01*
X154492000Y-105651250D01*
X154650750Y-105810000D01*
X155215000Y-105813072D01*
X155339482Y-105800812D01*
X155459180Y-105764502D01*
X155569494Y-105705537D01*
X155666185Y-105626185D01*
X155745537Y-105529494D01*
X155804502Y-105419180D01*
X155840812Y-105299482D01*
X155853072Y-105175000D01*
X155850000Y-104610750D01*
X155691250Y-104452000D01*
X154492000Y-104452000D01*
X154238000Y-104452000D01*
X154218000Y-104452000D01*
X154218000Y-104198000D01*
X154238000Y-104198000D01*
X154238000Y-102998750D01*
X154492000Y-102998750D01*
X154492000Y-104198000D01*
X155691250Y-104198000D01*
X155850000Y-104039250D01*
X155853072Y-103475000D01*
X155840812Y-103350518D01*
X155804502Y-103230820D01*
X155745537Y-103120506D01*
X155666185Y-103023815D01*
X155569494Y-102944463D01*
X155459180Y-102885498D01*
X155339482Y-102849188D01*
X155215000Y-102836928D01*
X154650750Y-102840000D01*
X154492000Y-102998750D01*
X154238000Y-102998750D01*
X154079250Y-102840000D01*
X153515000Y-102836928D01*
X153390518Y-102849188D01*
X153270820Y-102885498D01*
X153160506Y-102944463D01*
X153063815Y-103023815D01*
X152984463Y-103120506D01*
X152925498Y-103230820D01*
X152903487Y-103303380D01*
X152771632Y-103171525D01*
X152528411Y-103009010D01*
X152258158Y-102897068D01*
X151971260Y-102840000D01*
X151836883Y-102840000D01*
X152686004Y-101990879D01*
X152715001Y-101967082D01*
X152809974Y-101851357D01*
X152880546Y-101719328D01*
X152924003Y-101576067D01*
X152930913Y-101505909D01*
X153121632Y-101378475D01*
X153328475Y-101171632D01*
X153490990Y-100928411D01*
X153602932Y-100658158D01*
X153660000Y-100371260D01*
X153660000Y-100078740D01*
X153602932Y-99791842D01*
X153490990Y-99521589D01*
X153328475Y-99278368D01*
X153121632Y-99071525D01*
X152878411Y-98909010D01*
X152608158Y-98797068D01*
X152321260Y-98740000D01*
X152028740Y-98740000D01*
X151741842Y-98797068D01*
X151471589Y-98909010D01*
X151228368Y-99071525D01*
X151021525Y-99278368D01*
X150899805Y-99460534D01*
X150830178Y-99343645D01*
X150635269Y-99127412D01*
X150401920Y-98953359D01*
X150139099Y-98828175D01*
X149991890Y-98783524D01*
X149762000Y-98904845D01*
X149762000Y-100098000D01*
X149782000Y-100098000D01*
X149782000Y-100352000D01*
X149762000Y-100352000D01*
X149762000Y-101545155D01*
X149991890Y-101666476D01*
X150139099Y-101621825D01*
X150401920Y-101496641D01*
X150635269Y-101322588D01*
X150830178Y-101106355D01*
X150899805Y-100989466D01*
X151021525Y-101171632D01*
X151188586Y-101338693D01*
X147437607Y-105089672D01*
X147435000Y-104610750D01*
X147276250Y-104452000D01*
X146077000Y-104452000D01*
X146077000Y-104472000D01*
X145823000Y-104472000D01*
X145823000Y-104452000D01*
X145803000Y-104452000D01*
X145803000Y-104198000D01*
X145823000Y-104198000D01*
X145823000Y-102998750D01*
X146077000Y-102998750D01*
X146077000Y-104198000D01*
X147276250Y-104198000D01*
X147435000Y-104039250D01*
X147438072Y-103475000D01*
X147425812Y-103350518D01*
X147389502Y-103230820D01*
X147330537Y-103120506D01*
X147251185Y-103023815D01*
X147154494Y-102944463D01*
X147044180Y-102885498D01*
X146924482Y-102849188D01*
X146800000Y-102836928D01*
X146235750Y-102840000D01*
X146077000Y-102998750D01*
X145823000Y-102998750D01*
X145664250Y-102840000D01*
X145100000Y-102836928D01*
X144975518Y-102849188D01*
X144855820Y-102885498D01*
X144745506Y-102944463D01*
X144648815Y-103023815D01*
X144569463Y-103120506D01*
X144510498Y-103230820D01*
X144488487Y-103303380D01*
X144356632Y-103171525D01*
X144113411Y-103009010D01*
X143843158Y-102897068D01*
X143556260Y-102840000D01*
X143263740Y-102840000D01*
X142976842Y-102897068D01*
X142706589Y-103009010D01*
X142463368Y-103171525D01*
X142256525Y-103378368D01*
X142094010Y-103621589D01*
X141982068Y-103891842D01*
X141925000Y-104178740D01*
X141925000Y-104471260D01*
X141982068Y-104758158D01*
X142094010Y-105028411D01*
X142178595Y-105155001D01*
X138937963Y-105155001D01*
X138935000Y-104610750D01*
X138776250Y-104452000D01*
X137577000Y-104452000D01*
X137577000Y-104472000D01*
X137323000Y-104472000D01*
X137323000Y-104452000D01*
X137303000Y-104452000D01*
X137303000Y-104198000D01*
X137323000Y-104198000D01*
X137323000Y-102998750D01*
X137577000Y-102998750D01*
X137577000Y-104198000D01*
X138776250Y-104198000D01*
X138935000Y-104039250D01*
X138938072Y-103475000D01*
X138925812Y-103350518D01*
X138889502Y-103230820D01*
X138830537Y-103120506D01*
X138751185Y-103023815D01*
X138654494Y-102944463D01*
X138544180Y-102885498D01*
X138424482Y-102849188D01*
X138300000Y-102836928D01*
X137735750Y-102840000D01*
X137577000Y-102998750D01*
X137323000Y-102998750D01*
X137164250Y-102840000D01*
X136600000Y-102836928D01*
X136475518Y-102849188D01*
X136355820Y-102885498D01*
X136245506Y-102944463D01*
X136148815Y-103023815D01*
X136069463Y-103120506D01*
X136010498Y-103230820D01*
X135988487Y-103303380D01*
X135856632Y-103171525D01*
X135613411Y-103009010D01*
X135343158Y-102897068D01*
X135056260Y-102840000D01*
X134763740Y-102840000D01*
X134476842Y-102897068D01*
X134206589Y-103009010D01*
X133963368Y-103171525D01*
X133756525Y-103378368D01*
X133594010Y-103621589D01*
X133482068Y-103891842D01*
X133425000Y-104178740D01*
X133425000Y-104471260D01*
X133482068Y-104758158D01*
X133594010Y-105028411D01*
X133678595Y-105155001D01*
X123031544Y-105155001D01*
X123085000Y-104886260D01*
X123085000Y-104593740D01*
X123027932Y-104306842D01*
X122915990Y-104036589D01*
X122753475Y-103793368D01*
X122546632Y-103586525D01*
X122372240Y-103470000D01*
X122546632Y-103353475D01*
X122753475Y-103146632D01*
X122915990Y-102903411D01*
X123027932Y-102633158D01*
X123085000Y-102346260D01*
X123085000Y-102053740D01*
X123027932Y-101766842D01*
X122915990Y-101496589D01*
X122753475Y-101253368D01*
X122546632Y-101046525D01*
X122364466Y-100924805D01*
X122481355Y-100855178D01*
X122697588Y-100660269D01*
X122871641Y-100426920D01*
X122996825Y-100164099D01*
X123041476Y-100016890D01*
X122920155Y-99787000D01*
X121727000Y-99787000D01*
X121727000Y-99807000D01*
X121473000Y-99807000D01*
X121473000Y-99787000D01*
X120279845Y-99787000D01*
X120158524Y-100016890D01*
X120203175Y-100164099D01*
X120328359Y-100426920D01*
X120502412Y-100660269D01*
X120718645Y-100855178D01*
X120835534Y-100924805D01*
X120653368Y-101046525D01*
X120446525Y-101253368D01*
X120284010Y-101496589D01*
X120172068Y-101766842D01*
X120115000Y-102053740D01*
X120115000Y-102346260D01*
X120172068Y-102633158D01*
X120284010Y-102903411D01*
X120446525Y-103146632D01*
X120653368Y-103353475D01*
X120827760Y-103470000D01*
X120653368Y-103586525D01*
X120446525Y-103793368D01*
X120284010Y-104036589D01*
X120268891Y-104073091D01*
X106510000Y-90314201D01*
X106510000Y-89938967D01*
X109915000Y-89938967D01*
X109915000Y-90261033D01*
X109977832Y-90576912D01*
X110101082Y-90874463D01*
X110280013Y-91142252D01*
X110507748Y-91369987D01*
X110775537Y-91548918D01*
X111073088Y-91672168D01*
X111388967Y-91735000D01*
X111711033Y-91735000D01*
X112026912Y-91672168D01*
X112324463Y-91548918D01*
X112592252Y-91369987D01*
X112726826Y-91235413D01*
X115094192Y-91235413D01*
X115189956Y-91499814D01*
X115479571Y-91640704D01*
X115791108Y-91722384D01*
X116112595Y-91741718D01*
X116431675Y-91697961D01*
X116736088Y-91592795D01*
X116910044Y-91499814D01*
X117005808Y-91235413D01*
X116050000Y-90279605D01*
X115094192Y-91235413D01*
X112726826Y-91235413D01*
X112819987Y-91142252D01*
X112998918Y-90874463D01*
X113122168Y-90576912D01*
X113185000Y-90261033D01*
X113185000Y-90162595D01*
X114408282Y-90162595D01*
X114452039Y-90481675D01*
X114557205Y-90786088D01*
X114650186Y-90960044D01*
X114914587Y-91055808D01*
X115870395Y-90100000D01*
X116229605Y-90100000D01*
X117185413Y-91055808D01*
X117449814Y-90960044D01*
X117590704Y-90670429D01*
X117672384Y-90358892D01*
X117691718Y-90037405D01*
X117647961Y-89718325D01*
X117542795Y-89413912D01*
X117449814Y-89239956D01*
X117185413Y-89144192D01*
X116229605Y-90100000D01*
X115870395Y-90100000D01*
X114914587Y-89144192D01*
X114650186Y-89239956D01*
X114509296Y-89529571D01*
X114427616Y-89841108D01*
X114408282Y-90162595D01*
X113185000Y-90162595D01*
X113185000Y-89938967D01*
X113122168Y-89623088D01*
X112998918Y-89325537D01*
X112819987Y-89057748D01*
X112726826Y-88964587D01*
X115094192Y-88964587D01*
X116050000Y-89920395D01*
X117005808Y-88964587D01*
X116910044Y-88700186D01*
X116620429Y-88559296D01*
X116308892Y-88477616D01*
X115987405Y-88458282D01*
X115668325Y-88502039D01*
X115363912Y-88607205D01*
X115189956Y-88700186D01*
X115094192Y-88964587D01*
X112726826Y-88964587D01*
X112592252Y-88830013D01*
X112324463Y-88651082D01*
X112026912Y-88527832D01*
X111711033Y-88465000D01*
X111388967Y-88465000D01*
X111073088Y-88527832D01*
X110775537Y-88651082D01*
X110507748Y-88830013D01*
X110280013Y-89057748D01*
X110101082Y-89325537D01*
X109977832Y-89623088D01*
X109915000Y-89938967D01*
X106510000Y-89938967D01*
X106510000Y-85453711D01*
X106553937Y-85409774D01*
X106667205Y-85240256D01*
X106745226Y-85051898D01*
X106785000Y-84851939D01*
X106785000Y-84648061D01*
X106745226Y-84448102D01*
X106667205Y-84259744D01*
X106553937Y-84090226D01*
X106409774Y-83946063D01*
X106240256Y-83832795D01*
X106051898Y-83754774D01*
X105851939Y-83715000D01*
X105648061Y-83715000D01*
X105448102Y-83754774D01*
X105259744Y-83832795D01*
X105090226Y-83946063D01*
X104946063Y-84090226D01*
X104832795Y-84259744D01*
X104754774Y-84448102D01*
X104715000Y-84648061D01*
X104715000Y-84851939D01*
X104754774Y-85051898D01*
X104832795Y-85240256D01*
X104946063Y-85409774D01*
X104990000Y-85453711D01*
X104990001Y-90591670D01*
X104986324Y-90629002D01*
X104990001Y-90666335D01*
X105000998Y-90777988D01*
X105011013Y-90811003D01*
X105044454Y-90921248D01*
X105115026Y-91053278D01*
X105165680Y-91114999D01*
X105210000Y-91169003D01*
X105238998Y-91192801D01*
X120065075Y-106018879D01*
X93281868Y-106037478D01*
X93308363Y-106010983D01*
X93542012Y-105661302D01*
X93702953Y-105272756D01*
X93785000Y-104860279D01*
X93785000Y-104756891D01*
X94538519Y-104756891D01*
X94635843Y-105031252D01*
X94784822Y-105281355D01*
X94979731Y-105497588D01*
X95213080Y-105671641D01*
X95475901Y-105796825D01*
X95623110Y-105841476D01*
X95853000Y-105720155D01*
X95853000Y-104527000D01*
X94659186Y-104527000D01*
X94538519Y-104756891D01*
X93785000Y-104756891D01*
X93785000Y-104439721D01*
X93706109Y-104043109D01*
X94538519Y-104043109D01*
X94659186Y-104273000D01*
X95853000Y-104273000D01*
X95853000Y-103079845D01*
X96107000Y-103079845D01*
X96107000Y-104273000D01*
X96127000Y-104273000D01*
X96127000Y-104527000D01*
X96107000Y-104527000D01*
X96107000Y-105720155D01*
X96336890Y-105841476D01*
X96484099Y-105796825D01*
X96746920Y-105671641D01*
X96980269Y-105497588D01*
X97175178Y-105281355D01*
X97244805Y-105164466D01*
X97366525Y-105346632D01*
X97573368Y-105553475D01*
X97816589Y-105715990D01*
X98086842Y-105827932D01*
X98373740Y-105885000D01*
X98666260Y-105885000D01*
X98953158Y-105827932D01*
X99223411Y-105715990D01*
X99466632Y-105553475D01*
X99673475Y-105346632D01*
X99790000Y-105172240D01*
X99906525Y-105346632D01*
X100113368Y-105553475D01*
X100356589Y-105715990D01*
X100626842Y-105827932D01*
X100913740Y-105885000D01*
X101206260Y-105885000D01*
X101493158Y-105827932D01*
X101763411Y-105715990D01*
X102006632Y-105553475D01*
X102138487Y-105421620D01*
X102160498Y-105494180D01*
X102219463Y-105604494D01*
X102298815Y-105701185D01*
X102395506Y-105780537D01*
X102505820Y-105839502D01*
X102625518Y-105875812D01*
X102750000Y-105888072D01*
X104450000Y-105888072D01*
X104574482Y-105875812D01*
X104694180Y-105839502D01*
X104804494Y-105780537D01*
X104901185Y-105701185D01*
X104980537Y-105604494D01*
X105039502Y-105494180D01*
X105075812Y-105374482D01*
X105088072Y-105250000D01*
X105088072Y-103550000D01*
X105075812Y-103425518D01*
X105039502Y-103305820D01*
X104980537Y-103195506D01*
X104901185Y-103098815D01*
X104804494Y-103019463D01*
X104694180Y-102960498D01*
X104574482Y-102924188D01*
X104450000Y-102911928D01*
X102750000Y-102911928D01*
X102625518Y-102924188D01*
X102505820Y-102960498D01*
X102395506Y-103019463D01*
X102298815Y-103098815D01*
X102219463Y-103195506D01*
X102160498Y-103305820D01*
X102138487Y-103378380D01*
X102006632Y-103246525D01*
X101763411Y-103084010D01*
X101493158Y-102972068D01*
X101206260Y-102915000D01*
X100913740Y-102915000D01*
X100626842Y-102972068D01*
X100356589Y-103084010D01*
X100113368Y-103246525D01*
X99906525Y-103453368D01*
X99790000Y-103627760D01*
X99673475Y-103453368D01*
X99466632Y-103246525D01*
X99223411Y-103084010D01*
X98953158Y-102972068D01*
X98666260Y-102915000D01*
X98373740Y-102915000D01*
X98086842Y-102972068D01*
X97816589Y-103084010D01*
X97573368Y-103246525D01*
X97366525Y-103453368D01*
X97244805Y-103635534D01*
X97175178Y-103518645D01*
X96980269Y-103302412D01*
X96746920Y-103128359D01*
X96484099Y-103003175D01*
X96336890Y-102958524D01*
X96107000Y-103079845D01*
X95853000Y-103079845D01*
X95623110Y-102958524D01*
X95475901Y-103003175D01*
X95213080Y-103128359D01*
X94979731Y-103302412D01*
X94784822Y-103518645D01*
X94635843Y-103768748D01*
X94538519Y-104043109D01*
X93706109Y-104043109D01*
X93702953Y-104027244D01*
X93542012Y-103638698D01*
X93308363Y-103289017D01*
X93010983Y-102991637D01*
X92661302Y-102757988D01*
X92272756Y-102597047D01*
X91860279Y-102515000D01*
X91439721Y-102515000D01*
X91027244Y-102597047D01*
X90638698Y-102757988D01*
X90314228Y-102974792D01*
X90324780Y-93678397D01*
X90801208Y-93678397D01*
X90878843Y-93927472D01*
X91142883Y-94053371D01*
X91426411Y-94125339D01*
X91718531Y-94140611D01*
X92008019Y-94098599D01*
X92283747Y-94000919D01*
X92421157Y-93927472D01*
X92498792Y-93678397D01*
X91650000Y-92829605D01*
X90801208Y-93678397D01*
X90324780Y-93678397D01*
X90325173Y-93332561D01*
X90372528Y-93421157D01*
X90621603Y-93498792D01*
X91470395Y-92650000D01*
X91829605Y-92650000D01*
X92678397Y-93498792D01*
X92927472Y-93421157D01*
X93053371Y-93157117D01*
X93125339Y-92873589D01*
X93140611Y-92581469D01*
X93098599Y-92291981D01*
X93000919Y-92016253D01*
X92927472Y-91878843D01*
X92678397Y-91801208D01*
X91829605Y-92650000D01*
X91470395Y-92650000D01*
X90621603Y-91801208D01*
X90372528Y-91878843D01*
X90326714Y-91974926D01*
X90328049Y-90799019D01*
X90334010Y-90813411D01*
X90496525Y-91056632D01*
X90703368Y-91263475D01*
X90876729Y-91379311D01*
X90801208Y-91621603D01*
X91650000Y-92470395D01*
X92498792Y-91621603D01*
X92423271Y-91379311D01*
X92596632Y-91263475D01*
X92803475Y-91056632D01*
X92965990Y-90813411D01*
X93077932Y-90543158D01*
X93135000Y-90256260D01*
X93135000Y-89963740D01*
X93077932Y-89676842D01*
X92965990Y-89406589D01*
X92803475Y-89163368D01*
X92596632Y-88956525D01*
X92422240Y-88840000D01*
X92596632Y-88723475D01*
X92803475Y-88516632D01*
X92965990Y-88273411D01*
X93077932Y-88003158D01*
X93135000Y-87716260D01*
X93135000Y-87423740D01*
X93077932Y-87136842D01*
X92965990Y-86866589D01*
X92803475Y-86623368D01*
X92596632Y-86416525D01*
X92422240Y-86300000D01*
X92596632Y-86183475D01*
X92803475Y-85976632D01*
X92965990Y-85733411D01*
X93077932Y-85463158D01*
X93135000Y-85176260D01*
X93135000Y-84883740D01*
X93077932Y-84596842D01*
X92965990Y-84326589D01*
X92803475Y-84083368D01*
X92596632Y-83876525D01*
X92422240Y-83760000D01*
X92596632Y-83643475D01*
X92801140Y-83438967D01*
X109915000Y-83438967D01*
X109915000Y-83761033D01*
X109977832Y-84076912D01*
X110101082Y-84374463D01*
X110280013Y-84642252D01*
X110507748Y-84869987D01*
X110775537Y-85048918D01*
X111073088Y-85172168D01*
X111388967Y-85235000D01*
X111711033Y-85235000D01*
X112026912Y-85172168D01*
X112324463Y-85048918D01*
X112592252Y-84869987D01*
X112726826Y-84735413D01*
X115094192Y-84735413D01*
X115189956Y-84999814D01*
X115479571Y-85140704D01*
X115791108Y-85222384D01*
X116112595Y-85241718D01*
X116431675Y-85197961D01*
X116736088Y-85092795D01*
X116910044Y-84999814D01*
X117005808Y-84735413D01*
X116050000Y-83779605D01*
X115094192Y-84735413D01*
X112726826Y-84735413D01*
X112819987Y-84642252D01*
X112998918Y-84374463D01*
X113122168Y-84076912D01*
X113185000Y-83761033D01*
X113185000Y-83662595D01*
X114408282Y-83662595D01*
X114452039Y-83981675D01*
X114557205Y-84286088D01*
X114650186Y-84460044D01*
X114914587Y-84555808D01*
X115870395Y-83600000D01*
X116229605Y-83600000D01*
X117185413Y-84555808D01*
X117449814Y-84460044D01*
X117590704Y-84170429D01*
X117672384Y-83858892D01*
X117691718Y-83537405D01*
X117647961Y-83218325D01*
X117542795Y-82913912D01*
X117449814Y-82739956D01*
X117185413Y-82644192D01*
X116229605Y-83600000D01*
X115870395Y-83600000D01*
X114914587Y-82644192D01*
X114650186Y-82739956D01*
X114509296Y-83029571D01*
X114427616Y-83341108D01*
X114408282Y-83662595D01*
X113185000Y-83662595D01*
X113185000Y-83438967D01*
X113122168Y-83123088D01*
X112998918Y-82825537D01*
X112819987Y-82557748D01*
X112726826Y-82464587D01*
X115094192Y-82464587D01*
X116050000Y-83420395D01*
X117005808Y-82464587D01*
X116910044Y-82200186D01*
X116620429Y-82059296D01*
X116308892Y-81977616D01*
X115987405Y-81958282D01*
X115668325Y-82002039D01*
X115363912Y-82107205D01*
X115189956Y-82200186D01*
X115094192Y-82464587D01*
X112726826Y-82464587D01*
X112592252Y-82330013D01*
X112324463Y-82151082D01*
X112026912Y-82027832D01*
X111711033Y-81965000D01*
X111388967Y-81965000D01*
X111073088Y-82027832D01*
X110775537Y-82151082D01*
X110507748Y-82330013D01*
X110280013Y-82557748D01*
X110101082Y-82825537D01*
X109977832Y-83123088D01*
X109915000Y-83438967D01*
X92801140Y-83438967D01*
X92803475Y-83436632D01*
X92965990Y-83193411D01*
X93077932Y-82923158D01*
X93135000Y-82636260D01*
X93135000Y-82343740D01*
X93091210Y-82123592D01*
X93611003Y-81603799D01*
X93640001Y-81580001D01*
X93734974Y-81464276D01*
X93805546Y-81332247D01*
X93849003Y-81188986D01*
X93860000Y-81077333D01*
X93860000Y-81077325D01*
X93863676Y-81040000D01*
X93860000Y-81002675D01*
X93860000Y-76487322D01*
X93863676Y-76449999D01*
X93860000Y-76412676D01*
X93860000Y-76412667D01*
X93849003Y-76301014D01*
X93805546Y-76157753D01*
X93734974Y-76025724D01*
X93640001Y-75909999D01*
X93611004Y-75886202D01*
X92510000Y-74785199D01*
X92510000Y-69803711D01*
X92553937Y-69759774D01*
X92667205Y-69590256D01*
X92745226Y-69401898D01*
X92785000Y-69201939D01*
X92785000Y-68998061D01*
X92745226Y-68798102D01*
X92667205Y-68609744D01*
X92553937Y-68440226D01*
X92409774Y-68296063D01*
X92240256Y-68182795D01*
X92051898Y-68104774D01*
X91851939Y-68065000D01*
X91648061Y-68065000D01*
X91448102Y-68104774D01*
X91259744Y-68182795D01*
X91090226Y-68296063D01*
X90946063Y-68440226D01*
X90832795Y-68609744D01*
X90754774Y-68798102D01*
X90715000Y-68998061D01*
X90715000Y-69201939D01*
X90754774Y-69401898D01*
X90832795Y-69590256D01*
X90946063Y-69759774D01*
X90990000Y-69803711D01*
X90990001Y-74172571D01*
X90951939Y-74165000D01*
X90748061Y-74165000D01*
X90548102Y-74204774D01*
X90359744Y-74282795D01*
X90346786Y-74291453D01*
X90355797Y-66352984D01*
X90638698Y-66542012D01*
X91027244Y-66702953D01*
X91439721Y-66785000D01*
X91860279Y-66785000D01*
X92272756Y-66702953D01*
X92661302Y-66542012D01*
X93010983Y-66308363D01*
X93308363Y-66010983D01*
X93542012Y-65661302D01*
X93702953Y-65272756D01*
X93785000Y-64860279D01*
X93785000Y-64439721D01*
X93702953Y-64027244D01*
X93542012Y-63638698D01*
X93322383Y-63310000D01*
X128259893Y-63310000D01*
X128116525Y-63453368D01*
G37*
X128116525Y-63453368D02*
X127954010Y-63696589D01*
X127842068Y-63966842D01*
X127785000Y-64253740D01*
X127785000Y-64546260D01*
X127842068Y-64833158D01*
X127954010Y-65103411D01*
X128011867Y-65190000D01*
X119487325Y-65190000D01*
X119450000Y-65186324D01*
X119412675Y-65190000D01*
X119412667Y-65190000D01*
X119301014Y-65200997D01*
X119157753Y-65244454D01*
X119025724Y-65315026D01*
X118909999Y-65409999D01*
X118886201Y-65438997D01*
X117189003Y-67136196D01*
X117159999Y-67159999D01*
X117114676Y-67215226D01*
X117065026Y-67275724D01*
X117017842Y-67363998D01*
X116994454Y-67407754D01*
X116950997Y-67551015D01*
X116940000Y-67662668D01*
X116940000Y-67662678D01*
X116936324Y-67700000D01*
X116940000Y-67737322D01*
X116940001Y-77671288D01*
X116896063Y-77715226D01*
X116782795Y-77884744D01*
X116704774Y-78073102D01*
X116665000Y-78273061D01*
X116665000Y-78476939D01*
X116704774Y-78676898D01*
X116782795Y-78865256D01*
X116896063Y-79034774D01*
X117040226Y-79178937D01*
X117209744Y-79292205D01*
X117398102Y-79370226D01*
X117598061Y-79410000D01*
X117801939Y-79410000D01*
X118001898Y-79370226D01*
X118190256Y-79292205D01*
X118359774Y-79178937D01*
X118503937Y-79034774D01*
X118617205Y-78865256D01*
X118695226Y-78676898D01*
X118735000Y-78476939D01*
X118735000Y-78273061D01*
X118695226Y-78073102D01*
X118617205Y-77884744D01*
X118503937Y-77715226D01*
X118460000Y-77671289D01*
X118460000Y-68014801D01*
X119764802Y-66710000D01*
X135815199Y-66710000D01*
X135685199Y-66840000D01*
X135623061Y-66840000D01*
X135423102Y-66879774D01*
X135234744Y-66957795D01*
X135065226Y-67071063D01*
X134921063Y-67215226D01*
X134807795Y-67384744D01*
X134729774Y-67573102D01*
X134690000Y-67773061D01*
X134690000Y-67976939D01*
X134729774Y-68176898D01*
X134807795Y-68365256D01*
X134921063Y-68534774D01*
X135065226Y-68678937D01*
X135234744Y-68792205D01*
X135423102Y-68870226D01*
X135623061Y-68910000D01*
X135826939Y-68910000D01*
X136026898Y-68870226D01*
X136215256Y-68792205D01*
X136340001Y-68708853D01*
X136340000Y-71596289D01*
X136296063Y-71640226D01*
X136182795Y-71809744D01*
X136104774Y-71998102D01*
X136065000Y-72198061D01*
X136065000Y-72401939D01*
X136104774Y-72601898D01*
X136182795Y-72790256D01*
X136296063Y-72959774D01*
X136440226Y-73103937D01*
X136609744Y-73217205D01*
X136798102Y-73295226D01*
X136881864Y-73311887D01*
X136874209Y-73317002D01*
X136730046Y-73461165D01*
X136616778Y-73630683D01*
X136538757Y-73819041D01*
X136498983Y-74019000D01*
X136498983Y-74222878D01*
X136538757Y-74422837D01*
X136616778Y-74611195D01*
X136730046Y-74780713D01*
X136874209Y-74924876D01*
X136934259Y-74965000D01*
X130962740Y-74965000D01*
X127109474Y-71111736D01*
X127109474Y-71049598D01*
X127069700Y-70849639D01*
X126991679Y-70661281D01*
X126878411Y-70491763D01*
X126734248Y-70347600D01*
X126564730Y-70234332D01*
X126376372Y-70156311D01*
X126176413Y-70116537D01*
X125972535Y-70116537D01*
X125772576Y-70156311D01*
X125584218Y-70234332D01*
X125414700Y-70347600D01*
X125270537Y-70491763D01*
X125216909Y-70572023D01*
X125080548Y-70544899D01*
X124876670Y-70544899D01*
X124676711Y-70584673D01*
X124488353Y-70662694D01*
X124318835Y-70775962D01*
X124174672Y-70920125D01*
X124094574Y-71040000D01*
X123963607Y-71040000D01*
X123763648Y-71079774D01*
X123575290Y-71157795D01*
X123405772Y-71271063D01*
X123261609Y-71415226D01*
X123148341Y-71584744D01*
X123070320Y-71773102D01*
X123030546Y-71973061D01*
X123030546Y-72176939D01*
X123070320Y-72376898D01*
X123148341Y-72565256D01*
X123261609Y-72734774D01*
X123405772Y-72878937D01*
X123575290Y-72992205D01*
X123763648Y-73070226D01*
X123963607Y-73110000D01*
X124025745Y-73110000D01*
X129326746Y-78411002D01*
X129350545Y-78440001D01*
X129379543Y-78463799D01*
X129466269Y-78534974D01*
X129520567Y-78563997D01*
X129598299Y-78605546D01*
X129741560Y-78649003D01*
X129853213Y-78660000D01*
X129853223Y-78660000D01*
X129890545Y-78663676D01*
X129927868Y-78660000D01*
X136210199Y-78660000D01*
X138690000Y-81139802D01*
X138690001Y-89330912D01*
X138626898Y-89304774D01*
X138426939Y-89265000D01*
X138223061Y-89265000D01*
X138023102Y-89304774D01*
X137834744Y-89382795D01*
X137665226Y-89496063D01*
X137521063Y-89640226D01*
X137407795Y-89809744D01*
X137329774Y-89998102D01*
X137290000Y-90198061D01*
X137290000Y-90260198D01*
X137094293Y-90455906D01*
X137110000Y-90376939D01*
X137110000Y-90173061D01*
X137070226Y-89973102D01*
X136992205Y-89784744D01*
X136878937Y-89615226D01*
X136734774Y-89471063D01*
X136565256Y-89357795D01*
X136376898Y-89279774D01*
X136176939Y-89240000D01*
X135973061Y-89240000D01*
X135773102Y-89279774D01*
X135584744Y-89357795D01*
X135415226Y-89471063D01*
X135371289Y-89515000D01*
X123402323Y-89515000D01*
X123365000Y-89511324D01*
X123327677Y-89515000D01*
X123327667Y-89515000D01*
X123216014Y-89525997D01*
X123085000Y-89565739D01*
X123085000Y-89353740D01*
X123041209Y-89133592D01*
X129789802Y-82385000D01*
X131246289Y-82385000D01*
X131290226Y-82428937D01*
X131459744Y-82542205D01*
X131648102Y-82620226D01*
X131848061Y-82660000D01*
X132051939Y-82660000D01*
X132251898Y-82620226D01*
X132440256Y-82542205D01*
X132609774Y-82428937D01*
X132753937Y-82284774D01*
X132867205Y-82115256D01*
X132945226Y-81926898D01*
X132985000Y-81726939D01*
X132985000Y-81523061D01*
X132945226Y-81323102D01*
X132867205Y-81134744D01*
X132753937Y-80965226D01*
X132609774Y-80821063D01*
X132440256Y-80707795D01*
X132251898Y-80629774D01*
X132051939Y-80590000D01*
X131848061Y-80590000D01*
X131648102Y-80629774D01*
X131459744Y-80707795D01*
X131290226Y-80821063D01*
X131246289Y-80865000D01*
X129512323Y-80865000D01*
X129475000Y-80861324D01*
X129437677Y-80865000D01*
X129437667Y-80865000D01*
X129326014Y-80875997D01*
X129182753Y-80919454D01*
X129050724Y-80990026D01*
X128934999Y-81084999D01*
X128911201Y-81113997D01*
X121966408Y-88058791D01*
X121746260Y-88015000D01*
X121453740Y-88015000D01*
X121166842Y-88072068D01*
X120896589Y-88184010D01*
X120653368Y-88346525D01*
X120446525Y-88553368D01*
X120284010Y-88796589D01*
X120172068Y-89066842D01*
X120115000Y-89353740D01*
X120115000Y-89646260D01*
X120172068Y-89933158D01*
X120284010Y-90203411D01*
X120446525Y-90446632D01*
X120653368Y-90653475D01*
X120827760Y-90770000D01*
X120653368Y-90886525D01*
X120446525Y-91093368D01*
X120284010Y-91336589D01*
X120172068Y-91606842D01*
X120115000Y-91893740D01*
X120115000Y-92020199D01*
X119435000Y-91340199D01*
X119435000Y-87139801D01*
X124689802Y-81885000D01*
X124751939Y-81885000D01*
X124951898Y-81845226D01*
X125140256Y-81767205D01*
X125309774Y-81653937D01*
X125453937Y-81509774D01*
X125567205Y-81340256D01*
X125645226Y-81151898D01*
X125685000Y-80951939D01*
X125685000Y-80748061D01*
X125645226Y-80548102D01*
X125567205Y-80359744D01*
X125453937Y-80190226D01*
X125309774Y-80046063D01*
X125140256Y-79932795D01*
X124951898Y-79854774D01*
X124758663Y-79816337D01*
X124720226Y-79623102D01*
X124642205Y-79434744D01*
X124528937Y-79265226D01*
X124384774Y-79121063D01*
X124215256Y-79007795D01*
X124026898Y-78929774D01*
X123826939Y-78890000D01*
X123764802Y-78890000D01*
X123288804Y-78414002D01*
X123265001Y-78384999D01*
X123149276Y-78290026D01*
X123017247Y-78219454D01*
X122873986Y-78175997D01*
X122762333Y-78165000D01*
X122762322Y-78165000D01*
X122725000Y-78161324D01*
X122687678Y-78165000D01*
X122603711Y-78165000D01*
X122559774Y-78121063D01*
X122390256Y-78007795D01*
X122201898Y-77929774D01*
X122001939Y-77890000D01*
X121798061Y-77890000D01*
X121598102Y-77929774D01*
X121409744Y-78007795D01*
X121240226Y-78121063D01*
X121096063Y-78265226D01*
X120982795Y-78434744D01*
X120904774Y-78623102D01*
X120865000Y-78823061D01*
X120865000Y-79026939D01*
X120904774Y-79226898D01*
X120982795Y-79415256D01*
X121096063Y-79584774D01*
X121240226Y-79728937D01*
X121409744Y-79842205D01*
X121426467Y-79849132D01*
X121398102Y-79854774D01*
X121209744Y-79932795D01*
X121040226Y-80046063D01*
X120996289Y-80090000D01*
X109178711Y-80090000D01*
X109159774Y-80071063D01*
X108990256Y-79957795D01*
X108801898Y-79879774D01*
X108601939Y-79840000D01*
X108398061Y-79840000D01*
X108198102Y-79879774D01*
X108009744Y-79957795D01*
X107840226Y-80071063D01*
X107696063Y-80215226D01*
X107582795Y-80384744D01*
X107504774Y-80573102D01*
X107465000Y-80773061D01*
X107465000Y-80976939D01*
X107504774Y-81176898D01*
X107582795Y-81365256D01*
X107696063Y-81534774D01*
X107840226Y-81678937D01*
X108009744Y-81792205D01*
X108198102Y-81870226D01*
X108398061Y-81910000D01*
X108601939Y-81910000D01*
X108801898Y-81870226D01*
X108990256Y-81792205D01*
X109159774Y-81678937D01*
X109228711Y-81610000D01*
X120996289Y-81610000D01*
X121040226Y-81653937D01*
X121209744Y-81767205D01*
X121398102Y-81845226D01*
X121598061Y-81885000D01*
X121801939Y-81885000D01*
X122001898Y-81845226D01*
X122190256Y-81767205D01*
X122359774Y-81653937D01*
X122503937Y-81509774D01*
X122617205Y-81340256D01*
X122695226Y-81151898D01*
X122735000Y-80951939D01*
X122735000Y-80748061D01*
X122695226Y-80548102D01*
X122617205Y-80359744D01*
X122503937Y-80190226D01*
X122359774Y-80046063D01*
X122190256Y-79932795D01*
X122173533Y-79925868D01*
X122201898Y-79920226D01*
X122390256Y-79842205D01*
X122496448Y-79771250D01*
X122690000Y-79964802D01*
X122690000Y-80026939D01*
X122729774Y-80226898D01*
X122807795Y-80415256D01*
X122921063Y-80584774D01*
X123065226Y-80728937D01*
X123234744Y-80842205D01*
X123423102Y-80920226D01*
X123491389Y-80933809D01*
X118164003Y-86261196D01*
X118134999Y-86284999D01*
X118079871Y-86352174D01*
X118040026Y-86400724D01*
X117978944Y-86515000D01*
X117969454Y-86532754D01*
X117925997Y-86676015D01*
X117915000Y-86787668D01*
X117915000Y-86787678D01*
X117911324Y-86825000D01*
X117915000Y-86862323D01*
X117915001Y-91617668D01*
X117911324Y-91655000D01*
X117915001Y-91692333D01*
X117925606Y-91800000D01*
X117925998Y-91803985D01*
X117969454Y-91947246D01*
X118040026Y-92079276D01*
X118092228Y-92142883D01*
X118135000Y-92195001D01*
X118163998Y-92218799D01*
X120158790Y-94213592D01*
X120115000Y-94433740D01*
X120115000Y-94726260D01*
X120172068Y-95013158D01*
X120284010Y-95283411D01*
X120446525Y-95526632D01*
X120653368Y-95733475D01*
X120827760Y-95850000D01*
X120653368Y-95966525D01*
X120446525Y-96173368D01*
X120284010Y-96416589D01*
X120172068Y-96686842D01*
X120115000Y-96973740D01*
X120115000Y-97266260D01*
X120172068Y-97553158D01*
X120284010Y-97823411D01*
X120446525Y-98066632D01*
X120653368Y-98273475D01*
X120835534Y-98395195D01*
X120718645Y-98464822D01*
X120502412Y-98659731D01*
X120328359Y-98893080D01*
X120203175Y-99155901D01*
X120158524Y-99303110D01*
X120279845Y-99533000D01*
X121473000Y-99533000D01*
X121473000Y-99513000D01*
X121727000Y-99513000D01*
X121727000Y-99533000D01*
X122920155Y-99533000D01*
X123041476Y-99303110D01*
X122996825Y-99155901D01*
X122981225Y-99123149D01*
X123009744Y-99142205D01*
X123198102Y-99220226D01*
X123398061Y-99260000D01*
X123601554Y-99260000D01*
X123728836Y-99364458D01*
X123881291Y-99445947D01*
X124046715Y-99496128D01*
X124218750Y-99513072D01*
X125131250Y-99513072D01*
X125303285Y-99496128D01*
X125468709Y-99445947D01*
X125621164Y-99364458D01*
X125754792Y-99254792D01*
X125864458Y-99121164D01*
X125945947Y-98968709D01*
X125996128Y-98803285D01*
X126013072Y-98631250D01*
X126013072Y-98143750D01*
X125996128Y-97971715D01*
X125945947Y-97806291D01*
X125864458Y-97653836D01*
X125754792Y-97520208D01*
X125669244Y-97450000D01*
X125754792Y-97379792D01*
X125772191Y-97358591D01*
X125934744Y-97467205D01*
X126123102Y-97545226D01*
X126221481Y-97564795D01*
X126190000Y-97723061D01*
X126190000Y-97926939D01*
X126229774Y-98126898D01*
X126307795Y-98315256D01*
X126421063Y-98484774D01*
X126565226Y-98628937D01*
X126734744Y-98742205D01*
X126923102Y-98820226D01*
X127123061Y-98860000D01*
X127199868Y-98860000D01*
X127229053Y-98956209D01*
X127310542Y-99108664D01*
X127420208Y-99242292D01*
X127553836Y-99351958D01*
X127706291Y-99433447D01*
X127871715Y-99483628D01*
X128043750Y-99500572D01*
X128956250Y-99500572D01*
X129128285Y-99483628D01*
X129293709Y-99433447D01*
X129446164Y-99351958D01*
X129579792Y-99242292D01*
X129689458Y-99108664D01*
X129770947Y-98956209D01*
X129821128Y-98790785D01*
X129838072Y-98618750D01*
X129838072Y-98131250D01*
X129821128Y-97959215D01*
X129770947Y-97793791D01*
X129689458Y-97641336D01*
X129579792Y-97507708D01*
X129494244Y-97437500D01*
X129515877Y-97419746D01*
X129698102Y-97495226D01*
X129898061Y-97535000D01*
X130101939Y-97535000D01*
X130175088Y-97520450D01*
X130284010Y-97783411D01*
X130446525Y-98026632D01*
X130653368Y-98233475D01*
X130827760Y-98350000D01*
X130653368Y-98466525D01*
X130446525Y-98673368D01*
X130284010Y-98916589D01*
X130172068Y-99186842D01*
X130115000Y-99473740D01*
X130115000Y-99766260D01*
X130172068Y-100053158D01*
X130284010Y-100323411D01*
X130446525Y-100566632D01*
X130653368Y-100773475D01*
X130827760Y-100890000D01*
X130653368Y-101006525D01*
X130446525Y-101213368D01*
X130284010Y-101456589D01*
X130172068Y-101726842D01*
X130115000Y-102013740D01*
X130115000Y-102306260D01*
X130172068Y-102593158D01*
X130284010Y-102863411D01*
X130446525Y-103106632D01*
X130653368Y-103313475D01*
X130896589Y-103475990D01*
X131166842Y-103587932D01*
X131453740Y-103645000D01*
X131746260Y-103645000D01*
X132033158Y-103587932D01*
X132303411Y-103475990D01*
X132546632Y-103313475D01*
X132753475Y-103106632D01*
X132915990Y-102863411D01*
X133027932Y-102593158D01*
X133085000Y-102306260D01*
X133085000Y-102013740D01*
X133027932Y-101726842D01*
X132915990Y-101456589D01*
X132753475Y-101213368D01*
X132546632Y-101006525D01*
X132372240Y-100890000D01*
X132546632Y-100773475D01*
X132753475Y-100566632D01*
X132915990Y-100323411D01*
X133027932Y-100053158D01*
X133085000Y-99766260D01*
X133085000Y-99473740D01*
X133027932Y-99186842D01*
X132915990Y-98916589D01*
X132753475Y-98673368D01*
X132546632Y-98466525D01*
X132372240Y-98350000D01*
X132546632Y-98233475D01*
X132753475Y-98026632D01*
X132915990Y-97783411D01*
X133027932Y-97513158D01*
X133085000Y-97226260D01*
X133085000Y-96933740D01*
X133027932Y-96646842D01*
X132915990Y-96376589D01*
X132753475Y-96133368D01*
X132546632Y-95926525D01*
X132372240Y-95810000D01*
X132546632Y-95693475D01*
X132753475Y-95486632D01*
X132915990Y-95243411D01*
X133027932Y-94973158D01*
X133085000Y-94686260D01*
X133085000Y-94393740D01*
X133031544Y-94124999D01*
X135222679Y-94124999D01*
X135260001Y-94128675D01*
X135297323Y-94124999D01*
X135297334Y-94124999D01*
X135408987Y-94114002D01*
X135552248Y-94070545D01*
X135684277Y-93999973D01*
X135800002Y-93905000D01*
X135823805Y-93875996D01*
X138364802Y-91335000D01*
X138426939Y-91335000D01*
X138626898Y-91295226D01*
X138690001Y-91269088D01*
X138690001Y-95462668D01*
X138686324Y-95500000D01*
X138690001Y-95537333D01*
X138700998Y-95648986D01*
X138714067Y-95692068D01*
X138744454Y-95792246D01*
X138815026Y-95924276D01*
X138885169Y-96009744D01*
X138910000Y-96040001D01*
X138938998Y-96063799D01*
X139661201Y-96786002D01*
X139684999Y-96815001D01*
X139713997Y-96838799D01*
X139800724Y-96909974D01*
X139932753Y-96980546D01*
X140076014Y-97024003D01*
X140225000Y-97038677D01*
X140262333Y-97035000D01*
X141137678Y-97035000D01*
X141175000Y-97038676D01*
X141212322Y-97035000D01*
X141212333Y-97035000D01*
X141323986Y-97024003D01*
X141467247Y-96980546D01*
X141599276Y-96909974D01*
X141715001Y-96815001D01*
X141738804Y-96785997D01*
X143414802Y-95110000D01*
X143476939Y-95110000D01*
X143676898Y-95070226D01*
X143765001Y-95033732D01*
X143765001Y-98966866D01*
X143608368Y-99071525D01*
X143401525Y-99278368D01*
X143285000Y-99452760D01*
X143168475Y-99278368D01*
X142961632Y-99071525D01*
X142718411Y-98909010D01*
X142448158Y-98797068D01*
X142161260Y-98740000D01*
X141868740Y-98740000D01*
X141581842Y-98797068D01*
X141311589Y-98909010D01*
X141068368Y-99071525D01*
X140861525Y-99278368D01*
X140699010Y-99521589D01*
X140587068Y-99791842D01*
X140530000Y-100078740D01*
X140530000Y-100371260D01*
X140587068Y-100658158D01*
X140699010Y-100928411D01*
X140861525Y-101171632D01*
X141068368Y-101378475D01*
X141311589Y-101540990D01*
X141581842Y-101652932D01*
X141868740Y-101710000D01*
X142161260Y-101710000D01*
X142448158Y-101652932D01*
X142718411Y-101540990D01*
X142961632Y-101378475D01*
X143168475Y-101171632D01*
X143285000Y-100997240D01*
X143401525Y-101171632D01*
X143608368Y-101378475D01*
X143851589Y-101540990D01*
X144121842Y-101652932D01*
X144408740Y-101710000D01*
X144701260Y-101710000D01*
X144988158Y-101652932D01*
X145258411Y-101540990D01*
X145501632Y-101378475D01*
X145708475Y-101171632D01*
X145825000Y-100997240D01*
X145941525Y-101171632D01*
X146148368Y-101378475D01*
X146391589Y-101540990D01*
X146661842Y-101652932D01*
X146948740Y-101710000D01*
X147241260Y-101710000D01*
X147528158Y-101652932D01*
X147798411Y-101540990D01*
X148041632Y-101378475D01*
X148248475Y-101171632D01*
X148370195Y-100989466D01*
X148439822Y-101106355D01*
X148634731Y-101322588D01*
X148868080Y-101496641D01*
X149130901Y-101621825D01*
X149278110Y-101666476D01*
X149508000Y-101545155D01*
X149508000Y-100352000D01*
X149488000Y-100352000D01*
X149488000Y-100098000D01*
X149508000Y-100098000D01*
X149508000Y-98904845D01*
X149278110Y-98783524D01*
X149130901Y-98828175D01*
X148868080Y-98953359D01*
X148634731Y-99127412D01*
X148439822Y-99343645D01*
X148370195Y-99460534D01*
X148248475Y-99278368D01*
X148085000Y-99114893D01*
X148085000Y-89611800D01*
X148790000Y-90316800D01*
X148790001Y-92871288D01*
X148746063Y-92915226D01*
X148632795Y-93084744D01*
X148554774Y-93273102D01*
X148515000Y-93473061D01*
X148515000Y-93676939D01*
X148554774Y-93876898D01*
X148632795Y-94065256D01*
X148746063Y-94234774D01*
X148890226Y-94378937D01*
X149059744Y-94492205D01*
X149248102Y-94570226D01*
X149448061Y-94610000D01*
X149651939Y-94610000D01*
X149851898Y-94570226D01*
X150040256Y-94492205D01*
X150209774Y-94378937D01*
X150353937Y-94234774D01*
X150467205Y-94065256D01*
X150545226Y-93876898D01*
X150585000Y-93676939D01*
X150585000Y-93473061D01*
X150545226Y-93273102D01*
X150467205Y-93084744D01*
X150353937Y-92915226D01*
X150310000Y-92871289D01*
X150310000Y-90039320D01*
X150313676Y-90001997D01*
X150310000Y-89964674D01*
X150310000Y-89964665D01*
X150299003Y-89853012D01*
X150255546Y-89709751D01*
X150231640Y-89665026D01*
X150184974Y-89577721D01*
X150113799Y-89490995D01*
X150090001Y-89461997D01*
X150061004Y-89438200D01*
X147861806Y-87239003D01*
X147838003Y-87209999D01*
X147722278Y-87115026D01*
X147590249Y-87044454D01*
X147446988Y-87000997D01*
X147335335Y-86990000D01*
X147335324Y-86990000D01*
X147326023Y-86989084D01*
X147368475Y-86946632D01*
X147490195Y-86764466D01*
X147559822Y-86881355D01*
X147754731Y-87097588D01*
X147988080Y-87271641D01*
X148250901Y-87396825D01*
X148398110Y-87441476D01*
X148628000Y-87320155D01*
X148628000Y-86127000D01*
X148882000Y-86127000D01*
X148882000Y-87320155D01*
X149111890Y-87441476D01*
X149259099Y-87396825D01*
X149521920Y-87271641D01*
X149755269Y-87097588D01*
X149950178Y-86881355D01*
X150099157Y-86631252D01*
X150196481Y-86356891D01*
X150075814Y-86127000D01*
X148882000Y-86127000D01*
X148628000Y-86127000D01*
X148608000Y-86127000D01*
X148608000Y-85873000D01*
X148628000Y-85873000D01*
X148628000Y-84679845D01*
X148882000Y-84679845D01*
X148882000Y-85873000D01*
X150075814Y-85873000D01*
X150196481Y-85643109D01*
X150099157Y-85368748D01*
X149950178Y-85118645D01*
X149755269Y-84902412D01*
X149521920Y-84728359D01*
X149259099Y-84603175D01*
X149111890Y-84558524D01*
X148882000Y-84679845D01*
X148628000Y-84679845D01*
X148398110Y-84558524D01*
X148250901Y-84603175D01*
X147988080Y-84728359D01*
X147754731Y-84902412D01*
X147559822Y-85118645D01*
X147490195Y-85235534D01*
X147368475Y-85053368D01*
X147161632Y-84846525D01*
X146975000Y-84721822D01*
X146975000Y-80727322D01*
X146978676Y-80689999D01*
X146975000Y-80652676D01*
X146975000Y-80652667D01*
X146965873Y-80560000D01*
X149171289Y-80560000D01*
X149190226Y-80578937D01*
X149359744Y-80692205D01*
X149548102Y-80770226D01*
X149748061Y-80810000D01*
X149951939Y-80810000D01*
X150151898Y-80770226D01*
X150340256Y-80692205D01*
X150509774Y-80578937D01*
X150653937Y-80434774D01*
X150767205Y-80265256D01*
X150845226Y-80076898D01*
X150885000Y-79876939D01*
X150885000Y-79673061D01*
X150845226Y-79473102D01*
X150767205Y-79284744D01*
X150653937Y-79115226D01*
X150621780Y-79083069D01*
X150717205Y-78940256D01*
X150795226Y-78751898D01*
X150835000Y-78551939D01*
X150835000Y-78348061D01*
X150795226Y-78148102D01*
X150717205Y-77959744D01*
X150603937Y-77790226D01*
X150459774Y-77646063D01*
X150290256Y-77532795D01*
X150101898Y-77454774D01*
X149901939Y-77415000D01*
X149698061Y-77415000D01*
X149498102Y-77454774D01*
X149309744Y-77532795D01*
X149140226Y-77646063D01*
X149096289Y-77690000D01*
X146574117Y-77690000D01*
X146141271Y-77257155D01*
X146195226Y-77126898D01*
X146235000Y-76926939D01*
X146235000Y-76859999D01*
X148137679Y-76859999D01*
X148175001Y-76863675D01*
X148212323Y-76859999D01*
X148212334Y-76859999D01*
X148323987Y-76849002D01*
X148467248Y-76805545D01*
X148599277Y-76734973D01*
X148715002Y-76640000D01*
X148738805Y-76610996D01*
X151265000Y-74084802D01*
X151265000Y-74176939D01*
X151304774Y-74376898D01*
X151382795Y-74565256D01*
X151496063Y-74734774D01*
X151640226Y-74878937D01*
X151809744Y-74992205D01*
X151998102Y-75070226D01*
X152198061Y-75110000D01*
X152401939Y-75110000D01*
X152601898Y-75070226D01*
X152790256Y-74992205D01*
X152959774Y-74878937D01*
X153103937Y-74734774D01*
X153217205Y-74565256D01*
X153271159Y-74435001D01*
X154335200Y-74435001D01*
X154939980Y-75039782D01*
X154939981Y-86657648D01*
X154936304Y-86694980D01*
X154939981Y-86732313D01*
X154950978Y-86843966D01*
X154962320Y-86881355D01*
X154994434Y-86987226D01*
X155065006Y-87119256D01*
X155119947Y-87186201D01*
X155159980Y-87234981D01*
X155188978Y-87258779D01*
X158308790Y-90378592D01*
X158265000Y-90598740D01*
X158265000Y-90891260D01*
X158322068Y-91178158D01*
X158434010Y-91448411D01*
X158596525Y-91691632D01*
X158803368Y-91898475D01*
X158977760Y-92015000D01*
X158803368Y-92131525D01*
X158596525Y-92338368D01*
X158434010Y-92581589D01*
X158322068Y-92851842D01*
X158265000Y-93138740D01*
X158265000Y-93431260D01*
X158322068Y-93718158D01*
X158434010Y-93988411D01*
X158596525Y-94231632D01*
X158803368Y-94438475D01*
X159046589Y-94600990D01*
X159316842Y-94712932D01*
X159603740Y-94770000D01*
X159896260Y-94770000D01*
X160183158Y-94712932D01*
X160453411Y-94600990D01*
X160696632Y-94438475D01*
X160903475Y-94231632D01*
X160990001Y-94102137D01*
X160990001Y-102977617D01*
X160661302Y-102757988D01*
X160272756Y-102597047D01*
X159860279Y-102515000D01*
X159439721Y-102515000D01*
X159027244Y-102597047D01*
X158638698Y-102757988D01*
X158289017Y-102991637D01*
X157991637Y-103289017D01*
X157757988Y-103638698D01*
X157597047Y-104027244D01*
X157515000Y-104439721D01*
X157515000Y-104860279D01*
X157597047Y-105272756D01*
X157757988Y-105661302D01*
X157979320Y-105992549D01*
X148677873Y-105999009D01*
X150340000Y-104336882D01*
X150340000Y-104471260D01*
X150397068Y-104758158D01*
X150509010Y-105028411D01*
X150671525Y-105271632D01*
X150878368Y-105478475D01*
X151121589Y-105640990D01*
X151391842Y-105752932D01*
X151678740Y-105810000D01*
X151971260Y-105810000D01*
X152258158Y-105752932D01*
X152528411Y-105640990D01*
X152771632Y-105478475D01*
X152903487Y-105346620D01*
X152925498Y-105419180D01*
X152984463Y-105529494D01*
X153063815Y-105626185D01*
X153160506Y-105705537D01*
X153270820Y-105764502D01*
X153390518Y-105800812D01*
X153515000Y-105813072D01*
X154079250Y-105810000D01*
X154238000Y-105651250D01*
X154238000Y-104452000D01*
X154492000Y-104452000D01*
X154492000Y-105651250D01*
X154650750Y-105810000D01*
X155215000Y-105813072D01*
X155339482Y-105800812D01*
X155459180Y-105764502D01*
X155569494Y-105705537D01*
X155666185Y-105626185D01*
X155745537Y-105529494D01*
X155804502Y-105419180D01*
X155840812Y-105299482D01*
X155853072Y-105175000D01*
X155850000Y-104610750D01*
X155691250Y-104452000D01*
X154492000Y-104452000D01*
X154238000Y-104452000D01*
X154218000Y-104452000D01*
X154218000Y-104198000D01*
X154238000Y-104198000D01*
X154238000Y-102998750D01*
X154492000Y-102998750D01*
X154492000Y-104198000D01*
X155691250Y-104198000D01*
X155850000Y-104039250D01*
X155853072Y-103475000D01*
X155840812Y-103350518D01*
X155804502Y-103230820D01*
X155745537Y-103120506D01*
X155666185Y-103023815D01*
X155569494Y-102944463D01*
X155459180Y-102885498D01*
X155339482Y-102849188D01*
X155215000Y-102836928D01*
X154650750Y-102840000D01*
X154492000Y-102998750D01*
X154238000Y-102998750D01*
X154079250Y-102840000D01*
X153515000Y-102836928D01*
X153390518Y-102849188D01*
X153270820Y-102885498D01*
X153160506Y-102944463D01*
X153063815Y-103023815D01*
X152984463Y-103120506D01*
X152925498Y-103230820D01*
X152903487Y-103303380D01*
X152771632Y-103171525D01*
X152528411Y-103009010D01*
X152258158Y-102897068D01*
X151971260Y-102840000D01*
X151836883Y-102840000D01*
X152686004Y-101990879D01*
X152715001Y-101967082D01*
X152809974Y-101851357D01*
X152880546Y-101719328D01*
X152924003Y-101576067D01*
X152930913Y-101505909D01*
X153121632Y-101378475D01*
X153328475Y-101171632D01*
X153490990Y-100928411D01*
X153602932Y-100658158D01*
X153660000Y-100371260D01*
X153660000Y-100078740D01*
X153602932Y-99791842D01*
X153490990Y-99521589D01*
X153328475Y-99278368D01*
X153121632Y-99071525D01*
X152878411Y-98909010D01*
X152608158Y-98797068D01*
X152321260Y-98740000D01*
X152028740Y-98740000D01*
X151741842Y-98797068D01*
X151471589Y-98909010D01*
X151228368Y-99071525D01*
X151021525Y-99278368D01*
X150899805Y-99460534D01*
X150830178Y-99343645D01*
X150635269Y-99127412D01*
X150401920Y-98953359D01*
X150139099Y-98828175D01*
X149991890Y-98783524D01*
X149762000Y-98904845D01*
X149762000Y-100098000D01*
X149782000Y-100098000D01*
X149782000Y-100352000D01*
X149762000Y-100352000D01*
X149762000Y-101545155D01*
X149991890Y-101666476D01*
X150139099Y-101621825D01*
X150401920Y-101496641D01*
X150635269Y-101322588D01*
X150830178Y-101106355D01*
X150899805Y-100989466D01*
X151021525Y-101171632D01*
X151188586Y-101338693D01*
X147437607Y-105089672D01*
X147435000Y-104610750D01*
X147276250Y-104452000D01*
X146077000Y-104452000D01*
X146077000Y-104472000D01*
X145823000Y-104472000D01*
X145823000Y-104452000D01*
X145803000Y-104452000D01*
X145803000Y-104198000D01*
X145823000Y-104198000D01*
X145823000Y-102998750D01*
X146077000Y-102998750D01*
X146077000Y-104198000D01*
X147276250Y-104198000D01*
X147435000Y-104039250D01*
X147438072Y-103475000D01*
X147425812Y-103350518D01*
X147389502Y-103230820D01*
X147330537Y-103120506D01*
X147251185Y-103023815D01*
X147154494Y-102944463D01*
X147044180Y-102885498D01*
X146924482Y-102849188D01*
X146800000Y-102836928D01*
X146235750Y-102840000D01*
X146077000Y-102998750D01*
X145823000Y-102998750D01*
X145664250Y-102840000D01*
X145100000Y-102836928D01*
X144975518Y-102849188D01*
X144855820Y-102885498D01*
X144745506Y-102944463D01*
X144648815Y-103023815D01*
X144569463Y-103120506D01*
X144510498Y-103230820D01*
X144488487Y-103303380D01*
X144356632Y-103171525D01*
X144113411Y-103009010D01*
X143843158Y-102897068D01*
X143556260Y-102840000D01*
X143263740Y-102840000D01*
X142976842Y-102897068D01*
X142706589Y-103009010D01*
X142463368Y-103171525D01*
X142256525Y-103378368D01*
X142094010Y-103621589D01*
X141982068Y-103891842D01*
X141925000Y-104178740D01*
X141925000Y-104471260D01*
X141982068Y-104758158D01*
X142094010Y-105028411D01*
X142178595Y-105155001D01*
X138937963Y-105155001D01*
X138935000Y-104610750D01*
X138776250Y-104452000D01*
X137577000Y-104452000D01*
X137577000Y-104472000D01*
X137323000Y-104472000D01*
X137323000Y-104452000D01*
X137303000Y-104452000D01*
X137303000Y-104198000D01*
X137323000Y-104198000D01*
X137323000Y-102998750D01*
X137577000Y-102998750D01*
X137577000Y-104198000D01*
X138776250Y-104198000D01*
X138935000Y-104039250D01*
X138938072Y-103475000D01*
X138925812Y-103350518D01*
X138889502Y-103230820D01*
X138830537Y-103120506D01*
X138751185Y-103023815D01*
X138654494Y-102944463D01*
X138544180Y-102885498D01*
X138424482Y-102849188D01*
X138300000Y-102836928D01*
X137735750Y-102840000D01*
X137577000Y-102998750D01*
X137323000Y-102998750D01*
X137164250Y-102840000D01*
X136600000Y-102836928D01*
X136475518Y-102849188D01*
X136355820Y-102885498D01*
X136245506Y-102944463D01*
X136148815Y-103023815D01*
X136069463Y-103120506D01*
X136010498Y-103230820D01*
X135988487Y-103303380D01*
X135856632Y-103171525D01*
X135613411Y-103009010D01*
X135343158Y-102897068D01*
X135056260Y-102840000D01*
X134763740Y-102840000D01*
X134476842Y-102897068D01*
X134206589Y-103009010D01*
X133963368Y-103171525D01*
X133756525Y-103378368D01*
X133594010Y-103621589D01*
X133482068Y-103891842D01*
X133425000Y-104178740D01*
X133425000Y-104471260D01*
X133482068Y-104758158D01*
X133594010Y-105028411D01*
X133678595Y-105155001D01*
X123031544Y-105155001D01*
X123085000Y-104886260D01*
X123085000Y-104593740D01*
X123027932Y-104306842D01*
X122915990Y-104036589D01*
X122753475Y-103793368D01*
X122546632Y-103586525D01*
X122372240Y-103470000D01*
X122546632Y-103353475D01*
X122753475Y-103146632D01*
X122915990Y-102903411D01*
X123027932Y-102633158D01*
X123085000Y-102346260D01*
X123085000Y-102053740D01*
X123027932Y-101766842D01*
X122915990Y-101496589D01*
X122753475Y-101253368D01*
X122546632Y-101046525D01*
X122364466Y-100924805D01*
X122481355Y-100855178D01*
X122697588Y-100660269D01*
X122871641Y-100426920D01*
X122996825Y-100164099D01*
X123041476Y-100016890D01*
X122920155Y-99787000D01*
X121727000Y-99787000D01*
X121727000Y-99807000D01*
X121473000Y-99807000D01*
X121473000Y-99787000D01*
X120279845Y-99787000D01*
X120158524Y-100016890D01*
X120203175Y-100164099D01*
X120328359Y-100426920D01*
X120502412Y-100660269D01*
X120718645Y-100855178D01*
X120835534Y-100924805D01*
X120653368Y-101046525D01*
X120446525Y-101253368D01*
X120284010Y-101496589D01*
X120172068Y-101766842D01*
X120115000Y-102053740D01*
X120115000Y-102346260D01*
X120172068Y-102633158D01*
X120284010Y-102903411D01*
X120446525Y-103146632D01*
X120653368Y-103353475D01*
X120827760Y-103470000D01*
X120653368Y-103586525D01*
X120446525Y-103793368D01*
X120284010Y-104036589D01*
X120268891Y-104073091D01*
X106510000Y-90314201D01*
X106510000Y-89938967D01*
X109915000Y-89938967D01*
X109915000Y-90261033D01*
X109977832Y-90576912D01*
X110101082Y-90874463D01*
X110280013Y-91142252D01*
X110507748Y-91369987D01*
X110775537Y-91548918D01*
X111073088Y-91672168D01*
X111388967Y-91735000D01*
X111711033Y-91735000D01*
X112026912Y-91672168D01*
X112324463Y-91548918D01*
X112592252Y-91369987D01*
X112726826Y-91235413D01*
X115094192Y-91235413D01*
X115189956Y-91499814D01*
X115479571Y-91640704D01*
X115791108Y-91722384D01*
X116112595Y-91741718D01*
X116431675Y-91697961D01*
X116736088Y-91592795D01*
X116910044Y-91499814D01*
X117005808Y-91235413D01*
X116050000Y-90279605D01*
X115094192Y-91235413D01*
X112726826Y-91235413D01*
X112819987Y-91142252D01*
X112998918Y-90874463D01*
X113122168Y-90576912D01*
X113185000Y-90261033D01*
X113185000Y-90162595D01*
X114408282Y-90162595D01*
X114452039Y-90481675D01*
X114557205Y-90786088D01*
X114650186Y-90960044D01*
X114914587Y-91055808D01*
X115870395Y-90100000D01*
X116229605Y-90100000D01*
X117185413Y-91055808D01*
X117449814Y-90960044D01*
X117590704Y-90670429D01*
X117672384Y-90358892D01*
X117691718Y-90037405D01*
X117647961Y-89718325D01*
X117542795Y-89413912D01*
X117449814Y-89239956D01*
X117185413Y-89144192D01*
X116229605Y-90100000D01*
X115870395Y-90100000D01*
X114914587Y-89144192D01*
X114650186Y-89239956D01*
X114509296Y-89529571D01*
X114427616Y-89841108D01*
X114408282Y-90162595D01*
X113185000Y-90162595D01*
X113185000Y-89938967D01*
X113122168Y-89623088D01*
X112998918Y-89325537D01*
X112819987Y-89057748D01*
X112726826Y-88964587D01*
X115094192Y-88964587D01*
X116050000Y-89920395D01*
X117005808Y-88964587D01*
X116910044Y-88700186D01*
X116620429Y-88559296D01*
X116308892Y-88477616D01*
X115987405Y-88458282D01*
X115668325Y-88502039D01*
X115363912Y-88607205D01*
X115189956Y-88700186D01*
X115094192Y-88964587D01*
X112726826Y-88964587D01*
X112592252Y-88830013D01*
X112324463Y-88651082D01*
X112026912Y-88527832D01*
X111711033Y-88465000D01*
X111388967Y-88465000D01*
X111073088Y-88527832D01*
X110775537Y-88651082D01*
X110507748Y-88830013D01*
X110280013Y-89057748D01*
X110101082Y-89325537D01*
X109977832Y-89623088D01*
X109915000Y-89938967D01*
X106510000Y-89938967D01*
X106510000Y-85453711D01*
X106553937Y-85409774D01*
X106667205Y-85240256D01*
X106745226Y-85051898D01*
X106785000Y-84851939D01*
X106785000Y-84648061D01*
X106745226Y-84448102D01*
X106667205Y-84259744D01*
X106553937Y-84090226D01*
X106409774Y-83946063D01*
X106240256Y-83832795D01*
X106051898Y-83754774D01*
X105851939Y-83715000D01*
X105648061Y-83715000D01*
X105448102Y-83754774D01*
X105259744Y-83832795D01*
X105090226Y-83946063D01*
X104946063Y-84090226D01*
X104832795Y-84259744D01*
X104754774Y-84448102D01*
X104715000Y-84648061D01*
X104715000Y-84851939D01*
X104754774Y-85051898D01*
X104832795Y-85240256D01*
X104946063Y-85409774D01*
X104990000Y-85453711D01*
X104990001Y-90591670D01*
X104986324Y-90629002D01*
X104990001Y-90666335D01*
X105000998Y-90777988D01*
X105011013Y-90811003D01*
X105044454Y-90921248D01*
X105115026Y-91053278D01*
X105165680Y-91114999D01*
X105210000Y-91169003D01*
X105238998Y-91192801D01*
X120065075Y-106018879D01*
X93281868Y-106037478D01*
X93308363Y-106010983D01*
X93542012Y-105661302D01*
X93702953Y-105272756D01*
X93785000Y-104860279D01*
X93785000Y-104756891D01*
X94538519Y-104756891D01*
X94635843Y-105031252D01*
X94784822Y-105281355D01*
X94979731Y-105497588D01*
X95213080Y-105671641D01*
X95475901Y-105796825D01*
X95623110Y-105841476D01*
X95853000Y-105720155D01*
X95853000Y-104527000D01*
X94659186Y-104527000D01*
X94538519Y-104756891D01*
X93785000Y-104756891D01*
X93785000Y-104439721D01*
X93706109Y-104043109D01*
X94538519Y-104043109D01*
X94659186Y-104273000D01*
X95853000Y-104273000D01*
X95853000Y-103079845D01*
X96107000Y-103079845D01*
X96107000Y-104273000D01*
X96127000Y-104273000D01*
X96127000Y-104527000D01*
X96107000Y-104527000D01*
X96107000Y-105720155D01*
X96336890Y-105841476D01*
X96484099Y-105796825D01*
X96746920Y-105671641D01*
X96980269Y-105497588D01*
X97175178Y-105281355D01*
X97244805Y-105164466D01*
X97366525Y-105346632D01*
X97573368Y-105553475D01*
X97816589Y-105715990D01*
X98086842Y-105827932D01*
X98373740Y-105885000D01*
X98666260Y-105885000D01*
X98953158Y-105827932D01*
X99223411Y-105715990D01*
X99466632Y-105553475D01*
X99673475Y-105346632D01*
X99790000Y-105172240D01*
X99906525Y-105346632D01*
X100113368Y-105553475D01*
X100356589Y-105715990D01*
X100626842Y-105827932D01*
X100913740Y-105885000D01*
X101206260Y-105885000D01*
X101493158Y-105827932D01*
X101763411Y-105715990D01*
X102006632Y-105553475D01*
X102138487Y-105421620D01*
X102160498Y-105494180D01*
X102219463Y-105604494D01*
X102298815Y-105701185D01*
X102395506Y-105780537D01*
X102505820Y-105839502D01*
X102625518Y-105875812D01*
X102750000Y-105888072D01*
X104450000Y-105888072D01*
X104574482Y-105875812D01*
X104694180Y-105839502D01*
X104804494Y-105780537D01*
X104901185Y-105701185D01*
X104980537Y-105604494D01*
X105039502Y-105494180D01*
X105075812Y-105374482D01*
X105088072Y-105250000D01*
X105088072Y-103550000D01*
X105075812Y-103425518D01*
X105039502Y-103305820D01*
X104980537Y-103195506D01*
X104901185Y-103098815D01*
X104804494Y-103019463D01*
X104694180Y-102960498D01*
X104574482Y-102924188D01*
X104450000Y-102911928D01*
X102750000Y-102911928D01*
X102625518Y-102924188D01*
X102505820Y-102960498D01*
X102395506Y-103019463D01*
X102298815Y-103098815D01*
X102219463Y-103195506D01*
X102160498Y-103305820D01*
X102138487Y-103378380D01*
X102006632Y-103246525D01*
X101763411Y-103084010D01*
X101493158Y-102972068D01*
X101206260Y-102915000D01*
X100913740Y-102915000D01*
X100626842Y-102972068D01*
X100356589Y-103084010D01*
X100113368Y-103246525D01*
X99906525Y-103453368D01*
X99790000Y-103627760D01*
X99673475Y-103453368D01*
X99466632Y-103246525D01*
X99223411Y-103084010D01*
X98953158Y-102972068D01*
X98666260Y-102915000D01*
X98373740Y-102915000D01*
X98086842Y-102972068D01*
X97816589Y-103084010D01*
X97573368Y-103246525D01*
X97366525Y-103453368D01*
X97244805Y-103635534D01*
X97175178Y-103518645D01*
X96980269Y-103302412D01*
X96746920Y-103128359D01*
X96484099Y-103003175D01*
X96336890Y-102958524D01*
X96107000Y-103079845D01*
X95853000Y-103079845D01*
X95623110Y-102958524D01*
X95475901Y-103003175D01*
X95213080Y-103128359D01*
X94979731Y-103302412D01*
X94784822Y-103518645D01*
X94635843Y-103768748D01*
X94538519Y-104043109D01*
X93706109Y-104043109D01*
X93702953Y-104027244D01*
X93542012Y-103638698D01*
X93308363Y-103289017D01*
X93010983Y-102991637D01*
X92661302Y-102757988D01*
X92272756Y-102597047D01*
X91860279Y-102515000D01*
X91439721Y-102515000D01*
X91027244Y-102597047D01*
X90638698Y-102757988D01*
X90314228Y-102974792D01*
X90324780Y-93678397D01*
X90801208Y-93678397D01*
X90878843Y-93927472D01*
X91142883Y-94053371D01*
X91426411Y-94125339D01*
X91718531Y-94140611D01*
X92008019Y-94098599D01*
X92283747Y-94000919D01*
X92421157Y-93927472D01*
X92498792Y-93678397D01*
X91650000Y-92829605D01*
X90801208Y-93678397D01*
X90324780Y-93678397D01*
X90325173Y-93332561D01*
X90372528Y-93421157D01*
X90621603Y-93498792D01*
X91470395Y-92650000D01*
X91829605Y-92650000D01*
X92678397Y-93498792D01*
X92927472Y-93421157D01*
X93053371Y-93157117D01*
X93125339Y-92873589D01*
X93140611Y-92581469D01*
X93098599Y-92291981D01*
X93000919Y-92016253D01*
X92927472Y-91878843D01*
X92678397Y-91801208D01*
X91829605Y-92650000D01*
X91470395Y-92650000D01*
X90621603Y-91801208D01*
X90372528Y-91878843D01*
X90326714Y-91974926D01*
X90328049Y-90799019D01*
X90334010Y-90813411D01*
X90496525Y-91056632D01*
X90703368Y-91263475D01*
X90876729Y-91379311D01*
X90801208Y-91621603D01*
X91650000Y-92470395D01*
X92498792Y-91621603D01*
X92423271Y-91379311D01*
X92596632Y-91263475D01*
X92803475Y-91056632D01*
X92965990Y-90813411D01*
X93077932Y-90543158D01*
X93135000Y-90256260D01*
X93135000Y-89963740D01*
X93077932Y-89676842D01*
X92965990Y-89406589D01*
X92803475Y-89163368D01*
X92596632Y-88956525D01*
X92422240Y-88840000D01*
X92596632Y-88723475D01*
X92803475Y-88516632D01*
X92965990Y-88273411D01*
X93077932Y-88003158D01*
X93135000Y-87716260D01*
X93135000Y-87423740D01*
X93077932Y-87136842D01*
X92965990Y-86866589D01*
X92803475Y-86623368D01*
X92596632Y-86416525D01*
X92422240Y-86300000D01*
X92596632Y-86183475D01*
X92803475Y-85976632D01*
X92965990Y-85733411D01*
X93077932Y-85463158D01*
X93135000Y-85176260D01*
X93135000Y-84883740D01*
X93077932Y-84596842D01*
X92965990Y-84326589D01*
X92803475Y-84083368D01*
X92596632Y-83876525D01*
X92422240Y-83760000D01*
X92596632Y-83643475D01*
X92801140Y-83438967D01*
X109915000Y-83438967D01*
X109915000Y-83761033D01*
X109977832Y-84076912D01*
X110101082Y-84374463D01*
X110280013Y-84642252D01*
X110507748Y-84869987D01*
X110775537Y-85048918D01*
X111073088Y-85172168D01*
X111388967Y-85235000D01*
X111711033Y-85235000D01*
X112026912Y-85172168D01*
X112324463Y-85048918D01*
X112592252Y-84869987D01*
X112726826Y-84735413D01*
X115094192Y-84735413D01*
X115189956Y-84999814D01*
X115479571Y-85140704D01*
X115791108Y-85222384D01*
X116112595Y-85241718D01*
X116431675Y-85197961D01*
X116736088Y-85092795D01*
X116910044Y-84999814D01*
X117005808Y-84735413D01*
X116050000Y-83779605D01*
X115094192Y-84735413D01*
X112726826Y-84735413D01*
X112819987Y-84642252D01*
X112998918Y-84374463D01*
X113122168Y-84076912D01*
X113185000Y-83761033D01*
X113185000Y-83662595D01*
X114408282Y-83662595D01*
X114452039Y-83981675D01*
X114557205Y-84286088D01*
X114650186Y-84460044D01*
X114914587Y-84555808D01*
X115870395Y-83600000D01*
X116229605Y-83600000D01*
X117185413Y-84555808D01*
X117449814Y-84460044D01*
X117590704Y-84170429D01*
X117672384Y-83858892D01*
X117691718Y-83537405D01*
X117647961Y-83218325D01*
X117542795Y-82913912D01*
X117449814Y-82739956D01*
X117185413Y-82644192D01*
X116229605Y-83600000D01*
X115870395Y-83600000D01*
X114914587Y-82644192D01*
X114650186Y-82739956D01*
X114509296Y-83029571D01*
X114427616Y-83341108D01*
X114408282Y-83662595D01*
X113185000Y-83662595D01*
X113185000Y-83438967D01*
X113122168Y-83123088D01*
X112998918Y-82825537D01*
X112819987Y-82557748D01*
X112726826Y-82464587D01*
X115094192Y-82464587D01*
X116050000Y-83420395D01*
X117005808Y-82464587D01*
X116910044Y-82200186D01*
X116620429Y-82059296D01*
X116308892Y-81977616D01*
X115987405Y-81958282D01*
X115668325Y-82002039D01*
X115363912Y-82107205D01*
X115189956Y-82200186D01*
X115094192Y-82464587D01*
X112726826Y-82464587D01*
X112592252Y-82330013D01*
X112324463Y-82151082D01*
X112026912Y-82027832D01*
X111711033Y-81965000D01*
X111388967Y-81965000D01*
X111073088Y-82027832D01*
X110775537Y-82151082D01*
X110507748Y-82330013D01*
X110280013Y-82557748D01*
X110101082Y-82825537D01*
X109977832Y-83123088D01*
X109915000Y-83438967D01*
X92801140Y-83438967D01*
X92803475Y-83436632D01*
X92965990Y-83193411D01*
X93077932Y-82923158D01*
X93135000Y-82636260D01*
X93135000Y-82343740D01*
X93091210Y-82123592D01*
X93611003Y-81603799D01*
X93640001Y-81580001D01*
X93734974Y-81464276D01*
X93805546Y-81332247D01*
X93849003Y-81188986D01*
X93860000Y-81077333D01*
X93860000Y-81077325D01*
X93863676Y-81040000D01*
X93860000Y-81002675D01*
X93860000Y-76487322D01*
X93863676Y-76449999D01*
X93860000Y-76412676D01*
X93860000Y-76412667D01*
X93849003Y-76301014D01*
X93805546Y-76157753D01*
X93734974Y-76025724D01*
X93640001Y-75909999D01*
X93611004Y-75886202D01*
X92510000Y-74785199D01*
X92510000Y-69803711D01*
X92553937Y-69759774D01*
X92667205Y-69590256D01*
X92745226Y-69401898D01*
X92785000Y-69201939D01*
X92785000Y-68998061D01*
X92745226Y-68798102D01*
X92667205Y-68609744D01*
X92553937Y-68440226D01*
X92409774Y-68296063D01*
X92240256Y-68182795D01*
X92051898Y-68104774D01*
X91851939Y-68065000D01*
X91648061Y-68065000D01*
X91448102Y-68104774D01*
X91259744Y-68182795D01*
X91090226Y-68296063D01*
X90946063Y-68440226D01*
X90832795Y-68609744D01*
X90754774Y-68798102D01*
X90715000Y-68998061D01*
X90715000Y-69201939D01*
X90754774Y-69401898D01*
X90832795Y-69590256D01*
X90946063Y-69759774D01*
X90990000Y-69803711D01*
X90990001Y-74172571D01*
X90951939Y-74165000D01*
X90748061Y-74165000D01*
X90548102Y-74204774D01*
X90359744Y-74282795D01*
X90346786Y-74291453D01*
X90355797Y-66352984D01*
X90638698Y-66542012D01*
X91027244Y-66702953D01*
X91439721Y-66785000D01*
X91860279Y-66785000D01*
X92272756Y-66702953D01*
X92661302Y-66542012D01*
X93010983Y-66308363D01*
X93308363Y-66010983D01*
X93542012Y-65661302D01*
X93702953Y-65272756D01*
X93785000Y-64860279D01*
X93785000Y-64439721D01*
X93702953Y-64027244D01*
X93542012Y-63638698D01*
X93322383Y-63310000D01*
X128259893Y-63310000D01*
X128116525Y-63453368D01*
G36*
X160165001Y-73953393D02*
G01*
X160165001Y-81639296D01*
X160035750Y-81640000D01*
X159877000Y-81798750D01*
X159877000Y-82998000D01*
X159897000Y-82998000D01*
X159897000Y-83252000D01*
X159877000Y-83252000D01*
X159877000Y-83272000D01*
X159623000Y-83272000D01*
X159623000Y-83252000D01*
X159603000Y-83252000D01*
X159603000Y-82998000D01*
X159623000Y-82998000D01*
X159623000Y-81798750D01*
X159464250Y-81640000D01*
X158900000Y-81636928D01*
X158775518Y-81649188D01*
X158655820Y-81685498D01*
X158545506Y-81744463D01*
X158448815Y-81823815D01*
X158369463Y-81920506D01*
X158310498Y-82030820D01*
X158274188Y-82150518D01*
X158261928Y-82275000D01*
X158265000Y-82839250D01*
X158423748Y-82997998D01*
X158265000Y-82997998D01*
X158265000Y-83105198D01*
X157360000Y-82200199D01*
X157360000Y-71148392D01*
X160165001Y-73953393D01*
G37*
X160165001Y-73953393D02*
X160165001Y-81639296D01*
X160035750Y-81640000D01*
X159877000Y-81798750D01*
X159877000Y-82998000D01*
X159897000Y-82998000D01*
X159897000Y-83252000D01*
X159877000Y-83252000D01*
X159877000Y-83272000D01*
X159623000Y-83272000D01*
X159623000Y-83252000D01*
X159603000Y-83252000D01*
X159603000Y-82998000D01*
X159623000Y-82998000D01*
X159623000Y-81798750D01*
X159464250Y-81640000D01*
X158900000Y-81636928D01*
X158775518Y-81649188D01*
X158655820Y-81685498D01*
X158545506Y-81744463D01*
X158448815Y-81823815D01*
X158369463Y-81920506D01*
X158310498Y-82030820D01*
X158274188Y-82150518D01*
X158261928Y-82275000D01*
X158265000Y-82839250D01*
X158423748Y-82997998D01*
X158265000Y-82997998D01*
X158265000Y-83105198D01*
X157360000Y-82200199D01*
X157360000Y-71148392D01*
X160165001Y-73953393D01*
M02*
