G04 #@! TF.GenerationSoftware,KiCad,Pcbnew,7.0.1*
G04 #@! TF.CreationDate,2024-03-04T12:41:05+01:00*
G04 #@! TF.ProjectId,licznik,6c69637a-6e69-46b2-9e6b-696361645f70,rev?*
G04 #@! TF.SameCoordinates,Original*
G04 #@! TF.FileFunction,Legend,Top*
G04 #@! TF.FilePolarity,Positive*
%FSLAX46Y46*%
G04 Gerber Fmt 4.6, Leading zero omitted, Abs format (unit mm)*
G04 Created by KiCad (PCBNEW 7.0.1) date 2024-03-04 12:41:05*
%MOMM*%
%LPD*%
G01*
G04 APERTURE LIST*
%ADD10C,0.150000*%
%ADD11C,0.120000*%
%ADD12C,0.254000*%
%ADD13C,0.203200*%
%ADD14C,0.127000*%
%ADD15C,0.200000*%
G04 APERTURE END LIST*
D10*
X158166533Y-74051019D02*
X157833200Y-73574828D01*
X157595105Y-74051019D02*
X157595105Y-73051019D01*
X157595105Y-73051019D02*
X157976057Y-73051019D01*
X157976057Y-73051019D02*
X158071295Y-73098638D01*
X158071295Y-73098638D02*
X158118914Y-73146257D01*
X158118914Y-73146257D02*
X158166533Y-73241495D01*
X158166533Y-73241495D02*
X158166533Y-73384352D01*
X158166533Y-73384352D02*
X158118914Y-73479590D01*
X158118914Y-73479590D02*
X158071295Y-73527209D01*
X158071295Y-73527209D02*
X157976057Y-73574828D01*
X157976057Y-73574828D02*
X157595105Y-73574828D01*
X158499867Y-73051019D02*
X159166533Y-73051019D01*
X159166533Y-73051019D02*
X158737962Y-74051019D01*
X180091419Y-86865980D02*
X179091419Y-86865980D01*
X179091419Y-86865980D02*
X179805704Y-86532647D01*
X179805704Y-86532647D02*
X179091419Y-86199314D01*
X179091419Y-86199314D02*
X180091419Y-86199314D01*
X180091419Y-85723123D02*
X179091419Y-85723123D01*
X179996180Y-84675505D02*
X180043800Y-84723124D01*
X180043800Y-84723124D02*
X180091419Y-84865981D01*
X180091419Y-84865981D02*
X180091419Y-84961219D01*
X180091419Y-84961219D02*
X180043800Y-85104076D01*
X180043800Y-85104076D02*
X179948561Y-85199314D01*
X179948561Y-85199314D02*
X179853323Y-85246933D01*
X179853323Y-85246933D02*
X179662847Y-85294552D01*
X179662847Y-85294552D02*
X179519990Y-85294552D01*
X179519990Y-85294552D02*
X179329514Y-85246933D01*
X179329514Y-85246933D02*
X179234276Y-85199314D01*
X179234276Y-85199314D02*
X179139038Y-85104076D01*
X179139038Y-85104076D02*
X179091419Y-84961219D01*
X179091419Y-84961219D02*
X179091419Y-84865981D01*
X179091419Y-84865981D02*
X179139038Y-84723124D01*
X179139038Y-84723124D02*
X179186657Y-84675505D01*
X180091419Y-83675505D02*
X179615228Y-84008838D01*
X180091419Y-84246933D02*
X179091419Y-84246933D01*
X179091419Y-84246933D02*
X179091419Y-83865981D01*
X179091419Y-83865981D02*
X179139038Y-83770743D01*
X179139038Y-83770743D02*
X179186657Y-83723124D01*
X179186657Y-83723124D02*
X179281895Y-83675505D01*
X179281895Y-83675505D02*
X179424752Y-83675505D01*
X179424752Y-83675505D02*
X179519990Y-83723124D01*
X179519990Y-83723124D02*
X179567609Y-83770743D01*
X179567609Y-83770743D02*
X179615228Y-83865981D01*
X179615228Y-83865981D02*
X179615228Y-84246933D01*
X179091419Y-83056457D02*
X179091419Y-82865981D01*
X179091419Y-82865981D02*
X179139038Y-82770743D01*
X179139038Y-82770743D02*
X179234276Y-82675505D01*
X179234276Y-82675505D02*
X179424752Y-82627886D01*
X179424752Y-82627886D02*
X179758085Y-82627886D01*
X179758085Y-82627886D02*
X179948561Y-82675505D01*
X179948561Y-82675505D02*
X180043800Y-82770743D01*
X180043800Y-82770743D02*
X180091419Y-82865981D01*
X180091419Y-82865981D02*
X180091419Y-83056457D01*
X180091419Y-83056457D02*
X180043800Y-83151695D01*
X180043800Y-83151695D02*
X179948561Y-83246933D01*
X179948561Y-83246933D02*
X179758085Y-83294552D01*
X179758085Y-83294552D02*
X179424752Y-83294552D01*
X179424752Y-83294552D02*
X179234276Y-83246933D01*
X179234276Y-83246933D02*
X179139038Y-83151695D01*
X179139038Y-83151695D02*
X179091419Y-83056457D01*
X180186657Y-82437410D02*
X180186657Y-81675505D01*
X180043800Y-81485028D02*
X180091419Y-81342171D01*
X180091419Y-81342171D02*
X180091419Y-81104076D01*
X180091419Y-81104076D02*
X180043800Y-81008838D01*
X180043800Y-81008838D02*
X179996180Y-80961219D01*
X179996180Y-80961219D02*
X179900942Y-80913600D01*
X179900942Y-80913600D02*
X179805704Y-80913600D01*
X179805704Y-80913600D02*
X179710466Y-80961219D01*
X179710466Y-80961219D02*
X179662847Y-81008838D01*
X179662847Y-81008838D02*
X179615228Y-81104076D01*
X179615228Y-81104076D02*
X179567609Y-81294552D01*
X179567609Y-81294552D02*
X179519990Y-81389790D01*
X179519990Y-81389790D02*
X179472371Y-81437409D01*
X179472371Y-81437409D02*
X179377133Y-81485028D01*
X179377133Y-81485028D02*
X179281895Y-81485028D01*
X179281895Y-81485028D02*
X179186657Y-81437409D01*
X179186657Y-81437409D02*
X179139038Y-81389790D01*
X179139038Y-81389790D02*
X179091419Y-81294552D01*
X179091419Y-81294552D02*
X179091419Y-81056457D01*
X179091419Y-81056457D02*
X179139038Y-80913600D01*
X180091419Y-80485028D02*
X179091419Y-80485028D01*
X179091419Y-80485028D02*
X179091419Y-80246933D01*
X179091419Y-80246933D02*
X179139038Y-80104076D01*
X179139038Y-80104076D02*
X179234276Y-80008838D01*
X179234276Y-80008838D02*
X179329514Y-79961219D01*
X179329514Y-79961219D02*
X179519990Y-79913600D01*
X179519990Y-79913600D02*
X179662847Y-79913600D01*
X179662847Y-79913600D02*
X179853323Y-79961219D01*
X179853323Y-79961219D02*
X179948561Y-80008838D01*
X179948561Y-80008838D02*
X180043800Y-80104076D01*
X180043800Y-80104076D02*
X180091419Y-80246933D01*
X180091419Y-80246933D02*
X180091419Y-80485028D01*
X149998780Y-103716057D02*
X150046400Y-103763676D01*
X150046400Y-103763676D02*
X150094019Y-103906533D01*
X150094019Y-103906533D02*
X150094019Y-104001771D01*
X150094019Y-104001771D02*
X150046400Y-104144628D01*
X150046400Y-104144628D02*
X149951161Y-104239866D01*
X149951161Y-104239866D02*
X149855923Y-104287485D01*
X149855923Y-104287485D02*
X149665447Y-104335104D01*
X149665447Y-104335104D02*
X149522590Y-104335104D01*
X149522590Y-104335104D02*
X149332114Y-104287485D01*
X149332114Y-104287485D02*
X149236876Y-104239866D01*
X149236876Y-104239866D02*
X149141638Y-104144628D01*
X149141638Y-104144628D02*
X149094019Y-104001771D01*
X149094019Y-104001771D02*
X149094019Y-103906533D01*
X149094019Y-103906533D02*
X149141638Y-103763676D01*
X149141638Y-103763676D02*
X149189257Y-103716057D01*
X150094019Y-102763676D02*
X150094019Y-103335104D01*
X150094019Y-103049390D02*
X149094019Y-103049390D01*
X149094019Y-103049390D02*
X149236876Y-103144628D01*
X149236876Y-103144628D02*
X149332114Y-103239866D01*
X149332114Y-103239866D02*
X149379733Y-103335104D01*
X150094019Y-101811295D02*
X150094019Y-102382723D01*
X150094019Y-102097009D02*
X149094019Y-102097009D01*
X149094019Y-102097009D02*
X149236876Y-102192247D01*
X149236876Y-102192247D02*
X149332114Y-102287485D01*
X149332114Y-102287485D02*
X149379733Y-102382723D01*
X163517342Y-82199819D02*
X163184009Y-81723628D01*
X162945914Y-82199819D02*
X162945914Y-81199819D01*
X162945914Y-81199819D02*
X163326866Y-81199819D01*
X163326866Y-81199819D02*
X163422104Y-81247438D01*
X163422104Y-81247438D02*
X163469723Y-81295057D01*
X163469723Y-81295057D02*
X163517342Y-81390295D01*
X163517342Y-81390295D02*
X163517342Y-81533152D01*
X163517342Y-81533152D02*
X163469723Y-81628390D01*
X163469723Y-81628390D02*
X163422104Y-81676009D01*
X163422104Y-81676009D02*
X163326866Y-81723628D01*
X163326866Y-81723628D02*
X162945914Y-81723628D01*
X164469723Y-82199819D02*
X163898295Y-82199819D01*
X164184009Y-82199819D02*
X164184009Y-81199819D01*
X164184009Y-81199819D02*
X164088771Y-81342676D01*
X164088771Y-81342676D02*
X163993533Y-81437914D01*
X163993533Y-81437914D02*
X163898295Y-81485533D01*
X164850676Y-81295057D02*
X164898295Y-81247438D01*
X164898295Y-81247438D02*
X164993533Y-81199819D01*
X164993533Y-81199819D02*
X165231628Y-81199819D01*
X165231628Y-81199819D02*
X165326866Y-81247438D01*
X165326866Y-81247438D02*
X165374485Y-81295057D01*
X165374485Y-81295057D02*
X165422104Y-81390295D01*
X165422104Y-81390295D02*
X165422104Y-81485533D01*
X165422104Y-81485533D02*
X165374485Y-81628390D01*
X165374485Y-81628390D02*
X164803057Y-82199819D01*
X164803057Y-82199819D02*
X165422104Y-82199819D01*
X163542742Y-86822619D02*
X163209409Y-86346428D01*
X162971314Y-86822619D02*
X162971314Y-85822619D01*
X162971314Y-85822619D02*
X163352266Y-85822619D01*
X163352266Y-85822619D02*
X163447504Y-85870238D01*
X163447504Y-85870238D02*
X163495123Y-85917857D01*
X163495123Y-85917857D02*
X163542742Y-86013095D01*
X163542742Y-86013095D02*
X163542742Y-86155952D01*
X163542742Y-86155952D02*
X163495123Y-86251190D01*
X163495123Y-86251190D02*
X163447504Y-86298809D01*
X163447504Y-86298809D02*
X163352266Y-86346428D01*
X163352266Y-86346428D02*
X162971314Y-86346428D01*
X164495123Y-86822619D02*
X163923695Y-86822619D01*
X164209409Y-86822619D02*
X164209409Y-85822619D01*
X164209409Y-85822619D02*
X164114171Y-85965476D01*
X164114171Y-85965476D02*
X164018933Y-86060714D01*
X164018933Y-86060714D02*
X163923695Y-86108333D01*
X165399885Y-85822619D02*
X164923695Y-85822619D01*
X164923695Y-85822619D02*
X164876076Y-86298809D01*
X164876076Y-86298809D02*
X164923695Y-86251190D01*
X164923695Y-86251190D02*
X165018933Y-86203571D01*
X165018933Y-86203571D02*
X165257028Y-86203571D01*
X165257028Y-86203571D02*
X165352266Y-86251190D01*
X165352266Y-86251190D02*
X165399885Y-86298809D01*
X165399885Y-86298809D02*
X165447504Y-86394047D01*
X165447504Y-86394047D02*
X165447504Y-86632142D01*
X165447504Y-86632142D02*
X165399885Y-86727380D01*
X165399885Y-86727380D02*
X165352266Y-86775000D01*
X165352266Y-86775000D02*
X165257028Y-86822619D01*
X165257028Y-86822619D02*
X165018933Y-86822619D01*
X165018933Y-86822619D02*
X164923695Y-86775000D01*
X164923695Y-86775000D02*
X164876076Y-86727380D01*
X163517342Y-84536619D02*
X163184009Y-84060428D01*
X162945914Y-84536619D02*
X162945914Y-83536619D01*
X162945914Y-83536619D02*
X163326866Y-83536619D01*
X163326866Y-83536619D02*
X163422104Y-83584238D01*
X163422104Y-83584238D02*
X163469723Y-83631857D01*
X163469723Y-83631857D02*
X163517342Y-83727095D01*
X163517342Y-83727095D02*
X163517342Y-83869952D01*
X163517342Y-83869952D02*
X163469723Y-83965190D01*
X163469723Y-83965190D02*
X163422104Y-84012809D01*
X163422104Y-84012809D02*
X163326866Y-84060428D01*
X163326866Y-84060428D02*
X162945914Y-84060428D01*
X164469723Y-84536619D02*
X163898295Y-84536619D01*
X164184009Y-84536619D02*
X164184009Y-83536619D01*
X164184009Y-83536619D02*
X164088771Y-83679476D01*
X164088771Y-83679476D02*
X163993533Y-83774714D01*
X163993533Y-83774714D02*
X163898295Y-83822333D01*
X164803057Y-83536619D02*
X165422104Y-83536619D01*
X165422104Y-83536619D02*
X165088771Y-83917571D01*
X165088771Y-83917571D02*
X165231628Y-83917571D01*
X165231628Y-83917571D02*
X165326866Y-83965190D01*
X165326866Y-83965190D02*
X165374485Y-84012809D01*
X165374485Y-84012809D02*
X165422104Y-84108047D01*
X165422104Y-84108047D02*
X165422104Y-84346142D01*
X165422104Y-84346142D02*
X165374485Y-84441380D01*
X165374485Y-84441380D02*
X165326866Y-84489000D01*
X165326866Y-84489000D02*
X165231628Y-84536619D01*
X165231628Y-84536619D02*
X164945914Y-84536619D01*
X164945914Y-84536619D02*
X164850676Y-84489000D01*
X164850676Y-84489000D02*
X164803057Y-84441380D01*
X128662133Y-97744619D02*
X128328800Y-97268428D01*
X128090705Y-97744619D02*
X128090705Y-96744619D01*
X128090705Y-96744619D02*
X128471657Y-96744619D01*
X128471657Y-96744619D02*
X128566895Y-96792238D01*
X128566895Y-96792238D02*
X128614514Y-96839857D01*
X128614514Y-96839857D02*
X128662133Y-96935095D01*
X128662133Y-96935095D02*
X128662133Y-97077952D01*
X128662133Y-97077952D02*
X128614514Y-97173190D01*
X128614514Y-97173190D02*
X128566895Y-97220809D01*
X128566895Y-97220809D02*
X128471657Y-97268428D01*
X128471657Y-97268428D02*
X128090705Y-97268428D01*
X129614514Y-97744619D02*
X129043086Y-97744619D01*
X129328800Y-97744619D02*
X129328800Y-96744619D01*
X129328800Y-96744619D02*
X129233562Y-96887476D01*
X129233562Y-96887476D02*
X129138324Y-96982714D01*
X129138324Y-96982714D02*
X129043086Y-97030333D01*
X137202942Y-110069980D02*
X137155323Y-110117600D01*
X137155323Y-110117600D02*
X137012466Y-110165219D01*
X137012466Y-110165219D02*
X136917228Y-110165219D01*
X136917228Y-110165219D02*
X136774371Y-110117600D01*
X136774371Y-110117600D02*
X136679133Y-110022361D01*
X136679133Y-110022361D02*
X136631514Y-109927123D01*
X136631514Y-109927123D02*
X136583895Y-109736647D01*
X136583895Y-109736647D02*
X136583895Y-109593790D01*
X136583895Y-109593790D02*
X136631514Y-109403314D01*
X136631514Y-109403314D02*
X136679133Y-109308076D01*
X136679133Y-109308076D02*
X136774371Y-109212838D01*
X136774371Y-109212838D02*
X136917228Y-109165219D01*
X136917228Y-109165219D02*
X137012466Y-109165219D01*
X137012466Y-109165219D02*
X137155323Y-109212838D01*
X137155323Y-109212838D02*
X137202942Y-109260457D01*
X137583895Y-109260457D02*
X137631514Y-109212838D01*
X137631514Y-109212838D02*
X137726752Y-109165219D01*
X137726752Y-109165219D02*
X137964847Y-109165219D01*
X137964847Y-109165219D02*
X138060085Y-109212838D01*
X138060085Y-109212838D02*
X138107704Y-109260457D01*
X138107704Y-109260457D02*
X138155323Y-109355695D01*
X138155323Y-109355695D02*
X138155323Y-109450933D01*
X138155323Y-109450933D02*
X138107704Y-109593790D01*
X138107704Y-109593790D02*
X137536276Y-110165219D01*
X137536276Y-110165219D02*
X138155323Y-110165219D01*
X139012466Y-109165219D02*
X138821990Y-109165219D01*
X138821990Y-109165219D02*
X138726752Y-109212838D01*
X138726752Y-109212838D02*
X138679133Y-109260457D01*
X138679133Y-109260457D02*
X138583895Y-109403314D01*
X138583895Y-109403314D02*
X138536276Y-109593790D01*
X138536276Y-109593790D02*
X138536276Y-109974742D01*
X138536276Y-109974742D02*
X138583895Y-110069980D01*
X138583895Y-110069980D02*
X138631514Y-110117600D01*
X138631514Y-110117600D02*
X138726752Y-110165219D01*
X138726752Y-110165219D02*
X138917228Y-110165219D01*
X138917228Y-110165219D02*
X139012466Y-110117600D01*
X139012466Y-110117600D02*
X139060085Y-110069980D01*
X139060085Y-110069980D02*
X139107704Y-109974742D01*
X139107704Y-109974742D02*
X139107704Y-109736647D01*
X139107704Y-109736647D02*
X139060085Y-109641409D01*
X139060085Y-109641409D02*
X139012466Y-109593790D01*
X139012466Y-109593790D02*
X138917228Y-109546171D01*
X138917228Y-109546171D02*
X138726752Y-109546171D01*
X138726752Y-109546171D02*
X138631514Y-109593790D01*
X138631514Y-109593790D02*
X138583895Y-109641409D01*
X138583895Y-109641409D02*
X138536276Y-109736647D01*
X125461733Y-86314619D02*
X125128400Y-85838428D01*
X124890305Y-86314619D02*
X124890305Y-85314619D01*
X124890305Y-85314619D02*
X125271257Y-85314619D01*
X125271257Y-85314619D02*
X125366495Y-85362238D01*
X125366495Y-85362238D02*
X125414114Y-85409857D01*
X125414114Y-85409857D02*
X125461733Y-85505095D01*
X125461733Y-85505095D02*
X125461733Y-85647952D01*
X125461733Y-85647952D02*
X125414114Y-85743190D01*
X125414114Y-85743190D02*
X125366495Y-85790809D01*
X125366495Y-85790809D02*
X125271257Y-85838428D01*
X125271257Y-85838428D02*
X124890305Y-85838428D01*
X125795067Y-85314619D02*
X126414114Y-85314619D01*
X126414114Y-85314619D02*
X126080781Y-85695571D01*
X126080781Y-85695571D02*
X126223638Y-85695571D01*
X126223638Y-85695571D02*
X126318876Y-85743190D01*
X126318876Y-85743190D02*
X126366495Y-85790809D01*
X126366495Y-85790809D02*
X126414114Y-85886047D01*
X126414114Y-85886047D02*
X126414114Y-86124142D01*
X126414114Y-86124142D02*
X126366495Y-86219380D01*
X126366495Y-86219380D02*
X126318876Y-86267000D01*
X126318876Y-86267000D02*
X126223638Y-86314619D01*
X126223638Y-86314619D02*
X125937924Y-86314619D01*
X125937924Y-86314619D02*
X125842686Y-86267000D01*
X125842686Y-86267000D02*
X125795067Y-86219380D01*
X178460495Y-73411419D02*
X178460495Y-72411419D01*
X178460495Y-72887609D02*
X179031923Y-72887609D01*
X179031923Y-73411419D02*
X179031923Y-72411419D01*
X180031923Y-73411419D02*
X179460495Y-73411419D01*
X179746209Y-73411419D02*
X179746209Y-72411419D01*
X179746209Y-72411419D02*
X179650971Y-72554276D01*
X179650971Y-72554276D02*
X179555733Y-72649514D01*
X179555733Y-72649514D02*
X179460495Y-72697133D01*
X140123942Y-70979380D02*
X140076323Y-71027000D01*
X140076323Y-71027000D02*
X139933466Y-71074619D01*
X139933466Y-71074619D02*
X139838228Y-71074619D01*
X139838228Y-71074619D02*
X139695371Y-71027000D01*
X139695371Y-71027000D02*
X139600133Y-70931761D01*
X139600133Y-70931761D02*
X139552514Y-70836523D01*
X139552514Y-70836523D02*
X139504895Y-70646047D01*
X139504895Y-70646047D02*
X139504895Y-70503190D01*
X139504895Y-70503190D02*
X139552514Y-70312714D01*
X139552514Y-70312714D02*
X139600133Y-70217476D01*
X139600133Y-70217476D02*
X139695371Y-70122238D01*
X139695371Y-70122238D02*
X139838228Y-70074619D01*
X139838228Y-70074619D02*
X139933466Y-70074619D01*
X139933466Y-70074619D02*
X140076323Y-70122238D01*
X140076323Y-70122238D02*
X140123942Y-70169857D01*
X141076323Y-71074619D02*
X140504895Y-71074619D01*
X140790609Y-71074619D02*
X140790609Y-70074619D01*
X140790609Y-70074619D02*
X140695371Y-70217476D01*
X140695371Y-70217476D02*
X140600133Y-70312714D01*
X140600133Y-70312714D02*
X140504895Y-70360333D01*
X141647752Y-70503190D02*
X141552514Y-70455571D01*
X141552514Y-70455571D02*
X141504895Y-70407952D01*
X141504895Y-70407952D02*
X141457276Y-70312714D01*
X141457276Y-70312714D02*
X141457276Y-70265095D01*
X141457276Y-70265095D02*
X141504895Y-70169857D01*
X141504895Y-70169857D02*
X141552514Y-70122238D01*
X141552514Y-70122238D02*
X141647752Y-70074619D01*
X141647752Y-70074619D02*
X141838228Y-70074619D01*
X141838228Y-70074619D02*
X141933466Y-70122238D01*
X141933466Y-70122238D02*
X141981085Y-70169857D01*
X141981085Y-70169857D02*
X142028704Y-70265095D01*
X142028704Y-70265095D02*
X142028704Y-70312714D01*
X142028704Y-70312714D02*
X141981085Y-70407952D01*
X141981085Y-70407952D02*
X141933466Y-70455571D01*
X141933466Y-70455571D02*
X141838228Y-70503190D01*
X141838228Y-70503190D02*
X141647752Y-70503190D01*
X141647752Y-70503190D02*
X141552514Y-70550809D01*
X141552514Y-70550809D02*
X141504895Y-70598428D01*
X141504895Y-70598428D02*
X141457276Y-70693666D01*
X141457276Y-70693666D02*
X141457276Y-70884142D01*
X141457276Y-70884142D02*
X141504895Y-70979380D01*
X141504895Y-70979380D02*
X141552514Y-71027000D01*
X141552514Y-71027000D02*
X141647752Y-71074619D01*
X141647752Y-71074619D02*
X141838228Y-71074619D01*
X141838228Y-71074619D02*
X141933466Y-71027000D01*
X141933466Y-71027000D02*
X141981085Y-70979380D01*
X141981085Y-70979380D02*
X142028704Y-70884142D01*
X142028704Y-70884142D02*
X142028704Y-70693666D01*
X142028704Y-70693666D02*
X141981085Y-70598428D01*
X141981085Y-70598428D02*
X141933466Y-70550809D01*
X141933466Y-70550809D02*
X141838228Y-70503190D01*
X124663095Y-79537619D02*
X124663095Y-80347142D01*
X124663095Y-80347142D02*
X124710714Y-80442380D01*
X124710714Y-80442380D02*
X124758333Y-80490000D01*
X124758333Y-80490000D02*
X124853571Y-80537619D01*
X124853571Y-80537619D02*
X125044047Y-80537619D01*
X125044047Y-80537619D02*
X125139285Y-80490000D01*
X125139285Y-80490000D02*
X125186904Y-80442380D01*
X125186904Y-80442380D02*
X125234523Y-80347142D01*
X125234523Y-80347142D02*
X125234523Y-79537619D01*
X125853571Y-79966190D02*
X125758333Y-79918571D01*
X125758333Y-79918571D02*
X125710714Y-79870952D01*
X125710714Y-79870952D02*
X125663095Y-79775714D01*
X125663095Y-79775714D02*
X125663095Y-79728095D01*
X125663095Y-79728095D02*
X125710714Y-79632857D01*
X125710714Y-79632857D02*
X125758333Y-79585238D01*
X125758333Y-79585238D02*
X125853571Y-79537619D01*
X125853571Y-79537619D02*
X126044047Y-79537619D01*
X126044047Y-79537619D02*
X126139285Y-79585238D01*
X126139285Y-79585238D02*
X126186904Y-79632857D01*
X126186904Y-79632857D02*
X126234523Y-79728095D01*
X126234523Y-79728095D02*
X126234523Y-79775714D01*
X126234523Y-79775714D02*
X126186904Y-79870952D01*
X126186904Y-79870952D02*
X126139285Y-79918571D01*
X126139285Y-79918571D02*
X126044047Y-79966190D01*
X126044047Y-79966190D02*
X125853571Y-79966190D01*
X125853571Y-79966190D02*
X125758333Y-80013809D01*
X125758333Y-80013809D02*
X125710714Y-80061428D01*
X125710714Y-80061428D02*
X125663095Y-80156666D01*
X125663095Y-80156666D02*
X125663095Y-80347142D01*
X125663095Y-80347142D02*
X125710714Y-80442380D01*
X125710714Y-80442380D02*
X125758333Y-80490000D01*
X125758333Y-80490000D02*
X125853571Y-80537619D01*
X125853571Y-80537619D02*
X126044047Y-80537619D01*
X126044047Y-80537619D02*
X126139285Y-80490000D01*
X126139285Y-80490000D02*
X126186904Y-80442380D01*
X126186904Y-80442380D02*
X126234523Y-80347142D01*
X126234523Y-80347142D02*
X126234523Y-80156666D01*
X126234523Y-80156666D02*
X126186904Y-80061428D01*
X126186904Y-80061428D02*
X126139285Y-80013809D01*
X126139285Y-80013809D02*
X126044047Y-79966190D01*
X118552981Y-69236809D02*
X118695838Y-69284428D01*
X118695838Y-69284428D02*
X118743457Y-69332047D01*
X118743457Y-69332047D02*
X118791076Y-69427285D01*
X118791076Y-69427285D02*
X118791076Y-69570142D01*
X118791076Y-69570142D02*
X118743457Y-69665380D01*
X118743457Y-69665380D02*
X118695838Y-69713000D01*
X118695838Y-69713000D02*
X118600600Y-69760619D01*
X118600600Y-69760619D02*
X118219648Y-69760619D01*
X118219648Y-69760619D02*
X118219648Y-68760619D01*
X118219648Y-68760619D02*
X118552981Y-68760619D01*
X118552981Y-68760619D02*
X118648219Y-68808238D01*
X118648219Y-68808238D02*
X118695838Y-68855857D01*
X118695838Y-68855857D02*
X118743457Y-68951095D01*
X118743457Y-68951095D02*
X118743457Y-69046333D01*
X118743457Y-69046333D02*
X118695838Y-69141571D01*
X118695838Y-69141571D02*
X118648219Y-69189190D01*
X118648219Y-69189190D02*
X118552981Y-69236809D01*
X118552981Y-69236809D02*
X118219648Y-69236809D01*
X119219648Y-69379666D02*
X119981553Y-69379666D01*
X137564905Y-100411619D02*
X137564905Y-99411619D01*
X137564905Y-99411619D02*
X137803000Y-99411619D01*
X137803000Y-99411619D02*
X137945857Y-99459238D01*
X137945857Y-99459238D02*
X138041095Y-99554476D01*
X138041095Y-99554476D02*
X138088714Y-99649714D01*
X138088714Y-99649714D02*
X138136333Y-99840190D01*
X138136333Y-99840190D02*
X138136333Y-99983047D01*
X138136333Y-99983047D02*
X138088714Y-100173523D01*
X138088714Y-100173523D02*
X138041095Y-100268761D01*
X138041095Y-100268761D02*
X137945857Y-100364000D01*
X137945857Y-100364000D02*
X137803000Y-100411619D01*
X137803000Y-100411619D02*
X137564905Y-100411619D01*
X138707762Y-99840190D02*
X138612524Y-99792571D01*
X138612524Y-99792571D02*
X138564905Y-99744952D01*
X138564905Y-99744952D02*
X138517286Y-99649714D01*
X138517286Y-99649714D02*
X138517286Y-99602095D01*
X138517286Y-99602095D02*
X138564905Y-99506857D01*
X138564905Y-99506857D02*
X138612524Y-99459238D01*
X138612524Y-99459238D02*
X138707762Y-99411619D01*
X138707762Y-99411619D02*
X138898238Y-99411619D01*
X138898238Y-99411619D02*
X138993476Y-99459238D01*
X138993476Y-99459238D02*
X139041095Y-99506857D01*
X139041095Y-99506857D02*
X139088714Y-99602095D01*
X139088714Y-99602095D02*
X139088714Y-99649714D01*
X139088714Y-99649714D02*
X139041095Y-99744952D01*
X139041095Y-99744952D02*
X138993476Y-99792571D01*
X138993476Y-99792571D02*
X138898238Y-99840190D01*
X138898238Y-99840190D02*
X138707762Y-99840190D01*
X138707762Y-99840190D02*
X138612524Y-99887809D01*
X138612524Y-99887809D02*
X138564905Y-99935428D01*
X138564905Y-99935428D02*
X138517286Y-100030666D01*
X138517286Y-100030666D02*
X138517286Y-100221142D01*
X138517286Y-100221142D02*
X138564905Y-100316380D01*
X138564905Y-100316380D02*
X138612524Y-100364000D01*
X138612524Y-100364000D02*
X138707762Y-100411619D01*
X138707762Y-100411619D02*
X138898238Y-100411619D01*
X138898238Y-100411619D02*
X138993476Y-100364000D01*
X138993476Y-100364000D02*
X139041095Y-100316380D01*
X139041095Y-100316380D02*
X139088714Y-100221142D01*
X139088714Y-100221142D02*
X139088714Y-100030666D01*
X139088714Y-100030666D02*
X139041095Y-99935428D01*
X139041095Y-99935428D02*
X138993476Y-99887809D01*
X138993476Y-99887809D02*
X138898238Y-99840190D01*
X113599933Y-91807380D02*
X113552314Y-91855000D01*
X113552314Y-91855000D02*
X113409457Y-91902619D01*
X113409457Y-91902619D02*
X113314219Y-91902619D01*
X113314219Y-91902619D02*
X113171362Y-91855000D01*
X113171362Y-91855000D02*
X113076124Y-91759761D01*
X113076124Y-91759761D02*
X113028505Y-91664523D01*
X113028505Y-91664523D02*
X112980886Y-91474047D01*
X112980886Y-91474047D02*
X112980886Y-91331190D01*
X112980886Y-91331190D02*
X113028505Y-91140714D01*
X113028505Y-91140714D02*
X113076124Y-91045476D01*
X113076124Y-91045476D02*
X113171362Y-90950238D01*
X113171362Y-90950238D02*
X113314219Y-90902619D01*
X113314219Y-90902619D02*
X113409457Y-90902619D01*
X113409457Y-90902619D02*
X113552314Y-90950238D01*
X113552314Y-90950238D02*
X113599933Y-90997857D01*
X113933267Y-90902619D02*
X114599933Y-90902619D01*
X114599933Y-90902619D02*
X114171362Y-91902619D01*
X116762305Y-90251619D02*
X116762305Y-89251619D01*
X116762305Y-89251619D02*
X117000400Y-89251619D01*
X117000400Y-89251619D02*
X117143257Y-89299238D01*
X117143257Y-89299238D02*
X117238495Y-89394476D01*
X117238495Y-89394476D02*
X117286114Y-89489714D01*
X117286114Y-89489714D02*
X117333733Y-89680190D01*
X117333733Y-89680190D02*
X117333733Y-89823047D01*
X117333733Y-89823047D02*
X117286114Y-90013523D01*
X117286114Y-90013523D02*
X117238495Y-90108761D01*
X117238495Y-90108761D02*
X117143257Y-90204000D01*
X117143257Y-90204000D02*
X117000400Y-90251619D01*
X117000400Y-90251619D02*
X116762305Y-90251619D01*
X117667067Y-89251619D02*
X118286114Y-89251619D01*
X118286114Y-89251619D02*
X117952781Y-89632571D01*
X117952781Y-89632571D02*
X118095638Y-89632571D01*
X118095638Y-89632571D02*
X118190876Y-89680190D01*
X118190876Y-89680190D02*
X118238495Y-89727809D01*
X118238495Y-89727809D02*
X118286114Y-89823047D01*
X118286114Y-89823047D02*
X118286114Y-90061142D01*
X118286114Y-90061142D02*
X118238495Y-90156380D01*
X118238495Y-90156380D02*
X118190876Y-90204000D01*
X118190876Y-90204000D02*
X118095638Y-90251619D01*
X118095638Y-90251619D02*
X117809924Y-90251619D01*
X117809924Y-90251619D02*
X117714686Y-90204000D01*
X117714686Y-90204000D02*
X117667067Y-90156380D01*
X131158333Y-81310819D02*
X130825000Y-80834628D01*
X130586905Y-81310819D02*
X130586905Y-80310819D01*
X130586905Y-80310819D02*
X130967857Y-80310819D01*
X130967857Y-80310819D02*
X131063095Y-80358438D01*
X131063095Y-80358438D02*
X131110714Y-80406057D01*
X131110714Y-80406057D02*
X131158333Y-80501295D01*
X131158333Y-80501295D02*
X131158333Y-80644152D01*
X131158333Y-80644152D02*
X131110714Y-80739390D01*
X131110714Y-80739390D02*
X131063095Y-80787009D01*
X131063095Y-80787009D02*
X130967857Y-80834628D01*
X130967857Y-80834628D02*
X130586905Y-80834628D01*
X131539286Y-80406057D02*
X131586905Y-80358438D01*
X131586905Y-80358438D02*
X131682143Y-80310819D01*
X131682143Y-80310819D02*
X131920238Y-80310819D01*
X131920238Y-80310819D02*
X132015476Y-80358438D01*
X132015476Y-80358438D02*
X132063095Y-80406057D01*
X132063095Y-80406057D02*
X132110714Y-80501295D01*
X132110714Y-80501295D02*
X132110714Y-80596533D01*
X132110714Y-80596533D02*
X132063095Y-80739390D01*
X132063095Y-80739390D02*
X131491667Y-81310819D01*
X131491667Y-81310819D02*
X132110714Y-81310819D01*
X148062019Y-103741457D02*
X147585828Y-104074790D01*
X148062019Y-104312885D02*
X147062019Y-104312885D01*
X147062019Y-104312885D02*
X147062019Y-103931933D01*
X147062019Y-103931933D02*
X147109638Y-103836695D01*
X147109638Y-103836695D02*
X147157257Y-103789076D01*
X147157257Y-103789076D02*
X147252495Y-103741457D01*
X147252495Y-103741457D02*
X147395352Y-103741457D01*
X147395352Y-103741457D02*
X147490590Y-103789076D01*
X147490590Y-103789076D02*
X147538209Y-103836695D01*
X147538209Y-103836695D02*
X147585828Y-103931933D01*
X147585828Y-103931933D02*
X147585828Y-104312885D01*
X148062019Y-102789076D02*
X148062019Y-103360504D01*
X148062019Y-103074790D02*
X147062019Y-103074790D01*
X147062019Y-103074790D02*
X147204876Y-103170028D01*
X147204876Y-103170028D02*
X147300114Y-103265266D01*
X147300114Y-103265266D02*
X147347733Y-103360504D01*
X147395352Y-101931933D02*
X148062019Y-101931933D01*
X147014400Y-102170028D02*
X147728685Y-102408123D01*
X147728685Y-102408123D02*
X147728685Y-101789076D01*
X133977142Y-81215580D02*
X133929523Y-81263200D01*
X133929523Y-81263200D02*
X133786666Y-81310819D01*
X133786666Y-81310819D02*
X133691428Y-81310819D01*
X133691428Y-81310819D02*
X133548571Y-81263200D01*
X133548571Y-81263200D02*
X133453333Y-81167961D01*
X133453333Y-81167961D02*
X133405714Y-81072723D01*
X133405714Y-81072723D02*
X133358095Y-80882247D01*
X133358095Y-80882247D02*
X133358095Y-80739390D01*
X133358095Y-80739390D02*
X133405714Y-80548914D01*
X133405714Y-80548914D02*
X133453333Y-80453676D01*
X133453333Y-80453676D02*
X133548571Y-80358438D01*
X133548571Y-80358438D02*
X133691428Y-80310819D01*
X133691428Y-80310819D02*
X133786666Y-80310819D01*
X133786666Y-80310819D02*
X133929523Y-80358438D01*
X133929523Y-80358438D02*
X133977142Y-80406057D01*
X134358095Y-80406057D02*
X134405714Y-80358438D01*
X134405714Y-80358438D02*
X134500952Y-80310819D01*
X134500952Y-80310819D02*
X134739047Y-80310819D01*
X134739047Y-80310819D02*
X134834285Y-80358438D01*
X134834285Y-80358438D02*
X134881904Y-80406057D01*
X134881904Y-80406057D02*
X134929523Y-80501295D01*
X134929523Y-80501295D02*
X134929523Y-80596533D01*
X134929523Y-80596533D02*
X134881904Y-80739390D01*
X134881904Y-80739390D02*
X134310476Y-81310819D01*
X134310476Y-81310819D02*
X134929523Y-81310819D01*
X135262857Y-80310819D02*
X135881904Y-80310819D01*
X135881904Y-80310819D02*
X135548571Y-80691771D01*
X135548571Y-80691771D02*
X135691428Y-80691771D01*
X135691428Y-80691771D02*
X135786666Y-80739390D01*
X135786666Y-80739390D02*
X135834285Y-80787009D01*
X135834285Y-80787009D02*
X135881904Y-80882247D01*
X135881904Y-80882247D02*
X135881904Y-81120342D01*
X135881904Y-81120342D02*
X135834285Y-81215580D01*
X135834285Y-81215580D02*
X135786666Y-81263200D01*
X135786666Y-81263200D02*
X135691428Y-81310819D01*
X135691428Y-81310819D02*
X135405714Y-81310819D01*
X135405714Y-81310819D02*
X135310476Y-81263200D01*
X135310476Y-81263200D02*
X135262857Y-81215580D01*
X112202933Y-106132980D02*
X112155314Y-106180600D01*
X112155314Y-106180600D02*
X112012457Y-106228219D01*
X112012457Y-106228219D02*
X111917219Y-106228219D01*
X111917219Y-106228219D02*
X111774362Y-106180600D01*
X111774362Y-106180600D02*
X111679124Y-106085361D01*
X111679124Y-106085361D02*
X111631505Y-105990123D01*
X111631505Y-105990123D02*
X111583886Y-105799647D01*
X111583886Y-105799647D02*
X111583886Y-105656790D01*
X111583886Y-105656790D02*
X111631505Y-105466314D01*
X111631505Y-105466314D02*
X111679124Y-105371076D01*
X111679124Y-105371076D02*
X111774362Y-105275838D01*
X111774362Y-105275838D02*
X111917219Y-105228219D01*
X111917219Y-105228219D02*
X112012457Y-105228219D01*
X112012457Y-105228219D02*
X112155314Y-105275838D01*
X112155314Y-105275838D02*
X112202933Y-105323457D01*
X112679124Y-106228219D02*
X112869600Y-106228219D01*
X112869600Y-106228219D02*
X112964838Y-106180600D01*
X112964838Y-106180600D02*
X113012457Y-106132980D01*
X113012457Y-106132980D02*
X113107695Y-105990123D01*
X113107695Y-105990123D02*
X113155314Y-105799647D01*
X113155314Y-105799647D02*
X113155314Y-105418695D01*
X113155314Y-105418695D02*
X113107695Y-105323457D01*
X113107695Y-105323457D02*
X113060076Y-105275838D01*
X113060076Y-105275838D02*
X112964838Y-105228219D01*
X112964838Y-105228219D02*
X112774362Y-105228219D01*
X112774362Y-105228219D02*
X112679124Y-105275838D01*
X112679124Y-105275838D02*
X112631505Y-105323457D01*
X112631505Y-105323457D02*
X112583886Y-105418695D01*
X112583886Y-105418695D02*
X112583886Y-105656790D01*
X112583886Y-105656790D02*
X112631505Y-105752028D01*
X112631505Y-105752028D02*
X112679124Y-105799647D01*
X112679124Y-105799647D02*
X112774362Y-105847266D01*
X112774362Y-105847266D02*
X112964838Y-105847266D01*
X112964838Y-105847266D02*
X113060076Y-105799647D01*
X113060076Y-105799647D02*
X113107695Y-105752028D01*
X113107695Y-105752028D02*
X113155314Y-105656790D01*
X153763742Y-86117780D02*
X153716123Y-86165400D01*
X153716123Y-86165400D02*
X153573266Y-86213019D01*
X153573266Y-86213019D02*
X153478028Y-86213019D01*
X153478028Y-86213019D02*
X153335171Y-86165400D01*
X153335171Y-86165400D02*
X153239933Y-86070161D01*
X153239933Y-86070161D02*
X153192314Y-85974923D01*
X153192314Y-85974923D02*
X153144695Y-85784447D01*
X153144695Y-85784447D02*
X153144695Y-85641590D01*
X153144695Y-85641590D02*
X153192314Y-85451114D01*
X153192314Y-85451114D02*
X153239933Y-85355876D01*
X153239933Y-85355876D02*
X153335171Y-85260638D01*
X153335171Y-85260638D02*
X153478028Y-85213019D01*
X153478028Y-85213019D02*
X153573266Y-85213019D01*
X153573266Y-85213019D02*
X153716123Y-85260638D01*
X153716123Y-85260638D02*
X153763742Y-85308257D01*
X154716123Y-86213019D02*
X154144695Y-86213019D01*
X154430409Y-86213019D02*
X154430409Y-85213019D01*
X154430409Y-85213019D02*
X154335171Y-85355876D01*
X154335171Y-85355876D02*
X154239933Y-85451114D01*
X154239933Y-85451114D02*
X154144695Y-85498733D01*
X155049457Y-85213019D02*
X155668504Y-85213019D01*
X155668504Y-85213019D02*
X155335171Y-85593971D01*
X155335171Y-85593971D02*
X155478028Y-85593971D01*
X155478028Y-85593971D02*
X155573266Y-85641590D01*
X155573266Y-85641590D02*
X155620885Y-85689209D01*
X155620885Y-85689209D02*
X155668504Y-85784447D01*
X155668504Y-85784447D02*
X155668504Y-86022542D01*
X155668504Y-86022542D02*
X155620885Y-86117780D01*
X155620885Y-86117780D02*
X155573266Y-86165400D01*
X155573266Y-86165400D02*
X155478028Y-86213019D01*
X155478028Y-86213019D02*
X155192314Y-86213019D01*
X155192314Y-86213019D02*
X155097076Y-86165400D01*
X155097076Y-86165400D02*
X155049457Y-86117780D01*
X130545009Y-101010933D02*
X130545009Y-101344266D01*
X131068819Y-101344266D02*
X130068819Y-101344266D01*
X130068819Y-101344266D02*
X130068819Y-100868076D01*
X130545009Y-100153790D02*
X130592628Y-100010933D01*
X130592628Y-100010933D02*
X130640247Y-99963314D01*
X130640247Y-99963314D02*
X130735485Y-99915695D01*
X130735485Y-99915695D02*
X130878342Y-99915695D01*
X130878342Y-99915695D02*
X130973580Y-99963314D01*
X130973580Y-99963314D02*
X131021200Y-100010933D01*
X131021200Y-100010933D02*
X131068819Y-100106171D01*
X131068819Y-100106171D02*
X131068819Y-100487123D01*
X131068819Y-100487123D02*
X130068819Y-100487123D01*
X130068819Y-100487123D02*
X130068819Y-100153790D01*
X130068819Y-100153790D02*
X130116438Y-100058552D01*
X130116438Y-100058552D02*
X130164057Y-100010933D01*
X130164057Y-100010933D02*
X130259295Y-99963314D01*
X130259295Y-99963314D02*
X130354533Y-99963314D01*
X130354533Y-99963314D02*
X130449771Y-100010933D01*
X130449771Y-100010933D02*
X130497390Y-100058552D01*
X130497390Y-100058552D02*
X130545009Y-100153790D01*
X130545009Y-100153790D02*
X130545009Y-100487123D01*
X131068819Y-98963314D02*
X131068819Y-99534742D01*
X131068819Y-99249028D02*
X130068819Y-99249028D01*
X130068819Y-99249028D02*
X130211676Y-99344266D01*
X130211676Y-99344266D02*
X130306914Y-99439504D01*
X130306914Y-99439504D02*
X130354533Y-99534742D01*
X113088809Y-97383333D02*
X113088809Y-97716666D01*
X113612619Y-97716666D02*
X112612619Y-97716666D01*
X112612619Y-97716666D02*
X112612619Y-97240476D01*
X113088809Y-96526190D02*
X113136428Y-96383333D01*
X113136428Y-96383333D02*
X113184047Y-96335714D01*
X113184047Y-96335714D02*
X113279285Y-96288095D01*
X113279285Y-96288095D02*
X113422142Y-96288095D01*
X113422142Y-96288095D02*
X113517380Y-96335714D01*
X113517380Y-96335714D02*
X113565000Y-96383333D01*
X113565000Y-96383333D02*
X113612619Y-96478571D01*
X113612619Y-96478571D02*
X113612619Y-96859523D01*
X113612619Y-96859523D02*
X112612619Y-96859523D01*
X112612619Y-96859523D02*
X112612619Y-96526190D01*
X112612619Y-96526190D02*
X112660238Y-96430952D01*
X112660238Y-96430952D02*
X112707857Y-96383333D01*
X112707857Y-96383333D02*
X112803095Y-96335714D01*
X112803095Y-96335714D02*
X112898333Y-96335714D01*
X112898333Y-96335714D02*
X112993571Y-96383333D01*
X112993571Y-96383333D02*
X113041190Y-96430952D01*
X113041190Y-96430952D02*
X113088809Y-96526190D01*
X113088809Y-96526190D02*
X113088809Y-96859523D01*
X112707857Y-95907142D02*
X112660238Y-95859523D01*
X112660238Y-95859523D02*
X112612619Y-95764285D01*
X112612619Y-95764285D02*
X112612619Y-95526190D01*
X112612619Y-95526190D02*
X112660238Y-95430952D01*
X112660238Y-95430952D02*
X112707857Y-95383333D01*
X112707857Y-95383333D02*
X112803095Y-95335714D01*
X112803095Y-95335714D02*
X112898333Y-95335714D01*
X112898333Y-95335714D02*
X113041190Y-95383333D01*
X113041190Y-95383333D02*
X113612619Y-95954761D01*
X113612619Y-95954761D02*
X113612619Y-95335714D01*
X121459666Y-106015619D02*
X121459666Y-106729904D01*
X121459666Y-106729904D02*
X121412047Y-106872761D01*
X121412047Y-106872761D02*
X121316809Y-106968000D01*
X121316809Y-106968000D02*
X121173952Y-107015619D01*
X121173952Y-107015619D02*
X121078714Y-107015619D01*
X121888238Y-106110857D02*
X121935857Y-106063238D01*
X121935857Y-106063238D02*
X122031095Y-106015619D01*
X122031095Y-106015619D02*
X122269190Y-106015619D01*
X122269190Y-106015619D02*
X122364428Y-106063238D01*
X122364428Y-106063238D02*
X122412047Y-106110857D01*
X122412047Y-106110857D02*
X122459666Y-106206095D01*
X122459666Y-106206095D02*
X122459666Y-106301333D01*
X122459666Y-106301333D02*
X122412047Y-106444190D01*
X122412047Y-106444190D02*
X121840619Y-107015619D01*
X121840619Y-107015619D02*
X122459666Y-107015619D01*
X134510542Y-77456380D02*
X134462923Y-77504000D01*
X134462923Y-77504000D02*
X134320066Y-77551619D01*
X134320066Y-77551619D02*
X134224828Y-77551619D01*
X134224828Y-77551619D02*
X134081971Y-77504000D01*
X134081971Y-77504000D02*
X133986733Y-77408761D01*
X133986733Y-77408761D02*
X133939114Y-77313523D01*
X133939114Y-77313523D02*
X133891495Y-77123047D01*
X133891495Y-77123047D02*
X133891495Y-76980190D01*
X133891495Y-76980190D02*
X133939114Y-76789714D01*
X133939114Y-76789714D02*
X133986733Y-76694476D01*
X133986733Y-76694476D02*
X134081971Y-76599238D01*
X134081971Y-76599238D02*
X134224828Y-76551619D01*
X134224828Y-76551619D02*
X134320066Y-76551619D01*
X134320066Y-76551619D02*
X134462923Y-76599238D01*
X134462923Y-76599238D02*
X134510542Y-76646857D01*
X135462923Y-77551619D02*
X134891495Y-77551619D01*
X135177209Y-77551619D02*
X135177209Y-76551619D01*
X135177209Y-76551619D02*
X135081971Y-76694476D01*
X135081971Y-76694476D02*
X134986733Y-76789714D01*
X134986733Y-76789714D02*
X134891495Y-76837333D01*
X136367685Y-76551619D02*
X135891495Y-76551619D01*
X135891495Y-76551619D02*
X135843876Y-77027809D01*
X135843876Y-77027809D02*
X135891495Y-76980190D01*
X135891495Y-76980190D02*
X135986733Y-76932571D01*
X135986733Y-76932571D02*
X136224828Y-76932571D01*
X136224828Y-76932571D02*
X136320066Y-76980190D01*
X136320066Y-76980190D02*
X136367685Y-77027809D01*
X136367685Y-77027809D02*
X136415304Y-77123047D01*
X136415304Y-77123047D02*
X136415304Y-77361142D01*
X136415304Y-77361142D02*
X136367685Y-77456380D01*
X136367685Y-77456380D02*
X136320066Y-77504000D01*
X136320066Y-77504000D02*
X136224828Y-77551619D01*
X136224828Y-77551619D02*
X135986733Y-77551619D01*
X135986733Y-77551619D02*
X135891495Y-77504000D01*
X135891495Y-77504000D02*
X135843876Y-77456380D01*
X146685095Y-104898019D02*
X146685095Y-105707542D01*
X146685095Y-105707542D02*
X146732714Y-105802780D01*
X146732714Y-105802780D02*
X146780333Y-105850400D01*
X146780333Y-105850400D02*
X146875571Y-105898019D01*
X146875571Y-105898019D02*
X147066047Y-105898019D01*
X147066047Y-105898019D02*
X147161285Y-105850400D01*
X147161285Y-105850400D02*
X147208904Y-105802780D01*
X147208904Y-105802780D02*
X147256523Y-105707542D01*
X147256523Y-105707542D02*
X147256523Y-104898019D01*
X147685095Y-104993257D02*
X147732714Y-104945638D01*
X147732714Y-104945638D02*
X147827952Y-104898019D01*
X147827952Y-104898019D02*
X148066047Y-104898019D01*
X148066047Y-104898019D02*
X148161285Y-104945638D01*
X148161285Y-104945638D02*
X148208904Y-104993257D01*
X148208904Y-104993257D02*
X148256523Y-105088495D01*
X148256523Y-105088495D02*
X148256523Y-105183733D01*
X148256523Y-105183733D02*
X148208904Y-105326590D01*
X148208904Y-105326590D02*
X147637476Y-105898019D01*
X147637476Y-105898019D02*
X148256523Y-105898019D01*
X174218695Y-106472819D02*
X174218695Y-107282342D01*
X174218695Y-107282342D02*
X174266314Y-107377580D01*
X174266314Y-107377580D02*
X174313933Y-107425200D01*
X174313933Y-107425200D02*
X174409171Y-107472819D01*
X174409171Y-107472819D02*
X174599647Y-107472819D01*
X174599647Y-107472819D02*
X174694885Y-107425200D01*
X174694885Y-107425200D02*
X174742504Y-107377580D01*
X174742504Y-107377580D02*
X174790123Y-107282342D01*
X174790123Y-107282342D02*
X174790123Y-106472819D01*
X175694885Y-106806152D02*
X175694885Y-107472819D01*
X175456790Y-106425200D02*
X175218695Y-107139485D01*
X175218695Y-107139485D02*
X175837742Y-107139485D01*
X110413895Y-107777619D02*
X110413895Y-106777619D01*
X110413895Y-107253809D02*
X110985323Y-107253809D01*
X110985323Y-107777619D02*
X110985323Y-106777619D01*
X111890085Y-107110952D02*
X111890085Y-107777619D01*
X111651990Y-106730000D02*
X111413895Y-107444285D01*
X111413895Y-107444285D02*
X112032942Y-107444285D01*
X117848142Y-99452780D02*
X117800523Y-99500400D01*
X117800523Y-99500400D02*
X117657666Y-99548019D01*
X117657666Y-99548019D02*
X117562428Y-99548019D01*
X117562428Y-99548019D02*
X117419571Y-99500400D01*
X117419571Y-99500400D02*
X117324333Y-99405161D01*
X117324333Y-99405161D02*
X117276714Y-99309923D01*
X117276714Y-99309923D02*
X117229095Y-99119447D01*
X117229095Y-99119447D02*
X117229095Y-98976590D01*
X117229095Y-98976590D02*
X117276714Y-98786114D01*
X117276714Y-98786114D02*
X117324333Y-98690876D01*
X117324333Y-98690876D02*
X117419571Y-98595638D01*
X117419571Y-98595638D02*
X117562428Y-98548019D01*
X117562428Y-98548019D02*
X117657666Y-98548019D01*
X117657666Y-98548019D02*
X117800523Y-98595638D01*
X117800523Y-98595638D02*
X117848142Y-98643257D01*
X118800523Y-99548019D02*
X118229095Y-99548019D01*
X118514809Y-99548019D02*
X118514809Y-98548019D01*
X118514809Y-98548019D02*
X118419571Y-98690876D01*
X118419571Y-98690876D02*
X118324333Y-98786114D01*
X118324333Y-98786114D02*
X118229095Y-98833733D01*
X119657666Y-98881352D02*
X119657666Y-99548019D01*
X119419571Y-98500400D02*
X119181476Y-99214685D01*
X119181476Y-99214685D02*
X119800523Y-99214685D01*
X148302742Y-110069980D02*
X148255123Y-110117600D01*
X148255123Y-110117600D02*
X148112266Y-110165219D01*
X148112266Y-110165219D02*
X148017028Y-110165219D01*
X148017028Y-110165219D02*
X147874171Y-110117600D01*
X147874171Y-110117600D02*
X147778933Y-110022361D01*
X147778933Y-110022361D02*
X147731314Y-109927123D01*
X147731314Y-109927123D02*
X147683695Y-109736647D01*
X147683695Y-109736647D02*
X147683695Y-109593790D01*
X147683695Y-109593790D02*
X147731314Y-109403314D01*
X147731314Y-109403314D02*
X147778933Y-109308076D01*
X147778933Y-109308076D02*
X147874171Y-109212838D01*
X147874171Y-109212838D02*
X148017028Y-109165219D01*
X148017028Y-109165219D02*
X148112266Y-109165219D01*
X148112266Y-109165219D02*
X148255123Y-109212838D01*
X148255123Y-109212838D02*
X148302742Y-109260457D01*
X149255123Y-110165219D02*
X148683695Y-110165219D01*
X148969409Y-110165219D02*
X148969409Y-109165219D01*
X148969409Y-109165219D02*
X148874171Y-109308076D01*
X148874171Y-109308076D02*
X148778933Y-109403314D01*
X148778933Y-109403314D02*
X148683695Y-109450933D01*
X149874171Y-109165219D02*
X149969409Y-109165219D01*
X149969409Y-109165219D02*
X150064647Y-109212838D01*
X150064647Y-109212838D02*
X150112266Y-109260457D01*
X150112266Y-109260457D02*
X150159885Y-109355695D01*
X150159885Y-109355695D02*
X150207504Y-109546171D01*
X150207504Y-109546171D02*
X150207504Y-109784266D01*
X150207504Y-109784266D02*
X150159885Y-109974742D01*
X150159885Y-109974742D02*
X150112266Y-110069980D01*
X150112266Y-110069980D02*
X150064647Y-110117600D01*
X150064647Y-110117600D02*
X149969409Y-110165219D01*
X149969409Y-110165219D02*
X149874171Y-110165219D01*
X149874171Y-110165219D02*
X149778933Y-110117600D01*
X149778933Y-110117600D02*
X149731314Y-110069980D01*
X149731314Y-110069980D02*
X149683695Y-109974742D01*
X149683695Y-109974742D02*
X149636076Y-109784266D01*
X149636076Y-109784266D02*
X149636076Y-109546171D01*
X149636076Y-109546171D02*
X149683695Y-109355695D01*
X149683695Y-109355695D02*
X149731314Y-109260457D01*
X149731314Y-109260457D02*
X149778933Y-109212838D01*
X149778933Y-109212838D02*
X149874171Y-109165219D01*
X133818333Y-87432219D02*
X133485000Y-86956028D01*
X133246905Y-87432219D02*
X133246905Y-86432219D01*
X133246905Y-86432219D02*
X133627857Y-86432219D01*
X133627857Y-86432219D02*
X133723095Y-86479838D01*
X133723095Y-86479838D02*
X133770714Y-86527457D01*
X133770714Y-86527457D02*
X133818333Y-86622695D01*
X133818333Y-86622695D02*
X133818333Y-86765552D01*
X133818333Y-86765552D02*
X133770714Y-86860790D01*
X133770714Y-86860790D02*
X133723095Y-86908409D01*
X133723095Y-86908409D02*
X133627857Y-86956028D01*
X133627857Y-86956028D02*
X133246905Y-86956028D01*
X134675476Y-86765552D02*
X134675476Y-87432219D01*
X134437381Y-86384600D02*
X134199286Y-87098885D01*
X134199286Y-87098885D02*
X134818333Y-87098885D01*
X126204742Y-73824180D02*
X126157123Y-73871800D01*
X126157123Y-73871800D02*
X126014266Y-73919419D01*
X126014266Y-73919419D02*
X125919028Y-73919419D01*
X125919028Y-73919419D02*
X125776171Y-73871800D01*
X125776171Y-73871800D02*
X125680933Y-73776561D01*
X125680933Y-73776561D02*
X125633314Y-73681323D01*
X125633314Y-73681323D02*
X125585695Y-73490847D01*
X125585695Y-73490847D02*
X125585695Y-73347990D01*
X125585695Y-73347990D02*
X125633314Y-73157514D01*
X125633314Y-73157514D02*
X125680933Y-73062276D01*
X125680933Y-73062276D02*
X125776171Y-72967038D01*
X125776171Y-72967038D02*
X125919028Y-72919419D01*
X125919028Y-72919419D02*
X126014266Y-72919419D01*
X126014266Y-72919419D02*
X126157123Y-72967038D01*
X126157123Y-72967038D02*
X126204742Y-73014657D01*
X126585695Y-73014657D02*
X126633314Y-72967038D01*
X126633314Y-72967038D02*
X126728552Y-72919419D01*
X126728552Y-72919419D02*
X126966647Y-72919419D01*
X126966647Y-72919419D02*
X127061885Y-72967038D01*
X127061885Y-72967038D02*
X127109504Y-73014657D01*
X127109504Y-73014657D02*
X127157123Y-73109895D01*
X127157123Y-73109895D02*
X127157123Y-73205133D01*
X127157123Y-73205133D02*
X127109504Y-73347990D01*
X127109504Y-73347990D02*
X126538076Y-73919419D01*
X126538076Y-73919419D02*
X127157123Y-73919419D01*
X128061885Y-72919419D02*
X127585695Y-72919419D01*
X127585695Y-72919419D02*
X127538076Y-73395609D01*
X127538076Y-73395609D02*
X127585695Y-73347990D01*
X127585695Y-73347990D02*
X127680933Y-73300371D01*
X127680933Y-73300371D02*
X127919028Y-73300371D01*
X127919028Y-73300371D02*
X128014266Y-73347990D01*
X128014266Y-73347990D02*
X128061885Y-73395609D01*
X128061885Y-73395609D02*
X128109504Y-73490847D01*
X128109504Y-73490847D02*
X128109504Y-73728942D01*
X128109504Y-73728942D02*
X128061885Y-73824180D01*
X128061885Y-73824180D02*
X128014266Y-73871800D01*
X128014266Y-73871800D02*
X127919028Y-73919419D01*
X127919028Y-73919419D02*
X127680933Y-73919419D01*
X127680933Y-73919419D02*
X127585695Y-73871800D01*
X127585695Y-73871800D02*
X127538076Y-73824180D01*
X144410133Y-102824619D02*
X144076800Y-102348428D01*
X143838705Y-102824619D02*
X143838705Y-101824619D01*
X143838705Y-101824619D02*
X144219657Y-101824619D01*
X144219657Y-101824619D02*
X144314895Y-101872238D01*
X144314895Y-101872238D02*
X144362514Y-101919857D01*
X144362514Y-101919857D02*
X144410133Y-102015095D01*
X144410133Y-102015095D02*
X144410133Y-102157952D01*
X144410133Y-102157952D02*
X144362514Y-102253190D01*
X144362514Y-102253190D02*
X144314895Y-102300809D01*
X144314895Y-102300809D02*
X144219657Y-102348428D01*
X144219657Y-102348428D02*
X143838705Y-102348428D01*
X144886324Y-102824619D02*
X145076800Y-102824619D01*
X145076800Y-102824619D02*
X145172038Y-102777000D01*
X145172038Y-102777000D02*
X145219657Y-102729380D01*
X145219657Y-102729380D02*
X145314895Y-102586523D01*
X145314895Y-102586523D02*
X145362514Y-102396047D01*
X145362514Y-102396047D02*
X145362514Y-102015095D01*
X145362514Y-102015095D02*
X145314895Y-101919857D01*
X145314895Y-101919857D02*
X145267276Y-101872238D01*
X145267276Y-101872238D02*
X145172038Y-101824619D01*
X145172038Y-101824619D02*
X144981562Y-101824619D01*
X144981562Y-101824619D02*
X144886324Y-101872238D01*
X144886324Y-101872238D02*
X144838705Y-101919857D01*
X144838705Y-101919857D02*
X144791086Y-102015095D01*
X144791086Y-102015095D02*
X144791086Y-102253190D01*
X144791086Y-102253190D02*
X144838705Y-102348428D01*
X144838705Y-102348428D02*
X144886324Y-102396047D01*
X144886324Y-102396047D02*
X144981562Y-102443666D01*
X144981562Y-102443666D02*
X145172038Y-102443666D01*
X145172038Y-102443666D02*
X145267276Y-102396047D01*
X145267276Y-102396047D02*
X145314895Y-102348428D01*
X145314895Y-102348428D02*
X145362514Y-102253190D01*
X111708705Y-99427619D02*
X111708705Y-98427619D01*
X111708705Y-98427619D02*
X111946800Y-98427619D01*
X111946800Y-98427619D02*
X112089657Y-98475238D01*
X112089657Y-98475238D02*
X112184895Y-98570476D01*
X112184895Y-98570476D02*
X112232514Y-98665714D01*
X112232514Y-98665714D02*
X112280133Y-98856190D01*
X112280133Y-98856190D02*
X112280133Y-98999047D01*
X112280133Y-98999047D02*
X112232514Y-99189523D01*
X112232514Y-99189523D02*
X112184895Y-99284761D01*
X112184895Y-99284761D02*
X112089657Y-99380000D01*
X112089657Y-99380000D02*
X111946800Y-99427619D01*
X111946800Y-99427619D02*
X111708705Y-99427619D01*
X113232514Y-99427619D02*
X112661086Y-99427619D01*
X112946800Y-99427619D02*
X112946800Y-98427619D01*
X112946800Y-98427619D02*
X112851562Y-98570476D01*
X112851562Y-98570476D02*
X112756324Y-98665714D01*
X112756324Y-98665714D02*
X112661086Y-98713333D01*
X116078095Y-77847019D02*
X116078095Y-78656542D01*
X116078095Y-78656542D02*
X116125714Y-78751780D01*
X116125714Y-78751780D02*
X116173333Y-78799400D01*
X116173333Y-78799400D02*
X116268571Y-78847019D01*
X116268571Y-78847019D02*
X116459047Y-78847019D01*
X116459047Y-78847019D02*
X116554285Y-78799400D01*
X116554285Y-78799400D02*
X116601904Y-78751780D01*
X116601904Y-78751780D02*
X116649523Y-78656542D01*
X116649523Y-78656542D02*
X116649523Y-77847019D01*
X117649523Y-78847019D02*
X117078095Y-78847019D01*
X117363809Y-78847019D02*
X117363809Y-77847019D01*
X117363809Y-77847019D02*
X117268571Y-77989876D01*
X117268571Y-77989876D02*
X117173333Y-78085114D01*
X117173333Y-78085114D02*
X117078095Y-78132733D01*
X140498533Y-77500819D02*
X140165200Y-77024628D01*
X139927105Y-77500819D02*
X139927105Y-76500819D01*
X139927105Y-76500819D02*
X140308057Y-76500819D01*
X140308057Y-76500819D02*
X140403295Y-76548438D01*
X140403295Y-76548438D02*
X140450914Y-76596057D01*
X140450914Y-76596057D02*
X140498533Y-76691295D01*
X140498533Y-76691295D02*
X140498533Y-76834152D01*
X140498533Y-76834152D02*
X140450914Y-76929390D01*
X140450914Y-76929390D02*
X140403295Y-76977009D01*
X140403295Y-76977009D02*
X140308057Y-77024628D01*
X140308057Y-77024628D02*
X139927105Y-77024628D01*
X141069962Y-76929390D02*
X140974724Y-76881771D01*
X140974724Y-76881771D02*
X140927105Y-76834152D01*
X140927105Y-76834152D02*
X140879486Y-76738914D01*
X140879486Y-76738914D02*
X140879486Y-76691295D01*
X140879486Y-76691295D02*
X140927105Y-76596057D01*
X140927105Y-76596057D02*
X140974724Y-76548438D01*
X140974724Y-76548438D02*
X141069962Y-76500819D01*
X141069962Y-76500819D02*
X141260438Y-76500819D01*
X141260438Y-76500819D02*
X141355676Y-76548438D01*
X141355676Y-76548438D02*
X141403295Y-76596057D01*
X141403295Y-76596057D02*
X141450914Y-76691295D01*
X141450914Y-76691295D02*
X141450914Y-76738914D01*
X141450914Y-76738914D02*
X141403295Y-76834152D01*
X141403295Y-76834152D02*
X141355676Y-76881771D01*
X141355676Y-76881771D02*
X141260438Y-76929390D01*
X141260438Y-76929390D02*
X141069962Y-76929390D01*
X141069962Y-76929390D02*
X140974724Y-76977009D01*
X140974724Y-76977009D02*
X140927105Y-77024628D01*
X140927105Y-77024628D02*
X140879486Y-77119866D01*
X140879486Y-77119866D02*
X140879486Y-77310342D01*
X140879486Y-77310342D02*
X140927105Y-77405580D01*
X140927105Y-77405580D02*
X140974724Y-77453200D01*
X140974724Y-77453200D02*
X141069962Y-77500819D01*
X141069962Y-77500819D02*
X141260438Y-77500819D01*
X141260438Y-77500819D02*
X141355676Y-77453200D01*
X141355676Y-77453200D02*
X141403295Y-77405580D01*
X141403295Y-77405580D02*
X141450914Y-77310342D01*
X141450914Y-77310342D02*
X141450914Y-77119866D01*
X141450914Y-77119866D02*
X141403295Y-77024628D01*
X141403295Y-77024628D02*
X141355676Y-76977009D01*
X141355676Y-76977009D02*
X141260438Y-76929390D01*
X117835742Y-94357380D02*
X117788123Y-94405000D01*
X117788123Y-94405000D02*
X117645266Y-94452619D01*
X117645266Y-94452619D02*
X117550028Y-94452619D01*
X117550028Y-94452619D02*
X117407171Y-94405000D01*
X117407171Y-94405000D02*
X117311933Y-94309761D01*
X117311933Y-94309761D02*
X117264314Y-94214523D01*
X117264314Y-94214523D02*
X117216695Y-94024047D01*
X117216695Y-94024047D02*
X117216695Y-93881190D01*
X117216695Y-93881190D02*
X117264314Y-93690714D01*
X117264314Y-93690714D02*
X117311933Y-93595476D01*
X117311933Y-93595476D02*
X117407171Y-93500238D01*
X117407171Y-93500238D02*
X117550028Y-93452619D01*
X117550028Y-93452619D02*
X117645266Y-93452619D01*
X117645266Y-93452619D02*
X117788123Y-93500238D01*
X117788123Y-93500238D02*
X117835742Y-93547857D01*
X118788123Y-94452619D02*
X118216695Y-94452619D01*
X118502409Y-94452619D02*
X118502409Y-93452619D01*
X118502409Y-93452619D02*
X118407171Y-93595476D01*
X118407171Y-93595476D02*
X118311933Y-93690714D01*
X118311933Y-93690714D02*
X118216695Y-93738333D01*
X119169076Y-93547857D02*
X119216695Y-93500238D01*
X119216695Y-93500238D02*
X119311933Y-93452619D01*
X119311933Y-93452619D02*
X119550028Y-93452619D01*
X119550028Y-93452619D02*
X119645266Y-93500238D01*
X119645266Y-93500238D02*
X119692885Y-93547857D01*
X119692885Y-93547857D02*
X119740504Y-93643095D01*
X119740504Y-93643095D02*
X119740504Y-93738333D01*
X119740504Y-93738333D02*
X119692885Y-93881190D01*
X119692885Y-93881190D02*
X119121457Y-94452619D01*
X119121457Y-94452619D02*
X119740504Y-94452619D01*
X164538095Y-101112619D02*
X164538095Y-101922142D01*
X164538095Y-101922142D02*
X164585714Y-102017380D01*
X164585714Y-102017380D02*
X164633333Y-102065000D01*
X164633333Y-102065000D02*
X164728571Y-102112619D01*
X164728571Y-102112619D02*
X164919047Y-102112619D01*
X164919047Y-102112619D02*
X165014285Y-102065000D01*
X165014285Y-102065000D02*
X165061904Y-102017380D01*
X165061904Y-102017380D02*
X165109523Y-101922142D01*
X165109523Y-101922142D02*
X165109523Y-101112619D01*
X166061904Y-101112619D02*
X165585714Y-101112619D01*
X165585714Y-101112619D02*
X165538095Y-101588809D01*
X165538095Y-101588809D02*
X165585714Y-101541190D01*
X165585714Y-101541190D02*
X165680952Y-101493571D01*
X165680952Y-101493571D02*
X165919047Y-101493571D01*
X165919047Y-101493571D02*
X166014285Y-101541190D01*
X166014285Y-101541190D02*
X166061904Y-101588809D01*
X166061904Y-101588809D02*
X166109523Y-101684047D01*
X166109523Y-101684047D02*
X166109523Y-101922142D01*
X166109523Y-101922142D02*
X166061904Y-102017380D01*
X166061904Y-102017380D02*
X166014285Y-102065000D01*
X166014285Y-102065000D02*
X165919047Y-102112619D01*
X165919047Y-102112619D02*
X165680952Y-102112619D01*
X165680952Y-102112619D02*
X165585714Y-102065000D01*
X165585714Y-102065000D02*
X165538095Y-102017380D01*
X137228342Y-77475419D02*
X136895009Y-76999228D01*
X136656914Y-77475419D02*
X136656914Y-76475419D01*
X136656914Y-76475419D02*
X137037866Y-76475419D01*
X137037866Y-76475419D02*
X137133104Y-76523038D01*
X137133104Y-76523038D02*
X137180723Y-76570657D01*
X137180723Y-76570657D02*
X137228342Y-76665895D01*
X137228342Y-76665895D02*
X137228342Y-76808752D01*
X137228342Y-76808752D02*
X137180723Y-76903990D01*
X137180723Y-76903990D02*
X137133104Y-76951609D01*
X137133104Y-76951609D02*
X137037866Y-76999228D01*
X137037866Y-76999228D02*
X136656914Y-76999228D01*
X137609295Y-76570657D02*
X137656914Y-76523038D01*
X137656914Y-76523038D02*
X137752152Y-76475419D01*
X137752152Y-76475419D02*
X137990247Y-76475419D01*
X137990247Y-76475419D02*
X138085485Y-76523038D01*
X138085485Y-76523038D02*
X138133104Y-76570657D01*
X138133104Y-76570657D02*
X138180723Y-76665895D01*
X138180723Y-76665895D02*
X138180723Y-76761133D01*
X138180723Y-76761133D02*
X138133104Y-76903990D01*
X138133104Y-76903990D02*
X137561676Y-77475419D01*
X137561676Y-77475419D02*
X138180723Y-77475419D01*
X138799771Y-76475419D02*
X138895009Y-76475419D01*
X138895009Y-76475419D02*
X138990247Y-76523038D01*
X138990247Y-76523038D02*
X139037866Y-76570657D01*
X139037866Y-76570657D02*
X139085485Y-76665895D01*
X139085485Y-76665895D02*
X139133104Y-76856371D01*
X139133104Y-76856371D02*
X139133104Y-77094466D01*
X139133104Y-77094466D02*
X139085485Y-77284942D01*
X139085485Y-77284942D02*
X139037866Y-77380180D01*
X139037866Y-77380180D02*
X138990247Y-77427800D01*
X138990247Y-77427800D02*
X138895009Y-77475419D01*
X138895009Y-77475419D02*
X138799771Y-77475419D01*
X138799771Y-77475419D02*
X138704533Y-77427800D01*
X138704533Y-77427800D02*
X138656914Y-77380180D01*
X138656914Y-77380180D02*
X138609295Y-77284942D01*
X138609295Y-77284942D02*
X138561676Y-77094466D01*
X138561676Y-77094466D02*
X138561676Y-76856371D01*
X138561676Y-76856371D02*
X138609295Y-76665895D01*
X138609295Y-76665895D02*
X138656914Y-76570657D01*
X138656914Y-76570657D02*
X138704533Y-76523038D01*
X138704533Y-76523038D02*
X138799771Y-76475419D01*
X122540781Y-69287609D02*
X122683638Y-69335228D01*
X122683638Y-69335228D02*
X122731257Y-69382847D01*
X122731257Y-69382847D02*
X122778876Y-69478085D01*
X122778876Y-69478085D02*
X122778876Y-69620942D01*
X122778876Y-69620942D02*
X122731257Y-69716180D01*
X122731257Y-69716180D02*
X122683638Y-69763800D01*
X122683638Y-69763800D02*
X122588400Y-69811419D01*
X122588400Y-69811419D02*
X122207448Y-69811419D01*
X122207448Y-69811419D02*
X122207448Y-68811419D01*
X122207448Y-68811419D02*
X122540781Y-68811419D01*
X122540781Y-68811419D02*
X122636019Y-68859038D01*
X122636019Y-68859038D02*
X122683638Y-68906657D01*
X122683638Y-68906657D02*
X122731257Y-69001895D01*
X122731257Y-69001895D02*
X122731257Y-69097133D01*
X122731257Y-69097133D02*
X122683638Y-69192371D01*
X122683638Y-69192371D02*
X122636019Y-69239990D01*
X122636019Y-69239990D02*
X122540781Y-69287609D01*
X122540781Y-69287609D02*
X122207448Y-69287609D01*
X123207448Y-69430466D02*
X123969353Y-69430466D01*
X123588400Y-69811419D02*
X123588400Y-69049514D01*
X136212342Y-71735019D02*
X135879009Y-71258828D01*
X135640914Y-71735019D02*
X135640914Y-70735019D01*
X135640914Y-70735019D02*
X136021866Y-70735019D01*
X136021866Y-70735019D02*
X136117104Y-70782638D01*
X136117104Y-70782638D02*
X136164723Y-70830257D01*
X136164723Y-70830257D02*
X136212342Y-70925495D01*
X136212342Y-70925495D02*
X136212342Y-71068352D01*
X136212342Y-71068352D02*
X136164723Y-71163590D01*
X136164723Y-71163590D02*
X136117104Y-71211209D01*
X136117104Y-71211209D02*
X136021866Y-71258828D01*
X136021866Y-71258828D02*
X135640914Y-71258828D01*
X136593295Y-70830257D02*
X136640914Y-70782638D01*
X136640914Y-70782638D02*
X136736152Y-70735019D01*
X136736152Y-70735019D02*
X136974247Y-70735019D01*
X136974247Y-70735019D02*
X137069485Y-70782638D01*
X137069485Y-70782638D02*
X137117104Y-70830257D01*
X137117104Y-70830257D02*
X137164723Y-70925495D01*
X137164723Y-70925495D02*
X137164723Y-71020733D01*
X137164723Y-71020733D02*
X137117104Y-71163590D01*
X137117104Y-71163590D02*
X136545676Y-71735019D01*
X136545676Y-71735019D02*
X137164723Y-71735019D01*
X138117104Y-71735019D02*
X137545676Y-71735019D01*
X137831390Y-71735019D02*
X137831390Y-70735019D01*
X137831390Y-70735019D02*
X137736152Y-70877876D01*
X137736152Y-70877876D02*
X137640914Y-70973114D01*
X137640914Y-70973114D02*
X137545676Y-71020733D01*
X112518019Y-90195304D02*
X113327542Y-90195304D01*
X113327542Y-90195304D02*
X113422780Y-90147685D01*
X113422780Y-90147685D02*
X113470400Y-90100066D01*
X113470400Y-90100066D02*
X113518019Y-90004828D01*
X113518019Y-90004828D02*
X113518019Y-89814352D01*
X113518019Y-89814352D02*
X113470400Y-89719114D01*
X113470400Y-89719114D02*
X113422780Y-89671495D01*
X113422780Y-89671495D02*
X113327542Y-89623876D01*
X113327542Y-89623876D02*
X112518019Y-89623876D01*
X112518019Y-88719114D02*
X112518019Y-88909590D01*
X112518019Y-88909590D02*
X112565638Y-89004828D01*
X112565638Y-89004828D02*
X112613257Y-89052447D01*
X112613257Y-89052447D02*
X112756114Y-89147685D01*
X112756114Y-89147685D02*
X112946590Y-89195304D01*
X112946590Y-89195304D02*
X113327542Y-89195304D01*
X113327542Y-89195304D02*
X113422780Y-89147685D01*
X113422780Y-89147685D02*
X113470400Y-89100066D01*
X113470400Y-89100066D02*
X113518019Y-89004828D01*
X113518019Y-89004828D02*
X113518019Y-88814352D01*
X113518019Y-88814352D02*
X113470400Y-88719114D01*
X113470400Y-88719114D02*
X113422780Y-88671495D01*
X113422780Y-88671495D02*
X113327542Y-88623876D01*
X113327542Y-88623876D02*
X113089447Y-88623876D01*
X113089447Y-88623876D02*
X112994209Y-88671495D01*
X112994209Y-88671495D02*
X112946590Y-88719114D01*
X112946590Y-88719114D02*
X112898971Y-88814352D01*
X112898971Y-88814352D02*
X112898971Y-89004828D01*
X112898971Y-89004828D02*
X112946590Y-89100066D01*
X112946590Y-89100066D02*
X112994209Y-89147685D01*
X112994209Y-89147685D02*
X113089447Y-89195304D01*
X122578905Y-99802019D02*
X122578905Y-98802019D01*
X122578905Y-98802019D02*
X122817000Y-98802019D01*
X122817000Y-98802019D02*
X122959857Y-98849638D01*
X122959857Y-98849638D02*
X123055095Y-98944876D01*
X123055095Y-98944876D02*
X123102714Y-99040114D01*
X123102714Y-99040114D02*
X123150333Y-99230590D01*
X123150333Y-99230590D02*
X123150333Y-99373447D01*
X123150333Y-99373447D02*
X123102714Y-99563923D01*
X123102714Y-99563923D02*
X123055095Y-99659161D01*
X123055095Y-99659161D02*
X122959857Y-99754400D01*
X122959857Y-99754400D02*
X122817000Y-99802019D01*
X122817000Y-99802019D02*
X122578905Y-99802019D01*
X124007476Y-99135352D02*
X124007476Y-99802019D01*
X123769381Y-98754400D02*
X123531286Y-99468685D01*
X123531286Y-99468685D02*
X124150333Y-99468685D01*
X163568142Y-89007019D02*
X163234809Y-88530828D01*
X162996714Y-89007019D02*
X162996714Y-88007019D01*
X162996714Y-88007019D02*
X163377666Y-88007019D01*
X163377666Y-88007019D02*
X163472904Y-88054638D01*
X163472904Y-88054638D02*
X163520523Y-88102257D01*
X163520523Y-88102257D02*
X163568142Y-88197495D01*
X163568142Y-88197495D02*
X163568142Y-88340352D01*
X163568142Y-88340352D02*
X163520523Y-88435590D01*
X163520523Y-88435590D02*
X163472904Y-88483209D01*
X163472904Y-88483209D02*
X163377666Y-88530828D01*
X163377666Y-88530828D02*
X162996714Y-88530828D01*
X164520523Y-89007019D02*
X163949095Y-89007019D01*
X164234809Y-89007019D02*
X164234809Y-88007019D01*
X164234809Y-88007019D02*
X164139571Y-88149876D01*
X164139571Y-88149876D02*
X164044333Y-88245114D01*
X164044333Y-88245114D02*
X163949095Y-88292733D01*
X165377666Y-88007019D02*
X165187190Y-88007019D01*
X165187190Y-88007019D02*
X165091952Y-88054638D01*
X165091952Y-88054638D02*
X165044333Y-88102257D01*
X165044333Y-88102257D02*
X164949095Y-88245114D01*
X164949095Y-88245114D02*
X164901476Y-88435590D01*
X164901476Y-88435590D02*
X164901476Y-88816542D01*
X164901476Y-88816542D02*
X164949095Y-88911780D01*
X164949095Y-88911780D02*
X164996714Y-88959400D01*
X164996714Y-88959400D02*
X165091952Y-89007019D01*
X165091952Y-89007019D02*
X165282428Y-89007019D01*
X165282428Y-89007019D02*
X165377666Y-88959400D01*
X165377666Y-88959400D02*
X165425285Y-88911780D01*
X165425285Y-88911780D02*
X165472904Y-88816542D01*
X165472904Y-88816542D02*
X165472904Y-88578447D01*
X165472904Y-88578447D02*
X165425285Y-88483209D01*
X165425285Y-88483209D02*
X165377666Y-88435590D01*
X165377666Y-88435590D02*
X165282428Y-88387971D01*
X165282428Y-88387971D02*
X165091952Y-88387971D01*
X165091952Y-88387971D02*
X164996714Y-88435590D01*
X164996714Y-88435590D02*
X164949095Y-88483209D01*
X164949095Y-88483209D02*
X164901476Y-88578447D01*
X110540895Y-73335219D02*
X110540895Y-72335219D01*
X110540895Y-72811409D02*
X111112323Y-72811409D01*
X111112323Y-73335219D02*
X111112323Y-72335219D01*
X111540895Y-72430457D02*
X111588514Y-72382838D01*
X111588514Y-72382838D02*
X111683752Y-72335219D01*
X111683752Y-72335219D02*
X111921847Y-72335219D01*
X111921847Y-72335219D02*
X112017085Y-72382838D01*
X112017085Y-72382838D02*
X112064704Y-72430457D01*
X112064704Y-72430457D02*
X112112323Y-72525695D01*
X112112323Y-72525695D02*
X112112323Y-72620933D01*
X112112323Y-72620933D02*
X112064704Y-72763790D01*
X112064704Y-72763790D02*
X111493276Y-73335219D01*
X111493276Y-73335219D02*
X112112323Y-73335219D01*
X152430819Y-102833466D02*
X151954628Y-103166799D01*
X152430819Y-103404894D02*
X151430819Y-103404894D01*
X151430819Y-103404894D02*
X151430819Y-103023942D01*
X151430819Y-103023942D02*
X151478438Y-102928704D01*
X151478438Y-102928704D02*
X151526057Y-102881085D01*
X151526057Y-102881085D02*
X151621295Y-102833466D01*
X151621295Y-102833466D02*
X151764152Y-102833466D01*
X151764152Y-102833466D02*
X151859390Y-102881085D01*
X151859390Y-102881085D02*
X151907009Y-102928704D01*
X151907009Y-102928704D02*
X151954628Y-103023942D01*
X151954628Y-103023942D02*
X151954628Y-103404894D01*
X151430819Y-101928704D02*
X151430819Y-102404894D01*
X151430819Y-102404894D02*
X151907009Y-102452513D01*
X151907009Y-102452513D02*
X151859390Y-102404894D01*
X151859390Y-102404894D02*
X151811771Y-102309656D01*
X151811771Y-102309656D02*
X151811771Y-102071561D01*
X151811771Y-102071561D02*
X151859390Y-101976323D01*
X151859390Y-101976323D02*
X151907009Y-101928704D01*
X151907009Y-101928704D02*
X152002247Y-101881085D01*
X152002247Y-101881085D02*
X152240342Y-101881085D01*
X152240342Y-101881085D02*
X152335580Y-101928704D01*
X152335580Y-101928704D02*
X152383200Y-101976323D01*
X152383200Y-101976323D02*
X152430819Y-102071561D01*
X152430819Y-102071561D02*
X152430819Y-102309656D01*
X152430819Y-102309656D02*
X152383200Y-102404894D01*
X152383200Y-102404894D02*
X152335580Y-102452513D01*
X110888542Y-79819819D02*
X110555209Y-79343628D01*
X110317114Y-79819819D02*
X110317114Y-78819819D01*
X110317114Y-78819819D02*
X110698066Y-78819819D01*
X110698066Y-78819819D02*
X110793304Y-78867438D01*
X110793304Y-78867438D02*
X110840923Y-78915057D01*
X110840923Y-78915057D02*
X110888542Y-79010295D01*
X110888542Y-79010295D02*
X110888542Y-79153152D01*
X110888542Y-79153152D02*
X110840923Y-79248390D01*
X110840923Y-79248390D02*
X110793304Y-79296009D01*
X110793304Y-79296009D02*
X110698066Y-79343628D01*
X110698066Y-79343628D02*
X110317114Y-79343628D01*
X111269495Y-78915057D02*
X111317114Y-78867438D01*
X111317114Y-78867438D02*
X111412352Y-78819819D01*
X111412352Y-78819819D02*
X111650447Y-78819819D01*
X111650447Y-78819819D02*
X111745685Y-78867438D01*
X111745685Y-78867438D02*
X111793304Y-78915057D01*
X111793304Y-78915057D02*
X111840923Y-79010295D01*
X111840923Y-79010295D02*
X111840923Y-79105533D01*
X111840923Y-79105533D02*
X111793304Y-79248390D01*
X111793304Y-79248390D02*
X111221876Y-79819819D01*
X111221876Y-79819819D02*
X111840923Y-79819819D01*
X112174257Y-78819819D02*
X112793304Y-78819819D01*
X112793304Y-78819819D02*
X112459971Y-79200771D01*
X112459971Y-79200771D02*
X112602828Y-79200771D01*
X112602828Y-79200771D02*
X112698066Y-79248390D01*
X112698066Y-79248390D02*
X112745685Y-79296009D01*
X112745685Y-79296009D02*
X112793304Y-79391247D01*
X112793304Y-79391247D02*
X112793304Y-79629342D01*
X112793304Y-79629342D02*
X112745685Y-79724580D01*
X112745685Y-79724580D02*
X112698066Y-79772200D01*
X112698066Y-79772200D02*
X112602828Y-79819819D01*
X112602828Y-79819819D02*
X112317114Y-79819819D01*
X112317114Y-79819819D02*
X112221876Y-79772200D01*
X112221876Y-79772200D02*
X112174257Y-79724580D01*
X178435095Y-107853819D02*
X178435095Y-106853819D01*
X178435095Y-107330009D02*
X179006523Y-107330009D01*
X179006523Y-107853819D02*
X179006523Y-106853819D01*
X179387476Y-106853819D02*
X180006523Y-106853819D01*
X180006523Y-106853819D02*
X179673190Y-107234771D01*
X179673190Y-107234771D02*
X179816047Y-107234771D01*
X179816047Y-107234771D02*
X179911285Y-107282390D01*
X179911285Y-107282390D02*
X179958904Y-107330009D01*
X179958904Y-107330009D02*
X180006523Y-107425247D01*
X180006523Y-107425247D02*
X180006523Y-107663342D01*
X180006523Y-107663342D02*
X179958904Y-107758580D01*
X179958904Y-107758580D02*
X179911285Y-107806200D01*
X179911285Y-107806200D02*
X179816047Y-107853819D01*
X179816047Y-107853819D02*
X179530333Y-107853819D01*
X179530333Y-107853819D02*
X179435095Y-107806200D01*
X179435095Y-107806200D02*
X179387476Y-107758580D01*
X130587761Y-74268657D02*
X130492523Y-74221038D01*
X130492523Y-74221038D02*
X130397285Y-74125800D01*
X130397285Y-74125800D02*
X130254428Y-73982942D01*
X130254428Y-73982942D02*
X130159190Y-73935323D01*
X130159190Y-73935323D02*
X130063952Y-73935323D01*
X130111571Y-74173419D02*
X130016333Y-74125800D01*
X130016333Y-74125800D02*
X129921095Y-74030561D01*
X129921095Y-74030561D02*
X129873476Y-73840085D01*
X129873476Y-73840085D02*
X129873476Y-73506752D01*
X129873476Y-73506752D02*
X129921095Y-73316276D01*
X129921095Y-73316276D02*
X130016333Y-73221038D01*
X130016333Y-73221038D02*
X130111571Y-73173419D01*
X130111571Y-73173419D02*
X130302047Y-73173419D01*
X130302047Y-73173419D02*
X130397285Y-73221038D01*
X130397285Y-73221038D02*
X130492523Y-73316276D01*
X130492523Y-73316276D02*
X130540142Y-73506752D01*
X130540142Y-73506752D02*
X130540142Y-73840085D01*
X130540142Y-73840085D02*
X130492523Y-74030561D01*
X130492523Y-74030561D02*
X130397285Y-74125800D01*
X130397285Y-74125800D02*
X130302047Y-74173419D01*
X130302047Y-74173419D02*
X130111571Y-74173419D01*
X131492523Y-74173419D02*
X130921095Y-74173419D01*
X131206809Y-74173419D02*
X131206809Y-73173419D01*
X131206809Y-73173419D02*
X131111571Y-73316276D01*
X131111571Y-73316276D02*
X131016333Y-73411514D01*
X131016333Y-73411514D02*
X130921095Y-73459133D01*
X143552942Y-76516580D02*
X143505323Y-76564200D01*
X143505323Y-76564200D02*
X143362466Y-76611819D01*
X143362466Y-76611819D02*
X143267228Y-76611819D01*
X143267228Y-76611819D02*
X143124371Y-76564200D01*
X143124371Y-76564200D02*
X143029133Y-76468961D01*
X143029133Y-76468961D02*
X142981514Y-76373723D01*
X142981514Y-76373723D02*
X142933895Y-76183247D01*
X142933895Y-76183247D02*
X142933895Y-76040390D01*
X142933895Y-76040390D02*
X142981514Y-75849914D01*
X142981514Y-75849914D02*
X143029133Y-75754676D01*
X143029133Y-75754676D02*
X143124371Y-75659438D01*
X143124371Y-75659438D02*
X143267228Y-75611819D01*
X143267228Y-75611819D02*
X143362466Y-75611819D01*
X143362466Y-75611819D02*
X143505323Y-75659438D01*
X143505323Y-75659438D02*
X143552942Y-75707057D01*
X144505323Y-76611819D02*
X143933895Y-76611819D01*
X144219609Y-76611819D02*
X144219609Y-75611819D01*
X144219609Y-75611819D02*
X144124371Y-75754676D01*
X144124371Y-75754676D02*
X144029133Y-75849914D01*
X144029133Y-75849914D02*
X143933895Y-75897533D01*
X145362466Y-75611819D02*
X145171990Y-75611819D01*
X145171990Y-75611819D02*
X145076752Y-75659438D01*
X145076752Y-75659438D02*
X145029133Y-75707057D01*
X145029133Y-75707057D02*
X144933895Y-75849914D01*
X144933895Y-75849914D02*
X144886276Y-76040390D01*
X144886276Y-76040390D02*
X144886276Y-76421342D01*
X144886276Y-76421342D02*
X144933895Y-76516580D01*
X144933895Y-76516580D02*
X144981514Y-76564200D01*
X144981514Y-76564200D02*
X145076752Y-76611819D01*
X145076752Y-76611819D02*
X145267228Y-76611819D01*
X145267228Y-76611819D02*
X145362466Y-76564200D01*
X145362466Y-76564200D02*
X145410085Y-76516580D01*
X145410085Y-76516580D02*
X145457704Y-76421342D01*
X145457704Y-76421342D02*
X145457704Y-76183247D01*
X145457704Y-76183247D02*
X145410085Y-76088009D01*
X145410085Y-76088009D02*
X145362466Y-76040390D01*
X145362466Y-76040390D02*
X145267228Y-75992771D01*
X145267228Y-75992771D02*
X145076752Y-75992771D01*
X145076752Y-75992771D02*
X144981514Y-76040390D01*
X144981514Y-76040390D02*
X144933895Y-76088009D01*
X144933895Y-76088009D02*
X144886276Y-76183247D01*
X133792933Y-94772819D02*
X133459600Y-94296628D01*
X133221505Y-94772819D02*
X133221505Y-93772819D01*
X133221505Y-93772819D02*
X133602457Y-93772819D01*
X133602457Y-93772819D02*
X133697695Y-93820438D01*
X133697695Y-93820438D02*
X133745314Y-93868057D01*
X133745314Y-93868057D02*
X133792933Y-93963295D01*
X133792933Y-93963295D02*
X133792933Y-94106152D01*
X133792933Y-94106152D02*
X133745314Y-94201390D01*
X133745314Y-94201390D02*
X133697695Y-94249009D01*
X133697695Y-94249009D02*
X133602457Y-94296628D01*
X133602457Y-94296628D02*
X133221505Y-94296628D01*
X134650076Y-93772819D02*
X134459600Y-93772819D01*
X134459600Y-93772819D02*
X134364362Y-93820438D01*
X134364362Y-93820438D02*
X134316743Y-93868057D01*
X134316743Y-93868057D02*
X134221505Y-94010914D01*
X134221505Y-94010914D02*
X134173886Y-94201390D01*
X134173886Y-94201390D02*
X134173886Y-94582342D01*
X134173886Y-94582342D02*
X134221505Y-94677580D01*
X134221505Y-94677580D02*
X134269124Y-94725200D01*
X134269124Y-94725200D02*
X134364362Y-94772819D01*
X134364362Y-94772819D02*
X134554838Y-94772819D01*
X134554838Y-94772819D02*
X134650076Y-94725200D01*
X134650076Y-94725200D02*
X134697695Y-94677580D01*
X134697695Y-94677580D02*
X134745314Y-94582342D01*
X134745314Y-94582342D02*
X134745314Y-94344247D01*
X134745314Y-94344247D02*
X134697695Y-94249009D01*
X134697695Y-94249009D02*
X134650076Y-94201390D01*
X134650076Y-94201390D02*
X134554838Y-94153771D01*
X134554838Y-94153771D02*
X134364362Y-94153771D01*
X134364362Y-94153771D02*
X134269124Y-94201390D01*
X134269124Y-94201390D02*
X134221505Y-94249009D01*
X134221505Y-94249009D02*
X134173886Y-94344247D01*
X150664942Y-76465780D02*
X150617323Y-76513400D01*
X150617323Y-76513400D02*
X150474466Y-76561019D01*
X150474466Y-76561019D02*
X150379228Y-76561019D01*
X150379228Y-76561019D02*
X150236371Y-76513400D01*
X150236371Y-76513400D02*
X150141133Y-76418161D01*
X150141133Y-76418161D02*
X150093514Y-76322923D01*
X150093514Y-76322923D02*
X150045895Y-76132447D01*
X150045895Y-76132447D02*
X150045895Y-75989590D01*
X150045895Y-75989590D02*
X150093514Y-75799114D01*
X150093514Y-75799114D02*
X150141133Y-75703876D01*
X150141133Y-75703876D02*
X150236371Y-75608638D01*
X150236371Y-75608638D02*
X150379228Y-75561019D01*
X150379228Y-75561019D02*
X150474466Y-75561019D01*
X150474466Y-75561019D02*
X150617323Y-75608638D01*
X150617323Y-75608638D02*
X150664942Y-75656257D01*
X151045895Y-75656257D02*
X151093514Y-75608638D01*
X151093514Y-75608638D02*
X151188752Y-75561019D01*
X151188752Y-75561019D02*
X151426847Y-75561019D01*
X151426847Y-75561019D02*
X151522085Y-75608638D01*
X151522085Y-75608638D02*
X151569704Y-75656257D01*
X151569704Y-75656257D02*
X151617323Y-75751495D01*
X151617323Y-75751495D02*
X151617323Y-75846733D01*
X151617323Y-75846733D02*
X151569704Y-75989590D01*
X151569704Y-75989590D02*
X150998276Y-76561019D01*
X150998276Y-76561019D02*
X151617323Y-76561019D01*
X152569704Y-76561019D02*
X151998276Y-76561019D01*
X152283990Y-76561019D02*
X152283990Y-75561019D01*
X152283990Y-75561019D02*
X152188752Y-75703876D01*
X152188752Y-75703876D02*
X152093514Y-75799114D01*
X152093514Y-75799114D02*
X151998276Y-75846733D01*
X133742133Y-85431980D02*
X133694514Y-85479600D01*
X133694514Y-85479600D02*
X133551657Y-85527219D01*
X133551657Y-85527219D02*
X133456419Y-85527219D01*
X133456419Y-85527219D02*
X133313562Y-85479600D01*
X133313562Y-85479600D02*
X133218324Y-85384361D01*
X133218324Y-85384361D02*
X133170705Y-85289123D01*
X133170705Y-85289123D02*
X133123086Y-85098647D01*
X133123086Y-85098647D02*
X133123086Y-84955790D01*
X133123086Y-84955790D02*
X133170705Y-84765314D01*
X133170705Y-84765314D02*
X133218324Y-84670076D01*
X133218324Y-84670076D02*
X133313562Y-84574838D01*
X133313562Y-84574838D02*
X133456419Y-84527219D01*
X133456419Y-84527219D02*
X133551657Y-84527219D01*
X133551657Y-84527219D02*
X133694514Y-84574838D01*
X133694514Y-84574838D02*
X133742133Y-84622457D01*
X134646895Y-84527219D02*
X134170705Y-84527219D01*
X134170705Y-84527219D02*
X134123086Y-85003409D01*
X134123086Y-85003409D02*
X134170705Y-84955790D01*
X134170705Y-84955790D02*
X134265943Y-84908171D01*
X134265943Y-84908171D02*
X134504038Y-84908171D01*
X134504038Y-84908171D02*
X134599276Y-84955790D01*
X134599276Y-84955790D02*
X134646895Y-85003409D01*
X134646895Y-85003409D02*
X134694514Y-85098647D01*
X134694514Y-85098647D02*
X134694514Y-85336742D01*
X134694514Y-85336742D02*
X134646895Y-85431980D01*
X134646895Y-85431980D02*
X134599276Y-85479600D01*
X134599276Y-85479600D02*
X134504038Y-85527219D01*
X134504038Y-85527219D02*
X134265943Y-85527219D01*
X134265943Y-85527219D02*
X134170705Y-85479600D01*
X134170705Y-85479600D02*
X134123086Y-85431980D01*
X147159742Y-76567380D02*
X147112123Y-76615000D01*
X147112123Y-76615000D02*
X146969266Y-76662619D01*
X146969266Y-76662619D02*
X146874028Y-76662619D01*
X146874028Y-76662619D02*
X146731171Y-76615000D01*
X146731171Y-76615000D02*
X146635933Y-76519761D01*
X146635933Y-76519761D02*
X146588314Y-76424523D01*
X146588314Y-76424523D02*
X146540695Y-76234047D01*
X146540695Y-76234047D02*
X146540695Y-76091190D01*
X146540695Y-76091190D02*
X146588314Y-75900714D01*
X146588314Y-75900714D02*
X146635933Y-75805476D01*
X146635933Y-75805476D02*
X146731171Y-75710238D01*
X146731171Y-75710238D02*
X146874028Y-75662619D01*
X146874028Y-75662619D02*
X146969266Y-75662619D01*
X146969266Y-75662619D02*
X147112123Y-75710238D01*
X147112123Y-75710238D02*
X147159742Y-75757857D01*
X147540695Y-75757857D02*
X147588314Y-75710238D01*
X147588314Y-75710238D02*
X147683552Y-75662619D01*
X147683552Y-75662619D02*
X147921647Y-75662619D01*
X147921647Y-75662619D02*
X148016885Y-75710238D01*
X148016885Y-75710238D02*
X148064504Y-75757857D01*
X148064504Y-75757857D02*
X148112123Y-75853095D01*
X148112123Y-75853095D02*
X148112123Y-75948333D01*
X148112123Y-75948333D02*
X148064504Y-76091190D01*
X148064504Y-76091190D02*
X147493076Y-76662619D01*
X147493076Y-76662619D02*
X148112123Y-76662619D01*
X148731171Y-75662619D02*
X148826409Y-75662619D01*
X148826409Y-75662619D02*
X148921647Y-75710238D01*
X148921647Y-75710238D02*
X148969266Y-75757857D01*
X148969266Y-75757857D02*
X149016885Y-75853095D01*
X149016885Y-75853095D02*
X149064504Y-76043571D01*
X149064504Y-76043571D02*
X149064504Y-76281666D01*
X149064504Y-76281666D02*
X149016885Y-76472142D01*
X149016885Y-76472142D02*
X148969266Y-76567380D01*
X148969266Y-76567380D02*
X148921647Y-76615000D01*
X148921647Y-76615000D02*
X148826409Y-76662619D01*
X148826409Y-76662619D02*
X148731171Y-76662619D01*
X148731171Y-76662619D02*
X148635933Y-76615000D01*
X148635933Y-76615000D02*
X148588314Y-76567380D01*
X148588314Y-76567380D02*
X148540695Y-76472142D01*
X148540695Y-76472142D02*
X148493076Y-76281666D01*
X148493076Y-76281666D02*
X148493076Y-76043571D01*
X148493076Y-76043571D02*
X148540695Y-75853095D01*
X148540695Y-75853095D02*
X148588314Y-75757857D01*
X148588314Y-75757857D02*
X148635933Y-75710238D01*
X148635933Y-75710238D02*
X148731171Y-75662619D01*
X123608333Y-91547380D02*
X123560714Y-91595000D01*
X123560714Y-91595000D02*
X123417857Y-91642619D01*
X123417857Y-91642619D02*
X123322619Y-91642619D01*
X123322619Y-91642619D02*
X123179762Y-91595000D01*
X123179762Y-91595000D02*
X123084524Y-91499761D01*
X123084524Y-91499761D02*
X123036905Y-91404523D01*
X123036905Y-91404523D02*
X122989286Y-91214047D01*
X122989286Y-91214047D02*
X122989286Y-91071190D01*
X122989286Y-91071190D02*
X123036905Y-90880714D01*
X123036905Y-90880714D02*
X123084524Y-90785476D01*
X123084524Y-90785476D02*
X123179762Y-90690238D01*
X123179762Y-90690238D02*
X123322619Y-90642619D01*
X123322619Y-90642619D02*
X123417857Y-90642619D01*
X123417857Y-90642619D02*
X123560714Y-90690238D01*
X123560714Y-90690238D02*
X123608333Y-90737857D01*
X124560714Y-91642619D02*
X123989286Y-91642619D01*
X124275000Y-91642619D02*
X124275000Y-90642619D01*
X124275000Y-90642619D02*
X124179762Y-90785476D01*
X124179762Y-90785476D02*
X124084524Y-90880714D01*
X124084524Y-90880714D02*
X123989286Y-90928333D01*
X128687533Y-83399980D02*
X128639914Y-83447600D01*
X128639914Y-83447600D02*
X128497057Y-83495219D01*
X128497057Y-83495219D02*
X128401819Y-83495219D01*
X128401819Y-83495219D02*
X128258962Y-83447600D01*
X128258962Y-83447600D02*
X128163724Y-83352361D01*
X128163724Y-83352361D02*
X128116105Y-83257123D01*
X128116105Y-83257123D02*
X128068486Y-83066647D01*
X128068486Y-83066647D02*
X128068486Y-82923790D01*
X128068486Y-82923790D02*
X128116105Y-82733314D01*
X128116105Y-82733314D02*
X128163724Y-82638076D01*
X128163724Y-82638076D02*
X128258962Y-82542838D01*
X128258962Y-82542838D02*
X128401819Y-82495219D01*
X128401819Y-82495219D02*
X128497057Y-82495219D01*
X128497057Y-82495219D02*
X128639914Y-82542838D01*
X128639914Y-82542838D02*
X128687533Y-82590457D01*
X129544676Y-82828552D02*
X129544676Y-83495219D01*
X129306581Y-82447600D02*
X129068486Y-83161885D01*
X129068486Y-83161885D02*
X129687533Y-83161885D01*
X143654542Y-70979380D02*
X143606923Y-71027000D01*
X143606923Y-71027000D02*
X143464066Y-71074619D01*
X143464066Y-71074619D02*
X143368828Y-71074619D01*
X143368828Y-71074619D02*
X143225971Y-71027000D01*
X143225971Y-71027000D02*
X143130733Y-70931761D01*
X143130733Y-70931761D02*
X143083114Y-70836523D01*
X143083114Y-70836523D02*
X143035495Y-70646047D01*
X143035495Y-70646047D02*
X143035495Y-70503190D01*
X143035495Y-70503190D02*
X143083114Y-70312714D01*
X143083114Y-70312714D02*
X143130733Y-70217476D01*
X143130733Y-70217476D02*
X143225971Y-70122238D01*
X143225971Y-70122238D02*
X143368828Y-70074619D01*
X143368828Y-70074619D02*
X143464066Y-70074619D01*
X143464066Y-70074619D02*
X143606923Y-70122238D01*
X143606923Y-70122238D02*
X143654542Y-70169857D01*
X144606923Y-71074619D02*
X144035495Y-71074619D01*
X144321209Y-71074619D02*
X144321209Y-70074619D01*
X144321209Y-70074619D02*
X144225971Y-70217476D01*
X144225971Y-70217476D02*
X144130733Y-70312714D01*
X144130733Y-70312714D02*
X144035495Y-70360333D01*
X144940257Y-70074619D02*
X145606923Y-70074619D01*
X145606923Y-70074619D02*
X145178352Y-71074619D01*
X150741142Y-70971780D02*
X150693523Y-71019400D01*
X150693523Y-71019400D02*
X150550666Y-71067019D01*
X150550666Y-71067019D02*
X150455428Y-71067019D01*
X150455428Y-71067019D02*
X150312571Y-71019400D01*
X150312571Y-71019400D02*
X150217333Y-70924161D01*
X150217333Y-70924161D02*
X150169714Y-70828923D01*
X150169714Y-70828923D02*
X150122095Y-70638447D01*
X150122095Y-70638447D02*
X150122095Y-70495590D01*
X150122095Y-70495590D02*
X150169714Y-70305114D01*
X150169714Y-70305114D02*
X150217333Y-70209876D01*
X150217333Y-70209876D02*
X150312571Y-70114638D01*
X150312571Y-70114638D02*
X150455428Y-70067019D01*
X150455428Y-70067019D02*
X150550666Y-70067019D01*
X150550666Y-70067019D02*
X150693523Y-70114638D01*
X150693523Y-70114638D02*
X150741142Y-70162257D01*
X151122095Y-70162257D02*
X151169714Y-70114638D01*
X151169714Y-70114638D02*
X151264952Y-70067019D01*
X151264952Y-70067019D02*
X151503047Y-70067019D01*
X151503047Y-70067019D02*
X151598285Y-70114638D01*
X151598285Y-70114638D02*
X151645904Y-70162257D01*
X151645904Y-70162257D02*
X151693523Y-70257495D01*
X151693523Y-70257495D02*
X151693523Y-70352733D01*
X151693523Y-70352733D02*
X151645904Y-70495590D01*
X151645904Y-70495590D02*
X151074476Y-71067019D01*
X151074476Y-71067019D02*
X151693523Y-71067019D01*
X152074476Y-70162257D02*
X152122095Y-70114638D01*
X152122095Y-70114638D02*
X152217333Y-70067019D01*
X152217333Y-70067019D02*
X152455428Y-70067019D01*
X152455428Y-70067019D02*
X152550666Y-70114638D01*
X152550666Y-70114638D02*
X152598285Y-70162257D01*
X152598285Y-70162257D02*
X152645904Y-70257495D01*
X152645904Y-70257495D02*
X152645904Y-70352733D01*
X152645904Y-70352733D02*
X152598285Y-70495590D01*
X152598285Y-70495590D02*
X152026857Y-71067019D01*
X152026857Y-71067019D02*
X152645904Y-71067019D01*
X140123942Y-107021980D02*
X140076323Y-107069600D01*
X140076323Y-107069600D02*
X139933466Y-107117219D01*
X139933466Y-107117219D02*
X139838228Y-107117219D01*
X139838228Y-107117219D02*
X139695371Y-107069600D01*
X139695371Y-107069600D02*
X139600133Y-106974361D01*
X139600133Y-106974361D02*
X139552514Y-106879123D01*
X139552514Y-106879123D02*
X139504895Y-106688647D01*
X139504895Y-106688647D02*
X139504895Y-106545790D01*
X139504895Y-106545790D02*
X139552514Y-106355314D01*
X139552514Y-106355314D02*
X139600133Y-106260076D01*
X139600133Y-106260076D02*
X139695371Y-106164838D01*
X139695371Y-106164838D02*
X139838228Y-106117219D01*
X139838228Y-106117219D02*
X139933466Y-106117219D01*
X139933466Y-106117219D02*
X140076323Y-106164838D01*
X140076323Y-106164838D02*
X140123942Y-106212457D01*
X140504895Y-106212457D02*
X140552514Y-106164838D01*
X140552514Y-106164838D02*
X140647752Y-106117219D01*
X140647752Y-106117219D02*
X140885847Y-106117219D01*
X140885847Y-106117219D02*
X140981085Y-106164838D01*
X140981085Y-106164838D02*
X141028704Y-106212457D01*
X141028704Y-106212457D02*
X141076323Y-106307695D01*
X141076323Y-106307695D02*
X141076323Y-106402933D01*
X141076323Y-106402933D02*
X141028704Y-106545790D01*
X141028704Y-106545790D02*
X140457276Y-107117219D01*
X140457276Y-107117219D02*
X141076323Y-107117219D01*
X141409657Y-106117219D02*
X142076323Y-106117219D01*
X142076323Y-106117219D02*
X141647752Y-107117219D01*
X143256095Y-88616619D02*
X143256095Y-89426142D01*
X143256095Y-89426142D02*
X143303714Y-89521380D01*
X143303714Y-89521380D02*
X143351333Y-89569000D01*
X143351333Y-89569000D02*
X143446571Y-89616619D01*
X143446571Y-89616619D02*
X143637047Y-89616619D01*
X143637047Y-89616619D02*
X143732285Y-89569000D01*
X143732285Y-89569000D02*
X143779904Y-89521380D01*
X143779904Y-89521380D02*
X143827523Y-89426142D01*
X143827523Y-89426142D02*
X143827523Y-88616619D01*
X144208476Y-88616619D02*
X144827523Y-88616619D01*
X144827523Y-88616619D02*
X144494190Y-88997571D01*
X144494190Y-88997571D02*
X144637047Y-88997571D01*
X144637047Y-88997571D02*
X144732285Y-89045190D01*
X144732285Y-89045190D02*
X144779904Y-89092809D01*
X144779904Y-89092809D02*
X144827523Y-89188047D01*
X144827523Y-89188047D02*
X144827523Y-89426142D01*
X144827523Y-89426142D02*
X144779904Y-89521380D01*
X144779904Y-89521380D02*
X144732285Y-89569000D01*
X144732285Y-89569000D02*
X144637047Y-89616619D01*
X144637047Y-89616619D02*
X144351333Y-89616619D01*
X144351333Y-89616619D02*
X144256095Y-89569000D01*
X144256095Y-89569000D02*
X144208476Y-89521380D01*
X131252933Y-75881580D02*
X131205314Y-75929200D01*
X131205314Y-75929200D02*
X131062457Y-75976819D01*
X131062457Y-75976819D02*
X130967219Y-75976819D01*
X130967219Y-75976819D02*
X130824362Y-75929200D01*
X130824362Y-75929200D02*
X130729124Y-75833961D01*
X130729124Y-75833961D02*
X130681505Y-75738723D01*
X130681505Y-75738723D02*
X130633886Y-75548247D01*
X130633886Y-75548247D02*
X130633886Y-75405390D01*
X130633886Y-75405390D02*
X130681505Y-75214914D01*
X130681505Y-75214914D02*
X130729124Y-75119676D01*
X130729124Y-75119676D02*
X130824362Y-75024438D01*
X130824362Y-75024438D02*
X130967219Y-74976819D01*
X130967219Y-74976819D02*
X131062457Y-74976819D01*
X131062457Y-74976819D02*
X131205314Y-75024438D01*
X131205314Y-75024438D02*
X131252933Y-75072057D01*
X131586267Y-74976819D02*
X132205314Y-74976819D01*
X132205314Y-74976819D02*
X131871981Y-75357771D01*
X131871981Y-75357771D02*
X132014838Y-75357771D01*
X132014838Y-75357771D02*
X132110076Y-75405390D01*
X132110076Y-75405390D02*
X132157695Y-75453009D01*
X132157695Y-75453009D02*
X132205314Y-75548247D01*
X132205314Y-75548247D02*
X132205314Y-75786342D01*
X132205314Y-75786342D02*
X132157695Y-75881580D01*
X132157695Y-75881580D02*
X132110076Y-75929200D01*
X132110076Y-75929200D02*
X132014838Y-75976819D01*
X132014838Y-75976819D02*
X131729124Y-75976819D01*
X131729124Y-75976819D02*
X131633886Y-75929200D01*
X131633886Y-75929200D02*
X131586267Y-75881580D01*
X167171857Y-73287600D02*
X167314714Y-73335219D01*
X167314714Y-73335219D02*
X167552809Y-73335219D01*
X167552809Y-73335219D02*
X167648047Y-73287600D01*
X167648047Y-73287600D02*
X167695666Y-73239980D01*
X167695666Y-73239980D02*
X167743285Y-73144742D01*
X167743285Y-73144742D02*
X167743285Y-73049504D01*
X167743285Y-73049504D02*
X167695666Y-72954266D01*
X167695666Y-72954266D02*
X167648047Y-72906647D01*
X167648047Y-72906647D02*
X167552809Y-72859028D01*
X167552809Y-72859028D02*
X167362333Y-72811409D01*
X167362333Y-72811409D02*
X167267095Y-72763790D01*
X167267095Y-72763790D02*
X167219476Y-72716171D01*
X167219476Y-72716171D02*
X167171857Y-72620933D01*
X167171857Y-72620933D02*
X167171857Y-72525695D01*
X167171857Y-72525695D02*
X167219476Y-72430457D01*
X167219476Y-72430457D02*
X167267095Y-72382838D01*
X167267095Y-72382838D02*
X167362333Y-72335219D01*
X167362333Y-72335219D02*
X167600428Y-72335219D01*
X167600428Y-72335219D02*
X167743285Y-72382838D01*
X168076619Y-72335219D02*
X168314714Y-73335219D01*
X168314714Y-73335219D02*
X168505190Y-72620933D01*
X168505190Y-72620933D02*
X168695666Y-73335219D01*
X168695666Y-73335219D02*
X168933762Y-72335219D01*
X169314714Y-73335219D02*
X169314714Y-72335219D01*
X169314714Y-72335219D02*
X169552809Y-72335219D01*
X169552809Y-72335219D02*
X169695666Y-72382838D01*
X169695666Y-72382838D02*
X169790904Y-72478076D01*
X169790904Y-72478076D02*
X169838523Y-72573314D01*
X169838523Y-72573314D02*
X169886142Y-72763790D01*
X169886142Y-72763790D02*
X169886142Y-72906647D01*
X169886142Y-72906647D02*
X169838523Y-73097123D01*
X169838523Y-73097123D02*
X169790904Y-73192361D01*
X169790904Y-73192361D02*
X169695666Y-73287600D01*
X169695666Y-73287600D02*
X169552809Y-73335219D01*
X169552809Y-73335219D02*
X169314714Y-73335219D01*
X163466542Y-79964619D02*
X163133209Y-79488428D01*
X162895114Y-79964619D02*
X162895114Y-78964619D01*
X162895114Y-78964619D02*
X163276066Y-78964619D01*
X163276066Y-78964619D02*
X163371304Y-79012238D01*
X163371304Y-79012238D02*
X163418923Y-79059857D01*
X163418923Y-79059857D02*
X163466542Y-79155095D01*
X163466542Y-79155095D02*
X163466542Y-79297952D01*
X163466542Y-79297952D02*
X163418923Y-79393190D01*
X163418923Y-79393190D02*
X163371304Y-79440809D01*
X163371304Y-79440809D02*
X163276066Y-79488428D01*
X163276066Y-79488428D02*
X162895114Y-79488428D01*
X164418923Y-79964619D02*
X163847495Y-79964619D01*
X164133209Y-79964619D02*
X164133209Y-78964619D01*
X164133209Y-78964619D02*
X164037971Y-79107476D01*
X164037971Y-79107476D02*
X163942733Y-79202714D01*
X163942733Y-79202714D02*
X163847495Y-79250333D01*
X165371304Y-79964619D02*
X164799876Y-79964619D01*
X165085590Y-79964619D02*
X165085590Y-78964619D01*
X165085590Y-78964619D02*
X164990352Y-79107476D01*
X164990352Y-79107476D02*
X164895114Y-79202714D01*
X164895114Y-79202714D02*
X164799876Y-79250333D01*
X130725942Y-88727619D02*
X130392609Y-88251428D01*
X130154514Y-88727619D02*
X130154514Y-87727619D01*
X130154514Y-87727619D02*
X130535466Y-87727619D01*
X130535466Y-87727619D02*
X130630704Y-87775238D01*
X130630704Y-87775238D02*
X130678323Y-87822857D01*
X130678323Y-87822857D02*
X130725942Y-87918095D01*
X130725942Y-87918095D02*
X130725942Y-88060952D01*
X130725942Y-88060952D02*
X130678323Y-88156190D01*
X130678323Y-88156190D02*
X130630704Y-88203809D01*
X130630704Y-88203809D02*
X130535466Y-88251428D01*
X130535466Y-88251428D02*
X130154514Y-88251428D01*
X131678323Y-88727619D02*
X131106895Y-88727619D01*
X131392609Y-88727619D02*
X131392609Y-87727619D01*
X131392609Y-87727619D02*
X131297371Y-87870476D01*
X131297371Y-87870476D02*
X131202133Y-87965714D01*
X131202133Y-87965714D02*
X131106895Y-88013333D01*
X132249752Y-88156190D02*
X132154514Y-88108571D01*
X132154514Y-88108571D02*
X132106895Y-88060952D01*
X132106895Y-88060952D02*
X132059276Y-87965714D01*
X132059276Y-87965714D02*
X132059276Y-87918095D01*
X132059276Y-87918095D02*
X132106895Y-87822857D01*
X132106895Y-87822857D02*
X132154514Y-87775238D01*
X132154514Y-87775238D02*
X132249752Y-87727619D01*
X132249752Y-87727619D02*
X132440228Y-87727619D01*
X132440228Y-87727619D02*
X132535466Y-87775238D01*
X132535466Y-87775238D02*
X132583085Y-87822857D01*
X132583085Y-87822857D02*
X132630704Y-87918095D01*
X132630704Y-87918095D02*
X132630704Y-87965714D01*
X132630704Y-87965714D02*
X132583085Y-88060952D01*
X132583085Y-88060952D02*
X132535466Y-88108571D01*
X132535466Y-88108571D02*
X132440228Y-88156190D01*
X132440228Y-88156190D02*
X132249752Y-88156190D01*
X132249752Y-88156190D02*
X132154514Y-88203809D01*
X132154514Y-88203809D02*
X132106895Y-88251428D01*
X132106895Y-88251428D02*
X132059276Y-88346666D01*
X132059276Y-88346666D02*
X132059276Y-88537142D01*
X132059276Y-88537142D02*
X132106895Y-88632380D01*
X132106895Y-88632380D02*
X132154514Y-88680000D01*
X132154514Y-88680000D02*
X132249752Y-88727619D01*
X132249752Y-88727619D02*
X132440228Y-88727619D01*
X132440228Y-88727619D02*
X132535466Y-88680000D01*
X132535466Y-88680000D02*
X132583085Y-88632380D01*
X132583085Y-88632380D02*
X132630704Y-88537142D01*
X132630704Y-88537142D02*
X132630704Y-88346666D01*
X132630704Y-88346666D02*
X132583085Y-88251428D01*
X132583085Y-88251428D02*
X132535466Y-88203809D01*
X132535466Y-88203809D02*
X132440228Y-88156190D01*
X141451105Y-102875419D02*
X141451105Y-101875419D01*
X141451105Y-101875419D02*
X141689200Y-101875419D01*
X141689200Y-101875419D02*
X141832057Y-101923038D01*
X141832057Y-101923038D02*
X141927295Y-102018276D01*
X141927295Y-102018276D02*
X141974914Y-102113514D01*
X141974914Y-102113514D02*
X142022533Y-102303990D01*
X142022533Y-102303990D02*
X142022533Y-102446847D01*
X142022533Y-102446847D02*
X141974914Y-102637323D01*
X141974914Y-102637323D02*
X141927295Y-102732561D01*
X141927295Y-102732561D02*
X141832057Y-102827800D01*
X141832057Y-102827800D02*
X141689200Y-102875419D01*
X141689200Y-102875419D02*
X141451105Y-102875419D01*
X142403486Y-101970657D02*
X142451105Y-101923038D01*
X142451105Y-101923038D02*
X142546343Y-101875419D01*
X142546343Y-101875419D02*
X142784438Y-101875419D01*
X142784438Y-101875419D02*
X142879676Y-101923038D01*
X142879676Y-101923038D02*
X142927295Y-101970657D01*
X142927295Y-101970657D02*
X142974914Y-102065895D01*
X142974914Y-102065895D02*
X142974914Y-102161133D01*
X142974914Y-102161133D02*
X142927295Y-102303990D01*
X142927295Y-102303990D02*
X142355867Y-102875419D01*
X142355867Y-102875419D02*
X142974914Y-102875419D01*
X163568142Y-77678619D02*
X163234809Y-77202428D01*
X162996714Y-77678619D02*
X162996714Y-76678619D01*
X162996714Y-76678619D02*
X163377666Y-76678619D01*
X163377666Y-76678619D02*
X163472904Y-76726238D01*
X163472904Y-76726238D02*
X163520523Y-76773857D01*
X163520523Y-76773857D02*
X163568142Y-76869095D01*
X163568142Y-76869095D02*
X163568142Y-77011952D01*
X163568142Y-77011952D02*
X163520523Y-77107190D01*
X163520523Y-77107190D02*
X163472904Y-77154809D01*
X163472904Y-77154809D02*
X163377666Y-77202428D01*
X163377666Y-77202428D02*
X162996714Y-77202428D01*
X164520523Y-77678619D02*
X163949095Y-77678619D01*
X164234809Y-77678619D02*
X164234809Y-76678619D01*
X164234809Y-76678619D02*
X164139571Y-76821476D01*
X164139571Y-76821476D02*
X164044333Y-76916714D01*
X164044333Y-76916714D02*
X163949095Y-76964333D01*
X165139571Y-76678619D02*
X165234809Y-76678619D01*
X165234809Y-76678619D02*
X165330047Y-76726238D01*
X165330047Y-76726238D02*
X165377666Y-76773857D01*
X165377666Y-76773857D02*
X165425285Y-76869095D01*
X165425285Y-76869095D02*
X165472904Y-77059571D01*
X165472904Y-77059571D02*
X165472904Y-77297666D01*
X165472904Y-77297666D02*
X165425285Y-77488142D01*
X165425285Y-77488142D02*
X165377666Y-77583380D01*
X165377666Y-77583380D02*
X165330047Y-77631000D01*
X165330047Y-77631000D02*
X165234809Y-77678619D01*
X165234809Y-77678619D02*
X165139571Y-77678619D01*
X165139571Y-77678619D02*
X165044333Y-77631000D01*
X165044333Y-77631000D02*
X164996714Y-77583380D01*
X164996714Y-77583380D02*
X164949095Y-77488142D01*
X164949095Y-77488142D02*
X164901476Y-77297666D01*
X164901476Y-77297666D02*
X164901476Y-77059571D01*
X164901476Y-77059571D02*
X164949095Y-76869095D01*
X164949095Y-76869095D02*
X164996714Y-76773857D01*
X164996714Y-76773857D02*
X165044333Y-76726238D01*
X165044333Y-76726238D02*
X165139571Y-76678619D01*
X147082142Y-70987380D02*
X147034523Y-71035000D01*
X147034523Y-71035000D02*
X146891666Y-71082619D01*
X146891666Y-71082619D02*
X146796428Y-71082619D01*
X146796428Y-71082619D02*
X146653571Y-71035000D01*
X146653571Y-71035000D02*
X146558333Y-70939761D01*
X146558333Y-70939761D02*
X146510714Y-70844523D01*
X146510714Y-70844523D02*
X146463095Y-70654047D01*
X146463095Y-70654047D02*
X146463095Y-70511190D01*
X146463095Y-70511190D02*
X146510714Y-70320714D01*
X146510714Y-70320714D02*
X146558333Y-70225476D01*
X146558333Y-70225476D02*
X146653571Y-70130238D01*
X146653571Y-70130238D02*
X146796428Y-70082619D01*
X146796428Y-70082619D02*
X146891666Y-70082619D01*
X146891666Y-70082619D02*
X147034523Y-70130238D01*
X147034523Y-70130238D02*
X147082142Y-70177857D01*
X148034523Y-71082619D02*
X147463095Y-71082619D01*
X147748809Y-71082619D02*
X147748809Y-70082619D01*
X147748809Y-70082619D02*
X147653571Y-70225476D01*
X147653571Y-70225476D02*
X147558333Y-70320714D01*
X147558333Y-70320714D02*
X147463095Y-70368333D01*
X148510714Y-71082619D02*
X148701190Y-71082619D01*
X148701190Y-71082619D02*
X148796428Y-71035000D01*
X148796428Y-71035000D02*
X148844047Y-70987380D01*
X148844047Y-70987380D02*
X148939285Y-70844523D01*
X148939285Y-70844523D02*
X148986904Y-70654047D01*
X148986904Y-70654047D02*
X148986904Y-70273095D01*
X148986904Y-70273095D02*
X148939285Y-70177857D01*
X148939285Y-70177857D02*
X148891666Y-70130238D01*
X148891666Y-70130238D02*
X148796428Y-70082619D01*
X148796428Y-70082619D02*
X148605952Y-70082619D01*
X148605952Y-70082619D02*
X148510714Y-70130238D01*
X148510714Y-70130238D02*
X148463095Y-70177857D01*
X148463095Y-70177857D02*
X148415476Y-70273095D01*
X148415476Y-70273095D02*
X148415476Y-70511190D01*
X148415476Y-70511190D02*
X148463095Y-70606428D01*
X148463095Y-70606428D02*
X148510714Y-70654047D01*
X148510714Y-70654047D02*
X148605952Y-70701666D01*
X148605952Y-70701666D02*
X148796428Y-70701666D01*
X148796428Y-70701666D02*
X148891666Y-70654047D01*
X148891666Y-70654047D02*
X148939285Y-70606428D01*
X148939285Y-70606428D02*
X148986904Y-70511190D01*
X148321733Y-107402980D02*
X148274114Y-107450600D01*
X148274114Y-107450600D02*
X148131257Y-107498219D01*
X148131257Y-107498219D02*
X148036019Y-107498219D01*
X148036019Y-107498219D02*
X147893162Y-107450600D01*
X147893162Y-107450600D02*
X147797924Y-107355361D01*
X147797924Y-107355361D02*
X147750305Y-107260123D01*
X147750305Y-107260123D02*
X147702686Y-107069647D01*
X147702686Y-107069647D02*
X147702686Y-106926790D01*
X147702686Y-106926790D02*
X147750305Y-106736314D01*
X147750305Y-106736314D02*
X147797924Y-106641076D01*
X147797924Y-106641076D02*
X147893162Y-106545838D01*
X147893162Y-106545838D02*
X148036019Y-106498219D01*
X148036019Y-106498219D02*
X148131257Y-106498219D01*
X148131257Y-106498219D02*
X148274114Y-106545838D01*
X148274114Y-106545838D02*
X148321733Y-106593457D01*
X148893162Y-106926790D02*
X148797924Y-106879171D01*
X148797924Y-106879171D02*
X148750305Y-106831552D01*
X148750305Y-106831552D02*
X148702686Y-106736314D01*
X148702686Y-106736314D02*
X148702686Y-106688695D01*
X148702686Y-106688695D02*
X148750305Y-106593457D01*
X148750305Y-106593457D02*
X148797924Y-106545838D01*
X148797924Y-106545838D02*
X148893162Y-106498219D01*
X148893162Y-106498219D02*
X149083638Y-106498219D01*
X149083638Y-106498219D02*
X149178876Y-106545838D01*
X149178876Y-106545838D02*
X149226495Y-106593457D01*
X149226495Y-106593457D02*
X149274114Y-106688695D01*
X149274114Y-106688695D02*
X149274114Y-106736314D01*
X149274114Y-106736314D02*
X149226495Y-106831552D01*
X149226495Y-106831552D02*
X149178876Y-106879171D01*
X149178876Y-106879171D02*
X149083638Y-106926790D01*
X149083638Y-106926790D02*
X148893162Y-106926790D01*
X148893162Y-106926790D02*
X148797924Y-106974409D01*
X148797924Y-106974409D02*
X148750305Y-107022028D01*
X148750305Y-107022028D02*
X148702686Y-107117266D01*
X148702686Y-107117266D02*
X148702686Y-107307742D01*
X148702686Y-107307742D02*
X148750305Y-107402980D01*
X148750305Y-107402980D02*
X148797924Y-107450600D01*
X148797924Y-107450600D02*
X148893162Y-107498219D01*
X148893162Y-107498219D02*
X149083638Y-107498219D01*
X149083638Y-107498219D02*
X149178876Y-107450600D01*
X149178876Y-107450600D02*
X149226495Y-107402980D01*
X149226495Y-107402980D02*
X149274114Y-107307742D01*
X149274114Y-107307742D02*
X149274114Y-107117266D01*
X149274114Y-107117266D02*
X149226495Y-107022028D01*
X149226495Y-107022028D02*
X149178876Y-106974409D01*
X149178876Y-106974409D02*
X149083638Y-106926790D01*
X164866818Y-111333619D02*
X164533485Y-110857428D01*
X164295390Y-111333619D02*
X164295390Y-110333619D01*
X164295390Y-110333619D02*
X164676342Y-110333619D01*
X164676342Y-110333619D02*
X164771580Y-110381238D01*
X164771580Y-110381238D02*
X164819199Y-110428857D01*
X164819199Y-110428857D02*
X164866818Y-110524095D01*
X164866818Y-110524095D02*
X164866818Y-110666952D01*
X164866818Y-110666952D02*
X164819199Y-110762190D01*
X164819199Y-110762190D02*
X164771580Y-110809809D01*
X164771580Y-110809809D02*
X164676342Y-110857428D01*
X164676342Y-110857428D02*
X164295390Y-110857428D01*
X165295390Y-110809809D02*
X165628723Y-110809809D01*
X165771580Y-111333619D02*
X165295390Y-111333619D01*
X165295390Y-111333619D02*
X165295390Y-110333619D01*
X165295390Y-110333619D02*
X165771580Y-110333619D01*
X166152533Y-111286000D02*
X166295390Y-111333619D01*
X166295390Y-111333619D02*
X166533485Y-111333619D01*
X166533485Y-111333619D02*
X166628723Y-111286000D01*
X166628723Y-111286000D02*
X166676342Y-111238380D01*
X166676342Y-111238380D02*
X166723961Y-111143142D01*
X166723961Y-111143142D02*
X166723961Y-111047904D01*
X166723961Y-111047904D02*
X166676342Y-110952666D01*
X166676342Y-110952666D02*
X166628723Y-110905047D01*
X166628723Y-110905047D02*
X166533485Y-110857428D01*
X166533485Y-110857428D02*
X166343009Y-110809809D01*
X166343009Y-110809809D02*
X166247771Y-110762190D01*
X166247771Y-110762190D02*
X166200152Y-110714571D01*
X166200152Y-110714571D02*
X166152533Y-110619333D01*
X166152533Y-110619333D02*
X166152533Y-110524095D01*
X166152533Y-110524095D02*
X166200152Y-110428857D01*
X166200152Y-110428857D02*
X166247771Y-110381238D01*
X166247771Y-110381238D02*
X166343009Y-110333619D01*
X166343009Y-110333619D02*
X166581104Y-110333619D01*
X166581104Y-110333619D02*
X166723961Y-110381238D01*
X167152533Y-110809809D02*
X167485866Y-110809809D01*
X167628723Y-111333619D02*
X167152533Y-111333619D01*
X167152533Y-111333619D02*
X167152533Y-110333619D01*
X167152533Y-110333619D02*
X167628723Y-110333619D01*
X167914438Y-110333619D02*
X168485866Y-110333619D01*
X168200152Y-111333619D02*
X168200152Y-110333619D01*
X126803209Y-95541228D02*
X126803209Y-96017419D01*
X126469876Y-95017419D02*
X126803209Y-95541228D01*
X126803209Y-95541228D02*
X127136542Y-95017419D01*
X127993685Y-96017419D02*
X127422257Y-96017419D01*
X127707971Y-96017419D02*
X127707971Y-95017419D01*
X127707971Y-95017419D02*
X127612733Y-95160276D01*
X127612733Y-95160276D02*
X127517495Y-95255514D01*
X127517495Y-95255514D02*
X127422257Y-95303133D01*
X137888742Y-108260219D02*
X137555409Y-107784028D01*
X137317314Y-108260219D02*
X137317314Y-107260219D01*
X137317314Y-107260219D02*
X137698266Y-107260219D01*
X137698266Y-107260219D02*
X137793504Y-107307838D01*
X137793504Y-107307838D02*
X137841123Y-107355457D01*
X137841123Y-107355457D02*
X137888742Y-107450695D01*
X137888742Y-107450695D02*
X137888742Y-107593552D01*
X137888742Y-107593552D02*
X137841123Y-107688790D01*
X137841123Y-107688790D02*
X137793504Y-107736409D01*
X137793504Y-107736409D02*
X137698266Y-107784028D01*
X137698266Y-107784028D02*
X137317314Y-107784028D01*
X138269695Y-107355457D02*
X138317314Y-107307838D01*
X138317314Y-107307838D02*
X138412552Y-107260219D01*
X138412552Y-107260219D02*
X138650647Y-107260219D01*
X138650647Y-107260219D02*
X138745885Y-107307838D01*
X138745885Y-107307838D02*
X138793504Y-107355457D01*
X138793504Y-107355457D02*
X138841123Y-107450695D01*
X138841123Y-107450695D02*
X138841123Y-107545933D01*
X138841123Y-107545933D02*
X138793504Y-107688790D01*
X138793504Y-107688790D02*
X138222076Y-108260219D01*
X138222076Y-108260219D02*
X138841123Y-108260219D01*
X139698266Y-107593552D02*
X139698266Y-108260219D01*
X139460171Y-107212600D02*
X139222076Y-107926885D01*
X139222076Y-107926885D02*
X139841123Y-107926885D01*
D11*
X160976542Y-74131700D02*
X161451058Y-74131700D01*
X160976542Y-73086700D02*
X161451058Y-73086700D01*
D12*
X166076510Y-79711550D02*
G75*
G03*
X166076510Y-79711550I-127000J0D01*
G01*
D13*
X175434000Y-75607200D02*
X168934000Y-75607200D01*
X181196700Y-75608180D02*
X179434000Y-75607200D01*
X166684000Y-79507200D02*
X166684000Y-77269200D01*
X181184000Y-90406220D02*
X181196700Y-75608180D01*
X178934000Y-90407200D02*
X181184000Y-90406220D01*
X168934000Y-90407200D02*
X175434000Y-90407200D01*
D11*
X150116000Y-99935420D02*
X150116000Y-100216580D01*
X149096000Y-99935420D02*
X149096000Y-100216580D01*
X161476458Y-81214700D02*
X161001942Y-81214700D01*
X161476458Y-82259700D02*
X161001942Y-82259700D01*
X161515058Y-85786700D02*
X161040542Y-85786700D01*
X161515058Y-86831700D02*
X161040542Y-86831700D01*
X161527258Y-83551500D02*
X161052742Y-83551500D01*
X161527258Y-84596500D02*
X161052742Y-84596500D01*
X123940580Y-93960000D02*
X123659420Y-93960000D01*
X123940580Y-92940000D02*
X123659420Y-92940000D01*
X154900000Y-69282000D02*
X154900000Y-71942000D01*
X154900000Y-69282000D02*
X157500000Y-69282000D01*
X154900000Y-71942000D02*
X160100000Y-71942000D01*
X157500000Y-69282000D02*
X157500000Y-71882000D01*
X157500000Y-71882000D02*
X160100000Y-71882000D01*
X158770000Y-69282000D02*
X160100000Y-69282000D01*
X160100000Y-69282000D02*
X160100000Y-70612000D01*
X160100000Y-71882000D02*
X160100000Y-71942000D01*
X131107742Y-96677500D02*
X131582258Y-96677500D01*
X131107742Y-97722500D02*
X131582258Y-97722500D01*
X140684420Y-109190000D02*
X140965580Y-109190000D01*
X140684420Y-110210000D02*
X140965580Y-110210000D01*
X128052500Y-85472742D02*
X128052500Y-85947258D01*
X127007500Y-85472742D02*
X127007500Y-85947258D01*
X140792780Y-72595200D02*
X140511620Y-72595200D01*
X140792780Y-71575200D02*
X140511620Y-71575200D01*
X125425000Y-79235000D02*
X128875000Y-79235000D01*
X125425000Y-79235000D02*
X123475000Y-79235000D01*
X125425000Y-74115000D02*
X127375000Y-74115000D01*
X125425000Y-74115000D02*
X123475000Y-74115000D01*
X117770600Y-70298000D02*
X119100600Y-70298000D01*
X117770600Y-71628000D02*
X117770600Y-70298000D01*
X117770600Y-72898000D02*
X117770600Y-72958000D01*
X117770600Y-72898000D02*
X120430600Y-72898000D01*
X117770600Y-72958000D02*
X120430600Y-72958000D01*
X120430600Y-72898000D02*
X120430600Y-72958000D01*
X139088800Y-100648400D02*
X137618800Y-100648400D01*
X137618800Y-100648400D02*
X137618800Y-102933400D01*
X139088800Y-102933400D02*
X139088800Y-100648400D01*
X115008800Y-90378000D02*
X115008800Y-92248000D01*
X115008800Y-92248000D02*
X118918800Y-92248000D01*
X118918800Y-90378000D02*
X115008800Y-90378000D01*
X119583400Y-88884000D02*
X119583400Y-86884000D01*
X119583400Y-88884000D02*
X115723400Y-88884000D01*
X119583400Y-86884000D02*
X115723400Y-86884000D01*
X131087742Y-78777500D02*
X131562258Y-78777500D01*
X131087742Y-79822500D02*
X131562258Y-79822500D01*
X148096500Y-99838742D02*
X148096500Y-100313258D01*
X147051500Y-99838742D02*
X147051500Y-100313258D01*
X134609420Y-78740000D02*
X134890580Y-78740000D01*
X134609420Y-79760000D02*
X134890580Y-79760000D01*
X131465580Y-92260000D02*
X131184420Y-92260000D01*
X131465580Y-91240000D02*
X131184420Y-91240000D01*
X110157400Y-103103400D02*
X110157400Y-104973400D01*
X110157400Y-104973400D02*
X114067400Y-104973400D01*
X114067400Y-103103400D02*
X110157400Y-103103400D01*
X153896600Y-83681180D02*
X153896600Y-83400020D01*
X154916600Y-83681180D02*
X154916600Y-83400020D01*
X131596200Y-100577222D02*
X131596200Y-99777978D01*
X132716200Y-100577222D02*
X132716200Y-99777978D01*
X114140000Y-96949622D02*
X114140000Y-96150378D01*
X115260000Y-96949622D02*
X115260000Y-96150378D01*
X117858400Y-106774800D02*
X117858400Y-104174800D01*
X117858400Y-109674800D02*
X117858400Y-111334800D01*
X117858400Y-111334800D02*
X125778400Y-111334800D01*
X118618400Y-101864800D02*
X119768400Y-101864800D01*
X119768400Y-101274800D02*
X120468400Y-101274800D01*
X119768400Y-101864800D02*
X119768400Y-101274800D01*
X123868400Y-101864800D02*
X125018400Y-101864800D01*
X125778400Y-104174800D02*
X125778400Y-106774800D01*
X125778400Y-111334800D02*
X125778400Y-109674800D01*
X135075200Y-74918180D02*
X135075200Y-74637020D01*
X136095200Y-74918180D02*
X136095200Y-74637020D01*
X143147500Y-105830000D02*
X143147500Y-105655000D01*
X143822500Y-103110000D02*
X143147500Y-103110000D01*
X143822500Y-105830000D02*
X143147500Y-105830000D01*
X145692500Y-103110000D02*
X146367500Y-103110000D01*
X145692500Y-105830000D02*
X146367500Y-105830000D01*
X146367500Y-103110000D02*
X146367500Y-103285000D01*
X146367500Y-105830000D02*
X146367500Y-105655000D01*
X172890000Y-92280000D02*
X172890000Y-106200000D01*
X172890000Y-106200000D02*
X180850000Y-106200000D01*
X180850000Y-92280000D02*
X172890000Y-92280000D01*
X180850000Y-106200000D02*
X180850000Y-92370000D01*
X118338020Y-97110000D02*
X118619180Y-97110000D01*
X118338020Y-98130000D02*
X118619180Y-98130000D01*
X145650420Y-109178000D02*
X145931580Y-109178000D01*
X145650420Y-110198000D02*
X145931580Y-110198000D01*
X131712258Y-87472500D02*
X131237742Y-87472500D01*
X131712258Y-86427500D02*
X131237742Y-86427500D01*
X126340000Y-71440580D02*
X126340000Y-71159420D01*
X127360000Y-71440580D02*
X127360000Y-71159420D01*
X143997500Y-100497258D02*
X143997500Y-100022742D01*
X145042500Y-100497258D02*
X145042500Y-100022742D01*
X110086800Y-99965000D02*
X110086800Y-101965000D01*
X110086800Y-99965000D02*
X114096800Y-99965000D01*
X110086800Y-101965000D02*
X114096800Y-101965000D01*
X120260800Y-74428600D02*
X120260800Y-80438600D01*
X113440800Y-76678600D02*
X113440800Y-80438600D01*
X120260800Y-80438600D02*
X119000800Y-80438600D01*
X113440800Y-80438600D02*
X114700800Y-80438600D01*
X135042600Y-98467200D02*
X135737600Y-98467200D01*
X135042600Y-99152200D02*
X135042600Y-98467200D01*
X135042600Y-99837200D02*
X135042600Y-100712200D01*
X135042600Y-99837200D02*
X135129324Y-99837200D01*
X135042600Y-100712200D02*
X135343107Y-100712200D01*
X136132093Y-100712200D02*
X136432600Y-100712200D01*
X136345876Y-99837200D02*
X136432600Y-99837200D01*
X136432600Y-99837200D02*
X136432600Y-100712200D01*
X141136900Y-74489542D02*
X141136900Y-74964058D01*
X140091900Y-74489542D02*
X140091900Y-74964058D01*
X118338020Y-94910000D02*
X118619180Y-94910000D01*
X118338020Y-95930000D02*
X118619180Y-95930000D01*
X158800000Y-92150000D02*
X158800000Y-110150000D01*
X158800000Y-110150000D02*
X171800000Y-110150000D01*
X171800000Y-92150000D02*
X158800000Y-92150000D01*
X171800000Y-110150000D02*
X171800000Y-92150000D01*
X137501100Y-74989458D02*
X137501100Y-74514942D01*
X138546100Y-74989458D02*
X138546100Y-74514942D01*
X121758400Y-70348800D02*
X123088400Y-70348800D01*
X121758400Y-71678800D02*
X121758400Y-70348800D01*
X121758400Y-72948800D02*
X121758400Y-73008800D01*
X121758400Y-72948800D02*
X124418400Y-72948800D01*
X121758400Y-73008800D02*
X124418400Y-73008800D01*
X124418400Y-72948800D02*
X124418400Y-73008800D01*
X135172500Y-71012742D02*
X135172500Y-71487258D01*
X134127500Y-71012742D02*
X134127500Y-71487258D01*
X181261200Y-68488000D02*
X109261200Y-68488000D01*
X181241200Y-111688000D02*
X181261200Y-68488000D01*
X109261200Y-68488000D02*
X110261200Y-68488000D01*
X109261200Y-68488000D02*
X109241200Y-111688000D01*
X109241200Y-111688000D02*
X181241200Y-111688000D01*
X124314600Y-98229400D02*
X124314600Y-100449400D01*
X124314600Y-100449400D02*
X128724600Y-100449400D01*
X128724600Y-98229400D02*
X124314600Y-98229400D01*
X129041000Y-110644800D02*
X133341000Y-110644800D01*
X129041000Y-110644800D02*
X129041000Y-104834800D01*
X133341000Y-110644800D02*
X133341000Y-104834800D01*
X161515058Y-89066900D02*
X161040542Y-89066900D01*
X161515058Y-88021900D02*
X161040542Y-88021900D01*
X151369500Y-100313258D02*
X151369500Y-99838742D01*
X152414500Y-100313258D02*
X152414500Y-99838742D01*
X111768658Y-78449700D02*
X111294142Y-78449700D01*
X111768658Y-77404700D02*
X111294142Y-77404700D01*
X132260000Y-71100000D02*
X132260000Y-69425000D01*
X132260000Y-71100000D02*
X132260000Y-71750000D01*
X129140000Y-71100000D02*
X129140000Y-70450000D01*
X129140000Y-71100000D02*
X129140000Y-71750000D01*
X144084420Y-73940000D02*
X144365580Y-73940000D01*
X144084420Y-74960000D02*
X144365580Y-74960000D01*
X131587258Y-94822500D02*
X131112742Y-94822500D01*
X131587258Y-93777500D02*
X131112742Y-93777500D01*
X151184420Y-73990000D02*
X151465580Y-73990000D01*
X151184420Y-75010000D02*
X151465580Y-75010000D01*
X131565580Y-85460000D02*
X131284420Y-85460000D01*
X131565580Y-84440000D02*
X131284420Y-84440000D01*
X147659420Y-73940000D02*
X147940580Y-73940000D01*
X147659420Y-74960000D02*
X147940580Y-74960000D01*
X123915580Y-90260000D02*
X123634420Y-90260000D01*
X123915580Y-89240000D02*
X123634420Y-89240000D01*
X131615580Y-83510000D02*
X131334420Y-83510000D01*
X131615580Y-82490000D02*
X131334420Y-82490000D01*
X144067620Y-71549800D02*
X144348780Y-71549800D01*
X144067620Y-72569800D02*
X144348780Y-72569800D01*
X151243420Y-71524400D02*
X151524580Y-71524400D01*
X151243420Y-72544400D02*
X151524580Y-72544400D01*
X140260000Y-104630580D02*
X140260000Y-104349420D01*
X141280000Y-104630580D02*
X141280000Y-104349420D01*
X136990000Y-82115000D02*
X136990000Y-82815000D01*
X136990000Y-82815000D02*
X135625000Y-82815000D01*
X136990000Y-96335000D02*
X136990000Y-95635000D01*
X137690000Y-82115000D02*
X136990000Y-82115000D01*
X137690000Y-96335000D02*
X136990000Y-96335000D01*
X150510000Y-82115000D02*
X151210000Y-82115000D01*
X150510000Y-96335000D02*
X151210000Y-96335000D01*
X151210000Y-82115000D02*
X151210000Y-82815000D01*
X151210000Y-96335000D02*
X151210000Y-95635000D01*
X131515580Y-77560000D02*
X131234420Y-77560000D01*
X131515580Y-76540000D02*
X131234420Y-76540000D01*
X164622000Y-72120200D02*
X174842000Y-72120200D01*
X164622000Y-72120200D02*
X164622000Y-69460200D01*
X174842000Y-72120200D02*
X174842000Y-69460200D01*
X162022000Y-70790200D02*
X162022000Y-69460200D01*
X162022000Y-69460200D02*
X163352000Y-69460200D01*
X164622000Y-69460200D02*
X174842000Y-69460200D01*
X161450058Y-78928700D02*
X160975542Y-78928700D01*
X161450058Y-79973700D02*
X160975542Y-79973700D01*
X131112742Y-89027500D02*
X131587258Y-89027500D01*
X131112742Y-90072500D02*
X131587258Y-90072500D01*
X142845000Y-98725000D02*
X141375000Y-98725000D01*
X141375000Y-98725000D02*
X141375000Y-101010000D01*
X142845000Y-101010000D02*
X142845000Y-98725000D01*
X161463258Y-76668100D02*
X160988742Y-76668100D01*
X161463258Y-77713100D02*
X160988742Y-77713100D01*
X147584420Y-71540000D02*
X147865580Y-71540000D01*
X147584420Y-72560000D02*
X147865580Y-72560000D01*
X133925000Y-107552800D02*
X136585000Y-107552800D01*
X133925000Y-107552800D02*
X133925000Y-104952800D01*
X136585000Y-107552800D02*
X136585000Y-102352800D01*
X133925000Y-104952800D02*
X136525000Y-104952800D01*
X136525000Y-104952800D02*
X136525000Y-102352800D01*
X133925000Y-103682800D02*
X133925000Y-102352800D01*
X133925000Y-102352800D02*
X135255000Y-102352800D01*
X136525000Y-102352800D02*
X136585000Y-102352800D01*
X145936580Y-107698000D02*
X145655420Y-107698000D01*
X145936580Y-106678000D02*
X145655420Y-106678000D01*
D14*
X167651600Y-103730900D02*
X165291600Y-103730900D01*
X169021600Y-108530900D02*
X169021600Y-104030900D01*
X163921600Y-108530900D02*
X163921600Y-104030900D01*
X165291600Y-108830900D02*
X167651600Y-108830900D01*
D15*
X168446600Y-102030900D02*
G75*
G03*
X168446600Y-102030900I-100000J0D01*
G01*
D11*
X129025000Y-88550000D02*
X125425000Y-88550000D01*
X125425000Y-88550000D02*
X125425000Y-94300000D01*
X129025000Y-94300000D02*
X129025000Y-88550000D01*
X138901700Y-105236742D02*
X138901700Y-105711258D01*
X137856700Y-105236742D02*
X137856700Y-105711258D01*
M02*
