G04 #@! TF.GenerationSoftware,KiCad,Pcbnew,7.0.1*
G04 #@! TF.CreationDate,2024-03-04T12:41:05+01:00*
G04 #@! TF.ProjectId,licznik,6c69637a-6e69-46b2-9e6b-696361645f70,rev?*
G04 #@! TF.SameCoordinates,Original*
G04 #@! TF.FileFunction,Paste,Top*
G04 #@! TF.FilePolarity,Positive*
%FSLAX46Y46*%
G04 Gerber Fmt 4.6, Leading zero omitted, Abs format (unit mm)*
G04 Created by KiCad (PCBNEW 7.0.1) date 2024-03-04 12:41:05*
%MOMM*%
%LPD*%
G01*
G04 APERTURE LIST*
G04 Aperture macros list*
%AMRoundRect*
0 Rectangle with rounded corners*
0 $1 Rounding radius*
0 $2 $3 $4 $5 $6 $7 $8 $9 X,Y pos of 4 corners*
0 Add a 4 corners polygon primitive as box body*
4,1,4,$2,$3,$4,$5,$6,$7,$8,$9,$2,$3,0*
0 Add four circle primitives for the rounded corners*
1,1,$1+$1,$2,$3*
1,1,$1+$1,$4,$5*
1,1,$1+$1,$6,$7*
1,1,$1+$1,$8,$9*
0 Add four rect primitives between the rounded corners*
20,1,$1+$1,$2,$3,$4,$5,0*
20,1,$1+$1,$4,$5,$6,$7,0*
20,1,$1+$1,$6,$7,$8,$9,0*
20,1,$1+$1,$8,$9,$2,$3,0*%
G04 Aperture macros list end*
%ADD10C,0.100000*%
%ADD11RoundRect,0.200000X-0.200000X-0.275000X0.200000X-0.275000X0.200000X0.275000X-0.200000X0.275000X0*%
%ADD12R,1.651000X1.854200*%
%ADD13R,2.438400X1.447800*%
%ADD14R,1.651000X1.447800*%
%ADD15R,1.300000X0.700000*%
%ADD16RoundRect,0.225000X-0.250000X0.225000X-0.250000X-0.225000X0.250000X-0.225000X0.250000X0.225000X0*%
%ADD17RoundRect,0.200000X0.200000X0.275000X-0.200000X0.275000X-0.200000X-0.275000X0.200000X-0.275000X0*%
%ADD18RoundRect,0.225000X0.225000X0.250000X-0.225000X0.250000X-0.225000X-0.250000X0.225000X-0.250000X0*%
%ADD19RoundRect,0.225000X-0.225000X-0.250000X0.225000X-0.250000X0.225000X0.250000X-0.225000X0.250000X0*%
%ADD20RoundRect,0.200000X-0.275000X0.200000X-0.275000X-0.200000X0.275000X-0.200000X0.275000X0.200000X0*%
%ADD21RoundRect,0.232500X0.232500X0.232500X-0.232500X0.232500X-0.232500X-0.232500X0.232500X-0.232500X0*%
%ADD22RoundRect,0.150000X0.825000X0.150000X-0.825000X0.150000X-0.825000X-0.150000X0.825000X-0.150000X0*%
%ADD23RoundRect,0.218750X-0.256250X0.218750X-0.256250X-0.218750X0.256250X-0.218750X0.256250X0.218750X0*%
%ADD24RoundRect,0.250000X-0.450000X-0.425000X0.450000X-0.425000X0.450000X0.425000X-0.450000X0.425000X0*%
%ADD25RoundRect,0.250000X0.300000X0.300000X-0.300000X0.300000X-0.300000X-0.300000X0.300000X-0.300000X0*%
%ADD26RoundRect,0.225000X0.250000X-0.225000X0.250000X0.225000X-0.250000X0.225000X-0.250000X-0.225000X0*%
%ADD27RoundRect,0.218750X0.381250X-0.218750X0.381250X0.218750X-0.381250X0.218750X-0.381250X-0.218750X0*%
%ADD28R,0.500000X2.500000*%
%ADD29R,2.000000X2.500000*%
%ADD30RoundRect,0.087500X-0.225000X-0.087500X0.225000X-0.087500X0.225000X0.087500X-0.225000X0.087500X0*%
%ADD31RoundRect,0.087500X-0.087500X-0.225000X0.087500X-0.225000X0.087500X0.225000X-0.087500X0.225000X0*%
%ADD32RoundRect,0.200000X0.275000X-0.200000X0.275000X0.200000X-0.275000X0.200000X-0.275000X-0.200000X0*%
%ADD33RoundRect,0.225000X-0.225000X-0.375000X0.225000X-0.375000X0.225000X0.375000X-0.225000X0.375000X0*%
%ADD34R,1.500000X2.000000*%
%ADD35R,3.800000X2.000000*%
%ADD36RoundRect,0.250000X-0.400000X-0.600000X0.400000X-0.600000X0.400000X0.600000X-0.400000X0.600000X0*%
%ADD37RoundRect,0.250000X0.900000X-1.000000X0.900000X1.000000X-0.900000X1.000000X-0.900000X-1.000000X0*%
%ADD38RoundRect,0.150000X-0.150000X0.587500X-0.150000X-0.587500X0.150000X-0.587500X0.150000X0.587500X0*%
%ADD39RoundRect,0.075000X-0.725000X-0.075000X0.725000X-0.075000X0.725000X0.075000X-0.725000X0.075000X0*%
%ADD40RoundRect,0.075000X-0.075000X-0.725000X0.075000X-0.725000X0.075000X0.725000X-0.075000X0.725000X0*%
%ADD41R,0.750000X1.000000*%
%ADD42R,2.400000X2.000000*%
G04 APERTURE END LIST*
D10*
X150950000Y-101550000D02*
X151500000Y-101410000D01*
D11*
X162038800Y-73609200D03*
X160388800Y-73609200D03*
D12*
X167534000Y-75946000D03*
D13*
X177234000Y-75171000D03*
X177234000Y-90995800D03*
D14*
X167534000Y-90995800D03*
D15*
X166760200Y-89577400D03*
X166760200Y-88477400D03*
X166760200Y-87377400D03*
X166760200Y-86277400D03*
X166760200Y-85177400D03*
X166760200Y-84077400D03*
X166760200Y-82977400D03*
X166760200Y-81877400D03*
X166760200Y-80777400D03*
D16*
X149606000Y-99301000D03*
X149606000Y-100851000D03*
D17*
X160414200Y-81737200D03*
X162064200Y-81737200D03*
X160452800Y-86309200D03*
X162102800Y-86309200D03*
X160465000Y-84074000D03*
X162115000Y-84074000D03*
D18*
X124575000Y-93450000D03*
X123025000Y-93450000D03*
D11*
X130520000Y-97200000D03*
X132170000Y-97200000D03*
D19*
X140050000Y-109700000D03*
X141600000Y-109700000D03*
D20*
X127530000Y-84885000D03*
X127530000Y-86535000D03*
D18*
X141427200Y-72085200D03*
X139877200Y-72085200D03*
D21*
X126000000Y-77250000D03*
X126000000Y-76100000D03*
X124850000Y-77250000D03*
X124850000Y-76100000D03*
D22*
X127900000Y-78580000D03*
X127900000Y-77310000D03*
X127900000Y-76040000D03*
X127900000Y-74770000D03*
X122950000Y-74770000D03*
X122950000Y-76040000D03*
X122950000Y-77310000D03*
X122950000Y-78580000D03*
D23*
X138353800Y-101345900D03*
X138353800Y-102920900D03*
D24*
X115968800Y-91313000D03*
X118668800Y-91313000D03*
D25*
X118773400Y-87884000D03*
X115973400Y-87884000D03*
D11*
X130500000Y-79300000D03*
X132150000Y-79300000D03*
D20*
X147574000Y-99251000D03*
X147574000Y-100901000D03*
D19*
X133975000Y-79250000D03*
X135525000Y-79250000D03*
D18*
X132100000Y-91750000D03*
X130550000Y-91750000D03*
D24*
X111117400Y-104038400D03*
X113817400Y-104038400D03*
D26*
X154406600Y-84315600D03*
X154406600Y-82765600D03*
D27*
X132156200Y-101240100D03*
X132156200Y-99115100D03*
X114700000Y-97612500D03*
X114700000Y-95487500D03*
D28*
X120218400Y-102724800D03*
X121018400Y-102724800D03*
X121818400Y-102724800D03*
X122618400Y-102724800D03*
X123418400Y-102724800D03*
D29*
X117418400Y-102724800D03*
X117418400Y-108224800D03*
X126218400Y-102724800D03*
X126218400Y-108224800D03*
D26*
X135585200Y-75552600D03*
X135585200Y-74002600D03*
D30*
X143595000Y-103720000D03*
X143595000Y-104220000D03*
X143595000Y-104720000D03*
X143595000Y-105220000D03*
D31*
X144257500Y-105382500D03*
X144757500Y-105382500D03*
X145257500Y-105382500D03*
D30*
X145920000Y-105220000D03*
X145920000Y-104720000D03*
X145920000Y-104220000D03*
X145920000Y-103720000D03*
D31*
X145257500Y-103557500D03*
X144757500Y-103557500D03*
X144257500Y-103557500D03*
D19*
X117703600Y-97620000D03*
X119253600Y-97620000D03*
X145016000Y-109688000D03*
X146566000Y-109688000D03*
D17*
X132300000Y-86950000D03*
X130650000Y-86950000D03*
D26*
X126850000Y-72075000D03*
X126850000Y-70525000D03*
D32*
X144520000Y-101085000D03*
X144520000Y-99435000D03*
D33*
X110796800Y-100965000D03*
X114096800Y-100965000D03*
D34*
X119150800Y-75378600D03*
X116850800Y-75378600D03*
D35*
X116850800Y-81678600D03*
D34*
X114550800Y-75378600D03*
D20*
X140614400Y-73901800D03*
X140614400Y-75551800D03*
D19*
X117703600Y-95420000D03*
X119253600Y-95420000D03*
D32*
X138023600Y-75577200D03*
X138023600Y-73927200D03*
D20*
X134650000Y-70425000D03*
X134650000Y-72075000D03*
D36*
X125224600Y-99339400D03*
X128724600Y-99339400D03*
D37*
X131191000Y-109134800D03*
X131191000Y-104834800D03*
D17*
X162102800Y-88544400D03*
X160452800Y-88544400D03*
D32*
X151892000Y-100901000D03*
X151892000Y-99251000D03*
D17*
X112356400Y-77927200D03*
X110706400Y-77927200D03*
D38*
X131650000Y-70162500D03*
X129750000Y-70162500D03*
X130700000Y-72037500D03*
D19*
X143450000Y-74450000D03*
X145000000Y-74450000D03*
D17*
X132175000Y-94300000D03*
X130525000Y-94300000D03*
D19*
X150550000Y-74500000D03*
X152100000Y-74500000D03*
D18*
X132200000Y-84950000D03*
X130650000Y-84950000D03*
D19*
X147025000Y-74450000D03*
X148575000Y-74450000D03*
D18*
X124550000Y-89750000D03*
X123000000Y-89750000D03*
X132250000Y-83000000D03*
X130700000Y-83000000D03*
D19*
X143433200Y-72059800D03*
X144983200Y-72059800D03*
X150609000Y-72034400D03*
X152159000Y-72034400D03*
D26*
X140770000Y-105265000D03*
X140770000Y-103715000D03*
D39*
X136425000Y-83225000D03*
X136425000Y-83725000D03*
X136425000Y-84225000D03*
X136425000Y-84725000D03*
X136425000Y-85225000D03*
X136425000Y-85725000D03*
X136425000Y-86225000D03*
X136425000Y-86725000D03*
X136425000Y-87225000D03*
X136425000Y-87725000D03*
X136425000Y-88225000D03*
X136425000Y-88725000D03*
X136425000Y-89225000D03*
X136425000Y-89725000D03*
X136425000Y-90225000D03*
X136425000Y-90725000D03*
X136425000Y-91225000D03*
X136425000Y-91725000D03*
X136425000Y-92225000D03*
X136425000Y-92725000D03*
X136425000Y-93225000D03*
X136425000Y-93725000D03*
X136425000Y-94225000D03*
X136425000Y-94725000D03*
X136425000Y-95225000D03*
D40*
X138100000Y-96900000D03*
X138600000Y-96900000D03*
X139100000Y-96900000D03*
X139600000Y-96900000D03*
X140100000Y-96900000D03*
X140600000Y-96900000D03*
X141100000Y-96900000D03*
X141600000Y-96900000D03*
X142100000Y-96900000D03*
X142600000Y-96900000D03*
X143100000Y-96900000D03*
X143600000Y-96900000D03*
X144100000Y-96900000D03*
X144600000Y-96900000D03*
X145100000Y-96900000D03*
X145600000Y-96900000D03*
X146100000Y-96900000D03*
X146600000Y-96900000D03*
X147100000Y-96900000D03*
X147600000Y-96900000D03*
X148100000Y-96900000D03*
X148600000Y-96900000D03*
X149100000Y-96900000D03*
X149600000Y-96900000D03*
X150100000Y-96900000D03*
D39*
X151775000Y-95225000D03*
X151775000Y-94725000D03*
X151775000Y-94225000D03*
X151775000Y-93725000D03*
X151775000Y-93225000D03*
X151775000Y-92725000D03*
X151775000Y-92225000D03*
X151775000Y-91725000D03*
X151775000Y-91225000D03*
X151775000Y-90725000D03*
X151775000Y-90225000D03*
X151775000Y-89725000D03*
X151775000Y-89225000D03*
X151775000Y-88725000D03*
X151775000Y-88225000D03*
X151775000Y-87725000D03*
X151775000Y-87225000D03*
X151775000Y-86725000D03*
X151775000Y-86225000D03*
X151775000Y-85725000D03*
X151775000Y-85225000D03*
X151775000Y-84725000D03*
X151775000Y-84225000D03*
X151775000Y-83725000D03*
X151775000Y-83225000D03*
D40*
X150100000Y-81550000D03*
X149600000Y-81550000D03*
X149100000Y-81550000D03*
X148600000Y-81550000D03*
X148100000Y-81550000D03*
X147600000Y-81550000D03*
X147100000Y-81550000D03*
X146600000Y-81550000D03*
X146100000Y-81550000D03*
X145600000Y-81550000D03*
X145100000Y-81550000D03*
X144600000Y-81550000D03*
X144100000Y-81550000D03*
X143600000Y-81550000D03*
X143100000Y-81550000D03*
X142600000Y-81550000D03*
X142100000Y-81550000D03*
X141600000Y-81550000D03*
X141100000Y-81550000D03*
X140600000Y-81550000D03*
X140100000Y-81550000D03*
X139600000Y-81550000D03*
X139100000Y-81550000D03*
X138600000Y-81550000D03*
X138100000Y-81550000D03*
D18*
X132150000Y-77050000D03*
X130600000Y-77050000D03*
D17*
X160387800Y-79451200D03*
X162037800Y-79451200D03*
D11*
X130525000Y-89550000D03*
X132175000Y-89550000D03*
D23*
X142110000Y-99422500D03*
X142110000Y-100997500D03*
D17*
X160401000Y-77190600D03*
X162051000Y-77190600D03*
D19*
X146950000Y-72050000D03*
X148500000Y-72050000D03*
D18*
X146571000Y-107188000D03*
X145021000Y-107188000D03*
D41*
X168346600Y-103280900D03*
X168346600Y-109280900D03*
X164596600Y-103280900D03*
X164596600Y-109280900D03*
D42*
X127225000Y-89750000D03*
X127225000Y-93450000D03*
D20*
X138379200Y-104649000D03*
X138379200Y-106299000D03*
M02*
