G04 #@! TF.GenerationSoftware,KiCad,Pcbnew,7.0.1*
G04 #@! TF.CreationDate,2024-03-04T12:41:05+01:00*
G04 #@! TF.ProjectId,licznik,6c69637a-6e69-46b2-9e6b-696361645f70,rev?*
G04 #@! TF.SameCoordinates,Original*
G04 #@! TF.FileFunction,Soldermask,Bot*
G04 #@! TF.FilePolarity,Negative*
%FSLAX46Y46*%
G04 Gerber Fmt 4.6, Leading zero omitted, Abs format (unit mm)*
G04 Created by KiCad (PCBNEW 7.0.1) date 2024-03-04 12:41:05*
%MOMM*%
%LPD*%
G01*
G04 APERTURE LIST*
G04 Aperture macros list*
%AMRoundRect*
0 Rectangle with rounded corners*
0 $1 Rounding radius*
0 $2 $3 $4 $5 $6 $7 $8 $9 X,Y pos of 4 corners*
0 Add a 4 corners polygon primitive as box body*
4,1,4,$2,$3,$4,$5,$6,$7,$8,$9,$2,$3,0*
0 Add four circle primitives for the rounded corners*
1,1,$1+$1,$2,$3*
1,1,$1+$1,$4,$5*
1,1,$1+$1,$6,$7*
1,1,$1+$1,$8,$9*
0 Add four rect primitives between the rounded corners*
20,1,$1+$1,$2,$3,$4,$5,0*
20,1,$1+$1,$4,$5,$6,$7,0*
20,1,$1+$1,$6,$7,$8,$9,0*
20,1,$1+$1,$8,$9,$2,$3,0*%
G04 Aperture macros list end*
%ADD10C,1.101997*%
%ADD11RoundRect,0.051000X-0.850000X-0.850000X0.850000X-0.850000X0.850000X0.850000X-0.850000X0.850000X0*%
%ADD12O,1.802000X1.802000*%
%ADD13C,3.302000*%
%ADD14C,1.002000*%
%ADD15C,1.802000*%
%ADD16RoundRect,0.051000X-0.425000X-0.425000X0.425000X-0.425000X0.425000X0.425000X-0.425000X0.425000X0*%
%ADD17O,0.952000X0.952000*%
%ADD18C,3.402000*%
%ADD19RoundRect,0.051000X0.850000X-0.850000X0.850000X0.850000X-0.850000X0.850000X-0.850000X-0.850000X0*%
G04 APERTURE END LIST*
D10*
X177464600Y-80035400D03*
X177464600Y-88011000D03*
D11*
X158770000Y-70612000D03*
D12*
X156230000Y-70612000D03*
D13*
X179197000Y-70485000D03*
D11*
X119100600Y-71628000D03*
D14*
X119618400Y-105324800D03*
X124018400Y-105324800D03*
D15*
X179030000Y-104280000D03*
D12*
X179030000Y-101740000D03*
X179030000Y-99200000D03*
X179030000Y-96660000D03*
X179030000Y-94120000D03*
D13*
X111175800Y-109702600D03*
D16*
X135737600Y-99152200D03*
D17*
X135737600Y-100152200D03*
D15*
X160300000Y-108650000D03*
D12*
X160300000Y-106110000D03*
X160300000Y-103570000D03*
X160300000Y-101030000D03*
X160300000Y-98490000D03*
X160300000Y-95950000D03*
X160300000Y-93410000D03*
D15*
X170300000Y-106150000D03*
D12*
X170300000Y-103610000D03*
X170300000Y-101070000D03*
X170300000Y-98530000D03*
X170300000Y-95990000D03*
D11*
X123088400Y-71678800D03*
D18*
X179351200Y-109808000D03*
X179241200Y-70478000D03*
X111211200Y-109718000D03*
X111201200Y-70358000D03*
D12*
X111251200Y-82358000D03*
X111251200Y-84898000D03*
X111251200Y-87438000D03*
X111251200Y-89978000D03*
X111251200Y-92518000D03*
X111251200Y-95058000D03*
D15*
X111251200Y-97598000D03*
D13*
X111201200Y-70358000D03*
X179324000Y-109804200D03*
D19*
X163352000Y-70790200D03*
D12*
X165892000Y-70790200D03*
X168432000Y-70790200D03*
X170972000Y-70790200D03*
X173512000Y-70790200D03*
D19*
X135255000Y-103682800D03*
D12*
X135255000Y-106222800D03*
G36*
X136151940Y-99627089D02*
G01*
X136152125Y-99628965D01*
X136150667Y-99630162D01*
X136088826Y-99642461D01*
X136040666Y-99770410D01*
X136101166Y-99849254D01*
X136101442Y-99851201D01*
X136099918Y-99852443D01*
X136098067Y-99851782D01*
X136047989Y-99793989D01*
X135934497Y-99721052D01*
X135805055Y-99683045D01*
X135670145Y-99683045D01*
X135540702Y-99721052D01*
X135427207Y-99793991D01*
X135377117Y-99851798D01*
X135375267Y-99852459D01*
X135373743Y-99851217D01*
X135374019Y-99849270D01*
X135434530Y-99770411D01*
X135386373Y-99642464D01*
X135324525Y-99630162D01*
X135323067Y-99628965D01*
X135323252Y-99627089D01*
X135324915Y-99626200D01*
X136150277Y-99626200D01*
X136151940Y-99627089D01*
G37*
M02*
