G04 #@! TF.GenerationSoftware,KiCad,Pcbnew,7.0.1*
G04 #@! TF.CreationDate,2024-03-04T12:41:05+01:00*
G04 #@! TF.ProjectId,licznik,6c69637a-6e69-46b2-9e6b-696361645f70,rev?*
G04 #@! TF.SameCoordinates,Original*
G04 #@! TF.FileFunction,Legend,Bot*
G04 #@! TF.FilePolarity,Positive*
%FSLAX46Y46*%
G04 Gerber Fmt 4.6, Leading zero omitted, Abs format (unit mm)*
G04 Created by KiCad (PCBNEW 7.0.1) date 2024-03-04 12:41:05*
%MOMM*%
%LPD*%
G01*
G04 APERTURE LIST*
%ADD10C,0.150000*%
G04 APERTURE END LIST*
D10*
X155135533Y-73259019D02*
X155135533Y-72259019D01*
X155135533Y-72259019D02*
X155516485Y-72259019D01*
X155516485Y-72259019D02*
X155611723Y-72306638D01*
X155611723Y-72306638D02*
X155659342Y-72354257D01*
X155659342Y-72354257D02*
X155706961Y-72449495D01*
X155706961Y-72449495D02*
X155706961Y-72592352D01*
X155706961Y-72592352D02*
X155659342Y-72687590D01*
X155659342Y-72687590D02*
X155611723Y-72735209D01*
X155611723Y-72735209D02*
X155516485Y-72782828D01*
X155516485Y-72782828D02*
X155135533Y-72782828D01*
X156468866Y-72735209D02*
X156611723Y-72782828D01*
X156611723Y-72782828D02*
X156659342Y-72830447D01*
X156659342Y-72830447D02*
X156706961Y-72925685D01*
X156706961Y-72925685D02*
X156706961Y-73068542D01*
X156706961Y-73068542D02*
X156659342Y-73163780D01*
X156659342Y-73163780D02*
X156611723Y-73211400D01*
X156611723Y-73211400D02*
X156516485Y-73259019D01*
X156516485Y-73259019D02*
X156135533Y-73259019D01*
X156135533Y-73259019D02*
X156135533Y-72259019D01*
X156135533Y-72259019D02*
X156468866Y-72259019D01*
X156468866Y-72259019D02*
X156564104Y-72306638D01*
X156564104Y-72306638D02*
X156611723Y-72354257D01*
X156611723Y-72354257D02*
X156659342Y-72449495D01*
X156659342Y-72449495D02*
X156659342Y-72544733D01*
X156659342Y-72544733D02*
X156611723Y-72639971D01*
X156611723Y-72639971D02*
X156564104Y-72687590D01*
X156564104Y-72687590D02*
X156468866Y-72735209D01*
X156468866Y-72735209D02*
X156135533Y-72735209D01*
X156897438Y-73354257D02*
X157659342Y-73354257D01*
X157897438Y-72259019D02*
X157897438Y-73068542D01*
X157897438Y-73068542D02*
X157945057Y-73163780D01*
X157945057Y-73163780D02*
X157992676Y-73211400D01*
X157992676Y-73211400D02*
X158087914Y-73259019D01*
X158087914Y-73259019D02*
X158278390Y-73259019D01*
X158278390Y-73259019D02*
X158373628Y-73211400D01*
X158373628Y-73211400D02*
X158421247Y-73163780D01*
X158421247Y-73163780D02*
X158468866Y-73068542D01*
X158468866Y-73068542D02*
X158468866Y-72259019D01*
X158945057Y-73259019D02*
X158945057Y-72259019D01*
X158945057Y-72259019D02*
X159326009Y-72259019D01*
X159326009Y-72259019D02*
X159421247Y-72306638D01*
X159421247Y-72306638D02*
X159468866Y-72354257D01*
X159468866Y-72354257D02*
X159516485Y-72449495D01*
X159516485Y-72449495D02*
X159516485Y-72592352D01*
X159516485Y-72592352D02*
X159468866Y-72687590D01*
X159468866Y-72687590D02*
X159421247Y-72735209D01*
X159421247Y-72735209D02*
X159326009Y-72782828D01*
X159326009Y-72782828D02*
X158945057Y-72782828D01*
X133642361Y-98054819D02*
X133166171Y-98054819D01*
X133166171Y-98054819D02*
X133166171Y-97054819D01*
X133975695Y-97531009D02*
X134309028Y-97531009D01*
X134451885Y-98054819D02*
X133975695Y-98054819D01*
X133975695Y-98054819D02*
X133975695Y-97054819D01*
X133975695Y-97054819D02*
X134451885Y-97054819D01*
X134880457Y-98054819D02*
X134880457Y-97054819D01*
X134880457Y-97054819D02*
X135451885Y-98054819D01*
X135451885Y-98054819D02*
X135451885Y-97054819D01*
X135689981Y-98150057D02*
X136451885Y-98150057D01*
X136880457Y-97054819D02*
X137070933Y-97054819D01*
X137070933Y-97054819D02*
X137166171Y-97102438D01*
X137166171Y-97102438D02*
X137261409Y-97197676D01*
X137261409Y-97197676D02*
X137309028Y-97388152D01*
X137309028Y-97388152D02*
X137309028Y-97721485D01*
X137309028Y-97721485D02*
X137261409Y-97911961D01*
X137261409Y-97911961D02*
X137166171Y-98007200D01*
X137166171Y-98007200D02*
X137070933Y-98054819D01*
X137070933Y-98054819D02*
X136880457Y-98054819D01*
X136880457Y-98054819D02*
X136785219Y-98007200D01*
X136785219Y-98007200D02*
X136689981Y-97911961D01*
X136689981Y-97911961D02*
X136642362Y-97721485D01*
X136642362Y-97721485D02*
X136642362Y-97388152D01*
X136642362Y-97388152D02*
X136689981Y-97197676D01*
X136689981Y-97197676D02*
X136785219Y-97102438D01*
X136785219Y-97102438D02*
X136880457Y-97054819D01*
X137737600Y-98054819D02*
X137737600Y-97054819D01*
X137737600Y-97054819D02*
X138309028Y-98054819D01*
X138309028Y-98054819D02*
X138309028Y-97054819D01*
X132947619Y-108643275D02*
X131947619Y-108643275D01*
X131947619Y-108643275D02*
X131947619Y-108262323D01*
X131947619Y-108262323D02*
X131995238Y-108167085D01*
X131995238Y-108167085D02*
X132042857Y-108119466D01*
X132042857Y-108119466D02*
X132138095Y-108071847D01*
X132138095Y-108071847D02*
X132280952Y-108071847D01*
X132280952Y-108071847D02*
X132376190Y-108119466D01*
X132376190Y-108119466D02*
X132423809Y-108167085D01*
X132423809Y-108167085D02*
X132471428Y-108262323D01*
X132471428Y-108262323D02*
X132471428Y-108643275D01*
X132423809Y-107309942D02*
X132471428Y-107167085D01*
X132471428Y-107167085D02*
X132519047Y-107119466D01*
X132519047Y-107119466D02*
X132614285Y-107071847D01*
X132614285Y-107071847D02*
X132757142Y-107071847D01*
X132757142Y-107071847D02*
X132852380Y-107119466D01*
X132852380Y-107119466D02*
X132900000Y-107167085D01*
X132900000Y-107167085D02*
X132947619Y-107262323D01*
X132947619Y-107262323D02*
X132947619Y-107643275D01*
X132947619Y-107643275D02*
X131947619Y-107643275D01*
X131947619Y-107643275D02*
X131947619Y-107309942D01*
X131947619Y-107309942D02*
X131995238Y-107214704D01*
X131995238Y-107214704D02*
X132042857Y-107167085D01*
X132042857Y-107167085D02*
X132138095Y-107119466D01*
X132138095Y-107119466D02*
X132233333Y-107119466D01*
X132233333Y-107119466D02*
X132328571Y-107167085D01*
X132328571Y-107167085D02*
X132376190Y-107214704D01*
X132376190Y-107214704D02*
X132423809Y-107309942D01*
X132423809Y-107309942D02*
X132423809Y-107643275D01*
X133042857Y-106881371D02*
X133042857Y-106119466D01*
X132947619Y-105881370D02*
X131947619Y-105881370D01*
X131947619Y-105881370D02*
X131947619Y-105500418D01*
X131947619Y-105500418D02*
X131995238Y-105405180D01*
X131995238Y-105405180D02*
X132042857Y-105357561D01*
X132042857Y-105357561D02*
X132138095Y-105309942D01*
X132138095Y-105309942D02*
X132280952Y-105309942D01*
X132280952Y-105309942D02*
X132376190Y-105357561D01*
X132376190Y-105357561D02*
X132423809Y-105405180D01*
X132423809Y-105405180D02*
X132471428Y-105500418D01*
X132471428Y-105500418D02*
X132471428Y-105881370D01*
X131947619Y-104690894D02*
X131947619Y-104500418D01*
X131947619Y-104500418D02*
X131995238Y-104405180D01*
X131995238Y-104405180D02*
X132090476Y-104309942D01*
X132090476Y-104309942D02*
X132280952Y-104262323D01*
X132280952Y-104262323D02*
X132614285Y-104262323D01*
X132614285Y-104262323D02*
X132804761Y-104309942D01*
X132804761Y-104309942D02*
X132900000Y-104405180D01*
X132900000Y-104405180D02*
X132947619Y-104500418D01*
X132947619Y-104500418D02*
X132947619Y-104690894D01*
X132947619Y-104690894D02*
X132900000Y-104786132D01*
X132900000Y-104786132D02*
X132804761Y-104881370D01*
X132804761Y-104881370D02*
X132614285Y-104928989D01*
X132614285Y-104928989D02*
X132280952Y-104928989D01*
X132280952Y-104928989D02*
X132090476Y-104881370D01*
X132090476Y-104881370D02*
X131995238Y-104786132D01*
X131995238Y-104786132D02*
X131947619Y-104690894D01*
X131947619Y-103928989D02*
X132947619Y-103690894D01*
X132947619Y-103690894D02*
X132233333Y-103500418D01*
X132233333Y-103500418D02*
X132947619Y-103309942D01*
X132947619Y-103309942D02*
X131947619Y-103071847D01*
X132423809Y-102690894D02*
X132423809Y-102357561D01*
X132947619Y-102214704D02*
X132947619Y-102690894D01*
X132947619Y-102690894D02*
X131947619Y-102690894D01*
X131947619Y-102690894D02*
X131947619Y-102214704D01*
X132947619Y-101214704D02*
X132471428Y-101548037D01*
X132947619Y-101786132D02*
X131947619Y-101786132D01*
X131947619Y-101786132D02*
X131947619Y-101405180D01*
X131947619Y-101405180D02*
X131995238Y-101309942D01*
X131995238Y-101309942D02*
X132042857Y-101262323D01*
X132042857Y-101262323D02*
X132138095Y-101214704D01*
X132138095Y-101214704D02*
X132280952Y-101214704D01*
X132280952Y-101214704D02*
X132376190Y-101262323D01*
X132376190Y-101262323D02*
X132423809Y-101309942D01*
X132423809Y-101309942D02*
X132471428Y-101405180D01*
X132471428Y-101405180D02*
X132471428Y-101786132D01*
M02*
