%TF.GenerationSoftware,KiCad,Pcbnew,7.0.1*%
%TF.CreationDate,2024-03-04T12:41:09+01:00*%
%TF.ProjectId,licznik,6c69637a-6e69-46b2-9e6b-696361645f70,rev?*%
%TF.SameCoordinates,Original*%
%TF.FileFunction,Drillmap*%
%TF.FilePolarity,Positive*%
%FSLAX45Y45*%
G04 Gerber Fmt 4.5, Leading zero omitted, Abs format (unit mm)*
G04 Created by KiCad (PCBNEW 7.0.1) date 2024-03-04 12:41:09*
%MOMM*%
%LPD*%
G01*
G04 APERTURE LIST*
%ADD10C,0.120000*%
%ADD11C,0.200000*%
%ADD12C,0.090000*%
%ADD13C,0.099999*%
%ADD14C,0.320000*%
G04 APERTURE END LIST*
D10*
X10922000Y-11165840D02*
X10922000Y-6847840D01*
X10922000Y-11165840D02*
X18122000Y-11165840D01*
X18122000Y-11165840D02*
X18122000Y-6847840D01*
X10922000Y-6847840D02*
X18122000Y-6847840D01*
D11*
D12*
X11916840Y-10487480D02*
X12006840Y-10577480D01*
X12006840Y-10487480D02*
X11916840Y-10577480D01*
X12356840Y-10487480D02*
X12446840Y-10577480D01*
X12446840Y-10487480D02*
X12356840Y-10577480D01*
D13*
X17796460Y-8003540D02*
G75*
G03*
X17796460Y-8003540I-50000J0D01*
G01*
X17796460Y-8801100D02*
G75*
G03*
X17796460Y-8801100I-50000J0D01*
G01*
D14*
X11117580Y-10810260D02*
X11117580Y-11130260D01*
X10957580Y-10970260D02*
X11277580Y-10970260D01*
X11120120Y-6875800D02*
X11120120Y-7195800D01*
X10960120Y-7035800D02*
X11280120Y-7035800D01*
X17919700Y-6888500D02*
X17919700Y-7208500D01*
X17759700Y-7048500D02*
X18079700Y-7048500D01*
X17932400Y-10820420D02*
X17932400Y-11140420D01*
X17772400Y-10980420D02*
X18092400Y-10980420D01*
D11*
X11163619Y-11484364D02*
X11163619Y-11284364D01*
X11163619Y-11284364D02*
X11211238Y-11284364D01*
X11211238Y-11284364D02*
X11239809Y-11293888D01*
X11239809Y-11293888D02*
X11258857Y-11312935D01*
X11258857Y-11312935D02*
X11268381Y-11331983D01*
X11268381Y-11331983D02*
X11277905Y-11370078D01*
X11277905Y-11370078D02*
X11277905Y-11398649D01*
X11277905Y-11398649D02*
X11268381Y-11436745D01*
X11268381Y-11436745D02*
X11258857Y-11455792D01*
X11258857Y-11455792D02*
X11239809Y-11474840D01*
X11239809Y-11474840D02*
X11211238Y-11484364D01*
X11211238Y-11484364D02*
X11163619Y-11484364D01*
X11363619Y-11484364D02*
X11363619Y-11351030D01*
X11363619Y-11389126D02*
X11373143Y-11370078D01*
X11373143Y-11370078D02*
X11382667Y-11360554D01*
X11382667Y-11360554D02*
X11401714Y-11351030D01*
X11401714Y-11351030D02*
X11420762Y-11351030D01*
X11487428Y-11484364D02*
X11487428Y-11351030D01*
X11487428Y-11284364D02*
X11477905Y-11293888D01*
X11477905Y-11293888D02*
X11487428Y-11303411D01*
X11487428Y-11303411D02*
X11496952Y-11293888D01*
X11496952Y-11293888D02*
X11487428Y-11284364D01*
X11487428Y-11284364D02*
X11487428Y-11303411D01*
X11611238Y-11484364D02*
X11592190Y-11474840D01*
X11592190Y-11474840D02*
X11582667Y-11455792D01*
X11582667Y-11455792D02*
X11582667Y-11284364D01*
X11716000Y-11484364D02*
X11696952Y-11474840D01*
X11696952Y-11474840D02*
X11687428Y-11455792D01*
X11687428Y-11455792D02*
X11687428Y-11284364D01*
X11944571Y-11484364D02*
X11944571Y-11284364D01*
X11944571Y-11284364D02*
X12011238Y-11427221D01*
X12011238Y-11427221D02*
X12077905Y-11284364D01*
X12077905Y-11284364D02*
X12077905Y-11484364D01*
X12258857Y-11484364D02*
X12258857Y-11379602D01*
X12258857Y-11379602D02*
X12249333Y-11360554D01*
X12249333Y-11360554D02*
X12230286Y-11351030D01*
X12230286Y-11351030D02*
X12192190Y-11351030D01*
X12192190Y-11351030D02*
X12173143Y-11360554D01*
X12258857Y-11474840D02*
X12239809Y-11484364D01*
X12239809Y-11484364D02*
X12192190Y-11484364D01*
X12192190Y-11484364D02*
X12173143Y-11474840D01*
X12173143Y-11474840D02*
X12163619Y-11455792D01*
X12163619Y-11455792D02*
X12163619Y-11436745D01*
X12163619Y-11436745D02*
X12173143Y-11417697D01*
X12173143Y-11417697D02*
X12192190Y-11408173D01*
X12192190Y-11408173D02*
X12239809Y-11408173D01*
X12239809Y-11408173D02*
X12258857Y-11398649D01*
X12354095Y-11351030D02*
X12354095Y-11551030D01*
X12354095Y-11360554D02*
X12373143Y-11351030D01*
X12373143Y-11351030D02*
X12411238Y-11351030D01*
X12411238Y-11351030D02*
X12430286Y-11360554D01*
X12430286Y-11360554D02*
X12439809Y-11370078D01*
X12439809Y-11370078D02*
X12449333Y-11389126D01*
X12449333Y-11389126D02*
X12449333Y-11446268D01*
X12449333Y-11446268D02*
X12439809Y-11465316D01*
X12439809Y-11465316D02*
X12430286Y-11474840D01*
X12430286Y-11474840D02*
X12411238Y-11484364D01*
X12411238Y-11484364D02*
X12373143Y-11484364D01*
X12373143Y-11484364D02*
X12354095Y-11474840D01*
X12535048Y-11465316D02*
X12544571Y-11474840D01*
X12544571Y-11474840D02*
X12535048Y-11484364D01*
X12535048Y-11484364D02*
X12525524Y-11474840D01*
X12525524Y-11474840D02*
X12535048Y-11465316D01*
X12535048Y-11465316D02*
X12535048Y-11484364D01*
X12535048Y-11360554D02*
X12544571Y-11370078D01*
X12544571Y-11370078D02*
X12535048Y-11379602D01*
X12535048Y-11379602D02*
X12525524Y-11370078D01*
X12525524Y-11370078D02*
X12535048Y-11360554D01*
X12535048Y-11360554D02*
X12535048Y-11379602D01*
D12*
X10826000Y-11766840D02*
X10916000Y-11856840D01*
X10916000Y-11766840D02*
X10826000Y-11856840D01*
D11*
X11201714Y-11704364D02*
X11220762Y-11704364D01*
X11220762Y-11704364D02*
X11239809Y-11713888D01*
X11239809Y-11713888D02*
X11249333Y-11723411D01*
X11249333Y-11723411D02*
X11258857Y-11742459D01*
X11258857Y-11742459D02*
X11268381Y-11780554D01*
X11268381Y-11780554D02*
X11268381Y-11828173D01*
X11268381Y-11828173D02*
X11258857Y-11866268D01*
X11258857Y-11866268D02*
X11249333Y-11885316D01*
X11249333Y-11885316D02*
X11239809Y-11894840D01*
X11239809Y-11894840D02*
X11220762Y-11904364D01*
X11220762Y-11904364D02*
X11201714Y-11904364D01*
X11201714Y-11904364D02*
X11182667Y-11894840D01*
X11182667Y-11894840D02*
X11173143Y-11885316D01*
X11173143Y-11885316D02*
X11163619Y-11866268D01*
X11163619Y-11866268D02*
X11154095Y-11828173D01*
X11154095Y-11828173D02*
X11154095Y-11780554D01*
X11154095Y-11780554D02*
X11163619Y-11742459D01*
X11163619Y-11742459D02*
X11173143Y-11723411D01*
X11173143Y-11723411D02*
X11182667Y-11713888D01*
X11182667Y-11713888D02*
X11201714Y-11704364D01*
X11354095Y-11885316D02*
X11363619Y-11894840D01*
X11363619Y-11894840D02*
X11354095Y-11904364D01*
X11354095Y-11904364D02*
X11344571Y-11894840D01*
X11344571Y-11894840D02*
X11354095Y-11885316D01*
X11354095Y-11885316D02*
X11354095Y-11904364D01*
X11458857Y-11904364D02*
X11496952Y-11904364D01*
X11496952Y-11904364D02*
X11516000Y-11894840D01*
X11516000Y-11894840D02*
X11525524Y-11885316D01*
X11525524Y-11885316D02*
X11544571Y-11856745D01*
X11544571Y-11856745D02*
X11554095Y-11818649D01*
X11554095Y-11818649D02*
X11554095Y-11742459D01*
X11554095Y-11742459D02*
X11544571Y-11723411D01*
X11544571Y-11723411D02*
X11535048Y-11713888D01*
X11535048Y-11713888D02*
X11516000Y-11704364D01*
X11516000Y-11704364D02*
X11477905Y-11704364D01*
X11477905Y-11704364D02*
X11458857Y-11713888D01*
X11458857Y-11713888D02*
X11449333Y-11723411D01*
X11449333Y-11723411D02*
X11439809Y-11742459D01*
X11439809Y-11742459D02*
X11439809Y-11790078D01*
X11439809Y-11790078D02*
X11449333Y-11809126D01*
X11449333Y-11809126D02*
X11458857Y-11818649D01*
X11458857Y-11818649D02*
X11477905Y-11828173D01*
X11477905Y-11828173D02*
X11516000Y-11828173D01*
X11516000Y-11828173D02*
X11535048Y-11818649D01*
X11535048Y-11818649D02*
X11544571Y-11809126D01*
X11544571Y-11809126D02*
X11554095Y-11790078D01*
X11677905Y-11704364D02*
X11696952Y-11704364D01*
X11696952Y-11704364D02*
X11716000Y-11713888D01*
X11716000Y-11713888D02*
X11725524Y-11723411D01*
X11725524Y-11723411D02*
X11735048Y-11742459D01*
X11735048Y-11742459D02*
X11744571Y-11780554D01*
X11744571Y-11780554D02*
X11744571Y-11828173D01*
X11744571Y-11828173D02*
X11735048Y-11866268D01*
X11735048Y-11866268D02*
X11725524Y-11885316D01*
X11725524Y-11885316D02*
X11716000Y-11894840D01*
X11716000Y-11894840D02*
X11696952Y-11904364D01*
X11696952Y-11904364D02*
X11677905Y-11904364D01*
X11677905Y-11904364D02*
X11658857Y-11894840D01*
X11658857Y-11894840D02*
X11649333Y-11885316D01*
X11649333Y-11885316D02*
X11639809Y-11866268D01*
X11639809Y-11866268D02*
X11630286Y-11828173D01*
X11630286Y-11828173D02*
X11630286Y-11780554D01*
X11630286Y-11780554D02*
X11639809Y-11742459D01*
X11639809Y-11742459D02*
X11649333Y-11723411D01*
X11649333Y-11723411D02*
X11658857Y-11713888D01*
X11658857Y-11713888D02*
X11677905Y-11704364D01*
X11868381Y-11704364D02*
X11887429Y-11704364D01*
X11887429Y-11704364D02*
X11906476Y-11713888D01*
X11906476Y-11713888D02*
X11916000Y-11723411D01*
X11916000Y-11723411D02*
X11925524Y-11742459D01*
X11925524Y-11742459D02*
X11935048Y-11780554D01*
X11935048Y-11780554D02*
X11935048Y-11828173D01*
X11935048Y-11828173D02*
X11925524Y-11866268D01*
X11925524Y-11866268D02*
X11916000Y-11885316D01*
X11916000Y-11885316D02*
X11906476Y-11894840D01*
X11906476Y-11894840D02*
X11887429Y-11904364D01*
X11887429Y-11904364D02*
X11868381Y-11904364D01*
X11868381Y-11904364D02*
X11849333Y-11894840D01*
X11849333Y-11894840D02*
X11839809Y-11885316D01*
X11839809Y-11885316D02*
X11830286Y-11866268D01*
X11830286Y-11866268D02*
X11820762Y-11828173D01*
X11820762Y-11828173D02*
X11820762Y-11780554D01*
X11820762Y-11780554D02*
X11830286Y-11742459D01*
X11830286Y-11742459D02*
X11839809Y-11723411D01*
X11839809Y-11723411D02*
X11849333Y-11713888D01*
X11849333Y-11713888D02*
X11868381Y-11704364D01*
X12020762Y-11904364D02*
X12020762Y-11771030D01*
X12020762Y-11790078D02*
X12030286Y-11780554D01*
X12030286Y-11780554D02*
X12049333Y-11771030D01*
X12049333Y-11771030D02*
X12077905Y-11771030D01*
X12077905Y-11771030D02*
X12096952Y-11780554D01*
X12096952Y-11780554D02*
X12106476Y-11799602D01*
X12106476Y-11799602D02*
X12106476Y-11904364D01*
X12106476Y-11799602D02*
X12116000Y-11780554D01*
X12116000Y-11780554D02*
X12135048Y-11771030D01*
X12135048Y-11771030D02*
X12163619Y-11771030D01*
X12163619Y-11771030D02*
X12182667Y-11780554D01*
X12182667Y-11780554D02*
X12192190Y-11799602D01*
X12192190Y-11799602D02*
X12192190Y-11904364D01*
X12287429Y-11904364D02*
X12287429Y-11771030D01*
X12287429Y-11790078D02*
X12296952Y-11780554D01*
X12296952Y-11780554D02*
X12316000Y-11771030D01*
X12316000Y-11771030D02*
X12344571Y-11771030D01*
X12344571Y-11771030D02*
X12363619Y-11780554D01*
X12363619Y-11780554D02*
X12373143Y-11799602D01*
X12373143Y-11799602D02*
X12373143Y-11904364D01*
X12373143Y-11799602D02*
X12382667Y-11780554D01*
X12382667Y-11780554D02*
X12401714Y-11771030D01*
X12401714Y-11771030D02*
X12430286Y-11771030D01*
X12430286Y-11771030D02*
X12449333Y-11780554D01*
X12449333Y-11780554D02*
X12458857Y-11799602D01*
X12458857Y-11799602D02*
X12458857Y-11904364D01*
X12849333Y-11694840D02*
X12677905Y-11951983D01*
X13106476Y-11704364D02*
X13125524Y-11704364D01*
X13125524Y-11704364D02*
X13144572Y-11713888D01*
X13144572Y-11713888D02*
X13154095Y-11723411D01*
X13154095Y-11723411D02*
X13163619Y-11742459D01*
X13163619Y-11742459D02*
X13173143Y-11780554D01*
X13173143Y-11780554D02*
X13173143Y-11828173D01*
X13173143Y-11828173D02*
X13163619Y-11866268D01*
X13163619Y-11866268D02*
X13154095Y-11885316D01*
X13154095Y-11885316D02*
X13144572Y-11894840D01*
X13144572Y-11894840D02*
X13125524Y-11904364D01*
X13125524Y-11904364D02*
X13106476Y-11904364D01*
X13106476Y-11904364D02*
X13087429Y-11894840D01*
X13087429Y-11894840D02*
X13077905Y-11885316D01*
X13077905Y-11885316D02*
X13068381Y-11866268D01*
X13068381Y-11866268D02*
X13058857Y-11828173D01*
X13058857Y-11828173D02*
X13058857Y-11780554D01*
X13058857Y-11780554D02*
X13068381Y-11742459D01*
X13068381Y-11742459D02*
X13077905Y-11723411D01*
X13077905Y-11723411D02*
X13087429Y-11713888D01*
X13087429Y-11713888D02*
X13106476Y-11704364D01*
X13258857Y-11885316D02*
X13268381Y-11894840D01*
X13268381Y-11894840D02*
X13258857Y-11904364D01*
X13258857Y-11904364D02*
X13249333Y-11894840D01*
X13249333Y-11894840D02*
X13258857Y-11885316D01*
X13258857Y-11885316D02*
X13258857Y-11904364D01*
X13392191Y-11704364D02*
X13411238Y-11704364D01*
X13411238Y-11704364D02*
X13430286Y-11713888D01*
X13430286Y-11713888D02*
X13439810Y-11723411D01*
X13439810Y-11723411D02*
X13449333Y-11742459D01*
X13449333Y-11742459D02*
X13458857Y-11780554D01*
X13458857Y-11780554D02*
X13458857Y-11828173D01*
X13458857Y-11828173D02*
X13449333Y-11866268D01*
X13449333Y-11866268D02*
X13439810Y-11885316D01*
X13439810Y-11885316D02*
X13430286Y-11894840D01*
X13430286Y-11894840D02*
X13411238Y-11904364D01*
X13411238Y-11904364D02*
X13392191Y-11904364D01*
X13392191Y-11904364D02*
X13373143Y-11894840D01*
X13373143Y-11894840D02*
X13363619Y-11885316D01*
X13363619Y-11885316D02*
X13354095Y-11866268D01*
X13354095Y-11866268D02*
X13344572Y-11828173D01*
X13344572Y-11828173D02*
X13344572Y-11780554D01*
X13344572Y-11780554D02*
X13354095Y-11742459D01*
X13354095Y-11742459D02*
X13363619Y-11723411D01*
X13363619Y-11723411D02*
X13373143Y-11713888D01*
X13373143Y-11713888D02*
X13392191Y-11704364D01*
X13525524Y-11704364D02*
X13649333Y-11704364D01*
X13649333Y-11704364D02*
X13582667Y-11780554D01*
X13582667Y-11780554D02*
X13611238Y-11780554D01*
X13611238Y-11780554D02*
X13630286Y-11790078D01*
X13630286Y-11790078D02*
X13639810Y-11799602D01*
X13639810Y-11799602D02*
X13649333Y-11818649D01*
X13649333Y-11818649D02*
X13649333Y-11866268D01*
X13649333Y-11866268D02*
X13639810Y-11885316D01*
X13639810Y-11885316D02*
X13630286Y-11894840D01*
X13630286Y-11894840D02*
X13611238Y-11904364D01*
X13611238Y-11904364D02*
X13554095Y-11904364D01*
X13554095Y-11904364D02*
X13535048Y-11894840D01*
X13535048Y-11894840D02*
X13525524Y-11885316D01*
X13830286Y-11704364D02*
X13735048Y-11704364D01*
X13735048Y-11704364D02*
X13725524Y-11799602D01*
X13725524Y-11799602D02*
X13735048Y-11790078D01*
X13735048Y-11790078D02*
X13754095Y-11780554D01*
X13754095Y-11780554D02*
X13801714Y-11780554D01*
X13801714Y-11780554D02*
X13820762Y-11790078D01*
X13820762Y-11790078D02*
X13830286Y-11799602D01*
X13830286Y-11799602D02*
X13839810Y-11818649D01*
X13839810Y-11818649D02*
X13839810Y-11866268D01*
X13839810Y-11866268D02*
X13830286Y-11885316D01*
X13830286Y-11885316D02*
X13820762Y-11894840D01*
X13820762Y-11894840D02*
X13801714Y-11904364D01*
X13801714Y-11904364D02*
X13754095Y-11904364D01*
X13754095Y-11904364D02*
X13735048Y-11894840D01*
X13735048Y-11894840D02*
X13725524Y-11885316D01*
X14011238Y-11771030D02*
X14011238Y-11904364D01*
X13963619Y-11694840D02*
X13916000Y-11837697D01*
X13916000Y-11837697D02*
X14039810Y-11837697D01*
X14106476Y-11704364D02*
X14106476Y-11742459D01*
X14182667Y-11704364D02*
X14182667Y-11742459D01*
X14477905Y-11980554D02*
X14468381Y-11971030D01*
X14468381Y-11971030D02*
X14449334Y-11942459D01*
X14449334Y-11942459D02*
X14439810Y-11923411D01*
X14439810Y-11923411D02*
X14430286Y-11894840D01*
X14430286Y-11894840D02*
X14420762Y-11847221D01*
X14420762Y-11847221D02*
X14420762Y-11809126D01*
X14420762Y-11809126D02*
X14430286Y-11761507D01*
X14430286Y-11761507D02*
X14439810Y-11732935D01*
X14439810Y-11732935D02*
X14449334Y-11713888D01*
X14449334Y-11713888D02*
X14468381Y-11685316D01*
X14468381Y-11685316D02*
X14477905Y-11675792D01*
X14544572Y-11723411D02*
X14554095Y-11713888D01*
X14554095Y-11713888D02*
X14573143Y-11704364D01*
X14573143Y-11704364D02*
X14620762Y-11704364D01*
X14620762Y-11704364D02*
X14639810Y-11713888D01*
X14639810Y-11713888D02*
X14649334Y-11723411D01*
X14649334Y-11723411D02*
X14658857Y-11742459D01*
X14658857Y-11742459D02*
X14658857Y-11761507D01*
X14658857Y-11761507D02*
X14649334Y-11790078D01*
X14649334Y-11790078D02*
X14535048Y-11904364D01*
X14535048Y-11904364D02*
X14658857Y-11904364D01*
X14896953Y-11904364D02*
X14896953Y-11704364D01*
X14982667Y-11904364D02*
X14982667Y-11799602D01*
X14982667Y-11799602D02*
X14973143Y-11780554D01*
X14973143Y-11780554D02*
X14954096Y-11771030D01*
X14954096Y-11771030D02*
X14925524Y-11771030D01*
X14925524Y-11771030D02*
X14906476Y-11780554D01*
X14906476Y-11780554D02*
X14896953Y-11790078D01*
X15106476Y-11904364D02*
X15087429Y-11894840D01*
X15087429Y-11894840D02*
X15077905Y-11885316D01*
X15077905Y-11885316D02*
X15068381Y-11866268D01*
X15068381Y-11866268D02*
X15068381Y-11809126D01*
X15068381Y-11809126D02*
X15077905Y-11790078D01*
X15077905Y-11790078D02*
X15087429Y-11780554D01*
X15087429Y-11780554D02*
X15106476Y-11771030D01*
X15106476Y-11771030D02*
X15135048Y-11771030D01*
X15135048Y-11771030D02*
X15154096Y-11780554D01*
X15154096Y-11780554D02*
X15163619Y-11790078D01*
X15163619Y-11790078D02*
X15173143Y-11809126D01*
X15173143Y-11809126D02*
X15173143Y-11866268D01*
X15173143Y-11866268D02*
X15163619Y-11885316D01*
X15163619Y-11885316D02*
X15154096Y-11894840D01*
X15154096Y-11894840D02*
X15135048Y-11904364D01*
X15135048Y-11904364D02*
X15106476Y-11904364D01*
X15287429Y-11904364D02*
X15268381Y-11894840D01*
X15268381Y-11894840D02*
X15258857Y-11875792D01*
X15258857Y-11875792D02*
X15258857Y-11704364D01*
X15439810Y-11894840D02*
X15420762Y-11904364D01*
X15420762Y-11904364D02*
X15382667Y-11904364D01*
X15382667Y-11904364D02*
X15363619Y-11894840D01*
X15363619Y-11894840D02*
X15354096Y-11875792D01*
X15354096Y-11875792D02*
X15354096Y-11799602D01*
X15354096Y-11799602D02*
X15363619Y-11780554D01*
X15363619Y-11780554D02*
X15382667Y-11771030D01*
X15382667Y-11771030D02*
X15420762Y-11771030D01*
X15420762Y-11771030D02*
X15439810Y-11780554D01*
X15439810Y-11780554D02*
X15449334Y-11799602D01*
X15449334Y-11799602D02*
X15449334Y-11818649D01*
X15449334Y-11818649D02*
X15354096Y-11837697D01*
X15525524Y-11894840D02*
X15544572Y-11904364D01*
X15544572Y-11904364D02*
X15582667Y-11904364D01*
X15582667Y-11904364D02*
X15601715Y-11894840D01*
X15601715Y-11894840D02*
X15611238Y-11875792D01*
X15611238Y-11875792D02*
X15611238Y-11866268D01*
X15611238Y-11866268D02*
X15601715Y-11847221D01*
X15601715Y-11847221D02*
X15582667Y-11837697D01*
X15582667Y-11837697D02*
X15554096Y-11837697D01*
X15554096Y-11837697D02*
X15535048Y-11828173D01*
X15535048Y-11828173D02*
X15525524Y-11809126D01*
X15525524Y-11809126D02*
X15525524Y-11799602D01*
X15525524Y-11799602D02*
X15535048Y-11780554D01*
X15535048Y-11780554D02*
X15554096Y-11771030D01*
X15554096Y-11771030D02*
X15582667Y-11771030D01*
X15582667Y-11771030D02*
X15601715Y-11780554D01*
X15677905Y-11980554D02*
X15687429Y-11971030D01*
X15687429Y-11971030D02*
X15706477Y-11942459D01*
X15706477Y-11942459D02*
X15716000Y-11923411D01*
X15716000Y-11923411D02*
X15725524Y-11894840D01*
X15725524Y-11894840D02*
X15735048Y-11847221D01*
X15735048Y-11847221D02*
X15735048Y-11809126D01*
X15735048Y-11809126D02*
X15725524Y-11761507D01*
X15725524Y-11761507D02*
X15716000Y-11732935D01*
X15716000Y-11732935D02*
X15706477Y-11713888D01*
X15706477Y-11713888D02*
X15687429Y-11685316D01*
X15687429Y-11685316D02*
X15677905Y-11675792D01*
X16039810Y-11980554D02*
X16030286Y-11971030D01*
X16030286Y-11971030D02*
X16011238Y-11942459D01*
X16011238Y-11942459D02*
X16001715Y-11923411D01*
X16001715Y-11923411D02*
X15992191Y-11894840D01*
X15992191Y-11894840D02*
X15982667Y-11847221D01*
X15982667Y-11847221D02*
X15982667Y-11809126D01*
X15982667Y-11809126D02*
X15992191Y-11761507D01*
X15992191Y-11761507D02*
X16001715Y-11732935D01*
X16001715Y-11732935D02*
X16011238Y-11713888D01*
X16011238Y-11713888D02*
X16030286Y-11685316D01*
X16030286Y-11685316D02*
X16039810Y-11675792D01*
X16116000Y-11771030D02*
X16116000Y-11904364D01*
X16116000Y-11790078D02*
X16125524Y-11780554D01*
X16125524Y-11780554D02*
X16144572Y-11771030D01*
X16144572Y-11771030D02*
X16173143Y-11771030D01*
X16173143Y-11771030D02*
X16192191Y-11780554D01*
X16192191Y-11780554D02*
X16201715Y-11799602D01*
X16201715Y-11799602D02*
X16201715Y-11904364D01*
X16325524Y-11904364D02*
X16306477Y-11894840D01*
X16306477Y-11894840D02*
X16296953Y-11885316D01*
X16296953Y-11885316D02*
X16287429Y-11866268D01*
X16287429Y-11866268D02*
X16287429Y-11809126D01*
X16287429Y-11809126D02*
X16296953Y-11790078D01*
X16296953Y-11790078D02*
X16306477Y-11780554D01*
X16306477Y-11780554D02*
X16325524Y-11771030D01*
X16325524Y-11771030D02*
X16354096Y-11771030D01*
X16354096Y-11771030D02*
X16373143Y-11780554D01*
X16373143Y-11780554D02*
X16382667Y-11790078D01*
X16382667Y-11790078D02*
X16392191Y-11809126D01*
X16392191Y-11809126D02*
X16392191Y-11866268D01*
X16392191Y-11866268D02*
X16382667Y-11885316D01*
X16382667Y-11885316D02*
X16373143Y-11894840D01*
X16373143Y-11894840D02*
X16354096Y-11904364D01*
X16354096Y-11904364D02*
X16325524Y-11904364D01*
X16449334Y-11771030D02*
X16525524Y-11771030D01*
X16477905Y-11704364D02*
X16477905Y-11875792D01*
X16477905Y-11875792D02*
X16487429Y-11894840D01*
X16487429Y-11894840D02*
X16506477Y-11904364D01*
X16506477Y-11904364D02*
X16525524Y-11904364D01*
X16744572Y-11771030D02*
X16744572Y-11971030D01*
X16744572Y-11780554D02*
X16763619Y-11771030D01*
X16763619Y-11771030D02*
X16801715Y-11771030D01*
X16801715Y-11771030D02*
X16820762Y-11780554D01*
X16820762Y-11780554D02*
X16830286Y-11790078D01*
X16830286Y-11790078D02*
X16839810Y-11809126D01*
X16839810Y-11809126D02*
X16839810Y-11866268D01*
X16839810Y-11866268D02*
X16830286Y-11885316D01*
X16830286Y-11885316D02*
X16820762Y-11894840D01*
X16820762Y-11894840D02*
X16801715Y-11904364D01*
X16801715Y-11904364D02*
X16763619Y-11904364D01*
X16763619Y-11904364D02*
X16744572Y-11894840D01*
X16954096Y-11904364D02*
X16935048Y-11894840D01*
X16935048Y-11894840D02*
X16925524Y-11875792D01*
X16925524Y-11875792D02*
X16925524Y-11704364D01*
X17116001Y-11904364D02*
X17116001Y-11799602D01*
X17116001Y-11799602D02*
X17106477Y-11780554D01*
X17106477Y-11780554D02*
X17087429Y-11771030D01*
X17087429Y-11771030D02*
X17049334Y-11771030D01*
X17049334Y-11771030D02*
X17030286Y-11780554D01*
X17116001Y-11894840D02*
X17096953Y-11904364D01*
X17096953Y-11904364D02*
X17049334Y-11904364D01*
X17049334Y-11904364D02*
X17030286Y-11894840D01*
X17030286Y-11894840D02*
X17020762Y-11875792D01*
X17020762Y-11875792D02*
X17020762Y-11856745D01*
X17020762Y-11856745D02*
X17030286Y-11837697D01*
X17030286Y-11837697D02*
X17049334Y-11828173D01*
X17049334Y-11828173D02*
X17096953Y-11828173D01*
X17096953Y-11828173D02*
X17116001Y-11818649D01*
X17182667Y-11771030D02*
X17258858Y-11771030D01*
X17211239Y-11704364D02*
X17211239Y-11875792D01*
X17211239Y-11875792D02*
X17220762Y-11894840D01*
X17220762Y-11894840D02*
X17239810Y-11904364D01*
X17239810Y-11904364D02*
X17258858Y-11904364D01*
X17401715Y-11894840D02*
X17382667Y-11904364D01*
X17382667Y-11904364D02*
X17344572Y-11904364D01*
X17344572Y-11904364D02*
X17325524Y-11894840D01*
X17325524Y-11894840D02*
X17316001Y-11875792D01*
X17316001Y-11875792D02*
X17316001Y-11799602D01*
X17316001Y-11799602D02*
X17325524Y-11780554D01*
X17325524Y-11780554D02*
X17344572Y-11771030D01*
X17344572Y-11771030D02*
X17382667Y-11771030D01*
X17382667Y-11771030D02*
X17401715Y-11780554D01*
X17401715Y-11780554D02*
X17411239Y-11799602D01*
X17411239Y-11799602D02*
X17411239Y-11818649D01*
X17411239Y-11818649D02*
X17316001Y-11837697D01*
X17582667Y-11904364D02*
X17582667Y-11704364D01*
X17582667Y-11894840D02*
X17563620Y-11904364D01*
X17563620Y-11904364D02*
X17525524Y-11904364D01*
X17525524Y-11904364D02*
X17506477Y-11894840D01*
X17506477Y-11894840D02*
X17496953Y-11885316D01*
X17496953Y-11885316D02*
X17487429Y-11866268D01*
X17487429Y-11866268D02*
X17487429Y-11809126D01*
X17487429Y-11809126D02*
X17496953Y-11790078D01*
X17496953Y-11790078D02*
X17506477Y-11780554D01*
X17506477Y-11780554D02*
X17525524Y-11771030D01*
X17525524Y-11771030D02*
X17563620Y-11771030D01*
X17563620Y-11771030D02*
X17582667Y-11780554D01*
X17658858Y-11980554D02*
X17668382Y-11971030D01*
X17668382Y-11971030D02*
X17687429Y-11942459D01*
X17687429Y-11942459D02*
X17696953Y-11923411D01*
X17696953Y-11923411D02*
X17706477Y-11894840D01*
X17706477Y-11894840D02*
X17716001Y-11847221D01*
X17716001Y-11847221D02*
X17716001Y-11809126D01*
X17716001Y-11809126D02*
X17706477Y-11761507D01*
X17706477Y-11761507D02*
X17696953Y-11732935D01*
X17696953Y-11732935D02*
X17687429Y-11713888D01*
X17687429Y-11713888D02*
X17668382Y-11685316D01*
X17668382Y-11685316D02*
X17658858Y-11675792D01*
D13*
X10916000Y-12075840D02*
G75*
G03*
X10916000Y-12075840I-50000J0D01*
G01*
D11*
X11268381Y-12168364D02*
X11154095Y-12168364D01*
X11211238Y-12168364D02*
X11211238Y-11968364D01*
X11211238Y-11968364D02*
X11192190Y-11996935D01*
X11192190Y-11996935D02*
X11173143Y-12015983D01*
X11173143Y-12015983D02*
X11154095Y-12025507D01*
X11354095Y-12149316D02*
X11363619Y-12158840D01*
X11363619Y-12158840D02*
X11354095Y-12168364D01*
X11354095Y-12168364D02*
X11344571Y-12158840D01*
X11344571Y-12158840D02*
X11354095Y-12149316D01*
X11354095Y-12149316D02*
X11354095Y-12168364D01*
X11487428Y-11968364D02*
X11506476Y-11968364D01*
X11506476Y-11968364D02*
X11525524Y-11977888D01*
X11525524Y-11977888D02*
X11535048Y-11987411D01*
X11535048Y-11987411D02*
X11544571Y-12006459D01*
X11544571Y-12006459D02*
X11554095Y-12044554D01*
X11554095Y-12044554D02*
X11554095Y-12092173D01*
X11554095Y-12092173D02*
X11544571Y-12130268D01*
X11544571Y-12130268D02*
X11535048Y-12149316D01*
X11535048Y-12149316D02*
X11525524Y-12158840D01*
X11525524Y-12158840D02*
X11506476Y-12168364D01*
X11506476Y-12168364D02*
X11487428Y-12168364D01*
X11487428Y-12168364D02*
X11468381Y-12158840D01*
X11468381Y-12158840D02*
X11458857Y-12149316D01*
X11458857Y-12149316D02*
X11449333Y-12130268D01*
X11449333Y-12130268D02*
X11439809Y-12092173D01*
X11439809Y-12092173D02*
X11439809Y-12044554D01*
X11439809Y-12044554D02*
X11449333Y-12006459D01*
X11449333Y-12006459D02*
X11458857Y-11987411D01*
X11458857Y-11987411D02*
X11468381Y-11977888D01*
X11468381Y-11977888D02*
X11487428Y-11968364D01*
X11677905Y-11968364D02*
X11696952Y-11968364D01*
X11696952Y-11968364D02*
X11716000Y-11977888D01*
X11716000Y-11977888D02*
X11725524Y-11987411D01*
X11725524Y-11987411D02*
X11735048Y-12006459D01*
X11735048Y-12006459D02*
X11744571Y-12044554D01*
X11744571Y-12044554D02*
X11744571Y-12092173D01*
X11744571Y-12092173D02*
X11735048Y-12130268D01*
X11735048Y-12130268D02*
X11725524Y-12149316D01*
X11725524Y-12149316D02*
X11716000Y-12158840D01*
X11716000Y-12158840D02*
X11696952Y-12168364D01*
X11696952Y-12168364D02*
X11677905Y-12168364D01*
X11677905Y-12168364D02*
X11658857Y-12158840D01*
X11658857Y-12158840D02*
X11649333Y-12149316D01*
X11649333Y-12149316D02*
X11639809Y-12130268D01*
X11639809Y-12130268D02*
X11630286Y-12092173D01*
X11630286Y-12092173D02*
X11630286Y-12044554D01*
X11630286Y-12044554D02*
X11639809Y-12006459D01*
X11639809Y-12006459D02*
X11649333Y-11987411D01*
X11649333Y-11987411D02*
X11658857Y-11977888D01*
X11658857Y-11977888D02*
X11677905Y-11968364D01*
X11868381Y-11968364D02*
X11887429Y-11968364D01*
X11887429Y-11968364D02*
X11906476Y-11977888D01*
X11906476Y-11977888D02*
X11916000Y-11987411D01*
X11916000Y-11987411D02*
X11925524Y-12006459D01*
X11925524Y-12006459D02*
X11935048Y-12044554D01*
X11935048Y-12044554D02*
X11935048Y-12092173D01*
X11935048Y-12092173D02*
X11925524Y-12130268D01*
X11925524Y-12130268D02*
X11916000Y-12149316D01*
X11916000Y-12149316D02*
X11906476Y-12158840D01*
X11906476Y-12158840D02*
X11887429Y-12168364D01*
X11887429Y-12168364D02*
X11868381Y-12168364D01*
X11868381Y-12168364D02*
X11849333Y-12158840D01*
X11849333Y-12158840D02*
X11839809Y-12149316D01*
X11839809Y-12149316D02*
X11830286Y-12130268D01*
X11830286Y-12130268D02*
X11820762Y-12092173D01*
X11820762Y-12092173D02*
X11820762Y-12044554D01*
X11820762Y-12044554D02*
X11830286Y-12006459D01*
X11830286Y-12006459D02*
X11839809Y-11987411D01*
X11839809Y-11987411D02*
X11849333Y-11977888D01*
X11849333Y-11977888D02*
X11868381Y-11968364D01*
X12020762Y-12168364D02*
X12020762Y-12035030D01*
X12020762Y-12054078D02*
X12030286Y-12044554D01*
X12030286Y-12044554D02*
X12049333Y-12035030D01*
X12049333Y-12035030D02*
X12077905Y-12035030D01*
X12077905Y-12035030D02*
X12096952Y-12044554D01*
X12096952Y-12044554D02*
X12106476Y-12063602D01*
X12106476Y-12063602D02*
X12106476Y-12168364D01*
X12106476Y-12063602D02*
X12116000Y-12044554D01*
X12116000Y-12044554D02*
X12135048Y-12035030D01*
X12135048Y-12035030D02*
X12163619Y-12035030D01*
X12163619Y-12035030D02*
X12182667Y-12044554D01*
X12182667Y-12044554D02*
X12192190Y-12063602D01*
X12192190Y-12063602D02*
X12192190Y-12168364D01*
X12287429Y-12168364D02*
X12287429Y-12035030D01*
X12287429Y-12054078D02*
X12296952Y-12044554D01*
X12296952Y-12044554D02*
X12316000Y-12035030D01*
X12316000Y-12035030D02*
X12344571Y-12035030D01*
X12344571Y-12035030D02*
X12363619Y-12044554D01*
X12363619Y-12044554D02*
X12373143Y-12063602D01*
X12373143Y-12063602D02*
X12373143Y-12168364D01*
X12373143Y-12063602D02*
X12382667Y-12044554D01*
X12382667Y-12044554D02*
X12401714Y-12035030D01*
X12401714Y-12035030D02*
X12430286Y-12035030D01*
X12430286Y-12035030D02*
X12449333Y-12044554D01*
X12449333Y-12044554D02*
X12458857Y-12063602D01*
X12458857Y-12063602D02*
X12458857Y-12168364D01*
X12849333Y-11958840D02*
X12677905Y-12215983D01*
X13106476Y-11968364D02*
X13125524Y-11968364D01*
X13125524Y-11968364D02*
X13144572Y-11977888D01*
X13144572Y-11977888D02*
X13154095Y-11987411D01*
X13154095Y-11987411D02*
X13163619Y-12006459D01*
X13163619Y-12006459D02*
X13173143Y-12044554D01*
X13173143Y-12044554D02*
X13173143Y-12092173D01*
X13173143Y-12092173D02*
X13163619Y-12130268D01*
X13163619Y-12130268D02*
X13154095Y-12149316D01*
X13154095Y-12149316D02*
X13144572Y-12158840D01*
X13144572Y-12158840D02*
X13125524Y-12168364D01*
X13125524Y-12168364D02*
X13106476Y-12168364D01*
X13106476Y-12168364D02*
X13087429Y-12158840D01*
X13087429Y-12158840D02*
X13077905Y-12149316D01*
X13077905Y-12149316D02*
X13068381Y-12130268D01*
X13068381Y-12130268D02*
X13058857Y-12092173D01*
X13058857Y-12092173D02*
X13058857Y-12044554D01*
X13058857Y-12044554D02*
X13068381Y-12006459D01*
X13068381Y-12006459D02*
X13077905Y-11987411D01*
X13077905Y-11987411D02*
X13087429Y-11977888D01*
X13087429Y-11977888D02*
X13106476Y-11968364D01*
X13258857Y-12149316D02*
X13268381Y-12158840D01*
X13268381Y-12158840D02*
X13258857Y-12168364D01*
X13258857Y-12168364D02*
X13249333Y-12158840D01*
X13249333Y-12158840D02*
X13258857Y-12149316D01*
X13258857Y-12149316D02*
X13258857Y-12168364D01*
X13392191Y-11968364D02*
X13411238Y-11968364D01*
X13411238Y-11968364D02*
X13430286Y-11977888D01*
X13430286Y-11977888D02*
X13439810Y-11987411D01*
X13439810Y-11987411D02*
X13449333Y-12006459D01*
X13449333Y-12006459D02*
X13458857Y-12044554D01*
X13458857Y-12044554D02*
X13458857Y-12092173D01*
X13458857Y-12092173D02*
X13449333Y-12130268D01*
X13449333Y-12130268D02*
X13439810Y-12149316D01*
X13439810Y-12149316D02*
X13430286Y-12158840D01*
X13430286Y-12158840D02*
X13411238Y-12168364D01*
X13411238Y-12168364D02*
X13392191Y-12168364D01*
X13392191Y-12168364D02*
X13373143Y-12158840D01*
X13373143Y-12158840D02*
X13363619Y-12149316D01*
X13363619Y-12149316D02*
X13354095Y-12130268D01*
X13354095Y-12130268D02*
X13344572Y-12092173D01*
X13344572Y-12092173D02*
X13344572Y-12044554D01*
X13344572Y-12044554D02*
X13354095Y-12006459D01*
X13354095Y-12006459D02*
X13363619Y-11987411D01*
X13363619Y-11987411D02*
X13373143Y-11977888D01*
X13373143Y-11977888D02*
X13392191Y-11968364D01*
X13525524Y-11968364D02*
X13649333Y-11968364D01*
X13649333Y-11968364D02*
X13582667Y-12044554D01*
X13582667Y-12044554D02*
X13611238Y-12044554D01*
X13611238Y-12044554D02*
X13630286Y-12054078D01*
X13630286Y-12054078D02*
X13639810Y-12063602D01*
X13639810Y-12063602D02*
X13649333Y-12082649D01*
X13649333Y-12082649D02*
X13649333Y-12130268D01*
X13649333Y-12130268D02*
X13639810Y-12149316D01*
X13639810Y-12149316D02*
X13630286Y-12158840D01*
X13630286Y-12158840D02*
X13611238Y-12168364D01*
X13611238Y-12168364D02*
X13554095Y-12168364D01*
X13554095Y-12168364D02*
X13535048Y-12158840D01*
X13535048Y-12158840D02*
X13525524Y-12149316D01*
X13744572Y-12168364D02*
X13782667Y-12168364D01*
X13782667Y-12168364D02*
X13801714Y-12158840D01*
X13801714Y-12158840D02*
X13811238Y-12149316D01*
X13811238Y-12149316D02*
X13830286Y-12120745D01*
X13830286Y-12120745D02*
X13839810Y-12082649D01*
X13839810Y-12082649D02*
X13839810Y-12006459D01*
X13839810Y-12006459D02*
X13830286Y-11987411D01*
X13830286Y-11987411D02*
X13820762Y-11977888D01*
X13820762Y-11977888D02*
X13801714Y-11968364D01*
X13801714Y-11968364D02*
X13763619Y-11968364D01*
X13763619Y-11968364D02*
X13744572Y-11977888D01*
X13744572Y-11977888D02*
X13735048Y-11987411D01*
X13735048Y-11987411D02*
X13725524Y-12006459D01*
X13725524Y-12006459D02*
X13725524Y-12054078D01*
X13725524Y-12054078D02*
X13735048Y-12073126D01*
X13735048Y-12073126D02*
X13744572Y-12082649D01*
X13744572Y-12082649D02*
X13763619Y-12092173D01*
X13763619Y-12092173D02*
X13801714Y-12092173D01*
X13801714Y-12092173D02*
X13820762Y-12082649D01*
X13820762Y-12082649D02*
X13830286Y-12073126D01*
X13830286Y-12073126D02*
X13839810Y-12054078D01*
X14011238Y-12035030D02*
X14011238Y-12168364D01*
X13963619Y-11958840D02*
X13916000Y-12101697D01*
X13916000Y-12101697D02*
X14039810Y-12101697D01*
X14106476Y-11968364D02*
X14106476Y-12006459D01*
X14182667Y-11968364D02*
X14182667Y-12006459D01*
X14477905Y-12244554D02*
X14468381Y-12235030D01*
X14468381Y-12235030D02*
X14449334Y-12206459D01*
X14449334Y-12206459D02*
X14439810Y-12187411D01*
X14439810Y-12187411D02*
X14430286Y-12158840D01*
X14430286Y-12158840D02*
X14420762Y-12111221D01*
X14420762Y-12111221D02*
X14420762Y-12073126D01*
X14420762Y-12073126D02*
X14430286Y-12025507D01*
X14430286Y-12025507D02*
X14439810Y-11996935D01*
X14439810Y-11996935D02*
X14449334Y-11977888D01*
X14449334Y-11977888D02*
X14468381Y-11949316D01*
X14468381Y-11949316D02*
X14477905Y-11939792D01*
X14544572Y-11987411D02*
X14554095Y-11977888D01*
X14554095Y-11977888D02*
X14573143Y-11968364D01*
X14573143Y-11968364D02*
X14620762Y-11968364D01*
X14620762Y-11968364D02*
X14639810Y-11977888D01*
X14639810Y-11977888D02*
X14649334Y-11987411D01*
X14649334Y-11987411D02*
X14658857Y-12006459D01*
X14658857Y-12006459D02*
X14658857Y-12025507D01*
X14658857Y-12025507D02*
X14649334Y-12054078D01*
X14649334Y-12054078D02*
X14535048Y-12168364D01*
X14535048Y-12168364D02*
X14658857Y-12168364D01*
X14896953Y-12168364D02*
X14896953Y-11968364D01*
X14982667Y-12168364D02*
X14982667Y-12063602D01*
X14982667Y-12063602D02*
X14973143Y-12044554D01*
X14973143Y-12044554D02*
X14954096Y-12035030D01*
X14954096Y-12035030D02*
X14925524Y-12035030D01*
X14925524Y-12035030D02*
X14906476Y-12044554D01*
X14906476Y-12044554D02*
X14896953Y-12054078D01*
X15106476Y-12168364D02*
X15087429Y-12158840D01*
X15087429Y-12158840D02*
X15077905Y-12149316D01*
X15077905Y-12149316D02*
X15068381Y-12130268D01*
X15068381Y-12130268D02*
X15068381Y-12073126D01*
X15068381Y-12073126D02*
X15077905Y-12054078D01*
X15077905Y-12054078D02*
X15087429Y-12044554D01*
X15087429Y-12044554D02*
X15106476Y-12035030D01*
X15106476Y-12035030D02*
X15135048Y-12035030D01*
X15135048Y-12035030D02*
X15154096Y-12044554D01*
X15154096Y-12044554D02*
X15163619Y-12054078D01*
X15163619Y-12054078D02*
X15173143Y-12073126D01*
X15173143Y-12073126D02*
X15173143Y-12130268D01*
X15173143Y-12130268D02*
X15163619Y-12149316D01*
X15163619Y-12149316D02*
X15154096Y-12158840D01*
X15154096Y-12158840D02*
X15135048Y-12168364D01*
X15135048Y-12168364D02*
X15106476Y-12168364D01*
X15287429Y-12168364D02*
X15268381Y-12158840D01*
X15268381Y-12158840D02*
X15258857Y-12139792D01*
X15258857Y-12139792D02*
X15258857Y-11968364D01*
X15439810Y-12158840D02*
X15420762Y-12168364D01*
X15420762Y-12168364D02*
X15382667Y-12168364D01*
X15382667Y-12168364D02*
X15363619Y-12158840D01*
X15363619Y-12158840D02*
X15354096Y-12139792D01*
X15354096Y-12139792D02*
X15354096Y-12063602D01*
X15354096Y-12063602D02*
X15363619Y-12044554D01*
X15363619Y-12044554D02*
X15382667Y-12035030D01*
X15382667Y-12035030D02*
X15420762Y-12035030D01*
X15420762Y-12035030D02*
X15439810Y-12044554D01*
X15439810Y-12044554D02*
X15449334Y-12063602D01*
X15449334Y-12063602D02*
X15449334Y-12082649D01*
X15449334Y-12082649D02*
X15354096Y-12101697D01*
X15525524Y-12158840D02*
X15544572Y-12168364D01*
X15544572Y-12168364D02*
X15582667Y-12168364D01*
X15582667Y-12168364D02*
X15601715Y-12158840D01*
X15601715Y-12158840D02*
X15611238Y-12139792D01*
X15611238Y-12139792D02*
X15611238Y-12130268D01*
X15611238Y-12130268D02*
X15601715Y-12111221D01*
X15601715Y-12111221D02*
X15582667Y-12101697D01*
X15582667Y-12101697D02*
X15554096Y-12101697D01*
X15554096Y-12101697D02*
X15535048Y-12092173D01*
X15535048Y-12092173D02*
X15525524Y-12073126D01*
X15525524Y-12073126D02*
X15525524Y-12063602D01*
X15525524Y-12063602D02*
X15535048Y-12044554D01*
X15535048Y-12044554D02*
X15554096Y-12035030D01*
X15554096Y-12035030D02*
X15582667Y-12035030D01*
X15582667Y-12035030D02*
X15601715Y-12044554D01*
X15677905Y-12244554D02*
X15687429Y-12235030D01*
X15687429Y-12235030D02*
X15706477Y-12206459D01*
X15706477Y-12206459D02*
X15716000Y-12187411D01*
X15716000Y-12187411D02*
X15725524Y-12158840D01*
X15725524Y-12158840D02*
X15735048Y-12111221D01*
X15735048Y-12111221D02*
X15735048Y-12073126D01*
X15735048Y-12073126D02*
X15725524Y-12025507D01*
X15725524Y-12025507D02*
X15716000Y-11996935D01*
X15716000Y-11996935D02*
X15706477Y-11977888D01*
X15706477Y-11977888D02*
X15687429Y-11949316D01*
X15687429Y-11949316D02*
X15677905Y-11939792D01*
X16039810Y-12244554D02*
X16030286Y-12235030D01*
X16030286Y-12235030D02*
X16011238Y-12206459D01*
X16011238Y-12206459D02*
X16001715Y-12187411D01*
X16001715Y-12187411D02*
X15992191Y-12158840D01*
X15992191Y-12158840D02*
X15982667Y-12111221D01*
X15982667Y-12111221D02*
X15982667Y-12073126D01*
X15982667Y-12073126D02*
X15992191Y-12025507D01*
X15992191Y-12025507D02*
X16001715Y-11996935D01*
X16001715Y-11996935D02*
X16011238Y-11977888D01*
X16011238Y-11977888D02*
X16030286Y-11949316D01*
X16030286Y-11949316D02*
X16039810Y-11939792D01*
X16116000Y-12035030D02*
X16116000Y-12168364D01*
X16116000Y-12054078D02*
X16125524Y-12044554D01*
X16125524Y-12044554D02*
X16144572Y-12035030D01*
X16144572Y-12035030D02*
X16173143Y-12035030D01*
X16173143Y-12035030D02*
X16192191Y-12044554D01*
X16192191Y-12044554D02*
X16201715Y-12063602D01*
X16201715Y-12063602D02*
X16201715Y-12168364D01*
X16325524Y-12168364D02*
X16306477Y-12158840D01*
X16306477Y-12158840D02*
X16296953Y-12149316D01*
X16296953Y-12149316D02*
X16287429Y-12130268D01*
X16287429Y-12130268D02*
X16287429Y-12073126D01*
X16287429Y-12073126D02*
X16296953Y-12054078D01*
X16296953Y-12054078D02*
X16306477Y-12044554D01*
X16306477Y-12044554D02*
X16325524Y-12035030D01*
X16325524Y-12035030D02*
X16354096Y-12035030D01*
X16354096Y-12035030D02*
X16373143Y-12044554D01*
X16373143Y-12044554D02*
X16382667Y-12054078D01*
X16382667Y-12054078D02*
X16392191Y-12073126D01*
X16392191Y-12073126D02*
X16392191Y-12130268D01*
X16392191Y-12130268D02*
X16382667Y-12149316D01*
X16382667Y-12149316D02*
X16373143Y-12158840D01*
X16373143Y-12158840D02*
X16354096Y-12168364D01*
X16354096Y-12168364D02*
X16325524Y-12168364D01*
X16449334Y-12035030D02*
X16525524Y-12035030D01*
X16477905Y-11968364D02*
X16477905Y-12139792D01*
X16477905Y-12139792D02*
X16487429Y-12158840D01*
X16487429Y-12158840D02*
X16506477Y-12168364D01*
X16506477Y-12168364D02*
X16525524Y-12168364D01*
X16744572Y-12035030D02*
X16744572Y-12235030D01*
X16744572Y-12044554D02*
X16763619Y-12035030D01*
X16763619Y-12035030D02*
X16801715Y-12035030D01*
X16801715Y-12035030D02*
X16820762Y-12044554D01*
X16820762Y-12044554D02*
X16830286Y-12054078D01*
X16830286Y-12054078D02*
X16839810Y-12073126D01*
X16839810Y-12073126D02*
X16839810Y-12130268D01*
X16839810Y-12130268D02*
X16830286Y-12149316D01*
X16830286Y-12149316D02*
X16820762Y-12158840D01*
X16820762Y-12158840D02*
X16801715Y-12168364D01*
X16801715Y-12168364D02*
X16763619Y-12168364D01*
X16763619Y-12168364D02*
X16744572Y-12158840D01*
X16954096Y-12168364D02*
X16935048Y-12158840D01*
X16935048Y-12158840D02*
X16925524Y-12139792D01*
X16925524Y-12139792D02*
X16925524Y-11968364D01*
X17116001Y-12168364D02*
X17116001Y-12063602D01*
X17116001Y-12063602D02*
X17106477Y-12044554D01*
X17106477Y-12044554D02*
X17087429Y-12035030D01*
X17087429Y-12035030D02*
X17049334Y-12035030D01*
X17049334Y-12035030D02*
X17030286Y-12044554D01*
X17116001Y-12158840D02*
X17096953Y-12168364D01*
X17096953Y-12168364D02*
X17049334Y-12168364D01*
X17049334Y-12168364D02*
X17030286Y-12158840D01*
X17030286Y-12158840D02*
X17020762Y-12139792D01*
X17020762Y-12139792D02*
X17020762Y-12120745D01*
X17020762Y-12120745D02*
X17030286Y-12101697D01*
X17030286Y-12101697D02*
X17049334Y-12092173D01*
X17049334Y-12092173D02*
X17096953Y-12092173D01*
X17096953Y-12092173D02*
X17116001Y-12082649D01*
X17182667Y-12035030D02*
X17258858Y-12035030D01*
X17211239Y-11968364D02*
X17211239Y-12139792D01*
X17211239Y-12139792D02*
X17220762Y-12158840D01*
X17220762Y-12158840D02*
X17239810Y-12168364D01*
X17239810Y-12168364D02*
X17258858Y-12168364D01*
X17401715Y-12158840D02*
X17382667Y-12168364D01*
X17382667Y-12168364D02*
X17344572Y-12168364D01*
X17344572Y-12168364D02*
X17325524Y-12158840D01*
X17325524Y-12158840D02*
X17316001Y-12139792D01*
X17316001Y-12139792D02*
X17316001Y-12063602D01*
X17316001Y-12063602D02*
X17325524Y-12044554D01*
X17325524Y-12044554D02*
X17344572Y-12035030D01*
X17344572Y-12035030D02*
X17382667Y-12035030D01*
X17382667Y-12035030D02*
X17401715Y-12044554D01*
X17401715Y-12044554D02*
X17411239Y-12063602D01*
X17411239Y-12063602D02*
X17411239Y-12082649D01*
X17411239Y-12082649D02*
X17316001Y-12101697D01*
X17582667Y-12168364D02*
X17582667Y-11968364D01*
X17582667Y-12158840D02*
X17563620Y-12168364D01*
X17563620Y-12168364D02*
X17525524Y-12168364D01*
X17525524Y-12168364D02*
X17506477Y-12158840D01*
X17506477Y-12158840D02*
X17496953Y-12149316D01*
X17496953Y-12149316D02*
X17487429Y-12130268D01*
X17487429Y-12130268D02*
X17487429Y-12073126D01*
X17487429Y-12073126D02*
X17496953Y-12054078D01*
X17496953Y-12054078D02*
X17506477Y-12044554D01*
X17506477Y-12044554D02*
X17525524Y-12035030D01*
X17525524Y-12035030D02*
X17563620Y-12035030D01*
X17563620Y-12035030D02*
X17582667Y-12044554D01*
X17658858Y-12244554D02*
X17668382Y-12235030D01*
X17668382Y-12235030D02*
X17687429Y-12206459D01*
X17687429Y-12206459D02*
X17696953Y-12187411D01*
X17696953Y-12187411D02*
X17706477Y-12158840D01*
X17706477Y-12158840D02*
X17716001Y-12111221D01*
X17716001Y-12111221D02*
X17716001Y-12073126D01*
X17716001Y-12073126D02*
X17706477Y-12025507D01*
X17706477Y-12025507D02*
X17696953Y-11996935D01*
X17696953Y-11996935D02*
X17687429Y-11977888D01*
X17687429Y-11977888D02*
X17668382Y-11949316D01*
X17668382Y-11949316D02*
X17658858Y-11939792D01*
X10816000Y-12239840D02*
X10816000Y-12439840D01*
X10716000Y-12339840D02*
X10916000Y-12339840D01*
X11144571Y-12232364D02*
X11268381Y-12232364D01*
X11268381Y-12232364D02*
X11201714Y-12308554D01*
X11201714Y-12308554D02*
X11230286Y-12308554D01*
X11230286Y-12308554D02*
X11249333Y-12318078D01*
X11249333Y-12318078D02*
X11258857Y-12327602D01*
X11258857Y-12327602D02*
X11268381Y-12346649D01*
X11268381Y-12346649D02*
X11268381Y-12394268D01*
X11268381Y-12394268D02*
X11258857Y-12413316D01*
X11258857Y-12413316D02*
X11249333Y-12422840D01*
X11249333Y-12422840D02*
X11230286Y-12432364D01*
X11230286Y-12432364D02*
X11173143Y-12432364D01*
X11173143Y-12432364D02*
X11154095Y-12422840D01*
X11154095Y-12422840D02*
X11144571Y-12413316D01*
X11354095Y-12413316D02*
X11363619Y-12422840D01*
X11363619Y-12422840D02*
X11354095Y-12432364D01*
X11354095Y-12432364D02*
X11344571Y-12422840D01*
X11344571Y-12422840D02*
X11354095Y-12413316D01*
X11354095Y-12413316D02*
X11354095Y-12432364D01*
X11439809Y-12251411D02*
X11449333Y-12241888D01*
X11449333Y-12241888D02*
X11468381Y-12232364D01*
X11468381Y-12232364D02*
X11516000Y-12232364D01*
X11516000Y-12232364D02*
X11535048Y-12241888D01*
X11535048Y-12241888D02*
X11544571Y-12251411D01*
X11544571Y-12251411D02*
X11554095Y-12270459D01*
X11554095Y-12270459D02*
X11554095Y-12289507D01*
X11554095Y-12289507D02*
X11544571Y-12318078D01*
X11544571Y-12318078D02*
X11430286Y-12432364D01*
X11430286Y-12432364D02*
X11554095Y-12432364D01*
X11677905Y-12232364D02*
X11696952Y-12232364D01*
X11696952Y-12232364D02*
X11716000Y-12241888D01*
X11716000Y-12241888D02*
X11725524Y-12251411D01*
X11725524Y-12251411D02*
X11735048Y-12270459D01*
X11735048Y-12270459D02*
X11744571Y-12308554D01*
X11744571Y-12308554D02*
X11744571Y-12356173D01*
X11744571Y-12356173D02*
X11735048Y-12394268D01*
X11735048Y-12394268D02*
X11725524Y-12413316D01*
X11725524Y-12413316D02*
X11716000Y-12422840D01*
X11716000Y-12422840D02*
X11696952Y-12432364D01*
X11696952Y-12432364D02*
X11677905Y-12432364D01*
X11677905Y-12432364D02*
X11658857Y-12422840D01*
X11658857Y-12422840D02*
X11649333Y-12413316D01*
X11649333Y-12413316D02*
X11639809Y-12394268D01*
X11639809Y-12394268D02*
X11630286Y-12356173D01*
X11630286Y-12356173D02*
X11630286Y-12308554D01*
X11630286Y-12308554D02*
X11639809Y-12270459D01*
X11639809Y-12270459D02*
X11649333Y-12251411D01*
X11649333Y-12251411D02*
X11658857Y-12241888D01*
X11658857Y-12241888D02*
X11677905Y-12232364D01*
X11868381Y-12232364D02*
X11887429Y-12232364D01*
X11887429Y-12232364D02*
X11906476Y-12241888D01*
X11906476Y-12241888D02*
X11916000Y-12251411D01*
X11916000Y-12251411D02*
X11925524Y-12270459D01*
X11925524Y-12270459D02*
X11935048Y-12308554D01*
X11935048Y-12308554D02*
X11935048Y-12356173D01*
X11935048Y-12356173D02*
X11925524Y-12394268D01*
X11925524Y-12394268D02*
X11916000Y-12413316D01*
X11916000Y-12413316D02*
X11906476Y-12422840D01*
X11906476Y-12422840D02*
X11887429Y-12432364D01*
X11887429Y-12432364D02*
X11868381Y-12432364D01*
X11868381Y-12432364D02*
X11849333Y-12422840D01*
X11849333Y-12422840D02*
X11839809Y-12413316D01*
X11839809Y-12413316D02*
X11830286Y-12394268D01*
X11830286Y-12394268D02*
X11820762Y-12356173D01*
X11820762Y-12356173D02*
X11820762Y-12308554D01*
X11820762Y-12308554D02*
X11830286Y-12270459D01*
X11830286Y-12270459D02*
X11839809Y-12251411D01*
X11839809Y-12251411D02*
X11849333Y-12241888D01*
X11849333Y-12241888D02*
X11868381Y-12232364D01*
X12020762Y-12432364D02*
X12020762Y-12299030D01*
X12020762Y-12318078D02*
X12030286Y-12308554D01*
X12030286Y-12308554D02*
X12049333Y-12299030D01*
X12049333Y-12299030D02*
X12077905Y-12299030D01*
X12077905Y-12299030D02*
X12096952Y-12308554D01*
X12096952Y-12308554D02*
X12106476Y-12327602D01*
X12106476Y-12327602D02*
X12106476Y-12432364D01*
X12106476Y-12327602D02*
X12116000Y-12308554D01*
X12116000Y-12308554D02*
X12135048Y-12299030D01*
X12135048Y-12299030D02*
X12163619Y-12299030D01*
X12163619Y-12299030D02*
X12182667Y-12308554D01*
X12182667Y-12308554D02*
X12192190Y-12327602D01*
X12192190Y-12327602D02*
X12192190Y-12432364D01*
X12287429Y-12432364D02*
X12287429Y-12299030D01*
X12287429Y-12318078D02*
X12296952Y-12308554D01*
X12296952Y-12308554D02*
X12316000Y-12299030D01*
X12316000Y-12299030D02*
X12344571Y-12299030D01*
X12344571Y-12299030D02*
X12363619Y-12308554D01*
X12363619Y-12308554D02*
X12373143Y-12327602D01*
X12373143Y-12327602D02*
X12373143Y-12432364D01*
X12373143Y-12327602D02*
X12382667Y-12308554D01*
X12382667Y-12308554D02*
X12401714Y-12299030D01*
X12401714Y-12299030D02*
X12430286Y-12299030D01*
X12430286Y-12299030D02*
X12449333Y-12308554D01*
X12449333Y-12308554D02*
X12458857Y-12327602D01*
X12458857Y-12327602D02*
X12458857Y-12432364D01*
X12849333Y-12222840D02*
X12677905Y-12479983D01*
X13106476Y-12232364D02*
X13125524Y-12232364D01*
X13125524Y-12232364D02*
X13144572Y-12241888D01*
X13144572Y-12241888D02*
X13154095Y-12251411D01*
X13154095Y-12251411D02*
X13163619Y-12270459D01*
X13163619Y-12270459D02*
X13173143Y-12308554D01*
X13173143Y-12308554D02*
X13173143Y-12356173D01*
X13173143Y-12356173D02*
X13163619Y-12394268D01*
X13163619Y-12394268D02*
X13154095Y-12413316D01*
X13154095Y-12413316D02*
X13144572Y-12422840D01*
X13144572Y-12422840D02*
X13125524Y-12432364D01*
X13125524Y-12432364D02*
X13106476Y-12432364D01*
X13106476Y-12432364D02*
X13087429Y-12422840D01*
X13087429Y-12422840D02*
X13077905Y-12413316D01*
X13077905Y-12413316D02*
X13068381Y-12394268D01*
X13068381Y-12394268D02*
X13058857Y-12356173D01*
X13058857Y-12356173D02*
X13058857Y-12308554D01*
X13058857Y-12308554D02*
X13068381Y-12270459D01*
X13068381Y-12270459D02*
X13077905Y-12251411D01*
X13077905Y-12251411D02*
X13087429Y-12241888D01*
X13087429Y-12241888D02*
X13106476Y-12232364D01*
X13258857Y-12413316D02*
X13268381Y-12422840D01*
X13268381Y-12422840D02*
X13258857Y-12432364D01*
X13258857Y-12432364D02*
X13249333Y-12422840D01*
X13249333Y-12422840D02*
X13258857Y-12413316D01*
X13258857Y-12413316D02*
X13258857Y-12432364D01*
X13458857Y-12432364D02*
X13344572Y-12432364D01*
X13401714Y-12432364D02*
X13401714Y-12232364D01*
X13401714Y-12232364D02*
X13382667Y-12260935D01*
X13382667Y-12260935D02*
X13363619Y-12279983D01*
X13363619Y-12279983D02*
X13344572Y-12289507D01*
X13535048Y-12251411D02*
X13544572Y-12241888D01*
X13544572Y-12241888D02*
X13563619Y-12232364D01*
X13563619Y-12232364D02*
X13611238Y-12232364D01*
X13611238Y-12232364D02*
X13630286Y-12241888D01*
X13630286Y-12241888D02*
X13639810Y-12251411D01*
X13639810Y-12251411D02*
X13649333Y-12270459D01*
X13649333Y-12270459D02*
X13649333Y-12289507D01*
X13649333Y-12289507D02*
X13639810Y-12318078D01*
X13639810Y-12318078D02*
X13525524Y-12432364D01*
X13525524Y-12432364D02*
X13649333Y-12432364D01*
X13820762Y-12232364D02*
X13782667Y-12232364D01*
X13782667Y-12232364D02*
X13763619Y-12241888D01*
X13763619Y-12241888D02*
X13754095Y-12251411D01*
X13754095Y-12251411D02*
X13735048Y-12279983D01*
X13735048Y-12279983D02*
X13725524Y-12318078D01*
X13725524Y-12318078D02*
X13725524Y-12394268D01*
X13725524Y-12394268D02*
X13735048Y-12413316D01*
X13735048Y-12413316D02*
X13744572Y-12422840D01*
X13744572Y-12422840D02*
X13763619Y-12432364D01*
X13763619Y-12432364D02*
X13801714Y-12432364D01*
X13801714Y-12432364D02*
X13820762Y-12422840D01*
X13820762Y-12422840D02*
X13830286Y-12413316D01*
X13830286Y-12413316D02*
X13839810Y-12394268D01*
X13839810Y-12394268D02*
X13839810Y-12346649D01*
X13839810Y-12346649D02*
X13830286Y-12327602D01*
X13830286Y-12327602D02*
X13820762Y-12318078D01*
X13820762Y-12318078D02*
X13801714Y-12308554D01*
X13801714Y-12308554D02*
X13763619Y-12308554D01*
X13763619Y-12308554D02*
X13744572Y-12318078D01*
X13744572Y-12318078D02*
X13735048Y-12327602D01*
X13735048Y-12327602D02*
X13725524Y-12346649D01*
X13963619Y-12232364D02*
X13982667Y-12232364D01*
X13982667Y-12232364D02*
X14001714Y-12241888D01*
X14001714Y-12241888D02*
X14011238Y-12251411D01*
X14011238Y-12251411D02*
X14020762Y-12270459D01*
X14020762Y-12270459D02*
X14030286Y-12308554D01*
X14030286Y-12308554D02*
X14030286Y-12356173D01*
X14030286Y-12356173D02*
X14020762Y-12394268D01*
X14020762Y-12394268D02*
X14011238Y-12413316D01*
X14011238Y-12413316D02*
X14001714Y-12422840D01*
X14001714Y-12422840D02*
X13982667Y-12432364D01*
X13982667Y-12432364D02*
X13963619Y-12432364D01*
X13963619Y-12432364D02*
X13944572Y-12422840D01*
X13944572Y-12422840D02*
X13935048Y-12413316D01*
X13935048Y-12413316D02*
X13925524Y-12394268D01*
X13925524Y-12394268D02*
X13916000Y-12356173D01*
X13916000Y-12356173D02*
X13916000Y-12308554D01*
X13916000Y-12308554D02*
X13925524Y-12270459D01*
X13925524Y-12270459D02*
X13935048Y-12251411D01*
X13935048Y-12251411D02*
X13944572Y-12241888D01*
X13944572Y-12241888D02*
X13963619Y-12232364D01*
X14106476Y-12232364D02*
X14106476Y-12270459D01*
X14182667Y-12232364D02*
X14182667Y-12270459D01*
X14477905Y-12508554D02*
X14468381Y-12499030D01*
X14468381Y-12499030D02*
X14449334Y-12470459D01*
X14449334Y-12470459D02*
X14439810Y-12451411D01*
X14439810Y-12451411D02*
X14430286Y-12422840D01*
X14430286Y-12422840D02*
X14420762Y-12375221D01*
X14420762Y-12375221D02*
X14420762Y-12337126D01*
X14420762Y-12337126D02*
X14430286Y-12289507D01*
X14430286Y-12289507D02*
X14439810Y-12260935D01*
X14439810Y-12260935D02*
X14449334Y-12241888D01*
X14449334Y-12241888D02*
X14468381Y-12213316D01*
X14468381Y-12213316D02*
X14477905Y-12203792D01*
X14639810Y-12299030D02*
X14639810Y-12432364D01*
X14592191Y-12222840D02*
X14544572Y-12365697D01*
X14544572Y-12365697D02*
X14668381Y-12365697D01*
X14896953Y-12432364D02*
X14896953Y-12232364D01*
X14982667Y-12432364D02*
X14982667Y-12327602D01*
X14982667Y-12327602D02*
X14973143Y-12308554D01*
X14973143Y-12308554D02*
X14954096Y-12299030D01*
X14954096Y-12299030D02*
X14925524Y-12299030D01*
X14925524Y-12299030D02*
X14906476Y-12308554D01*
X14906476Y-12308554D02*
X14896953Y-12318078D01*
X15106476Y-12432364D02*
X15087429Y-12422840D01*
X15087429Y-12422840D02*
X15077905Y-12413316D01*
X15077905Y-12413316D02*
X15068381Y-12394268D01*
X15068381Y-12394268D02*
X15068381Y-12337126D01*
X15068381Y-12337126D02*
X15077905Y-12318078D01*
X15077905Y-12318078D02*
X15087429Y-12308554D01*
X15087429Y-12308554D02*
X15106476Y-12299030D01*
X15106476Y-12299030D02*
X15135048Y-12299030D01*
X15135048Y-12299030D02*
X15154096Y-12308554D01*
X15154096Y-12308554D02*
X15163619Y-12318078D01*
X15163619Y-12318078D02*
X15173143Y-12337126D01*
X15173143Y-12337126D02*
X15173143Y-12394268D01*
X15173143Y-12394268D02*
X15163619Y-12413316D01*
X15163619Y-12413316D02*
X15154096Y-12422840D01*
X15154096Y-12422840D02*
X15135048Y-12432364D01*
X15135048Y-12432364D02*
X15106476Y-12432364D01*
X15287429Y-12432364D02*
X15268381Y-12422840D01*
X15268381Y-12422840D02*
X15258857Y-12403792D01*
X15258857Y-12403792D02*
X15258857Y-12232364D01*
X15439810Y-12422840D02*
X15420762Y-12432364D01*
X15420762Y-12432364D02*
X15382667Y-12432364D01*
X15382667Y-12432364D02*
X15363619Y-12422840D01*
X15363619Y-12422840D02*
X15354096Y-12403792D01*
X15354096Y-12403792D02*
X15354096Y-12327602D01*
X15354096Y-12327602D02*
X15363619Y-12308554D01*
X15363619Y-12308554D02*
X15382667Y-12299030D01*
X15382667Y-12299030D02*
X15420762Y-12299030D01*
X15420762Y-12299030D02*
X15439810Y-12308554D01*
X15439810Y-12308554D02*
X15449334Y-12327602D01*
X15449334Y-12327602D02*
X15449334Y-12346649D01*
X15449334Y-12346649D02*
X15354096Y-12365697D01*
X15525524Y-12422840D02*
X15544572Y-12432364D01*
X15544572Y-12432364D02*
X15582667Y-12432364D01*
X15582667Y-12432364D02*
X15601715Y-12422840D01*
X15601715Y-12422840D02*
X15611238Y-12403792D01*
X15611238Y-12403792D02*
X15611238Y-12394268D01*
X15611238Y-12394268D02*
X15601715Y-12375221D01*
X15601715Y-12375221D02*
X15582667Y-12365697D01*
X15582667Y-12365697D02*
X15554096Y-12365697D01*
X15554096Y-12365697D02*
X15535048Y-12356173D01*
X15535048Y-12356173D02*
X15525524Y-12337126D01*
X15525524Y-12337126D02*
X15525524Y-12327602D01*
X15525524Y-12327602D02*
X15535048Y-12308554D01*
X15535048Y-12308554D02*
X15554096Y-12299030D01*
X15554096Y-12299030D02*
X15582667Y-12299030D01*
X15582667Y-12299030D02*
X15601715Y-12308554D01*
X15677905Y-12508554D02*
X15687429Y-12499030D01*
X15687429Y-12499030D02*
X15706477Y-12470459D01*
X15706477Y-12470459D02*
X15716000Y-12451411D01*
X15716000Y-12451411D02*
X15725524Y-12422840D01*
X15725524Y-12422840D02*
X15735048Y-12375221D01*
X15735048Y-12375221D02*
X15735048Y-12337126D01*
X15735048Y-12337126D02*
X15725524Y-12289507D01*
X15725524Y-12289507D02*
X15716000Y-12260935D01*
X15716000Y-12260935D02*
X15706477Y-12241888D01*
X15706477Y-12241888D02*
X15687429Y-12213316D01*
X15687429Y-12213316D02*
X15677905Y-12203792D01*
X16039810Y-12508554D02*
X16030286Y-12499030D01*
X16030286Y-12499030D02*
X16011238Y-12470459D01*
X16011238Y-12470459D02*
X16001715Y-12451411D01*
X16001715Y-12451411D02*
X15992191Y-12422840D01*
X15992191Y-12422840D02*
X15982667Y-12375221D01*
X15982667Y-12375221D02*
X15982667Y-12337126D01*
X15982667Y-12337126D02*
X15992191Y-12289507D01*
X15992191Y-12289507D02*
X16001715Y-12260935D01*
X16001715Y-12260935D02*
X16011238Y-12241888D01*
X16011238Y-12241888D02*
X16030286Y-12213316D01*
X16030286Y-12213316D02*
X16039810Y-12203792D01*
X16116000Y-12299030D02*
X16116000Y-12432364D01*
X16116000Y-12318078D02*
X16125524Y-12308554D01*
X16125524Y-12308554D02*
X16144572Y-12299030D01*
X16144572Y-12299030D02*
X16173143Y-12299030D01*
X16173143Y-12299030D02*
X16192191Y-12308554D01*
X16192191Y-12308554D02*
X16201715Y-12327602D01*
X16201715Y-12327602D02*
X16201715Y-12432364D01*
X16325524Y-12432364D02*
X16306477Y-12422840D01*
X16306477Y-12422840D02*
X16296953Y-12413316D01*
X16296953Y-12413316D02*
X16287429Y-12394268D01*
X16287429Y-12394268D02*
X16287429Y-12337126D01*
X16287429Y-12337126D02*
X16296953Y-12318078D01*
X16296953Y-12318078D02*
X16306477Y-12308554D01*
X16306477Y-12308554D02*
X16325524Y-12299030D01*
X16325524Y-12299030D02*
X16354096Y-12299030D01*
X16354096Y-12299030D02*
X16373143Y-12308554D01*
X16373143Y-12308554D02*
X16382667Y-12318078D01*
X16382667Y-12318078D02*
X16392191Y-12337126D01*
X16392191Y-12337126D02*
X16392191Y-12394268D01*
X16392191Y-12394268D02*
X16382667Y-12413316D01*
X16382667Y-12413316D02*
X16373143Y-12422840D01*
X16373143Y-12422840D02*
X16354096Y-12432364D01*
X16354096Y-12432364D02*
X16325524Y-12432364D01*
X16449334Y-12299030D02*
X16525524Y-12299030D01*
X16477905Y-12232364D02*
X16477905Y-12403792D01*
X16477905Y-12403792D02*
X16487429Y-12422840D01*
X16487429Y-12422840D02*
X16506477Y-12432364D01*
X16506477Y-12432364D02*
X16525524Y-12432364D01*
X16744572Y-12299030D02*
X16744572Y-12499030D01*
X16744572Y-12308554D02*
X16763619Y-12299030D01*
X16763619Y-12299030D02*
X16801715Y-12299030D01*
X16801715Y-12299030D02*
X16820762Y-12308554D01*
X16820762Y-12308554D02*
X16830286Y-12318078D01*
X16830286Y-12318078D02*
X16839810Y-12337126D01*
X16839810Y-12337126D02*
X16839810Y-12394268D01*
X16839810Y-12394268D02*
X16830286Y-12413316D01*
X16830286Y-12413316D02*
X16820762Y-12422840D01*
X16820762Y-12422840D02*
X16801715Y-12432364D01*
X16801715Y-12432364D02*
X16763619Y-12432364D01*
X16763619Y-12432364D02*
X16744572Y-12422840D01*
X16954096Y-12432364D02*
X16935048Y-12422840D01*
X16935048Y-12422840D02*
X16925524Y-12403792D01*
X16925524Y-12403792D02*
X16925524Y-12232364D01*
X17116001Y-12432364D02*
X17116001Y-12327602D01*
X17116001Y-12327602D02*
X17106477Y-12308554D01*
X17106477Y-12308554D02*
X17087429Y-12299030D01*
X17087429Y-12299030D02*
X17049334Y-12299030D01*
X17049334Y-12299030D02*
X17030286Y-12308554D01*
X17116001Y-12422840D02*
X17096953Y-12432364D01*
X17096953Y-12432364D02*
X17049334Y-12432364D01*
X17049334Y-12432364D02*
X17030286Y-12422840D01*
X17030286Y-12422840D02*
X17020762Y-12403792D01*
X17020762Y-12403792D02*
X17020762Y-12384745D01*
X17020762Y-12384745D02*
X17030286Y-12365697D01*
X17030286Y-12365697D02*
X17049334Y-12356173D01*
X17049334Y-12356173D02*
X17096953Y-12356173D01*
X17096953Y-12356173D02*
X17116001Y-12346649D01*
X17182667Y-12299030D02*
X17258858Y-12299030D01*
X17211239Y-12232364D02*
X17211239Y-12403792D01*
X17211239Y-12403792D02*
X17220762Y-12422840D01*
X17220762Y-12422840D02*
X17239810Y-12432364D01*
X17239810Y-12432364D02*
X17258858Y-12432364D01*
X17401715Y-12422840D02*
X17382667Y-12432364D01*
X17382667Y-12432364D02*
X17344572Y-12432364D01*
X17344572Y-12432364D02*
X17325524Y-12422840D01*
X17325524Y-12422840D02*
X17316001Y-12403792D01*
X17316001Y-12403792D02*
X17316001Y-12327602D01*
X17316001Y-12327602D02*
X17325524Y-12308554D01*
X17325524Y-12308554D02*
X17344572Y-12299030D01*
X17344572Y-12299030D02*
X17382667Y-12299030D01*
X17382667Y-12299030D02*
X17401715Y-12308554D01*
X17401715Y-12308554D02*
X17411239Y-12327602D01*
X17411239Y-12327602D02*
X17411239Y-12346649D01*
X17411239Y-12346649D02*
X17316001Y-12365697D01*
X17582667Y-12432364D02*
X17582667Y-12232364D01*
X17582667Y-12422840D02*
X17563620Y-12432364D01*
X17563620Y-12432364D02*
X17525524Y-12432364D01*
X17525524Y-12432364D02*
X17506477Y-12422840D01*
X17506477Y-12422840D02*
X17496953Y-12413316D01*
X17496953Y-12413316D02*
X17487429Y-12394268D01*
X17487429Y-12394268D02*
X17487429Y-12337126D01*
X17487429Y-12337126D02*
X17496953Y-12318078D01*
X17496953Y-12318078D02*
X17506477Y-12308554D01*
X17506477Y-12308554D02*
X17525524Y-12299030D01*
X17525524Y-12299030D02*
X17563620Y-12299030D01*
X17563620Y-12299030D02*
X17582667Y-12308554D01*
X17658858Y-12508554D02*
X17668382Y-12499030D01*
X17668382Y-12499030D02*
X17687429Y-12470459D01*
X17687429Y-12470459D02*
X17696953Y-12451411D01*
X17696953Y-12451411D02*
X17706477Y-12422840D01*
X17706477Y-12422840D02*
X17716001Y-12375221D01*
X17716001Y-12375221D02*
X17716001Y-12337126D01*
X17716001Y-12337126D02*
X17706477Y-12289507D01*
X17706477Y-12289507D02*
X17696953Y-12260935D01*
X17696953Y-12260935D02*
X17687429Y-12241888D01*
X17687429Y-12241888D02*
X17668382Y-12213316D01*
X17668382Y-12213316D02*
X17658858Y-12203792D01*
M02*
