G04 #@! TF.GenerationSoftware,KiCad,Pcbnew,7.0.1*
G04 #@! TF.CreationDate,2024-03-04T12:41:05+01:00*
G04 #@! TF.ProjectId,licznik,6c69637a-6e69-46b2-9e6b-696361645f70,rev?*
G04 #@! TF.SameCoordinates,Original*
G04 #@! TF.FileFunction,Copper,L2,Bot*
G04 #@! TF.FilePolarity,Positive*
%FSLAX46Y46*%
G04 Gerber Fmt 4.6, Leading zero omitted, Abs format (unit mm)*
G04 Created by KiCad (PCBNEW 7.0.1) date 2024-03-04 12:41:05*
%MOMM*%
%LPD*%
G01*
G04 APERTURE LIST*
G04 #@! TA.AperFunction,ComponentPad*
%ADD10R,1.700000X1.700000*%
G04 #@! TD*
G04 #@! TA.AperFunction,ComponentPad*
%ADD11O,1.700000X1.700000*%
G04 #@! TD*
G04 #@! TA.AperFunction,ComponentPad*
%ADD12C,1.700000*%
G04 #@! TD*
G04 #@! TA.AperFunction,ComponentPad*
%ADD13R,0.850000X0.850000*%
G04 #@! TD*
G04 #@! TA.AperFunction,ComponentPad*
%ADD14O,0.850000X0.850000*%
G04 #@! TD*
G04 #@! TA.AperFunction,ComponentPad*
%ADD15C,3.300000*%
G04 #@! TD*
G04 #@! TA.AperFunction,ViaPad*
%ADD16C,0.800000*%
G04 #@! TD*
G04 #@! TA.AperFunction,Conductor*
%ADD17C,0.250000*%
G04 #@! TD*
G04 APERTURE END LIST*
D10*
X158770000Y-70612000D03*
D11*
X156230000Y-70612000D03*
D10*
X119100600Y-71628000D03*
D12*
X179030000Y-104280000D03*
D11*
X179030000Y-101740000D03*
X179030000Y-99200000D03*
X179030000Y-96660000D03*
X179030000Y-94120000D03*
D13*
X135737600Y-99152200D03*
D14*
X135737600Y-100152200D03*
D12*
X160300000Y-108650000D03*
D11*
X160300000Y-106110000D03*
X160300000Y-103570000D03*
X160300000Y-101030000D03*
X160300000Y-98490000D03*
X160300000Y-95950000D03*
X160300000Y-93410000D03*
D12*
X170300000Y-106150000D03*
D11*
X170300000Y-103610000D03*
X170300000Y-101070000D03*
X170300000Y-98530000D03*
X170300000Y-95990000D03*
D10*
X123088400Y-71678800D03*
D15*
X179351200Y-109808000D03*
X179241200Y-70478000D03*
X111211200Y-109718000D03*
X111201200Y-70358000D03*
D11*
X111251200Y-82358000D03*
X111251200Y-84898000D03*
X111251200Y-87438000D03*
X111251200Y-89978000D03*
X111251200Y-92518000D03*
X111251200Y-95058000D03*
D12*
X111251200Y-97598000D03*
D10*
X163352000Y-70790200D03*
D11*
X165892000Y-70790200D03*
X168432000Y-70790200D03*
X170972000Y-70790200D03*
X173512000Y-70790200D03*
D10*
X135255000Y-103682800D03*
D11*
X135255000Y-106222800D03*
D16*
X165201600Y-90271600D03*
X165328600Y-86385400D03*
X170180000Y-90271300D03*
X161163000Y-78181200D03*
X168070800Y-73609200D03*
X159236899Y-88286101D03*
X155702000Y-81483200D03*
X157361400Y-88459800D03*
X161264600Y-87325200D03*
X161239200Y-85166200D03*
X157403800Y-78257400D03*
X130403600Y-99085400D03*
X163944900Y-98267200D03*
X129032000Y-85810000D03*
X129032000Y-82981800D03*
X152603200Y-96545400D03*
X164470500Y-101422200D03*
X133578600Y-75539600D03*
X121564400Y-86639400D03*
X133527800Y-86614000D03*
X138557000Y-88214200D03*
X138074400Y-85496400D03*
X142036800Y-73914000D03*
X136728200Y-75514200D03*
X124565899Y-96718901D03*
X109855000Y-93624400D03*
X134010400Y-97637600D03*
X117703600Y-98933000D03*
X150114000Y-80150300D03*
X139344400Y-85115400D03*
X140436600Y-85140800D03*
X141503400Y-85140800D03*
X142586697Y-85166200D03*
X143586200Y-85166200D03*
X163220400Y-99923600D03*
X161770900Y-98992200D03*
X152603200Y-97815400D03*
X125350000Y-74750000D03*
X125350000Y-78650000D03*
X132765800Y-95453200D03*
X120585900Y-94310200D03*
D17*
X165201600Y-90271600D02*
X165201600Y-86512400D01*
X165201600Y-86512400D02*
X165328600Y-86385400D01*
X165506400Y-100386300D02*
X164470500Y-101422200D01*
X170180000Y-90271300D02*
X165506400Y-94944900D01*
X165506400Y-94944900D02*
X165506400Y-100386300D01*
X162306000Y-73609200D02*
X168070800Y-73609200D01*
X161163000Y-74752200D02*
X162306000Y-73609200D01*
X161163000Y-78181200D02*
X161163000Y-74752200D01*
X159236899Y-88286101D02*
X159236899Y-92346899D01*
X159236899Y-92346899D02*
X160300000Y-93410000D01*
X158877000Y-87325200D02*
X161264600Y-87325200D01*
X157742400Y-88459800D02*
X158877000Y-87325200D01*
X157361400Y-88459800D02*
X157742400Y-88459800D01*
X168349800Y-70790200D02*
X168432000Y-70790200D01*
X165995200Y-73144800D02*
X168349800Y-70790200D01*
X157842800Y-73144800D02*
X165995200Y-73144800D01*
X155702000Y-75285600D02*
X157842800Y-73144800D01*
X155702000Y-81483200D02*
X155702000Y-75285600D01*
X161239200Y-82092800D02*
X161239200Y-85166200D01*
X157403800Y-78257400D02*
X161239200Y-82092800D01*
X163905200Y-72694800D02*
X165850000Y-70750000D01*
X150114000Y-80150300D02*
X157569500Y-72694800D01*
X157569500Y-72694800D02*
X163905200Y-72694800D01*
X130411600Y-99093400D02*
X135712200Y-99093400D01*
X130403600Y-99085400D02*
X130411600Y-99093400D01*
X129032000Y-82981800D02*
X129032000Y-85810000D01*
X160522800Y-98267200D02*
X160300000Y-98490000D01*
X163944900Y-98267200D02*
X160522800Y-98267200D01*
X164470500Y-101422200D02*
X164470500Y-101594500D01*
X153212800Y-96545400D02*
X152603200Y-96545400D01*
X159736000Y-104745000D02*
X153887000Y-98896000D01*
X164470500Y-101594500D02*
X161320000Y-104745000D01*
X153887000Y-98896000D02*
X153887000Y-97219600D01*
X153887000Y-97219600D02*
X153212800Y-96545400D01*
X161320000Y-104745000D02*
X159736000Y-104745000D01*
X138404600Y-70637400D02*
X156007400Y-70637400D01*
X133578600Y-75463400D02*
X138404600Y-70637400D01*
X156007400Y-70637400D02*
X156160000Y-70790000D01*
X133578600Y-75539600D02*
X133578600Y-75463400D01*
X121668800Y-86535000D02*
X121564400Y-86639400D01*
X133448800Y-86535000D02*
X121668800Y-86535000D01*
X133527800Y-86614000D02*
X133448800Y-86535000D01*
X138074400Y-85521800D02*
X138074400Y-85496400D01*
X138557000Y-88214200D02*
X138557000Y-86004400D01*
X142036800Y-73914000D02*
X138328400Y-73914000D01*
X138557000Y-86004400D02*
X138353800Y-85801200D01*
X138328400Y-73914000D02*
X136728200Y-75514200D01*
X138353800Y-85801200D02*
X138074400Y-85521800D01*
X110566200Y-98780600D02*
X116814600Y-98780600D01*
X109855000Y-98069400D02*
X110566200Y-98780600D01*
X116814600Y-98780600D02*
X118876299Y-96718901D01*
X118876299Y-96718901D02*
X124565899Y-96718901D01*
X109855000Y-93624400D02*
X109855000Y-98069400D01*
X134010400Y-97637600D02*
X118999000Y-97637600D01*
X118999000Y-97637600D02*
X117703600Y-98933000D01*
X139344400Y-88950800D02*
X139242800Y-89052400D01*
X139242800Y-89052400D02*
X116281200Y-89052400D01*
X116281200Y-89052400D02*
X112126800Y-84898000D01*
X139344400Y-85115400D02*
X139344400Y-88950800D01*
X112126800Y-84898000D02*
X111251200Y-84898000D01*
X111709200Y-86156800D02*
X110413800Y-86156800D01*
X109778800Y-83312000D02*
X110732800Y-82358000D01*
X139369800Y-89966800D02*
X115519200Y-89966800D01*
X109778800Y-85521800D02*
X109778800Y-83312000D01*
X115519200Y-89966800D02*
X111709200Y-86156800D01*
X110732800Y-82358000D02*
X111251200Y-82358000D01*
X140436600Y-85140800D02*
X140436600Y-88900000D01*
X110413800Y-86156800D02*
X109778800Y-85521800D01*
X140436600Y-88900000D02*
X139369800Y-89966800D01*
X141503400Y-88798400D02*
X139522200Y-90779600D01*
X114592800Y-90779600D02*
X111251200Y-87438000D01*
X141503400Y-85140800D02*
X141503400Y-88798400D01*
X139522200Y-90779600D02*
X114592800Y-90779600D01*
X142586697Y-85166200D02*
X142586697Y-88756503D01*
X142586697Y-88756503D02*
X139623800Y-91719400D01*
X112992600Y-91719400D02*
X111251200Y-89978000D01*
X139623800Y-91719400D02*
X112992600Y-91719400D01*
X143586200Y-85166200D02*
X143586200Y-88925400D01*
X143586200Y-88925400D02*
X139993600Y-92518000D01*
X139993600Y-92518000D02*
X111251200Y-92518000D01*
X163220400Y-99923600D02*
X163220400Y-100649600D01*
X163220400Y-100649600D02*
X160300000Y-103570000D01*
X161770900Y-98992200D02*
X161770900Y-99559100D01*
X161770900Y-99559100D02*
X160300000Y-101030000D01*
X152603200Y-98413200D02*
X160300000Y-106110000D01*
X152603200Y-97815400D02*
X152603200Y-98413200D01*
X125350000Y-74750000D02*
X125350000Y-78650000D01*
X120585900Y-95287500D02*
X121107200Y-95808800D01*
X132410200Y-95808800D02*
X132765800Y-95453200D01*
X121107200Y-95808800D02*
X132410200Y-95808800D01*
X120585900Y-94310200D02*
X120585900Y-95287500D01*
G04 #@! TA.AperFunction,Conductor*
G36*
X177843394Y-68621329D02*
G01*
X177888085Y-68661916D01*
X177908313Y-68718797D01*
X177899283Y-68778489D01*
X177863137Y-68826842D01*
X177769940Y-68902664D01*
X177569133Y-69117674D01*
X177399479Y-69358020D01*
X177264126Y-69619239D01*
X177165607Y-69896446D01*
X177105752Y-70184484D01*
X177085674Y-70478000D01*
X177105752Y-70771515D01*
X177165607Y-71059553D01*
X177264126Y-71336760D01*
X177399479Y-71597979D01*
X177569133Y-71838325D01*
X177731653Y-72012340D01*
X177769940Y-72053335D01*
X177915086Y-72171420D01*
X177998151Y-72238999D01*
X178249519Y-72391860D01*
X178408593Y-72460954D01*
X178519359Y-72509067D01*
X178802645Y-72588440D01*
X179094102Y-72628500D01*
X179388298Y-72628500D01*
X179679755Y-72588440D01*
X179963041Y-72509067D01*
X180232882Y-72391859D01*
X180484249Y-72238999D01*
X180712460Y-72053335D01*
X180865964Y-71888972D01*
X180915030Y-71856782D01*
X180973410Y-71850760D01*
X181028019Y-71872258D01*
X181066627Y-71916461D01*
X181080583Y-71973466D01*
X181123477Y-108240386D01*
X181109629Y-108297477D01*
X181071057Y-108341786D01*
X181016420Y-108363370D01*
X180957980Y-108357383D01*
X180908854Y-108325170D01*
X180822460Y-108232665D01*
X180594248Y-108047000D01*
X180342880Y-107894139D01*
X180073046Y-107776935D01*
X180073044Y-107776934D01*
X180073041Y-107776933D01*
X179909656Y-107731154D01*
X179789753Y-107697559D01*
X179498298Y-107657500D01*
X179204102Y-107657500D01*
X178912646Y-107697559D01*
X178716324Y-107752566D01*
X178629359Y-107776933D01*
X178629356Y-107776933D01*
X178629353Y-107776935D01*
X178359519Y-107894139D01*
X178108151Y-108047000D01*
X177879939Y-108232665D01*
X177679133Y-108447674D01*
X177509479Y-108688020D01*
X177374126Y-108949239D01*
X177275607Y-109226446D01*
X177215752Y-109514484D01*
X177195674Y-109808000D01*
X177215752Y-110101515D01*
X177275607Y-110389553D01*
X177374126Y-110666760D01*
X177509479Y-110927979D01*
X177679133Y-111168324D01*
X177847092Y-111348163D01*
X177875403Y-111397717D01*
X177878519Y-111454703D01*
X177855782Y-111507049D01*
X177812008Y-111543667D01*
X177756469Y-111556800D01*
X112707520Y-111556800D01*
X112648974Y-111542108D01*
X112604300Y-111501515D01*
X112584086Y-111444638D01*
X112593122Y-111384957D01*
X112629264Y-111336613D01*
X112682460Y-111293335D01*
X112883265Y-111078326D01*
X112893239Y-111064197D01*
X113052920Y-110837979D01*
X113141637Y-110666764D01*
X113188272Y-110576764D01*
X113286792Y-110299554D01*
X113346648Y-110011511D01*
X113366725Y-109718000D01*
X113346648Y-109424489D01*
X113286792Y-109136446D01*
X113188272Y-108859236D01*
X113052922Y-108598024D01*
X113052920Y-108598020D01*
X112883266Y-108357674D01*
X112682460Y-108142665D01*
X112454248Y-107957000D01*
X112202880Y-107804139D01*
X111933046Y-107686935D01*
X111933044Y-107686934D01*
X111933041Y-107686933D01*
X111769656Y-107641154D01*
X111649753Y-107607559D01*
X111358298Y-107567500D01*
X111064102Y-107567500D01*
X110772646Y-107607559D01*
X110594407Y-107657500D01*
X110489359Y-107686933D01*
X110489356Y-107686933D01*
X110489353Y-107686935D01*
X110219519Y-107804139D01*
X109968151Y-107957000D01*
X109739939Y-108142665D01*
X109561623Y-108333595D01*
X109512525Y-108365798D01*
X109454115Y-108371803D01*
X109399491Y-108350262D01*
X109360902Y-108306006D01*
X109347000Y-108248958D01*
X109347000Y-106222799D01*
X133899340Y-106222799D01*
X133919936Y-106458207D01*
X133964709Y-106625302D01*
X133981097Y-106686463D01*
X134080965Y-106900630D01*
X134216505Y-107094201D01*
X134383599Y-107261295D01*
X134577170Y-107396835D01*
X134791337Y-107496703D01*
X135019592Y-107557863D01*
X135255000Y-107578459D01*
X135490408Y-107557863D01*
X135718663Y-107496703D01*
X135932830Y-107396835D01*
X136126401Y-107261295D01*
X136293495Y-107094201D01*
X136429035Y-106900630D01*
X136528903Y-106686463D01*
X136590063Y-106458208D01*
X136610659Y-106222800D01*
X136590063Y-105987392D01*
X136528903Y-105759137D01*
X136429035Y-105544971D01*
X136293495Y-105351399D01*
X136171568Y-105229472D01*
X136140273Y-105176727D01*
X136138084Y-105115434D01*
X136165537Y-105060589D01*
X136215916Y-105025610D01*
X136347331Y-104976596D01*
X136462546Y-104890346D01*
X136548796Y-104775131D01*
X136599091Y-104640283D01*
X136605500Y-104580673D01*
X136605499Y-102784928D01*
X136599091Y-102725317D01*
X136548796Y-102590469D01*
X136462546Y-102475254D01*
X136347331Y-102389004D01*
X136212483Y-102338709D01*
X136152873Y-102332300D01*
X136152869Y-102332300D01*
X134357130Y-102332300D01*
X134297515Y-102338709D01*
X134162669Y-102389004D01*
X134047454Y-102475254D01*
X133961204Y-102590468D01*
X133910909Y-102725315D01*
X133910909Y-102725317D01*
X133905234Y-102778106D01*
X133904500Y-102784930D01*
X133904500Y-104580669D01*
X133909191Y-104624300D01*
X133910909Y-104640283D01*
X133961204Y-104775131D01*
X134047454Y-104890346D01*
X134162669Y-104976596D01*
X134274907Y-105018458D01*
X134294082Y-105025610D01*
X134344462Y-105060589D01*
X134371915Y-105115434D01*
X134369726Y-105176726D01*
X134338431Y-105229473D01*
X134216503Y-105351401D01*
X134080965Y-105544970D01*
X133981097Y-105759136D01*
X133919936Y-105987392D01*
X133899340Y-106222799D01*
X109347000Y-106222799D01*
X109347000Y-105409855D01*
X118917900Y-105409855D01*
X118958609Y-105575024D01*
X118996037Y-105646336D01*
X119037666Y-105725652D01*
X119150471Y-105852983D01*
X119290470Y-105949618D01*
X119449528Y-106009940D01*
X119576028Y-106025300D01*
X119660771Y-106025300D01*
X119660772Y-106025300D01*
X119787272Y-106009940D01*
X119946330Y-105949618D01*
X120086329Y-105852983D01*
X120199134Y-105725652D01*
X120278190Y-105575025D01*
X120318900Y-105409856D01*
X120318900Y-105409855D01*
X123317900Y-105409855D01*
X123358609Y-105575024D01*
X123396037Y-105646336D01*
X123437666Y-105725652D01*
X123550471Y-105852983D01*
X123690470Y-105949618D01*
X123849528Y-106009940D01*
X123976028Y-106025300D01*
X124060771Y-106025300D01*
X124060772Y-106025300D01*
X124187272Y-106009940D01*
X124346330Y-105949618D01*
X124486329Y-105852983D01*
X124599134Y-105725652D01*
X124678190Y-105575025D01*
X124718900Y-105409856D01*
X124718900Y-105239744D01*
X124678190Y-105074575D01*
X124599134Y-104923948D01*
X124486329Y-104796617D01*
X124486328Y-104796616D01*
X124486327Y-104796615D01*
X124346330Y-104699982D01*
X124187272Y-104639660D01*
X124060772Y-104624300D01*
X123976028Y-104624300D01*
X123912778Y-104631979D01*
X123849527Y-104639660D01*
X123690469Y-104699982D01*
X123550472Y-104796615D01*
X123437665Y-104923949D01*
X123358609Y-105074575D01*
X123317900Y-105239745D01*
X123317900Y-105409855D01*
X120318900Y-105409855D01*
X120318900Y-105239744D01*
X120278190Y-105074575D01*
X120199134Y-104923948D01*
X120086329Y-104796617D01*
X120086328Y-104796616D01*
X120086327Y-104796615D01*
X119946330Y-104699982D01*
X119787272Y-104639660D01*
X119660772Y-104624300D01*
X119576028Y-104624300D01*
X119512778Y-104631979D01*
X119449527Y-104639660D01*
X119290469Y-104699982D01*
X119150472Y-104796615D01*
X119037665Y-104923949D01*
X118958609Y-105074575D01*
X118917900Y-105239745D01*
X118917900Y-105409855D01*
X109347000Y-105409855D01*
X109347000Y-100152200D01*
X134807002Y-100152200D01*
X134827338Y-100345682D01*
X134827339Y-100345685D01*
X134887455Y-100530707D01*
X134984729Y-100699192D01*
X135114908Y-100843770D01*
X135272299Y-100958121D01*
X135450031Y-101037252D01*
X135640324Y-101077700D01*
X135640326Y-101077700D01*
X135834874Y-101077700D01*
X135834876Y-101077700D01*
X136025168Y-101037252D01*
X136025169Y-101037251D01*
X136025171Y-101037251D01*
X136202899Y-100958122D01*
X136321317Y-100872086D01*
X136360291Y-100843770D01*
X136381434Y-100820289D01*
X136490470Y-100699192D01*
X136587744Y-100530708D01*
X136647862Y-100345682D01*
X136668198Y-100152200D01*
X136647862Y-99958718D01*
X136617502Y-99865281D01*
X136611462Y-99824308D01*
X136619252Y-99783630D01*
X136656197Y-99684575D01*
X136662600Y-99625024D01*
X136662600Y-99402200D01*
X136320159Y-99402200D01*
X136281841Y-99396131D01*
X136247274Y-99378518D01*
X136202900Y-99346278D01*
X136025168Y-99267147D01*
X135834876Y-99226700D01*
X135834874Y-99226700D01*
X135640326Y-99226700D01*
X135640324Y-99226700D01*
X135450031Y-99267147D01*
X135272299Y-99346278D01*
X135227926Y-99378518D01*
X135193359Y-99396131D01*
X135155041Y-99402200D01*
X134812600Y-99402200D01*
X134812600Y-99625024D01*
X134819002Y-99684577D01*
X134855947Y-99783631D01*
X134863737Y-99824308D01*
X134857697Y-99865281D01*
X134827338Y-99958718D01*
X134809629Y-100127210D01*
X134807002Y-100152200D01*
X109347000Y-100152200D01*
X109347000Y-98745352D01*
X109360515Y-98689057D01*
X109398115Y-98645034D01*
X109451602Y-98622879D01*
X109509318Y-98627421D01*
X109558681Y-98657671D01*
X110065397Y-99164387D01*
X110078298Y-99180489D01*
X110080412Y-99182474D01*
X110080414Y-99182477D01*
X110099073Y-99199999D01*
X110129440Y-99228516D01*
X110132235Y-99231225D01*
X110151730Y-99250720D01*
X110154904Y-99253182D01*
X110163768Y-99260753D01*
X110195618Y-99290662D01*
X110206114Y-99296432D01*
X110213174Y-99300314D01*
X110229431Y-99310992D01*
X110245264Y-99323274D01*
X110261385Y-99330249D01*
X110285356Y-99340623D01*
X110295843Y-99345760D01*
X110334108Y-99366797D01*
X110353516Y-99371780D01*
X110371910Y-99378078D01*
X110390305Y-99386038D01*
X110433454Y-99392871D01*
X110444880Y-99395238D01*
X110454900Y-99397811D01*
X110487180Y-99406100D01*
X110487181Y-99406100D01*
X110507216Y-99406100D01*
X110526613Y-99407626D01*
X110546396Y-99410760D01*
X110589874Y-99406650D01*
X110601544Y-99406100D01*
X116731856Y-99406100D01*
X116752362Y-99408364D01*
X116755265Y-99408272D01*
X116755267Y-99408273D01*
X116822472Y-99406161D01*
X116826368Y-99406100D01*
X116861755Y-99406100D01*
X116861755Y-99407509D01*
X116897604Y-99410013D01*
X116940754Y-99431430D01*
X116962072Y-99455778D01*
X116962347Y-99455531D01*
X117097729Y-99605889D01*
X117250869Y-99717151D01*
X117423797Y-99794144D01*
X117608952Y-99833500D01*
X117608954Y-99833500D01*
X117798246Y-99833500D01*
X117798248Y-99833500D01*
X117955857Y-99799999D01*
X117983403Y-99794144D01*
X118156330Y-99717151D01*
X118186905Y-99694937D01*
X118309470Y-99605889D01*
X118343144Y-99568491D01*
X118436133Y-99465216D01*
X118530779Y-99301284D01*
X118589274Y-99121256D01*
X118606922Y-98953341D01*
X118618320Y-98912927D01*
X118625901Y-98902200D01*
X134812600Y-98902200D01*
X135487600Y-98902200D01*
X135487600Y-98227200D01*
X135987600Y-98227200D01*
X135987600Y-98902200D01*
X136662600Y-98902200D01*
X136662600Y-98679376D01*
X136656197Y-98619824D01*
X136605952Y-98485110D01*
X136519788Y-98370011D01*
X136404689Y-98283847D01*
X136269975Y-98233602D01*
X136210424Y-98227200D01*
X135987600Y-98227200D01*
X135487600Y-98227200D01*
X135264776Y-98227200D01*
X135205224Y-98233602D01*
X135070510Y-98283847D01*
X134955411Y-98370011D01*
X134869247Y-98485110D01*
X134819002Y-98619824D01*
X134812600Y-98679376D01*
X134812600Y-98902200D01*
X118625901Y-98902200D01*
X118642557Y-98878632D01*
X119221771Y-98299419D01*
X119262000Y-98272539D01*
X119309453Y-98263100D01*
X133306653Y-98263100D01*
X133357088Y-98273820D01*
X133398801Y-98304126D01*
X133404529Y-98310488D01*
X133557670Y-98421751D01*
X133557671Y-98421751D01*
X133557672Y-98421752D01*
X133730597Y-98498744D01*
X133915752Y-98538100D01*
X133915754Y-98538100D01*
X134105046Y-98538100D01*
X134105048Y-98538100D01*
X134279650Y-98500987D01*
X134290203Y-98498744D01*
X134463130Y-98421751D01*
X134542618Y-98364000D01*
X134616270Y-98310489D01*
X134621998Y-98304128D01*
X134742933Y-98169816D01*
X134837579Y-98005884D01*
X134896074Y-97825856D01*
X134897173Y-97815399D01*
X151697740Y-97815399D01*
X151717526Y-98003657D01*
X151776020Y-98183684D01*
X151870666Y-98347616D01*
X151948751Y-98434338D01*
X151971651Y-98471056D01*
X151979472Y-98508321D01*
X151986079Y-98531060D01*
X151990025Y-98550116D01*
X151992535Y-98569992D01*
X152008614Y-98610604D01*
X152012397Y-98621651D01*
X152024582Y-98663591D01*
X152034780Y-98680835D01*
X152043336Y-98698300D01*
X152050714Y-98716932D01*
X152050715Y-98716933D01*
X152076380Y-98752259D01*
X152082793Y-98762022D01*
X152105026Y-98799616D01*
X152105029Y-98799619D01*
X152105030Y-98799620D01*
X152119195Y-98813785D01*
X152131827Y-98828575D01*
X152143606Y-98844787D01*
X152177258Y-98872626D01*
X152185899Y-98880489D01*
X158959761Y-105654352D01*
X158991855Y-105709939D01*
X158991855Y-105774125D01*
X158964936Y-105874591D01*
X158944340Y-106110000D01*
X158964936Y-106345407D01*
X158995161Y-106458207D01*
X159026097Y-106573663D01*
X159125965Y-106787830D01*
X159261505Y-106981401D01*
X159428599Y-107148495D01*
X159614160Y-107278426D01*
X159653024Y-107322743D01*
X159667035Y-107380000D01*
X159653024Y-107437257D01*
X159614158Y-107481575D01*
X159434235Y-107607559D01*
X159428595Y-107611508D01*
X159261505Y-107778598D01*
X159125965Y-107972170D01*
X159026097Y-108186336D01*
X158964936Y-108414592D01*
X158944340Y-108650000D01*
X158964936Y-108885407D01*
X158982039Y-108949236D01*
X159026097Y-109113663D01*
X159125965Y-109327830D01*
X159261505Y-109521401D01*
X159428599Y-109688495D01*
X159622170Y-109824035D01*
X159836337Y-109923903D01*
X160064592Y-109985063D01*
X160300000Y-110005659D01*
X160535408Y-109985063D01*
X160763663Y-109923903D01*
X160977830Y-109824035D01*
X161171401Y-109688495D01*
X161338495Y-109521401D01*
X161474035Y-109327830D01*
X161573903Y-109113663D01*
X161635063Y-108885408D01*
X161655659Y-108650000D01*
X161635063Y-108414592D01*
X161573903Y-108186337D01*
X161474035Y-107972171D01*
X161338495Y-107778599D01*
X161171401Y-107611505D01*
X160985839Y-107481573D01*
X160946975Y-107437257D01*
X160932964Y-107380000D01*
X160946975Y-107322743D01*
X160985839Y-107278426D01*
X161171401Y-107148495D01*
X161338495Y-106981401D01*
X161474035Y-106787830D01*
X161573903Y-106573663D01*
X161635063Y-106345408D01*
X161652159Y-106149999D01*
X168944340Y-106149999D01*
X168964936Y-106385407D01*
X168984443Y-106458207D01*
X169026097Y-106613663D01*
X169125965Y-106827830D01*
X169261505Y-107021401D01*
X169428599Y-107188495D01*
X169622170Y-107324035D01*
X169836337Y-107423903D01*
X170064592Y-107485063D01*
X170300000Y-107505659D01*
X170535408Y-107485063D01*
X170763663Y-107423903D01*
X170977830Y-107324035D01*
X171171401Y-107188495D01*
X171338495Y-107021401D01*
X171474035Y-106827830D01*
X171573903Y-106613663D01*
X171635063Y-106385408D01*
X171655659Y-106150000D01*
X171635063Y-105914592D01*
X171573903Y-105686337D01*
X171474035Y-105472171D01*
X171338495Y-105278599D01*
X171171401Y-105111505D01*
X170985839Y-104981573D01*
X170946974Y-104937255D01*
X170932964Y-104879999D01*
X170946975Y-104822742D01*
X170985837Y-104778428D01*
X171171401Y-104648495D01*
X171338495Y-104481401D01*
X171474035Y-104287830D01*
X171477686Y-104280000D01*
X177674340Y-104280000D01*
X177694936Y-104515407D01*
X177730597Y-104648495D01*
X177756097Y-104743663D01*
X177855965Y-104957830D01*
X177991505Y-105151401D01*
X178158599Y-105318495D01*
X178352170Y-105454035D01*
X178566337Y-105553903D01*
X178794592Y-105615063D01*
X179030000Y-105635659D01*
X179265408Y-105615063D01*
X179493663Y-105553903D01*
X179707830Y-105454035D01*
X179901401Y-105318495D01*
X180068495Y-105151401D01*
X180204035Y-104957830D01*
X180303903Y-104743663D01*
X180365063Y-104515408D01*
X180385659Y-104280000D01*
X180365063Y-104044592D01*
X180303903Y-103816337D01*
X180204035Y-103602171D01*
X180068495Y-103408599D01*
X179901401Y-103241505D01*
X179715402Y-103111267D01*
X179676539Y-103066951D01*
X179662528Y-103009694D01*
X179676539Y-102952437D01*
X179715405Y-102908119D01*
X179901078Y-102778109D01*
X180068106Y-102611081D01*
X180203600Y-102417576D01*
X180303430Y-102203492D01*
X180360636Y-101990000D01*
X177699364Y-101990000D01*
X177756569Y-102203492D01*
X177856399Y-102417576D01*
X177991893Y-102611081D01*
X178158918Y-102778106D01*
X178344595Y-102908119D01*
X178383460Y-102952437D01*
X178397471Y-103009694D01*
X178383460Y-103066951D01*
X178344595Y-103111269D01*
X178158595Y-103241508D01*
X177991505Y-103408598D01*
X177855965Y-103602170D01*
X177756097Y-103816336D01*
X177694936Y-104044592D01*
X177674340Y-104280000D01*
X171477686Y-104280000D01*
X171573903Y-104073663D01*
X171635063Y-103845408D01*
X171655659Y-103610000D01*
X171635063Y-103374592D01*
X171573903Y-103146337D01*
X171474035Y-102932171D01*
X171338495Y-102738599D01*
X171171401Y-102571505D01*
X170985839Y-102441573D01*
X170946974Y-102397255D01*
X170932964Y-102339999D01*
X170946975Y-102282742D01*
X170985837Y-102238428D01*
X171171401Y-102108495D01*
X171338495Y-101941401D01*
X171474035Y-101747830D01*
X171573903Y-101533663D01*
X171635063Y-101305408D01*
X171655659Y-101070000D01*
X171635063Y-100834592D01*
X171573903Y-100606337D01*
X171474035Y-100392171D01*
X171338495Y-100198599D01*
X171171401Y-100031505D01*
X170985839Y-99901573D01*
X170946974Y-99857255D01*
X170932964Y-99799999D01*
X170946975Y-99742742D01*
X170985837Y-99698428D01*
X171171401Y-99568495D01*
X171338495Y-99401401D01*
X171474035Y-99207830D01*
X171477687Y-99199999D01*
X177674340Y-99199999D01*
X177694936Y-99435407D01*
X177730597Y-99568495D01*
X177756097Y-99663663D01*
X177855965Y-99877830D01*
X177991505Y-100071401D01*
X178158599Y-100238495D01*
X178344597Y-100368732D01*
X178383460Y-100413048D01*
X178397471Y-100470305D01*
X178383461Y-100527561D01*
X178344595Y-100571880D01*
X178158919Y-100701892D01*
X177991890Y-100868921D01*
X177856400Y-101062421D01*
X177756569Y-101276507D01*
X177699364Y-101489999D01*
X177699364Y-101490000D01*
X180360636Y-101490000D01*
X180360635Y-101489999D01*
X180303430Y-101276507D01*
X180203599Y-101062421D01*
X180068109Y-100868921D01*
X179901081Y-100701893D01*
X179715404Y-100571880D01*
X179676539Y-100527562D01*
X179662528Y-100470305D01*
X179676539Y-100413048D01*
X179715402Y-100368732D01*
X179901401Y-100238495D01*
X180068495Y-100071401D01*
X180204035Y-99877830D01*
X180303903Y-99663663D01*
X180365063Y-99435408D01*
X180385659Y-99200000D01*
X180365063Y-98964592D01*
X180303903Y-98736337D01*
X180204035Y-98522171D01*
X180068495Y-98328599D01*
X179901401Y-98161505D01*
X179715839Y-98031573D01*
X179676975Y-97987257D01*
X179662964Y-97930000D01*
X179676975Y-97872743D01*
X179715839Y-97828426D01*
X179901401Y-97698495D01*
X180068495Y-97531401D01*
X180204035Y-97337830D01*
X180303903Y-97123663D01*
X180365063Y-96895408D01*
X180385659Y-96660000D01*
X180382844Y-96627830D01*
X180365063Y-96424592D01*
X180351039Y-96372253D01*
X180303903Y-96196337D01*
X180204035Y-95982171D01*
X180068495Y-95788599D01*
X179901401Y-95621505D01*
X179715839Y-95491573D01*
X179676975Y-95447257D01*
X179662964Y-95390000D01*
X179676975Y-95332743D01*
X179715839Y-95288426D01*
X179901401Y-95158495D01*
X180068495Y-94991401D01*
X180204035Y-94797830D01*
X180303903Y-94583663D01*
X180365063Y-94355408D01*
X180385659Y-94120000D01*
X180365063Y-93884592D01*
X180303903Y-93656337D01*
X180204035Y-93442171D01*
X180068495Y-93248599D01*
X179901401Y-93081505D01*
X179707830Y-92945965D01*
X179493663Y-92846097D01*
X179374576Y-92814188D01*
X179265407Y-92784936D01*
X179029999Y-92764340D01*
X178794592Y-92784936D01*
X178566336Y-92846097D01*
X178352170Y-92945965D01*
X178158598Y-93081505D01*
X177991505Y-93248598D01*
X177855965Y-93442170D01*
X177756097Y-93656336D01*
X177694936Y-93884592D01*
X177674340Y-94120000D01*
X177694936Y-94355407D01*
X177733266Y-94498456D01*
X177756097Y-94583663D01*
X177855965Y-94797830D01*
X177991505Y-94991401D01*
X178158599Y-95158495D01*
X178344160Y-95288426D01*
X178383024Y-95332743D01*
X178397035Y-95390000D01*
X178383024Y-95447257D01*
X178344158Y-95491575D01*
X178228442Y-95572601D01*
X178158595Y-95621508D01*
X177991505Y-95788598D01*
X177855965Y-95982170D01*
X177756097Y-96196336D01*
X177694936Y-96424592D01*
X177674340Y-96659999D01*
X177694936Y-96895407D01*
X177725950Y-97011153D01*
X177756097Y-97123663D01*
X177855965Y-97337830D01*
X177991505Y-97531401D01*
X178158599Y-97698495D01*
X178344160Y-97828426D01*
X178383024Y-97872743D01*
X178397035Y-97930000D01*
X178383024Y-97987257D01*
X178344158Y-98031575D01*
X178167747Y-98155100D01*
X178158595Y-98161508D01*
X177991505Y-98328598D01*
X177855965Y-98522170D01*
X177756097Y-98736336D01*
X177694936Y-98964592D01*
X177674340Y-99199999D01*
X171477687Y-99199999D01*
X171573903Y-98993663D01*
X171635063Y-98765408D01*
X171655659Y-98530000D01*
X171647289Y-98434338D01*
X171635063Y-98294592D01*
X171617523Y-98229132D01*
X171573903Y-98066337D01*
X171474035Y-97852171D01*
X171338495Y-97658599D01*
X171171401Y-97491505D01*
X170985839Y-97361573D01*
X170946975Y-97317257D01*
X170932964Y-97260000D01*
X170946975Y-97202743D01*
X170985839Y-97158426D01*
X171171401Y-97028495D01*
X171338495Y-96861401D01*
X171474035Y-96667830D01*
X171573903Y-96453663D01*
X171635063Y-96225408D01*
X171655659Y-95990000D01*
X171635063Y-95754592D01*
X171573903Y-95526337D01*
X171474035Y-95312171D01*
X171338495Y-95118599D01*
X171171401Y-94951505D01*
X170977830Y-94815965D01*
X170763663Y-94716097D01*
X170702502Y-94699709D01*
X170535407Y-94654936D01*
X170300000Y-94634340D01*
X170064592Y-94654936D01*
X169836336Y-94716097D01*
X169622170Y-94815965D01*
X169428598Y-94951505D01*
X169261505Y-95118598D01*
X169125965Y-95312170D01*
X169026097Y-95526336D01*
X168964936Y-95754592D01*
X168944340Y-95990000D01*
X168964936Y-96225407D01*
X169005616Y-96377225D01*
X169026097Y-96453663D01*
X169125965Y-96667830D01*
X169261505Y-96861401D01*
X169428599Y-97028495D01*
X169614160Y-97158426D01*
X169653024Y-97202743D01*
X169667035Y-97260000D01*
X169653024Y-97317257D01*
X169614159Y-97361575D01*
X169583738Y-97382875D01*
X169485173Y-97451892D01*
X169428595Y-97491508D01*
X169261505Y-97658598D01*
X169125965Y-97852170D01*
X169026097Y-98066336D01*
X168964936Y-98294592D01*
X168944340Y-98529999D01*
X168964936Y-98765407D01*
X168994664Y-98876352D01*
X169026097Y-98993663D01*
X169125965Y-99207830D01*
X169261505Y-99401401D01*
X169428599Y-99568495D01*
X169614160Y-99698426D01*
X169653024Y-99742743D01*
X169667035Y-99800000D01*
X169653024Y-99857257D01*
X169614159Y-99901575D01*
X169428595Y-100031508D01*
X169261505Y-100198598D01*
X169125965Y-100392170D01*
X169026097Y-100606336D01*
X168964936Y-100834592D01*
X168944340Y-101069999D01*
X168964936Y-101305407D01*
X168992002Y-101406418D01*
X169026097Y-101533663D01*
X169125965Y-101747830D01*
X169261505Y-101941401D01*
X169428599Y-102108495D01*
X169614160Y-102238426D01*
X169653024Y-102282743D01*
X169667035Y-102340000D01*
X169653024Y-102397257D01*
X169614159Y-102441575D01*
X169428595Y-102571508D01*
X169261505Y-102738598D01*
X169125965Y-102932170D01*
X169026097Y-103146336D01*
X168964936Y-103374592D01*
X168944340Y-103610000D01*
X168964936Y-103845407D01*
X169009709Y-104012502D01*
X169026097Y-104073663D01*
X169125965Y-104287830D01*
X169261505Y-104481401D01*
X169428599Y-104648495D01*
X169614160Y-104778426D01*
X169653024Y-104822743D01*
X169667035Y-104880000D01*
X169653024Y-104937257D01*
X169614160Y-104981574D01*
X169518202Y-105048765D01*
X169428595Y-105111508D01*
X169261505Y-105278598D01*
X169125965Y-105472170D01*
X169026097Y-105686336D01*
X168964936Y-105914592D01*
X168944340Y-106149999D01*
X161652159Y-106149999D01*
X161655659Y-106110000D01*
X161635063Y-105874592D01*
X161573903Y-105646337D01*
X161502092Y-105492340D01*
X161490477Y-105440585D01*
X161501551Y-105388710D01*
X161533290Y-105346208D01*
X161557694Y-105332931D01*
X161556904Y-105331594D01*
X161579052Y-105318495D01*
X161587629Y-105313422D01*
X161605102Y-105304862D01*
X161623732Y-105297486D01*
X161659064Y-105271814D01*
X161668830Y-105265400D01*
X161706418Y-105243171D01*
X161706417Y-105243171D01*
X161706420Y-105243170D01*
X161720585Y-105229004D01*
X161735373Y-105216373D01*
X161751587Y-105204594D01*
X161779438Y-105170926D01*
X161787279Y-105162309D01*
X164617587Y-102332002D01*
X164646098Y-102310712D01*
X164679478Y-102298397D01*
X164750303Y-102283344D01*
X164750304Y-102283343D01*
X164750306Y-102283343D01*
X164923230Y-102206351D01*
X165076370Y-102095089D01*
X165100316Y-102068495D01*
X165203033Y-101954416D01*
X165297679Y-101790484D01*
X165356174Y-101610456D01*
X165373822Y-101442541D01*
X165385220Y-101402127D01*
X165409457Y-101367832D01*
X165890189Y-100887100D01*
X165906285Y-100874206D01*
X165908273Y-100872087D01*
X165908277Y-100872086D01*
X165954348Y-100823023D01*
X165956966Y-100820323D01*
X165976520Y-100800771D01*
X165978981Y-100797598D01*
X165986556Y-100788727D01*
X166016462Y-100756882D01*
X166026112Y-100739327D01*
X166036800Y-100723057D01*
X166049071Y-100707238D01*
X166049073Y-100707236D01*
X166066426Y-100667132D01*
X166071557Y-100656662D01*
X166092597Y-100618392D01*
X166097575Y-100598999D01*
X166103881Y-100580582D01*
X166105418Y-100577028D01*
X166111838Y-100562196D01*
X166118672Y-100519045D01*
X166121035Y-100507631D01*
X166131900Y-100465319D01*
X166131900Y-100445284D01*
X166133427Y-100425885D01*
X166136030Y-100409448D01*
X166136560Y-100406104D01*
X166132450Y-100362625D01*
X166131900Y-100350956D01*
X166131900Y-95255352D01*
X166141339Y-95207899D01*
X166168219Y-95167671D01*
X170127771Y-91208119D01*
X170167999Y-91181239D01*
X170215452Y-91171800D01*
X170274648Y-91171800D01*
X170398084Y-91145562D01*
X170459803Y-91132444D01*
X170632730Y-91055451D01*
X170785871Y-90944188D01*
X170912533Y-90803516D01*
X171007179Y-90639584D01*
X171065674Y-90459556D01*
X171085460Y-90271300D01*
X171065674Y-90083044D01*
X171007179Y-89903016D01*
X171007179Y-89903015D01*
X170912533Y-89739083D01*
X170785870Y-89598410D01*
X170632730Y-89487148D01*
X170459802Y-89410155D01*
X170274648Y-89370800D01*
X170274646Y-89370800D01*
X170085354Y-89370800D01*
X170085352Y-89370800D01*
X169900197Y-89410155D01*
X169727269Y-89487148D01*
X169574129Y-89598410D01*
X169447466Y-89739083D01*
X169352820Y-89903015D01*
X169294326Y-90083042D01*
X169276679Y-90250949D01*
X169265279Y-90291370D01*
X169241039Y-90325668D01*
X165122608Y-94444099D01*
X165106510Y-94456996D01*
X165058496Y-94508125D01*
X165055791Y-94510917D01*
X165036274Y-94530434D01*
X165033815Y-94533605D01*
X165026242Y-94542472D01*
X164996335Y-94574320D01*
X164986685Y-94591874D01*
X164976009Y-94608128D01*
X164963726Y-94623963D01*
X164946375Y-94664058D01*
X164941238Y-94674544D01*
X164920202Y-94712807D01*
X164915221Y-94732209D01*
X164908920Y-94750611D01*
X164900961Y-94769002D01*
X164894128Y-94812142D01*
X164891760Y-94823574D01*
X164880900Y-94865878D01*
X164880900Y-94885916D01*
X164879373Y-94905313D01*
X164876240Y-94925096D01*
X164878736Y-94951505D01*
X164880350Y-94968575D01*
X164880900Y-94980244D01*
X164880900Y-100075848D01*
X164871461Y-100123301D01*
X164844581Y-100163529D01*
X164522728Y-100485381D01*
X164482500Y-100512261D01*
X164435047Y-100521700D01*
X164375852Y-100521700D01*
X164190696Y-100561055D01*
X164137523Y-100584729D01*
X164076711Y-100595014D01*
X164018467Y-100574730D01*
X163977199Y-100528897D01*
X163963116Y-100468851D01*
X163979700Y-100409453D01*
X164047579Y-100291884D01*
X164106074Y-100111856D01*
X164125860Y-99923600D01*
X164106074Y-99735344D01*
X164051861Y-99568495D01*
X164047579Y-99555315D01*
X163952933Y-99391383D01*
X163826270Y-99250710D01*
X163673130Y-99139448D01*
X163500202Y-99062455D01*
X163315048Y-99023100D01*
X163315046Y-99023100D01*
X163125754Y-99023100D01*
X163125752Y-99023100D01*
X162940601Y-99062454D01*
X162851143Y-99102284D01*
X162794217Y-99112834D01*
X162738707Y-99096391D01*
X162696712Y-99056539D01*
X162677386Y-99001965D01*
X162673458Y-98964592D01*
X162656574Y-98803944D01*
X162598079Y-98623916D01*
X162598079Y-98623915D01*
X162503433Y-98459983D01*
X162376770Y-98319310D01*
X162223630Y-98208048D01*
X162050702Y-98131055D01*
X161865548Y-98091700D01*
X161865546Y-98091700D01*
X161682827Y-98091700D01*
X161616202Y-98072281D01*
X161570445Y-98020105D01*
X161473599Y-97812421D01*
X161338109Y-97618921D01*
X161171081Y-97451893D01*
X160985404Y-97321880D01*
X160946539Y-97277562D01*
X160932528Y-97220305D01*
X160946539Y-97163048D01*
X160985402Y-97118732D01*
X161171401Y-96988495D01*
X161338495Y-96821401D01*
X161474035Y-96627830D01*
X161573903Y-96413663D01*
X161635063Y-96185408D01*
X161655659Y-95950000D01*
X161635063Y-95714592D01*
X161573903Y-95486337D01*
X161474035Y-95272171D01*
X161338495Y-95078599D01*
X161171401Y-94911505D01*
X160985839Y-94781573D01*
X160946975Y-94737257D01*
X160932964Y-94680000D01*
X160946975Y-94622743D01*
X160985839Y-94578426D01*
X161171401Y-94448495D01*
X161338495Y-94281401D01*
X161474035Y-94087830D01*
X161573903Y-93873663D01*
X161635063Y-93645408D01*
X161655659Y-93410000D01*
X161635063Y-93174592D01*
X161573903Y-92946337D01*
X161474035Y-92732171D01*
X161338495Y-92538599D01*
X161171401Y-92371505D01*
X160977830Y-92235965D01*
X160763663Y-92136097D01*
X160702501Y-92119709D01*
X160535407Y-92074936D01*
X160300000Y-92054340D01*
X160064593Y-92074936D01*
X160018492Y-92087289D01*
X159962207Y-92089131D01*
X159910912Y-92065890D01*
X159875187Y-92022358D01*
X159862399Y-91967514D01*
X159862399Y-88984788D01*
X159870635Y-88940350D01*
X159894246Y-88901818D01*
X159969432Y-88818317D01*
X160033124Y-88708000D01*
X160064078Y-88654385D01*
X160079661Y-88606425D01*
X160122573Y-88474357D01*
X160142359Y-88286101D01*
X160122573Y-88097845D01*
X160122572Y-88097842D01*
X160121502Y-88087661D01*
X160133373Y-88020342D01*
X160179113Y-87969542D01*
X160244823Y-87950700D01*
X160560853Y-87950700D01*
X160611288Y-87961420D01*
X160653001Y-87991726D01*
X160658729Y-87998088D01*
X160811870Y-88109351D01*
X160811871Y-88109351D01*
X160811872Y-88109352D01*
X160984797Y-88186344D01*
X161169952Y-88225700D01*
X161169954Y-88225700D01*
X161359246Y-88225700D01*
X161359248Y-88225700D01*
X161482683Y-88199462D01*
X161544403Y-88186344D01*
X161717330Y-88109351D01*
X161792229Y-88054934D01*
X176710269Y-88054934D01*
X176721007Y-88115830D01*
X176740735Y-88227711D01*
X176776353Y-88310282D01*
X176810224Y-88388804D01*
X176914991Y-88529530D01*
X177049384Y-88642299D01*
X177049385Y-88642299D01*
X177049387Y-88642301D01*
X177206167Y-88721039D01*
X177206168Y-88721039D01*
X177206170Y-88721040D01*
X177376877Y-88761499D01*
X177376879Y-88761499D01*
X177508304Y-88761499D01*
X177508309Y-88761499D01*
X177638855Y-88746240D01*
X177803716Y-88686236D01*
X177950295Y-88589829D01*
X178070691Y-88462218D01*
X178158411Y-88310281D01*
X178208729Y-88142210D01*
X178218930Y-87967065D01*
X178188465Y-87794289D01*
X178118976Y-87633196D01*
X178014209Y-87492470D01*
X177949294Y-87438000D01*
X177879815Y-87379700D01*
X177723029Y-87300959D01*
X177552323Y-87260501D01*
X177552321Y-87260501D01*
X177420891Y-87260501D01*
X177339299Y-87270037D01*
X177290342Y-87275760D01*
X177125484Y-87335763D01*
X176978904Y-87432171D01*
X176858509Y-87559781D01*
X176770789Y-87711717D01*
X176748278Y-87786910D01*
X176720471Y-87879790D01*
X176720470Y-87879792D01*
X176720471Y-87879792D01*
X176710269Y-88054934D01*
X161792229Y-88054934D01*
X161870470Y-87998089D01*
X161876198Y-87991728D01*
X161997133Y-87857416D01*
X162091779Y-87693484D01*
X162150274Y-87513456D01*
X162170060Y-87325200D01*
X162150274Y-87136944D01*
X162100022Y-86982284D01*
X162091779Y-86956915D01*
X161997133Y-86792983D01*
X161870470Y-86652310D01*
X161717330Y-86541048D01*
X161544402Y-86464055D01*
X161359248Y-86424700D01*
X161359246Y-86424700D01*
X161169954Y-86424700D01*
X161169952Y-86424700D01*
X160984797Y-86464055D01*
X160811872Y-86541047D01*
X160711461Y-86614000D01*
X160658729Y-86652312D01*
X160653001Y-86658673D01*
X160611288Y-86688980D01*
X160560853Y-86699700D01*
X158959744Y-86699700D01*
X158939236Y-86697435D01*
X158869113Y-86699639D01*
X158865219Y-86699700D01*
X158837650Y-86699700D01*
X158833671Y-86700202D01*
X158822041Y-86701117D01*
X158778372Y-86702489D01*
X158759128Y-86708080D01*
X158740084Y-86712024D01*
X158720208Y-86714535D01*
X158679600Y-86730613D01*
X158668554Y-86734394D01*
X158626610Y-86746582D01*
X158626607Y-86746583D01*
X158609365Y-86756779D01*
X158591904Y-86765333D01*
X158573267Y-86772712D01*
X158537931Y-86798385D01*
X158528174Y-86804795D01*
X158490580Y-86827029D01*
X158476413Y-86841196D01*
X158461624Y-86853826D01*
X158445413Y-86865604D01*
X158417572Y-86899258D01*
X158409711Y-86907897D01*
X157752930Y-87564677D01*
X157700467Y-87595890D01*
X157639469Y-87598286D01*
X157456049Y-87559300D01*
X157456046Y-87559300D01*
X157266754Y-87559300D01*
X157266752Y-87559300D01*
X157081597Y-87598655D01*
X156908669Y-87675648D01*
X156755529Y-87786910D01*
X156628866Y-87927583D01*
X156534220Y-88091515D01*
X156475726Y-88271542D01*
X156455940Y-88459800D01*
X156475726Y-88648057D01*
X156534220Y-88828084D01*
X156628866Y-88992016D01*
X156755529Y-89132689D01*
X156908669Y-89243951D01*
X157081597Y-89320944D01*
X157266752Y-89360300D01*
X157266754Y-89360300D01*
X157456046Y-89360300D01*
X157456048Y-89360300D01*
X157608863Y-89327818D01*
X157641203Y-89320944D01*
X157814130Y-89243951D01*
X157866017Y-89206253D01*
X157967270Y-89132689D01*
X157990762Y-89106599D01*
X158093933Y-88992016D01*
X158093933Y-88992015D01*
X158102655Y-88982329D01*
X158104817Y-88984276D01*
X158118816Y-88970128D01*
X158117739Y-88969052D01*
X158128820Y-88957970D01*
X158142985Y-88943804D01*
X158157773Y-88931173D01*
X158173987Y-88919394D01*
X158201838Y-88885726D01*
X158209679Y-88877109D01*
X158303756Y-88783032D01*
X158351577Y-88753296D01*
X158407621Y-88747776D01*
X158460326Y-88767613D01*
X158498822Y-88808715D01*
X158504366Y-88818317D01*
X158579551Y-88901818D01*
X158603163Y-88940350D01*
X158611399Y-88984788D01*
X158611399Y-92264155D01*
X158609134Y-92284661D01*
X158611338Y-92354772D01*
X158611399Y-92358667D01*
X158611399Y-92386248D01*
X158611902Y-92390233D01*
X158612817Y-92401866D01*
X158614189Y-92445525D01*
X158619778Y-92464759D01*
X158623724Y-92483815D01*
X158626234Y-92503691D01*
X158642313Y-92544303D01*
X158646096Y-92555350D01*
X158658281Y-92597290D01*
X158668479Y-92614534D01*
X158677035Y-92631999D01*
X158684413Y-92650631D01*
X158684414Y-92650632D01*
X158710079Y-92685958D01*
X158716492Y-92695721D01*
X158738725Y-92733315D01*
X158738728Y-92733318D01*
X158738729Y-92733319D01*
X158752894Y-92747484D01*
X158765526Y-92762274D01*
X158777305Y-92778486D01*
X158810957Y-92806325D01*
X158819598Y-92814188D01*
X158959762Y-92954352D01*
X158991856Y-93009939D01*
X158991856Y-93074126D01*
X158964936Y-93174593D01*
X158944340Y-93410000D01*
X158964936Y-93645407D01*
X159000460Y-93777983D01*
X159026097Y-93873663D01*
X159125965Y-94087830D01*
X159261505Y-94281401D01*
X159428599Y-94448495D01*
X159614160Y-94578426D01*
X159653024Y-94622743D01*
X159667035Y-94680000D01*
X159653024Y-94737257D01*
X159614158Y-94781575D01*
X159431950Y-94909159D01*
X159428595Y-94911508D01*
X159261505Y-95078598D01*
X159125965Y-95272170D01*
X159026097Y-95486336D01*
X158964936Y-95714592D01*
X158944340Y-95950000D01*
X158964936Y-96185407D01*
X158999485Y-96314344D01*
X159026097Y-96413663D01*
X159125965Y-96627830D01*
X159261505Y-96821401D01*
X159428599Y-96988495D01*
X159614597Y-97118732D01*
X159653460Y-97163048D01*
X159667471Y-97220305D01*
X159653461Y-97277561D01*
X159614595Y-97321880D01*
X159428919Y-97451892D01*
X159261890Y-97618921D01*
X159126400Y-97812421D01*
X159026569Y-98026507D01*
X158969364Y-98239999D01*
X158969364Y-98240000D01*
X160426000Y-98240000D01*
X160488000Y-98256613D01*
X160533387Y-98302000D01*
X160550000Y-98364000D01*
X160550000Y-98616000D01*
X160533387Y-98678000D01*
X160488000Y-98723387D01*
X160426000Y-98740000D01*
X158969364Y-98740000D01*
X159026569Y-98953492D01*
X159126399Y-99167576D01*
X159261893Y-99361081D01*
X159428918Y-99528106D01*
X159614595Y-99658119D01*
X159653460Y-99702437D01*
X159667471Y-99759694D01*
X159653460Y-99816951D01*
X159614595Y-99861269D01*
X159428595Y-99991508D01*
X159261505Y-100158598D01*
X159125965Y-100352170D01*
X159026097Y-100566336D01*
X158964936Y-100794592D01*
X158944340Y-101029999D01*
X158964936Y-101265407D01*
X159002720Y-101406418D01*
X159026097Y-101493663D01*
X159125965Y-101707830D01*
X159261505Y-101901401D01*
X159428599Y-102068495D01*
X159614160Y-102198426D01*
X159653024Y-102242743D01*
X159667035Y-102300000D01*
X159653024Y-102357257D01*
X159614159Y-102401575D01*
X159428595Y-102531508D01*
X159261505Y-102698598D01*
X159125966Y-102892168D01*
X159086892Y-102975963D01*
X159049996Y-103021933D01*
X158996042Y-103045673D01*
X158937222Y-103041818D01*
X158886829Y-103011238D01*
X154548819Y-98673228D01*
X154521939Y-98633000D01*
X154512500Y-98585547D01*
X154512500Y-97302344D01*
X154514764Y-97281837D01*
X154512561Y-97211727D01*
X154512500Y-97207832D01*
X154512500Y-97180253D01*
X154511997Y-97176272D01*
X154511080Y-97164619D01*
X154511031Y-97163048D01*
X154509709Y-97120973D01*
X154504120Y-97101740D01*
X154500174Y-97082682D01*
X154497664Y-97062806D01*
X154481588Y-97022204D01*
X154477804Y-97011153D01*
X154471220Y-96988491D01*
X154465618Y-96969210D01*
X154455414Y-96951955D01*
X154446861Y-96934495D01*
X154439486Y-96915868D01*
X154413808Y-96880525D01*
X154407401Y-96870771D01*
X154385170Y-96833180D01*
X154371005Y-96819015D01*
X154358367Y-96804217D01*
X154346595Y-96788013D01*
X154312941Y-96760173D01*
X154304299Y-96752309D01*
X153713602Y-96161611D01*
X153700706Y-96145513D01*
X153649575Y-96097498D01*
X153646778Y-96094787D01*
X153627270Y-96075279D01*
X153624090Y-96072812D01*
X153615224Y-96065239D01*
X153583382Y-96035338D01*
X153565824Y-96025685D01*
X153549564Y-96015004D01*
X153533736Y-96002727D01*
X153493651Y-95985380D01*
X153483161Y-95980241D01*
X153444891Y-95959202D01*
X153425491Y-95954221D01*
X153407084Y-95947919D01*
X153388697Y-95939962D01*
X153345558Y-95933129D01*
X153334124Y-95930761D01*
X153276648Y-95916005D01*
X153277267Y-95913591D01*
X153256513Y-95909180D01*
X153214799Y-95878874D01*
X153209071Y-95872512D01*
X153138837Y-95821484D01*
X153055930Y-95761248D01*
X152883002Y-95684255D01*
X152697848Y-95644900D01*
X152697846Y-95644900D01*
X152508554Y-95644900D01*
X152508552Y-95644900D01*
X152323397Y-95684255D01*
X152150469Y-95761248D01*
X151997329Y-95872510D01*
X151870666Y-96013183D01*
X151776020Y-96177115D01*
X151717526Y-96357142D01*
X151697740Y-96545399D01*
X151717526Y-96733657D01*
X151776020Y-96913684D01*
X151870666Y-97077616D01*
X151888505Y-97097428D01*
X151916672Y-97150402D01*
X151916672Y-97210398D01*
X151888505Y-97263372D01*
X151870666Y-97283183D01*
X151776020Y-97447115D01*
X151717526Y-97627142D01*
X151697740Y-97815399D01*
X134897173Y-97815399D01*
X134915860Y-97637600D01*
X134896074Y-97449344D01*
X134848311Y-97302344D01*
X134837579Y-97269315D01*
X134742933Y-97105383D01*
X134616270Y-96964710D01*
X134463130Y-96853448D01*
X134290202Y-96776455D01*
X134105048Y-96737100D01*
X134105046Y-96737100D01*
X133915754Y-96737100D01*
X133915752Y-96737100D01*
X133730597Y-96776455D01*
X133557672Y-96853447D01*
X133499918Y-96895408D01*
X133404529Y-96964712D01*
X133398801Y-96971073D01*
X133357088Y-97001380D01*
X133306653Y-97012100D01*
X125578259Y-97012100D01*
X125512549Y-96993258D01*
X125466809Y-96942458D01*
X125454938Y-96875139D01*
X125455397Y-96870771D01*
X125471359Y-96718901D01*
X125455841Y-96571258D01*
X125467712Y-96503942D01*
X125513452Y-96453142D01*
X125579162Y-96434300D01*
X132327456Y-96434300D01*
X132347962Y-96436564D01*
X132350865Y-96436472D01*
X132350867Y-96436473D01*
X132418072Y-96434361D01*
X132421968Y-96434300D01*
X132449549Y-96434300D01*
X132449550Y-96434300D01*
X132453519Y-96433798D01*
X132465165Y-96432880D01*
X132508827Y-96431509D01*
X132528059Y-96425920D01*
X132547118Y-96421974D01*
X132553396Y-96421181D01*
X132566992Y-96419464D01*
X132607607Y-96403382D01*
X132618644Y-96399603D01*
X132660590Y-96387418D01*
X132677829Y-96377222D01*
X132695305Y-96368661D01*
X132711105Y-96362406D01*
X132756748Y-96353700D01*
X132860448Y-96353700D01*
X132983883Y-96327462D01*
X133045603Y-96314344D01*
X133218530Y-96237351D01*
X133315351Y-96167007D01*
X133371670Y-96126089D01*
X133401158Y-96093340D01*
X133498333Y-95985416D01*
X133592979Y-95821484D01*
X133651474Y-95641456D01*
X133671260Y-95453200D01*
X133651474Y-95264944D01*
X133611615Y-95142271D01*
X133592979Y-95084915D01*
X133498333Y-94920983D01*
X133371670Y-94780310D01*
X133218530Y-94669048D01*
X133045602Y-94592055D01*
X132860448Y-94552700D01*
X132860446Y-94552700D01*
X132671154Y-94552700D01*
X132671152Y-94552700D01*
X132485997Y-94592055D01*
X132313069Y-94669048D01*
X132159929Y-94780310D01*
X132033266Y-94920983D01*
X131938622Y-95084913D01*
X131934495Y-95097616D01*
X131908714Y-95142271D01*
X131866999Y-95172579D01*
X131816563Y-95183300D01*
X121417653Y-95183300D01*
X121370200Y-95173861D01*
X121329971Y-95146981D01*
X121262804Y-95079813D01*
X121231289Y-95026310D01*
X121229664Y-94964237D01*
X121258337Y-94909159D01*
X121318433Y-94842416D01*
X121413079Y-94678484D01*
X121440420Y-94594337D01*
X121471574Y-94498456D01*
X121491360Y-94310200D01*
X121471574Y-94121944D01*
X121413079Y-93941916D01*
X121413079Y-93941915D01*
X121318433Y-93777983D01*
X121191770Y-93637310D01*
X121038630Y-93526048D01*
X120865702Y-93449055D01*
X120680548Y-93409700D01*
X120680546Y-93409700D01*
X120491254Y-93409700D01*
X120491252Y-93409700D01*
X120306097Y-93449055D01*
X120133169Y-93526048D01*
X119980029Y-93637310D01*
X119853366Y-93777983D01*
X119758720Y-93941915D01*
X119700226Y-94121942D01*
X119680440Y-94310200D01*
X119700226Y-94498457D01*
X119758720Y-94678484D01*
X119853364Y-94842413D01*
X119853367Y-94842416D01*
X119928552Y-94925917D01*
X119952164Y-94964449D01*
X119960400Y-95008887D01*
X119960400Y-95204756D01*
X119958135Y-95225262D01*
X119960339Y-95295373D01*
X119960400Y-95299268D01*
X119960400Y-95326849D01*
X119960903Y-95330834D01*
X119961818Y-95342467D01*
X119963190Y-95386126D01*
X119968779Y-95405360D01*
X119972725Y-95424416D01*
X119975235Y-95444292D01*
X119991314Y-95484904D01*
X119995097Y-95495951D01*
X120007282Y-95537891D01*
X120017480Y-95555135D01*
X120026036Y-95572600D01*
X120033414Y-95591232D01*
X120033415Y-95591233D01*
X120059080Y-95626559D01*
X120065493Y-95636322D01*
X120087726Y-95673916D01*
X120087729Y-95673919D01*
X120087730Y-95673920D01*
X120101895Y-95688085D01*
X120114527Y-95702875D01*
X120126306Y-95719087D01*
X120159958Y-95746926D01*
X120168599Y-95754789D01*
X120295530Y-95881720D01*
X120325780Y-95931083D01*
X120330322Y-95988799D01*
X120308167Y-96042286D01*
X120264144Y-96079886D01*
X120207849Y-96093401D01*
X118959043Y-96093401D01*
X118938535Y-96091136D01*
X118868412Y-96093340D01*
X118864518Y-96093401D01*
X118836949Y-96093401D01*
X118832970Y-96093903D01*
X118821340Y-96094818D01*
X118777671Y-96096190D01*
X118758427Y-96101781D01*
X118739383Y-96105725D01*
X118719507Y-96108236D01*
X118678899Y-96124314D01*
X118667853Y-96128095D01*
X118625909Y-96140283D01*
X118625906Y-96140284D01*
X118608664Y-96150480D01*
X118591203Y-96159034D01*
X118572566Y-96166413D01*
X118537230Y-96192086D01*
X118527473Y-96198496D01*
X118489879Y-96220730D01*
X118475712Y-96234897D01*
X118460923Y-96247527D01*
X118444712Y-96259305D01*
X118416871Y-96292959D01*
X118409010Y-96301598D01*
X116591828Y-98118781D01*
X116551600Y-98145661D01*
X116504147Y-98155100D01*
X112661149Y-98155100D01*
X112606305Y-98142312D01*
X112562773Y-98106586D01*
X112539532Y-98055291D01*
X112541374Y-97999006D01*
X112585769Y-97833318D01*
X112606357Y-97598000D01*
X112585769Y-97362681D01*
X112524630Y-97134507D01*
X112424799Y-96920421D01*
X112366126Y-96836626D01*
X112366125Y-96836625D01*
X111338880Y-97863871D01*
X111283293Y-97895965D01*
X111219105Y-97895965D01*
X111163518Y-97863871D01*
X110985328Y-97685681D01*
X110953234Y-97630094D01*
X110953234Y-97565906D01*
X110985328Y-97510319D01*
X112012573Y-96483073D01*
X112012573Y-96483072D01*
X111936605Y-96429880D01*
X111897739Y-96385562D01*
X111883728Y-96328305D01*
X111897739Y-96271048D01*
X111936602Y-96226732D01*
X112122601Y-96096495D01*
X112289695Y-95929401D01*
X112425235Y-95735830D01*
X112525103Y-95521663D01*
X112586263Y-95293408D01*
X112606859Y-95058000D01*
X112601032Y-94991404D01*
X112586263Y-94822592D01*
X112557728Y-94716097D01*
X112525103Y-94594337D01*
X112425235Y-94380171D01*
X112289695Y-94186599D01*
X112122601Y-94019505D01*
X111937039Y-93889573D01*
X111898175Y-93845257D01*
X111884164Y-93788000D01*
X111898175Y-93730743D01*
X111937039Y-93686426D01*
X112122601Y-93556495D01*
X112289695Y-93389401D01*
X112424853Y-93196374D01*
X112469170Y-93157511D01*
X112526427Y-93143500D01*
X139910856Y-93143500D01*
X139931362Y-93145764D01*
X139934265Y-93145672D01*
X139934267Y-93145673D01*
X140001472Y-93143561D01*
X140005368Y-93143500D01*
X140032949Y-93143500D01*
X140032950Y-93143500D01*
X140036919Y-93142998D01*
X140048565Y-93142080D01*
X140092227Y-93140709D01*
X140111459Y-93135120D01*
X140130518Y-93131174D01*
X140136796Y-93130381D01*
X140150392Y-93128664D01*
X140191007Y-93112582D01*
X140202044Y-93108803D01*
X140243990Y-93096618D01*
X140261229Y-93086422D01*
X140278702Y-93077862D01*
X140297332Y-93070486D01*
X140332664Y-93044814D01*
X140342430Y-93038400D01*
X140380018Y-93016171D01*
X140380017Y-93016171D01*
X140380020Y-93016170D01*
X140394185Y-93002004D01*
X140408973Y-92989373D01*
X140425187Y-92977594D01*
X140453038Y-92943926D01*
X140460879Y-92935309D01*
X143969986Y-89426202D01*
X143986087Y-89413304D01*
X143988074Y-89411187D01*
X143988077Y-89411186D01*
X144034132Y-89362141D01*
X144036813Y-89359376D01*
X144056320Y-89339870D01*
X144058781Y-89336695D01*
X144066352Y-89327831D01*
X144096262Y-89295982D01*
X144105913Y-89278426D01*
X144116593Y-89262167D01*
X144128874Y-89246336D01*
X144146218Y-89206251D01*
X144151360Y-89195756D01*
X144172397Y-89157492D01*
X144177378Y-89138088D01*
X144183680Y-89119683D01*
X144191638Y-89101295D01*
X144198470Y-89058148D01*
X144200839Y-89046716D01*
X144211700Y-89004420D01*
X144211700Y-88984384D01*
X144213227Y-88964985D01*
X144214338Y-88957970D01*
X144216360Y-88945204D01*
X144212358Y-88902878D01*
X144212250Y-88901725D01*
X144211700Y-88890056D01*
X144211700Y-85864887D01*
X144219936Y-85820449D01*
X144243547Y-85781917D01*
X144318733Y-85698416D01*
X144326678Y-85684656D01*
X144413379Y-85534484D01*
X144439937Y-85452746D01*
X144471874Y-85354456D01*
X144491660Y-85166200D01*
X144471874Y-84977944D01*
X144413379Y-84797916D01*
X144413379Y-84797915D01*
X144318733Y-84633983D01*
X144192070Y-84493310D01*
X144038930Y-84382048D01*
X143866002Y-84305055D01*
X143680848Y-84265700D01*
X143680846Y-84265700D01*
X143491554Y-84265700D01*
X143491552Y-84265700D01*
X143306397Y-84305055D01*
X143136884Y-84380528D01*
X143086448Y-84391249D01*
X143036012Y-84380528D01*
X142866499Y-84305055D01*
X142681345Y-84265700D01*
X142681343Y-84265700D01*
X142492051Y-84265700D01*
X142492049Y-84265700D01*
X142306894Y-84305055D01*
X142122062Y-84387349D01*
X142121911Y-84387010D01*
X142088302Y-84401971D01*
X142036743Y-84401969D01*
X141989642Y-84380997D01*
X141956127Y-84356646D01*
X141783202Y-84279655D01*
X141598048Y-84240300D01*
X141598046Y-84240300D01*
X141408754Y-84240300D01*
X141408752Y-84240300D01*
X141223597Y-84279655D01*
X141050670Y-84356648D01*
X141042883Y-84362306D01*
X140995780Y-84383277D01*
X140944220Y-84383277D01*
X140897117Y-84362306D01*
X140889329Y-84356648D01*
X140716402Y-84279655D01*
X140531248Y-84240300D01*
X140531246Y-84240300D01*
X140341954Y-84240300D01*
X140341952Y-84240300D01*
X140156797Y-84279655D01*
X139983867Y-84356649D01*
X139980860Y-84358834D01*
X139933756Y-84379804D01*
X139882195Y-84379803D01*
X139835093Y-84358831D01*
X139832088Y-84356648D01*
X139823786Y-84350615D01*
X139797127Y-84331246D01*
X139624202Y-84254255D01*
X139439048Y-84214900D01*
X139439046Y-84214900D01*
X139249754Y-84214900D01*
X139249752Y-84214900D01*
X139064597Y-84254255D01*
X138891669Y-84331248D01*
X138738529Y-84442510D01*
X138611867Y-84583184D01*
X138591085Y-84619178D01*
X138549407Y-84662335D01*
X138492348Y-84680874D01*
X138433264Y-84670456D01*
X138354200Y-84635254D01*
X138169048Y-84595900D01*
X138169046Y-84595900D01*
X137979754Y-84595900D01*
X137979752Y-84595900D01*
X137794597Y-84635255D01*
X137621669Y-84712248D01*
X137468529Y-84823510D01*
X137341866Y-84964183D01*
X137247220Y-85128115D01*
X137188726Y-85308142D01*
X137168940Y-85496400D01*
X137188726Y-85684657D01*
X137247220Y-85864684D01*
X137341866Y-86028616D01*
X137468529Y-86169289D01*
X137621669Y-86280551D01*
X137794597Y-86357544D01*
X137833281Y-86365767D01*
X137883842Y-86389343D01*
X137918950Y-86432699D01*
X137931500Y-86487057D01*
X137931500Y-87515513D01*
X137923264Y-87559951D01*
X137899652Y-87598482D01*
X137868397Y-87633195D01*
X137824464Y-87681986D01*
X137729820Y-87845915D01*
X137671326Y-88025942D01*
X137651540Y-88214200D01*
X137659500Y-88289939D01*
X137647629Y-88357259D01*
X137601889Y-88408058D01*
X137536179Y-88426900D01*
X116591652Y-88426900D01*
X116544199Y-88417461D01*
X116503971Y-88390581D01*
X114752789Y-86639399D01*
X120658940Y-86639399D01*
X120678726Y-86827657D01*
X120737220Y-87007684D01*
X120831866Y-87171616D01*
X120958529Y-87312289D01*
X121111669Y-87423551D01*
X121284597Y-87500544D01*
X121469752Y-87539900D01*
X121469754Y-87539900D01*
X121659046Y-87539900D01*
X121659048Y-87539900D01*
X121783456Y-87513456D01*
X121844203Y-87500544D01*
X122017130Y-87423551D01*
X122137959Y-87335764D01*
X122170270Y-87312289D01*
X122270000Y-87201528D01*
X122311715Y-87171220D01*
X122362150Y-87160500D01*
X132752920Y-87160500D01*
X132803355Y-87171220D01*
X132845070Y-87201528D01*
X132921929Y-87286889D01*
X133075069Y-87398151D01*
X133247997Y-87475144D01*
X133433152Y-87514500D01*
X133433154Y-87514500D01*
X133622446Y-87514500D01*
X133622448Y-87514500D01*
X133745883Y-87488262D01*
X133807603Y-87475144D01*
X133980530Y-87398151D01*
X134080939Y-87325200D01*
X134133670Y-87286889D01*
X134260333Y-87146216D01*
X134354979Y-86982284D01*
X134379149Y-86907897D01*
X134413474Y-86802256D01*
X134433260Y-86614000D01*
X134413474Y-86425744D01*
X134366298Y-86280551D01*
X134354979Y-86245715D01*
X134260333Y-86081783D01*
X134133670Y-85941110D01*
X133980530Y-85829848D01*
X133807602Y-85752855D01*
X133622448Y-85713500D01*
X133622446Y-85713500D01*
X133433154Y-85713500D01*
X133433152Y-85713500D01*
X133247997Y-85752855D01*
X133075069Y-85829848D01*
X132998034Y-85885818D01*
X132963467Y-85903431D01*
X132925149Y-85909500D01*
X122132090Y-85909500D01*
X122093772Y-85903431D01*
X122059205Y-85885818D01*
X122017130Y-85855249D01*
X121844202Y-85778255D01*
X121659048Y-85738900D01*
X121659046Y-85738900D01*
X121469754Y-85738900D01*
X121469752Y-85738900D01*
X121284597Y-85778255D01*
X121111669Y-85855248D01*
X120958529Y-85966510D01*
X120831866Y-86107183D01*
X120737220Y-86271115D01*
X120678726Y-86451142D01*
X120658940Y-86639399D01*
X114752789Y-86639399D01*
X114577446Y-86464056D01*
X112627602Y-84514211D01*
X112614706Y-84498113D01*
X112563575Y-84450098D01*
X112560778Y-84447387D01*
X112541268Y-84427877D01*
X112538092Y-84425413D01*
X112529234Y-84417849D01*
X112525622Y-84414457D01*
X112498113Y-84376459D01*
X112491513Y-84362306D01*
X112425235Y-84220171D01*
X112289695Y-84026599D01*
X112122601Y-83859505D01*
X111937039Y-83729573D01*
X111898175Y-83685257D01*
X111884164Y-83628000D01*
X111898175Y-83570743D01*
X111937039Y-83526426D01*
X112122601Y-83396495D01*
X112289695Y-83229401D01*
X112425235Y-83035830D01*
X112525103Y-82821663D01*
X112586263Y-82593408D01*
X112606859Y-82358000D01*
X112586263Y-82122592D01*
X112525103Y-81894337D01*
X112425235Y-81680171D01*
X112289695Y-81486599D01*
X112122601Y-81319505D01*
X111929030Y-81183965D01*
X111714863Y-81084097D01*
X111653701Y-81067709D01*
X111486607Y-81022936D01*
X111251200Y-81002340D01*
X111015792Y-81022936D01*
X110787536Y-81084097D01*
X110573370Y-81183965D01*
X110379798Y-81319505D01*
X110212705Y-81486598D01*
X110077165Y-81680170D01*
X109977297Y-81894336D01*
X109916136Y-82122592D01*
X109904012Y-82261170D01*
X109892866Y-82302767D01*
X109868165Y-82338043D01*
X109558681Y-82647527D01*
X109509318Y-82677777D01*
X109451602Y-82682319D01*
X109398115Y-82660164D01*
X109360515Y-82616141D01*
X109347000Y-82559846D01*
X109347000Y-78650000D01*
X124444540Y-78650000D01*
X124464326Y-78838257D01*
X124522820Y-79018284D01*
X124617466Y-79182216D01*
X124744129Y-79322889D01*
X124897269Y-79434151D01*
X125070197Y-79511144D01*
X125255352Y-79550500D01*
X125255354Y-79550500D01*
X125444646Y-79550500D01*
X125444648Y-79550500D01*
X125568084Y-79524262D01*
X125629803Y-79511144D01*
X125802730Y-79434151D01*
X125896327Y-79366149D01*
X125955870Y-79322889D01*
X125986244Y-79289156D01*
X126082533Y-79182216D01*
X126177179Y-79018284D01*
X126235674Y-78838256D01*
X126255460Y-78650000D01*
X126235674Y-78461744D01*
X126177179Y-78281716D01*
X126177179Y-78281715D01*
X126082535Y-78117786D01*
X126038735Y-78069142D01*
X126007347Y-78034282D01*
X125983736Y-77995751D01*
X125975500Y-77951313D01*
X125975500Y-75539600D01*
X132673140Y-75539600D01*
X132692926Y-75727857D01*
X132751420Y-75907884D01*
X132846066Y-76071816D01*
X132972729Y-76212489D01*
X133125869Y-76323751D01*
X133298797Y-76400744D01*
X133483952Y-76440100D01*
X133483954Y-76440100D01*
X133673246Y-76440100D01*
X133673248Y-76440100D01*
X133796683Y-76413862D01*
X133858403Y-76400744D01*
X134031330Y-76323751D01*
X134103337Y-76271435D01*
X134184470Y-76212489D01*
X134311133Y-76071816D01*
X134405779Y-75907884D01*
X134414032Y-75882484D01*
X134464274Y-75727856D01*
X134484060Y-75539600D01*
X134481390Y-75514199D01*
X135822740Y-75514199D01*
X135842526Y-75702457D01*
X135901020Y-75882484D01*
X135995666Y-76046416D01*
X136122329Y-76187089D01*
X136275469Y-76298351D01*
X136448397Y-76375344D01*
X136633552Y-76414700D01*
X136633554Y-76414700D01*
X136822846Y-76414700D01*
X136822848Y-76414700D01*
X136946284Y-76388462D01*
X137008003Y-76375344D01*
X137180930Y-76298351D01*
X137248471Y-76249280D01*
X137334070Y-76187089D01*
X137460733Y-76046416D01*
X137555379Y-75882484D01*
X137555379Y-75882483D01*
X137613874Y-75702456D01*
X137631521Y-75534544D01*
X137642921Y-75494125D01*
X137667158Y-75459830D01*
X138551170Y-74575819D01*
X138591399Y-74548939D01*
X138638852Y-74539500D01*
X141333053Y-74539500D01*
X141383488Y-74550220D01*
X141425201Y-74580526D01*
X141430929Y-74586888D01*
X141584070Y-74698151D01*
X141584071Y-74698151D01*
X141584072Y-74698152D01*
X141756997Y-74775144D01*
X141942152Y-74814500D01*
X141942154Y-74814500D01*
X142131446Y-74814500D01*
X142131448Y-74814500D01*
X142285792Y-74781693D01*
X142316603Y-74775144D01*
X142489530Y-74698151D01*
X142597864Y-74619442D01*
X142642670Y-74586889D01*
X142648398Y-74580528D01*
X142769333Y-74446216D01*
X142863979Y-74282284D01*
X142922474Y-74102256D01*
X142942260Y-73914000D01*
X142922474Y-73725744D01*
X142863979Y-73545716D01*
X142863979Y-73545715D01*
X142769333Y-73381783D01*
X142642670Y-73241110D01*
X142489530Y-73129848D01*
X142316602Y-73052855D01*
X142131448Y-73013500D01*
X142131446Y-73013500D01*
X141942154Y-73013500D01*
X141942152Y-73013500D01*
X141756997Y-73052855D01*
X141584072Y-73129847D01*
X141481975Y-73204024D01*
X141430929Y-73241112D01*
X141425201Y-73247473D01*
X141383488Y-73277780D01*
X141333053Y-73288500D01*
X138411144Y-73288500D01*
X138390636Y-73286235D01*
X138320513Y-73288439D01*
X138316619Y-73288500D01*
X138289050Y-73288500D01*
X138285071Y-73289002D01*
X138273441Y-73289917D01*
X138229772Y-73291289D01*
X138210528Y-73296880D01*
X138191484Y-73300824D01*
X138171608Y-73303335D01*
X138131000Y-73319413D01*
X138119954Y-73323194D01*
X138078010Y-73335382D01*
X138078007Y-73335383D01*
X138060765Y-73345579D01*
X138043304Y-73354133D01*
X138024667Y-73361512D01*
X137989331Y-73387185D01*
X137979574Y-73393595D01*
X137941980Y-73415829D01*
X137927813Y-73429996D01*
X137913024Y-73442626D01*
X137896813Y-73454404D01*
X137868972Y-73488058D01*
X137861111Y-73496697D01*
X136780428Y-74577381D01*
X136740200Y-74604261D01*
X136692747Y-74613700D01*
X136633552Y-74613700D01*
X136448397Y-74653055D01*
X136275469Y-74730048D01*
X136122329Y-74841310D01*
X135995666Y-74981983D01*
X135901020Y-75145915D01*
X135842526Y-75325942D01*
X135822740Y-75514199D01*
X134481390Y-75514199D01*
X134481010Y-75510582D01*
X134487442Y-75456229D01*
X134516647Y-75409941D01*
X138627370Y-71299219D01*
X138667599Y-71272339D01*
X138715052Y-71262900D01*
X154972558Y-71262900D01*
X155029815Y-71276911D01*
X155074131Y-71315775D01*
X155191505Y-71483401D01*
X155358599Y-71650495D01*
X155552170Y-71786035D01*
X155766337Y-71885903D01*
X155994592Y-71947063D01*
X156230000Y-71967659D01*
X156465408Y-71947063D01*
X156693663Y-71885903D01*
X156907830Y-71786035D01*
X157101401Y-71650495D01*
X157223717Y-71528178D01*
X157276460Y-71496885D01*
X157337752Y-71494696D01*
X157392597Y-71522149D01*
X157427577Y-71572528D01*
X157476647Y-71704088D01*
X157562811Y-71819189D01*
X157598670Y-71846033D01*
X157637154Y-71893789D01*
X157648043Y-71954146D01*
X157628674Y-72012340D01*
X157583786Y-72054132D01*
X157537573Y-72065927D01*
X157537876Y-72068325D01*
X157526153Y-72069804D01*
X157514529Y-72070718D01*
X157470868Y-72072090D01*
X157451628Y-72077680D01*
X157432581Y-72081625D01*
X157412709Y-72084135D01*
X157372099Y-72100213D01*
X157361054Y-72103994D01*
X157319111Y-72116180D01*
X157301869Y-72126378D01*
X157284397Y-72134938D01*
X157265766Y-72142314D01*
X157230438Y-72167981D01*
X157220680Y-72174391D01*
X157183079Y-72196629D01*
X157168910Y-72210798D01*
X157154122Y-72223428D01*
X157137913Y-72235205D01*
X157110072Y-72268858D01*
X157102211Y-72277496D01*
X150166228Y-79213481D01*
X150126000Y-79240361D01*
X150078547Y-79249800D01*
X150019352Y-79249800D01*
X149834197Y-79289155D01*
X149661269Y-79366148D01*
X149508129Y-79477410D01*
X149381466Y-79618083D01*
X149286820Y-79782015D01*
X149228326Y-79962042D01*
X149208540Y-80150299D01*
X149228326Y-80338557D01*
X149286820Y-80518584D01*
X149381466Y-80682516D01*
X149508129Y-80823189D01*
X149661269Y-80934451D01*
X149834197Y-81011444D01*
X150019352Y-81050800D01*
X150019354Y-81050800D01*
X150208646Y-81050800D01*
X150208648Y-81050800D01*
X150339737Y-81022936D01*
X150393803Y-81011444D01*
X150566730Y-80934451D01*
X150719871Y-80823188D01*
X150846533Y-80682516D01*
X150941179Y-80518584D01*
X150999674Y-80338556D01*
X151017321Y-80170644D01*
X151028721Y-80130225D01*
X151052958Y-80095930D01*
X154864818Y-76284072D01*
X154914182Y-76253822D01*
X154971898Y-76249280D01*
X155025385Y-76271435D01*
X155062985Y-76315458D01*
X155076500Y-76371753D01*
X155076500Y-80784513D01*
X155068264Y-80828951D01*
X155044652Y-80867482D01*
X155011545Y-80904251D01*
X154969464Y-80950986D01*
X154874820Y-81114915D01*
X154816326Y-81294942D01*
X154796540Y-81483199D01*
X154816326Y-81671457D01*
X154874820Y-81851484D01*
X154969466Y-82015416D01*
X155096129Y-82156089D01*
X155249269Y-82267351D01*
X155422197Y-82344344D01*
X155607352Y-82383700D01*
X155607354Y-82383700D01*
X155796646Y-82383700D01*
X155796648Y-82383700D01*
X155927911Y-82355799D01*
X155981803Y-82344344D01*
X156154730Y-82267351D01*
X156307871Y-82156088D01*
X156434533Y-82015416D01*
X156529179Y-81851484D01*
X156587674Y-81671456D01*
X156607460Y-81483200D01*
X156587674Y-81294944D01*
X156529179Y-81114916D01*
X156529179Y-81114915D01*
X156434535Y-80950986D01*
X156419647Y-80934451D01*
X156359347Y-80867482D01*
X156335736Y-80828951D01*
X156327500Y-80784513D01*
X156327500Y-78641874D01*
X156346803Y-78575431D01*
X156398704Y-78529675D01*
X156467042Y-78518852D01*
X156530541Y-78546331D01*
X156569431Y-78603557D01*
X156576620Y-78625683D01*
X156671266Y-78789616D01*
X156797929Y-78930289D01*
X156951069Y-79041551D01*
X157123997Y-79118544D01*
X157309152Y-79157900D01*
X157309154Y-79157900D01*
X157368348Y-79157900D01*
X157415801Y-79167339D01*
X157456029Y-79194219D01*
X160577381Y-82315571D01*
X160604261Y-82355799D01*
X160613700Y-82403252D01*
X160613700Y-84467513D01*
X160605464Y-84511951D01*
X160581852Y-84550482D01*
X160552408Y-84583184D01*
X160506664Y-84633986D01*
X160412020Y-84797915D01*
X160353526Y-84977942D01*
X160333740Y-85166200D01*
X160353526Y-85354457D01*
X160412020Y-85534484D01*
X160506666Y-85698416D01*
X160633329Y-85839089D01*
X160786469Y-85950351D01*
X160959397Y-86027344D01*
X161144552Y-86066700D01*
X161144554Y-86066700D01*
X161333846Y-86066700D01*
X161333848Y-86066700D01*
X161457284Y-86040462D01*
X161519003Y-86027344D01*
X161691930Y-85950351D01*
X161756510Y-85903431D01*
X161845070Y-85839089D01*
X161899845Y-85778256D01*
X161971733Y-85698416D01*
X162066379Y-85534484D01*
X162124874Y-85354456D01*
X162144660Y-85166200D01*
X162124874Y-84977944D01*
X162066379Y-84797916D01*
X162066379Y-84797915D01*
X161971735Y-84633986D01*
X161925992Y-84583184D01*
X161896547Y-84550482D01*
X161872936Y-84511951D01*
X161864700Y-84467513D01*
X161864700Y-82175544D01*
X161866964Y-82155036D01*
X161864761Y-82084913D01*
X161864700Y-82081019D01*
X161864700Y-82053454D01*
X161864700Y-82053450D01*
X161864197Y-82049470D01*
X161863281Y-82037828D01*
X161862577Y-82015416D01*
X161861910Y-81994173D01*
X161856318Y-81974926D01*
X161852374Y-81955885D01*
X161849864Y-81936008D01*
X161833779Y-81895383D01*
X161830008Y-81884368D01*
X161817818Y-81842410D01*
X161807614Y-81825155D01*
X161799061Y-81807695D01*
X161791686Y-81789069D01*
X161791686Y-81789068D01*
X161766008Y-81753725D01*
X161759601Y-81743971D01*
X161737369Y-81706379D01*
X161723206Y-81692216D01*
X161710567Y-81677417D01*
X161698795Y-81661213D01*
X161665141Y-81633373D01*
X161656499Y-81625509D01*
X160110324Y-80079334D01*
X176710269Y-80079334D01*
X176722783Y-80150300D01*
X176740735Y-80252111D01*
X176810224Y-80413204D01*
X176914991Y-80553930D01*
X177049384Y-80666699D01*
X177049385Y-80666699D01*
X177049387Y-80666701D01*
X177206167Y-80745439D01*
X177206168Y-80745439D01*
X177206170Y-80745440D01*
X177376877Y-80785899D01*
X177376879Y-80785899D01*
X177508304Y-80785899D01*
X177508309Y-80785899D01*
X177638855Y-80770640D01*
X177803716Y-80710636D01*
X177950295Y-80614229D01*
X178070691Y-80486618D01*
X178158411Y-80334681D01*
X178208729Y-80166610D01*
X178218930Y-79991465D01*
X178188465Y-79818689D01*
X178118976Y-79657596D01*
X178014209Y-79516870D01*
X177967185Y-79477412D01*
X177879815Y-79404100D01*
X177723029Y-79325359D01*
X177552323Y-79284901D01*
X177552321Y-79284901D01*
X177420891Y-79284901D01*
X177339299Y-79294437D01*
X177290342Y-79300160D01*
X177125484Y-79360163D01*
X176978904Y-79456571D01*
X176858509Y-79584181D01*
X176770789Y-79736117D01*
X176757048Y-79782015D01*
X176720471Y-79904190D01*
X176720470Y-79904192D01*
X176720471Y-79904192D01*
X176710269Y-80079334D01*
X160110324Y-80079334D01*
X158342760Y-78311769D01*
X158318520Y-78277471D01*
X158307121Y-78237055D01*
X158289474Y-78069144D01*
X158230979Y-77889116D01*
X158230979Y-77889115D01*
X158136333Y-77725183D01*
X158009670Y-77584510D01*
X157856530Y-77473248D01*
X157683602Y-77396255D01*
X157498448Y-77356900D01*
X157498446Y-77356900D01*
X157309154Y-77356900D01*
X157309152Y-77356900D01*
X157123997Y-77396255D01*
X156951069Y-77473248D01*
X156797929Y-77584510D01*
X156671266Y-77725183D01*
X156576620Y-77889116D01*
X156569431Y-77911243D01*
X156530541Y-77968469D01*
X156467042Y-77995948D01*
X156398704Y-77985125D01*
X156346803Y-77939369D01*
X156327500Y-77872926D01*
X156327500Y-75596052D01*
X156336939Y-75548599D01*
X156363819Y-75508371D01*
X158065572Y-73806619D01*
X158105800Y-73779739D01*
X158153253Y-73770300D01*
X160960947Y-73770300D01*
X161017242Y-73783815D01*
X161061265Y-73821415D01*
X161083420Y-73874902D01*
X161078878Y-73932618D01*
X161048630Y-73981978D01*
X160812825Y-74217783D01*
X160779208Y-74251400D01*
X160763109Y-74264297D01*
X160715096Y-74315425D01*
X160712391Y-74318217D01*
X160692874Y-74337734D01*
X160690415Y-74340905D01*
X160682842Y-74349772D01*
X160652935Y-74381620D01*
X160643285Y-74399174D01*
X160632609Y-74415428D01*
X160620326Y-74431263D01*
X160602975Y-74471358D01*
X160597838Y-74481844D01*
X160576802Y-74520107D01*
X160571821Y-74539509D01*
X160565520Y-74557911D01*
X160557561Y-74576302D01*
X160550728Y-74619442D01*
X160548360Y-74630874D01*
X160537500Y-74673178D01*
X160537500Y-74693216D01*
X160535973Y-74712615D01*
X160532840Y-74732394D01*
X160536950Y-74775875D01*
X160537500Y-74787544D01*
X160537500Y-77482513D01*
X160529264Y-77526951D01*
X160505652Y-77565482D01*
X160488520Y-77584510D01*
X160430464Y-77648986D01*
X160335820Y-77812915D01*
X160277326Y-77992942D01*
X160257540Y-78181199D01*
X160277326Y-78369457D01*
X160335820Y-78549484D01*
X160430466Y-78713416D01*
X160557129Y-78854089D01*
X160710269Y-78965351D01*
X160883197Y-79042344D01*
X161068352Y-79081700D01*
X161068354Y-79081700D01*
X161257646Y-79081700D01*
X161257648Y-79081700D01*
X161381084Y-79055462D01*
X161442803Y-79042344D01*
X161615730Y-78965351D01*
X161768871Y-78854088D01*
X161895533Y-78713416D01*
X161990179Y-78549484D01*
X162048674Y-78369456D01*
X162068460Y-78181200D01*
X162048674Y-77992944D01*
X161990179Y-77812916D01*
X161990179Y-77812915D01*
X161895535Y-77648986D01*
X161882427Y-77634429D01*
X161820347Y-77565482D01*
X161796736Y-77526951D01*
X161788500Y-77482513D01*
X161788500Y-75062652D01*
X161797939Y-75015199D01*
X161824819Y-74974971D01*
X162528772Y-74271019D01*
X162569000Y-74244139D01*
X162616453Y-74234700D01*
X167367053Y-74234700D01*
X167417488Y-74245420D01*
X167459201Y-74275726D01*
X167464929Y-74282088D01*
X167618070Y-74393351D01*
X167618071Y-74393351D01*
X167618072Y-74393352D01*
X167790997Y-74470344D01*
X167976152Y-74509700D01*
X167976154Y-74509700D01*
X168165446Y-74509700D01*
X168165448Y-74509700D01*
X168345832Y-74471358D01*
X168350603Y-74470344D01*
X168523530Y-74393351D01*
X168583512Y-74349772D01*
X168676670Y-74282089D01*
X168682398Y-74275728D01*
X168803333Y-74141416D01*
X168897979Y-73977484D01*
X168956474Y-73797456D01*
X168976260Y-73609200D01*
X168956474Y-73420944D01*
X168918260Y-73303335D01*
X168897979Y-73240915D01*
X168803333Y-73076983D01*
X168676670Y-72936310D01*
X168523530Y-72825048D01*
X168350602Y-72748055D01*
X168165448Y-72708700D01*
X168165446Y-72708700D01*
X167976154Y-72708700D01*
X167976152Y-72708700D01*
X167790997Y-72748055D01*
X167618072Y-72825047D01*
X167515975Y-72899224D01*
X167464929Y-72936312D01*
X167459201Y-72942673D01*
X167417488Y-72972980D01*
X167367053Y-72983700D01*
X167340252Y-72983700D01*
X167283957Y-72970185D01*
X167239934Y-72932585D01*
X167217779Y-72879098D01*
X167222321Y-72821382D01*
X167252571Y-72772019D01*
X167396090Y-72628500D01*
X167911524Y-72113064D01*
X167967110Y-72080972D01*
X168031294Y-72080972D01*
X168196592Y-72125263D01*
X168353530Y-72138993D01*
X168431999Y-72145859D01*
X168431999Y-72145858D01*
X168432000Y-72145859D01*
X168667408Y-72125263D01*
X168895663Y-72064103D01*
X169109830Y-71964235D01*
X169303401Y-71828695D01*
X169470495Y-71661601D01*
X169600426Y-71476039D01*
X169644743Y-71437175D01*
X169702000Y-71423164D01*
X169759257Y-71437175D01*
X169803573Y-71476039D01*
X169933505Y-71661601D01*
X170100599Y-71828695D01*
X170294170Y-71964235D01*
X170508337Y-72064103D01*
X170732849Y-72124260D01*
X170736592Y-72125263D01*
X170971999Y-72145859D01*
X170971999Y-72145858D01*
X170972000Y-72145859D01*
X171207408Y-72125263D01*
X171435663Y-72064103D01*
X171649830Y-71964235D01*
X171843401Y-71828695D01*
X172010495Y-71661601D01*
X172140426Y-71476039D01*
X172184743Y-71437175D01*
X172242000Y-71423164D01*
X172299257Y-71437175D01*
X172343573Y-71476039D01*
X172473505Y-71661601D01*
X172640599Y-71828695D01*
X172834170Y-71964235D01*
X173048337Y-72064103D01*
X173272849Y-72124260D01*
X173276592Y-72125263D01*
X173511999Y-72145859D01*
X173511999Y-72145858D01*
X173512000Y-72145859D01*
X173747408Y-72125263D01*
X173975663Y-72064103D01*
X174189830Y-71964235D01*
X174383401Y-71828695D01*
X174550495Y-71661601D01*
X174686035Y-71468030D01*
X174785903Y-71253863D01*
X174847063Y-71025608D01*
X174867659Y-70790200D01*
X174862407Y-70730176D01*
X174847063Y-70554792D01*
X174811163Y-70420811D01*
X174785903Y-70326537D01*
X174686035Y-70112371D01*
X174550495Y-69918799D01*
X174383401Y-69751705D01*
X174189830Y-69616165D01*
X173975663Y-69516297D01*
X173903074Y-69496847D01*
X173747407Y-69455136D01*
X173511999Y-69434540D01*
X173276592Y-69455136D01*
X173048336Y-69516297D01*
X172834170Y-69616165D01*
X172640598Y-69751705D01*
X172473505Y-69918798D01*
X172343575Y-70104359D01*
X172299257Y-70143225D01*
X172242000Y-70157236D01*
X172184743Y-70143225D01*
X172140425Y-70104359D01*
X172077638Y-70014690D01*
X172010495Y-69918799D01*
X171843401Y-69751705D01*
X171649830Y-69616165D01*
X171435663Y-69516297D01*
X171363074Y-69496847D01*
X171207407Y-69455136D01*
X170971999Y-69434540D01*
X170736592Y-69455136D01*
X170508336Y-69516297D01*
X170294170Y-69616165D01*
X170100598Y-69751705D01*
X169933505Y-69918798D01*
X169803575Y-70104359D01*
X169759257Y-70143225D01*
X169702000Y-70157236D01*
X169644743Y-70143225D01*
X169600425Y-70104359D01*
X169537638Y-70014690D01*
X169470495Y-69918799D01*
X169303401Y-69751705D01*
X169109830Y-69616165D01*
X168895663Y-69516297D01*
X168823074Y-69496847D01*
X168667407Y-69455136D01*
X168431999Y-69434540D01*
X168196592Y-69455136D01*
X167968336Y-69516297D01*
X167754170Y-69616165D01*
X167560598Y-69751705D01*
X167393505Y-69918798D01*
X167263575Y-70104359D01*
X167219257Y-70143225D01*
X167162000Y-70157236D01*
X167104743Y-70143225D01*
X167060425Y-70104359D01*
X166997638Y-70014690D01*
X166930495Y-69918799D01*
X166763401Y-69751705D01*
X166569830Y-69616165D01*
X166355663Y-69516297D01*
X166283074Y-69496847D01*
X166127407Y-69455136D01*
X165891999Y-69434540D01*
X165656592Y-69455136D01*
X165428336Y-69516297D01*
X165214170Y-69616165D01*
X165020601Y-69751703D01*
X164898285Y-69874019D01*
X164845539Y-69905314D01*
X164784246Y-69907503D01*
X164729401Y-69880050D01*
X164694422Y-69829671D01*
X164645352Y-69698111D01*
X164559188Y-69583011D01*
X164444089Y-69496847D01*
X164309375Y-69446602D01*
X164249824Y-69440200D01*
X163602000Y-69440200D01*
X163602000Y-70916200D01*
X163585387Y-70978200D01*
X163540000Y-71023587D01*
X163478000Y-71040200D01*
X162002000Y-71040200D01*
X162002000Y-71688024D01*
X162008402Y-71747575D01*
X162064878Y-71898993D01*
X162061414Y-71900284D01*
X162074428Y-71934239D01*
X162061809Y-72000799D01*
X162016091Y-72050794D01*
X161950922Y-72069300D01*
X160015641Y-72069300D01*
X159956214Y-72054132D01*
X159911326Y-72012340D01*
X159891957Y-71954146D01*
X159902846Y-71893789D01*
X159941330Y-71846033D01*
X159977188Y-71819189D01*
X160063352Y-71704089D01*
X160113597Y-71569375D01*
X160120000Y-71509824D01*
X160120000Y-70862000D01*
X158644000Y-70862000D01*
X158582000Y-70845387D01*
X158536613Y-70800000D01*
X158520000Y-70738000D01*
X158520000Y-70540200D01*
X162002000Y-70540200D01*
X163102000Y-70540200D01*
X163102000Y-69440200D01*
X162454176Y-69440200D01*
X162394624Y-69446602D01*
X162259910Y-69496847D01*
X162144811Y-69583011D01*
X162058647Y-69698110D01*
X162008402Y-69832824D01*
X162002000Y-69892376D01*
X162002000Y-70540200D01*
X158520000Y-70540200D01*
X158520000Y-69262000D01*
X159020000Y-69262000D01*
X159020000Y-70362000D01*
X160120000Y-70362000D01*
X160120000Y-69714176D01*
X160113597Y-69654624D01*
X160063352Y-69519910D01*
X159977188Y-69404811D01*
X159862089Y-69318647D01*
X159727375Y-69268402D01*
X159667824Y-69262000D01*
X159020000Y-69262000D01*
X158520000Y-69262000D01*
X157872176Y-69262000D01*
X157812624Y-69268402D01*
X157677910Y-69318647D01*
X157562811Y-69404811D01*
X157476646Y-69519913D01*
X157427576Y-69651472D01*
X157392597Y-69701850D01*
X157337753Y-69729303D01*
X157276460Y-69727114D01*
X157223714Y-69695818D01*
X157101404Y-69573508D01*
X157101401Y-69573505D01*
X156907830Y-69437965D01*
X156693663Y-69338097D01*
X156621074Y-69318647D01*
X156465407Y-69276936D01*
X156230000Y-69256340D01*
X155994592Y-69276936D01*
X155766336Y-69338097D01*
X155552170Y-69437965D01*
X155358598Y-69573505D01*
X155191505Y-69740598D01*
X155055964Y-69934171D01*
X155053105Y-69940304D01*
X155007348Y-69992480D01*
X154940723Y-70011900D01*
X138487344Y-70011900D01*
X138466836Y-70009635D01*
X138396713Y-70011839D01*
X138392819Y-70011900D01*
X138365250Y-70011900D01*
X138361271Y-70012402D01*
X138349641Y-70013317D01*
X138305972Y-70014689D01*
X138286728Y-70020280D01*
X138267684Y-70024224D01*
X138247808Y-70026735D01*
X138207200Y-70042813D01*
X138196154Y-70046594D01*
X138154210Y-70058782D01*
X138154207Y-70058783D01*
X138136965Y-70068979D01*
X138119504Y-70077533D01*
X138100867Y-70084912D01*
X138065531Y-70110585D01*
X138055774Y-70116995D01*
X138018180Y-70139229D01*
X138004013Y-70153396D01*
X137989224Y-70166026D01*
X137973013Y-70177804D01*
X137945172Y-70211458D01*
X137937311Y-70220097D01*
X133553555Y-74603853D01*
X133525042Y-74625145D01*
X133491655Y-74637462D01*
X133298797Y-74678455D01*
X133125869Y-74755448D01*
X132972729Y-74866710D01*
X132846066Y-75007383D01*
X132751420Y-75171315D01*
X132692926Y-75351342D01*
X132673140Y-75539600D01*
X125975500Y-75539600D01*
X125975500Y-75448687D01*
X125983736Y-75404249D01*
X126007347Y-75365717D01*
X126082533Y-75282216D01*
X126177179Y-75118284D01*
X126235674Y-74938256D01*
X126255460Y-74750000D01*
X126235674Y-74561744D01*
X126205332Y-74468363D01*
X126177179Y-74381715D01*
X126082533Y-74217783D01*
X125955870Y-74077110D01*
X125802730Y-73965848D01*
X125629802Y-73888855D01*
X125444648Y-73849500D01*
X125444646Y-73849500D01*
X125255354Y-73849500D01*
X125255352Y-73849500D01*
X125070197Y-73888855D01*
X124897269Y-73965848D01*
X124744129Y-74077110D01*
X124617466Y-74217783D01*
X124522820Y-74381715D01*
X124464326Y-74561742D01*
X124444540Y-74749999D01*
X124464326Y-74938257D01*
X124522820Y-75118284D01*
X124617464Y-75282213D01*
X124617467Y-75282216D01*
X124692652Y-75365717D01*
X124716264Y-75404249D01*
X124724500Y-75448687D01*
X124724500Y-77951313D01*
X124716264Y-77995751D01*
X124692652Y-78034282D01*
X124661265Y-78069142D01*
X124617464Y-78117786D01*
X124522820Y-78281715D01*
X124464326Y-78461742D01*
X124444540Y-78650000D01*
X109347000Y-78650000D01*
X109347000Y-71837749D01*
X109360902Y-71780701D01*
X109399492Y-71736445D01*
X109454115Y-71714904D01*
X109512525Y-71720909D01*
X109561623Y-71753112D01*
X109693006Y-71893789D01*
X109729940Y-71933335D01*
X109897063Y-72069300D01*
X109958151Y-72118999D01*
X110209519Y-72271860D01*
X110368593Y-72340954D01*
X110479359Y-72389067D01*
X110762645Y-72468440D01*
X111054102Y-72508500D01*
X111348298Y-72508500D01*
X111639755Y-72468440D01*
X111923041Y-72389067D01*
X112179904Y-72277496D01*
X112192880Y-72271860D01*
X112197817Y-72268858D01*
X112444249Y-72118999D01*
X112672460Y-71933335D01*
X112724139Y-71878000D01*
X117750600Y-71878000D01*
X117750600Y-72525824D01*
X117757002Y-72585375D01*
X117807247Y-72720089D01*
X117893411Y-72835188D01*
X118008510Y-72921352D01*
X118143224Y-72971597D01*
X118202776Y-72978000D01*
X118850600Y-72978000D01*
X118850600Y-71878000D01*
X119350600Y-71878000D01*
X119350600Y-72978000D01*
X119998424Y-72978000D01*
X120057975Y-72971597D01*
X120192689Y-72921352D01*
X120307788Y-72835188D01*
X120393952Y-72720089D01*
X120444197Y-72585375D01*
X120445133Y-72576669D01*
X121737900Y-72576669D01*
X121743472Y-72628500D01*
X121744309Y-72636283D01*
X121794604Y-72771131D01*
X121880854Y-72886346D01*
X121996069Y-72972596D01*
X122130917Y-73022891D01*
X122190527Y-73029300D01*
X123986272Y-73029299D01*
X124045883Y-73022891D01*
X124180731Y-72972596D01*
X124295946Y-72886346D01*
X124382196Y-72771131D01*
X124432491Y-72636283D01*
X124438900Y-72576673D01*
X124438899Y-70780928D01*
X124432491Y-70721317D01*
X124382196Y-70586469D01*
X124295946Y-70471254D01*
X124180731Y-70385004D01*
X124045883Y-70334709D01*
X123986273Y-70328300D01*
X123986269Y-70328300D01*
X122190530Y-70328300D01*
X122130915Y-70334709D01*
X121996069Y-70385004D01*
X121880854Y-70471254D01*
X121794604Y-70586468D01*
X121744309Y-70721316D01*
X121742706Y-70736219D01*
X121738913Y-70771511D01*
X121737900Y-70780930D01*
X121737900Y-72576669D01*
X120445133Y-72576669D01*
X120450600Y-72525824D01*
X120450600Y-71878000D01*
X119350600Y-71878000D01*
X118850600Y-71878000D01*
X117750600Y-71878000D01*
X112724139Y-71878000D01*
X112873265Y-71718326D01*
X112883316Y-71704088D01*
X113042920Y-71477979D01*
X113042922Y-71477976D01*
X113094726Y-71378000D01*
X117750600Y-71378000D01*
X118850600Y-71378000D01*
X118850600Y-70278000D01*
X119350600Y-70278000D01*
X119350600Y-71378000D01*
X120450600Y-71378000D01*
X120450600Y-70730176D01*
X120444197Y-70670624D01*
X120393952Y-70535910D01*
X120307788Y-70420811D01*
X120192689Y-70334647D01*
X120057975Y-70284402D01*
X119998424Y-70278000D01*
X119350600Y-70278000D01*
X118850600Y-70278000D01*
X118202776Y-70278000D01*
X118143224Y-70284402D01*
X118008510Y-70334647D01*
X117893411Y-70420811D01*
X117807247Y-70535910D01*
X117757002Y-70670624D01*
X117750600Y-70730176D01*
X117750600Y-71378000D01*
X113094726Y-71378000D01*
X113178272Y-71216764D01*
X113276792Y-70939554D01*
X113336648Y-70651511D01*
X113356725Y-70358000D01*
X113336648Y-70064489D01*
X113276792Y-69776446D01*
X113178272Y-69499236D01*
X113042922Y-69238024D01*
X113042920Y-69238020D01*
X112873266Y-68997675D01*
X112815011Y-68935299D01*
X112709817Y-68822664D01*
X112681439Y-68772878D01*
X112678478Y-68715646D01*
X112701568Y-68663195D01*
X112745778Y-68626728D01*
X112801658Y-68614036D01*
X114503200Y-68630800D01*
X177784837Y-68606655D01*
X177843394Y-68621329D01*
G37*
G04 #@! TD.AperFunction*
M02*
