G04 #@! TF.GenerationSoftware,KiCad,Pcbnew,8.0.1*
G04 #@! TF.CreationDate,2024-09-06T14:34:18+02:00*
G04 #@! TF.ProjectId,licznik,6c69637a-6e69-46b2-9e6b-696361645f70,rev?*
G04 #@! TF.SameCoordinates,Original*
G04 #@! TF.FileFunction,Soldermask,Bot*
G04 #@! TF.FilePolarity,Negative*
%FSLAX46Y46*%
G04 Gerber Fmt 4.6, Leading zero omitted, Abs format (unit mm)*
G04 Created by KiCad (PCBNEW 8.0.1) date 2024-09-06 14:34:18*
%MOMM*%
%LPD*%
G01*
G04 APERTURE LIST*
G04 APERTURE END LIST*
G36*
X179678508Y-108131648D02*
G01*
X179921445Y-108206584D01*
X180150500Y-108316891D01*
X180360556Y-108460105D01*
X180546921Y-108633026D01*
X180705432Y-108831793D01*
X180832548Y-109051964D01*
X180925429Y-109288621D01*
X180982001Y-109536479D01*
X181001000Y-109790000D01*
X180982001Y-110043521D01*
X180925429Y-110291379D01*
X180832548Y-110528036D01*
X180705432Y-110748207D01*
X180546921Y-110946974D01*
X180360556Y-111119895D01*
X180150500Y-111263109D01*
X179921445Y-111373416D01*
X179678508Y-111448352D01*
X179427116Y-111486244D01*
X179172884Y-111486244D01*
X178921492Y-111448352D01*
X178678555Y-111373416D01*
X178449500Y-111263109D01*
X178239444Y-111119895D01*
X178053079Y-110946974D01*
X177894568Y-110748207D01*
X177767452Y-110528036D01*
X177674571Y-110291379D01*
X177617999Y-110043521D01*
X177599000Y-109790000D01*
X177617999Y-109536479D01*
X177674571Y-109288621D01*
X177767452Y-109051964D01*
X177894568Y-108831793D01*
X178053079Y-108633026D01*
X178239444Y-108460105D01*
X178449500Y-108316891D01*
X178678555Y-108206584D01*
X178921492Y-108131648D01*
X179172884Y-108093756D01*
X179427116Y-108093756D01*
X179678508Y-108131648D01*
G37*
G36*
X111538508Y-108041648D02*
G01*
X111781445Y-108116584D01*
X112010500Y-108226891D01*
X112220556Y-108370105D01*
X112406921Y-108543026D01*
X112565432Y-108741793D01*
X112692548Y-108961964D01*
X112785429Y-109198621D01*
X112842001Y-109446479D01*
X112861000Y-109700000D01*
X112842001Y-109953521D01*
X112785429Y-110201379D01*
X112692548Y-110438036D01*
X112565432Y-110658207D01*
X112406921Y-110856974D01*
X112220556Y-111029895D01*
X112010500Y-111173109D01*
X111781445Y-111283416D01*
X111538508Y-111358352D01*
X111287116Y-111396244D01*
X111032884Y-111396244D01*
X110781492Y-111358352D01*
X110538555Y-111283416D01*
X110309500Y-111173109D01*
X110099444Y-111029895D01*
X109913079Y-110856974D01*
X109754568Y-110658207D01*
X109627452Y-110438036D01*
X109534571Y-110201379D01*
X109477999Y-109953521D01*
X109459000Y-109700000D01*
X109477999Y-109446479D01*
X109534571Y-109198621D01*
X109627452Y-108961964D01*
X109754568Y-108741793D01*
X109913079Y-108543026D01*
X110099444Y-108370105D01*
X110309500Y-108226891D01*
X110538555Y-108116584D01*
X110781492Y-108041648D01*
X111032884Y-108003756D01*
X111287116Y-108003756D01*
X111538508Y-108041648D01*
G37*
G36*
X154469034Y-109310764D02*
G01*
X154502125Y-109332875D01*
X154524236Y-109365966D01*
X154525460Y-109372120D01*
X154563187Y-109428582D01*
X154696813Y-109428582D01*
X154734540Y-109372118D01*
X154735764Y-109365966D01*
X154757875Y-109332875D01*
X154790966Y-109310764D01*
X154830000Y-109303000D01*
X155430000Y-109303000D01*
X155469034Y-109310764D01*
X155502125Y-109332875D01*
X155524236Y-109365966D01*
X155525460Y-109372120D01*
X155563187Y-109428582D01*
X155696813Y-109428582D01*
X155734540Y-109372118D01*
X155735764Y-109365966D01*
X155757875Y-109332875D01*
X155790966Y-109310764D01*
X155830000Y-109303000D01*
X156430000Y-109303000D01*
X156469034Y-109310764D01*
X156502125Y-109332875D01*
X156524236Y-109365966D01*
X156525460Y-109372120D01*
X156563187Y-109428582D01*
X156696813Y-109428582D01*
X156734540Y-109372118D01*
X156735764Y-109365966D01*
X156757875Y-109332875D01*
X156790966Y-109310764D01*
X156830000Y-109303000D01*
X157430000Y-109303000D01*
X157469034Y-109310764D01*
X157502125Y-109332875D01*
X157524236Y-109365966D01*
X157532000Y-109405000D01*
X157532000Y-110955000D01*
X157524236Y-110994034D01*
X157502125Y-111027125D01*
X157469034Y-111049236D01*
X157430000Y-111057000D01*
X156830000Y-111057000D01*
X156790966Y-111049236D01*
X156757875Y-111027125D01*
X156735764Y-110994034D01*
X156734539Y-110987878D01*
X156696814Y-110931417D01*
X156563186Y-110931417D01*
X156525460Y-110987877D01*
X156524236Y-110994034D01*
X156502125Y-111027125D01*
X156469034Y-111049236D01*
X156430000Y-111057000D01*
X155830000Y-111057000D01*
X155790966Y-111049236D01*
X155757875Y-111027125D01*
X155735764Y-110994034D01*
X155734539Y-110987878D01*
X155696814Y-110931417D01*
X155563186Y-110931417D01*
X155525460Y-110987877D01*
X155524236Y-110994034D01*
X155502125Y-111027125D01*
X155469034Y-111049236D01*
X155430000Y-111057000D01*
X154830000Y-111057000D01*
X154790966Y-111049236D01*
X154757875Y-111027125D01*
X154735764Y-110994034D01*
X154734539Y-110987878D01*
X154696814Y-110931417D01*
X154563186Y-110931417D01*
X154525460Y-110987877D01*
X154524236Y-110994034D01*
X154502125Y-111027125D01*
X154469034Y-111049236D01*
X154430000Y-111057000D01*
X153830000Y-111057000D01*
X153790966Y-111049236D01*
X153757875Y-111027125D01*
X153735764Y-110994034D01*
X153728000Y-110955000D01*
X153728000Y-109405000D01*
X153735764Y-109365966D01*
X153757875Y-109332875D01*
X153790966Y-109310764D01*
X153830000Y-109303000D01*
X154430000Y-109303000D01*
X154469034Y-109310764D01*
G37*
G36*
X119642447Y-109869099D02*
G01*
X119651300Y-109869099D01*
X119697584Y-109882689D01*
X119757332Y-109897416D01*
X119769515Y-109903810D01*
X119788123Y-109909274D01*
X119824635Y-109932739D01*
X119864078Y-109953440D01*
X119883182Y-109970365D01*
X119908085Y-109986369D01*
X119930677Y-110012441D01*
X119954316Y-110033384D01*
X119975826Y-110064546D01*
X120001468Y-110094139D01*
X120011665Y-110116468D01*
X120022801Y-110132601D01*
X120041256Y-110181262D01*
X120060706Y-110223852D01*
X120062719Y-110237856D01*
X120065550Y-110245320D01*
X120075091Y-110323904D01*
X120081000Y-110365000D01*
X120075091Y-110406097D01*
X120065550Y-110484679D01*
X120062719Y-110492141D01*
X120060706Y-110506148D01*
X120041253Y-110548742D01*
X120022801Y-110597398D01*
X120011667Y-110613528D01*
X120001468Y-110635861D01*
X119975822Y-110665457D01*
X119954316Y-110696615D01*
X119930680Y-110717553D01*
X119908085Y-110743631D01*
X119883178Y-110759637D01*
X119864078Y-110776559D01*
X119824644Y-110797255D01*
X119788123Y-110820726D01*
X119769511Y-110826190D01*
X119757332Y-110832583D01*
X119697595Y-110847307D01*
X119651300Y-110860901D01*
X119642446Y-110860901D01*
X119640276Y-110861436D01*
X119519724Y-110861436D01*
X119517553Y-110860901D01*
X119508700Y-110860901D01*
X119462407Y-110847308D01*
X119402667Y-110832583D01*
X119390486Y-110826190D01*
X119371877Y-110820726D01*
X119335360Y-110797258D01*
X119295921Y-110776559D01*
X119276818Y-110759635D01*
X119251915Y-110743631D01*
X119229322Y-110717557D01*
X119205683Y-110696615D01*
X119184172Y-110665451D01*
X119158532Y-110635861D01*
X119148334Y-110613532D01*
X119137198Y-110597398D01*
X119118740Y-110548729D01*
X119099294Y-110506148D01*
X119097280Y-110492145D01*
X119094449Y-110484679D01*
X119084902Y-110406052D01*
X119079000Y-110365000D01*
X119084902Y-110323949D01*
X119094449Y-110245320D01*
X119097281Y-110237852D01*
X119099294Y-110223852D01*
X119118738Y-110181275D01*
X119137198Y-110132601D01*
X119148336Y-110116464D01*
X119158532Y-110094139D01*
X119184168Y-110064552D01*
X119205683Y-110033384D01*
X119229326Y-110012437D01*
X119251915Y-109986369D01*
X119276813Y-109970367D01*
X119295921Y-109953440D01*
X119335368Y-109932736D01*
X119371877Y-109909274D01*
X119390482Y-109903810D01*
X119402667Y-109897416D01*
X119462417Y-109882688D01*
X119508700Y-109869099D01*
X119517553Y-109869099D01*
X119519724Y-109868564D01*
X119640276Y-109868564D01*
X119642447Y-109869099D01*
G37*
G36*
X124042447Y-109869099D02*
G01*
X124051300Y-109869099D01*
X124097584Y-109882689D01*
X124157332Y-109897416D01*
X124169515Y-109903810D01*
X124188123Y-109909274D01*
X124224635Y-109932739D01*
X124264078Y-109953440D01*
X124283182Y-109970365D01*
X124308085Y-109986369D01*
X124330677Y-110012441D01*
X124354316Y-110033384D01*
X124375826Y-110064546D01*
X124401468Y-110094139D01*
X124411665Y-110116468D01*
X124422801Y-110132601D01*
X124441256Y-110181262D01*
X124460706Y-110223852D01*
X124462719Y-110237856D01*
X124465550Y-110245320D01*
X124475091Y-110323904D01*
X124481000Y-110365000D01*
X124475091Y-110406097D01*
X124465550Y-110484679D01*
X124462719Y-110492141D01*
X124460706Y-110506148D01*
X124441253Y-110548742D01*
X124422801Y-110597398D01*
X124411667Y-110613528D01*
X124401468Y-110635861D01*
X124375822Y-110665457D01*
X124354316Y-110696615D01*
X124330680Y-110717553D01*
X124308085Y-110743631D01*
X124283178Y-110759637D01*
X124264078Y-110776559D01*
X124224644Y-110797255D01*
X124188123Y-110820726D01*
X124169511Y-110826190D01*
X124157332Y-110832583D01*
X124097595Y-110847307D01*
X124051300Y-110860901D01*
X124042446Y-110860901D01*
X124040276Y-110861436D01*
X123919724Y-110861436D01*
X123917553Y-110860901D01*
X123908700Y-110860901D01*
X123862407Y-110847308D01*
X123802667Y-110832583D01*
X123790486Y-110826190D01*
X123771877Y-110820726D01*
X123735360Y-110797258D01*
X123695921Y-110776559D01*
X123676818Y-110759635D01*
X123651915Y-110743631D01*
X123629322Y-110717557D01*
X123605683Y-110696615D01*
X123584172Y-110665451D01*
X123558532Y-110635861D01*
X123548334Y-110613532D01*
X123537198Y-110597398D01*
X123518740Y-110548729D01*
X123499294Y-110506148D01*
X123497280Y-110492145D01*
X123494449Y-110484679D01*
X123484902Y-110406052D01*
X123479000Y-110365000D01*
X123484902Y-110323949D01*
X123494449Y-110245320D01*
X123497281Y-110237852D01*
X123499294Y-110223852D01*
X123518738Y-110181275D01*
X123537198Y-110132601D01*
X123548336Y-110116464D01*
X123558532Y-110094139D01*
X123584168Y-110064552D01*
X123605683Y-110033384D01*
X123629326Y-110012437D01*
X123651915Y-109986369D01*
X123676813Y-109970367D01*
X123695921Y-109953440D01*
X123735368Y-109932736D01*
X123771877Y-109909274D01*
X123790482Y-109903810D01*
X123802667Y-109897416D01*
X123862417Y-109882688D01*
X123908700Y-109869099D01*
X123917553Y-109869099D01*
X123919724Y-109868564D01*
X124040276Y-109868564D01*
X124042447Y-109869099D01*
G37*
G36*
X153469034Y-105310764D02*
G01*
X153502125Y-105332875D01*
X153524236Y-105365966D01*
X153532000Y-105405000D01*
X153532000Y-107205000D01*
X153524236Y-107244034D01*
X153502125Y-107277125D01*
X153469034Y-107299236D01*
X153430000Y-107307000D01*
X152230000Y-107307000D01*
X152190966Y-107299236D01*
X152157875Y-107277125D01*
X152135764Y-107244034D01*
X152128000Y-107205000D01*
X152128000Y-105405000D01*
X152135764Y-105365966D01*
X152157875Y-105332875D01*
X152190966Y-105310764D01*
X152230000Y-105303000D01*
X153430000Y-105303000D01*
X153469034Y-105310764D01*
G37*
G36*
X159069034Y-105310764D02*
G01*
X159102125Y-105332875D01*
X159124236Y-105365966D01*
X159132000Y-105405000D01*
X159132000Y-107205000D01*
X159124236Y-107244034D01*
X159102125Y-107277125D01*
X159069034Y-107299236D01*
X159030000Y-107307000D01*
X157830000Y-107307000D01*
X157790966Y-107299236D01*
X157757875Y-107277125D01*
X157735764Y-107244034D01*
X157728000Y-107205000D01*
X157728000Y-105405000D01*
X157735764Y-105365966D01*
X157757875Y-105332875D01*
X157790966Y-105310764D01*
X157830000Y-105303000D01*
X159030000Y-105303000D01*
X159069034Y-105310764D01*
G37*
G36*
X175804034Y-101195764D02*
G01*
X175837125Y-101217875D01*
X175859236Y-101250966D01*
X175867000Y-101290000D01*
X175867000Y-102490000D01*
X175859236Y-102529034D01*
X175837125Y-102562125D01*
X175804034Y-102584236D01*
X175765000Y-102592000D01*
X173965000Y-102592000D01*
X173925966Y-102584236D01*
X173892875Y-102562125D01*
X173870764Y-102529034D01*
X173863000Y-102490000D01*
X173863000Y-101290000D01*
X173870764Y-101250966D01*
X173892875Y-101217875D01*
X173925966Y-101195764D01*
X173965000Y-101188000D01*
X175765000Y-101188000D01*
X175804034Y-101195764D01*
G37*
G36*
X179554034Y-97195764D02*
G01*
X179587125Y-97217875D01*
X179609236Y-97250966D01*
X179617000Y-97290000D01*
X179617000Y-97890000D01*
X179609236Y-97929034D01*
X179587125Y-97962125D01*
X179554034Y-97984236D01*
X179547877Y-97985460D01*
X179491417Y-98023186D01*
X179491417Y-98156814D01*
X179547878Y-98194539D01*
X179554034Y-98195764D01*
X179587125Y-98217875D01*
X179609236Y-98250966D01*
X179617000Y-98290000D01*
X179617000Y-98890000D01*
X179609236Y-98929034D01*
X179587125Y-98962125D01*
X179554034Y-98984236D01*
X179547877Y-98985460D01*
X179491417Y-99023186D01*
X179491417Y-99156814D01*
X179547878Y-99194539D01*
X179554034Y-99195764D01*
X179587125Y-99217875D01*
X179609236Y-99250966D01*
X179617000Y-99290000D01*
X179617000Y-99890000D01*
X179609236Y-99929034D01*
X179587125Y-99962125D01*
X179554034Y-99984236D01*
X179547877Y-99985460D01*
X179491417Y-100023186D01*
X179491417Y-100156814D01*
X179547878Y-100194539D01*
X179554034Y-100195764D01*
X179587125Y-100217875D01*
X179609236Y-100250966D01*
X179617000Y-100290000D01*
X179617000Y-100890000D01*
X179609236Y-100929034D01*
X179587125Y-100962125D01*
X179554034Y-100984236D01*
X179515000Y-100992000D01*
X177965000Y-100992000D01*
X177925966Y-100984236D01*
X177892875Y-100962125D01*
X177870764Y-100929034D01*
X177863000Y-100890000D01*
X177863000Y-100290000D01*
X177870764Y-100250966D01*
X177892875Y-100217875D01*
X177925966Y-100195764D01*
X177932118Y-100194540D01*
X177988582Y-100156813D01*
X177988582Y-100023187D01*
X177932120Y-99985460D01*
X177925966Y-99984236D01*
X177892875Y-99962125D01*
X177870764Y-99929034D01*
X177863000Y-99890000D01*
X177863000Y-99290000D01*
X177870764Y-99250966D01*
X177892875Y-99217875D01*
X177925966Y-99195764D01*
X177932118Y-99194540D01*
X177988582Y-99156813D01*
X177988582Y-99023187D01*
X177932120Y-98985460D01*
X177925966Y-98984236D01*
X177892875Y-98962125D01*
X177870764Y-98929034D01*
X177863000Y-98890000D01*
X177863000Y-98290000D01*
X177870764Y-98250966D01*
X177892875Y-98217875D01*
X177925966Y-98195764D01*
X177932118Y-98194540D01*
X177988582Y-98156813D01*
X177988582Y-98023187D01*
X177932120Y-97985460D01*
X177925966Y-97984236D01*
X177892875Y-97962125D01*
X177870764Y-97929034D01*
X177863000Y-97890000D01*
X177863000Y-97290000D01*
X177870764Y-97250966D01*
X177892875Y-97217875D01*
X177925966Y-97195764D01*
X177965000Y-97188000D01*
X179515000Y-97188000D01*
X179554034Y-97195764D01*
G37*
G36*
X111243983Y-96683936D02*
G01*
X111294180Y-96683936D01*
X111337524Y-96693149D01*
X111375659Y-96696905D01*
X111423566Y-96711437D01*
X111478424Y-96723098D01*
X111513530Y-96738728D01*
X111544566Y-96748143D01*
X111593884Y-96774504D01*
X111650500Y-96799711D01*
X111676822Y-96818835D01*
X111700232Y-96831348D01*
X111747988Y-96870540D01*
X111802887Y-96910427D01*
X111820711Y-96930223D01*
X111836675Y-96943324D01*
X111879572Y-96995594D01*
X111928924Y-97050405D01*
X111939292Y-97068363D01*
X111948651Y-97079767D01*
X111983273Y-97144542D01*
X112023104Y-97213530D01*
X112027685Y-97227630D01*
X112031856Y-97235433D01*
X112054852Y-97311242D01*
X112081311Y-97392672D01*
X112082242Y-97401532D01*
X112083094Y-97404340D01*
X112091384Y-97488513D01*
X112101000Y-97580000D01*
X112091383Y-97671494D01*
X112083094Y-97755659D01*
X112082242Y-97758466D01*
X112081311Y-97767328D01*
X112054848Y-97848771D01*
X112031856Y-97924566D01*
X112027686Y-97932366D01*
X112023104Y-97946470D01*
X111983266Y-98015470D01*
X111948651Y-98080232D01*
X111939294Y-98091633D01*
X111928924Y-98109595D01*
X111879563Y-98164415D01*
X111836675Y-98216675D01*
X111820714Y-98229773D01*
X111802887Y-98249573D01*
X111747977Y-98289467D01*
X111700232Y-98328651D01*
X111676827Y-98341161D01*
X111650500Y-98360289D01*
X111593873Y-98385500D01*
X111544566Y-98411856D01*
X111513537Y-98421268D01*
X111478424Y-98436902D01*
X111423555Y-98448564D01*
X111375659Y-98463094D01*
X111337532Y-98466849D01*
X111294180Y-98476064D01*
X111243973Y-98476064D01*
X111200000Y-98480395D01*
X111156027Y-98476064D01*
X111105820Y-98476064D01*
X111062467Y-98466849D01*
X111024340Y-98463094D01*
X110976441Y-98448563D01*
X110921576Y-98436902D01*
X110886464Y-98421269D01*
X110855433Y-98411856D01*
X110806120Y-98385498D01*
X110749500Y-98360289D01*
X110723175Y-98341163D01*
X110699767Y-98328651D01*
X110652013Y-98289460D01*
X110597113Y-98249573D01*
X110579287Y-98229776D01*
X110563324Y-98216675D01*
X110520425Y-98164402D01*
X110471076Y-98109595D01*
X110460708Y-98091637D01*
X110451348Y-98080232D01*
X110416719Y-98015447D01*
X110376896Y-97946470D01*
X110372315Y-97932371D01*
X110368143Y-97924566D01*
X110345136Y-97848725D01*
X110318689Y-97767328D01*
X110317758Y-97758471D01*
X110316905Y-97755659D01*
X110308600Y-97671342D01*
X110299000Y-97580000D01*
X110308599Y-97488664D01*
X110316905Y-97404340D01*
X110317758Y-97401527D01*
X110318689Y-97392672D01*
X110345132Y-97311288D01*
X110368143Y-97235433D01*
X110372315Y-97227626D01*
X110376896Y-97213530D01*
X110416712Y-97144565D01*
X110451348Y-97079767D01*
X110460710Y-97068359D01*
X110471076Y-97050405D01*
X110520416Y-96995607D01*
X110563324Y-96943324D01*
X110579291Y-96930219D01*
X110597113Y-96910427D01*
X110652002Y-96870546D01*
X110699767Y-96831348D01*
X110723180Y-96818833D01*
X110749500Y-96799711D01*
X110806109Y-96774506D01*
X110855433Y-96748143D01*
X110886471Y-96738727D01*
X110921576Y-96723098D01*
X110976430Y-96711438D01*
X111024340Y-96696905D01*
X111062476Y-96693148D01*
X111105820Y-96683936D01*
X111156016Y-96683936D01*
X111200000Y-96679604D01*
X111243983Y-96683936D01*
G37*
G36*
X175804034Y-95595764D02*
G01*
X175837125Y-95617875D01*
X175859236Y-95650966D01*
X175867000Y-95690000D01*
X175867000Y-96890000D01*
X175859236Y-96929034D01*
X175837125Y-96962125D01*
X175804034Y-96984236D01*
X175765000Y-96992000D01*
X173965000Y-96992000D01*
X173925966Y-96984236D01*
X173892875Y-96962125D01*
X173870764Y-96929034D01*
X173863000Y-96890000D01*
X173863000Y-95690000D01*
X173870764Y-95650966D01*
X173892875Y-95617875D01*
X173925966Y-95595764D01*
X173965000Y-95588000D01*
X175765000Y-95588000D01*
X175804034Y-95595764D01*
G37*
G36*
X111243983Y-94143936D02*
G01*
X111294180Y-94143936D01*
X111337524Y-94153149D01*
X111375659Y-94156905D01*
X111423566Y-94171437D01*
X111478424Y-94183098D01*
X111513530Y-94198728D01*
X111544566Y-94208143D01*
X111593884Y-94234504D01*
X111650500Y-94259711D01*
X111676822Y-94278835D01*
X111700232Y-94291348D01*
X111747988Y-94330540D01*
X111802887Y-94370427D01*
X111820711Y-94390223D01*
X111836675Y-94403324D01*
X111879572Y-94455594D01*
X111928924Y-94510405D01*
X111939292Y-94528363D01*
X111948651Y-94539767D01*
X111983273Y-94604542D01*
X112023104Y-94673530D01*
X112027685Y-94687630D01*
X112031856Y-94695433D01*
X112054852Y-94771242D01*
X112081311Y-94852672D01*
X112082242Y-94861532D01*
X112083094Y-94864340D01*
X112091384Y-94948513D01*
X112101000Y-95040000D01*
X112091383Y-95131494D01*
X112083094Y-95215659D01*
X112082242Y-95218466D01*
X112081311Y-95227328D01*
X112054848Y-95308771D01*
X112031856Y-95384566D01*
X112027686Y-95392366D01*
X112023104Y-95406470D01*
X111983266Y-95475470D01*
X111948651Y-95540232D01*
X111939294Y-95551633D01*
X111928924Y-95569595D01*
X111879563Y-95624415D01*
X111836675Y-95676675D01*
X111820714Y-95689773D01*
X111802887Y-95709573D01*
X111747977Y-95749467D01*
X111700232Y-95788651D01*
X111676827Y-95801161D01*
X111650500Y-95820289D01*
X111593873Y-95845500D01*
X111544566Y-95871856D01*
X111513537Y-95881268D01*
X111478424Y-95896902D01*
X111423555Y-95908564D01*
X111375659Y-95923094D01*
X111337532Y-95926849D01*
X111294180Y-95936064D01*
X111243973Y-95936064D01*
X111200000Y-95940395D01*
X111156027Y-95936064D01*
X111105820Y-95936064D01*
X111062467Y-95926849D01*
X111024340Y-95923094D01*
X110976441Y-95908563D01*
X110921576Y-95896902D01*
X110886464Y-95881269D01*
X110855433Y-95871856D01*
X110806120Y-95845498D01*
X110749500Y-95820289D01*
X110723175Y-95801163D01*
X110699767Y-95788651D01*
X110652013Y-95749460D01*
X110597113Y-95709573D01*
X110579287Y-95689776D01*
X110563324Y-95676675D01*
X110520425Y-95624402D01*
X110471076Y-95569595D01*
X110460708Y-95551637D01*
X110451348Y-95540232D01*
X110416719Y-95475447D01*
X110376896Y-95406470D01*
X110372315Y-95392371D01*
X110368143Y-95384566D01*
X110345136Y-95308725D01*
X110318689Y-95227328D01*
X110317758Y-95218471D01*
X110316905Y-95215659D01*
X110308600Y-95131342D01*
X110299000Y-95040000D01*
X110308599Y-94948664D01*
X110316905Y-94864340D01*
X110317758Y-94861527D01*
X110318689Y-94852672D01*
X110345132Y-94771288D01*
X110368143Y-94695433D01*
X110372315Y-94687626D01*
X110376896Y-94673530D01*
X110416712Y-94604565D01*
X110451348Y-94539767D01*
X110460710Y-94528359D01*
X110471076Y-94510405D01*
X110520416Y-94455607D01*
X110563324Y-94403324D01*
X110579291Y-94390219D01*
X110597113Y-94370427D01*
X110652002Y-94330546D01*
X110699767Y-94291348D01*
X110723180Y-94278833D01*
X110749500Y-94259711D01*
X110806109Y-94234506D01*
X110855433Y-94208143D01*
X110886471Y-94198727D01*
X110921576Y-94183098D01*
X110976430Y-94171438D01*
X111024340Y-94156905D01*
X111062476Y-94153148D01*
X111105820Y-94143936D01*
X111156016Y-94143936D01*
X111200000Y-94139604D01*
X111243983Y-94143936D01*
G37*
G36*
X111243983Y-91603936D02*
G01*
X111294180Y-91603936D01*
X111337524Y-91613149D01*
X111375659Y-91616905D01*
X111423566Y-91631437D01*
X111478424Y-91643098D01*
X111513530Y-91658728D01*
X111544566Y-91668143D01*
X111593884Y-91694504D01*
X111650500Y-91719711D01*
X111676822Y-91738835D01*
X111700232Y-91751348D01*
X111747988Y-91790540D01*
X111802887Y-91830427D01*
X111820711Y-91850223D01*
X111836675Y-91863324D01*
X111879572Y-91915594D01*
X111928924Y-91970405D01*
X111939292Y-91988363D01*
X111948651Y-91999767D01*
X111983273Y-92064542D01*
X112023104Y-92133530D01*
X112027685Y-92147630D01*
X112031856Y-92155433D01*
X112054852Y-92231242D01*
X112081311Y-92312672D01*
X112082242Y-92321532D01*
X112083094Y-92324340D01*
X112091384Y-92408513D01*
X112101000Y-92500000D01*
X112091383Y-92591494D01*
X112083094Y-92675659D01*
X112082242Y-92678466D01*
X112081311Y-92687328D01*
X112054848Y-92768771D01*
X112031856Y-92844566D01*
X112027686Y-92852366D01*
X112023104Y-92866470D01*
X111983266Y-92935470D01*
X111948651Y-93000232D01*
X111939294Y-93011633D01*
X111928924Y-93029595D01*
X111879563Y-93084415D01*
X111836675Y-93136675D01*
X111820714Y-93149773D01*
X111802887Y-93169573D01*
X111747977Y-93209467D01*
X111700232Y-93248651D01*
X111676827Y-93261161D01*
X111650500Y-93280289D01*
X111593873Y-93305500D01*
X111544566Y-93331856D01*
X111513537Y-93341268D01*
X111478424Y-93356902D01*
X111423555Y-93368564D01*
X111375659Y-93383094D01*
X111337532Y-93386849D01*
X111294180Y-93396064D01*
X111243973Y-93396064D01*
X111200000Y-93400395D01*
X111156027Y-93396064D01*
X111105820Y-93396064D01*
X111062467Y-93386849D01*
X111024340Y-93383094D01*
X110976441Y-93368563D01*
X110921576Y-93356902D01*
X110886464Y-93341269D01*
X110855433Y-93331856D01*
X110806120Y-93305498D01*
X110749500Y-93280289D01*
X110723175Y-93261163D01*
X110699767Y-93248651D01*
X110652013Y-93209460D01*
X110597113Y-93169573D01*
X110579287Y-93149776D01*
X110563324Y-93136675D01*
X110520425Y-93084402D01*
X110471076Y-93029595D01*
X110460708Y-93011637D01*
X110451348Y-93000232D01*
X110416719Y-92935447D01*
X110376896Y-92866470D01*
X110372315Y-92852371D01*
X110368143Y-92844566D01*
X110345136Y-92768725D01*
X110318689Y-92687328D01*
X110317758Y-92678471D01*
X110316905Y-92675659D01*
X110308600Y-92591342D01*
X110299000Y-92500000D01*
X110308599Y-92408664D01*
X110316905Y-92324340D01*
X110317758Y-92321527D01*
X110318689Y-92312672D01*
X110345132Y-92231288D01*
X110368143Y-92155433D01*
X110372315Y-92147626D01*
X110376896Y-92133530D01*
X110416712Y-92064565D01*
X110451348Y-91999767D01*
X110460710Y-91988359D01*
X110471076Y-91970405D01*
X110520416Y-91915607D01*
X110563324Y-91863324D01*
X110579291Y-91850219D01*
X110597113Y-91830427D01*
X110652002Y-91790546D01*
X110699767Y-91751348D01*
X110723180Y-91738833D01*
X110749500Y-91719711D01*
X110806109Y-91694506D01*
X110855433Y-91668143D01*
X110886471Y-91658727D01*
X110921576Y-91643098D01*
X110976430Y-91631438D01*
X111024340Y-91616905D01*
X111062476Y-91613148D01*
X111105820Y-91603936D01*
X111156016Y-91603936D01*
X111200000Y-91599604D01*
X111243983Y-91603936D01*
G37*
G36*
X111243983Y-89063936D02*
G01*
X111294180Y-89063936D01*
X111337524Y-89073149D01*
X111375659Y-89076905D01*
X111423566Y-89091437D01*
X111478424Y-89103098D01*
X111513530Y-89118728D01*
X111544566Y-89128143D01*
X111593884Y-89154504D01*
X111650500Y-89179711D01*
X111676822Y-89198835D01*
X111700232Y-89211348D01*
X111747988Y-89250540D01*
X111802887Y-89290427D01*
X111820711Y-89310223D01*
X111836675Y-89323324D01*
X111879572Y-89375594D01*
X111928924Y-89430405D01*
X111939292Y-89448363D01*
X111948651Y-89459767D01*
X111983273Y-89524542D01*
X112023104Y-89593530D01*
X112027685Y-89607630D01*
X112031856Y-89615433D01*
X112054852Y-89691242D01*
X112081311Y-89772672D01*
X112082242Y-89781532D01*
X112083094Y-89784340D01*
X112091384Y-89868513D01*
X112101000Y-89960000D01*
X112091383Y-90051494D01*
X112083094Y-90135659D01*
X112082242Y-90138466D01*
X112081311Y-90147328D01*
X112054848Y-90228771D01*
X112031856Y-90304566D01*
X112027686Y-90312366D01*
X112023104Y-90326470D01*
X111983266Y-90395470D01*
X111948651Y-90460232D01*
X111939294Y-90471633D01*
X111928924Y-90489595D01*
X111879563Y-90544415D01*
X111836675Y-90596675D01*
X111820714Y-90609773D01*
X111802887Y-90629573D01*
X111747977Y-90669467D01*
X111700232Y-90708651D01*
X111676827Y-90721161D01*
X111650500Y-90740289D01*
X111593873Y-90765500D01*
X111544566Y-90791856D01*
X111513537Y-90801268D01*
X111478424Y-90816902D01*
X111423555Y-90828564D01*
X111375659Y-90843094D01*
X111337532Y-90846849D01*
X111294180Y-90856064D01*
X111243973Y-90856064D01*
X111200000Y-90860395D01*
X111156027Y-90856064D01*
X111105820Y-90856064D01*
X111062467Y-90846849D01*
X111024340Y-90843094D01*
X110976441Y-90828563D01*
X110921576Y-90816902D01*
X110886464Y-90801269D01*
X110855433Y-90791856D01*
X110806120Y-90765498D01*
X110749500Y-90740289D01*
X110723175Y-90721163D01*
X110699767Y-90708651D01*
X110652013Y-90669460D01*
X110597113Y-90629573D01*
X110579287Y-90609776D01*
X110563324Y-90596675D01*
X110520425Y-90544402D01*
X110471076Y-90489595D01*
X110460708Y-90471637D01*
X110451348Y-90460232D01*
X110416719Y-90395447D01*
X110376896Y-90326470D01*
X110372315Y-90312371D01*
X110368143Y-90304566D01*
X110345136Y-90228725D01*
X110318689Y-90147328D01*
X110317758Y-90138471D01*
X110316905Y-90135659D01*
X110308600Y-90051342D01*
X110299000Y-89960000D01*
X110308599Y-89868664D01*
X110316905Y-89784340D01*
X110317758Y-89781527D01*
X110318689Y-89772672D01*
X110345132Y-89691288D01*
X110368143Y-89615433D01*
X110372315Y-89607626D01*
X110376896Y-89593530D01*
X110416712Y-89524565D01*
X110451348Y-89459767D01*
X110460710Y-89448359D01*
X110471076Y-89430405D01*
X110520416Y-89375607D01*
X110563324Y-89323324D01*
X110579291Y-89310219D01*
X110597113Y-89290427D01*
X110652002Y-89250546D01*
X110699767Y-89211348D01*
X110723180Y-89198833D01*
X110749500Y-89179711D01*
X110806109Y-89154506D01*
X110855433Y-89128143D01*
X110886471Y-89118727D01*
X110921576Y-89103098D01*
X110976430Y-89091438D01*
X111024340Y-89076905D01*
X111062476Y-89073148D01*
X111105820Y-89063936D01*
X111156016Y-89063936D01*
X111200000Y-89059604D01*
X111243983Y-89063936D01*
G37*
G36*
X182468039Y-87823931D02*
G01*
X182496904Y-87823931D01*
X182529999Y-87832088D01*
X182573209Y-87837777D01*
X182602788Y-87850029D01*
X182625662Y-87855667D01*
X182660346Y-87873870D01*
X182706099Y-87892822D01*
X182726969Y-87908836D01*
X182743080Y-87917292D01*
X182776021Y-87946475D01*
X182820214Y-87980386D01*
X182832773Y-87996753D01*
X182842340Y-88005229D01*
X182869771Y-88044969D01*
X182907778Y-88094501D01*
X182913506Y-88108331D01*
X182917672Y-88114366D01*
X182935740Y-88162009D01*
X182962823Y-88227391D01*
X182964038Y-88236622D01*
X182964695Y-88238354D01*
X182969779Y-88280228D01*
X182981598Y-88370000D01*
X182969778Y-88459779D01*
X182964695Y-88501645D01*
X182964038Y-88503375D01*
X182962823Y-88512609D01*
X182935736Y-88578001D01*
X182917672Y-88625633D01*
X182913508Y-88631665D01*
X182907778Y-88645499D01*
X182869764Y-88695039D01*
X182842340Y-88734770D01*
X182832775Y-88743243D01*
X182820214Y-88759614D01*
X182776012Y-88793530D01*
X182743080Y-88822707D01*
X182726973Y-88831160D01*
X182706099Y-88847178D01*
X182660337Y-88866133D01*
X182625662Y-88884332D01*
X182602792Y-88889968D01*
X182573209Y-88902223D01*
X182529997Y-88907911D01*
X182496904Y-88916069D01*
X182468039Y-88916069D01*
X182430600Y-88920998D01*
X182393161Y-88916069D01*
X182364296Y-88916069D01*
X182331202Y-88907911D01*
X182287991Y-88902223D01*
X182258408Y-88889969D01*
X182235537Y-88884332D01*
X182200857Y-88866131D01*
X182155101Y-88847178D01*
X182134228Y-88831161D01*
X182118119Y-88822707D01*
X182085179Y-88793525D01*
X182040986Y-88759614D01*
X182028426Y-88743245D01*
X182018859Y-88734770D01*
X181991425Y-88695026D01*
X181953422Y-88645499D01*
X181947693Y-88631669D01*
X181943527Y-88625633D01*
X181925451Y-88577972D01*
X181898377Y-88512609D01*
X181897161Y-88503379D01*
X181896504Y-88501645D01*
X181891408Y-88459681D01*
X181879602Y-88370000D01*
X181891407Y-88280326D01*
X181896504Y-88238354D01*
X181897162Y-88236618D01*
X181898377Y-88227391D01*
X181925447Y-88162037D01*
X181943527Y-88114366D01*
X181947694Y-88108328D01*
X181953422Y-88094501D01*
X181991418Y-88044982D01*
X182018859Y-88005229D01*
X182028428Y-87996751D01*
X182040986Y-87980386D01*
X182085171Y-87946481D01*
X182118119Y-87917292D01*
X182134232Y-87908835D01*
X182155101Y-87892822D01*
X182200848Y-87873872D01*
X182235537Y-87855667D01*
X182258413Y-87850028D01*
X182287991Y-87837777D01*
X182331199Y-87832088D01*
X182364296Y-87823931D01*
X182393161Y-87823931D01*
X182430600Y-87819002D01*
X182468039Y-87823931D01*
G37*
G36*
X111243983Y-86523936D02*
G01*
X111294180Y-86523936D01*
X111337524Y-86533149D01*
X111375659Y-86536905D01*
X111423566Y-86551437D01*
X111478424Y-86563098D01*
X111513530Y-86578728D01*
X111544566Y-86588143D01*
X111593884Y-86614504D01*
X111650500Y-86639711D01*
X111676822Y-86658835D01*
X111700232Y-86671348D01*
X111747988Y-86710540D01*
X111802887Y-86750427D01*
X111820711Y-86770223D01*
X111836675Y-86783324D01*
X111879572Y-86835594D01*
X111928924Y-86890405D01*
X111939292Y-86908363D01*
X111948651Y-86919767D01*
X111983273Y-86984542D01*
X112023104Y-87053530D01*
X112027685Y-87067630D01*
X112031856Y-87075433D01*
X112054852Y-87151242D01*
X112081311Y-87232672D01*
X112082242Y-87241532D01*
X112083094Y-87244340D01*
X112091384Y-87328513D01*
X112101000Y-87420000D01*
X112091383Y-87511494D01*
X112083094Y-87595659D01*
X112082242Y-87598466D01*
X112081311Y-87607328D01*
X112054848Y-87688771D01*
X112031856Y-87764566D01*
X112027686Y-87772366D01*
X112023104Y-87786470D01*
X111983266Y-87855470D01*
X111948651Y-87920232D01*
X111939294Y-87931633D01*
X111928924Y-87949595D01*
X111879563Y-88004415D01*
X111836675Y-88056675D01*
X111820714Y-88069773D01*
X111802887Y-88089573D01*
X111747977Y-88129467D01*
X111700232Y-88168651D01*
X111676827Y-88181161D01*
X111650500Y-88200289D01*
X111593873Y-88225500D01*
X111544566Y-88251856D01*
X111513537Y-88261268D01*
X111478424Y-88276902D01*
X111423555Y-88288564D01*
X111375659Y-88303094D01*
X111337532Y-88306849D01*
X111294180Y-88316064D01*
X111243973Y-88316064D01*
X111200000Y-88320395D01*
X111156027Y-88316064D01*
X111105820Y-88316064D01*
X111062467Y-88306849D01*
X111024340Y-88303094D01*
X110976441Y-88288563D01*
X110921576Y-88276902D01*
X110886464Y-88261269D01*
X110855433Y-88251856D01*
X110806120Y-88225498D01*
X110749500Y-88200289D01*
X110723175Y-88181163D01*
X110699767Y-88168651D01*
X110652013Y-88129460D01*
X110597113Y-88089573D01*
X110579287Y-88069776D01*
X110563324Y-88056675D01*
X110520425Y-88004402D01*
X110471076Y-87949595D01*
X110460708Y-87931637D01*
X110451348Y-87920232D01*
X110416719Y-87855447D01*
X110376896Y-87786470D01*
X110372315Y-87772371D01*
X110368143Y-87764566D01*
X110345136Y-87688725D01*
X110318689Y-87607328D01*
X110317758Y-87598471D01*
X110316905Y-87595659D01*
X110308600Y-87511342D01*
X110299000Y-87420000D01*
X110308599Y-87328664D01*
X110316905Y-87244340D01*
X110317758Y-87241527D01*
X110318689Y-87232672D01*
X110345132Y-87151288D01*
X110368143Y-87075433D01*
X110372315Y-87067626D01*
X110376896Y-87053530D01*
X110416712Y-86984565D01*
X110451348Y-86919767D01*
X110460710Y-86908359D01*
X110471076Y-86890405D01*
X110520416Y-86835607D01*
X110563324Y-86783324D01*
X110579291Y-86770219D01*
X110597113Y-86750427D01*
X110652002Y-86710546D01*
X110699767Y-86671348D01*
X110723180Y-86658833D01*
X110749500Y-86639711D01*
X110806109Y-86614506D01*
X110855433Y-86588143D01*
X110886471Y-86578727D01*
X110921576Y-86563098D01*
X110976430Y-86551438D01*
X111024340Y-86536905D01*
X111062476Y-86533148D01*
X111105820Y-86523936D01*
X111156016Y-86523936D01*
X111200000Y-86519604D01*
X111243983Y-86523936D01*
G37*
G36*
X111243983Y-83983936D02*
G01*
X111294180Y-83983936D01*
X111337524Y-83993149D01*
X111375659Y-83996905D01*
X111423566Y-84011437D01*
X111478424Y-84023098D01*
X111513530Y-84038728D01*
X111544566Y-84048143D01*
X111593884Y-84074504D01*
X111650500Y-84099711D01*
X111676822Y-84118835D01*
X111700232Y-84131348D01*
X111747988Y-84170540D01*
X111802887Y-84210427D01*
X111820711Y-84230223D01*
X111836675Y-84243324D01*
X111879572Y-84295594D01*
X111928924Y-84350405D01*
X111939292Y-84368363D01*
X111948651Y-84379767D01*
X111983273Y-84444542D01*
X112023104Y-84513530D01*
X112027685Y-84527630D01*
X112031856Y-84535433D01*
X112054852Y-84611242D01*
X112081311Y-84692672D01*
X112082242Y-84701532D01*
X112083094Y-84704340D01*
X112091384Y-84788513D01*
X112101000Y-84880000D01*
X112091383Y-84971494D01*
X112083094Y-85055659D01*
X112082242Y-85058466D01*
X112081311Y-85067328D01*
X112054848Y-85148771D01*
X112031856Y-85224566D01*
X112027686Y-85232366D01*
X112023104Y-85246470D01*
X111983266Y-85315470D01*
X111948651Y-85380232D01*
X111939294Y-85391633D01*
X111928924Y-85409595D01*
X111879563Y-85464415D01*
X111836675Y-85516675D01*
X111820714Y-85529773D01*
X111802887Y-85549573D01*
X111747977Y-85589467D01*
X111700232Y-85628651D01*
X111676827Y-85641161D01*
X111650500Y-85660289D01*
X111593873Y-85685500D01*
X111544566Y-85711856D01*
X111513537Y-85721268D01*
X111478424Y-85736902D01*
X111423555Y-85748564D01*
X111375659Y-85763094D01*
X111337532Y-85766849D01*
X111294180Y-85776064D01*
X111243973Y-85776064D01*
X111200000Y-85780395D01*
X111156027Y-85776064D01*
X111105820Y-85776064D01*
X111062467Y-85766849D01*
X111024340Y-85763094D01*
X110976441Y-85748563D01*
X110921576Y-85736902D01*
X110886464Y-85721269D01*
X110855433Y-85711856D01*
X110806120Y-85685498D01*
X110749500Y-85660289D01*
X110723175Y-85641163D01*
X110699767Y-85628651D01*
X110652013Y-85589460D01*
X110597113Y-85549573D01*
X110579287Y-85529776D01*
X110563324Y-85516675D01*
X110520425Y-85464402D01*
X110471076Y-85409595D01*
X110460708Y-85391637D01*
X110451348Y-85380232D01*
X110416719Y-85315447D01*
X110376896Y-85246470D01*
X110372315Y-85232371D01*
X110368143Y-85224566D01*
X110345136Y-85148725D01*
X110318689Y-85067328D01*
X110317758Y-85058471D01*
X110316905Y-85055659D01*
X110308600Y-84971342D01*
X110299000Y-84880000D01*
X110308599Y-84788664D01*
X110316905Y-84704340D01*
X110317758Y-84701527D01*
X110318689Y-84692672D01*
X110345132Y-84611288D01*
X110368143Y-84535433D01*
X110372315Y-84527626D01*
X110376896Y-84513530D01*
X110416712Y-84444565D01*
X110451348Y-84379767D01*
X110460710Y-84368359D01*
X110471076Y-84350405D01*
X110520416Y-84295607D01*
X110563324Y-84243324D01*
X110579291Y-84230219D01*
X110597113Y-84210427D01*
X110652002Y-84170546D01*
X110699767Y-84131348D01*
X110723180Y-84118833D01*
X110749500Y-84099711D01*
X110806109Y-84074506D01*
X110855433Y-84048143D01*
X110886471Y-84038727D01*
X110921576Y-84023098D01*
X110976430Y-84011438D01*
X111024340Y-83996905D01*
X111062476Y-83993148D01*
X111105820Y-83983936D01*
X111156016Y-83983936D01*
X111200000Y-83979604D01*
X111243983Y-83983936D01*
G37*
G36*
X111243983Y-81443936D02*
G01*
X111294180Y-81443936D01*
X111337524Y-81453149D01*
X111375659Y-81456905D01*
X111423566Y-81471437D01*
X111478424Y-81483098D01*
X111513530Y-81498728D01*
X111544566Y-81508143D01*
X111593884Y-81534504D01*
X111650500Y-81559711D01*
X111676822Y-81578835D01*
X111700232Y-81591348D01*
X111747988Y-81630540D01*
X111802887Y-81670427D01*
X111820711Y-81690223D01*
X111836675Y-81703324D01*
X111879572Y-81755594D01*
X111928924Y-81810405D01*
X111939292Y-81828363D01*
X111948651Y-81839767D01*
X111983273Y-81904542D01*
X112023104Y-81973530D01*
X112027685Y-81987630D01*
X112031856Y-81995433D01*
X112054852Y-82071242D01*
X112081311Y-82152672D01*
X112082242Y-82161532D01*
X112083094Y-82164340D01*
X112091384Y-82248513D01*
X112101000Y-82340000D01*
X112091383Y-82431494D01*
X112083094Y-82515659D01*
X112082242Y-82518466D01*
X112081311Y-82527328D01*
X112054848Y-82608771D01*
X112031856Y-82684566D01*
X112027686Y-82692366D01*
X112023104Y-82706470D01*
X111983266Y-82775470D01*
X111948651Y-82840232D01*
X111939294Y-82851633D01*
X111928924Y-82869595D01*
X111879563Y-82924415D01*
X111836675Y-82976675D01*
X111820714Y-82989773D01*
X111802887Y-83009573D01*
X111747977Y-83049467D01*
X111700232Y-83088651D01*
X111676827Y-83101161D01*
X111650500Y-83120289D01*
X111593873Y-83145500D01*
X111544566Y-83171856D01*
X111513537Y-83181268D01*
X111478424Y-83196902D01*
X111423555Y-83208564D01*
X111375659Y-83223094D01*
X111337532Y-83226849D01*
X111294180Y-83236064D01*
X111243973Y-83236064D01*
X111200000Y-83240395D01*
X111156027Y-83236064D01*
X111105820Y-83236064D01*
X111062467Y-83226849D01*
X111024340Y-83223094D01*
X110976441Y-83208563D01*
X110921576Y-83196902D01*
X110886464Y-83181269D01*
X110855433Y-83171856D01*
X110806120Y-83145498D01*
X110749500Y-83120289D01*
X110723175Y-83101163D01*
X110699767Y-83088651D01*
X110652013Y-83049460D01*
X110597113Y-83009573D01*
X110579287Y-82989776D01*
X110563324Y-82976675D01*
X110520425Y-82924402D01*
X110471076Y-82869595D01*
X110460708Y-82851637D01*
X110451348Y-82840232D01*
X110416719Y-82775447D01*
X110376896Y-82706470D01*
X110372315Y-82692371D01*
X110368143Y-82684566D01*
X110345136Y-82608725D01*
X110318689Y-82527328D01*
X110317758Y-82518471D01*
X110316905Y-82515659D01*
X110308600Y-82431342D01*
X110299000Y-82340000D01*
X110308599Y-82248664D01*
X110316905Y-82164340D01*
X110317758Y-82161527D01*
X110318689Y-82152672D01*
X110345132Y-82071288D01*
X110368143Y-81995433D01*
X110372315Y-81987626D01*
X110376896Y-81973530D01*
X110416712Y-81904565D01*
X110451348Y-81839767D01*
X110460710Y-81828359D01*
X110471076Y-81810405D01*
X110520416Y-81755607D01*
X110563324Y-81703324D01*
X110579291Y-81690219D01*
X110597113Y-81670427D01*
X110652002Y-81630546D01*
X110699767Y-81591348D01*
X110723180Y-81578833D01*
X110749500Y-81559711D01*
X110806109Y-81534506D01*
X110855433Y-81508143D01*
X110886471Y-81498727D01*
X110921576Y-81483098D01*
X110976430Y-81471438D01*
X111024340Y-81456905D01*
X111062476Y-81453148D01*
X111105820Y-81443936D01*
X111156016Y-81443936D01*
X111200000Y-81439604D01*
X111243983Y-81443936D01*
G37*
G36*
X121849517Y-80232882D02*
G01*
X121866062Y-80243938D01*
X121877118Y-80260483D01*
X121881000Y-80280000D01*
X121881000Y-81980000D01*
X121877118Y-81999517D01*
X121866062Y-82016062D01*
X121849517Y-82027118D01*
X121830000Y-82031000D01*
X120130000Y-82031000D01*
X120110483Y-82027118D01*
X120093938Y-82016062D01*
X120082882Y-81999517D01*
X120079000Y-81980000D01*
X120079000Y-80280000D01*
X120082882Y-80260483D01*
X120093938Y-80243938D01*
X120110483Y-80232882D01*
X120130000Y-80229000D01*
X121830000Y-80229000D01*
X121849517Y-80232882D01*
G37*
G36*
X126499517Y-80232882D02*
G01*
X126516062Y-80243938D01*
X126527118Y-80260483D01*
X126531000Y-80280000D01*
X126531000Y-81980000D01*
X126527118Y-81999517D01*
X126516062Y-82016062D01*
X126499517Y-82027118D01*
X126480000Y-82031000D01*
X124780000Y-82031000D01*
X124760483Y-82027118D01*
X124743938Y-82016062D01*
X124732882Y-81999517D01*
X124729000Y-81980000D01*
X124729000Y-80280000D01*
X124732882Y-80260483D01*
X124743938Y-80243938D01*
X124760483Y-80232882D01*
X124780000Y-80229000D01*
X126480000Y-80229000D01*
X126499517Y-80232882D01*
G37*
G36*
X182468039Y-79848331D02*
G01*
X182496904Y-79848331D01*
X182529999Y-79856488D01*
X182573209Y-79862177D01*
X182602788Y-79874429D01*
X182625662Y-79880067D01*
X182660346Y-79898270D01*
X182706099Y-79917222D01*
X182726969Y-79933236D01*
X182743080Y-79941692D01*
X182776021Y-79970875D01*
X182820214Y-80004786D01*
X182832773Y-80021153D01*
X182842340Y-80029629D01*
X182869771Y-80069369D01*
X182907778Y-80118901D01*
X182913506Y-80132731D01*
X182917672Y-80138766D01*
X182935740Y-80186409D01*
X182962823Y-80251791D01*
X182964038Y-80261022D01*
X182964695Y-80262754D01*
X182969779Y-80304628D01*
X182981598Y-80394400D01*
X182969778Y-80484179D01*
X182964695Y-80526045D01*
X182964038Y-80527775D01*
X182962823Y-80537009D01*
X182935736Y-80602401D01*
X182917672Y-80650033D01*
X182913508Y-80656065D01*
X182907778Y-80669899D01*
X182869764Y-80719439D01*
X182842340Y-80759170D01*
X182832775Y-80767643D01*
X182820214Y-80784014D01*
X182776012Y-80817930D01*
X182743080Y-80847107D01*
X182726973Y-80855560D01*
X182706099Y-80871578D01*
X182660337Y-80890533D01*
X182625662Y-80908732D01*
X182602792Y-80914368D01*
X182573209Y-80926623D01*
X182529997Y-80932311D01*
X182496904Y-80940469D01*
X182468039Y-80940469D01*
X182430600Y-80945398D01*
X182393161Y-80940469D01*
X182364296Y-80940469D01*
X182331202Y-80932311D01*
X182287991Y-80926623D01*
X182258408Y-80914369D01*
X182235537Y-80908732D01*
X182200857Y-80890531D01*
X182155101Y-80871578D01*
X182134228Y-80855561D01*
X182118119Y-80847107D01*
X182085179Y-80817925D01*
X182040986Y-80784014D01*
X182028426Y-80767645D01*
X182018859Y-80759170D01*
X181991425Y-80719426D01*
X181953422Y-80669899D01*
X181947693Y-80656069D01*
X181943527Y-80650033D01*
X181925451Y-80602372D01*
X181898377Y-80537009D01*
X181897161Y-80527779D01*
X181896504Y-80526045D01*
X181891408Y-80484081D01*
X181879602Y-80394400D01*
X181891407Y-80304726D01*
X181896504Y-80262754D01*
X181897162Y-80261018D01*
X181898377Y-80251791D01*
X181925447Y-80186437D01*
X181943527Y-80138766D01*
X181947694Y-80132728D01*
X181953422Y-80118901D01*
X181991418Y-80069382D01*
X182018859Y-80029629D01*
X182028428Y-80021151D01*
X182040986Y-80004786D01*
X182085171Y-79970881D01*
X182118119Y-79941692D01*
X182134232Y-79933235D01*
X182155101Y-79917222D01*
X182200848Y-79898272D01*
X182235537Y-79880067D01*
X182258413Y-79874428D01*
X182287991Y-79862177D01*
X182331199Y-79856488D01*
X182364296Y-79848331D01*
X182393161Y-79848331D01*
X182430600Y-79843402D01*
X182468039Y-79848331D01*
G37*
G36*
X132229517Y-76372882D02*
G01*
X132246062Y-76383938D01*
X132257118Y-76400483D01*
X132261000Y-76420000D01*
X132261000Y-78120000D01*
X132257118Y-78139517D01*
X132246062Y-78156062D01*
X132229517Y-78167118D01*
X132210000Y-78171000D01*
X130510000Y-78171000D01*
X130490483Y-78167118D01*
X130473938Y-78156062D01*
X130462882Y-78139517D01*
X130459000Y-78120000D01*
X130459000Y-76420000D01*
X130462882Y-76400483D01*
X130473938Y-76383938D01*
X130490483Y-76372882D01*
X130510000Y-76369000D01*
X132210000Y-76369000D01*
X132229517Y-76372882D01*
G37*
G36*
X133943983Y-76373936D02*
G01*
X133994180Y-76373936D01*
X134037524Y-76383149D01*
X134075659Y-76386905D01*
X134123566Y-76401437D01*
X134178424Y-76413098D01*
X134213530Y-76428728D01*
X134244566Y-76438143D01*
X134293884Y-76464504D01*
X134350500Y-76489711D01*
X134376822Y-76508835D01*
X134400232Y-76521348D01*
X134447988Y-76560540D01*
X134502887Y-76600427D01*
X134520711Y-76620223D01*
X134536675Y-76633324D01*
X134579572Y-76685594D01*
X134628924Y-76740405D01*
X134639292Y-76758363D01*
X134648651Y-76769767D01*
X134683273Y-76834542D01*
X134723104Y-76903530D01*
X134727685Y-76917630D01*
X134731856Y-76925433D01*
X134754852Y-77001242D01*
X134781311Y-77082672D01*
X134782242Y-77091532D01*
X134783094Y-77094340D01*
X134791384Y-77178513D01*
X134801000Y-77270000D01*
X134791383Y-77361494D01*
X134783094Y-77445659D01*
X134782242Y-77448466D01*
X134781311Y-77457328D01*
X134754848Y-77538771D01*
X134731856Y-77614566D01*
X134727686Y-77622366D01*
X134723104Y-77636470D01*
X134683266Y-77705470D01*
X134648651Y-77770232D01*
X134639294Y-77781633D01*
X134628924Y-77799595D01*
X134579563Y-77854415D01*
X134536675Y-77906675D01*
X134520714Y-77919773D01*
X134502887Y-77939573D01*
X134447977Y-77979467D01*
X134400232Y-78018651D01*
X134376827Y-78031161D01*
X134350500Y-78050289D01*
X134293873Y-78075500D01*
X134244566Y-78101856D01*
X134213537Y-78111268D01*
X134178424Y-78126902D01*
X134123555Y-78138564D01*
X134075659Y-78153094D01*
X134037532Y-78156849D01*
X133994180Y-78166064D01*
X133943973Y-78166064D01*
X133900000Y-78170395D01*
X133856027Y-78166064D01*
X133805820Y-78166064D01*
X133762467Y-78156849D01*
X133724340Y-78153094D01*
X133676441Y-78138563D01*
X133621576Y-78126902D01*
X133586464Y-78111269D01*
X133555433Y-78101856D01*
X133506120Y-78075498D01*
X133449500Y-78050289D01*
X133423175Y-78031163D01*
X133399767Y-78018651D01*
X133352013Y-77979460D01*
X133297113Y-77939573D01*
X133279287Y-77919776D01*
X133263324Y-77906675D01*
X133220425Y-77854402D01*
X133171076Y-77799595D01*
X133160708Y-77781637D01*
X133151348Y-77770232D01*
X133116719Y-77705447D01*
X133076896Y-77636470D01*
X133072315Y-77622371D01*
X133068143Y-77614566D01*
X133045136Y-77538725D01*
X133018689Y-77457328D01*
X133017758Y-77448471D01*
X133016905Y-77445659D01*
X133008600Y-77361342D01*
X132999000Y-77270000D01*
X133008599Y-77178664D01*
X133016905Y-77094340D01*
X133017758Y-77091527D01*
X133018689Y-77082672D01*
X133045132Y-77001288D01*
X133068143Y-76925433D01*
X133072315Y-76917626D01*
X133076896Y-76903530D01*
X133116712Y-76834565D01*
X133151348Y-76769767D01*
X133160710Y-76758359D01*
X133171076Y-76740405D01*
X133220416Y-76685607D01*
X133263324Y-76633324D01*
X133279291Y-76620219D01*
X133297113Y-76600427D01*
X133352002Y-76560546D01*
X133399767Y-76521348D01*
X133423180Y-76508833D01*
X133449500Y-76489711D01*
X133506109Y-76464506D01*
X133555433Y-76438143D01*
X133586471Y-76428727D01*
X133621576Y-76413098D01*
X133676430Y-76401438D01*
X133724340Y-76386905D01*
X133762476Y-76383148D01*
X133805820Y-76373936D01*
X133856016Y-76373936D01*
X133900000Y-76369604D01*
X133943983Y-76373936D01*
G37*
G36*
X148459517Y-73882882D02*
G01*
X148476062Y-73893938D01*
X148487118Y-73910483D01*
X148491000Y-73930000D01*
X148491000Y-75630000D01*
X148487118Y-75649517D01*
X148476062Y-75666062D01*
X148459517Y-75677118D01*
X148440000Y-75681000D01*
X146740000Y-75681000D01*
X146720483Y-75677118D01*
X146703938Y-75666062D01*
X146692882Y-75649517D01*
X146689000Y-75630000D01*
X146689000Y-73930000D01*
X146692882Y-73910483D01*
X146703938Y-73893938D01*
X146720483Y-73882882D01*
X146740000Y-73879000D01*
X148440000Y-73879000D01*
X148459517Y-73882882D01*
G37*
G36*
X150173983Y-73883936D02*
G01*
X150224180Y-73883936D01*
X150267524Y-73893149D01*
X150305659Y-73896905D01*
X150353566Y-73911437D01*
X150408424Y-73923098D01*
X150443530Y-73938728D01*
X150474566Y-73948143D01*
X150523884Y-73974504D01*
X150580500Y-73999711D01*
X150606822Y-74018835D01*
X150630232Y-74031348D01*
X150677988Y-74070540D01*
X150732887Y-74110427D01*
X150750711Y-74130223D01*
X150766675Y-74143324D01*
X150809572Y-74195594D01*
X150858924Y-74250405D01*
X150869292Y-74268363D01*
X150878651Y-74279767D01*
X150913273Y-74344542D01*
X150953104Y-74413530D01*
X150957685Y-74427630D01*
X150961856Y-74435433D01*
X150984852Y-74511242D01*
X151011311Y-74592672D01*
X151012242Y-74601532D01*
X151013094Y-74604340D01*
X151021384Y-74688513D01*
X151031000Y-74780000D01*
X151021383Y-74871494D01*
X151013094Y-74955659D01*
X151012242Y-74958466D01*
X151011311Y-74967328D01*
X150984848Y-75048771D01*
X150961856Y-75124566D01*
X150957686Y-75132366D01*
X150953104Y-75146470D01*
X150913266Y-75215470D01*
X150878651Y-75280232D01*
X150869294Y-75291633D01*
X150858924Y-75309595D01*
X150809563Y-75364415D01*
X150766675Y-75416675D01*
X150750714Y-75429773D01*
X150732887Y-75449573D01*
X150677977Y-75489467D01*
X150630232Y-75528651D01*
X150606827Y-75541161D01*
X150580500Y-75560289D01*
X150523873Y-75585500D01*
X150474566Y-75611856D01*
X150443537Y-75621268D01*
X150408424Y-75636902D01*
X150353555Y-75648564D01*
X150305659Y-75663094D01*
X150267532Y-75666849D01*
X150224180Y-75676064D01*
X150173973Y-75676064D01*
X150130000Y-75680395D01*
X150086027Y-75676064D01*
X150035820Y-75676064D01*
X149992467Y-75666849D01*
X149954340Y-75663094D01*
X149906441Y-75648563D01*
X149851576Y-75636902D01*
X149816464Y-75621269D01*
X149785433Y-75611856D01*
X149736120Y-75585498D01*
X149679500Y-75560289D01*
X149653175Y-75541163D01*
X149629767Y-75528651D01*
X149582013Y-75489460D01*
X149527113Y-75449573D01*
X149509287Y-75429776D01*
X149493324Y-75416675D01*
X149450425Y-75364402D01*
X149401076Y-75309595D01*
X149390708Y-75291637D01*
X149381348Y-75280232D01*
X149346719Y-75215447D01*
X149306896Y-75146470D01*
X149302315Y-75132371D01*
X149298143Y-75124566D01*
X149275136Y-75048725D01*
X149248689Y-74967328D01*
X149247758Y-74958471D01*
X149246905Y-74955659D01*
X149238600Y-74871342D01*
X149229000Y-74780000D01*
X149238599Y-74688664D01*
X149246905Y-74604340D01*
X149247758Y-74601527D01*
X149248689Y-74592672D01*
X149275132Y-74511288D01*
X149298143Y-74435433D01*
X149302315Y-74427626D01*
X149306896Y-74413530D01*
X149346712Y-74344565D01*
X149381348Y-74279767D01*
X149390710Y-74268359D01*
X149401076Y-74250405D01*
X149450416Y-74195607D01*
X149493324Y-74143324D01*
X149509291Y-74130219D01*
X149527113Y-74110427D01*
X149582002Y-74070546D01*
X149629767Y-74031348D01*
X149653180Y-74018833D01*
X149679500Y-73999711D01*
X149736109Y-73974506D01*
X149785433Y-73948143D01*
X149816471Y-73938727D01*
X149851576Y-73923098D01*
X149906430Y-73911438D01*
X149954340Y-73896905D01*
X149992476Y-73893148D01*
X150035820Y-73883936D01*
X150086016Y-73883936D01*
X150130000Y-73879604D01*
X150173983Y-73883936D01*
G37*
G36*
X152713983Y-73883936D02*
G01*
X152764180Y-73883936D01*
X152807524Y-73893149D01*
X152845659Y-73896905D01*
X152893566Y-73911437D01*
X152948424Y-73923098D01*
X152983530Y-73938728D01*
X153014566Y-73948143D01*
X153063884Y-73974504D01*
X153120500Y-73999711D01*
X153146822Y-74018835D01*
X153170232Y-74031348D01*
X153217988Y-74070540D01*
X153272887Y-74110427D01*
X153290711Y-74130223D01*
X153306675Y-74143324D01*
X153349572Y-74195594D01*
X153398924Y-74250405D01*
X153409292Y-74268363D01*
X153418651Y-74279767D01*
X153453273Y-74344542D01*
X153493104Y-74413530D01*
X153497685Y-74427630D01*
X153501856Y-74435433D01*
X153524852Y-74511242D01*
X153551311Y-74592672D01*
X153552242Y-74601532D01*
X153553094Y-74604340D01*
X153561384Y-74688513D01*
X153571000Y-74780000D01*
X153561383Y-74871494D01*
X153553094Y-74955659D01*
X153552242Y-74958466D01*
X153551311Y-74967328D01*
X153524848Y-75048771D01*
X153501856Y-75124566D01*
X153497686Y-75132366D01*
X153493104Y-75146470D01*
X153453266Y-75215470D01*
X153418651Y-75280232D01*
X153409294Y-75291633D01*
X153398924Y-75309595D01*
X153349563Y-75364415D01*
X153306675Y-75416675D01*
X153290714Y-75429773D01*
X153272887Y-75449573D01*
X153217977Y-75489467D01*
X153170232Y-75528651D01*
X153146827Y-75541161D01*
X153120500Y-75560289D01*
X153063873Y-75585500D01*
X153014566Y-75611856D01*
X152983537Y-75621268D01*
X152948424Y-75636902D01*
X152893555Y-75648564D01*
X152845659Y-75663094D01*
X152807532Y-75666849D01*
X152764180Y-75676064D01*
X152713973Y-75676064D01*
X152670000Y-75680395D01*
X152626027Y-75676064D01*
X152575820Y-75676064D01*
X152532467Y-75666849D01*
X152494340Y-75663094D01*
X152446441Y-75648563D01*
X152391576Y-75636902D01*
X152356464Y-75621269D01*
X152325433Y-75611856D01*
X152276120Y-75585498D01*
X152219500Y-75560289D01*
X152193175Y-75541163D01*
X152169767Y-75528651D01*
X152122013Y-75489460D01*
X152067113Y-75449573D01*
X152049287Y-75429776D01*
X152033324Y-75416675D01*
X151990425Y-75364402D01*
X151941076Y-75309595D01*
X151930708Y-75291637D01*
X151921348Y-75280232D01*
X151886719Y-75215447D01*
X151846896Y-75146470D01*
X151842315Y-75132371D01*
X151838143Y-75124566D01*
X151815136Y-75048725D01*
X151788689Y-74967328D01*
X151787758Y-74958471D01*
X151786905Y-74955659D01*
X151778600Y-74871342D01*
X151769000Y-74780000D01*
X151778599Y-74688664D01*
X151786905Y-74604340D01*
X151787758Y-74601527D01*
X151788689Y-74592672D01*
X151815132Y-74511288D01*
X151838143Y-74435433D01*
X151842315Y-74427626D01*
X151846896Y-74413530D01*
X151886712Y-74344565D01*
X151921348Y-74279767D01*
X151930710Y-74268359D01*
X151941076Y-74250405D01*
X151990416Y-74195607D01*
X152033324Y-74143324D01*
X152049291Y-74130219D01*
X152067113Y-74110427D01*
X152122002Y-74070546D01*
X152169767Y-74031348D01*
X152193180Y-74018833D01*
X152219500Y-73999711D01*
X152276109Y-73974506D01*
X152325433Y-73948143D01*
X152356471Y-73938727D01*
X152391576Y-73923098D01*
X152446430Y-73911438D01*
X152494340Y-73896905D01*
X152532476Y-73893148D01*
X152575820Y-73883936D01*
X152626016Y-73883936D01*
X152670000Y-73879604D01*
X152713983Y-73883936D01*
G37*
G36*
X155253983Y-73883936D02*
G01*
X155304180Y-73883936D01*
X155347524Y-73893149D01*
X155385659Y-73896905D01*
X155433566Y-73911437D01*
X155488424Y-73923098D01*
X155523530Y-73938728D01*
X155554566Y-73948143D01*
X155603884Y-73974504D01*
X155660500Y-73999711D01*
X155686822Y-74018835D01*
X155710232Y-74031348D01*
X155757988Y-74070540D01*
X155812887Y-74110427D01*
X155830711Y-74130223D01*
X155846675Y-74143324D01*
X155889572Y-74195594D01*
X155938924Y-74250405D01*
X155949292Y-74268363D01*
X155958651Y-74279767D01*
X155993273Y-74344542D01*
X156033104Y-74413530D01*
X156037685Y-74427630D01*
X156041856Y-74435433D01*
X156064852Y-74511242D01*
X156091311Y-74592672D01*
X156092242Y-74601532D01*
X156093094Y-74604340D01*
X156101384Y-74688513D01*
X156111000Y-74780000D01*
X156101383Y-74871494D01*
X156093094Y-74955659D01*
X156092242Y-74958466D01*
X156091311Y-74967328D01*
X156064848Y-75048771D01*
X156041856Y-75124566D01*
X156037686Y-75132366D01*
X156033104Y-75146470D01*
X155993266Y-75215470D01*
X155958651Y-75280232D01*
X155949294Y-75291633D01*
X155938924Y-75309595D01*
X155889563Y-75364415D01*
X155846675Y-75416675D01*
X155830714Y-75429773D01*
X155812887Y-75449573D01*
X155757977Y-75489467D01*
X155710232Y-75528651D01*
X155686827Y-75541161D01*
X155660500Y-75560289D01*
X155603873Y-75585500D01*
X155554566Y-75611856D01*
X155523537Y-75621268D01*
X155488424Y-75636902D01*
X155433555Y-75648564D01*
X155385659Y-75663094D01*
X155347532Y-75666849D01*
X155304180Y-75676064D01*
X155253973Y-75676064D01*
X155210000Y-75680395D01*
X155166027Y-75676064D01*
X155115820Y-75676064D01*
X155072467Y-75666849D01*
X155034340Y-75663094D01*
X154986441Y-75648563D01*
X154931576Y-75636902D01*
X154896464Y-75621269D01*
X154865433Y-75611856D01*
X154816120Y-75585498D01*
X154759500Y-75560289D01*
X154733175Y-75541163D01*
X154709767Y-75528651D01*
X154662013Y-75489460D01*
X154607113Y-75449573D01*
X154589287Y-75429776D01*
X154573324Y-75416675D01*
X154530425Y-75364402D01*
X154481076Y-75309595D01*
X154470708Y-75291637D01*
X154461348Y-75280232D01*
X154426719Y-75215447D01*
X154386896Y-75146470D01*
X154382315Y-75132371D01*
X154378143Y-75124566D01*
X154355136Y-75048725D01*
X154328689Y-74967328D01*
X154327758Y-74958471D01*
X154326905Y-74955659D01*
X154318600Y-74871342D01*
X154309000Y-74780000D01*
X154318599Y-74688664D01*
X154326905Y-74604340D01*
X154327758Y-74601527D01*
X154328689Y-74592672D01*
X154355132Y-74511288D01*
X154378143Y-74435433D01*
X154382315Y-74427626D01*
X154386896Y-74413530D01*
X154426712Y-74344565D01*
X154461348Y-74279767D01*
X154470710Y-74268359D01*
X154481076Y-74250405D01*
X154530416Y-74195607D01*
X154573324Y-74143324D01*
X154589291Y-74130219D01*
X154607113Y-74110427D01*
X154662002Y-74070546D01*
X154709767Y-74031348D01*
X154733180Y-74018833D01*
X154759500Y-73999711D01*
X154816109Y-73974506D01*
X154865433Y-73948143D01*
X154896471Y-73938727D01*
X154931576Y-73923098D01*
X154986430Y-73911438D01*
X155034340Y-73896905D01*
X155072476Y-73893148D01*
X155115820Y-73883936D01*
X155166016Y-73883936D01*
X155210000Y-73879604D01*
X155253983Y-73883936D01*
G37*
G36*
X157793983Y-73883936D02*
G01*
X157844180Y-73883936D01*
X157887524Y-73893149D01*
X157925659Y-73896905D01*
X157973566Y-73911437D01*
X158028424Y-73923098D01*
X158063530Y-73938728D01*
X158094566Y-73948143D01*
X158143884Y-73974504D01*
X158200500Y-73999711D01*
X158226822Y-74018835D01*
X158250232Y-74031348D01*
X158297988Y-74070540D01*
X158352887Y-74110427D01*
X158370711Y-74130223D01*
X158386675Y-74143324D01*
X158429572Y-74195594D01*
X158478924Y-74250405D01*
X158489292Y-74268363D01*
X158498651Y-74279767D01*
X158533273Y-74344542D01*
X158573104Y-74413530D01*
X158577685Y-74427630D01*
X158581856Y-74435433D01*
X158604852Y-74511242D01*
X158631311Y-74592672D01*
X158632242Y-74601532D01*
X158633094Y-74604340D01*
X158641384Y-74688513D01*
X158651000Y-74780000D01*
X158641383Y-74871494D01*
X158633094Y-74955659D01*
X158632242Y-74958466D01*
X158631311Y-74967328D01*
X158604848Y-75048771D01*
X158581856Y-75124566D01*
X158577686Y-75132366D01*
X158573104Y-75146470D01*
X158533266Y-75215470D01*
X158498651Y-75280232D01*
X158489294Y-75291633D01*
X158478924Y-75309595D01*
X158429563Y-75364415D01*
X158386675Y-75416675D01*
X158370714Y-75429773D01*
X158352887Y-75449573D01*
X158297977Y-75489467D01*
X158250232Y-75528651D01*
X158226827Y-75541161D01*
X158200500Y-75560289D01*
X158143873Y-75585500D01*
X158094566Y-75611856D01*
X158063537Y-75621268D01*
X158028424Y-75636902D01*
X157973555Y-75648564D01*
X157925659Y-75663094D01*
X157887532Y-75666849D01*
X157844180Y-75676064D01*
X157793973Y-75676064D01*
X157750000Y-75680395D01*
X157706027Y-75676064D01*
X157655820Y-75676064D01*
X157612467Y-75666849D01*
X157574340Y-75663094D01*
X157526441Y-75648563D01*
X157471576Y-75636902D01*
X157436464Y-75621269D01*
X157405433Y-75611856D01*
X157356120Y-75585498D01*
X157299500Y-75560289D01*
X157273175Y-75541163D01*
X157249767Y-75528651D01*
X157202013Y-75489460D01*
X157147113Y-75449573D01*
X157129287Y-75429776D01*
X157113324Y-75416675D01*
X157070425Y-75364402D01*
X157021076Y-75309595D01*
X157010708Y-75291637D01*
X157001348Y-75280232D01*
X156966719Y-75215447D01*
X156926896Y-75146470D01*
X156922315Y-75132371D01*
X156918143Y-75124566D01*
X156895136Y-75048725D01*
X156868689Y-74967328D01*
X156867758Y-74958471D01*
X156866905Y-74955659D01*
X156858600Y-74871342D01*
X156849000Y-74780000D01*
X156858599Y-74688664D01*
X156866905Y-74604340D01*
X156867758Y-74601527D01*
X156868689Y-74592672D01*
X156895132Y-74511288D01*
X156918143Y-74435433D01*
X156922315Y-74427626D01*
X156926896Y-74413530D01*
X156966712Y-74344565D01*
X157001348Y-74279767D01*
X157010710Y-74268359D01*
X157021076Y-74250405D01*
X157070416Y-74195607D01*
X157113324Y-74143324D01*
X157129291Y-74130219D01*
X157147113Y-74110427D01*
X157202002Y-74070546D01*
X157249767Y-74031348D01*
X157273180Y-74018833D01*
X157299500Y-73999711D01*
X157356109Y-73974506D01*
X157405433Y-73948143D01*
X157436471Y-73938727D01*
X157471576Y-73923098D01*
X157526430Y-73911438D01*
X157574340Y-73896905D01*
X157612476Y-73893148D01*
X157655820Y-73883936D01*
X157706016Y-73883936D01*
X157750000Y-73879604D01*
X157793983Y-73883936D01*
G37*
G36*
X179568508Y-68801648D02*
G01*
X179811445Y-68876584D01*
X180040500Y-68986891D01*
X180250556Y-69130105D01*
X180436921Y-69303026D01*
X180595432Y-69501793D01*
X180722548Y-69721964D01*
X180815429Y-69958621D01*
X180872001Y-70206479D01*
X180891000Y-70460000D01*
X180872001Y-70713521D01*
X180815429Y-70961379D01*
X180722548Y-71198036D01*
X180595432Y-71418207D01*
X180436921Y-71616974D01*
X180250556Y-71789895D01*
X180040500Y-71933109D01*
X179811445Y-72043416D01*
X179568508Y-72118352D01*
X179317116Y-72156244D01*
X179062884Y-72156244D01*
X178811492Y-72118352D01*
X178568555Y-72043416D01*
X178339500Y-71933109D01*
X178129444Y-71789895D01*
X177943079Y-71616974D01*
X177784568Y-71418207D01*
X177657452Y-71198036D01*
X177564571Y-70961379D01*
X177507999Y-70713521D01*
X177489000Y-70460000D01*
X177507999Y-70206479D01*
X177564571Y-69958621D01*
X177657452Y-69721964D01*
X177784568Y-69501793D01*
X177943079Y-69303026D01*
X178129444Y-69130105D01*
X178339500Y-68986891D01*
X178568555Y-68876584D01*
X178811492Y-68801648D01*
X179062884Y-68763756D01*
X179317116Y-68763756D01*
X179568508Y-68801648D01*
G37*
G36*
X111528508Y-68681648D02*
G01*
X111771445Y-68756584D01*
X112000500Y-68866891D01*
X112210556Y-69010105D01*
X112396921Y-69183026D01*
X112555432Y-69381793D01*
X112682548Y-69601964D01*
X112775429Y-69838621D01*
X112832001Y-70086479D01*
X112851000Y-70340000D01*
X112850894Y-70341410D01*
X112852200Y-70358000D01*
X112844872Y-70451103D01*
X112833414Y-70604013D01*
X112832534Y-70607865D01*
X112831873Y-70616273D01*
X112806352Y-70722573D01*
X112778514Y-70844539D01*
X112774798Y-70854005D01*
X112771394Y-70868187D01*
X112730231Y-70967563D01*
X112688385Y-71074187D01*
X112680179Y-71088399D01*
X112672252Y-71107538D01*
X112618277Y-71195616D01*
X112565030Y-71287843D01*
X112550911Y-71305546D01*
X112536887Y-71328433D01*
X112473116Y-71403098D01*
X112411213Y-71480723D01*
X112407808Y-71483883D01*
X112404625Y-71487312D01*
X112396921Y-71496974D01*
X112377734Y-71514776D01*
X112368633Y-71525433D01*
X112338657Y-71551034D01*
X112210556Y-71669895D01*
X112000500Y-71813109D01*
X111771445Y-71923416D01*
X111528508Y-71998352D01*
X111277116Y-72036244D01*
X111022884Y-72036244D01*
X110771492Y-71998352D01*
X110528555Y-71923416D01*
X110299500Y-71813109D01*
X110089444Y-71669895D01*
X109903079Y-71496974D01*
X109744568Y-71298207D01*
X109617452Y-71078036D01*
X109524571Y-70841379D01*
X109467999Y-70593521D01*
X109449000Y-70340000D01*
X109467999Y-70086479D01*
X109524571Y-69838621D01*
X109617452Y-69601964D01*
X109744568Y-69381793D01*
X109903079Y-69183026D01*
X110089444Y-69010105D01*
X110299500Y-68866891D01*
X110528555Y-68756584D01*
X110771492Y-68681648D01*
X111022884Y-68643756D01*
X111277116Y-68643756D01*
X111528508Y-68681648D01*
G37*
M02*
